G04 #@! TF.GenerationSoftware,KiCad,Pcbnew,5.1.5-52549c5~84~ubuntu18.04.1*
G04 #@! TF.CreationDate,2020-03-24T02:23:38-04:00*
G04 #@! TF.ProjectId,SwarmBot,53776172-6d42-46f7-942e-6b696361645f,rev?*
G04 #@! TF.SameCoordinates,Original*
G04 #@! TF.FileFunction,Soldermask,Bot*
G04 #@! TF.FilePolarity,Negative*
%FSLAX46Y46*%
G04 Gerber Fmt 4.6, Leading zero omitted, Abs format (unit mm)*
G04 Created by KiCad (PCBNEW 5.1.5-52549c5~84~ubuntu18.04.1) date 2020-03-24 02:23:38*
%MOMM*%
%LPD*%
G04 APERTURE LIST*
%ADD10C,0.100000*%
G04 APERTURE END LIST*
D10*
G36*
X-7720072Y-21066764D02*
G01*
X-7698991Y-21073160D01*
X-7679555Y-21083548D01*
X-7662524Y-21097524D01*
X-7648548Y-21114555D01*
X-7638160Y-21133991D01*
X-7631764Y-21155072D01*
X-7629000Y-21183140D01*
X-7629000Y-22696860D01*
X-7631764Y-22724928D01*
X-7638160Y-22746009D01*
X-7648548Y-22765445D01*
X-7662524Y-22782476D01*
X-7679555Y-22796452D01*
X-7698991Y-22806840D01*
X-7720072Y-22813236D01*
X-7748140Y-22816000D01*
X-8211860Y-22816000D01*
X-8239928Y-22813236D01*
X-8261009Y-22806840D01*
X-8280445Y-22796452D01*
X-8297476Y-22782476D01*
X-8311452Y-22765445D01*
X-8321840Y-22746009D01*
X-8328236Y-22724928D01*
X-8331000Y-22696860D01*
X-8331000Y-21183140D01*
X-8328236Y-21155072D01*
X-8321840Y-21133991D01*
X-8311452Y-21114555D01*
X-8297476Y-21097524D01*
X-8280445Y-21083548D01*
X-8261009Y-21073160D01*
X-8239928Y-21066764D01*
X-8211860Y-21064000D01*
X-7748140Y-21064000D01*
X-7720072Y-21066764D01*
G37*
G36*
X-8990072Y-21066764D02*
G01*
X-8968991Y-21073160D01*
X-8949555Y-21083548D01*
X-8932524Y-21097524D01*
X-8918548Y-21114555D01*
X-8908160Y-21133991D01*
X-8901764Y-21155072D01*
X-8899000Y-21183140D01*
X-8899000Y-22696860D01*
X-8901764Y-22724928D01*
X-8908160Y-22746009D01*
X-8918548Y-22765445D01*
X-8932524Y-22782476D01*
X-8949555Y-22796452D01*
X-8968991Y-22806840D01*
X-8990072Y-22813236D01*
X-9018140Y-22816000D01*
X-9481860Y-22816000D01*
X-9509928Y-22813236D01*
X-9531009Y-22806840D01*
X-9550445Y-22796452D01*
X-9567476Y-22782476D01*
X-9581452Y-22765445D01*
X-9591840Y-22746009D01*
X-9598236Y-22724928D01*
X-9601000Y-22696860D01*
X-9601000Y-21183140D01*
X-9598236Y-21155072D01*
X-9591840Y-21133991D01*
X-9581452Y-21114555D01*
X-9567476Y-21097524D01*
X-9550445Y-21083548D01*
X-9531009Y-21073160D01*
X-9509928Y-21066764D01*
X-9481860Y-21064000D01*
X-9018140Y-21064000D01*
X-8990072Y-21066764D01*
G37*
G36*
X-5180072Y-21066764D02*
G01*
X-5158991Y-21073160D01*
X-5139555Y-21083548D01*
X-5122524Y-21097524D01*
X-5108548Y-21114555D01*
X-5098160Y-21133991D01*
X-5091764Y-21155072D01*
X-5089000Y-21183140D01*
X-5089000Y-22696860D01*
X-5091764Y-22724928D01*
X-5098160Y-22746009D01*
X-5108548Y-22765445D01*
X-5122524Y-22782476D01*
X-5139555Y-22796452D01*
X-5158991Y-22806840D01*
X-5180072Y-22813236D01*
X-5208140Y-22816000D01*
X-5671860Y-22816000D01*
X-5699928Y-22813236D01*
X-5721009Y-22806840D01*
X-5740445Y-22796452D01*
X-5757476Y-22782476D01*
X-5771452Y-22765445D01*
X-5781840Y-22746009D01*
X-5788236Y-22724928D01*
X-5791000Y-22696860D01*
X-5791000Y-21183140D01*
X-5788236Y-21155072D01*
X-5781840Y-21133991D01*
X-5771452Y-21114555D01*
X-5757476Y-21097524D01*
X-5740445Y-21083548D01*
X-5721009Y-21073160D01*
X-5699928Y-21066764D01*
X-5671860Y-21064000D01*
X-5208140Y-21064000D01*
X-5180072Y-21066764D01*
G37*
G36*
X-6450072Y-21066764D02*
G01*
X-6428991Y-21073160D01*
X-6409555Y-21083548D01*
X-6392524Y-21097524D01*
X-6378548Y-21114555D01*
X-6368160Y-21133991D01*
X-6361764Y-21155072D01*
X-6359000Y-21183140D01*
X-6359000Y-22696860D01*
X-6361764Y-22724928D01*
X-6368160Y-22746009D01*
X-6378548Y-22765445D01*
X-6392524Y-22782476D01*
X-6409555Y-22796452D01*
X-6428991Y-22806840D01*
X-6450072Y-22813236D01*
X-6478140Y-22816000D01*
X-6941860Y-22816000D01*
X-6969928Y-22813236D01*
X-6991009Y-22806840D01*
X-7010445Y-22796452D01*
X-7027476Y-22782476D01*
X-7041452Y-22765445D01*
X-7051840Y-22746009D01*
X-7058236Y-22724928D01*
X-7061000Y-22696860D01*
X-7061000Y-21183140D01*
X-7058236Y-21155072D01*
X-7051840Y-21133991D01*
X-7041452Y-21114555D01*
X-7027476Y-21097524D01*
X-7010445Y-21083548D01*
X-6991009Y-21073160D01*
X-6969928Y-21066764D01*
X-6941860Y-21064000D01*
X-6478140Y-21064000D01*
X-6450072Y-21066764D01*
G37*
G36*
X598254Y-18027818D02*
G01*
X971511Y-18182426D01*
X971513Y-18182427D01*
X1307436Y-18406884D01*
X1593116Y-18692564D01*
X1817574Y-19028489D01*
X1972182Y-19401746D01*
X2051000Y-19797993D01*
X2051000Y-20202007D01*
X1972182Y-20598254D01*
X1817574Y-20971511D01*
X1817573Y-20971513D01*
X1593116Y-21307436D01*
X1307436Y-21593116D01*
X971513Y-21817573D01*
X971512Y-21817574D01*
X971511Y-21817574D01*
X598254Y-21972182D01*
X202007Y-22051000D01*
X-202007Y-22051000D01*
X-598254Y-21972182D01*
X-971511Y-21817574D01*
X-971512Y-21817574D01*
X-971513Y-21817573D01*
X-1307436Y-21593116D01*
X-1593116Y-21307436D01*
X-1817573Y-20971513D01*
X-1817574Y-20971511D01*
X-1972182Y-20598254D01*
X-2051000Y-20202007D01*
X-2051000Y-19797993D01*
X-1972182Y-19401746D01*
X-1817574Y-19028489D01*
X-1593116Y-18692564D01*
X-1307436Y-18406884D01*
X-971513Y-18182427D01*
X-971511Y-18182426D01*
X-598254Y-18027818D01*
X-202007Y-17949000D01*
X202007Y-17949000D01*
X598254Y-18027818D01*
G37*
G36*
X4394928Y-19571764D02*
G01*
X4416009Y-19578160D01*
X4435445Y-19588548D01*
X4452476Y-19602524D01*
X4466452Y-19619555D01*
X4476840Y-19638991D01*
X4483236Y-19660072D01*
X4486000Y-19688140D01*
X4486000Y-21151860D01*
X4483236Y-21179928D01*
X4476840Y-21201009D01*
X4466452Y-21220445D01*
X4452476Y-21237476D01*
X4435445Y-21251452D01*
X4416009Y-21261840D01*
X4394928Y-21268236D01*
X4366860Y-21271000D01*
X3903140Y-21271000D01*
X3875072Y-21268236D01*
X3853991Y-21261840D01*
X3834555Y-21251452D01*
X3817524Y-21237476D01*
X3803548Y-21220445D01*
X3793160Y-21201009D01*
X3786764Y-21179928D01*
X3784000Y-21151860D01*
X3784000Y-19688140D01*
X3786764Y-19660072D01*
X3793160Y-19638991D01*
X3803548Y-19619555D01*
X3817524Y-19602524D01*
X3834555Y-19588548D01*
X3853991Y-19578160D01*
X3875072Y-19571764D01*
X3903140Y-19569000D01*
X4366860Y-19569000D01*
X4394928Y-19571764D01*
G37*
G36*
X5664928Y-19571764D02*
G01*
X5686009Y-19578160D01*
X5705445Y-19588548D01*
X5722476Y-19602524D01*
X5736452Y-19619555D01*
X5746840Y-19638991D01*
X5753236Y-19660072D01*
X5756000Y-19688140D01*
X5756000Y-21151860D01*
X5753236Y-21179928D01*
X5746840Y-21201009D01*
X5736452Y-21220445D01*
X5722476Y-21237476D01*
X5705445Y-21251452D01*
X5686009Y-21261840D01*
X5664928Y-21268236D01*
X5636860Y-21271000D01*
X5173140Y-21271000D01*
X5145072Y-21268236D01*
X5123991Y-21261840D01*
X5104555Y-21251452D01*
X5087524Y-21237476D01*
X5073548Y-21220445D01*
X5063160Y-21201009D01*
X5056764Y-21179928D01*
X5054000Y-21151860D01*
X5054000Y-19688140D01*
X5056764Y-19660072D01*
X5063160Y-19638991D01*
X5073548Y-19619555D01*
X5087524Y-19602524D01*
X5104555Y-19588548D01*
X5123991Y-19578160D01*
X5145072Y-19571764D01*
X5173140Y-19569000D01*
X5636860Y-19569000D01*
X5664928Y-19571764D01*
G37*
G36*
X6934928Y-19571764D02*
G01*
X6956009Y-19578160D01*
X6975445Y-19588548D01*
X6992476Y-19602524D01*
X7006452Y-19619555D01*
X7016840Y-19638991D01*
X7023236Y-19660072D01*
X7026000Y-19688140D01*
X7026000Y-21151860D01*
X7023236Y-21179928D01*
X7016840Y-21201009D01*
X7006452Y-21220445D01*
X6992476Y-21237476D01*
X6975445Y-21251452D01*
X6956009Y-21261840D01*
X6934928Y-21268236D01*
X6906860Y-21271000D01*
X6443140Y-21271000D01*
X6415072Y-21268236D01*
X6393991Y-21261840D01*
X6374555Y-21251452D01*
X6357524Y-21237476D01*
X6343548Y-21220445D01*
X6333160Y-21201009D01*
X6326764Y-21179928D01*
X6324000Y-21151860D01*
X6324000Y-19688140D01*
X6326764Y-19660072D01*
X6333160Y-19638991D01*
X6343548Y-19619555D01*
X6357524Y-19602524D01*
X6374555Y-19588548D01*
X6393991Y-19578160D01*
X6415072Y-19571764D01*
X6443140Y-19569000D01*
X6906860Y-19569000D01*
X6934928Y-19571764D01*
G37*
G36*
X8204928Y-19571764D02*
G01*
X8226009Y-19578160D01*
X8245445Y-19588548D01*
X8262476Y-19602524D01*
X8276452Y-19619555D01*
X8286840Y-19638991D01*
X8293236Y-19660072D01*
X8296000Y-19688140D01*
X8296000Y-21151860D01*
X8293236Y-21179928D01*
X8286840Y-21201009D01*
X8276452Y-21220445D01*
X8262476Y-21237476D01*
X8245445Y-21251452D01*
X8226009Y-21261840D01*
X8204928Y-21268236D01*
X8176860Y-21271000D01*
X7713140Y-21271000D01*
X7685072Y-21268236D01*
X7663991Y-21261840D01*
X7644555Y-21251452D01*
X7627524Y-21237476D01*
X7613548Y-21220445D01*
X7603160Y-21201009D01*
X7596764Y-21179928D01*
X7594000Y-21151860D01*
X7594000Y-19688140D01*
X7596764Y-19660072D01*
X7603160Y-19638991D01*
X7613548Y-19619555D01*
X7627524Y-19602524D01*
X7644555Y-19588548D01*
X7663991Y-19578160D01*
X7685072Y-19571764D01*
X7713140Y-19569000D01*
X8176860Y-19569000D01*
X8204928Y-19571764D01*
G37*
G36*
X-12373062Y-19771716D02*
G01*
X-12352443Y-19777971D01*
X-12333447Y-19788124D01*
X-12316792Y-19801792D01*
X-12303124Y-19818447D01*
X-12292971Y-19837443D01*
X-12286716Y-19858062D01*
X-12284000Y-19885640D01*
X-12284000Y-20394360D01*
X-12286716Y-20421938D01*
X-12292971Y-20442557D01*
X-12303124Y-20461553D01*
X-12316792Y-20478208D01*
X-12333447Y-20491876D01*
X-12352443Y-20502029D01*
X-12373062Y-20508284D01*
X-12400640Y-20511000D01*
X-12859360Y-20511000D01*
X-12886938Y-20508284D01*
X-12907557Y-20502029D01*
X-12926553Y-20491876D01*
X-12943208Y-20478208D01*
X-12956876Y-20461553D01*
X-12967029Y-20442557D01*
X-12973284Y-20421938D01*
X-12976000Y-20394360D01*
X-12976000Y-19885640D01*
X-12973284Y-19858062D01*
X-12967029Y-19837443D01*
X-12956876Y-19818447D01*
X-12943208Y-19801792D01*
X-12926553Y-19788124D01*
X-12907557Y-19777971D01*
X-12886938Y-19771716D01*
X-12859360Y-19769000D01*
X-12400640Y-19769000D01*
X-12373062Y-19771716D01*
G37*
G36*
X-13343062Y-19771716D02*
G01*
X-13322443Y-19777971D01*
X-13303447Y-19788124D01*
X-13286792Y-19801792D01*
X-13273124Y-19818447D01*
X-13262971Y-19837443D01*
X-13256716Y-19858062D01*
X-13254000Y-19885640D01*
X-13254000Y-20394360D01*
X-13256716Y-20421938D01*
X-13262971Y-20442557D01*
X-13273124Y-20461553D01*
X-13286792Y-20478208D01*
X-13303447Y-20491876D01*
X-13322443Y-20502029D01*
X-13343062Y-20508284D01*
X-13370640Y-20511000D01*
X-13829360Y-20511000D01*
X-13856938Y-20508284D01*
X-13877557Y-20502029D01*
X-13896553Y-20491876D01*
X-13913208Y-20478208D01*
X-13926876Y-20461553D01*
X-13937029Y-20442557D01*
X-13943284Y-20421938D01*
X-13946000Y-20394360D01*
X-13946000Y-19885640D01*
X-13943284Y-19858062D01*
X-13937029Y-19837443D01*
X-13926876Y-19818447D01*
X-13913208Y-19801792D01*
X-13896553Y-19788124D01*
X-13877557Y-19777971D01*
X-13856938Y-19771716D01*
X-13829360Y-19769000D01*
X-13370640Y-19769000D01*
X-13343062Y-19771716D01*
G37*
G36*
X-5180072Y-15816764D02*
G01*
X-5158991Y-15823160D01*
X-5139555Y-15833548D01*
X-5122524Y-15847524D01*
X-5108548Y-15864555D01*
X-5098160Y-15883991D01*
X-5091764Y-15905072D01*
X-5089000Y-15933140D01*
X-5089000Y-17446860D01*
X-5091764Y-17474928D01*
X-5098160Y-17496009D01*
X-5108548Y-17515445D01*
X-5122524Y-17532476D01*
X-5139555Y-17546452D01*
X-5158991Y-17556840D01*
X-5180072Y-17563236D01*
X-5208140Y-17566000D01*
X-5671860Y-17566000D01*
X-5699928Y-17563236D01*
X-5721009Y-17556840D01*
X-5740445Y-17546452D01*
X-5757476Y-17532476D01*
X-5771452Y-17515445D01*
X-5781840Y-17496009D01*
X-5788236Y-17474928D01*
X-5791000Y-17446860D01*
X-5791000Y-15933140D01*
X-5788236Y-15905072D01*
X-5781840Y-15883991D01*
X-5771452Y-15864555D01*
X-5757476Y-15847524D01*
X-5740445Y-15833548D01*
X-5721009Y-15823160D01*
X-5699928Y-15816764D01*
X-5671860Y-15814000D01*
X-5208140Y-15814000D01*
X-5180072Y-15816764D01*
G37*
G36*
X-8990072Y-15816764D02*
G01*
X-8968991Y-15823160D01*
X-8949555Y-15833548D01*
X-8932524Y-15847524D01*
X-8918548Y-15864555D01*
X-8908160Y-15883991D01*
X-8901764Y-15905072D01*
X-8899000Y-15933140D01*
X-8899000Y-17446860D01*
X-8901764Y-17474928D01*
X-8908160Y-17496009D01*
X-8918548Y-17515445D01*
X-8932524Y-17532476D01*
X-8949555Y-17546452D01*
X-8968991Y-17556840D01*
X-8990072Y-17563236D01*
X-9018140Y-17566000D01*
X-9481860Y-17566000D01*
X-9509928Y-17563236D01*
X-9531009Y-17556840D01*
X-9550445Y-17546452D01*
X-9567476Y-17532476D01*
X-9581452Y-17515445D01*
X-9591840Y-17496009D01*
X-9598236Y-17474928D01*
X-9601000Y-17446860D01*
X-9601000Y-15933140D01*
X-9598236Y-15905072D01*
X-9591840Y-15883991D01*
X-9581452Y-15864555D01*
X-9567476Y-15847524D01*
X-9550445Y-15833548D01*
X-9531009Y-15823160D01*
X-9509928Y-15816764D01*
X-9481860Y-15814000D01*
X-9018140Y-15814000D01*
X-8990072Y-15816764D01*
G37*
G36*
X-7720072Y-15816764D02*
G01*
X-7698991Y-15823160D01*
X-7679555Y-15833548D01*
X-7662524Y-15847524D01*
X-7648548Y-15864555D01*
X-7638160Y-15883991D01*
X-7631764Y-15905072D01*
X-7629000Y-15933140D01*
X-7629000Y-17446860D01*
X-7631764Y-17474928D01*
X-7638160Y-17496009D01*
X-7648548Y-17515445D01*
X-7662524Y-17532476D01*
X-7679555Y-17546452D01*
X-7698991Y-17556840D01*
X-7720072Y-17563236D01*
X-7748140Y-17566000D01*
X-8211860Y-17566000D01*
X-8239928Y-17563236D01*
X-8261009Y-17556840D01*
X-8280445Y-17546452D01*
X-8297476Y-17532476D01*
X-8311452Y-17515445D01*
X-8321840Y-17496009D01*
X-8328236Y-17474928D01*
X-8331000Y-17446860D01*
X-8331000Y-15933140D01*
X-8328236Y-15905072D01*
X-8321840Y-15883991D01*
X-8311452Y-15864555D01*
X-8297476Y-15847524D01*
X-8280445Y-15833548D01*
X-8261009Y-15823160D01*
X-8239928Y-15816764D01*
X-8211860Y-15814000D01*
X-7748140Y-15814000D01*
X-7720072Y-15816764D01*
G37*
G36*
X-6450072Y-15816764D02*
G01*
X-6428991Y-15823160D01*
X-6409555Y-15833548D01*
X-6392524Y-15847524D01*
X-6378548Y-15864555D01*
X-6368160Y-15883991D01*
X-6361764Y-15905072D01*
X-6359000Y-15933140D01*
X-6359000Y-17446860D01*
X-6361764Y-17474928D01*
X-6368160Y-17496009D01*
X-6378548Y-17515445D01*
X-6392524Y-17532476D01*
X-6409555Y-17546452D01*
X-6428991Y-17556840D01*
X-6450072Y-17563236D01*
X-6478140Y-17566000D01*
X-6941860Y-17566000D01*
X-6969928Y-17563236D01*
X-6991009Y-17556840D01*
X-7010445Y-17546452D01*
X-7027476Y-17532476D01*
X-7041452Y-17515445D01*
X-7051840Y-17496009D01*
X-7058236Y-17474928D01*
X-7061000Y-17446860D01*
X-7061000Y-15933140D01*
X-7058236Y-15905072D01*
X-7051840Y-15883991D01*
X-7041452Y-15864555D01*
X-7027476Y-15847524D01*
X-7010445Y-15833548D01*
X-6991009Y-15823160D01*
X-6969928Y-15816764D01*
X-6941860Y-15814000D01*
X-6478140Y-15814000D01*
X-6450072Y-15816764D01*
G37*
G36*
X-10248062Y-16431716D02*
G01*
X-10227443Y-16437971D01*
X-10208447Y-16448124D01*
X-10191792Y-16461792D01*
X-10178124Y-16478447D01*
X-10167971Y-16497443D01*
X-10161716Y-16518062D01*
X-10159000Y-16545640D01*
X-10159000Y-17054360D01*
X-10161716Y-17081938D01*
X-10167971Y-17102557D01*
X-10178124Y-17121553D01*
X-10191792Y-17138208D01*
X-10208447Y-17151876D01*
X-10227443Y-17162029D01*
X-10248062Y-17168284D01*
X-10275640Y-17171000D01*
X-10734360Y-17171000D01*
X-10761938Y-17168284D01*
X-10782557Y-17162029D01*
X-10801553Y-17151876D01*
X-10818208Y-17138208D01*
X-10831876Y-17121553D01*
X-10842029Y-17102557D01*
X-10848284Y-17081938D01*
X-10851000Y-17054360D01*
X-10851000Y-16545640D01*
X-10848284Y-16518062D01*
X-10842029Y-16497443D01*
X-10831876Y-16478447D01*
X-10818208Y-16461792D01*
X-10801553Y-16448124D01*
X-10782557Y-16437971D01*
X-10761938Y-16431716D01*
X-10734360Y-16429000D01*
X-10275640Y-16429000D01*
X-10248062Y-16431716D01*
G37*
G36*
X-11218062Y-16431716D02*
G01*
X-11197443Y-16437971D01*
X-11178447Y-16448124D01*
X-11161792Y-16461792D01*
X-11148124Y-16478447D01*
X-11137971Y-16497443D01*
X-11131716Y-16518062D01*
X-11129000Y-16545640D01*
X-11129000Y-17054360D01*
X-11131716Y-17081938D01*
X-11137971Y-17102557D01*
X-11148124Y-17121553D01*
X-11161792Y-17138208D01*
X-11178447Y-17151876D01*
X-11197443Y-17162029D01*
X-11218062Y-17168284D01*
X-11245640Y-17171000D01*
X-11704360Y-17171000D01*
X-11731938Y-17168284D01*
X-11752557Y-17162029D01*
X-11771553Y-17151876D01*
X-11788208Y-17138208D01*
X-11801876Y-17121553D01*
X-11812029Y-17102557D01*
X-11818284Y-17081938D01*
X-11821000Y-17054360D01*
X-11821000Y-16545640D01*
X-11818284Y-16518062D01*
X-11812029Y-16497443D01*
X-11801876Y-16478447D01*
X-11788208Y-16461792D01*
X-11771553Y-16448124D01*
X-11752557Y-16437971D01*
X-11731938Y-16431716D01*
X-11704360Y-16429000D01*
X-11245640Y-16429000D01*
X-11218062Y-16431716D01*
G37*
G36*
X4394928Y-12371764D02*
G01*
X4416009Y-12378160D01*
X4435445Y-12388548D01*
X4452476Y-12402524D01*
X4466452Y-12419555D01*
X4476840Y-12438991D01*
X4483236Y-12460072D01*
X4486000Y-12488140D01*
X4486000Y-13951860D01*
X4483236Y-13979928D01*
X4476840Y-14001009D01*
X4466452Y-14020445D01*
X4452476Y-14037476D01*
X4435445Y-14051452D01*
X4416009Y-14061840D01*
X4394928Y-14068236D01*
X4366860Y-14071000D01*
X3903140Y-14071000D01*
X3875072Y-14068236D01*
X3853991Y-14061840D01*
X3834555Y-14051452D01*
X3817524Y-14037476D01*
X3803548Y-14020445D01*
X3793160Y-14001009D01*
X3786764Y-13979928D01*
X3784000Y-13951860D01*
X3784000Y-12488140D01*
X3786764Y-12460072D01*
X3793160Y-12438991D01*
X3803548Y-12419555D01*
X3817524Y-12402524D01*
X3834555Y-12388548D01*
X3853991Y-12378160D01*
X3875072Y-12371764D01*
X3903140Y-12369000D01*
X4366860Y-12369000D01*
X4394928Y-12371764D01*
G37*
G36*
X5664928Y-12371764D02*
G01*
X5686009Y-12378160D01*
X5705445Y-12388548D01*
X5722476Y-12402524D01*
X5736452Y-12419555D01*
X5746840Y-12438991D01*
X5753236Y-12460072D01*
X5756000Y-12488140D01*
X5756000Y-13951860D01*
X5753236Y-13979928D01*
X5746840Y-14001009D01*
X5736452Y-14020445D01*
X5722476Y-14037476D01*
X5705445Y-14051452D01*
X5686009Y-14061840D01*
X5664928Y-14068236D01*
X5636860Y-14071000D01*
X5173140Y-14071000D01*
X5145072Y-14068236D01*
X5123991Y-14061840D01*
X5104555Y-14051452D01*
X5087524Y-14037476D01*
X5073548Y-14020445D01*
X5063160Y-14001009D01*
X5056764Y-13979928D01*
X5054000Y-13951860D01*
X5054000Y-12488140D01*
X5056764Y-12460072D01*
X5063160Y-12438991D01*
X5073548Y-12419555D01*
X5087524Y-12402524D01*
X5104555Y-12388548D01*
X5123991Y-12378160D01*
X5145072Y-12371764D01*
X5173140Y-12369000D01*
X5636860Y-12369000D01*
X5664928Y-12371764D01*
G37*
G36*
X6934928Y-12371764D02*
G01*
X6956009Y-12378160D01*
X6975445Y-12388548D01*
X6992476Y-12402524D01*
X7006452Y-12419555D01*
X7016840Y-12438991D01*
X7023236Y-12460072D01*
X7026000Y-12488140D01*
X7026000Y-13951860D01*
X7023236Y-13979928D01*
X7016840Y-14001009D01*
X7006452Y-14020445D01*
X6992476Y-14037476D01*
X6975445Y-14051452D01*
X6956009Y-14061840D01*
X6934928Y-14068236D01*
X6906860Y-14071000D01*
X6443140Y-14071000D01*
X6415072Y-14068236D01*
X6393991Y-14061840D01*
X6374555Y-14051452D01*
X6357524Y-14037476D01*
X6343548Y-14020445D01*
X6333160Y-14001009D01*
X6326764Y-13979928D01*
X6324000Y-13951860D01*
X6324000Y-12488140D01*
X6326764Y-12460072D01*
X6333160Y-12438991D01*
X6343548Y-12419555D01*
X6357524Y-12402524D01*
X6374555Y-12388548D01*
X6393991Y-12378160D01*
X6415072Y-12371764D01*
X6443140Y-12369000D01*
X6906860Y-12369000D01*
X6934928Y-12371764D01*
G37*
G36*
X8204928Y-12371764D02*
G01*
X8226009Y-12378160D01*
X8245445Y-12388548D01*
X8262476Y-12402524D01*
X8276452Y-12419555D01*
X8286840Y-12438991D01*
X8293236Y-12460072D01*
X8296000Y-12488140D01*
X8296000Y-13951860D01*
X8293236Y-13979928D01*
X8286840Y-14001009D01*
X8276452Y-14020445D01*
X8262476Y-14037476D01*
X8245445Y-14051452D01*
X8226009Y-14061840D01*
X8204928Y-14068236D01*
X8176860Y-14071000D01*
X7713140Y-14071000D01*
X7685072Y-14068236D01*
X7663991Y-14061840D01*
X7644555Y-14051452D01*
X7627524Y-14037476D01*
X7613548Y-14020445D01*
X7603160Y-14001009D01*
X7596764Y-13979928D01*
X7594000Y-13951860D01*
X7594000Y-12488140D01*
X7596764Y-12460072D01*
X7603160Y-12438991D01*
X7613548Y-12419555D01*
X7627524Y-12402524D01*
X7644555Y-12388548D01*
X7663991Y-12378160D01*
X7685072Y-12371764D01*
X7713140Y-12369000D01*
X8176860Y-12369000D01*
X8204928Y-12371764D01*
G37*
G36*
X17979487Y-8348996D02*
G01*
X18216253Y-8447068D01*
X18216255Y-8447069D01*
X18429339Y-8589447D01*
X18610553Y-8770661D01*
X18752932Y-8983747D01*
X18851004Y-9220513D01*
X18901000Y-9471861D01*
X18901000Y-9728139D01*
X18851004Y-9979487D01*
X18752932Y-10216253D01*
X18752931Y-10216255D01*
X18610553Y-10429339D01*
X18429339Y-10610553D01*
X18216255Y-10752931D01*
X18216254Y-10752932D01*
X18216253Y-10752932D01*
X17979487Y-10851004D01*
X17728139Y-10901000D01*
X17471861Y-10901000D01*
X17220513Y-10851004D01*
X16983747Y-10752932D01*
X16983746Y-10752932D01*
X16983745Y-10752931D01*
X16770661Y-10610553D01*
X16589447Y-10429339D01*
X16447069Y-10216255D01*
X16447068Y-10216253D01*
X16348996Y-9979487D01*
X16299000Y-9728139D01*
X16299000Y-9471861D01*
X16348996Y-9220513D01*
X16447068Y-8983747D01*
X16589447Y-8770661D01*
X16770661Y-8589447D01*
X16983745Y-8447069D01*
X16983747Y-8447068D01*
X17220513Y-8348996D01*
X17471861Y-8299000D01*
X17728139Y-8299000D01*
X17979487Y-8348996D01*
G37*
G36*
X5979487Y-8348996D02*
G01*
X6216253Y-8447068D01*
X6216255Y-8447069D01*
X6429339Y-8589447D01*
X6610553Y-8770661D01*
X6752932Y-8983747D01*
X6851004Y-9220513D01*
X6901000Y-9471861D01*
X6901000Y-9728139D01*
X6851004Y-9979487D01*
X6752932Y-10216253D01*
X6752931Y-10216255D01*
X6610553Y-10429339D01*
X6429339Y-10610553D01*
X6216255Y-10752931D01*
X6216254Y-10752932D01*
X6216253Y-10752932D01*
X5979487Y-10851004D01*
X5728139Y-10901000D01*
X5471861Y-10901000D01*
X5220513Y-10851004D01*
X4983747Y-10752932D01*
X4983746Y-10752932D01*
X4983745Y-10752931D01*
X4770661Y-10610553D01*
X4589447Y-10429339D01*
X4447069Y-10216255D01*
X4447068Y-10216253D01*
X4348996Y-9979487D01*
X4299000Y-9728139D01*
X4299000Y-9471861D01*
X4348996Y-9220513D01*
X4447068Y-8983747D01*
X4589447Y-8770661D01*
X4770661Y-8589447D01*
X4983745Y-8447069D01*
X4983747Y-8447068D01*
X5220513Y-8348996D01*
X5471861Y-8299000D01*
X5728139Y-8299000D01*
X5979487Y-8348996D01*
G37*
G36*
X9153648Y-6091319D02*
G01*
X9197182Y-6099978D01*
X9320206Y-6150936D01*
X9430925Y-6224916D01*
X9525084Y-6319075D01*
X9599064Y-6429794D01*
X9650022Y-6552818D01*
X9654235Y-6574000D01*
X9676000Y-6683418D01*
X9676000Y-6816582D01*
X9671186Y-6840783D01*
X9668784Y-6865169D01*
X9671186Y-6889555D01*
X9678299Y-6913004D01*
X9689850Y-6934615D01*
X9705395Y-6953557D01*
X9724337Y-6969102D01*
X9745948Y-6980653D01*
X9769397Y-6987766D01*
X9793783Y-6990168D01*
X9818169Y-6987766D01*
X9841618Y-6980653D01*
X9863229Y-6969102D01*
X9882171Y-6953557D01*
X9897716Y-6934614D01*
X9900935Y-6929796D01*
X9900936Y-6929794D01*
X9974916Y-6819075D01*
X10069075Y-6724916D01*
X10179794Y-6650936D01*
X10302818Y-6599978D01*
X10346352Y-6591319D01*
X10433418Y-6574000D01*
X10566582Y-6574000D01*
X10653648Y-6591319D01*
X10697182Y-6599978D01*
X10820206Y-6650936D01*
X10930925Y-6724916D01*
X11025084Y-6819075D01*
X11099064Y-6929794D01*
X11099065Y-6929796D01*
X11102284Y-6934614D01*
X11117829Y-6953556D01*
X11136771Y-6969102D01*
X11158381Y-6980653D01*
X11181830Y-6987766D01*
X11206216Y-6990168D01*
X11230603Y-6987766D01*
X11254052Y-6980653D01*
X11275662Y-6969102D01*
X11294604Y-6953557D01*
X11310150Y-6934615D01*
X11321701Y-6913005D01*
X11328814Y-6889556D01*
X11331216Y-6865170D01*
X11328814Y-6840783D01*
X11324000Y-6816582D01*
X11324000Y-6683418D01*
X11345765Y-6574000D01*
X11349978Y-6552818D01*
X11400936Y-6429794D01*
X11474916Y-6319075D01*
X11569075Y-6224916D01*
X11679794Y-6150936D01*
X11802818Y-6099978D01*
X11846352Y-6091319D01*
X11933418Y-6074000D01*
X12066582Y-6074000D01*
X12153648Y-6091319D01*
X12197182Y-6099978D01*
X12320206Y-6150936D01*
X12430925Y-6224916D01*
X12525084Y-6319075D01*
X12599064Y-6429794D01*
X12626836Y-6496841D01*
X12638384Y-6518447D01*
X12653929Y-6537389D01*
X12672871Y-6552934D01*
X12694482Y-6564485D01*
X12717931Y-6571598D01*
X12742317Y-6574000D01*
X14176000Y-6574000D01*
X14176000Y-7926000D01*
X12824000Y-7926000D01*
X12824000Y-7145631D01*
X12821598Y-7121245D01*
X12814485Y-7097796D01*
X12802934Y-7076185D01*
X12787389Y-7057243D01*
X12768447Y-7041698D01*
X12746836Y-7030147D01*
X12723387Y-7023034D01*
X12699001Y-7020632D01*
X12674615Y-7023034D01*
X12651166Y-7030147D01*
X12629555Y-7041698D01*
X12610613Y-7057243D01*
X12595070Y-7076184D01*
X12525084Y-7180925D01*
X12430925Y-7275084D01*
X12320206Y-7349064D01*
X12197182Y-7400022D01*
X12153648Y-7408681D01*
X12066582Y-7426000D01*
X11933418Y-7426000D01*
X11846352Y-7408681D01*
X11802818Y-7400022D01*
X11679794Y-7349064D01*
X11569075Y-7275084D01*
X11474916Y-7180925D01*
X11400936Y-7070206D01*
X11400935Y-7070204D01*
X11397716Y-7065386D01*
X11382171Y-7046444D01*
X11363229Y-7030898D01*
X11341619Y-7019347D01*
X11318170Y-7012234D01*
X11293784Y-7009832D01*
X11269397Y-7012234D01*
X11245948Y-7019347D01*
X11224338Y-7030898D01*
X11205396Y-7046443D01*
X11189850Y-7065385D01*
X11178299Y-7086995D01*
X11171186Y-7110444D01*
X11168784Y-7134830D01*
X11171186Y-7159217D01*
X11175504Y-7180922D01*
X11176000Y-7183420D01*
X11176000Y-7316580D01*
X11150022Y-7447182D01*
X11099064Y-7570206D01*
X11025084Y-7680925D01*
X10930925Y-7775084D01*
X10820206Y-7849064D01*
X10697182Y-7900022D01*
X10653648Y-7908681D01*
X10566582Y-7926000D01*
X10433418Y-7926000D01*
X10346352Y-7908681D01*
X10302818Y-7900022D01*
X10179794Y-7849064D01*
X10069075Y-7775084D01*
X9974916Y-7680925D01*
X9900936Y-7570206D01*
X9849978Y-7447182D01*
X9824000Y-7316580D01*
X9824000Y-7183420D01*
X9824497Y-7180922D01*
X9828814Y-7159217D01*
X9831216Y-7134831D01*
X9828814Y-7110445D01*
X9821701Y-7086996D01*
X9810150Y-7065385D01*
X9794605Y-7046443D01*
X9775663Y-7030898D01*
X9754052Y-7019347D01*
X9730603Y-7012234D01*
X9706217Y-7009832D01*
X9681831Y-7012234D01*
X9658382Y-7019347D01*
X9636771Y-7030898D01*
X9617829Y-7046443D01*
X9602284Y-7065386D01*
X9599065Y-7070204D01*
X9599064Y-7070206D01*
X9525084Y-7180925D01*
X9430925Y-7275084D01*
X9320206Y-7349064D01*
X9197182Y-7400022D01*
X9153648Y-7408681D01*
X9066582Y-7426000D01*
X8933418Y-7426000D01*
X8846352Y-7408681D01*
X8802818Y-7400022D01*
X8679794Y-7349064D01*
X8569075Y-7275084D01*
X8474916Y-7180925D01*
X8400936Y-7070206D01*
X8349978Y-6947182D01*
X8328814Y-6840783D01*
X8324000Y-6816582D01*
X8324000Y-6683418D01*
X8345765Y-6574000D01*
X8349978Y-6552818D01*
X8400936Y-6429794D01*
X8474916Y-6319075D01*
X8569075Y-6224916D01*
X8679794Y-6150936D01*
X8802818Y-6099978D01*
X8846352Y-6091319D01*
X8933418Y-6074000D01*
X9066582Y-6074000D01*
X9153648Y-6091319D01*
G37*
G36*
X23361000Y-7031000D02*
G01*
X21559000Y-7031000D01*
X21559000Y-5229000D01*
X23361000Y-5229000D01*
X23361000Y-7031000D01*
G37*
G36*
X22573512Y-2693927D02*
G01*
X22722812Y-2723624D01*
X22886784Y-2791544D01*
X23034354Y-2890147D01*
X23159853Y-3015646D01*
X23258456Y-3163216D01*
X23326376Y-3327188D01*
X23361000Y-3501259D01*
X23361000Y-3678741D01*
X23326376Y-3852812D01*
X23258456Y-4016784D01*
X23159853Y-4164354D01*
X23034354Y-4289853D01*
X22886784Y-4388456D01*
X22722812Y-4456376D01*
X22573512Y-4486073D01*
X22548742Y-4491000D01*
X22371258Y-4491000D01*
X22346488Y-4486073D01*
X22197188Y-4456376D01*
X22033216Y-4388456D01*
X21885646Y-4289853D01*
X21760147Y-4164354D01*
X21661544Y-4016784D01*
X21593624Y-3852812D01*
X21559000Y-3678741D01*
X21559000Y-3501259D01*
X21593624Y-3327188D01*
X21661544Y-3163216D01*
X21760147Y-3015646D01*
X21885646Y-2890147D01*
X22033216Y-2791544D01*
X22197188Y-2723624D01*
X22346488Y-2693927D01*
X22371258Y-2689000D01*
X22548742Y-2689000D01*
X22573512Y-2693927D01*
G37*
G36*
X-13179000Y-2961000D02*
G01*
X-14281000Y-2961000D01*
X-14281000Y-349000D01*
X-13179000Y-349000D01*
X-13179000Y-2961000D01*
G37*
G36*
X11741000Y-2961000D02*
G01*
X10639000Y-2961000D01*
X10639000Y-349000D01*
X11741000Y-349000D01*
X11741000Y-2961000D01*
G37*
G36*
X16821000Y-2961000D02*
G01*
X15719000Y-2961000D01*
X15719000Y-349000D01*
X16821000Y-349000D01*
X16821000Y-2961000D01*
G37*
G36*
X-18259000Y-2961000D02*
G01*
X-19361000Y-2961000D01*
X-19361000Y-349000D01*
X-18259000Y-349000D01*
X-18259000Y-2961000D01*
G37*
G36*
X19361000Y349000D02*
G01*
X18259000Y349000D01*
X18259000Y2961000D01*
X19361000Y2961000D01*
X19361000Y349000D01*
G37*
G36*
X-10639000Y349000D02*
G01*
X-11741000Y349000D01*
X-11741000Y2961000D01*
X-10639000Y2961000D01*
X-10639000Y349000D01*
G37*
G36*
X-15719000Y349000D02*
G01*
X-16821000Y349000D01*
X-16821000Y2961000D01*
X-15719000Y2961000D01*
X-15719000Y349000D01*
G37*
G36*
X14281000Y349000D02*
G01*
X13179000Y349000D01*
X13179000Y2961000D01*
X14281000Y2961000D01*
X14281000Y349000D01*
G37*
G36*
X7581000Y6249000D02*
G01*
X6479000Y6249000D01*
X6479000Y8251000D01*
X7581000Y8251000D01*
X7581000Y6249000D01*
G37*
G36*
X10121000Y9549000D02*
G01*
X9019000Y9549000D01*
X9019000Y11551000D01*
X10121000Y11551000D01*
X10121000Y9549000D01*
G37*
G36*
X15796807Y17077192D02*
G01*
X15845203Y17067566D01*
X15882969Y17051923D01*
X15936378Y17029800D01*
X15936379Y17029799D01*
X16018436Y16974971D01*
X16088219Y16905188D01*
X16088220Y16905186D01*
X16143048Y16823130D01*
X16180814Y16731954D01*
X16200067Y16635164D01*
X16200067Y16536474D01*
X16180814Y16439684D01*
X16143048Y16348508D01*
X16143047Y16348507D01*
X16088219Y16266450D01*
X16018436Y16196667D01*
X15977129Y16169067D01*
X15936378Y16141838D01*
X15882969Y16119715D01*
X15845203Y16104072D01*
X15796807Y16094445D01*
X15748412Y16084819D01*
X15649722Y16084819D01*
X15601327Y16094445D01*
X15552931Y16104072D01*
X15515165Y16119715D01*
X15461756Y16141838D01*
X15421005Y16169067D01*
X15379698Y16196667D01*
X15309915Y16266450D01*
X15255087Y16348507D01*
X15255086Y16348508D01*
X15217320Y16439684D01*
X15198067Y16536474D01*
X15198067Y16635164D01*
X15217320Y16731954D01*
X15255086Y16823130D01*
X15309914Y16905186D01*
X15309915Y16905188D01*
X15379698Y16974971D01*
X15461755Y17029799D01*
X15461756Y17029800D01*
X15515165Y17051923D01*
X15552931Y17067566D01*
X15601327Y17077192D01*
X15649722Y17086819D01*
X15748412Y17086819D01*
X15796807Y17077192D01*
G37*
G36*
X7601000Y16599000D02*
G01*
X5799000Y16599000D01*
X5799000Y18401000D01*
X7601000Y18401000D01*
X7601000Y16599000D01*
G37*
G36*
X13498673Y19005554D02*
G01*
X13547069Y18995928D01*
X13562715Y18989447D01*
X13638244Y18958162D01*
X13638245Y18958161D01*
X13720302Y18903333D01*
X13790085Y18833550D01*
X13790086Y18833548D01*
X13844914Y18751492D01*
X13882680Y18660316D01*
X13901933Y18563526D01*
X13901933Y18464836D01*
X13882680Y18368046D01*
X13844914Y18276870D01*
X13844913Y18276869D01*
X13790085Y18194812D01*
X13720302Y18125029D01*
X13678995Y18097429D01*
X13638244Y18070200D01*
X13584835Y18048077D01*
X13547069Y18032434D01*
X13498673Y18022808D01*
X13450278Y18013181D01*
X13351588Y18013181D01*
X13303193Y18022808D01*
X13254797Y18032434D01*
X13217031Y18048077D01*
X13163622Y18070200D01*
X13122871Y18097429D01*
X13081564Y18125029D01*
X13011781Y18194812D01*
X12956953Y18276869D01*
X12956952Y18276870D01*
X12919186Y18368046D01*
X12899933Y18464836D01*
X12899933Y18563526D01*
X12919186Y18660316D01*
X12956952Y18751492D01*
X13011780Y18833548D01*
X13011781Y18833550D01*
X13081564Y18903333D01*
X13163621Y18958161D01*
X13163622Y18958162D01*
X13239151Y18989447D01*
X13254797Y18995928D01*
X13303193Y19005554D01*
X13351588Y19015181D01*
X13450278Y19015181D01*
X13498673Y19005554D01*
G37*
G36*
X379487Y21251004D02*
G01*
X616253Y21152932D01*
X616255Y21152931D01*
X829339Y21010553D01*
X1010553Y20829339D01*
X1070346Y20739853D01*
X1152932Y20616253D01*
X1251004Y20379487D01*
X1301000Y20128139D01*
X1301000Y19871861D01*
X1251004Y19620513D01*
X1152932Y19383747D01*
X1152931Y19383745D01*
X1010553Y19170661D01*
X829339Y18989447D01*
X616255Y18847069D01*
X616254Y18847068D01*
X616253Y18847068D01*
X379487Y18748996D01*
X128139Y18699000D01*
X-128139Y18699000D01*
X-379487Y18748996D01*
X-616253Y18847068D01*
X-616254Y18847068D01*
X-616255Y18847069D01*
X-829339Y18989447D01*
X-1010553Y19170661D01*
X-1152931Y19383745D01*
X-1152932Y19383747D01*
X-1251004Y19620513D01*
X-1301000Y19871861D01*
X-1301000Y20128139D01*
X-1251004Y20379487D01*
X-1152932Y20616253D01*
X-1070345Y20739853D01*
X-1010553Y20829339D01*
X-829339Y21010553D01*
X-616255Y21152931D01*
X-616253Y21152932D01*
X-379487Y21251004D01*
X-128139Y21301000D01*
X128139Y21301000D01*
X379487Y21251004D01*
G37*
G36*
X6813512Y20936073D02*
G01*
X6962812Y20906376D01*
X7126784Y20838456D01*
X7274354Y20739853D01*
X7399853Y20614354D01*
X7498456Y20466784D01*
X7566376Y20302812D01*
X7601000Y20128741D01*
X7601000Y19951259D01*
X7566376Y19777188D01*
X7498456Y19613216D01*
X7399853Y19465646D01*
X7274354Y19340147D01*
X7126784Y19241544D01*
X6962812Y19173624D01*
X6813512Y19143927D01*
X6788742Y19139000D01*
X6611258Y19139000D01*
X6586488Y19143927D01*
X6437188Y19173624D01*
X6273216Y19241544D01*
X6125646Y19340147D01*
X6000147Y19465646D01*
X5901544Y19613216D01*
X5833624Y19777188D01*
X5799000Y19951259D01*
X5799000Y20128741D01*
X5833624Y20302812D01*
X5901544Y20466784D01*
X6000147Y20614354D01*
X6125646Y20739853D01*
X6273216Y20838456D01*
X6437188Y20906376D01*
X6586488Y20936073D01*
X6611258Y20941000D01*
X6788742Y20941000D01*
X6813512Y20936073D01*
G37*
M02*
