G04 #@! TF.GenerationSoftware,KiCad,Pcbnew,5.1.5-52549c5~84~ubuntu18.04.1*
G04 #@! TF.CreationDate,2020-03-24T02:23:38-04:00*
G04 #@! TF.ProjectId,SwarmBot,53776172-6d42-46f7-942e-6b696361645f,rev?*
G04 #@! TF.SameCoordinates,Original*
G04 #@! TF.FileFunction,Legend,Top*
G04 #@! TF.FilePolarity,Positive*
%FSLAX46Y46*%
G04 Gerber Fmt 4.6, Leading zero omitted, Abs format (unit mm)*
G04 Created by KiCad (PCBNEW 5.1.5-52549c5~84~ubuntu18.04.1) date 2020-03-24 02:23:38*
%MOMM*%
%LPD*%
G04 APERTURE LIST*
%ADD10C,0.300000*%
%ADD11C,0.120000*%
%ADD12C,0.100000*%
%ADD13C,0.508000*%
%ADD14C,0.152400*%
%ADD15C,0.254000*%
%ADD16C,0.127000*%
%ADD17C,0.150000*%
G04 APERTURE END LIST*
D10*
X4178371Y19882657D02*
X5321228Y19882657D01*
X4749800Y19311228D02*
X4749800Y20454085D01*
X4178371Y17317257D02*
X5321228Y17317257D01*
X19748571Y-6177742D02*
X20891428Y-6177742D01*
X19748571Y-3612342D02*
X20891428Y-3612342D01*
X20320000Y-4183771D02*
X20320000Y-3040914D01*
D11*
X7970000Y16230000D02*
X6700000Y16230000D01*
X7970000Y17500000D02*
X7970000Y16230000D01*
X23730000Y-7400000D02*
X22460000Y-7400000D01*
X23730000Y-6130000D02*
X23730000Y-7400000D01*
X14260000Y-5890000D02*
X14260000Y-7000000D01*
X13500000Y-5890000D02*
X14260000Y-5890000D01*
X12740000Y-7563471D02*
X12740000Y-8110000D01*
X12740000Y-5890000D02*
X12740000Y-6436529D01*
X12740000Y-8110000D02*
X8995000Y-8110000D01*
X12740000Y-5890000D02*
X8995000Y-5890000D01*
X8995000Y-7307530D02*
X8995000Y-8110000D01*
X8995000Y-5890000D02*
X8995000Y-6692470D01*
X-15377500Y6505000D02*
X-17662500Y6505000D01*
X-15377500Y5035000D02*
X-15377500Y6505000D01*
X-17662500Y5035000D02*
X-15377500Y5035000D01*
X4575000Y22015000D02*
X6860000Y22015000D01*
X4575000Y23485000D02*
X4575000Y22015000D01*
X6860000Y23485000D02*
X4575000Y23485000D01*
X10325000Y-1110000D02*
X10100000Y-1110000D01*
X10325000Y-710000D02*
X10325000Y-1110000D01*
X10325000Y1110000D02*
X10100000Y1110000D01*
X10325000Y710000D02*
X10325000Y1110000D01*
X8105000Y1110000D02*
X8330000Y1110000D01*
X8105000Y710000D02*
X8105000Y1110000D01*
D12*
X4980000Y-24010000D02*
X4980000Y-23360000D01*
X4330000Y-24010000D02*
X4980000Y-24010000D01*
X20590000Y2090000D02*
X20590000Y1440000D01*
X21240000Y2090000D02*
X20590000Y2090000D01*
X-13310000Y17040000D02*
X-13960000Y17040000D01*
X-13310000Y16390000D02*
X-13310000Y17040000D01*
D13*
X-5349000Y9394600D02*
G75*
G02X-6111000Y9394600I-381000J0D01*
G01*
X-6111000Y9394600D02*
G75*
G02X-5349000Y9394600I381000J0D01*
G01*
D14*
X6131800Y13941200D02*
X-6111000Y13941200D01*
D11*
X-13064980Y6976340D02*
X-13064980Y5576340D01*
X-10744980Y5576340D02*
X-10744980Y7476340D01*
X-7862800Y18245600D02*
X-6462800Y18245600D01*
X-6462800Y20565600D02*
X-8362800Y20565600D01*
X-4713200Y21039600D02*
X-3313200Y21039600D01*
X-3313200Y23359600D02*
X-5213200Y23359600D01*
X-2651000Y-9066000D02*
X-3126000Y-9066000D01*
X1094000Y-13286000D02*
X1094000Y-12811000D01*
X619000Y-13286000D02*
X1094000Y-13286000D01*
X-3126000Y-13286000D02*
X-3126000Y-12811000D01*
X-2651000Y-13286000D02*
X-3126000Y-13286000D01*
X1094000Y-9066000D02*
X1094000Y-9541000D01*
X619000Y-9066000D02*
X1094000Y-9066000D01*
D15*
X-6942280Y-12607900D02*
G75*
G03X-6942280Y-12607900I-37120J0D01*
G01*
D12*
G36*
X-9278620Y-7894320D02*
G01*
X-9659620Y-7894320D01*
X-9659620Y-7767320D01*
X-9278620Y-7767320D01*
X-9278620Y-7894320D01*
G37*
D16*
X-10663620Y-8627320D02*
X-9183620Y-8627320D01*
X-10663620Y-6927320D02*
X-10663620Y-8627320D01*
X-9183620Y-6927320D02*
X-10663620Y-6927320D01*
X-9183620Y-8627320D02*
X-9183620Y-6927320D01*
D11*
X-17337000Y9254000D02*
X-15937000Y9254000D01*
X-15937000Y11574000D02*
X-17837000Y11574000D01*
D17*
X9381000Y-18887600D02*
X9881000Y-18887600D01*
X9381000Y-15637600D02*
X9881000Y-15637600D01*
X12631000Y-15637600D02*
X12131000Y-15637600D01*
X12631000Y-18887600D02*
X12131000Y-18887600D01*
X9381000Y-15637600D02*
X9381000Y-16137600D01*
X12631000Y-15637600D02*
X12631000Y-16137600D01*
X9381000Y-18887600D02*
X9381000Y-18387600D01*
D11*
X-19365500Y6541500D02*
X-19365500Y7941500D01*
X-21685500Y7941500D02*
X-21685500Y6041500D01*
X-14335000Y1475000D02*
X-14810000Y1475000D01*
X-10590000Y-2745000D02*
X-10590000Y-2270000D01*
X-11065000Y-2745000D02*
X-10590000Y-2745000D01*
X-14810000Y-2745000D02*
X-14810000Y-2270000D01*
X-14335000Y-2745000D02*
X-14810000Y-2745000D01*
X-10590000Y1475000D02*
X-10590000Y1000000D01*
X-11065000Y1475000D02*
X-10590000Y1475000D01*
X-22028300Y-9699180D02*
X-22028300Y-9799180D01*
X-18788300Y-9699180D02*
X-18788300Y-9799180D01*
X-22028300Y-9799180D02*
X-18788300Y-9799180D01*
X-22028300Y-7559180D02*
X-22028300Y-7659180D01*
X-18788300Y-7559180D02*
X-18788300Y-7659180D01*
X-22028300Y-7559180D02*
X-18788300Y-7559180D01*
X-22029500Y-7128700D02*
X-22029500Y-7228700D01*
X-18789500Y-7128700D02*
X-18789500Y-7228700D01*
X-22029500Y-7228700D02*
X-18789500Y-7228700D01*
X-22029500Y-4988700D02*
X-22029500Y-5088700D01*
X-18789500Y-4988700D02*
X-18789500Y-5088700D01*
X-22029500Y-4988700D02*
X-18789500Y-4988700D01*
X-24825000Y3810000D02*
X-24565000Y3810000D01*
X-22285000Y3810000D02*
X-20515000Y3810000D01*
X-20515000Y3810000D02*
X-20515000Y3430000D01*
X-20515000Y-3810000D02*
X-22285000Y-3810000D01*
X-24565000Y-3810000D02*
X-24825000Y-3810000D01*
X-20515000Y-3810000D02*
X-20515000Y-3430000D01*
M02*
