M48
; DRILL file {KiCad 5.1.5-52549c5~84~ubuntu18.04.1} date Tue 24 Mar 2020 02:23:36 AM EDT
; FORMAT={-:-/ absolute / inch / decimal}
; #@! TF.CreationDate,2020-03-24T02:23:36-04:00
; #@! TF.GenerationSoftware,Kicad,Pcbnew,5.1.5-52549c5~84~ubuntu18.04.1
; #@! TF.FileFunction,Plated,1,4,PTH
FMAT,2
INCH
T1C0.0118
T2C0.0394
T3C0.0984
%
G90
G05
T1
X-0.95Y0.152
X-0.95Y0.134
X-0.95Y0.114
X-0.95Y0.096
X-0.95Y0.078
X-0.95Y0.042
X-0.95Y0.024
X-0.95Y-0.024
X-0.95Y-0.042
X-0.95Y-0.078
X-0.95Y-0.096
X-0.95Y-0.116
X-0.95Y-0.134
X-0.95Y-0.152
X-0.894Y0.152
X-0.894Y0.134
X-0.894Y0.114
X-0.894Y0.096
X-0.894Y0.078
X-0.894Y0.042
X-0.894Y0.024
X-0.894Y-0.024
X-0.894Y-0.042
X-0.894Y-0.078
X-0.894Y-0.096
X-0.894Y-0.116
X-0.894Y-0.134
X-0.894Y-0.152
X-0.869Y-0.281
X-0.869Y-0.303
X-0.866Y0.03
X-0.866Y0.014
X-0.866Y-0.004
X-0.8638Y0.0498
X-0.857Y0.145
X-0.856Y-0.076
X-0.854Y-0.116
X-0.844Y0.158
X-0.844Y0.118
X-0.842Y0.078
X-0.832Y0.17
X-0.812Y-0.076
X-0.812Y-0.116
X-0.804Y0.142
X-0.8Y0.402
X-0.8Y0.118
X-0.8Y0.078
X-0.7988Y0.4343
X-0.7988Y0.4181
X-0.7628Y-0.3392
X-0.72Y0.384
X-0.716Y0.436
X-0.6918Y-0.562
X-0.6808Y0.0277
X-0.6729Y-0.5177
X-0.6669Y0.2012
X-0.6568Y-0.3309
X-0.6484Y-0.4227
X-0.6461Y-0.0181
X-0.6428Y-0.2937
X-0.6224Y-0.6437
X-0.6148Y-0.4473
X-0.614Y-0.3848
X-0.6054Y-0.7154
X-0.6018Y-0.6102
X-0.5982Y0.616
X-0.5877Y-0.6732
X-0.5838Y0.13
X-0.5804Y-0.114
X-0.5756Y-0.5619
X-0.5717Y-0.4062
X-0.57Y0.37
X-0.5682Y-0.2157
X-0.5533Y-0.6056
X-0.552Y-0.703
X-0.5496Y0.5584
X-0.5488Y-0.5624
X-0.5412Y0.1731
X-0.5398Y-0.6614
X-0.538Y-0.625
X-0.538Y-0.6821
X-0.536Y-0.583
X-0.536Y-0.721
X-0.5358Y-0.5287
X-0.535Y-0.764
X-0.5185Y-0.4543
X-0.493Y-0.49
X-0.4929Y0.315
X-0.4921Y-0.828
X-0.491Y0.0815
X-0.482Y-0.75
X-0.478Y-0.254
X-0.478Y-0.27
X-0.478Y-0.286
X-0.478Y-0.302
X-0.478Y-0.318
X-0.478Y-0.334
X-0.478Y-0.35
X-0.4752Y-0.81
X-0.4752Y-0.1336
X-0.474Y-0.5559
X-0.474Y-0.503
X-0.4737Y0.1693
X-0.4712Y-0.154
X-0.471Y0.1045
X-0.46Y-0.249
X-0.458Y-0.358
X-0.4555Y-0.0646
X-0.4551Y-0.8047
X-0.455Y-0.494
X-0.4547Y-0.0193
X-0.4547Y-0.0413
X-0.4508Y0.1586
X-0.444Y-0.249
X-0.4427Y0.2534
X-0.442Y-0.358
X-0.435Y-0.503
X-0.4347Y-0.2148
X-0.4301Y-0.1613
X-0.428Y-0.249
X-0.426Y-0.358
X-0.4234Y-0.181
X-0.416Y-0.49
X-0.4157Y-0.8031
X-0.412Y-0.249
X-0.41Y-0.358
X-0.4Y-0.1158
X-0.396Y0.3545
X-0.396Y-0.249
X-0.396Y-0.503
X-0.394Y-0.358
X-0.38Y-0.249
X-0.378Y-0.358
X-0.3774Y-0.4885
X-0.3665Y0.3505
X-0.364Y-0.249
X-0.3606Y-0.3575
X-0.3602Y-0.5001
X-0.36Y-0.382
X-0.36Y-0.398
X-0.36Y-0.414
X-0.3563Y-0.8016
X-0.354Y-0.43
X-0.348Y-0.248
X-0.3441Y-0.3567
X-0.3435Y-0.4513
X-0.342Y0.766
X-0.3417Y-0.3791
X-0.338Y-0.43
X-0.3325Y-0.8642
X-0.332Y-0.248
X-0.328Y-0.3567
X-0.3244Y-0.3783
X-0.322Y-0.43
X-0.322Y-0.446
X-0.322Y-0.462
X-0.322Y-0.478
X-0.322Y-0.494
X-0.316Y-0.248
X-0.3129Y-0.8039
X-0.3043Y-0.2723
X-0.3042Y-0.2884
X-0.3015Y-0.2562
X-0.3003Y-0.1783
X-0.2962Y-0.8163
X-0.2947Y-0.1583
X-0.29Y-0.136
X-0.288Y-0.2888
X-0.288Y-0.556
X-0.2874Y-0.8553
X-0.276Y-0.802
X-0.2724Y-0.2941
X-0.2724Y-0.3101
X-0.2724Y-0.3261
X-0.272Y-0.343
X-0.272Y-0.36
X-0.272Y-0.376
X-0.272Y-0.392
X-0.272Y-0.408
X-0.272Y-0.424
X-0.272Y-0.44
X-0.272Y-0.456
X-0.272Y-0.472
X-0.272Y-0.488
X-0.2528Y-0.504
X-0.2435Y-0.4031
X-0.2394Y-0.8535
X-0.2371Y-0.8188
X-0.2356Y-0.6842
X-0.231Y-0.523
X-0.23Y0.714
X-0.2264Y-0.3255
X-0.222Y-0.6999
X-0.216Y0.876
X-0.2098Y-0.7466
X-0.204Y0.802
X-0.1924Y-0.4437
X-0.186Y0.476
X-0.1854Y-0.6673
X-0.1681Y0.5717
X-0.1665Y-0.6489
X-0.1648Y-0.6722
X-0.162Y-0.51
X-0.1574Y-0.5985
X-0.1527Y-0.552
X-0.1516Y-0.6321
X-0.148Y0.476
X-0.1446Y-0.6783
X-0.1425Y-0.9
X-0.1421Y0.6524
X-0.1413Y-0.7705
X-0.139Y0.6768
X-0.137Y-0.6101
X-0.1331Y-0.7409
X-0.128Y0.5693
X-0.126Y-0.6354
X-0.1123Y-0.6099
X-0.1027Y-0.5568
X-0.0819Y-0.3251
X-0.074Y-0.6365
X-0.074Y-0.406
X-0.074Y-0.476
X-0.061Y-0.6724
X-0.0508Y0.4862
X-0.0453Y-0.6343
X-0.0394Y-0.4413
X-0.0184Y-0.6394
X-0.0069Y-0.3391
X-0.004Y-0.476
X-0.002Y-0.404
X0.0042Y-0.6395
X0.0284Y-0.3406
X0.0291Y0.4736
X0.0303Y0.5694
X0.0466Y-0.3701
X0.053Y0.4819
X0.067Y0.325
X0.0693Y0.5693
X0.0693Y0.3937
X0.088Y-0.5731
X0.098Y-0.4961
X0.1079Y0.5705
X0.1315Y-0.5346
X0.1469Y-0.652
X0.148Y0.5713
X0.1656Y0.326
X0.1681Y0.9043
X0.1732Y-0.8496
X0.1776Y-0.6303
X0.1875Y0.3936
X0.206Y0.47
X0.2161Y-0.6431
X0.2362Y-0.8082
X0.2587Y-0.6594
X0.2596Y-0.8286
X0.26Y-0.891
X0.268Y-0.628
X0.3167Y0.7329
X0.3205Y0.4039
X0.3215Y-0.0998
X0.326Y0.3646
X0.3293Y0.7203
X0.338Y-0.148
X0.3417Y0.7079
X0.3427Y-0.6595
X0.3541Y0.6955
X0.3556Y-0.1064
X0.3601Y0.0059
X0.3665Y0.6831
X0.376Y-0.7425
X0.3769Y0.1022
X0.3787Y0.6709
X0.3815Y0.789
X0.3815Y0.7728
X0.3815Y0.7563
X0.3815Y0.7394
X0.3815Y0.7228
X0.3823Y0.3361
X0.384Y-0.616
X0.3866Y0.7071
X0.3907Y0.6589
X0.3982Y0.6955
X0.4024Y0.6465
X0.4031Y-0.0413
X0.4071Y-0.0969
X0.408Y-0.654
X0.41Y-0.706
X0.4102Y0.6838
X0.4159Y0.6337
X0.42Y-0.548
X0.4406Y0.0945
X0.4406Y0.0757
X0.4406Y0.0573
X0.4406Y0.0407
X0.4406Y0.0231
X0.4406Y0.0063
X0.4406Y-0.0113
X0.458Y-0.654
X0.458Y-0.706
X0.484Y-0.616
X0.52Y-0.714
X0.526Y-0.6707
X0.5394Y-0.1304
X0.549Y-0.6875
X0.602Y-0.64
X0.6398Y-0.1283
X0.7768Y0.0603
X0.7925Y0.0425
X0.869Y0.0076
X0.8878Y0.0303
X0.8882Y0.0654
T2
X0.2638Y0.789
X0.2638Y0.689
X0.8843Y-0.1413
X0.8843Y-0.2413
X0.3543Y-0.2657
X0.4134Y-0.2854
X0.4724Y-0.2657
X0.5315Y-0.2854
T3
X0.0Y-0.7874
T0
M30
