M48
; DRILL file {KiCad 5.1.5-52549c5~84~ubuntu18.04.1} date Sun 08 Dec 2019 01:29:43 AM EST
; FORMAT={-:-/ absolute / inch / decimal}
; #@! TF.CreationDate,2019-12-08T01:29:43-05:00
; #@! TF.GenerationSoftware,Kicad,Pcbnew,5.1.5-52549c5~84~ubuntu18.04.1
; #@! TF.FileFunction,Plated,1,4,PTH
FMAT,2
INCH
T1C0.0118
T2C0.0256
T3C0.0295
%
G90
G05
T1
X-0.95Y0.152
X-0.95Y0.134
X-0.95Y0.114
X-0.95Y0.096
X-0.95Y0.078
X-0.95Y0.042
X-0.95Y0.024
X-0.95Y-0.024
X-0.95Y-0.042
X-0.95Y-0.078
X-0.95Y-0.096
X-0.95Y-0.116
X-0.95Y-0.134
X-0.95Y-0.152
X-0.894Y0.152
X-0.894Y0.134
X-0.894Y0.114
X-0.894Y0.096
X-0.894Y0.078
X-0.894Y0.042
X-0.894Y0.024
X-0.894Y-0.024
X-0.894Y-0.042
X-0.894Y-0.078
X-0.894Y-0.096
X-0.894Y-0.116
X-0.894Y-0.134
X-0.894Y-0.152
X-0.869Y-0.281
X-0.869Y-0.303
X-0.866Y0.03
X-0.866Y0.014
X-0.866Y-0.004
X-0.8638Y0.0498
X-0.857Y0.145
X-0.856Y-0.076
X-0.854Y-0.116
X-0.844Y0.158
X-0.844Y0.118
X-0.842Y0.078
X-0.832Y0.17
X-0.812Y-0.076
X-0.812Y-0.116
X-0.804Y0.142
X-0.8Y0.402
X-0.8Y0.118
X-0.8Y0.078
X-0.7812Y0.3968
X-0.7628Y-0.3392
X-0.734Y0.41
X-0.72Y0.384
X-0.716Y0.436
X-0.716Y0.41
X-0.6918Y-0.562
X-0.6808Y0.0277
X-0.6729Y-0.5177
X-0.666Y0.408
X-0.6568Y-0.3309
X-0.6484Y-0.4227
X-0.6428Y-0.2937
X-0.6425Y-0.0001
X-0.636Y0.564
X-0.626Y0.204
X-0.6224Y-0.6437
X-0.6148Y-0.4473
X-0.614Y-0.3848
X-0.6054Y-0.7154
X-0.6018Y-0.6102
X-0.5877Y-0.6732
X-0.5838Y0.13
X-0.5804Y-0.114
X-0.5756Y-0.5619
X-0.5717Y-0.4062
X-0.57Y0.37
X-0.5682Y-0.2157
X-0.5573Y-0.4295
X-0.5533Y-0.6056
X-0.552Y-0.703
X-0.5496Y0.5584
X-0.5488Y-0.5624
X-0.5425Y-0.064
X-0.538Y-0.625
X-0.538Y-0.682
X-0.5374Y-0.5451
X-0.536Y-0.583
X-0.536Y-0.721
X-0.5357Y-0.0174
X-0.535Y-0.764
X-0.493Y-0.49
X-0.491Y0.0815
X-0.482Y-0.75
X-0.478Y-0.254
X-0.478Y-0.27
X-0.478Y-0.286
X-0.478Y-0.302
X-0.478Y-0.318
X-0.478Y-0.334
X-0.478Y-0.35
X-0.476Y0.196
X-0.4752Y-0.1336
X-0.474Y-0.503
X-0.4728Y0.0122
X-0.4714Y-0.554
X-0.4712Y-0.154
X-0.471Y0.1045
X-0.46Y-0.249
X-0.458Y-0.358
X-0.455Y-0.494
X-0.444Y-0.249
X-0.442Y-0.358
X-0.435Y-0.503
X-0.4347Y-0.2148
X-0.4301Y-0.1612
X-0.428Y-0.249
X-0.426Y-0.358
X-0.4234Y-0.1809
X-0.416Y-0.49
X-0.412Y-0.249
X-0.41Y-0.358
X-0.4075Y0.1971
X-0.4Y-0.1158
X-0.396Y0.3545
X-0.396Y-0.249
X-0.396Y-0.503
X-0.394Y-0.358
X-0.3813Y0.1703
X-0.38Y-0.249
X-0.378Y-0.358
X-0.375Y-0.49
X-0.3665Y0.3505
X-0.364Y-0.249
X-0.36Y-0.366
X-0.36Y-0.382
X-0.36Y-0.398
X-0.36Y-0.414
X-0.356Y-0.5
X-0.354Y-0.43
X-0.3512Y0.2282
X-0.348Y-0.248
X-0.3436Y-0.4514
X-0.342Y0.766
X-0.338Y-0.43
X-0.332Y-0.248
X-0.322Y-0.43
X-0.322Y-0.446
X-0.322Y-0.462
X-0.322Y-0.478
X-0.322Y-0.494
X-0.317Y-0.804
X-0.316Y-0.248
X-0.3043Y-0.2723
X-0.3042Y-0.2884
X-0.3015Y-0.2562
X-0.3003Y-0.1783
X-0.298Y-0.815
X-0.2947Y-0.1583
X-0.29Y-0.136
X-0.288Y-0.2888
X-0.288Y-0.556
X-0.276Y-0.802
X-0.2724Y-0.2941
X-0.2724Y-0.3101
X-0.2724Y-0.3261
X-0.272Y-0.343
X-0.272Y-0.36
X-0.272Y-0.376
X-0.272Y-0.392
X-0.272Y-0.408
X-0.272Y-0.424
X-0.272Y-0.44
X-0.272Y-0.456
X-0.272Y-0.472
X-0.272Y-0.488
X-0.2528Y-0.504
X-0.2435Y-0.4031
X-0.2371Y-0.8188
X-0.237Y-0.722
X-0.2356Y-0.6842
X-0.231Y-0.523
X-0.23Y0.714
X-0.2264Y-0.3255
X-0.226Y-0.664
X-0.222Y-0.6999
X-0.216Y0.876
X-0.204Y0.802
X-0.1924Y-0.4437
X-0.186Y0.476
X-0.168Y0.462
X-0.162Y-0.51
X-0.1586Y-0.6374
X-0.1574Y-0.603
X-0.1527Y-0.5527
X-0.1495Y-0.6708
X-0.148Y0.476
X-0.137Y-0.6101
X-0.128Y0.464
X-0.1123Y-0.6099
X-0.1027Y-0.5568
X-0.0819Y-0.3251
X-0.074Y-0.406
X-0.074Y-0.476
X-0.0683Y-0.6722
X-0.049Y0.465
X-0.0136Y-0.6221
X-0.0069Y-0.3391
X-0.004Y-0.476
X-0.002Y-0.404
X0.001Y-0.6379
X0.0284Y-0.3406
X0.0295Y0.4655
X0.0466Y-0.3701
X0.067Y0.325
X0.108Y0.39
X0.146Y0.392
X0.1603Y0.326
X0.186Y0.392
X0.206Y0.47
X0.234Y-0.778
X0.268Y-0.628
X0.272Y-0.782
X0.3215Y-0.0998
X0.338Y-0.148
X0.3427Y-0.6595
X0.356Y-0.002
X0.376Y-0.098
X0.384Y-0.616
X0.387Y0.0926
X0.402Y-0.034
X0.408Y-0.654
X0.41Y-0.706
X0.42Y-0.548
X0.4411Y0.2401
X0.4415Y0.2212
X0.4415Y0.2024
X0.4415Y0.184
X0.4415Y0.1674
X0.4415Y0.1498
X0.4415Y0.133
X0.4415Y0.1154
X0.458Y-0.654
X0.458Y-0.706
X0.484Y-0.616
X0.52Y-0.714
X0.526Y-0.6707
X0.5394Y-0.1304
X0.549Y-0.6875
X0.602Y-0.64
X0.641Y-0.0004
X0.73Y0.218
T2
X0.3815Y-0.3307
X0.4315Y-0.3307
X0.4815Y-0.3307
X0.5315Y-0.3307
T3
X0.4713Y0.5125
X0.55Y0.5125
T0
M30
