G04 #@! TF.GenerationSoftware,KiCad,Pcbnew,5.1.5-52549c5~84~ubuntu18.04.1*
G04 #@! TF.CreationDate,2019-12-03T21:10:06-05:00*
G04 #@! TF.ProjectId,SwarmBot,53776172-6d42-46f7-942e-6b696361645f,rev?*
G04 #@! TF.SameCoordinates,Original*
G04 #@! TF.FileFunction,Soldermask,Bot*
G04 #@! TF.FilePolarity,Negative*
%FSLAX46Y46*%
G04 Gerber Fmt 4.6, Leading zero omitted, Abs format (unit mm)*
G04 Created by KiCad (PCBNEW 5.1.5-52549c5~84~ubuntu18.04.1) date 2019-12-03 21:10:06*
%MOMM*%
%LPD*%
G04 APERTURE LIST*
%ADD10C,0.100000*%
G04 APERTURE END LIST*
D10*
G36*
X379487Y-18748996D02*
G01*
X616253Y-18847068D01*
X616255Y-18847069D01*
X829339Y-18989447D01*
X1010553Y-19170661D01*
X1152932Y-19383747D01*
X1251004Y-19620513D01*
X1301000Y-19871861D01*
X1301000Y-20128139D01*
X1251004Y-20379487D01*
X1152932Y-20616253D01*
X1152931Y-20616255D01*
X1010553Y-20829339D01*
X829339Y-21010553D01*
X616255Y-21152931D01*
X616254Y-21152932D01*
X616253Y-21152932D01*
X379487Y-21251004D01*
X128139Y-21301000D01*
X-128139Y-21301000D01*
X-379487Y-21251004D01*
X-616253Y-21152932D01*
X-616254Y-21152932D01*
X-616255Y-21152931D01*
X-829339Y-21010553D01*
X-1010553Y-20829339D01*
X-1152931Y-20616255D01*
X-1152932Y-20616253D01*
X-1251004Y-20379487D01*
X-1301000Y-20128139D01*
X-1301000Y-19871861D01*
X-1251004Y-19620513D01*
X-1152932Y-19383747D01*
X-1010553Y-19170661D01*
X-829339Y-18989447D01*
X-616255Y-18847069D01*
X-616253Y-18847068D01*
X-379487Y-18748996D01*
X-128139Y-18699000D01*
X128139Y-18699000D01*
X379487Y-18748996D01*
G37*
G36*
X17979487Y-8348996D02*
G01*
X18216253Y-8447068D01*
X18216255Y-8447069D01*
X18429339Y-8589447D01*
X18610553Y-8770661D01*
X18731052Y-8951000D01*
X18752932Y-8983747D01*
X18851004Y-9220513D01*
X18901000Y-9471861D01*
X18901000Y-9728139D01*
X18851004Y-9979487D01*
X18752932Y-10216253D01*
X18752931Y-10216255D01*
X18610553Y-10429339D01*
X18429339Y-10610553D01*
X18216255Y-10752931D01*
X18216254Y-10752932D01*
X18216253Y-10752932D01*
X17979487Y-10851004D01*
X17728139Y-10901000D01*
X17471861Y-10901000D01*
X17220513Y-10851004D01*
X16983747Y-10752932D01*
X16983746Y-10752932D01*
X16983745Y-10752931D01*
X16770661Y-10610553D01*
X16589447Y-10429339D01*
X16447069Y-10216255D01*
X16447068Y-10216253D01*
X16348996Y-9979487D01*
X16299000Y-9728139D01*
X16299000Y-9471861D01*
X16348996Y-9220513D01*
X16447068Y-8983747D01*
X16468949Y-8951000D01*
X16589447Y-8770661D01*
X16770661Y-8589447D01*
X16983745Y-8447069D01*
X16983747Y-8447068D01*
X17220513Y-8348996D01*
X17471861Y-8299000D01*
X17728139Y-8299000D01*
X17979487Y-8348996D01*
G37*
G36*
X5979487Y-8348996D02*
G01*
X6216253Y-8447068D01*
X6216255Y-8447069D01*
X6429339Y-8589447D01*
X6610553Y-8770661D01*
X6731052Y-8951000D01*
X6752932Y-8983747D01*
X6851004Y-9220513D01*
X6901000Y-9471861D01*
X6901000Y-9728139D01*
X6851004Y-9979487D01*
X6752932Y-10216253D01*
X6752931Y-10216255D01*
X6610553Y-10429339D01*
X6429339Y-10610553D01*
X6216255Y-10752931D01*
X6216254Y-10752932D01*
X6216253Y-10752932D01*
X5979487Y-10851004D01*
X5728139Y-10901000D01*
X5471861Y-10901000D01*
X5220513Y-10851004D01*
X4983747Y-10752932D01*
X4983746Y-10752932D01*
X4983745Y-10752931D01*
X4770661Y-10610553D01*
X4589447Y-10429339D01*
X4447069Y-10216255D01*
X4447068Y-10216253D01*
X4348996Y-9979487D01*
X4299000Y-9728139D01*
X4299000Y-9471861D01*
X4348996Y-9220513D01*
X4447068Y-8983747D01*
X4468949Y-8951000D01*
X4589447Y-8770661D01*
X4770661Y-8589447D01*
X4983745Y-8447069D01*
X4983747Y-8447068D01*
X5220513Y-8348996D01*
X5471861Y-8299000D01*
X5728139Y-8299000D01*
X5979487Y-8348996D01*
G37*
G36*
X9850721Y-7870174D02*
G01*
X9950995Y-7911709D01*
X9950996Y-7911710D01*
X10041242Y-7972010D01*
X10117990Y-8048758D01*
X10117991Y-8048760D01*
X10178291Y-8139005D01*
X10209516Y-8214389D01*
X10221067Y-8236000D01*
X10236612Y-8254941D01*
X10255554Y-8270487D01*
X10277165Y-8282038D01*
X10300614Y-8289151D01*
X10325000Y-8291553D01*
X10349386Y-8289151D01*
X10372835Y-8282038D01*
X10394446Y-8270487D01*
X10413387Y-8254942D01*
X10428933Y-8236000D01*
X10440484Y-8214389D01*
X10471709Y-8139005D01*
X10532009Y-8048760D01*
X10532010Y-8048758D01*
X10608758Y-7972010D01*
X10699004Y-7911710D01*
X10699005Y-7911709D01*
X10799279Y-7870174D01*
X10905730Y-7849000D01*
X11014270Y-7849000D01*
X11120721Y-7870174D01*
X11220995Y-7911709D01*
X11220996Y-7911710D01*
X11311242Y-7972010D01*
X11387990Y-8048758D01*
X11387991Y-8048760D01*
X11448291Y-8139005D01*
X11479516Y-8214389D01*
X11491067Y-8236000D01*
X11506612Y-8254941D01*
X11525554Y-8270487D01*
X11547165Y-8282038D01*
X11570614Y-8289151D01*
X11595000Y-8291553D01*
X11619386Y-8289151D01*
X11642835Y-8282038D01*
X11664446Y-8270487D01*
X11683387Y-8254942D01*
X11698933Y-8236000D01*
X11710484Y-8214389D01*
X11741709Y-8139005D01*
X11802009Y-8048760D01*
X11802010Y-8048758D01*
X11878758Y-7972010D01*
X11969004Y-7911710D01*
X11969005Y-7911709D01*
X12069279Y-7870174D01*
X12175730Y-7849000D01*
X12284270Y-7849000D01*
X12390721Y-7870174D01*
X12490995Y-7911709D01*
X12490996Y-7911710D01*
X12581242Y-7972010D01*
X12657990Y-8048758D01*
X12657991Y-8048760D01*
X12720068Y-8141664D01*
X12735614Y-8160606D01*
X12754556Y-8176151D01*
X12776167Y-8187702D01*
X12799615Y-8194815D01*
X12824002Y-8197217D01*
X12848388Y-8194815D01*
X12871837Y-8187702D01*
X12893447Y-8176151D01*
X12912389Y-8160605D01*
X12927934Y-8141663D01*
X12939485Y-8120052D01*
X12946598Y-8096604D01*
X12949000Y-8072218D01*
X12949000Y-7849000D01*
X14051000Y-7849000D01*
X14051000Y-8951000D01*
X12949000Y-8951000D01*
X12949000Y-8727782D01*
X12946598Y-8703396D01*
X12939485Y-8679947D01*
X12927934Y-8658336D01*
X12912389Y-8639394D01*
X12893447Y-8623849D01*
X12871836Y-8612298D01*
X12848387Y-8605185D01*
X12824001Y-8602783D01*
X12799615Y-8605185D01*
X12776166Y-8612298D01*
X12754555Y-8623849D01*
X12735613Y-8639394D01*
X12720068Y-8658336D01*
X12678988Y-8719816D01*
X12657990Y-8751242D01*
X12581242Y-8827990D01*
X12535812Y-8858345D01*
X12490995Y-8888291D01*
X12390721Y-8929826D01*
X12284270Y-8951000D01*
X12175730Y-8951000D01*
X12069279Y-8929826D01*
X11969005Y-8888291D01*
X11924188Y-8858345D01*
X11878758Y-8827990D01*
X11802010Y-8751242D01*
X11770041Y-8703396D01*
X11741709Y-8660995D01*
X11710484Y-8585611D01*
X11698933Y-8564000D01*
X11683388Y-8545059D01*
X11664446Y-8529513D01*
X11642835Y-8517962D01*
X11619386Y-8510849D01*
X11595000Y-8508447D01*
X11570614Y-8510849D01*
X11547165Y-8517962D01*
X11525554Y-8529513D01*
X11506613Y-8545058D01*
X11491067Y-8564000D01*
X11479516Y-8585611D01*
X11448291Y-8660995D01*
X11419959Y-8703396D01*
X11387990Y-8751242D01*
X11311242Y-8827990D01*
X11265812Y-8858345D01*
X11220995Y-8888291D01*
X11120721Y-8929826D01*
X11014270Y-8951000D01*
X10905730Y-8951000D01*
X10799279Y-8929826D01*
X10699005Y-8888291D01*
X10654188Y-8858345D01*
X10608758Y-8827990D01*
X10532010Y-8751242D01*
X10500041Y-8703396D01*
X10471709Y-8660995D01*
X10440484Y-8585611D01*
X10428933Y-8564000D01*
X10413388Y-8545059D01*
X10394446Y-8529513D01*
X10372835Y-8517962D01*
X10349386Y-8510849D01*
X10325000Y-8508447D01*
X10300614Y-8510849D01*
X10277165Y-8517962D01*
X10255554Y-8529513D01*
X10236613Y-8545058D01*
X10221067Y-8564000D01*
X10209516Y-8585611D01*
X10178291Y-8660995D01*
X10149959Y-8703396D01*
X10117990Y-8751242D01*
X10041242Y-8827990D01*
X9995812Y-8858345D01*
X9950995Y-8888291D01*
X9850721Y-8929826D01*
X9744270Y-8951000D01*
X9635730Y-8951000D01*
X9529279Y-8929826D01*
X9429005Y-8888291D01*
X9384188Y-8858345D01*
X9338758Y-8827990D01*
X9262010Y-8751242D01*
X9230041Y-8703396D01*
X9201709Y-8660995D01*
X9160174Y-8560721D01*
X9139000Y-8454270D01*
X9139000Y-8345730D01*
X9160174Y-8239279D01*
X9201709Y-8139005D01*
X9262009Y-8048760D01*
X9262010Y-8048758D01*
X9338758Y-7972010D01*
X9429004Y-7911710D01*
X9429005Y-7911709D01*
X9529279Y-7870174D01*
X9635730Y-7849000D01*
X9744270Y-7849000D01*
X9850721Y-7870174D01*
G37*
G36*
X-16499000Y-2651000D02*
G01*
X-17501000Y-2651000D01*
X-17501000Y-549000D01*
X-16499000Y-549000D01*
X-16499000Y-2651000D01*
G37*
G36*
X19501000Y-2651000D02*
G01*
X18499000Y-2651000D01*
X18499000Y-549000D01*
X19501000Y-549000D01*
X19501000Y-2651000D01*
G37*
G36*
X-12499000Y-2651000D02*
G01*
X-13501000Y-2651000D01*
X-13501000Y-549000D01*
X-12499000Y-549000D01*
X-12499000Y-2651000D01*
G37*
G36*
X15501000Y-2651000D02*
G01*
X14499000Y-2651000D01*
X14499000Y-549000D01*
X15501000Y-549000D01*
X15501000Y-2651000D01*
G37*
G36*
X-14499000Y549000D02*
G01*
X-15501000Y549000D01*
X-15501000Y2651000D01*
X-14499000Y2651000D01*
X-14499000Y549000D01*
G37*
G36*
X13501000Y549000D02*
G01*
X12499000Y549000D01*
X12499000Y2651000D01*
X13501000Y2651000D01*
X13501000Y549000D01*
G37*
G36*
X17501000Y549000D02*
G01*
X16499000Y549000D01*
X16499000Y2651000D01*
X17501000Y2651000D01*
X17501000Y549000D01*
G37*
G36*
X-18499000Y549000D02*
G01*
X-19501000Y549000D01*
X-19501000Y2651000D01*
X-18499000Y2651000D01*
X-18499000Y549000D01*
G37*
G36*
X8351118Y13934080D02*
G01*
X8431900Y13909575D01*
X8473836Y13896854D01*
X8586925Y13836406D01*
X8686054Y13755054D01*
X8767406Y13655925D01*
X8827854Y13542836D01*
X8827855Y13542832D01*
X8865080Y13420118D01*
X8874500Y13324473D01*
X8874500Y12710527D01*
X8865080Y12614882D01*
X8837540Y12524096D01*
X8827854Y12492164D01*
X8767406Y12379075D01*
X8686054Y12279947D01*
X8586924Y12198594D01*
X8473835Y12138146D01*
X8441903Y12128460D01*
X8351117Y12100920D01*
X8223500Y12088351D01*
X8095882Y12100920D01*
X8005096Y12128460D01*
X7973164Y12138146D01*
X7860075Y12198594D01*
X7760947Y12279946D01*
X7679594Y12379076D01*
X7619146Y12492165D01*
X7609460Y12524097D01*
X7581920Y12614883D01*
X7572500Y12710528D01*
X7572500Y13324473D01*
X7581920Y13420118D01*
X7619145Y13542832D01*
X7619145Y13542833D01*
X7651457Y13603283D01*
X7679595Y13655926D01*
X7692993Y13672251D01*
X7760947Y13755054D01*
X7860076Y13836406D01*
X7973165Y13896854D01*
X8015101Y13909575D01*
X8095883Y13934080D01*
X8223500Y13946649D01*
X8351118Y13934080D01*
G37*
G36*
X10714742Y13939096D02*
G01*
X10751837Y13927843D01*
X10786015Y13909575D01*
X10815981Y13884981D01*
X10840575Y13855015D01*
X10858843Y13820837D01*
X10870096Y13783742D01*
X10874500Y13739026D01*
X10874500Y12295974D01*
X10870096Y12251258D01*
X10858843Y12214163D01*
X10840575Y12179985D01*
X10815981Y12150019D01*
X10786015Y12125425D01*
X10751837Y12107157D01*
X10714742Y12095904D01*
X10670026Y12091500D01*
X9776974Y12091500D01*
X9732258Y12095904D01*
X9695163Y12107157D01*
X9660985Y12125425D01*
X9631019Y12150019D01*
X9606425Y12179985D01*
X9588157Y12214163D01*
X9576904Y12251258D01*
X9572500Y12295974D01*
X9572500Y13739026D01*
X9576904Y13783742D01*
X9588157Y13820837D01*
X9606425Y13855015D01*
X9631019Y13884981D01*
X9660985Y13909575D01*
X9695163Y13927843D01*
X9732258Y13939096D01*
X9776974Y13943500D01*
X10670026Y13943500D01*
X10714742Y13939096D01*
G37*
G36*
X379487Y21251004D02*
G01*
X616253Y21152932D01*
X616255Y21152931D01*
X829339Y21010553D01*
X1010553Y20829339D01*
X1152932Y20616253D01*
X1251004Y20379487D01*
X1301000Y20128139D01*
X1301000Y19871861D01*
X1251004Y19620513D01*
X1152932Y19383747D01*
X1152931Y19383745D01*
X1010553Y19170661D01*
X829339Y18989447D01*
X616255Y18847069D01*
X616254Y18847068D01*
X616253Y18847068D01*
X379487Y18748996D01*
X128139Y18699000D01*
X-128139Y18699000D01*
X-379487Y18748996D01*
X-616253Y18847068D01*
X-616254Y18847068D01*
X-616255Y18847069D01*
X-829339Y18989447D01*
X-1010553Y19170661D01*
X-1152931Y19383745D01*
X-1152932Y19383747D01*
X-1251004Y19620513D01*
X-1301000Y19871861D01*
X-1301000Y20128139D01*
X-1251004Y20379487D01*
X-1152932Y20616253D01*
X-1010553Y20829339D01*
X-829339Y21010553D01*
X-616255Y21152931D01*
X-616253Y21152932D01*
X-379487Y21251004D01*
X-128139Y21301000D01*
X128139Y21301000D01*
X379487Y21251004D01*
G37*
M02*
