G04 #@! TF.GenerationSoftware,KiCad,Pcbnew,5.1.5-52549c5~84~ubuntu18.04.1*
G04 #@! TF.CreationDate,2019-12-08T01:29:41-05:00*
G04 #@! TF.ProjectId,SwarmBot,53776172-6d42-46f7-942e-6b696361645f,rev?*
G04 #@! TF.SameCoordinates,Original*
G04 #@! TF.FileFunction,Legend,Bot*
G04 #@! TF.FilePolarity,Positive*
%FSLAX46Y46*%
G04 Gerber Fmt 4.6, Leading zero omitted, Abs format (unit mm)*
G04 Created by KiCad (PCBNEW 5.1.5-52549c5~84~ubuntu18.04.1) date 2019-12-08 01:29:41*
%MOMM*%
%LPD*%
G04 APERTURE LIST*
%ADD10C,0.120000*%
%ADD11C,0.150000*%
G04 APERTURE END LIST*
D10*
X-12970000Y1330000D02*
X-9860000Y1330000D01*
X-18050000Y1330000D02*
X-14490000Y1330000D01*
X-15510000Y-1330000D02*
X-11950000Y-1330000D01*
X-10430000Y-1330000D02*
X-9860000Y-1330000D01*
X-20140000Y1330000D02*
X-19570000Y1330000D01*
X-19570000Y1330000D02*
X-19570000Y2850000D01*
X-20140000Y-1330000D02*
X-17030000Y-1330000D01*
X-9860000Y1330000D02*
X-9860000Y-1330000D01*
X-20140000Y1330000D02*
X-20140000Y-1330000D01*
X17030000Y1330000D02*
X20140000Y1330000D01*
X11950000Y1330000D02*
X15510000Y1330000D01*
X14490000Y-1330000D02*
X18050000Y-1330000D01*
X19570000Y-1330000D02*
X20140000Y-1330000D01*
X9860000Y1330000D02*
X10430000Y1330000D01*
X10430000Y1330000D02*
X10430000Y2850000D01*
X9860000Y-1330000D02*
X12970000Y-1330000D01*
X20140000Y1330000D02*
X20140000Y-1330000D01*
X9860000Y1330000D02*
X9860000Y-1330000D01*
D11*
X-21687619Y333333D02*
X-20973333Y333333D01*
X-20830476Y380952D01*
X-20735238Y476190D01*
X-20687619Y619047D01*
X-20687619Y714285D01*
X-21592380Y-95238D02*
X-21640000Y-142857D01*
X-21687619Y-238095D01*
X-21687619Y-476190D01*
X-21640000Y-571428D01*
X-21592380Y-619047D01*
X-21497142Y-666666D01*
X-21401904Y-666666D01*
X-21259047Y-619047D01*
X-20687619Y-47619D01*
X-20687619Y-666666D01*
X8312380Y333333D02*
X9026666Y333333D01*
X9169523Y380952D01*
X9264761Y476190D01*
X9312380Y619047D01*
X9312380Y714285D01*
X9312380Y-666666D02*
X9312380Y-95238D01*
X9312380Y-380952D02*
X8312380Y-380952D01*
X8455238Y-285714D01*
X8550476Y-190476D01*
X8598095Y-95238D01*
M02*
