G04 #@! TF.GenerationSoftware,KiCad,Pcbnew,5.1.5-52549c5~84~ubuntu18.04.1*
G04 #@! TF.CreationDate,2019-12-03T21:10:06-05:00*
G04 #@! TF.ProjectId,SwarmBot,53776172-6d42-46f7-942e-6b696361645f,rev?*
G04 #@! TF.SameCoordinates,Original*
G04 #@! TF.FileFunction,Paste,Top*
G04 #@! TF.FilePolarity,Positive*
%FSLAX46Y46*%
G04 Gerber Fmt 4.6, Leading zero omitted, Abs format (unit mm)*
G04 Created by KiCad (PCBNEW 5.1.5-52549c5~84~ubuntu18.04.1) date 2019-12-03 21:10:06*
%MOMM*%
%LPD*%
G04 APERTURE LIST*
%ADD10R,0.200000X0.325000*%
%ADD11R,0.325000X0.200000*%
%ADD12C,0.100000*%
%ADD13R,5.500000X5.500000*%
%ADD14R,0.550000X0.350000*%
%ADD15R,0.350000X0.550000*%
%ADD16R,0.800000X1.600000*%
%ADD17R,0.650000X0.400000*%
%ADD18R,0.730000X0.730000*%
%ADD19O,0.300000X0.750000*%
%ADD20O,0.750000X0.300000*%
%ADD21R,0.400000X0.650000*%
%ADD22R,0.550000X1.500000*%
%ADD23R,0.900000X0.800000*%
%ADD24R,0.800000X0.900000*%
%ADD25R,1.900000X1.175000*%
%ADD26R,1.900000X2.375000*%
%ADD27R,2.100000X1.475000*%
%ADD28R,1.380000X0.450000*%
G04 APERTURE END LIST*
D10*
X-350000Y9962500D03*
X0Y9962500D03*
X350000Y9962500D03*
D11*
X762500Y9725000D03*
X762500Y9375000D03*
X762500Y9025000D03*
X762500Y8675000D03*
D10*
X350000Y8437500D03*
X0Y8437500D03*
X-350000Y8437500D03*
D11*
X-762500Y8675000D03*
X-762500Y9025000D03*
X-762500Y9375000D03*
X-762500Y9725000D03*
D12*
G36*
X8645558Y-15682710D02*
G01*
X8659876Y-15684834D01*
X8673917Y-15688351D01*
X8687546Y-15693228D01*
X8700631Y-15699417D01*
X8713047Y-15706858D01*
X8724673Y-15715481D01*
X8735398Y-15725202D01*
X8745119Y-15735927D01*
X8753742Y-15747553D01*
X8761183Y-15759969D01*
X8767372Y-15773054D01*
X8772249Y-15786683D01*
X8775766Y-15800724D01*
X8777890Y-15815042D01*
X8778600Y-15829500D01*
X8778600Y-16174500D01*
X8777890Y-16188958D01*
X8775766Y-16203276D01*
X8772249Y-16217317D01*
X8767372Y-16230946D01*
X8761183Y-16244031D01*
X8753742Y-16256447D01*
X8745119Y-16268073D01*
X8735398Y-16278798D01*
X8724673Y-16288519D01*
X8713047Y-16297142D01*
X8700631Y-16304583D01*
X8687546Y-16310772D01*
X8673917Y-16315649D01*
X8659876Y-16319166D01*
X8645558Y-16321290D01*
X8631100Y-16322000D01*
X8336100Y-16322000D01*
X8321642Y-16321290D01*
X8307324Y-16319166D01*
X8293283Y-16315649D01*
X8279654Y-16310772D01*
X8266569Y-16304583D01*
X8254153Y-16297142D01*
X8242527Y-16288519D01*
X8231802Y-16278798D01*
X8222081Y-16268073D01*
X8213458Y-16256447D01*
X8206017Y-16244031D01*
X8199828Y-16230946D01*
X8194951Y-16217317D01*
X8191434Y-16203276D01*
X8189310Y-16188958D01*
X8188600Y-16174500D01*
X8188600Y-15829500D01*
X8189310Y-15815042D01*
X8191434Y-15800724D01*
X8194951Y-15786683D01*
X8199828Y-15773054D01*
X8206017Y-15759969D01*
X8213458Y-15747553D01*
X8222081Y-15735927D01*
X8231802Y-15725202D01*
X8242527Y-15715481D01*
X8254153Y-15706858D01*
X8266569Y-15699417D01*
X8279654Y-15693228D01*
X8293283Y-15688351D01*
X8307324Y-15684834D01*
X8321642Y-15682710D01*
X8336100Y-15682000D01*
X8631100Y-15682000D01*
X8645558Y-15682710D01*
G37*
G36*
X7675558Y-15682710D02*
G01*
X7689876Y-15684834D01*
X7703917Y-15688351D01*
X7717546Y-15693228D01*
X7730631Y-15699417D01*
X7743047Y-15706858D01*
X7754673Y-15715481D01*
X7765398Y-15725202D01*
X7775119Y-15735927D01*
X7783742Y-15747553D01*
X7791183Y-15759969D01*
X7797372Y-15773054D01*
X7802249Y-15786683D01*
X7805766Y-15800724D01*
X7807890Y-15815042D01*
X7808600Y-15829500D01*
X7808600Y-16174500D01*
X7807890Y-16188958D01*
X7805766Y-16203276D01*
X7802249Y-16217317D01*
X7797372Y-16230946D01*
X7791183Y-16244031D01*
X7783742Y-16256447D01*
X7775119Y-16268073D01*
X7765398Y-16278798D01*
X7754673Y-16288519D01*
X7743047Y-16297142D01*
X7730631Y-16304583D01*
X7717546Y-16310772D01*
X7703917Y-16315649D01*
X7689876Y-16319166D01*
X7675558Y-16321290D01*
X7661100Y-16322000D01*
X7366100Y-16322000D01*
X7351642Y-16321290D01*
X7337324Y-16319166D01*
X7323283Y-16315649D01*
X7309654Y-16310772D01*
X7296569Y-16304583D01*
X7284153Y-16297142D01*
X7272527Y-16288519D01*
X7261802Y-16278798D01*
X7252081Y-16268073D01*
X7243458Y-16256447D01*
X7236017Y-16244031D01*
X7229828Y-16230946D01*
X7224951Y-16217317D01*
X7221434Y-16203276D01*
X7219310Y-16188958D01*
X7218600Y-16174500D01*
X7218600Y-15829500D01*
X7219310Y-15815042D01*
X7221434Y-15800724D01*
X7224951Y-15786683D01*
X7229828Y-15773054D01*
X7236017Y-15759969D01*
X7243458Y-15747553D01*
X7252081Y-15735927D01*
X7261802Y-15725202D01*
X7272527Y-15715481D01*
X7284153Y-15706858D01*
X7296569Y-15699417D01*
X7309654Y-15693228D01*
X7323283Y-15688351D01*
X7337324Y-15684834D01*
X7351642Y-15682710D01*
X7366100Y-15682000D01*
X7661100Y-15682000D01*
X7675558Y-15682710D01*
G37*
G36*
X13827158Y-15936710D02*
G01*
X13841476Y-15938834D01*
X13855517Y-15942351D01*
X13869146Y-15947228D01*
X13882231Y-15953417D01*
X13894647Y-15960858D01*
X13906273Y-15969481D01*
X13916998Y-15979202D01*
X13926719Y-15989927D01*
X13935342Y-16001553D01*
X13942783Y-16013969D01*
X13948972Y-16027054D01*
X13953849Y-16040683D01*
X13957366Y-16054724D01*
X13959490Y-16069042D01*
X13960200Y-16083500D01*
X13960200Y-16428500D01*
X13959490Y-16442958D01*
X13957366Y-16457276D01*
X13953849Y-16471317D01*
X13948972Y-16484946D01*
X13942783Y-16498031D01*
X13935342Y-16510447D01*
X13926719Y-16522073D01*
X13916998Y-16532798D01*
X13906273Y-16542519D01*
X13894647Y-16551142D01*
X13882231Y-16558583D01*
X13869146Y-16564772D01*
X13855517Y-16569649D01*
X13841476Y-16573166D01*
X13827158Y-16575290D01*
X13812700Y-16576000D01*
X13517700Y-16576000D01*
X13503242Y-16575290D01*
X13488924Y-16573166D01*
X13474883Y-16569649D01*
X13461254Y-16564772D01*
X13448169Y-16558583D01*
X13435753Y-16551142D01*
X13424127Y-16542519D01*
X13413402Y-16532798D01*
X13403681Y-16522073D01*
X13395058Y-16510447D01*
X13387617Y-16498031D01*
X13381428Y-16484946D01*
X13376551Y-16471317D01*
X13373034Y-16457276D01*
X13370910Y-16442958D01*
X13370200Y-16428500D01*
X13370200Y-16083500D01*
X13370910Y-16069042D01*
X13373034Y-16054724D01*
X13376551Y-16040683D01*
X13381428Y-16027054D01*
X13387617Y-16013969D01*
X13395058Y-16001553D01*
X13403681Y-15989927D01*
X13413402Y-15979202D01*
X13424127Y-15969481D01*
X13435753Y-15960858D01*
X13448169Y-15953417D01*
X13461254Y-15947228D01*
X13474883Y-15942351D01*
X13488924Y-15938834D01*
X13503242Y-15936710D01*
X13517700Y-15936000D01*
X13812700Y-15936000D01*
X13827158Y-15936710D01*
G37*
G36*
X14797158Y-15936710D02*
G01*
X14811476Y-15938834D01*
X14825517Y-15942351D01*
X14839146Y-15947228D01*
X14852231Y-15953417D01*
X14864647Y-15960858D01*
X14876273Y-15969481D01*
X14886998Y-15979202D01*
X14896719Y-15989927D01*
X14905342Y-16001553D01*
X14912783Y-16013969D01*
X14918972Y-16027054D01*
X14923849Y-16040683D01*
X14927366Y-16054724D01*
X14929490Y-16069042D01*
X14930200Y-16083500D01*
X14930200Y-16428500D01*
X14929490Y-16442958D01*
X14927366Y-16457276D01*
X14923849Y-16471317D01*
X14918972Y-16484946D01*
X14912783Y-16498031D01*
X14905342Y-16510447D01*
X14896719Y-16522073D01*
X14886998Y-16532798D01*
X14876273Y-16542519D01*
X14864647Y-16551142D01*
X14852231Y-16558583D01*
X14839146Y-16564772D01*
X14825517Y-16569649D01*
X14811476Y-16573166D01*
X14797158Y-16575290D01*
X14782700Y-16576000D01*
X14487700Y-16576000D01*
X14473242Y-16575290D01*
X14458924Y-16573166D01*
X14444883Y-16569649D01*
X14431254Y-16564772D01*
X14418169Y-16558583D01*
X14405753Y-16551142D01*
X14394127Y-16542519D01*
X14383402Y-16532798D01*
X14373681Y-16522073D01*
X14365058Y-16510447D01*
X14357617Y-16498031D01*
X14351428Y-16484946D01*
X14346551Y-16471317D01*
X14343034Y-16457276D01*
X14340910Y-16442958D01*
X14340200Y-16428500D01*
X14340200Y-16083500D01*
X14340910Y-16069042D01*
X14343034Y-16054724D01*
X14346551Y-16040683D01*
X14351428Y-16027054D01*
X14357617Y-16013969D01*
X14365058Y-16001553D01*
X14373681Y-15989927D01*
X14383402Y-15979202D01*
X14394127Y-15969481D01*
X14405753Y-15960858D01*
X14418169Y-15953417D01*
X14431254Y-15947228D01*
X14444883Y-15942351D01*
X14458924Y-15938834D01*
X14473242Y-15936710D01*
X14487700Y-15936000D01*
X14782700Y-15936000D01*
X14797158Y-15936710D01*
G37*
G36*
X-12601942Y-19723310D02*
G01*
X-12587624Y-19725434D01*
X-12573583Y-19728951D01*
X-12559954Y-19733828D01*
X-12546869Y-19740017D01*
X-12534453Y-19747458D01*
X-12522827Y-19756081D01*
X-12512102Y-19765802D01*
X-12502381Y-19776527D01*
X-12493758Y-19788153D01*
X-12486317Y-19800569D01*
X-12480128Y-19813654D01*
X-12475251Y-19827283D01*
X-12471734Y-19841324D01*
X-12469610Y-19855642D01*
X-12468900Y-19870100D01*
X-12468900Y-20165100D01*
X-12469610Y-20179558D01*
X-12471734Y-20193876D01*
X-12475251Y-20207917D01*
X-12480128Y-20221546D01*
X-12486317Y-20234631D01*
X-12493758Y-20247047D01*
X-12502381Y-20258673D01*
X-12512102Y-20269398D01*
X-12522827Y-20279119D01*
X-12534453Y-20287742D01*
X-12546869Y-20295183D01*
X-12559954Y-20301372D01*
X-12573583Y-20306249D01*
X-12587624Y-20309766D01*
X-12601942Y-20311890D01*
X-12616400Y-20312600D01*
X-12961400Y-20312600D01*
X-12975858Y-20311890D01*
X-12990176Y-20309766D01*
X-13004217Y-20306249D01*
X-13017846Y-20301372D01*
X-13030931Y-20295183D01*
X-13043347Y-20287742D01*
X-13054973Y-20279119D01*
X-13065698Y-20269398D01*
X-13075419Y-20258673D01*
X-13084042Y-20247047D01*
X-13091483Y-20234631D01*
X-13097672Y-20221546D01*
X-13102549Y-20207917D01*
X-13106066Y-20193876D01*
X-13108190Y-20179558D01*
X-13108900Y-20165100D01*
X-13108900Y-19870100D01*
X-13108190Y-19855642D01*
X-13106066Y-19841324D01*
X-13102549Y-19827283D01*
X-13097672Y-19813654D01*
X-13091483Y-19800569D01*
X-13084042Y-19788153D01*
X-13075419Y-19776527D01*
X-13065698Y-19765802D01*
X-13054973Y-19756081D01*
X-13043347Y-19747458D01*
X-13030931Y-19740017D01*
X-13017846Y-19733828D01*
X-13004217Y-19728951D01*
X-12990176Y-19725434D01*
X-12975858Y-19723310D01*
X-12961400Y-19722600D01*
X-12616400Y-19722600D01*
X-12601942Y-19723310D01*
G37*
G36*
X-12601942Y-18753310D02*
G01*
X-12587624Y-18755434D01*
X-12573583Y-18758951D01*
X-12559954Y-18763828D01*
X-12546869Y-18770017D01*
X-12534453Y-18777458D01*
X-12522827Y-18786081D01*
X-12512102Y-18795802D01*
X-12502381Y-18806527D01*
X-12493758Y-18818153D01*
X-12486317Y-18830569D01*
X-12480128Y-18843654D01*
X-12475251Y-18857283D01*
X-12471734Y-18871324D01*
X-12469610Y-18885642D01*
X-12468900Y-18900100D01*
X-12468900Y-19195100D01*
X-12469610Y-19209558D01*
X-12471734Y-19223876D01*
X-12475251Y-19237917D01*
X-12480128Y-19251546D01*
X-12486317Y-19264631D01*
X-12493758Y-19277047D01*
X-12502381Y-19288673D01*
X-12512102Y-19299398D01*
X-12522827Y-19309119D01*
X-12534453Y-19317742D01*
X-12546869Y-19325183D01*
X-12559954Y-19331372D01*
X-12573583Y-19336249D01*
X-12587624Y-19339766D01*
X-12601942Y-19341890D01*
X-12616400Y-19342600D01*
X-12961400Y-19342600D01*
X-12975858Y-19341890D01*
X-12990176Y-19339766D01*
X-13004217Y-19336249D01*
X-13017846Y-19331372D01*
X-13030931Y-19325183D01*
X-13043347Y-19317742D01*
X-13054973Y-19309119D01*
X-13065698Y-19299398D01*
X-13075419Y-19288673D01*
X-13084042Y-19277047D01*
X-13091483Y-19264631D01*
X-13097672Y-19251546D01*
X-13102549Y-19237917D01*
X-13106066Y-19223876D01*
X-13108190Y-19209558D01*
X-13108900Y-19195100D01*
X-13108900Y-18900100D01*
X-13108190Y-18885642D01*
X-13106066Y-18871324D01*
X-13102549Y-18857283D01*
X-13097672Y-18843654D01*
X-13091483Y-18830569D01*
X-13084042Y-18818153D01*
X-13075419Y-18806527D01*
X-13065698Y-18795802D01*
X-13054973Y-18786081D01*
X-13043347Y-18777458D01*
X-13030931Y-18770017D01*
X-13017846Y-18763828D01*
X-13004217Y-18758951D01*
X-12990176Y-18755434D01*
X-12975858Y-18753310D01*
X-12961400Y-18752600D01*
X-12616400Y-18752600D01*
X-12601942Y-18753310D01*
G37*
D13*
X-10579400Y-11855100D03*
D14*
X-13866400Y-14599100D03*
X-13866400Y-14099100D03*
X-13866400Y-13599100D03*
X-13866400Y-13099100D03*
X-13866400Y-12599100D03*
X-13866400Y-12099100D03*
X-13866400Y-11599100D03*
X-13866400Y-11099100D03*
X-13866400Y-10599100D03*
X-13866400Y-10099100D03*
X-13866400Y-9599100D03*
X-13866400Y-9099100D03*
D15*
X-13316400Y-8549100D03*
X-12816400Y-8549100D03*
X-12316400Y-8549100D03*
X-11816400Y-8549100D03*
X-11316400Y-8549100D03*
X-10816400Y-8549100D03*
X-10316400Y-8549100D03*
X-9816400Y-8549100D03*
X-9316400Y-8549100D03*
X-8816400Y-8549100D03*
X-8316400Y-8549100D03*
X-7816400Y-8549100D03*
D14*
X-7266400Y-9099100D03*
X-7266400Y-9599100D03*
X-7266400Y-10099100D03*
X-7266400Y-10599100D03*
X-7266400Y-11099100D03*
X-7266400Y-11599100D03*
X-7266400Y-12099100D03*
X-7266400Y-12599100D03*
X-7266400Y-13099100D03*
X-7266400Y-13599100D03*
X-7266400Y-14099100D03*
X-7266400Y-14599100D03*
D15*
X-7816400Y-15149100D03*
X-8316400Y-15149100D03*
X-8816400Y-15149100D03*
X-9316400Y-15149100D03*
X-9816400Y-15149100D03*
X-10316400Y-15149100D03*
X-10816400Y-15149100D03*
X-11316400Y-15149100D03*
X-11816400Y-15149100D03*
X-12316400Y-15149100D03*
X-12816400Y-15149100D03*
X-13316400Y-15149100D03*
D16*
X-8918900Y-19786600D03*
X-11518900Y-19786600D03*
D17*
X-1077000Y13193000D03*
X-1077000Y14493000D03*
X823000Y13843000D03*
X823000Y14493000D03*
X823000Y13193000D03*
D18*
X11456000Y-17712600D03*
X10556000Y-17712600D03*
X10556000Y-16812600D03*
X11456000Y-16812600D03*
D19*
X11756000Y-18737600D03*
X11256000Y-18737600D03*
X10756000Y-18737600D03*
X10256000Y-18737600D03*
D20*
X9531000Y-18012600D03*
X9531000Y-17512600D03*
X9531000Y-17012600D03*
X9531000Y-16512600D03*
D19*
X10256000Y-15787600D03*
X10756000Y-15787600D03*
X11256000Y-15787600D03*
X11756000Y-15787600D03*
D20*
X12481000Y-16512600D03*
X12481000Y-17012600D03*
X12481000Y-17512600D03*
X12481000Y-18012600D03*
D21*
X-21175500Y8191500D03*
X-19875500Y8191500D03*
X-20525500Y6291500D03*
X-19875500Y6291500D03*
X-21175500Y6291500D03*
D12*
G36*
X-13881374Y1714699D02*
G01*
X-13875307Y1713799D01*
X-13869357Y1712309D01*
X-13863582Y1710242D01*
X-13858038Y1707620D01*
X-13852777Y1704467D01*
X-13847850Y1700813D01*
X-13843306Y1696694D01*
X-13839187Y1692150D01*
X-13835533Y1687223D01*
X-13832380Y1681962D01*
X-13829758Y1676418D01*
X-13827691Y1670643D01*
X-13826201Y1664693D01*
X-13825301Y1658626D01*
X-13825000Y1652500D01*
X-13825000Y952500D01*
X-13825301Y946374D01*
X-13826201Y940307D01*
X-13827691Y934357D01*
X-13829758Y928582D01*
X-13832380Y923038D01*
X-13835533Y917777D01*
X-13839187Y912850D01*
X-13843306Y908306D01*
X-13847850Y904187D01*
X-13852777Y900533D01*
X-13858038Y897380D01*
X-13863582Y894758D01*
X-13869357Y892691D01*
X-13875307Y891201D01*
X-13881374Y890301D01*
X-13887500Y890000D01*
X-14012500Y890000D01*
X-14018626Y890301D01*
X-14024693Y891201D01*
X-14030643Y892691D01*
X-14036418Y894758D01*
X-14041962Y897380D01*
X-14047223Y900533D01*
X-14052150Y904187D01*
X-14056694Y908306D01*
X-14060813Y912850D01*
X-14064467Y917777D01*
X-14067620Y923038D01*
X-14070242Y928582D01*
X-14072309Y934357D01*
X-14073799Y940307D01*
X-14074699Y946374D01*
X-14075000Y952500D01*
X-14075000Y1652500D01*
X-14074699Y1658626D01*
X-14073799Y1664693D01*
X-14072309Y1670643D01*
X-14070242Y1676418D01*
X-14067620Y1681962D01*
X-14064467Y1687223D01*
X-14060813Y1692150D01*
X-14056694Y1696694D01*
X-14052150Y1700813D01*
X-14047223Y1704467D01*
X-14041962Y1707620D01*
X-14036418Y1710242D01*
X-14030643Y1712309D01*
X-14024693Y1713799D01*
X-14018626Y1714699D01*
X-14012500Y1715000D01*
X-13887500Y1715000D01*
X-13881374Y1714699D01*
G37*
G36*
X-13381374Y1714699D02*
G01*
X-13375307Y1713799D01*
X-13369357Y1712309D01*
X-13363582Y1710242D01*
X-13358038Y1707620D01*
X-13352777Y1704467D01*
X-13347850Y1700813D01*
X-13343306Y1696694D01*
X-13339187Y1692150D01*
X-13335533Y1687223D01*
X-13332380Y1681962D01*
X-13329758Y1676418D01*
X-13327691Y1670643D01*
X-13326201Y1664693D01*
X-13325301Y1658626D01*
X-13325000Y1652500D01*
X-13325000Y952500D01*
X-13325301Y946374D01*
X-13326201Y940307D01*
X-13327691Y934357D01*
X-13329758Y928582D01*
X-13332380Y923038D01*
X-13335533Y917777D01*
X-13339187Y912850D01*
X-13343306Y908306D01*
X-13347850Y904187D01*
X-13352777Y900533D01*
X-13358038Y897380D01*
X-13363582Y894758D01*
X-13369357Y892691D01*
X-13375307Y891201D01*
X-13381374Y890301D01*
X-13387500Y890000D01*
X-13512500Y890000D01*
X-13518626Y890301D01*
X-13524693Y891201D01*
X-13530643Y892691D01*
X-13536418Y894758D01*
X-13541962Y897380D01*
X-13547223Y900533D01*
X-13552150Y904187D01*
X-13556694Y908306D01*
X-13560813Y912850D01*
X-13564467Y917777D01*
X-13567620Y923038D01*
X-13570242Y928582D01*
X-13572309Y934357D01*
X-13573799Y940307D01*
X-13574699Y946374D01*
X-13575000Y952500D01*
X-13575000Y1652500D01*
X-13574699Y1658626D01*
X-13573799Y1664693D01*
X-13572309Y1670643D01*
X-13570242Y1676418D01*
X-13567620Y1681962D01*
X-13564467Y1687223D01*
X-13560813Y1692150D01*
X-13556694Y1696694D01*
X-13552150Y1700813D01*
X-13547223Y1704467D01*
X-13541962Y1707620D01*
X-13536418Y1710242D01*
X-13530643Y1712309D01*
X-13524693Y1713799D01*
X-13518626Y1714699D01*
X-13512500Y1715000D01*
X-13387500Y1715000D01*
X-13381374Y1714699D01*
G37*
G36*
X-12881374Y1714699D02*
G01*
X-12875307Y1713799D01*
X-12869357Y1712309D01*
X-12863582Y1710242D01*
X-12858038Y1707620D01*
X-12852777Y1704467D01*
X-12847850Y1700813D01*
X-12843306Y1696694D01*
X-12839187Y1692150D01*
X-12835533Y1687223D01*
X-12832380Y1681962D01*
X-12829758Y1676418D01*
X-12827691Y1670643D01*
X-12826201Y1664693D01*
X-12825301Y1658626D01*
X-12825000Y1652500D01*
X-12825000Y952500D01*
X-12825301Y946374D01*
X-12826201Y940307D01*
X-12827691Y934357D01*
X-12829758Y928582D01*
X-12832380Y923038D01*
X-12835533Y917777D01*
X-12839187Y912850D01*
X-12843306Y908306D01*
X-12847850Y904187D01*
X-12852777Y900533D01*
X-12858038Y897380D01*
X-12863582Y894758D01*
X-12869357Y892691D01*
X-12875307Y891201D01*
X-12881374Y890301D01*
X-12887500Y890000D01*
X-13012500Y890000D01*
X-13018626Y890301D01*
X-13024693Y891201D01*
X-13030643Y892691D01*
X-13036418Y894758D01*
X-13041962Y897380D01*
X-13047223Y900533D01*
X-13052150Y904187D01*
X-13056694Y908306D01*
X-13060813Y912850D01*
X-13064467Y917777D01*
X-13067620Y923038D01*
X-13070242Y928582D01*
X-13072309Y934357D01*
X-13073799Y940307D01*
X-13074699Y946374D01*
X-13075000Y952500D01*
X-13075000Y1652500D01*
X-13074699Y1658626D01*
X-13073799Y1664693D01*
X-13072309Y1670643D01*
X-13070242Y1676418D01*
X-13067620Y1681962D01*
X-13064467Y1687223D01*
X-13060813Y1692150D01*
X-13056694Y1696694D01*
X-13052150Y1700813D01*
X-13047223Y1704467D01*
X-13041962Y1707620D01*
X-13036418Y1710242D01*
X-13030643Y1712309D01*
X-13024693Y1713799D01*
X-13018626Y1714699D01*
X-13012500Y1715000D01*
X-12887500Y1715000D01*
X-12881374Y1714699D01*
G37*
G36*
X-12381374Y1714699D02*
G01*
X-12375307Y1713799D01*
X-12369357Y1712309D01*
X-12363582Y1710242D01*
X-12358038Y1707620D01*
X-12352777Y1704467D01*
X-12347850Y1700813D01*
X-12343306Y1696694D01*
X-12339187Y1692150D01*
X-12335533Y1687223D01*
X-12332380Y1681962D01*
X-12329758Y1676418D01*
X-12327691Y1670643D01*
X-12326201Y1664693D01*
X-12325301Y1658626D01*
X-12325000Y1652500D01*
X-12325000Y952500D01*
X-12325301Y946374D01*
X-12326201Y940307D01*
X-12327691Y934357D01*
X-12329758Y928582D01*
X-12332380Y923038D01*
X-12335533Y917777D01*
X-12339187Y912850D01*
X-12343306Y908306D01*
X-12347850Y904187D01*
X-12352777Y900533D01*
X-12358038Y897380D01*
X-12363582Y894758D01*
X-12369357Y892691D01*
X-12375307Y891201D01*
X-12381374Y890301D01*
X-12387500Y890000D01*
X-12512500Y890000D01*
X-12518626Y890301D01*
X-12524693Y891201D01*
X-12530643Y892691D01*
X-12536418Y894758D01*
X-12541962Y897380D01*
X-12547223Y900533D01*
X-12552150Y904187D01*
X-12556694Y908306D01*
X-12560813Y912850D01*
X-12564467Y917777D01*
X-12567620Y923038D01*
X-12570242Y928582D01*
X-12572309Y934357D01*
X-12573799Y940307D01*
X-12574699Y946374D01*
X-12575000Y952500D01*
X-12575000Y1652500D01*
X-12574699Y1658626D01*
X-12573799Y1664693D01*
X-12572309Y1670643D01*
X-12570242Y1676418D01*
X-12567620Y1681962D01*
X-12564467Y1687223D01*
X-12560813Y1692150D01*
X-12556694Y1696694D01*
X-12552150Y1700813D01*
X-12547223Y1704467D01*
X-12541962Y1707620D01*
X-12536418Y1710242D01*
X-12530643Y1712309D01*
X-12524693Y1713799D01*
X-12518626Y1714699D01*
X-12512500Y1715000D01*
X-12387500Y1715000D01*
X-12381374Y1714699D01*
G37*
G36*
X-11881374Y1714699D02*
G01*
X-11875307Y1713799D01*
X-11869357Y1712309D01*
X-11863582Y1710242D01*
X-11858038Y1707620D01*
X-11852777Y1704467D01*
X-11847850Y1700813D01*
X-11843306Y1696694D01*
X-11839187Y1692150D01*
X-11835533Y1687223D01*
X-11832380Y1681962D01*
X-11829758Y1676418D01*
X-11827691Y1670643D01*
X-11826201Y1664693D01*
X-11825301Y1658626D01*
X-11825000Y1652500D01*
X-11825000Y952500D01*
X-11825301Y946374D01*
X-11826201Y940307D01*
X-11827691Y934357D01*
X-11829758Y928582D01*
X-11832380Y923038D01*
X-11835533Y917777D01*
X-11839187Y912850D01*
X-11843306Y908306D01*
X-11847850Y904187D01*
X-11852777Y900533D01*
X-11858038Y897380D01*
X-11863582Y894758D01*
X-11869357Y892691D01*
X-11875307Y891201D01*
X-11881374Y890301D01*
X-11887500Y890000D01*
X-12012500Y890000D01*
X-12018626Y890301D01*
X-12024693Y891201D01*
X-12030643Y892691D01*
X-12036418Y894758D01*
X-12041962Y897380D01*
X-12047223Y900533D01*
X-12052150Y904187D01*
X-12056694Y908306D01*
X-12060813Y912850D01*
X-12064467Y917777D01*
X-12067620Y923038D01*
X-12070242Y928582D01*
X-12072309Y934357D01*
X-12073799Y940307D01*
X-12074699Y946374D01*
X-12075000Y952500D01*
X-12075000Y1652500D01*
X-12074699Y1658626D01*
X-12073799Y1664693D01*
X-12072309Y1670643D01*
X-12070242Y1676418D01*
X-12067620Y1681962D01*
X-12064467Y1687223D01*
X-12060813Y1692150D01*
X-12056694Y1696694D01*
X-12052150Y1700813D01*
X-12047223Y1704467D01*
X-12041962Y1707620D01*
X-12036418Y1710242D01*
X-12030643Y1712309D01*
X-12024693Y1713799D01*
X-12018626Y1714699D01*
X-12012500Y1715000D01*
X-11887500Y1715000D01*
X-11881374Y1714699D01*
G37*
G36*
X-11381374Y1714699D02*
G01*
X-11375307Y1713799D01*
X-11369357Y1712309D01*
X-11363582Y1710242D01*
X-11358038Y1707620D01*
X-11352777Y1704467D01*
X-11347850Y1700813D01*
X-11343306Y1696694D01*
X-11339187Y1692150D01*
X-11335533Y1687223D01*
X-11332380Y1681962D01*
X-11329758Y1676418D01*
X-11327691Y1670643D01*
X-11326201Y1664693D01*
X-11325301Y1658626D01*
X-11325000Y1652500D01*
X-11325000Y952500D01*
X-11325301Y946374D01*
X-11326201Y940307D01*
X-11327691Y934357D01*
X-11329758Y928582D01*
X-11332380Y923038D01*
X-11335533Y917777D01*
X-11339187Y912850D01*
X-11343306Y908306D01*
X-11347850Y904187D01*
X-11352777Y900533D01*
X-11358038Y897380D01*
X-11363582Y894758D01*
X-11369357Y892691D01*
X-11375307Y891201D01*
X-11381374Y890301D01*
X-11387500Y890000D01*
X-11512500Y890000D01*
X-11518626Y890301D01*
X-11524693Y891201D01*
X-11530643Y892691D01*
X-11536418Y894758D01*
X-11541962Y897380D01*
X-11547223Y900533D01*
X-11552150Y904187D01*
X-11556694Y908306D01*
X-11560813Y912850D01*
X-11564467Y917777D01*
X-11567620Y923038D01*
X-11570242Y928582D01*
X-11572309Y934357D01*
X-11573799Y940307D01*
X-11574699Y946374D01*
X-11575000Y952500D01*
X-11575000Y1652500D01*
X-11574699Y1658626D01*
X-11573799Y1664693D01*
X-11572309Y1670643D01*
X-11570242Y1676418D01*
X-11567620Y1681962D01*
X-11564467Y1687223D01*
X-11560813Y1692150D01*
X-11556694Y1696694D01*
X-11552150Y1700813D01*
X-11547223Y1704467D01*
X-11541962Y1707620D01*
X-11536418Y1710242D01*
X-11530643Y1712309D01*
X-11524693Y1713799D01*
X-11518626Y1714699D01*
X-11512500Y1715000D01*
X-11387500Y1715000D01*
X-11381374Y1714699D01*
G37*
G36*
X-10406374Y739699D02*
G01*
X-10400307Y738799D01*
X-10394357Y737309D01*
X-10388582Y735242D01*
X-10383038Y732620D01*
X-10377777Y729467D01*
X-10372850Y725813D01*
X-10368306Y721694D01*
X-10364187Y717150D01*
X-10360533Y712223D01*
X-10357380Y706962D01*
X-10354758Y701418D01*
X-10352691Y695643D01*
X-10351201Y689693D01*
X-10350301Y683626D01*
X-10350000Y677500D01*
X-10350000Y552500D01*
X-10350301Y546374D01*
X-10351201Y540307D01*
X-10352691Y534357D01*
X-10354758Y528582D01*
X-10357380Y523038D01*
X-10360533Y517777D01*
X-10364187Y512850D01*
X-10368306Y508306D01*
X-10372850Y504187D01*
X-10377777Y500533D01*
X-10383038Y497380D01*
X-10388582Y494758D01*
X-10394357Y492691D01*
X-10400307Y491201D01*
X-10406374Y490301D01*
X-10412500Y490000D01*
X-11112500Y490000D01*
X-11118626Y490301D01*
X-11124693Y491201D01*
X-11130643Y492691D01*
X-11136418Y494758D01*
X-11141962Y497380D01*
X-11147223Y500533D01*
X-11152150Y504187D01*
X-11156694Y508306D01*
X-11160813Y512850D01*
X-11164467Y517777D01*
X-11167620Y523038D01*
X-11170242Y528582D01*
X-11172309Y534357D01*
X-11173799Y540307D01*
X-11174699Y546374D01*
X-11175000Y552500D01*
X-11175000Y677500D01*
X-11174699Y683626D01*
X-11173799Y689693D01*
X-11172309Y695643D01*
X-11170242Y701418D01*
X-11167620Y706962D01*
X-11164467Y712223D01*
X-11160813Y717150D01*
X-11156694Y721694D01*
X-11152150Y725813D01*
X-11147223Y729467D01*
X-11141962Y732620D01*
X-11136418Y735242D01*
X-11130643Y737309D01*
X-11124693Y738799D01*
X-11118626Y739699D01*
X-11112500Y740000D01*
X-10412500Y740000D01*
X-10406374Y739699D01*
G37*
G36*
X-10406374Y239699D02*
G01*
X-10400307Y238799D01*
X-10394357Y237309D01*
X-10388582Y235242D01*
X-10383038Y232620D01*
X-10377777Y229467D01*
X-10372850Y225813D01*
X-10368306Y221694D01*
X-10364187Y217150D01*
X-10360533Y212223D01*
X-10357380Y206962D01*
X-10354758Y201418D01*
X-10352691Y195643D01*
X-10351201Y189693D01*
X-10350301Y183626D01*
X-10350000Y177500D01*
X-10350000Y52500D01*
X-10350301Y46374D01*
X-10351201Y40307D01*
X-10352691Y34357D01*
X-10354758Y28582D01*
X-10357380Y23038D01*
X-10360533Y17777D01*
X-10364187Y12850D01*
X-10368306Y8306D01*
X-10372850Y4187D01*
X-10377777Y533D01*
X-10383038Y-2620D01*
X-10388582Y-5242D01*
X-10394357Y-7309D01*
X-10400307Y-8799D01*
X-10406374Y-9699D01*
X-10412500Y-10000D01*
X-11112500Y-10000D01*
X-11118626Y-9699D01*
X-11124693Y-8799D01*
X-11130643Y-7309D01*
X-11136418Y-5242D01*
X-11141962Y-2620D01*
X-11147223Y533D01*
X-11152150Y4187D01*
X-11156694Y8306D01*
X-11160813Y12850D01*
X-11164467Y17777D01*
X-11167620Y23038D01*
X-11170242Y28582D01*
X-11172309Y34357D01*
X-11173799Y40307D01*
X-11174699Y46374D01*
X-11175000Y52500D01*
X-11175000Y177500D01*
X-11174699Y183626D01*
X-11173799Y189693D01*
X-11172309Y195643D01*
X-11170242Y201418D01*
X-11167620Y206962D01*
X-11164467Y212223D01*
X-11160813Y217150D01*
X-11156694Y221694D01*
X-11152150Y225813D01*
X-11147223Y229467D01*
X-11141962Y232620D01*
X-11136418Y235242D01*
X-11130643Y237309D01*
X-11124693Y238799D01*
X-11118626Y239699D01*
X-11112500Y240000D01*
X-10412500Y240000D01*
X-10406374Y239699D01*
G37*
G36*
X-10406374Y-260301D02*
G01*
X-10400307Y-261201D01*
X-10394357Y-262691D01*
X-10388582Y-264758D01*
X-10383038Y-267380D01*
X-10377777Y-270533D01*
X-10372850Y-274187D01*
X-10368306Y-278306D01*
X-10364187Y-282850D01*
X-10360533Y-287777D01*
X-10357380Y-293038D01*
X-10354758Y-298582D01*
X-10352691Y-304357D01*
X-10351201Y-310307D01*
X-10350301Y-316374D01*
X-10350000Y-322500D01*
X-10350000Y-447500D01*
X-10350301Y-453626D01*
X-10351201Y-459693D01*
X-10352691Y-465643D01*
X-10354758Y-471418D01*
X-10357380Y-476962D01*
X-10360533Y-482223D01*
X-10364187Y-487150D01*
X-10368306Y-491694D01*
X-10372850Y-495813D01*
X-10377777Y-499467D01*
X-10383038Y-502620D01*
X-10388582Y-505242D01*
X-10394357Y-507309D01*
X-10400307Y-508799D01*
X-10406374Y-509699D01*
X-10412500Y-510000D01*
X-11112500Y-510000D01*
X-11118626Y-509699D01*
X-11124693Y-508799D01*
X-11130643Y-507309D01*
X-11136418Y-505242D01*
X-11141962Y-502620D01*
X-11147223Y-499467D01*
X-11152150Y-495813D01*
X-11156694Y-491694D01*
X-11160813Y-487150D01*
X-11164467Y-482223D01*
X-11167620Y-476962D01*
X-11170242Y-471418D01*
X-11172309Y-465643D01*
X-11173799Y-459693D01*
X-11174699Y-453626D01*
X-11175000Y-447500D01*
X-11175000Y-322500D01*
X-11174699Y-316374D01*
X-11173799Y-310307D01*
X-11172309Y-304357D01*
X-11170242Y-298582D01*
X-11167620Y-293038D01*
X-11164467Y-287777D01*
X-11160813Y-282850D01*
X-11156694Y-278306D01*
X-11152150Y-274187D01*
X-11147223Y-270533D01*
X-11141962Y-267380D01*
X-11136418Y-264758D01*
X-11130643Y-262691D01*
X-11124693Y-261201D01*
X-11118626Y-260301D01*
X-11112500Y-260000D01*
X-10412500Y-260000D01*
X-10406374Y-260301D01*
G37*
G36*
X-10406374Y-760301D02*
G01*
X-10400307Y-761201D01*
X-10394357Y-762691D01*
X-10388582Y-764758D01*
X-10383038Y-767380D01*
X-10377777Y-770533D01*
X-10372850Y-774187D01*
X-10368306Y-778306D01*
X-10364187Y-782850D01*
X-10360533Y-787777D01*
X-10357380Y-793038D01*
X-10354758Y-798582D01*
X-10352691Y-804357D01*
X-10351201Y-810307D01*
X-10350301Y-816374D01*
X-10350000Y-822500D01*
X-10350000Y-947500D01*
X-10350301Y-953626D01*
X-10351201Y-959693D01*
X-10352691Y-965643D01*
X-10354758Y-971418D01*
X-10357380Y-976962D01*
X-10360533Y-982223D01*
X-10364187Y-987150D01*
X-10368306Y-991694D01*
X-10372850Y-995813D01*
X-10377777Y-999467D01*
X-10383038Y-1002620D01*
X-10388582Y-1005242D01*
X-10394357Y-1007309D01*
X-10400307Y-1008799D01*
X-10406374Y-1009699D01*
X-10412500Y-1010000D01*
X-11112500Y-1010000D01*
X-11118626Y-1009699D01*
X-11124693Y-1008799D01*
X-11130643Y-1007309D01*
X-11136418Y-1005242D01*
X-11141962Y-1002620D01*
X-11147223Y-999467D01*
X-11152150Y-995813D01*
X-11156694Y-991694D01*
X-11160813Y-987150D01*
X-11164467Y-982223D01*
X-11167620Y-976962D01*
X-11170242Y-971418D01*
X-11172309Y-965643D01*
X-11173799Y-959693D01*
X-11174699Y-953626D01*
X-11175000Y-947500D01*
X-11175000Y-822500D01*
X-11174699Y-816374D01*
X-11173799Y-810307D01*
X-11172309Y-804357D01*
X-11170242Y-798582D01*
X-11167620Y-793038D01*
X-11164467Y-787777D01*
X-11160813Y-782850D01*
X-11156694Y-778306D01*
X-11152150Y-774187D01*
X-11147223Y-770533D01*
X-11141962Y-767380D01*
X-11136418Y-764758D01*
X-11130643Y-762691D01*
X-11124693Y-761201D01*
X-11118626Y-760301D01*
X-11112500Y-760000D01*
X-10412500Y-760000D01*
X-10406374Y-760301D01*
G37*
G36*
X-10406374Y-1260301D02*
G01*
X-10400307Y-1261201D01*
X-10394357Y-1262691D01*
X-10388582Y-1264758D01*
X-10383038Y-1267380D01*
X-10377777Y-1270533D01*
X-10372850Y-1274187D01*
X-10368306Y-1278306D01*
X-10364187Y-1282850D01*
X-10360533Y-1287777D01*
X-10357380Y-1293038D01*
X-10354758Y-1298582D01*
X-10352691Y-1304357D01*
X-10351201Y-1310307D01*
X-10350301Y-1316374D01*
X-10350000Y-1322500D01*
X-10350000Y-1447500D01*
X-10350301Y-1453626D01*
X-10351201Y-1459693D01*
X-10352691Y-1465643D01*
X-10354758Y-1471418D01*
X-10357380Y-1476962D01*
X-10360533Y-1482223D01*
X-10364187Y-1487150D01*
X-10368306Y-1491694D01*
X-10372850Y-1495813D01*
X-10377777Y-1499467D01*
X-10383038Y-1502620D01*
X-10388582Y-1505242D01*
X-10394357Y-1507309D01*
X-10400307Y-1508799D01*
X-10406374Y-1509699D01*
X-10412500Y-1510000D01*
X-11112500Y-1510000D01*
X-11118626Y-1509699D01*
X-11124693Y-1508799D01*
X-11130643Y-1507309D01*
X-11136418Y-1505242D01*
X-11141962Y-1502620D01*
X-11147223Y-1499467D01*
X-11152150Y-1495813D01*
X-11156694Y-1491694D01*
X-11160813Y-1487150D01*
X-11164467Y-1482223D01*
X-11167620Y-1476962D01*
X-11170242Y-1471418D01*
X-11172309Y-1465643D01*
X-11173799Y-1459693D01*
X-11174699Y-1453626D01*
X-11175000Y-1447500D01*
X-11175000Y-1322500D01*
X-11174699Y-1316374D01*
X-11173799Y-1310307D01*
X-11172309Y-1304357D01*
X-11170242Y-1298582D01*
X-11167620Y-1293038D01*
X-11164467Y-1287777D01*
X-11160813Y-1282850D01*
X-11156694Y-1278306D01*
X-11152150Y-1274187D01*
X-11147223Y-1270533D01*
X-11141962Y-1267380D01*
X-11136418Y-1264758D01*
X-11130643Y-1262691D01*
X-11124693Y-1261201D01*
X-11118626Y-1260301D01*
X-11112500Y-1260000D01*
X-10412500Y-1260000D01*
X-10406374Y-1260301D01*
G37*
G36*
X-10406374Y-1760301D02*
G01*
X-10400307Y-1761201D01*
X-10394357Y-1762691D01*
X-10388582Y-1764758D01*
X-10383038Y-1767380D01*
X-10377777Y-1770533D01*
X-10372850Y-1774187D01*
X-10368306Y-1778306D01*
X-10364187Y-1782850D01*
X-10360533Y-1787777D01*
X-10357380Y-1793038D01*
X-10354758Y-1798582D01*
X-10352691Y-1804357D01*
X-10351201Y-1810307D01*
X-10350301Y-1816374D01*
X-10350000Y-1822500D01*
X-10350000Y-1947500D01*
X-10350301Y-1953626D01*
X-10351201Y-1959693D01*
X-10352691Y-1965643D01*
X-10354758Y-1971418D01*
X-10357380Y-1976962D01*
X-10360533Y-1982223D01*
X-10364187Y-1987150D01*
X-10368306Y-1991694D01*
X-10372850Y-1995813D01*
X-10377777Y-1999467D01*
X-10383038Y-2002620D01*
X-10388582Y-2005242D01*
X-10394357Y-2007309D01*
X-10400307Y-2008799D01*
X-10406374Y-2009699D01*
X-10412500Y-2010000D01*
X-11112500Y-2010000D01*
X-11118626Y-2009699D01*
X-11124693Y-2008799D01*
X-11130643Y-2007309D01*
X-11136418Y-2005242D01*
X-11141962Y-2002620D01*
X-11147223Y-1999467D01*
X-11152150Y-1995813D01*
X-11156694Y-1991694D01*
X-11160813Y-1987150D01*
X-11164467Y-1982223D01*
X-11167620Y-1976962D01*
X-11170242Y-1971418D01*
X-11172309Y-1965643D01*
X-11173799Y-1959693D01*
X-11174699Y-1953626D01*
X-11175000Y-1947500D01*
X-11175000Y-1822500D01*
X-11174699Y-1816374D01*
X-11173799Y-1810307D01*
X-11172309Y-1804357D01*
X-11170242Y-1798582D01*
X-11167620Y-1793038D01*
X-11164467Y-1787777D01*
X-11160813Y-1782850D01*
X-11156694Y-1778306D01*
X-11152150Y-1774187D01*
X-11147223Y-1770533D01*
X-11141962Y-1767380D01*
X-11136418Y-1764758D01*
X-11130643Y-1762691D01*
X-11124693Y-1761201D01*
X-11118626Y-1760301D01*
X-11112500Y-1760000D01*
X-10412500Y-1760000D01*
X-10406374Y-1760301D01*
G37*
G36*
X-11381374Y-2160301D02*
G01*
X-11375307Y-2161201D01*
X-11369357Y-2162691D01*
X-11363582Y-2164758D01*
X-11358038Y-2167380D01*
X-11352777Y-2170533D01*
X-11347850Y-2174187D01*
X-11343306Y-2178306D01*
X-11339187Y-2182850D01*
X-11335533Y-2187777D01*
X-11332380Y-2193038D01*
X-11329758Y-2198582D01*
X-11327691Y-2204357D01*
X-11326201Y-2210307D01*
X-11325301Y-2216374D01*
X-11325000Y-2222500D01*
X-11325000Y-2922500D01*
X-11325301Y-2928626D01*
X-11326201Y-2934693D01*
X-11327691Y-2940643D01*
X-11329758Y-2946418D01*
X-11332380Y-2951962D01*
X-11335533Y-2957223D01*
X-11339187Y-2962150D01*
X-11343306Y-2966694D01*
X-11347850Y-2970813D01*
X-11352777Y-2974467D01*
X-11358038Y-2977620D01*
X-11363582Y-2980242D01*
X-11369357Y-2982309D01*
X-11375307Y-2983799D01*
X-11381374Y-2984699D01*
X-11387500Y-2985000D01*
X-11512500Y-2985000D01*
X-11518626Y-2984699D01*
X-11524693Y-2983799D01*
X-11530643Y-2982309D01*
X-11536418Y-2980242D01*
X-11541962Y-2977620D01*
X-11547223Y-2974467D01*
X-11552150Y-2970813D01*
X-11556694Y-2966694D01*
X-11560813Y-2962150D01*
X-11564467Y-2957223D01*
X-11567620Y-2951962D01*
X-11570242Y-2946418D01*
X-11572309Y-2940643D01*
X-11573799Y-2934693D01*
X-11574699Y-2928626D01*
X-11575000Y-2922500D01*
X-11575000Y-2222500D01*
X-11574699Y-2216374D01*
X-11573799Y-2210307D01*
X-11572309Y-2204357D01*
X-11570242Y-2198582D01*
X-11567620Y-2193038D01*
X-11564467Y-2187777D01*
X-11560813Y-2182850D01*
X-11556694Y-2178306D01*
X-11552150Y-2174187D01*
X-11547223Y-2170533D01*
X-11541962Y-2167380D01*
X-11536418Y-2164758D01*
X-11530643Y-2162691D01*
X-11524693Y-2161201D01*
X-11518626Y-2160301D01*
X-11512500Y-2160000D01*
X-11387500Y-2160000D01*
X-11381374Y-2160301D01*
G37*
G36*
X-11881374Y-2160301D02*
G01*
X-11875307Y-2161201D01*
X-11869357Y-2162691D01*
X-11863582Y-2164758D01*
X-11858038Y-2167380D01*
X-11852777Y-2170533D01*
X-11847850Y-2174187D01*
X-11843306Y-2178306D01*
X-11839187Y-2182850D01*
X-11835533Y-2187777D01*
X-11832380Y-2193038D01*
X-11829758Y-2198582D01*
X-11827691Y-2204357D01*
X-11826201Y-2210307D01*
X-11825301Y-2216374D01*
X-11825000Y-2222500D01*
X-11825000Y-2922500D01*
X-11825301Y-2928626D01*
X-11826201Y-2934693D01*
X-11827691Y-2940643D01*
X-11829758Y-2946418D01*
X-11832380Y-2951962D01*
X-11835533Y-2957223D01*
X-11839187Y-2962150D01*
X-11843306Y-2966694D01*
X-11847850Y-2970813D01*
X-11852777Y-2974467D01*
X-11858038Y-2977620D01*
X-11863582Y-2980242D01*
X-11869357Y-2982309D01*
X-11875307Y-2983799D01*
X-11881374Y-2984699D01*
X-11887500Y-2985000D01*
X-12012500Y-2985000D01*
X-12018626Y-2984699D01*
X-12024693Y-2983799D01*
X-12030643Y-2982309D01*
X-12036418Y-2980242D01*
X-12041962Y-2977620D01*
X-12047223Y-2974467D01*
X-12052150Y-2970813D01*
X-12056694Y-2966694D01*
X-12060813Y-2962150D01*
X-12064467Y-2957223D01*
X-12067620Y-2951962D01*
X-12070242Y-2946418D01*
X-12072309Y-2940643D01*
X-12073799Y-2934693D01*
X-12074699Y-2928626D01*
X-12075000Y-2922500D01*
X-12075000Y-2222500D01*
X-12074699Y-2216374D01*
X-12073799Y-2210307D01*
X-12072309Y-2204357D01*
X-12070242Y-2198582D01*
X-12067620Y-2193038D01*
X-12064467Y-2187777D01*
X-12060813Y-2182850D01*
X-12056694Y-2178306D01*
X-12052150Y-2174187D01*
X-12047223Y-2170533D01*
X-12041962Y-2167380D01*
X-12036418Y-2164758D01*
X-12030643Y-2162691D01*
X-12024693Y-2161201D01*
X-12018626Y-2160301D01*
X-12012500Y-2160000D01*
X-11887500Y-2160000D01*
X-11881374Y-2160301D01*
G37*
G36*
X-12381374Y-2160301D02*
G01*
X-12375307Y-2161201D01*
X-12369357Y-2162691D01*
X-12363582Y-2164758D01*
X-12358038Y-2167380D01*
X-12352777Y-2170533D01*
X-12347850Y-2174187D01*
X-12343306Y-2178306D01*
X-12339187Y-2182850D01*
X-12335533Y-2187777D01*
X-12332380Y-2193038D01*
X-12329758Y-2198582D01*
X-12327691Y-2204357D01*
X-12326201Y-2210307D01*
X-12325301Y-2216374D01*
X-12325000Y-2222500D01*
X-12325000Y-2922500D01*
X-12325301Y-2928626D01*
X-12326201Y-2934693D01*
X-12327691Y-2940643D01*
X-12329758Y-2946418D01*
X-12332380Y-2951962D01*
X-12335533Y-2957223D01*
X-12339187Y-2962150D01*
X-12343306Y-2966694D01*
X-12347850Y-2970813D01*
X-12352777Y-2974467D01*
X-12358038Y-2977620D01*
X-12363582Y-2980242D01*
X-12369357Y-2982309D01*
X-12375307Y-2983799D01*
X-12381374Y-2984699D01*
X-12387500Y-2985000D01*
X-12512500Y-2985000D01*
X-12518626Y-2984699D01*
X-12524693Y-2983799D01*
X-12530643Y-2982309D01*
X-12536418Y-2980242D01*
X-12541962Y-2977620D01*
X-12547223Y-2974467D01*
X-12552150Y-2970813D01*
X-12556694Y-2966694D01*
X-12560813Y-2962150D01*
X-12564467Y-2957223D01*
X-12567620Y-2951962D01*
X-12570242Y-2946418D01*
X-12572309Y-2940643D01*
X-12573799Y-2934693D01*
X-12574699Y-2928626D01*
X-12575000Y-2922500D01*
X-12575000Y-2222500D01*
X-12574699Y-2216374D01*
X-12573799Y-2210307D01*
X-12572309Y-2204357D01*
X-12570242Y-2198582D01*
X-12567620Y-2193038D01*
X-12564467Y-2187777D01*
X-12560813Y-2182850D01*
X-12556694Y-2178306D01*
X-12552150Y-2174187D01*
X-12547223Y-2170533D01*
X-12541962Y-2167380D01*
X-12536418Y-2164758D01*
X-12530643Y-2162691D01*
X-12524693Y-2161201D01*
X-12518626Y-2160301D01*
X-12512500Y-2160000D01*
X-12387500Y-2160000D01*
X-12381374Y-2160301D01*
G37*
G36*
X-12881374Y-2160301D02*
G01*
X-12875307Y-2161201D01*
X-12869357Y-2162691D01*
X-12863582Y-2164758D01*
X-12858038Y-2167380D01*
X-12852777Y-2170533D01*
X-12847850Y-2174187D01*
X-12843306Y-2178306D01*
X-12839187Y-2182850D01*
X-12835533Y-2187777D01*
X-12832380Y-2193038D01*
X-12829758Y-2198582D01*
X-12827691Y-2204357D01*
X-12826201Y-2210307D01*
X-12825301Y-2216374D01*
X-12825000Y-2222500D01*
X-12825000Y-2922500D01*
X-12825301Y-2928626D01*
X-12826201Y-2934693D01*
X-12827691Y-2940643D01*
X-12829758Y-2946418D01*
X-12832380Y-2951962D01*
X-12835533Y-2957223D01*
X-12839187Y-2962150D01*
X-12843306Y-2966694D01*
X-12847850Y-2970813D01*
X-12852777Y-2974467D01*
X-12858038Y-2977620D01*
X-12863582Y-2980242D01*
X-12869357Y-2982309D01*
X-12875307Y-2983799D01*
X-12881374Y-2984699D01*
X-12887500Y-2985000D01*
X-13012500Y-2985000D01*
X-13018626Y-2984699D01*
X-13024693Y-2983799D01*
X-13030643Y-2982309D01*
X-13036418Y-2980242D01*
X-13041962Y-2977620D01*
X-13047223Y-2974467D01*
X-13052150Y-2970813D01*
X-13056694Y-2966694D01*
X-13060813Y-2962150D01*
X-13064467Y-2957223D01*
X-13067620Y-2951962D01*
X-13070242Y-2946418D01*
X-13072309Y-2940643D01*
X-13073799Y-2934693D01*
X-13074699Y-2928626D01*
X-13075000Y-2922500D01*
X-13075000Y-2222500D01*
X-13074699Y-2216374D01*
X-13073799Y-2210307D01*
X-13072309Y-2204357D01*
X-13070242Y-2198582D01*
X-13067620Y-2193038D01*
X-13064467Y-2187777D01*
X-13060813Y-2182850D01*
X-13056694Y-2178306D01*
X-13052150Y-2174187D01*
X-13047223Y-2170533D01*
X-13041962Y-2167380D01*
X-13036418Y-2164758D01*
X-13030643Y-2162691D01*
X-13024693Y-2161201D01*
X-13018626Y-2160301D01*
X-13012500Y-2160000D01*
X-12887500Y-2160000D01*
X-12881374Y-2160301D01*
G37*
G36*
X-13381374Y-2160301D02*
G01*
X-13375307Y-2161201D01*
X-13369357Y-2162691D01*
X-13363582Y-2164758D01*
X-13358038Y-2167380D01*
X-13352777Y-2170533D01*
X-13347850Y-2174187D01*
X-13343306Y-2178306D01*
X-13339187Y-2182850D01*
X-13335533Y-2187777D01*
X-13332380Y-2193038D01*
X-13329758Y-2198582D01*
X-13327691Y-2204357D01*
X-13326201Y-2210307D01*
X-13325301Y-2216374D01*
X-13325000Y-2222500D01*
X-13325000Y-2922500D01*
X-13325301Y-2928626D01*
X-13326201Y-2934693D01*
X-13327691Y-2940643D01*
X-13329758Y-2946418D01*
X-13332380Y-2951962D01*
X-13335533Y-2957223D01*
X-13339187Y-2962150D01*
X-13343306Y-2966694D01*
X-13347850Y-2970813D01*
X-13352777Y-2974467D01*
X-13358038Y-2977620D01*
X-13363582Y-2980242D01*
X-13369357Y-2982309D01*
X-13375307Y-2983799D01*
X-13381374Y-2984699D01*
X-13387500Y-2985000D01*
X-13512500Y-2985000D01*
X-13518626Y-2984699D01*
X-13524693Y-2983799D01*
X-13530643Y-2982309D01*
X-13536418Y-2980242D01*
X-13541962Y-2977620D01*
X-13547223Y-2974467D01*
X-13552150Y-2970813D01*
X-13556694Y-2966694D01*
X-13560813Y-2962150D01*
X-13564467Y-2957223D01*
X-13567620Y-2951962D01*
X-13570242Y-2946418D01*
X-13572309Y-2940643D01*
X-13573799Y-2934693D01*
X-13574699Y-2928626D01*
X-13575000Y-2922500D01*
X-13575000Y-2222500D01*
X-13574699Y-2216374D01*
X-13573799Y-2210307D01*
X-13572309Y-2204357D01*
X-13570242Y-2198582D01*
X-13567620Y-2193038D01*
X-13564467Y-2187777D01*
X-13560813Y-2182850D01*
X-13556694Y-2178306D01*
X-13552150Y-2174187D01*
X-13547223Y-2170533D01*
X-13541962Y-2167380D01*
X-13536418Y-2164758D01*
X-13530643Y-2162691D01*
X-13524693Y-2161201D01*
X-13518626Y-2160301D01*
X-13512500Y-2160000D01*
X-13387500Y-2160000D01*
X-13381374Y-2160301D01*
G37*
G36*
X-13881374Y-2160301D02*
G01*
X-13875307Y-2161201D01*
X-13869357Y-2162691D01*
X-13863582Y-2164758D01*
X-13858038Y-2167380D01*
X-13852777Y-2170533D01*
X-13847850Y-2174187D01*
X-13843306Y-2178306D01*
X-13839187Y-2182850D01*
X-13835533Y-2187777D01*
X-13832380Y-2193038D01*
X-13829758Y-2198582D01*
X-13827691Y-2204357D01*
X-13826201Y-2210307D01*
X-13825301Y-2216374D01*
X-13825000Y-2222500D01*
X-13825000Y-2922500D01*
X-13825301Y-2928626D01*
X-13826201Y-2934693D01*
X-13827691Y-2940643D01*
X-13829758Y-2946418D01*
X-13832380Y-2951962D01*
X-13835533Y-2957223D01*
X-13839187Y-2962150D01*
X-13843306Y-2966694D01*
X-13847850Y-2970813D01*
X-13852777Y-2974467D01*
X-13858038Y-2977620D01*
X-13863582Y-2980242D01*
X-13869357Y-2982309D01*
X-13875307Y-2983799D01*
X-13881374Y-2984699D01*
X-13887500Y-2985000D01*
X-14012500Y-2985000D01*
X-14018626Y-2984699D01*
X-14024693Y-2983799D01*
X-14030643Y-2982309D01*
X-14036418Y-2980242D01*
X-14041962Y-2977620D01*
X-14047223Y-2974467D01*
X-14052150Y-2970813D01*
X-14056694Y-2966694D01*
X-14060813Y-2962150D01*
X-14064467Y-2957223D01*
X-14067620Y-2951962D01*
X-14070242Y-2946418D01*
X-14072309Y-2940643D01*
X-14073799Y-2934693D01*
X-14074699Y-2928626D01*
X-14075000Y-2922500D01*
X-14075000Y-2222500D01*
X-14074699Y-2216374D01*
X-14073799Y-2210307D01*
X-14072309Y-2204357D01*
X-14070242Y-2198582D01*
X-14067620Y-2193038D01*
X-14064467Y-2187777D01*
X-14060813Y-2182850D01*
X-14056694Y-2178306D01*
X-14052150Y-2174187D01*
X-14047223Y-2170533D01*
X-14041962Y-2167380D01*
X-14036418Y-2164758D01*
X-14030643Y-2162691D01*
X-14024693Y-2161201D01*
X-14018626Y-2160301D01*
X-14012500Y-2160000D01*
X-13887500Y-2160000D01*
X-13881374Y-2160301D01*
G37*
G36*
X-14281374Y-1760301D02*
G01*
X-14275307Y-1761201D01*
X-14269357Y-1762691D01*
X-14263582Y-1764758D01*
X-14258038Y-1767380D01*
X-14252777Y-1770533D01*
X-14247850Y-1774187D01*
X-14243306Y-1778306D01*
X-14239187Y-1782850D01*
X-14235533Y-1787777D01*
X-14232380Y-1793038D01*
X-14229758Y-1798582D01*
X-14227691Y-1804357D01*
X-14226201Y-1810307D01*
X-14225301Y-1816374D01*
X-14225000Y-1822500D01*
X-14225000Y-1947500D01*
X-14225301Y-1953626D01*
X-14226201Y-1959693D01*
X-14227691Y-1965643D01*
X-14229758Y-1971418D01*
X-14232380Y-1976962D01*
X-14235533Y-1982223D01*
X-14239187Y-1987150D01*
X-14243306Y-1991694D01*
X-14247850Y-1995813D01*
X-14252777Y-1999467D01*
X-14258038Y-2002620D01*
X-14263582Y-2005242D01*
X-14269357Y-2007309D01*
X-14275307Y-2008799D01*
X-14281374Y-2009699D01*
X-14287500Y-2010000D01*
X-14987500Y-2010000D01*
X-14993626Y-2009699D01*
X-14999693Y-2008799D01*
X-15005643Y-2007309D01*
X-15011418Y-2005242D01*
X-15016962Y-2002620D01*
X-15022223Y-1999467D01*
X-15027150Y-1995813D01*
X-15031694Y-1991694D01*
X-15035813Y-1987150D01*
X-15039467Y-1982223D01*
X-15042620Y-1976962D01*
X-15045242Y-1971418D01*
X-15047309Y-1965643D01*
X-15048799Y-1959693D01*
X-15049699Y-1953626D01*
X-15050000Y-1947500D01*
X-15050000Y-1822500D01*
X-15049699Y-1816374D01*
X-15048799Y-1810307D01*
X-15047309Y-1804357D01*
X-15045242Y-1798582D01*
X-15042620Y-1793038D01*
X-15039467Y-1787777D01*
X-15035813Y-1782850D01*
X-15031694Y-1778306D01*
X-15027150Y-1774187D01*
X-15022223Y-1770533D01*
X-15016962Y-1767380D01*
X-15011418Y-1764758D01*
X-15005643Y-1762691D01*
X-14999693Y-1761201D01*
X-14993626Y-1760301D01*
X-14987500Y-1760000D01*
X-14287500Y-1760000D01*
X-14281374Y-1760301D01*
G37*
G36*
X-14281374Y-1260301D02*
G01*
X-14275307Y-1261201D01*
X-14269357Y-1262691D01*
X-14263582Y-1264758D01*
X-14258038Y-1267380D01*
X-14252777Y-1270533D01*
X-14247850Y-1274187D01*
X-14243306Y-1278306D01*
X-14239187Y-1282850D01*
X-14235533Y-1287777D01*
X-14232380Y-1293038D01*
X-14229758Y-1298582D01*
X-14227691Y-1304357D01*
X-14226201Y-1310307D01*
X-14225301Y-1316374D01*
X-14225000Y-1322500D01*
X-14225000Y-1447500D01*
X-14225301Y-1453626D01*
X-14226201Y-1459693D01*
X-14227691Y-1465643D01*
X-14229758Y-1471418D01*
X-14232380Y-1476962D01*
X-14235533Y-1482223D01*
X-14239187Y-1487150D01*
X-14243306Y-1491694D01*
X-14247850Y-1495813D01*
X-14252777Y-1499467D01*
X-14258038Y-1502620D01*
X-14263582Y-1505242D01*
X-14269357Y-1507309D01*
X-14275307Y-1508799D01*
X-14281374Y-1509699D01*
X-14287500Y-1510000D01*
X-14987500Y-1510000D01*
X-14993626Y-1509699D01*
X-14999693Y-1508799D01*
X-15005643Y-1507309D01*
X-15011418Y-1505242D01*
X-15016962Y-1502620D01*
X-15022223Y-1499467D01*
X-15027150Y-1495813D01*
X-15031694Y-1491694D01*
X-15035813Y-1487150D01*
X-15039467Y-1482223D01*
X-15042620Y-1476962D01*
X-15045242Y-1471418D01*
X-15047309Y-1465643D01*
X-15048799Y-1459693D01*
X-15049699Y-1453626D01*
X-15050000Y-1447500D01*
X-15050000Y-1322500D01*
X-15049699Y-1316374D01*
X-15048799Y-1310307D01*
X-15047309Y-1304357D01*
X-15045242Y-1298582D01*
X-15042620Y-1293038D01*
X-15039467Y-1287777D01*
X-15035813Y-1282850D01*
X-15031694Y-1278306D01*
X-15027150Y-1274187D01*
X-15022223Y-1270533D01*
X-15016962Y-1267380D01*
X-15011418Y-1264758D01*
X-15005643Y-1262691D01*
X-14999693Y-1261201D01*
X-14993626Y-1260301D01*
X-14987500Y-1260000D01*
X-14287500Y-1260000D01*
X-14281374Y-1260301D01*
G37*
G36*
X-14281374Y-760301D02*
G01*
X-14275307Y-761201D01*
X-14269357Y-762691D01*
X-14263582Y-764758D01*
X-14258038Y-767380D01*
X-14252777Y-770533D01*
X-14247850Y-774187D01*
X-14243306Y-778306D01*
X-14239187Y-782850D01*
X-14235533Y-787777D01*
X-14232380Y-793038D01*
X-14229758Y-798582D01*
X-14227691Y-804357D01*
X-14226201Y-810307D01*
X-14225301Y-816374D01*
X-14225000Y-822500D01*
X-14225000Y-947500D01*
X-14225301Y-953626D01*
X-14226201Y-959693D01*
X-14227691Y-965643D01*
X-14229758Y-971418D01*
X-14232380Y-976962D01*
X-14235533Y-982223D01*
X-14239187Y-987150D01*
X-14243306Y-991694D01*
X-14247850Y-995813D01*
X-14252777Y-999467D01*
X-14258038Y-1002620D01*
X-14263582Y-1005242D01*
X-14269357Y-1007309D01*
X-14275307Y-1008799D01*
X-14281374Y-1009699D01*
X-14287500Y-1010000D01*
X-14987500Y-1010000D01*
X-14993626Y-1009699D01*
X-14999693Y-1008799D01*
X-15005643Y-1007309D01*
X-15011418Y-1005242D01*
X-15016962Y-1002620D01*
X-15022223Y-999467D01*
X-15027150Y-995813D01*
X-15031694Y-991694D01*
X-15035813Y-987150D01*
X-15039467Y-982223D01*
X-15042620Y-976962D01*
X-15045242Y-971418D01*
X-15047309Y-965643D01*
X-15048799Y-959693D01*
X-15049699Y-953626D01*
X-15050000Y-947500D01*
X-15050000Y-822500D01*
X-15049699Y-816374D01*
X-15048799Y-810307D01*
X-15047309Y-804357D01*
X-15045242Y-798582D01*
X-15042620Y-793038D01*
X-15039467Y-787777D01*
X-15035813Y-782850D01*
X-15031694Y-778306D01*
X-15027150Y-774187D01*
X-15022223Y-770533D01*
X-15016962Y-767380D01*
X-15011418Y-764758D01*
X-15005643Y-762691D01*
X-14999693Y-761201D01*
X-14993626Y-760301D01*
X-14987500Y-760000D01*
X-14287500Y-760000D01*
X-14281374Y-760301D01*
G37*
G36*
X-14281374Y-260301D02*
G01*
X-14275307Y-261201D01*
X-14269357Y-262691D01*
X-14263582Y-264758D01*
X-14258038Y-267380D01*
X-14252777Y-270533D01*
X-14247850Y-274187D01*
X-14243306Y-278306D01*
X-14239187Y-282850D01*
X-14235533Y-287777D01*
X-14232380Y-293038D01*
X-14229758Y-298582D01*
X-14227691Y-304357D01*
X-14226201Y-310307D01*
X-14225301Y-316374D01*
X-14225000Y-322500D01*
X-14225000Y-447500D01*
X-14225301Y-453626D01*
X-14226201Y-459693D01*
X-14227691Y-465643D01*
X-14229758Y-471418D01*
X-14232380Y-476962D01*
X-14235533Y-482223D01*
X-14239187Y-487150D01*
X-14243306Y-491694D01*
X-14247850Y-495813D01*
X-14252777Y-499467D01*
X-14258038Y-502620D01*
X-14263582Y-505242D01*
X-14269357Y-507309D01*
X-14275307Y-508799D01*
X-14281374Y-509699D01*
X-14287500Y-510000D01*
X-14987500Y-510000D01*
X-14993626Y-509699D01*
X-14999693Y-508799D01*
X-15005643Y-507309D01*
X-15011418Y-505242D01*
X-15016962Y-502620D01*
X-15022223Y-499467D01*
X-15027150Y-495813D01*
X-15031694Y-491694D01*
X-15035813Y-487150D01*
X-15039467Y-482223D01*
X-15042620Y-476962D01*
X-15045242Y-471418D01*
X-15047309Y-465643D01*
X-15048799Y-459693D01*
X-15049699Y-453626D01*
X-15050000Y-447500D01*
X-15050000Y-322500D01*
X-15049699Y-316374D01*
X-15048799Y-310307D01*
X-15047309Y-304357D01*
X-15045242Y-298582D01*
X-15042620Y-293038D01*
X-15039467Y-287777D01*
X-15035813Y-282850D01*
X-15031694Y-278306D01*
X-15027150Y-274187D01*
X-15022223Y-270533D01*
X-15016962Y-267380D01*
X-15011418Y-264758D01*
X-15005643Y-262691D01*
X-14999693Y-261201D01*
X-14993626Y-260301D01*
X-14987500Y-260000D01*
X-14287500Y-260000D01*
X-14281374Y-260301D01*
G37*
G36*
X-14281374Y239699D02*
G01*
X-14275307Y238799D01*
X-14269357Y237309D01*
X-14263582Y235242D01*
X-14258038Y232620D01*
X-14252777Y229467D01*
X-14247850Y225813D01*
X-14243306Y221694D01*
X-14239187Y217150D01*
X-14235533Y212223D01*
X-14232380Y206962D01*
X-14229758Y201418D01*
X-14227691Y195643D01*
X-14226201Y189693D01*
X-14225301Y183626D01*
X-14225000Y177500D01*
X-14225000Y52500D01*
X-14225301Y46374D01*
X-14226201Y40307D01*
X-14227691Y34357D01*
X-14229758Y28582D01*
X-14232380Y23038D01*
X-14235533Y17777D01*
X-14239187Y12850D01*
X-14243306Y8306D01*
X-14247850Y4187D01*
X-14252777Y533D01*
X-14258038Y-2620D01*
X-14263582Y-5242D01*
X-14269357Y-7309D01*
X-14275307Y-8799D01*
X-14281374Y-9699D01*
X-14287500Y-10000D01*
X-14987500Y-10000D01*
X-14993626Y-9699D01*
X-14999693Y-8799D01*
X-15005643Y-7309D01*
X-15011418Y-5242D01*
X-15016962Y-2620D01*
X-15022223Y533D01*
X-15027150Y4187D01*
X-15031694Y8306D01*
X-15035813Y12850D01*
X-15039467Y17777D01*
X-15042620Y23038D01*
X-15045242Y28582D01*
X-15047309Y34357D01*
X-15048799Y40307D01*
X-15049699Y46374D01*
X-15050000Y52500D01*
X-15050000Y177500D01*
X-15049699Y183626D01*
X-15048799Y189693D01*
X-15047309Y195643D01*
X-15045242Y201418D01*
X-15042620Y206962D01*
X-15039467Y212223D01*
X-15035813Y217150D01*
X-15031694Y221694D01*
X-15027150Y225813D01*
X-15022223Y229467D01*
X-15016962Y232620D01*
X-15011418Y235242D01*
X-15005643Y237309D01*
X-14999693Y238799D01*
X-14993626Y239699D01*
X-14987500Y240000D01*
X-14287500Y240000D01*
X-14281374Y239699D01*
G37*
G36*
X-14281374Y739699D02*
G01*
X-14275307Y738799D01*
X-14269357Y737309D01*
X-14263582Y735242D01*
X-14258038Y732620D01*
X-14252777Y729467D01*
X-14247850Y725813D01*
X-14243306Y721694D01*
X-14239187Y717150D01*
X-14235533Y712223D01*
X-14232380Y706962D01*
X-14229758Y701418D01*
X-14227691Y695643D01*
X-14226201Y689693D01*
X-14225301Y683626D01*
X-14225000Y677500D01*
X-14225000Y552500D01*
X-14225301Y546374D01*
X-14226201Y540307D01*
X-14227691Y534357D01*
X-14229758Y528582D01*
X-14232380Y523038D01*
X-14235533Y517777D01*
X-14239187Y512850D01*
X-14243306Y508306D01*
X-14247850Y504187D01*
X-14252777Y500533D01*
X-14258038Y497380D01*
X-14263582Y494758D01*
X-14269357Y492691D01*
X-14275307Y491201D01*
X-14281374Y490301D01*
X-14287500Y490000D01*
X-14987500Y490000D01*
X-14993626Y490301D01*
X-14999693Y491201D01*
X-15005643Y492691D01*
X-15011418Y494758D01*
X-15016962Y497380D01*
X-15022223Y500533D01*
X-15027150Y504187D01*
X-15031694Y508306D01*
X-15035813Y512850D01*
X-15039467Y517777D01*
X-15042620Y523038D01*
X-15045242Y528582D01*
X-15047309Y534357D01*
X-15048799Y540307D01*
X-15049699Y546374D01*
X-15050000Y552500D01*
X-15050000Y677500D01*
X-15049699Y683626D01*
X-15048799Y689693D01*
X-15047309Y695643D01*
X-15045242Y701418D01*
X-15042620Y706962D01*
X-15039467Y712223D01*
X-15035813Y717150D01*
X-15031694Y721694D01*
X-15027150Y725813D01*
X-15022223Y729467D01*
X-15016962Y732620D01*
X-15011418Y735242D01*
X-15005643Y737309D01*
X-14999693Y738799D01*
X-14993626Y739699D01*
X-14987500Y740000D01*
X-14287500Y740000D01*
X-14281374Y739699D01*
G37*
G36*
X-11750495Y-761204D02*
G01*
X-11726227Y-764804D01*
X-11702428Y-770765D01*
X-11679329Y-779030D01*
X-11657150Y-789520D01*
X-11636107Y-802132D01*
X-11616401Y-816747D01*
X-11598223Y-833223D01*
X-11581747Y-851401D01*
X-11567132Y-871107D01*
X-11554520Y-892150D01*
X-11544030Y-914329D01*
X-11535765Y-937428D01*
X-11529804Y-961227D01*
X-11526204Y-985495D01*
X-11525000Y-1009999D01*
X-11525000Y-1560001D01*
X-11526204Y-1584505D01*
X-11529804Y-1608773D01*
X-11535765Y-1632572D01*
X-11544030Y-1655671D01*
X-11554520Y-1677850D01*
X-11567132Y-1698893D01*
X-11581747Y-1718599D01*
X-11598223Y-1736777D01*
X-11616401Y-1753253D01*
X-11636107Y-1767868D01*
X-11657150Y-1780480D01*
X-11679329Y-1790970D01*
X-11702428Y-1799235D01*
X-11726227Y-1805196D01*
X-11750495Y-1808796D01*
X-11774999Y-1810000D01*
X-12325001Y-1810000D01*
X-12349505Y-1808796D01*
X-12373773Y-1805196D01*
X-12397572Y-1799235D01*
X-12420671Y-1790970D01*
X-12442850Y-1780480D01*
X-12463893Y-1767868D01*
X-12483599Y-1753253D01*
X-12501777Y-1736777D01*
X-12518253Y-1718599D01*
X-12532868Y-1698893D01*
X-12545480Y-1677850D01*
X-12555970Y-1655671D01*
X-12564235Y-1632572D01*
X-12570196Y-1608773D01*
X-12573796Y-1584505D01*
X-12575000Y-1560001D01*
X-12575000Y-1009999D01*
X-12573796Y-985495D01*
X-12570196Y-961227D01*
X-12564235Y-937428D01*
X-12555970Y-914329D01*
X-12545480Y-892150D01*
X-12532868Y-871107D01*
X-12518253Y-851401D01*
X-12501777Y-833223D01*
X-12483599Y-816747D01*
X-12463893Y-802132D01*
X-12442850Y-789520D01*
X-12420671Y-779030D01*
X-12397572Y-770765D01*
X-12373773Y-764804D01*
X-12349505Y-761204D01*
X-12325001Y-760000D01*
X-11774999Y-760000D01*
X-11750495Y-761204D01*
G37*
G36*
X-11750495Y538796D02*
G01*
X-11726227Y535196D01*
X-11702428Y529235D01*
X-11679329Y520970D01*
X-11657150Y510480D01*
X-11636107Y497868D01*
X-11616401Y483253D01*
X-11598223Y466777D01*
X-11581747Y448599D01*
X-11567132Y428893D01*
X-11554520Y407850D01*
X-11544030Y385671D01*
X-11535765Y362572D01*
X-11529804Y338773D01*
X-11526204Y314505D01*
X-11525000Y290001D01*
X-11525000Y-260001D01*
X-11526204Y-284505D01*
X-11529804Y-308773D01*
X-11535765Y-332572D01*
X-11544030Y-355671D01*
X-11554520Y-377850D01*
X-11567132Y-398893D01*
X-11581747Y-418599D01*
X-11598223Y-436777D01*
X-11616401Y-453253D01*
X-11636107Y-467868D01*
X-11657150Y-480480D01*
X-11679329Y-490970D01*
X-11702428Y-499235D01*
X-11726227Y-505196D01*
X-11750495Y-508796D01*
X-11774999Y-510000D01*
X-12325001Y-510000D01*
X-12349505Y-508796D01*
X-12373773Y-505196D01*
X-12397572Y-499235D01*
X-12420671Y-490970D01*
X-12442850Y-480480D01*
X-12463893Y-467868D01*
X-12483599Y-453253D01*
X-12501777Y-436777D01*
X-12518253Y-418599D01*
X-12532868Y-398893D01*
X-12545480Y-377850D01*
X-12555970Y-355671D01*
X-12564235Y-332572D01*
X-12570196Y-308773D01*
X-12573796Y-284505D01*
X-12575000Y-260001D01*
X-12575000Y290001D01*
X-12573796Y314505D01*
X-12570196Y338773D01*
X-12564235Y362572D01*
X-12555970Y385671D01*
X-12545480Y407850D01*
X-12532868Y428893D01*
X-12518253Y448599D01*
X-12501777Y466777D01*
X-12483599Y483253D01*
X-12463893Y497868D01*
X-12442850Y510480D01*
X-12420671Y520970D01*
X-12397572Y529235D01*
X-12373773Y535196D01*
X-12349505Y538796D01*
X-12325001Y540000D01*
X-11774999Y540000D01*
X-11750495Y538796D01*
G37*
G36*
X-13050495Y-761204D02*
G01*
X-13026227Y-764804D01*
X-13002428Y-770765D01*
X-12979329Y-779030D01*
X-12957150Y-789520D01*
X-12936107Y-802132D01*
X-12916401Y-816747D01*
X-12898223Y-833223D01*
X-12881747Y-851401D01*
X-12867132Y-871107D01*
X-12854520Y-892150D01*
X-12844030Y-914329D01*
X-12835765Y-937428D01*
X-12829804Y-961227D01*
X-12826204Y-985495D01*
X-12825000Y-1009999D01*
X-12825000Y-1560001D01*
X-12826204Y-1584505D01*
X-12829804Y-1608773D01*
X-12835765Y-1632572D01*
X-12844030Y-1655671D01*
X-12854520Y-1677850D01*
X-12867132Y-1698893D01*
X-12881747Y-1718599D01*
X-12898223Y-1736777D01*
X-12916401Y-1753253D01*
X-12936107Y-1767868D01*
X-12957150Y-1780480D01*
X-12979329Y-1790970D01*
X-13002428Y-1799235D01*
X-13026227Y-1805196D01*
X-13050495Y-1808796D01*
X-13074999Y-1810000D01*
X-13625001Y-1810000D01*
X-13649505Y-1808796D01*
X-13673773Y-1805196D01*
X-13697572Y-1799235D01*
X-13720671Y-1790970D01*
X-13742850Y-1780480D01*
X-13763893Y-1767868D01*
X-13783599Y-1753253D01*
X-13801777Y-1736777D01*
X-13818253Y-1718599D01*
X-13832868Y-1698893D01*
X-13845480Y-1677850D01*
X-13855970Y-1655671D01*
X-13864235Y-1632572D01*
X-13870196Y-1608773D01*
X-13873796Y-1584505D01*
X-13875000Y-1560001D01*
X-13875000Y-1009999D01*
X-13873796Y-985495D01*
X-13870196Y-961227D01*
X-13864235Y-937428D01*
X-13855970Y-914329D01*
X-13845480Y-892150D01*
X-13832868Y-871107D01*
X-13818253Y-851401D01*
X-13801777Y-833223D01*
X-13783599Y-816747D01*
X-13763893Y-802132D01*
X-13742850Y-789520D01*
X-13720671Y-779030D01*
X-13697572Y-770765D01*
X-13673773Y-764804D01*
X-13649505Y-761204D01*
X-13625001Y-760000D01*
X-13074999Y-760000D01*
X-13050495Y-761204D01*
G37*
G36*
X-13050495Y538796D02*
G01*
X-13026227Y535196D01*
X-13002428Y529235D01*
X-12979329Y520970D01*
X-12957150Y510480D01*
X-12936107Y497868D01*
X-12916401Y483253D01*
X-12898223Y466777D01*
X-12881747Y448599D01*
X-12867132Y428893D01*
X-12854520Y407850D01*
X-12844030Y385671D01*
X-12835765Y362572D01*
X-12829804Y338773D01*
X-12826204Y314505D01*
X-12825000Y290001D01*
X-12825000Y-260001D01*
X-12826204Y-284505D01*
X-12829804Y-308773D01*
X-12835765Y-332572D01*
X-12844030Y-355671D01*
X-12854520Y-377850D01*
X-12867132Y-398893D01*
X-12881747Y-418599D01*
X-12898223Y-436777D01*
X-12916401Y-453253D01*
X-12936107Y-467868D01*
X-12957150Y-480480D01*
X-12979329Y-490970D01*
X-13002428Y-499235D01*
X-13026227Y-505196D01*
X-13050495Y-508796D01*
X-13074999Y-510000D01*
X-13625001Y-510000D01*
X-13649505Y-508796D01*
X-13673773Y-505196D01*
X-13697572Y-499235D01*
X-13720671Y-490970D01*
X-13742850Y-480480D01*
X-13763893Y-467868D01*
X-13783599Y-453253D01*
X-13801777Y-436777D01*
X-13818253Y-418599D01*
X-13832868Y-398893D01*
X-13845480Y-377850D01*
X-13855970Y-355671D01*
X-13864235Y-332572D01*
X-13870196Y-308773D01*
X-13873796Y-284505D01*
X-13875000Y-260001D01*
X-13875000Y290001D01*
X-13873796Y314505D01*
X-13870196Y338773D01*
X-13864235Y362572D01*
X-13855970Y385671D01*
X-13845480Y407850D01*
X-13832868Y428893D01*
X-13818253Y448599D01*
X-13801777Y466777D01*
X-13783599Y483253D01*
X-13763893Y497868D01*
X-13742850Y510480D01*
X-13720671Y520970D01*
X-13697572Y529235D01*
X-13673773Y535196D01*
X-13649505Y538796D01*
X-13625001Y540000D01*
X-13074999Y540000D01*
X-13050495Y538796D01*
G37*
D22*
X-18822000Y-6159500D03*
X-22072000Y-6159500D03*
X-18822000Y-8699500D03*
X-22072000Y-8699500D03*
D12*
G36*
X8492758Y-19060510D02*
G01*
X8507076Y-19062634D01*
X8521117Y-19066151D01*
X8534746Y-19071028D01*
X8547831Y-19077217D01*
X8560247Y-19084658D01*
X8571873Y-19093281D01*
X8582598Y-19103002D01*
X8592319Y-19113727D01*
X8600942Y-19125353D01*
X8608383Y-19137769D01*
X8614572Y-19150854D01*
X8619449Y-19164483D01*
X8622966Y-19178524D01*
X8625090Y-19192842D01*
X8625800Y-19207300D01*
X8625800Y-19502300D01*
X8625090Y-19516758D01*
X8622966Y-19531076D01*
X8619449Y-19545117D01*
X8614572Y-19558746D01*
X8608383Y-19571831D01*
X8600942Y-19584247D01*
X8592319Y-19595873D01*
X8582598Y-19606598D01*
X8571873Y-19616319D01*
X8560247Y-19624942D01*
X8547831Y-19632383D01*
X8534746Y-19638572D01*
X8521117Y-19643449D01*
X8507076Y-19646966D01*
X8492758Y-19649090D01*
X8478300Y-19649800D01*
X8133300Y-19649800D01*
X8118842Y-19649090D01*
X8104524Y-19646966D01*
X8090483Y-19643449D01*
X8076854Y-19638572D01*
X8063769Y-19632383D01*
X8051353Y-19624942D01*
X8039727Y-19616319D01*
X8029002Y-19606598D01*
X8019281Y-19595873D01*
X8010658Y-19584247D01*
X8003217Y-19571831D01*
X7997028Y-19558746D01*
X7992151Y-19545117D01*
X7988634Y-19531076D01*
X7986510Y-19516758D01*
X7985800Y-19502300D01*
X7985800Y-19207300D01*
X7986510Y-19192842D01*
X7988634Y-19178524D01*
X7992151Y-19164483D01*
X7997028Y-19150854D01*
X8003217Y-19137769D01*
X8010658Y-19125353D01*
X8019281Y-19113727D01*
X8029002Y-19103002D01*
X8039727Y-19093281D01*
X8051353Y-19084658D01*
X8063769Y-19077217D01*
X8076854Y-19071028D01*
X8090483Y-19066151D01*
X8104524Y-19062634D01*
X8118842Y-19060510D01*
X8133300Y-19059800D01*
X8478300Y-19059800D01*
X8492758Y-19060510D01*
G37*
G36*
X8492758Y-18090510D02*
G01*
X8507076Y-18092634D01*
X8521117Y-18096151D01*
X8534746Y-18101028D01*
X8547831Y-18107217D01*
X8560247Y-18114658D01*
X8571873Y-18123281D01*
X8582598Y-18133002D01*
X8592319Y-18143727D01*
X8600942Y-18155353D01*
X8608383Y-18167769D01*
X8614572Y-18180854D01*
X8619449Y-18194483D01*
X8622966Y-18208524D01*
X8625090Y-18222842D01*
X8625800Y-18237300D01*
X8625800Y-18532300D01*
X8625090Y-18546758D01*
X8622966Y-18561076D01*
X8619449Y-18575117D01*
X8614572Y-18588746D01*
X8608383Y-18601831D01*
X8600942Y-18614247D01*
X8592319Y-18625873D01*
X8582598Y-18636598D01*
X8571873Y-18646319D01*
X8560247Y-18654942D01*
X8547831Y-18662383D01*
X8534746Y-18668572D01*
X8521117Y-18673449D01*
X8507076Y-18676966D01*
X8492758Y-18679090D01*
X8478300Y-18679800D01*
X8133300Y-18679800D01*
X8118842Y-18679090D01*
X8104524Y-18676966D01*
X8090483Y-18673449D01*
X8076854Y-18668572D01*
X8063769Y-18662383D01*
X8051353Y-18654942D01*
X8039727Y-18646319D01*
X8029002Y-18636598D01*
X8019281Y-18625873D01*
X8010658Y-18614247D01*
X8003217Y-18601831D01*
X7997028Y-18588746D01*
X7992151Y-18575117D01*
X7988634Y-18561076D01*
X7986510Y-18546758D01*
X7985800Y-18532300D01*
X7985800Y-18237300D01*
X7986510Y-18222842D01*
X7988634Y-18208524D01*
X7992151Y-18194483D01*
X7997028Y-18180854D01*
X8003217Y-18167769D01*
X8010658Y-18155353D01*
X8019281Y-18143727D01*
X8029002Y-18133002D01*
X8039727Y-18123281D01*
X8051353Y-18114658D01*
X8063769Y-18107217D01*
X8076854Y-18101028D01*
X8090483Y-18096151D01*
X8104524Y-18092634D01*
X8118842Y-18090510D01*
X8133300Y-18089800D01*
X8478300Y-18089800D01*
X8492758Y-18090510D01*
G37*
G36*
X14842758Y-17938110D02*
G01*
X14857076Y-17940234D01*
X14871117Y-17943751D01*
X14884746Y-17948628D01*
X14897831Y-17954817D01*
X14910247Y-17962258D01*
X14921873Y-17970881D01*
X14932598Y-17980602D01*
X14942319Y-17991327D01*
X14950942Y-18002953D01*
X14958383Y-18015369D01*
X14964572Y-18028454D01*
X14969449Y-18042083D01*
X14972966Y-18056124D01*
X14975090Y-18070442D01*
X14975800Y-18084900D01*
X14975800Y-18379900D01*
X14975090Y-18394358D01*
X14972966Y-18408676D01*
X14969449Y-18422717D01*
X14964572Y-18436346D01*
X14958383Y-18449431D01*
X14950942Y-18461847D01*
X14942319Y-18473473D01*
X14932598Y-18484198D01*
X14921873Y-18493919D01*
X14910247Y-18502542D01*
X14897831Y-18509983D01*
X14884746Y-18516172D01*
X14871117Y-18521049D01*
X14857076Y-18524566D01*
X14842758Y-18526690D01*
X14828300Y-18527400D01*
X14483300Y-18527400D01*
X14468842Y-18526690D01*
X14454524Y-18524566D01*
X14440483Y-18521049D01*
X14426854Y-18516172D01*
X14413769Y-18509983D01*
X14401353Y-18502542D01*
X14389727Y-18493919D01*
X14379002Y-18484198D01*
X14369281Y-18473473D01*
X14360658Y-18461847D01*
X14353217Y-18449431D01*
X14347028Y-18436346D01*
X14342151Y-18422717D01*
X14338634Y-18408676D01*
X14336510Y-18394358D01*
X14335800Y-18379900D01*
X14335800Y-18084900D01*
X14336510Y-18070442D01*
X14338634Y-18056124D01*
X14342151Y-18042083D01*
X14347028Y-18028454D01*
X14353217Y-18015369D01*
X14360658Y-18002953D01*
X14369281Y-17991327D01*
X14379002Y-17980602D01*
X14389727Y-17970881D01*
X14401353Y-17962258D01*
X14413769Y-17954817D01*
X14426854Y-17948628D01*
X14440483Y-17943751D01*
X14454524Y-17940234D01*
X14468842Y-17938110D01*
X14483300Y-17937400D01*
X14828300Y-17937400D01*
X14842758Y-17938110D01*
G37*
G36*
X14842758Y-18908110D02*
G01*
X14857076Y-18910234D01*
X14871117Y-18913751D01*
X14884746Y-18918628D01*
X14897831Y-18924817D01*
X14910247Y-18932258D01*
X14921873Y-18940881D01*
X14932598Y-18950602D01*
X14942319Y-18961327D01*
X14950942Y-18972953D01*
X14958383Y-18985369D01*
X14964572Y-18998454D01*
X14969449Y-19012083D01*
X14972966Y-19026124D01*
X14975090Y-19040442D01*
X14975800Y-19054900D01*
X14975800Y-19349900D01*
X14975090Y-19364358D01*
X14972966Y-19378676D01*
X14969449Y-19392717D01*
X14964572Y-19406346D01*
X14958383Y-19419431D01*
X14950942Y-19431847D01*
X14942319Y-19443473D01*
X14932598Y-19454198D01*
X14921873Y-19463919D01*
X14910247Y-19472542D01*
X14897831Y-19479983D01*
X14884746Y-19486172D01*
X14871117Y-19491049D01*
X14857076Y-19494566D01*
X14842758Y-19496690D01*
X14828300Y-19497400D01*
X14483300Y-19497400D01*
X14468842Y-19496690D01*
X14454524Y-19494566D01*
X14440483Y-19491049D01*
X14426854Y-19486172D01*
X14413769Y-19479983D01*
X14401353Y-19472542D01*
X14389727Y-19463919D01*
X14379002Y-19454198D01*
X14369281Y-19443473D01*
X14360658Y-19431847D01*
X14353217Y-19419431D01*
X14347028Y-19406346D01*
X14342151Y-19392717D01*
X14338634Y-19378676D01*
X14336510Y-19364358D01*
X14335800Y-19349900D01*
X14335800Y-19054900D01*
X14336510Y-19040442D01*
X14338634Y-19026124D01*
X14342151Y-19012083D01*
X14347028Y-18998454D01*
X14353217Y-18985369D01*
X14360658Y-18972953D01*
X14369281Y-18961327D01*
X14379002Y-18950602D01*
X14389727Y-18940881D01*
X14401353Y-18932258D01*
X14413769Y-18924817D01*
X14426854Y-18918628D01*
X14440483Y-18913751D01*
X14454524Y-18910234D01*
X14468842Y-18908110D01*
X14483300Y-18907400D01*
X14828300Y-18907400D01*
X14842758Y-18908110D01*
G37*
G36*
X7552958Y-19065310D02*
G01*
X7567276Y-19067434D01*
X7581317Y-19070951D01*
X7594946Y-19075828D01*
X7608031Y-19082017D01*
X7620447Y-19089458D01*
X7632073Y-19098081D01*
X7642798Y-19107802D01*
X7652519Y-19118527D01*
X7661142Y-19130153D01*
X7668583Y-19142569D01*
X7674772Y-19155654D01*
X7679649Y-19169283D01*
X7683166Y-19183324D01*
X7685290Y-19197642D01*
X7686000Y-19212100D01*
X7686000Y-19507100D01*
X7685290Y-19521558D01*
X7683166Y-19535876D01*
X7679649Y-19549917D01*
X7674772Y-19563546D01*
X7668583Y-19576631D01*
X7661142Y-19589047D01*
X7652519Y-19600673D01*
X7642798Y-19611398D01*
X7632073Y-19621119D01*
X7620447Y-19629742D01*
X7608031Y-19637183D01*
X7594946Y-19643372D01*
X7581317Y-19648249D01*
X7567276Y-19651766D01*
X7552958Y-19653890D01*
X7538500Y-19654600D01*
X7193500Y-19654600D01*
X7179042Y-19653890D01*
X7164724Y-19651766D01*
X7150683Y-19648249D01*
X7137054Y-19643372D01*
X7123969Y-19637183D01*
X7111553Y-19629742D01*
X7099927Y-19621119D01*
X7089202Y-19611398D01*
X7079481Y-19600673D01*
X7070858Y-19589047D01*
X7063417Y-19576631D01*
X7057228Y-19563546D01*
X7052351Y-19549917D01*
X7048834Y-19535876D01*
X7046710Y-19521558D01*
X7046000Y-19507100D01*
X7046000Y-19212100D01*
X7046710Y-19197642D01*
X7048834Y-19183324D01*
X7052351Y-19169283D01*
X7057228Y-19155654D01*
X7063417Y-19142569D01*
X7070858Y-19130153D01*
X7079481Y-19118527D01*
X7089202Y-19107802D01*
X7099927Y-19098081D01*
X7111553Y-19089458D01*
X7123969Y-19082017D01*
X7137054Y-19075828D01*
X7150683Y-19070951D01*
X7164724Y-19067434D01*
X7179042Y-19065310D01*
X7193500Y-19064600D01*
X7538500Y-19064600D01*
X7552958Y-19065310D01*
G37*
G36*
X7552958Y-18095310D02*
G01*
X7567276Y-18097434D01*
X7581317Y-18100951D01*
X7594946Y-18105828D01*
X7608031Y-18112017D01*
X7620447Y-18119458D01*
X7632073Y-18128081D01*
X7642798Y-18137802D01*
X7652519Y-18148527D01*
X7661142Y-18160153D01*
X7668583Y-18172569D01*
X7674772Y-18185654D01*
X7679649Y-18199283D01*
X7683166Y-18213324D01*
X7685290Y-18227642D01*
X7686000Y-18242100D01*
X7686000Y-18537100D01*
X7685290Y-18551558D01*
X7683166Y-18565876D01*
X7679649Y-18579917D01*
X7674772Y-18593546D01*
X7668583Y-18606631D01*
X7661142Y-18619047D01*
X7652519Y-18630673D01*
X7642798Y-18641398D01*
X7632073Y-18651119D01*
X7620447Y-18659742D01*
X7608031Y-18667183D01*
X7594946Y-18673372D01*
X7581317Y-18678249D01*
X7567276Y-18681766D01*
X7552958Y-18683890D01*
X7538500Y-18684600D01*
X7193500Y-18684600D01*
X7179042Y-18683890D01*
X7164724Y-18681766D01*
X7150683Y-18678249D01*
X7137054Y-18673372D01*
X7123969Y-18667183D01*
X7111553Y-18659742D01*
X7099927Y-18651119D01*
X7089202Y-18641398D01*
X7079481Y-18630673D01*
X7070858Y-18619047D01*
X7063417Y-18606631D01*
X7057228Y-18593546D01*
X7052351Y-18579917D01*
X7048834Y-18565876D01*
X7046710Y-18551558D01*
X7046000Y-18537100D01*
X7046000Y-18242100D01*
X7046710Y-18227642D01*
X7048834Y-18213324D01*
X7052351Y-18199283D01*
X7057228Y-18185654D01*
X7063417Y-18172569D01*
X7070858Y-18160153D01*
X7079481Y-18148527D01*
X7089202Y-18137802D01*
X7099927Y-18128081D01*
X7111553Y-18119458D01*
X7123969Y-18112017D01*
X7137054Y-18105828D01*
X7150683Y-18100951D01*
X7164724Y-18097434D01*
X7179042Y-18095310D01*
X7193500Y-18094600D01*
X7538500Y-18094600D01*
X7552958Y-18095310D01*
G37*
G36*
X13852158Y-18296110D02*
G01*
X13866476Y-18298234D01*
X13880517Y-18301751D01*
X13894146Y-18306628D01*
X13907231Y-18312817D01*
X13919647Y-18320258D01*
X13931273Y-18328881D01*
X13941998Y-18338602D01*
X13951719Y-18349327D01*
X13960342Y-18360953D01*
X13967783Y-18373369D01*
X13973972Y-18386454D01*
X13978849Y-18400083D01*
X13982366Y-18414124D01*
X13984490Y-18428442D01*
X13985200Y-18442900D01*
X13985200Y-18737900D01*
X13984490Y-18752358D01*
X13982366Y-18766676D01*
X13978849Y-18780717D01*
X13973972Y-18794346D01*
X13967783Y-18807431D01*
X13960342Y-18819847D01*
X13951719Y-18831473D01*
X13941998Y-18842198D01*
X13931273Y-18851919D01*
X13919647Y-18860542D01*
X13907231Y-18867983D01*
X13894146Y-18874172D01*
X13880517Y-18879049D01*
X13866476Y-18882566D01*
X13852158Y-18884690D01*
X13837700Y-18885400D01*
X13492700Y-18885400D01*
X13478242Y-18884690D01*
X13463924Y-18882566D01*
X13449883Y-18879049D01*
X13436254Y-18874172D01*
X13423169Y-18867983D01*
X13410753Y-18860542D01*
X13399127Y-18851919D01*
X13388402Y-18842198D01*
X13378681Y-18831473D01*
X13370058Y-18819847D01*
X13362617Y-18807431D01*
X13356428Y-18794346D01*
X13351551Y-18780717D01*
X13348034Y-18766676D01*
X13345910Y-18752358D01*
X13345200Y-18737900D01*
X13345200Y-18442900D01*
X13345910Y-18428442D01*
X13348034Y-18414124D01*
X13351551Y-18400083D01*
X13356428Y-18386454D01*
X13362617Y-18373369D01*
X13370058Y-18360953D01*
X13378681Y-18349327D01*
X13388402Y-18338602D01*
X13399127Y-18328881D01*
X13410753Y-18320258D01*
X13423169Y-18312817D01*
X13436254Y-18306628D01*
X13449883Y-18301751D01*
X13463924Y-18298234D01*
X13478242Y-18296110D01*
X13492700Y-18295400D01*
X13837700Y-18295400D01*
X13852158Y-18296110D01*
G37*
G36*
X13852158Y-19266110D02*
G01*
X13866476Y-19268234D01*
X13880517Y-19271751D01*
X13894146Y-19276628D01*
X13907231Y-19282817D01*
X13919647Y-19290258D01*
X13931273Y-19298881D01*
X13941998Y-19308602D01*
X13951719Y-19319327D01*
X13960342Y-19330953D01*
X13967783Y-19343369D01*
X13973972Y-19356454D01*
X13978849Y-19370083D01*
X13982366Y-19384124D01*
X13984490Y-19398442D01*
X13985200Y-19412900D01*
X13985200Y-19707900D01*
X13984490Y-19722358D01*
X13982366Y-19736676D01*
X13978849Y-19750717D01*
X13973972Y-19764346D01*
X13967783Y-19777431D01*
X13960342Y-19789847D01*
X13951719Y-19801473D01*
X13941998Y-19812198D01*
X13931273Y-19821919D01*
X13919647Y-19830542D01*
X13907231Y-19837983D01*
X13894146Y-19844172D01*
X13880517Y-19849049D01*
X13866476Y-19852566D01*
X13852158Y-19854690D01*
X13837700Y-19855400D01*
X13492700Y-19855400D01*
X13478242Y-19854690D01*
X13463924Y-19852566D01*
X13449883Y-19849049D01*
X13436254Y-19844172D01*
X13423169Y-19837983D01*
X13410753Y-19830542D01*
X13399127Y-19821919D01*
X13388402Y-19812198D01*
X13378681Y-19801473D01*
X13370058Y-19789847D01*
X13362617Y-19777431D01*
X13356428Y-19764346D01*
X13351551Y-19750717D01*
X13348034Y-19736676D01*
X13345910Y-19722358D01*
X13345200Y-19707900D01*
X13345200Y-19412900D01*
X13345910Y-19398442D01*
X13348034Y-19384124D01*
X13351551Y-19370083D01*
X13356428Y-19356454D01*
X13362617Y-19343369D01*
X13370058Y-19330953D01*
X13378681Y-19319327D01*
X13388402Y-19308602D01*
X13399127Y-19298881D01*
X13410753Y-19290258D01*
X13423169Y-19282817D01*
X13436254Y-19276628D01*
X13449883Y-19271751D01*
X13463924Y-19268234D01*
X13478242Y-19266110D01*
X13492700Y-19265400D01*
X13837700Y-19265400D01*
X13852158Y-19266110D01*
G37*
G36*
X-5156942Y-11910810D02*
G01*
X-5142624Y-11912934D01*
X-5128583Y-11916451D01*
X-5114954Y-11921328D01*
X-5101869Y-11927517D01*
X-5089453Y-11934958D01*
X-5077827Y-11943581D01*
X-5067102Y-11953302D01*
X-5057381Y-11964027D01*
X-5048758Y-11975653D01*
X-5041317Y-11988069D01*
X-5035128Y-12001154D01*
X-5030251Y-12014783D01*
X-5026734Y-12028824D01*
X-5024610Y-12043142D01*
X-5023900Y-12057600D01*
X-5023900Y-12402600D01*
X-5024610Y-12417058D01*
X-5026734Y-12431376D01*
X-5030251Y-12445417D01*
X-5035128Y-12459046D01*
X-5041317Y-12472131D01*
X-5048758Y-12484547D01*
X-5057381Y-12496173D01*
X-5067102Y-12506898D01*
X-5077827Y-12516619D01*
X-5089453Y-12525242D01*
X-5101869Y-12532683D01*
X-5114954Y-12538872D01*
X-5128583Y-12543749D01*
X-5142624Y-12547266D01*
X-5156942Y-12549390D01*
X-5171400Y-12550100D01*
X-5466400Y-12550100D01*
X-5480858Y-12549390D01*
X-5495176Y-12547266D01*
X-5509217Y-12543749D01*
X-5522846Y-12538872D01*
X-5535931Y-12532683D01*
X-5548347Y-12525242D01*
X-5559973Y-12516619D01*
X-5570698Y-12506898D01*
X-5580419Y-12496173D01*
X-5589042Y-12484547D01*
X-5596483Y-12472131D01*
X-5602672Y-12459046D01*
X-5607549Y-12445417D01*
X-5611066Y-12431376D01*
X-5613190Y-12417058D01*
X-5613900Y-12402600D01*
X-5613900Y-12057600D01*
X-5613190Y-12043142D01*
X-5611066Y-12028824D01*
X-5607549Y-12014783D01*
X-5602672Y-12001154D01*
X-5596483Y-11988069D01*
X-5589042Y-11975653D01*
X-5580419Y-11964027D01*
X-5570698Y-11953302D01*
X-5559973Y-11943581D01*
X-5548347Y-11934958D01*
X-5535931Y-11927517D01*
X-5522846Y-11921328D01*
X-5509217Y-11916451D01*
X-5495176Y-11912934D01*
X-5480858Y-11910810D01*
X-5466400Y-11910100D01*
X-5171400Y-11910100D01*
X-5156942Y-11910810D01*
G37*
G36*
X-6126942Y-11910810D02*
G01*
X-6112624Y-11912934D01*
X-6098583Y-11916451D01*
X-6084954Y-11921328D01*
X-6071869Y-11927517D01*
X-6059453Y-11934958D01*
X-6047827Y-11943581D01*
X-6037102Y-11953302D01*
X-6027381Y-11964027D01*
X-6018758Y-11975653D01*
X-6011317Y-11988069D01*
X-6005128Y-12001154D01*
X-6000251Y-12014783D01*
X-5996734Y-12028824D01*
X-5994610Y-12043142D01*
X-5993900Y-12057600D01*
X-5993900Y-12402600D01*
X-5994610Y-12417058D01*
X-5996734Y-12431376D01*
X-6000251Y-12445417D01*
X-6005128Y-12459046D01*
X-6011317Y-12472131D01*
X-6018758Y-12484547D01*
X-6027381Y-12496173D01*
X-6037102Y-12506898D01*
X-6047827Y-12516619D01*
X-6059453Y-12525242D01*
X-6071869Y-12532683D01*
X-6084954Y-12538872D01*
X-6098583Y-12543749D01*
X-6112624Y-12547266D01*
X-6126942Y-12549390D01*
X-6141400Y-12550100D01*
X-6436400Y-12550100D01*
X-6450858Y-12549390D01*
X-6465176Y-12547266D01*
X-6479217Y-12543749D01*
X-6492846Y-12538872D01*
X-6505931Y-12532683D01*
X-6518347Y-12525242D01*
X-6529973Y-12516619D01*
X-6540698Y-12506898D01*
X-6550419Y-12496173D01*
X-6559042Y-12484547D01*
X-6566483Y-12472131D01*
X-6572672Y-12459046D01*
X-6577549Y-12445417D01*
X-6581066Y-12431376D01*
X-6583190Y-12417058D01*
X-6583900Y-12402600D01*
X-6583900Y-12057600D01*
X-6583190Y-12043142D01*
X-6581066Y-12028824D01*
X-6577549Y-12014783D01*
X-6572672Y-12001154D01*
X-6566483Y-11988069D01*
X-6559042Y-11975653D01*
X-6550419Y-11964027D01*
X-6540698Y-11953302D01*
X-6529973Y-11943581D01*
X-6518347Y-11934958D01*
X-6505931Y-11927517D01*
X-6492846Y-11921328D01*
X-6479217Y-11916451D01*
X-6465176Y-11912934D01*
X-6450858Y-11910810D01*
X-6436400Y-11910100D01*
X-6141400Y-11910100D01*
X-6126942Y-11910810D01*
G37*
G36*
X6613158Y-18065110D02*
G01*
X6627476Y-18067234D01*
X6641517Y-18070751D01*
X6655146Y-18075628D01*
X6668231Y-18081817D01*
X6680647Y-18089258D01*
X6692273Y-18097881D01*
X6702998Y-18107602D01*
X6712719Y-18118327D01*
X6721342Y-18129953D01*
X6728783Y-18142369D01*
X6734972Y-18155454D01*
X6739849Y-18169083D01*
X6743366Y-18183124D01*
X6745490Y-18197442D01*
X6746200Y-18211900D01*
X6746200Y-18506900D01*
X6745490Y-18521358D01*
X6743366Y-18535676D01*
X6739849Y-18549717D01*
X6734972Y-18563346D01*
X6728783Y-18576431D01*
X6721342Y-18588847D01*
X6712719Y-18600473D01*
X6702998Y-18611198D01*
X6692273Y-18620919D01*
X6680647Y-18629542D01*
X6668231Y-18636983D01*
X6655146Y-18643172D01*
X6641517Y-18648049D01*
X6627476Y-18651566D01*
X6613158Y-18653690D01*
X6598700Y-18654400D01*
X6253700Y-18654400D01*
X6239242Y-18653690D01*
X6224924Y-18651566D01*
X6210883Y-18648049D01*
X6197254Y-18643172D01*
X6184169Y-18636983D01*
X6171753Y-18629542D01*
X6160127Y-18620919D01*
X6149402Y-18611198D01*
X6139681Y-18600473D01*
X6131058Y-18588847D01*
X6123617Y-18576431D01*
X6117428Y-18563346D01*
X6112551Y-18549717D01*
X6109034Y-18535676D01*
X6106910Y-18521358D01*
X6106200Y-18506900D01*
X6106200Y-18211900D01*
X6106910Y-18197442D01*
X6109034Y-18183124D01*
X6112551Y-18169083D01*
X6117428Y-18155454D01*
X6123617Y-18142369D01*
X6131058Y-18129953D01*
X6139681Y-18118327D01*
X6149402Y-18107602D01*
X6160127Y-18097881D01*
X6171753Y-18089258D01*
X6184169Y-18081817D01*
X6197254Y-18075628D01*
X6210883Y-18070751D01*
X6224924Y-18067234D01*
X6239242Y-18065110D01*
X6253700Y-18064400D01*
X6598700Y-18064400D01*
X6613158Y-18065110D01*
G37*
G36*
X6613158Y-19035110D02*
G01*
X6627476Y-19037234D01*
X6641517Y-19040751D01*
X6655146Y-19045628D01*
X6668231Y-19051817D01*
X6680647Y-19059258D01*
X6692273Y-19067881D01*
X6702998Y-19077602D01*
X6712719Y-19088327D01*
X6721342Y-19099953D01*
X6728783Y-19112369D01*
X6734972Y-19125454D01*
X6739849Y-19139083D01*
X6743366Y-19153124D01*
X6745490Y-19167442D01*
X6746200Y-19181900D01*
X6746200Y-19476900D01*
X6745490Y-19491358D01*
X6743366Y-19505676D01*
X6739849Y-19519717D01*
X6734972Y-19533346D01*
X6728783Y-19546431D01*
X6721342Y-19558847D01*
X6712719Y-19570473D01*
X6702998Y-19581198D01*
X6692273Y-19590919D01*
X6680647Y-19599542D01*
X6668231Y-19606983D01*
X6655146Y-19613172D01*
X6641517Y-19618049D01*
X6627476Y-19621566D01*
X6613158Y-19623690D01*
X6598700Y-19624400D01*
X6253700Y-19624400D01*
X6239242Y-19623690D01*
X6224924Y-19621566D01*
X6210883Y-19618049D01*
X6197254Y-19613172D01*
X6184169Y-19606983D01*
X6171753Y-19599542D01*
X6160127Y-19590919D01*
X6149402Y-19581198D01*
X6139681Y-19570473D01*
X6131058Y-19558847D01*
X6123617Y-19546431D01*
X6117428Y-19533346D01*
X6112551Y-19519717D01*
X6109034Y-19505676D01*
X6106910Y-19491358D01*
X6106200Y-19476900D01*
X6106200Y-19181900D01*
X6106910Y-19167442D01*
X6109034Y-19153124D01*
X6112551Y-19139083D01*
X6117428Y-19125454D01*
X6123617Y-19112369D01*
X6131058Y-19099953D01*
X6139681Y-19088327D01*
X6149402Y-19077602D01*
X6160127Y-19067881D01*
X6171753Y-19059258D01*
X6184169Y-19051817D01*
X6197254Y-19045628D01*
X6210883Y-19040751D01*
X6224924Y-19037234D01*
X6239242Y-19035110D01*
X6253700Y-19034400D01*
X6598700Y-19034400D01*
X6613158Y-19035110D01*
G37*
G36*
X4733558Y-19039910D02*
G01*
X4747876Y-19042034D01*
X4761917Y-19045551D01*
X4775546Y-19050428D01*
X4788631Y-19056617D01*
X4801047Y-19064058D01*
X4812673Y-19072681D01*
X4823398Y-19082402D01*
X4833119Y-19093127D01*
X4841742Y-19104753D01*
X4849183Y-19117169D01*
X4855372Y-19130254D01*
X4860249Y-19143883D01*
X4863766Y-19157924D01*
X4865890Y-19172242D01*
X4866600Y-19186700D01*
X4866600Y-19481700D01*
X4865890Y-19496158D01*
X4863766Y-19510476D01*
X4860249Y-19524517D01*
X4855372Y-19538146D01*
X4849183Y-19551231D01*
X4841742Y-19563647D01*
X4833119Y-19575273D01*
X4823398Y-19585998D01*
X4812673Y-19595719D01*
X4801047Y-19604342D01*
X4788631Y-19611783D01*
X4775546Y-19617972D01*
X4761917Y-19622849D01*
X4747876Y-19626366D01*
X4733558Y-19628490D01*
X4719100Y-19629200D01*
X4374100Y-19629200D01*
X4359642Y-19628490D01*
X4345324Y-19626366D01*
X4331283Y-19622849D01*
X4317654Y-19617972D01*
X4304569Y-19611783D01*
X4292153Y-19604342D01*
X4280527Y-19595719D01*
X4269802Y-19585998D01*
X4260081Y-19575273D01*
X4251458Y-19563647D01*
X4244017Y-19551231D01*
X4237828Y-19538146D01*
X4232951Y-19524517D01*
X4229434Y-19510476D01*
X4227310Y-19496158D01*
X4226600Y-19481700D01*
X4226600Y-19186700D01*
X4227310Y-19172242D01*
X4229434Y-19157924D01*
X4232951Y-19143883D01*
X4237828Y-19130254D01*
X4244017Y-19117169D01*
X4251458Y-19104753D01*
X4260081Y-19093127D01*
X4269802Y-19082402D01*
X4280527Y-19072681D01*
X4292153Y-19064058D01*
X4304569Y-19056617D01*
X4317654Y-19050428D01*
X4331283Y-19045551D01*
X4345324Y-19042034D01*
X4359642Y-19039910D01*
X4374100Y-19039200D01*
X4719100Y-19039200D01*
X4733558Y-19039910D01*
G37*
G36*
X4733558Y-18069910D02*
G01*
X4747876Y-18072034D01*
X4761917Y-18075551D01*
X4775546Y-18080428D01*
X4788631Y-18086617D01*
X4801047Y-18094058D01*
X4812673Y-18102681D01*
X4823398Y-18112402D01*
X4833119Y-18123127D01*
X4841742Y-18134753D01*
X4849183Y-18147169D01*
X4855372Y-18160254D01*
X4860249Y-18173883D01*
X4863766Y-18187924D01*
X4865890Y-18202242D01*
X4866600Y-18216700D01*
X4866600Y-18511700D01*
X4865890Y-18526158D01*
X4863766Y-18540476D01*
X4860249Y-18554517D01*
X4855372Y-18568146D01*
X4849183Y-18581231D01*
X4841742Y-18593647D01*
X4833119Y-18605273D01*
X4823398Y-18615998D01*
X4812673Y-18625719D01*
X4801047Y-18634342D01*
X4788631Y-18641783D01*
X4775546Y-18647972D01*
X4761917Y-18652849D01*
X4747876Y-18656366D01*
X4733558Y-18658490D01*
X4719100Y-18659200D01*
X4374100Y-18659200D01*
X4359642Y-18658490D01*
X4345324Y-18656366D01*
X4331283Y-18652849D01*
X4317654Y-18647972D01*
X4304569Y-18641783D01*
X4292153Y-18634342D01*
X4280527Y-18625719D01*
X4269802Y-18615998D01*
X4260081Y-18605273D01*
X4251458Y-18593647D01*
X4244017Y-18581231D01*
X4237828Y-18568146D01*
X4232951Y-18554517D01*
X4229434Y-18540476D01*
X4227310Y-18526158D01*
X4226600Y-18511700D01*
X4226600Y-18216700D01*
X4227310Y-18202242D01*
X4229434Y-18187924D01*
X4232951Y-18173883D01*
X4237828Y-18160254D01*
X4244017Y-18147169D01*
X4251458Y-18134753D01*
X4260081Y-18123127D01*
X4269802Y-18112402D01*
X4280527Y-18102681D01*
X4292153Y-18094058D01*
X4304569Y-18086617D01*
X4317654Y-18080428D01*
X4331283Y-18075551D01*
X4345324Y-18072034D01*
X4359642Y-18069910D01*
X4374100Y-18069200D01*
X4719100Y-18069200D01*
X4733558Y-18069910D01*
G37*
G36*
X-5133942Y-9243810D02*
G01*
X-5119624Y-9245934D01*
X-5105583Y-9249451D01*
X-5091954Y-9254328D01*
X-5078869Y-9260517D01*
X-5066453Y-9267958D01*
X-5054827Y-9276581D01*
X-5044102Y-9286302D01*
X-5034381Y-9297027D01*
X-5025758Y-9308653D01*
X-5018317Y-9321069D01*
X-5012128Y-9334154D01*
X-5007251Y-9347783D01*
X-5003734Y-9361824D01*
X-5001610Y-9376142D01*
X-5000900Y-9390600D01*
X-5000900Y-9735600D01*
X-5001610Y-9750058D01*
X-5003734Y-9764376D01*
X-5007251Y-9778417D01*
X-5012128Y-9792046D01*
X-5018317Y-9805131D01*
X-5025758Y-9817547D01*
X-5034381Y-9829173D01*
X-5044102Y-9839898D01*
X-5054827Y-9849619D01*
X-5066453Y-9858242D01*
X-5078869Y-9865683D01*
X-5091954Y-9871872D01*
X-5105583Y-9876749D01*
X-5119624Y-9880266D01*
X-5133942Y-9882390D01*
X-5148400Y-9883100D01*
X-5443400Y-9883100D01*
X-5457858Y-9882390D01*
X-5472176Y-9880266D01*
X-5486217Y-9876749D01*
X-5499846Y-9871872D01*
X-5512931Y-9865683D01*
X-5525347Y-9858242D01*
X-5536973Y-9849619D01*
X-5547698Y-9839898D01*
X-5557419Y-9829173D01*
X-5566042Y-9817547D01*
X-5573483Y-9805131D01*
X-5579672Y-9792046D01*
X-5584549Y-9778417D01*
X-5588066Y-9764376D01*
X-5590190Y-9750058D01*
X-5590900Y-9735600D01*
X-5590900Y-9390600D01*
X-5590190Y-9376142D01*
X-5588066Y-9361824D01*
X-5584549Y-9347783D01*
X-5579672Y-9334154D01*
X-5573483Y-9321069D01*
X-5566042Y-9308653D01*
X-5557419Y-9297027D01*
X-5547698Y-9286302D01*
X-5536973Y-9276581D01*
X-5525347Y-9267958D01*
X-5512931Y-9260517D01*
X-5499846Y-9254328D01*
X-5486217Y-9249451D01*
X-5472176Y-9245934D01*
X-5457858Y-9243810D01*
X-5443400Y-9243100D01*
X-5148400Y-9243100D01*
X-5133942Y-9243810D01*
G37*
G36*
X-6103942Y-9243810D02*
G01*
X-6089624Y-9245934D01*
X-6075583Y-9249451D01*
X-6061954Y-9254328D01*
X-6048869Y-9260517D01*
X-6036453Y-9267958D01*
X-6024827Y-9276581D01*
X-6014102Y-9286302D01*
X-6004381Y-9297027D01*
X-5995758Y-9308653D01*
X-5988317Y-9321069D01*
X-5982128Y-9334154D01*
X-5977251Y-9347783D01*
X-5973734Y-9361824D01*
X-5971610Y-9376142D01*
X-5970900Y-9390600D01*
X-5970900Y-9735600D01*
X-5971610Y-9750058D01*
X-5973734Y-9764376D01*
X-5977251Y-9778417D01*
X-5982128Y-9792046D01*
X-5988317Y-9805131D01*
X-5995758Y-9817547D01*
X-6004381Y-9829173D01*
X-6014102Y-9839898D01*
X-6024827Y-9849619D01*
X-6036453Y-9858242D01*
X-6048869Y-9865683D01*
X-6061954Y-9871872D01*
X-6075583Y-9876749D01*
X-6089624Y-9880266D01*
X-6103942Y-9882390D01*
X-6118400Y-9883100D01*
X-6413400Y-9883100D01*
X-6427858Y-9882390D01*
X-6442176Y-9880266D01*
X-6456217Y-9876749D01*
X-6469846Y-9871872D01*
X-6482931Y-9865683D01*
X-6495347Y-9858242D01*
X-6506973Y-9849619D01*
X-6517698Y-9839898D01*
X-6527419Y-9829173D01*
X-6536042Y-9817547D01*
X-6543483Y-9805131D01*
X-6549672Y-9792046D01*
X-6554549Y-9778417D01*
X-6558066Y-9764376D01*
X-6560190Y-9750058D01*
X-6560900Y-9735600D01*
X-6560900Y-9390600D01*
X-6560190Y-9376142D01*
X-6558066Y-9361824D01*
X-6554549Y-9347783D01*
X-6549672Y-9334154D01*
X-6543483Y-9321069D01*
X-6536042Y-9308653D01*
X-6527419Y-9297027D01*
X-6517698Y-9286302D01*
X-6506973Y-9276581D01*
X-6495347Y-9267958D01*
X-6482931Y-9260517D01*
X-6469846Y-9254328D01*
X-6456217Y-9249451D01*
X-6442176Y-9245934D01*
X-6427858Y-9243810D01*
X-6413400Y-9243100D01*
X-6118400Y-9243100D01*
X-6103942Y-9243810D01*
G37*
G36*
X-17745442Y-10140310D02*
G01*
X-17731124Y-10142434D01*
X-17717083Y-10145951D01*
X-17703454Y-10150828D01*
X-17690369Y-10157017D01*
X-17677953Y-10164458D01*
X-17666327Y-10173081D01*
X-17655602Y-10182802D01*
X-17645881Y-10193527D01*
X-17637258Y-10205153D01*
X-17629817Y-10217569D01*
X-17623628Y-10230654D01*
X-17618751Y-10244283D01*
X-17615234Y-10258324D01*
X-17613110Y-10272642D01*
X-17612400Y-10287100D01*
X-17612400Y-10582100D01*
X-17613110Y-10596558D01*
X-17615234Y-10610876D01*
X-17618751Y-10624917D01*
X-17623628Y-10638546D01*
X-17629817Y-10651631D01*
X-17637258Y-10664047D01*
X-17645881Y-10675673D01*
X-17655602Y-10686398D01*
X-17666327Y-10696119D01*
X-17677953Y-10704742D01*
X-17690369Y-10712183D01*
X-17703454Y-10718372D01*
X-17717083Y-10723249D01*
X-17731124Y-10726766D01*
X-17745442Y-10728890D01*
X-17759900Y-10729600D01*
X-18104900Y-10729600D01*
X-18119358Y-10728890D01*
X-18133676Y-10726766D01*
X-18147717Y-10723249D01*
X-18161346Y-10718372D01*
X-18174431Y-10712183D01*
X-18186847Y-10704742D01*
X-18198473Y-10696119D01*
X-18209198Y-10686398D01*
X-18218919Y-10675673D01*
X-18227542Y-10664047D01*
X-18234983Y-10651631D01*
X-18241172Y-10638546D01*
X-18246049Y-10624917D01*
X-18249566Y-10610876D01*
X-18251690Y-10596558D01*
X-18252400Y-10582100D01*
X-18252400Y-10287100D01*
X-18251690Y-10272642D01*
X-18249566Y-10258324D01*
X-18246049Y-10244283D01*
X-18241172Y-10230654D01*
X-18234983Y-10217569D01*
X-18227542Y-10205153D01*
X-18218919Y-10193527D01*
X-18209198Y-10182802D01*
X-18198473Y-10173081D01*
X-18186847Y-10164458D01*
X-18174431Y-10157017D01*
X-18161346Y-10150828D01*
X-18147717Y-10145951D01*
X-18133676Y-10142434D01*
X-18119358Y-10140310D01*
X-18104900Y-10139600D01*
X-17759900Y-10139600D01*
X-17745442Y-10140310D01*
G37*
G36*
X-17745442Y-11110310D02*
G01*
X-17731124Y-11112434D01*
X-17717083Y-11115951D01*
X-17703454Y-11120828D01*
X-17690369Y-11127017D01*
X-17677953Y-11134458D01*
X-17666327Y-11143081D01*
X-17655602Y-11152802D01*
X-17645881Y-11163527D01*
X-17637258Y-11175153D01*
X-17629817Y-11187569D01*
X-17623628Y-11200654D01*
X-17618751Y-11214283D01*
X-17615234Y-11228324D01*
X-17613110Y-11242642D01*
X-17612400Y-11257100D01*
X-17612400Y-11552100D01*
X-17613110Y-11566558D01*
X-17615234Y-11580876D01*
X-17618751Y-11594917D01*
X-17623628Y-11608546D01*
X-17629817Y-11621631D01*
X-17637258Y-11634047D01*
X-17645881Y-11645673D01*
X-17655602Y-11656398D01*
X-17666327Y-11666119D01*
X-17677953Y-11674742D01*
X-17690369Y-11682183D01*
X-17703454Y-11688372D01*
X-17717083Y-11693249D01*
X-17731124Y-11696766D01*
X-17745442Y-11698890D01*
X-17759900Y-11699600D01*
X-18104900Y-11699600D01*
X-18119358Y-11698890D01*
X-18133676Y-11696766D01*
X-18147717Y-11693249D01*
X-18161346Y-11688372D01*
X-18174431Y-11682183D01*
X-18186847Y-11674742D01*
X-18198473Y-11666119D01*
X-18209198Y-11656398D01*
X-18218919Y-11645673D01*
X-18227542Y-11634047D01*
X-18234983Y-11621631D01*
X-18241172Y-11608546D01*
X-18246049Y-11594917D01*
X-18249566Y-11580876D01*
X-18251690Y-11566558D01*
X-18252400Y-11552100D01*
X-18252400Y-11257100D01*
X-18251690Y-11242642D01*
X-18249566Y-11228324D01*
X-18246049Y-11214283D01*
X-18241172Y-11200654D01*
X-18234983Y-11187569D01*
X-18227542Y-11175153D01*
X-18218919Y-11163527D01*
X-18209198Y-11152802D01*
X-18198473Y-11143081D01*
X-18186847Y-11134458D01*
X-18174431Y-11127017D01*
X-18161346Y-11120828D01*
X-18147717Y-11115951D01*
X-18133676Y-11112434D01*
X-18119358Y-11110310D01*
X-18104900Y-11109600D01*
X-17759900Y-11109600D01*
X-17745442Y-11110310D01*
G37*
G36*
X-18710642Y-10170510D02*
G01*
X-18696324Y-10172634D01*
X-18682283Y-10176151D01*
X-18668654Y-10181028D01*
X-18655569Y-10187217D01*
X-18643153Y-10194658D01*
X-18631527Y-10203281D01*
X-18620802Y-10213002D01*
X-18611081Y-10223727D01*
X-18602458Y-10235353D01*
X-18595017Y-10247769D01*
X-18588828Y-10260854D01*
X-18583951Y-10274483D01*
X-18580434Y-10288524D01*
X-18578310Y-10302842D01*
X-18577600Y-10317300D01*
X-18577600Y-10612300D01*
X-18578310Y-10626758D01*
X-18580434Y-10641076D01*
X-18583951Y-10655117D01*
X-18588828Y-10668746D01*
X-18595017Y-10681831D01*
X-18602458Y-10694247D01*
X-18611081Y-10705873D01*
X-18620802Y-10716598D01*
X-18631527Y-10726319D01*
X-18643153Y-10734942D01*
X-18655569Y-10742383D01*
X-18668654Y-10748572D01*
X-18682283Y-10753449D01*
X-18696324Y-10756966D01*
X-18710642Y-10759090D01*
X-18725100Y-10759800D01*
X-19070100Y-10759800D01*
X-19084558Y-10759090D01*
X-19098876Y-10756966D01*
X-19112917Y-10753449D01*
X-19126546Y-10748572D01*
X-19139631Y-10742383D01*
X-19152047Y-10734942D01*
X-19163673Y-10726319D01*
X-19174398Y-10716598D01*
X-19184119Y-10705873D01*
X-19192742Y-10694247D01*
X-19200183Y-10681831D01*
X-19206372Y-10668746D01*
X-19211249Y-10655117D01*
X-19214766Y-10641076D01*
X-19216890Y-10626758D01*
X-19217600Y-10612300D01*
X-19217600Y-10317300D01*
X-19216890Y-10302842D01*
X-19214766Y-10288524D01*
X-19211249Y-10274483D01*
X-19206372Y-10260854D01*
X-19200183Y-10247769D01*
X-19192742Y-10235353D01*
X-19184119Y-10223727D01*
X-19174398Y-10213002D01*
X-19163673Y-10203281D01*
X-19152047Y-10194658D01*
X-19139631Y-10187217D01*
X-19126546Y-10181028D01*
X-19112917Y-10176151D01*
X-19098876Y-10172634D01*
X-19084558Y-10170510D01*
X-19070100Y-10169800D01*
X-18725100Y-10169800D01*
X-18710642Y-10170510D01*
G37*
G36*
X-18710642Y-11140510D02*
G01*
X-18696324Y-11142634D01*
X-18682283Y-11146151D01*
X-18668654Y-11151028D01*
X-18655569Y-11157217D01*
X-18643153Y-11164658D01*
X-18631527Y-11173281D01*
X-18620802Y-11183002D01*
X-18611081Y-11193727D01*
X-18602458Y-11205353D01*
X-18595017Y-11217769D01*
X-18588828Y-11230854D01*
X-18583951Y-11244483D01*
X-18580434Y-11258524D01*
X-18578310Y-11272842D01*
X-18577600Y-11287300D01*
X-18577600Y-11582300D01*
X-18578310Y-11596758D01*
X-18580434Y-11611076D01*
X-18583951Y-11625117D01*
X-18588828Y-11638746D01*
X-18595017Y-11651831D01*
X-18602458Y-11664247D01*
X-18611081Y-11675873D01*
X-18620802Y-11686598D01*
X-18631527Y-11696319D01*
X-18643153Y-11704942D01*
X-18655569Y-11712383D01*
X-18668654Y-11718572D01*
X-18682283Y-11723449D01*
X-18696324Y-11726966D01*
X-18710642Y-11729090D01*
X-18725100Y-11729800D01*
X-19070100Y-11729800D01*
X-19084558Y-11729090D01*
X-19098876Y-11726966D01*
X-19112917Y-11723449D01*
X-19126546Y-11718572D01*
X-19139631Y-11712383D01*
X-19152047Y-11704942D01*
X-19163673Y-11696319D01*
X-19174398Y-11686598D01*
X-19184119Y-11675873D01*
X-19192742Y-11664247D01*
X-19200183Y-11651831D01*
X-19206372Y-11638746D01*
X-19211249Y-11625117D01*
X-19214766Y-11611076D01*
X-19216890Y-11596758D01*
X-19217600Y-11582300D01*
X-19217600Y-11287300D01*
X-19216890Y-11272842D01*
X-19214766Y-11258524D01*
X-19211249Y-11244483D01*
X-19206372Y-11230854D01*
X-19200183Y-11217769D01*
X-19192742Y-11205353D01*
X-19184119Y-11193727D01*
X-19174398Y-11183002D01*
X-19163673Y-11173281D01*
X-19152047Y-11164658D01*
X-19139631Y-11157217D01*
X-19126546Y-11151028D01*
X-19112917Y-11146151D01*
X-19098876Y-11142634D01*
X-19084558Y-11140510D01*
X-19070100Y-11139800D01*
X-18725100Y-11139800D01*
X-18710642Y-11140510D01*
G37*
G36*
X-11608542Y7685290D02*
G01*
X-11594224Y7683166D01*
X-11580183Y7679649D01*
X-11566554Y7674772D01*
X-11553469Y7668583D01*
X-11541053Y7661142D01*
X-11529427Y7652519D01*
X-11518702Y7642798D01*
X-11508981Y7632073D01*
X-11500358Y7620447D01*
X-11492917Y7608031D01*
X-11486728Y7594946D01*
X-11481851Y7581317D01*
X-11478334Y7567276D01*
X-11476210Y7552958D01*
X-11475500Y7538500D01*
X-11475500Y7193500D01*
X-11476210Y7179042D01*
X-11478334Y7164724D01*
X-11481851Y7150683D01*
X-11486728Y7137054D01*
X-11492917Y7123969D01*
X-11500358Y7111553D01*
X-11508981Y7099927D01*
X-11518702Y7089202D01*
X-11529427Y7079481D01*
X-11541053Y7070858D01*
X-11553469Y7063417D01*
X-11566554Y7057228D01*
X-11580183Y7052351D01*
X-11594224Y7048834D01*
X-11608542Y7046710D01*
X-11623000Y7046000D01*
X-11918000Y7046000D01*
X-11932458Y7046710D01*
X-11946776Y7048834D01*
X-11960817Y7052351D01*
X-11974446Y7057228D01*
X-11987531Y7063417D01*
X-11999947Y7070858D01*
X-12011573Y7079481D01*
X-12022298Y7089202D01*
X-12032019Y7099927D01*
X-12040642Y7111553D01*
X-12048083Y7123969D01*
X-12054272Y7137054D01*
X-12059149Y7150683D01*
X-12062666Y7164724D01*
X-12064790Y7179042D01*
X-12065500Y7193500D01*
X-12065500Y7538500D01*
X-12064790Y7552958D01*
X-12062666Y7567276D01*
X-12059149Y7581317D01*
X-12054272Y7594946D01*
X-12048083Y7608031D01*
X-12040642Y7620447D01*
X-12032019Y7632073D01*
X-12022298Y7642798D01*
X-12011573Y7652519D01*
X-11999947Y7661142D01*
X-11987531Y7668583D01*
X-11974446Y7674772D01*
X-11960817Y7679649D01*
X-11946776Y7683166D01*
X-11932458Y7685290D01*
X-11918000Y7686000D01*
X-11623000Y7686000D01*
X-11608542Y7685290D01*
G37*
G36*
X-12578542Y7685290D02*
G01*
X-12564224Y7683166D01*
X-12550183Y7679649D01*
X-12536554Y7674772D01*
X-12523469Y7668583D01*
X-12511053Y7661142D01*
X-12499427Y7652519D01*
X-12488702Y7642798D01*
X-12478981Y7632073D01*
X-12470358Y7620447D01*
X-12462917Y7608031D01*
X-12456728Y7594946D01*
X-12451851Y7581317D01*
X-12448334Y7567276D01*
X-12446210Y7552958D01*
X-12445500Y7538500D01*
X-12445500Y7193500D01*
X-12446210Y7179042D01*
X-12448334Y7164724D01*
X-12451851Y7150683D01*
X-12456728Y7137054D01*
X-12462917Y7123969D01*
X-12470358Y7111553D01*
X-12478981Y7099927D01*
X-12488702Y7089202D01*
X-12499427Y7079481D01*
X-12511053Y7070858D01*
X-12523469Y7063417D01*
X-12536554Y7057228D01*
X-12550183Y7052351D01*
X-12564224Y7048834D01*
X-12578542Y7046710D01*
X-12593000Y7046000D01*
X-12888000Y7046000D01*
X-12902458Y7046710D01*
X-12916776Y7048834D01*
X-12930817Y7052351D01*
X-12944446Y7057228D01*
X-12957531Y7063417D01*
X-12969947Y7070858D01*
X-12981573Y7079481D01*
X-12992298Y7089202D01*
X-13002019Y7099927D01*
X-13010642Y7111553D01*
X-13018083Y7123969D01*
X-13024272Y7137054D01*
X-13029149Y7150683D01*
X-13032666Y7164724D01*
X-13034790Y7179042D01*
X-13035500Y7193500D01*
X-13035500Y7538500D01*
X-13034790Y7552958D01*
X-13032666Y7567276D01*
X-13029149Y7581317D01*
X-13024272Y7594946D01*
X-13018083Y7608031D01*
X-13010642Y7620447D01*
X-13002019Y7632073D01*
X-12992298Y7642798D01*
X-12981573Y7652519D01*
X-12969947Y7661142D01*
X-12957531Y7668583D01*
X-12944446Y7674772D01*
X-12930817Y7679649D01*
X-12916776Y7683166D01*
X-12902458Y7685290D01*
X-12888000Y7686000D01*
X-12593000Y7686000D01*
X-12578542Y7685290D01*
G37*
G36*
X-16450042Y4485290D02*
G01*
X-16435724Y4483166D01*
X-16421683Y4479649D01*
X-16408054Y4474772D01*
X-16394969Y4468583D01*
X-16382553Y4461142D01*
X-16370927Y4452519D01*
X-16360202Y4442798D01*
X-16350481Y4432073D01*
X-16341858Y4420447D01*
X-16334417Y4408031D01*
X-16328228Y4394946D01*
X-16323351Y4381317D01*
X-16319834Y4367276D01*
X-16317710Y4352958D01*
X-16317000Y4338500D01*
X-16317000Y4043500D01*
X-16317710Y4029042D01*
X-16319834Y4014724D01*
X-16323351Y4000683D01*
X-16328228Y3987054D01*
X-16334417Y3973969D01*
X-16341858Y3961553D01*
X-16350481Y3949927D01*
X-16360202Y3939202D01*
X-16370927Y3929481D01*
X-16382553Y3920858D01*
X-16394969Y3913417D01*
X-16408054Y3907228D01*
X-16421683Y3902351D01*
X-16435724Y3898834D01*
X-16450042Y3896710D01*
X-16464500Y3896000D01*
X-16809500Y3896000D01*
X-16823958Y3896710D01*
X-16838276Y3898834D01*
X-16852317Y3902351D01*
X-16865946Y3907228D01*
X-16879031Y3913417D01*
X-16891447Y3920858D01*
X-16903073Y3929481D01*
X-16913798Y3939202D01*
X-16923519Y3949927D01*
X-16932142Y3961553D01*
X-16939583Y3973969D01*
X-16945772Y3987054D01*
X-16950649Y4000683D01*
X-16954166Y4014724D01*
X-16956290Y4029042D01*
X-16957000Y4043500D01*
X-16957000Y4338500D01*
X-16956290Y4352958D01*
X-16954166Y4367276D01*
X-16950649Y4381317D01*
X-16945772Y4394946D01*
X-16939583Y4408031D01*
X-16932142Y4420447D01*
X-16923519Y4432073D01*
X-16913798Y4442798D01*
X-16903073Y4452519D01*
X-16891447Y4461142D01*
X-16879031Y4468583D01*
X-16865946Y4474772D01*
X-16852317Y4479649D01*
X-16838276Y4483166D01*
X-16823958Y4485290D01*
X-16809500Y4486000D01*
X-16464500Y4486000D01*
X-16450042Y4485290D01*
G37*
G36*
X-16450042Y5455290D02*
G01*
X-16435724Y5453166D01*
X-16421683Y5449649D01*
X-16408054Y5444772D01*
X-16394969Y5438583D01*
X-16382553Y5431142D01*
X-16370927Y5422519D01*
X-16360202Y5412798D01*
X-16350481Y5402073D01*
X-16341858Y5390447D01*
X-16334417Y5378031D01*
X-16328228Y5364946D01*
X-16323351Y5351317D01*
X-16319834Y5337276D01*
X-16317710Y5322958D01*
X-16317000Y5308500D01*
X-16317000Y5013500D01*
X-16317710Y4999042D01*
X-16319834Y4984724D01*
X-16323351Y4970683D01*
X-16328228Y4957054D01*
X-16334417Y4943969D01*
X-16341858Y4931553D01*
X-16350481Y4919927D01*
X-16360202Y4909202D01*
X-16370927Y4899481D01*
X-16382553Y4890858D01*
X-16394969Y4883417D01*
X-16408054Y4877228D01*
X-16421683Y4872351D01*
X-16435724Y4868834D01*
X-16450042Y4866710D01*
X-16464500Y4866000D01*
X-16809500Y4866000D01*
X-16823958Y4866710D01*
X-16838276Y4868834D01*
X-16852317Y4872351D01*
X-16865946Y4877228D01*
X-16879031Y4883417D01*
X-16891447Y4890858D01*
X-16903073Y4899481D01*
X-16913798Y4909202D01*
X-16923519Y4919927D01*
X-16932142Y4931553D01*
X-16939583Y4943969D01*
X-16945772Y4957054D01*
X-16950649Y4970683D01*
X-16954166Y4984724D01*
X-16956290Y4999042D01*
X-16957000Y5013500D01*
X-16957000Y5308500D01*
X-16956290Y5322958D01*
X-16954166Y5337276D01*
X-16950649Y5351317D01*
X-16945772Y5364946D01*
X-16939583Y5378031D01*
X-16932142Y5390447D01*
X-16923519Y5402073D01*
X-16913798Y5412798D01*
X-16903073Y5422519D01*
X-16891447Y5431142D01*
X-16879031Y5438583D01*
X-16865946Y5444772D01*
X-16852317Y5449649D01*
X-16838276Y5453166D01*
X-16823958Y5455290D01*
X-16809500Y5456000D01*
X-16464500Y5456000D01*
X-16450042Y5455290D01*
G37*
D23*
X-9525000Y5080000D03*
X-11525000Y4130000D03*
X-11525000Y6030000D03*
D24*
X-14285000Y6080000D03*
X-13335000Y4080000D03*
X-15235000Y4080000D03*
D12*
G36*
X-12667442Y-17816310D02*
G01*
X-12653124Y-17818434D01*
X-12639083Y-17821951D01*
X-12625454Y-17826828D01*
X-12612369Y-17833017D01*
X-12599953Y-17840458D01*
X-12588327Y-17849081D01*
X-12577602Y-17858802D01*
X-12567881Y-17869527D01*
X-12559258Y-17881153D01*
X-12551817Y-17893569D01*
X-12545628Y-17906654D01*
X-12540751Y-17920283D01*
X-12537234Y-17934324D01*
X-12535110Y-17948642D01*
X-12534400Y-17963100D01*
X-12534400Y-18308100D01*
X-12535110Y-18322558D01*
X-12537234Y-18336876D01*
X-12540751Y-18350917D01*
X-12545628Y-18364546D01*
X-12551817Y-18377631D01*
X-12559258Y-18390047D01*
X-12567881Y-18401673D01*
X-12577602Y-18412398D01*
X-12588327Y-18422119D01*
X-12599953Y-18430742D01*
X-12612369Y-18438183D01*
X-12625454Y-18444372D01*
X-12639083Y-18449249D01*
X-12653124Y-18452766D01*
X-12667442Y-18454890D01*
X-12681900Y-18455600D01*
X-12976900Y-18455600D01*
X-12991358Y-18454890D01*
X-13005676Y-18452766D01*
X-13019717Y-18449249D01*
X-13033346Y-18444372D01*
X-13046431Y-18438183D01*
X-13058847Y-18430742D01*
X-13070473Y-18422119D01*
X-13081198Y-18412398D01*
X-13090919Y-18401673D01*
X-13099542Y-18390047D01*
X-13106983Y-18377631D01*
X-13113172Y-18364546D01*
X-13118049Y-18350917D01*
X-13121566Y-18336876D01*
X-13123690Y-18322558D01*
X-13124400Y-18308100D01*
X-13124400Y-17963100D01*
X-13123690Y-17948642D01*
X-13121566Y-17934324D01*
X-13118049Y-17920283D01*
X-13113172Y-17906654D01*
X-13106983Y-17893569D01*
X-13099542Y-17881153D01*
X-13090919Y-17869527D01*
X-13081198Y-17858802D01*
X-13070473Y-17849081D01*
X-13058847Y-17840458D01*
X-13046431Y-17833017D01*
X-13033346Y-17826828D01*
X-13019717Y-17821951D01*
X-13005676Y-17818434D01*
X-12991358Y-17816310D01*
X-12976900Y-17815600D01*
X-12681900Y-17815600D01*
X-12667442Y-17816310D01*
G37*
G36*
X-11697442Y-17816310D02*
G01*
X-11683124Y-17818434D01*
X-11669083Y-17821951D01*
X-11655454Y-17826828D01*
X-11642369Y-17833017D01*
X-11629953Y-17840458D01*
X-11618327Y-17849081D01*
X-11607602Y-17858802D01*
X-11597881Y-17869527D01*
X-11589258Y-17881153D01*
X-11581817Y-17893569D01*
X-11575628Y-17906654D01*
X-11570751Y-17920283D01*
X-11567234Y-17934324D01*
X-11565110Y-17948642D01*
X-11564400Y-17963100D01*
X-11564400Y-18308100D01*
X-11565110Y-18322558D01*
X-11567234Y-18336876D01*
X-11570751Y-18350917D01*
X-11575628Y-18364546D01*
X-11581817Y-18377631D01*
X-11589258Y-18390047D01*
X-11597881Y-18401673D01*
X-11607602Y-18412398D01*
X-11618327Y-18422119D01*
X-11629953Y-18430742D01*
X-11642369Y-18438183D01*
X-11655454Y-18444372D01*
X-11669083Y-18449249D01*
X-11683124Y-18452766D01*
X-11697442Y-18454890D01*
X-11711900Y-18455600D01*
X-12006900Y-18455600D01*
X-12021358Y-18454890D01*
X-12035676Y-18452766D01*
X-12049717Y-18449249D01*
X-12063346Y-18444372D01*
X-12076431Y-18438183D01*
X-12088847Y-18430742D01*
X-12100473Y-18422119D01*
X-12111198Y-18412398D01*
X-12120919Y-18401673D01*
X-12129542Y-18390047D01*
X-12136983Y-18377631D01*
X-12143172Y-18364546D01*
X-12148049Y-18350917D01*
X-12151566Y-18336876D01*
X-12153690Y-18322558D01*
X-12154400Y-18308100D01*
X-12154400Y-17963100D01*
X-12153690Y-17948642D01*
X-12151566Y-17934324D01*
X-12148049Y-17920283D01*
X-12143172Y-17906654D01*
X-12136983Y-17893569D01*
X-12129542Y-17881153D01*
X-12120919Y-17869527D01*
X-12111198Y-17858802D01*
X-12100473Y-17849081D01*
X-12088847Y-17840458D01*
X-12076431Y-17833017D01*
X-12063346Y-17826828D01*
X-12049717Y-17821951D01*
X-12035676Y-17818434D01*
X-12021358Y-17816310D01*
X-12006900Y-17815600D01*
X-11711900Y-17815600D01*
X-11697442Y-17816310D01*
G37*
D25*
X-23425000Y-840000D03*
X-23425000Y840000D03*
D26*
X-23425000Y-2910000D03*
X-23425000Y2910000D03*
D27*
X-21125000Y-2462500D03*
X-21125000Y2462500D03*
D28*
X-20765000Y-1300000D03*
X-20765000Y-650000D03*
X-20765000Y0D03*
X-20765000Y650000D03*
X-20765000Y1300000D03*
D12*
G36*
X11718958Y-14285710D02*
G01*
X11733276Y-14287834D01*
X11747317Y-14291351D01*
X11760946Y-14296228D01*
X11774031Y-14302417D01*
X11786447Y-14309858D01*
X11798073Y-14318481D01*
X11808798Y-14328202D01*
X11818519Y-14338927D01*
X11827142Y-14350553D01*
X11834583Y-14362969D01*
X11840772Y-14376054D01*
X11845649Y-14389683D01*
X11849166Y-14403724D01*
X11851290Y-14418042D01*
X11852000Y-14432500D01*
X11852000Y-14777500D01*
X11851290Y-14791958D01*
X11849166Y-14806276D01*
X11845649Y-14820317D01*
X11840772Y-14833946D01*
X11834583Y-14847031D01*
X11827142Y-14859447D01*
X11818519Y-14871073D01*
X11808798Y-14881798D01*
X11798073Y-14891519D01*
X11786447Y-14900142D01*
X11774031Y-14907583D01*
X11760946Y-14913772D01*
X11747317Y-14918649D01*
X11733276Y-14922166D01*
X11718958Y-14924290D01*
X11704500Y-14925000D01*
X11409500Y-14925000D01*
X11395042Y-14924290D01*
X11380724Y-14922166D01*
X11366683Y-14918649D01*
X11353054Y-14913772D01*
X11339969Y-14907583D01*
X11327553Y-14900142D01*
X11315927Y-14891519D01*
X11305202Y-14881798D01*
X11295481Y-14871073D01*
X11286858Y-14859447D01*
X11279417Y-14847031D01*
X11273228Y-14833946D01*
X11268351Y-14820317D01*
X11264834Y-14806276D01*
X11262710Y-14791958D01*
X11262000Y-14777500D01*
X11262000Y-14432500D01*
X11262710Y-14418042D01*
X11264834Y-14403724D01*
X11268351Y-14389683D01*
X11273228Y-14376054D01*
X11279417Y-14362969D01*
X11286858Y-14350553D01*
X11295481Y-14338927D01*
X11305202Y-14328202D01*
X11315927Y-14318481D01*
X11327553Y-14309858D01*
X11339969Y-14302417D01*
X11353054Y-14296228D01*
X11366683Y-14291351D01*
X11380724Y-14287834D01*
X11395042Y-14285710D01*
X11409500Y-14285000D01*
X11704500Y-14285000D01*
X11718958Y-14285710D01*
G37*
G36*
X10748958Y-14285710D02*
G01*
X10763276Y-14287834D01*
X10777317Y-14291351D01*
X10790946Y-14296228D01*
X10804031Y-14302417D01*
X10816447Y-14309858D01*
X10828073Y-14318481D01*
X10838798Y-14328202D01*
X10848519Y-14338927D01*
X10857142Y-14350553D01*
X10864583Y-14362969D01*
X10870772Y-14376054D01*
X10875649Y-14389683D01*
X10879166Y-14403724D01*
X10881290Y-14418042D01*
X10882000Y-14432500D01*
X10882000Y-14777500D01*
X10881290Y-14791958D01*
X10879166Y-14806276D01*
X10875649Y-14820317D01*
X10870772Y-14833946D01*
X10864583Y-14847031D01*
X10857142Y-14859447D01*
X10848519Y-14871073D01*
X10838798Y-14881798D01*
X10828073Y-14891519D01*
X10816447Y-14900142D01*
X10804031Y-14907583D01*
X10790946Y-14913772D01*
X10777317Y-14918649D01*
X10763276Y-14922166D01*
X10748958Y-14924290D01*
X10734500Y-14925000D01*
X10439500Y-14925000D01*
X10425042Y-14924290D01*
X10410724Y-14922166D01*
X10396683Y-14918649D01*
X10383054Y-14913772D01*
X10369969Y-14907583D01*
X10357553Y-14900142D01*
X10345927Y-14891519D01*
X10335202Y-14881798D01*
X10325481Y-14871073D01*
X10316858Y-14859447D01*
X10309417Y-14847031D01*
X10303228Y-14833946D01*
X10298351Y-14820317D01*
X10294834Y-14806276D01*
X10292710Y-14791958D01*
X10292000Y-14777500D01*
X10292000Y-14432500D01*
X10292710Y-14418042D01*
X10294834Y-14403724D01*
X10298351Y-14389683D01*
X10303228Y-14376054D01*
X10309417Y-14362969D01*
X10316858Y-14350553D01*
X10325481Y-14338927D01*
X10335202Y-14328202D01*
X10345927Y-14318481D01*
X10357553Y-14309858D01*
X10369969Y-14302417D01*
X10383054Y-14296228D01*
X10396683Y-14291351D01*
X10410724Y-14287834D01*
X10425042Y-14285710D01*
X10439500Y-14285000D01*
X10734500Y-14285000D01*
X10748958Y-14285710D01*
G37*
G36*
X-20641042Y-11138110D02*
G01*
X-20626724Y-11140234D01*
X-20612683Y-11143751D01*
X-20599054Y-11148628D01*
X-20585969Y-11154817D01*
X-20573553Y-11162258D01*
X-20561927Y-11170881D01*
X-20551202Y-11180602D01*
X-20541481Y-11191327D01*
X-20532858Y-11202953D01*
X-20525417Y-11215369D01*
X-20519228Y-11228454D01*
X-20514351Y-11242083D01*
X-20510834Y-11256124D01*
X-20508710Y-11270442D01*
X-20508000Y-11284900D01*
X-20508000Y-11579900D01*
X-20508710Y-11594358D01*
X-20510834Y-11608676D01*
X-20514351Y-11622717D01*
X-20519228Y-11636346D01*
X-20525417Y-11649431D01*
X-20532858Y-11661847D01*
X-20541481Y-11673473D01*
X-20551202Y-11684198D01*
X-20561927Y-11693919D01*
X-20573553Y-11702542D01*
X-20585969Y-11709983D01*
X-20599054Y-11716172D01*
X-20612683Y-11721049D01*
X-20626724Y-11724566D01*
X-20641042Y-11726690D01*
X-20655500Y-11727400D01*
X-21000500Y-11727400D01*
X-21014958Y-11726690D01*
X-21029276Y-11724566D01*
X-21043317Y-11721049D01*
X-21056946Y-11716172D01*
X-21070031Y-11709983D01*
X-21082447Y-11702542D01*
X-21094073Y-11693919D01*
X-21104798Y-11684198D01*
X-21114519Y-11673473D01*
X-21123142Y-11661847D01*
X-21130583Y-11649431D01*
X-21136772Y-11636346D01*
X-21141649Y-11622717D01*
X-21145166Y-11608676D01*
X-21147290Y-11594358D01*
X-21148000Y-11579900D01*
X-21148000Y-11284900D01*
X-21147290Y-11270442D01*
X-21145166Y-11256124D01*
X-21141649Y-11242083D01*
X-21136772Y-11228454D01*
X-21130583Y-11215369D01*
X-21123142Y-11202953D01*
X-21114519Y-11191327D01*
X-21104798Y-11180602D01*
X-21094073Y-11170881D01*
X-21082447Y-11162258D01*
X-21070031Y-11154817D01*
X-21056946Y-11148628D01*
X-21043317Y-11143751D01*
X-21029276Y-11140234D01*
X-21014958Y-11138110D01*
X-21000500Y-11137400D01*
X-20655500Y-11137400D01*
X-20641042Y-11138110D01*
G37*
G36*
X-20641042Y-10168110D02*
G01*
X-20626724Y-10170234D01*
X-20612683Y-10173751D01*
X-20599054Y-10178628D01*
X-20585969Y-10184817D01*
X-20573553Y-10192258D01*
X-20561927Y-10200881D01*
X-20551202Y-10210602D01*
X-20541481Y-10221327D01*
X-20532858Y-10232953D01*
X-20525417Y-10245369D01*
X-20519228Y-10258454D01*
X-20514351Y-10272083D01*
X-20510834Y-10286124D01*
X-20508710Y-10300442D01*
X-20508000Y-10314900D01*
X-20508000Y-10609900D01*
X-20508710Y-10624358D01*
X-20510834Y-10638676D01*
X-20514351Y-10652717D01*
X-20519228Y-10666346D01*
X-20525417Y-10679431D01*
X-20532858Y-10691847D01*
X-20541481Y-10703473D01*
X-20551202Y-10714198D01*
X-20561927Y-10723919D01*
X-20573553Y-10732542D01*
X-20585969Y-10739983D01*
X-20599054Y-10746172D01*
X-20612683Y-10751049D01*
X-20626724Y-10754566D01*
X-20641042Y-10756690D01*
X-20655500Y-10757400D01*
X-21000500Y-10757400D01*
X-21014958Y-10756690D01*
X-21029276Y-10754566D01*
X-21043317Y-10751049D01*
X-21056946Y-10746172D01*
X-21070031Y-10739983D01*
X-21082447Y-10732542D01*
X-21094073Y-10723919D01*
X-21104798Y-10714198D01*
X-21114519Y-10703473D01*
X-21123142Y-10691847D01*
X-21130583Y-10679431D01*
X-21136772Y-10666346D01*
X-21141649Y-10652717D01*
X-21145166Y-10638676D01*
X-21147290Y-10624358D01*
X-21148000Y-10609900D01*
X-21148000Y-10314900D01*
X-21147290Y-10300442D01*
X-21145166Y-10286124D01*
X-21141649Y-10272083D01*
X-21136772Y-10258454D01*
X-21130583Y-10245369D01*
X-21123142Y-10232953D01*
X-21114519Y-10221327D01*
X-21104798Y-10210602D01*
X-21094073Y-10200881D01*
X-21082447Y-10192258D01*
X-21070031Y-10184817D01*
X-21056946Y-10178628D01*
X-21043317Y-10173751D01*
X-21029276Y-10170234D01*
X-21014958Y-10168110D01*
X-21000500Y-10167400D01*
X-20655500Y-10167400D01*
X-20641042Y-10168110D01*
G37*
G36*
X-2099042Y14518290D02*
G01*
X-2084724Y14516166D01*
X-2070683Y14512649D01*
X-2057054Y14507772D01*
X-2043969Y14501583D01*
X-2031553Y14494142D01*
X-2019927Y14485519D01*
X-2009202Y14475798D01*
X-1999481Y14465073D01*
X-1990858Y14453447D01*
X-1983417Y14441031D01*
X-1977228Y14427946D01*
X-1972351Y14414317D01*
X-1968834Y14400276D01*
X-1966710Y14385958D01*
X-1966000Y14371500D01*
X-1966000Y14076500D01*
X-1966710Y14062042D01*
X-1968834Y14047724D01*
X-1972351Y14033683D01*
X-1977228Y14020054D01*
X-1983417Y14006969D01*
X-1990858Y13994553D01*
X-1999481Y13982927D01*
X-2009202Y13972202D01*
X-2019927Y13962481D01*
X-2031553Y13953858D01*
X-2043969Y13946417D01*
X-2057054Y13940228D01*
X-2070683Y13935351D01*
X-2084724Y13931834D01*
X-2099042Y13929710D01*
X-2113500Y13929000D01*
X-2458500Y13929000D01*
X-2472958Y13929710D01*
X-2487276Y13931834D01*
X-2501317Y13935351D01*
X-2514946Y13940228D01*
X-2528031Y13946417D01*
X-2540447Y13953858D01*
X-2552073Y13962481D01*
X-2562798Y13972202D01*
X-2572519Y13982927D01*
X-2581142Y13994553D01*
X-2588583Y14006969D01*
X-2594772Y14020054D01*
X-2599649Y14033683D01*
X-2603166Y14047724D01*
X-2605290Y14062042D01*
X-2606000Y14076500D01*
X-2606000Y14371500D01*
X-2605290Y14385958D01*
X-2603166Y14400276D01*
X-2599649Y14414317D01*
X-2594772Y14427946D01*
X-2588583Y14441031D01*
X-2581142Y14453447D01*
X-2572519Y14465073D01*
X-2562798Y14475798D01*
X-2552073Y14485519D01*
X-2540447Y14494142D01*
X-2528031Y14501583D01*
X-2514946Y14507772D01*
X-2501317Y14512649D01*
X-2487276Y14516166D01*
X-2472958Y14518290D01*
X-2458500Y14519000D01*
X-2113500Y14519000D01*
X-2099042Y14518290D01*
G37*
G36*
X-2099042Y13548290D02*
G01*
X-2084724Y13546166D01*
X-2070683Y13542649D01*
X-2057054Y13537772D01*
X-2043969Y13531583D01*
X-2031553Y13524142D01*
X-2019927Y13515519D01*
X-2009202Y13505798D01*
X-1999481Y13495073D01*
X-1990858Y13483447D01*
X-1983417Y13471031D01*
X-1977228Y13457946D01*
X-1972351Y13444317D01*
X-1968834Y13430276D01*
X-1966710Y13415958D01*
X-1966000Y13401500D01*
X-1966000Y13106500D01*
X-1966710Y13092042D01*
X-1968834Y13077724D01*
X-1972351Y13063683D01*
X-1977228Y13050054D01*
X-1983417Y13036969D01*
X-1990858Y13024553D01*
X-1999481Y13012927D01*
X-2009202Y13002202D01*
X-2019927Y12992481D01*
X-2031553Y12983858D01*
X-2043969Y12976417D01*
X-2057054Y12970228D01*
X-2070683Y12965351D01*
X-2084724Y12961834D01*
X-2099042Y12959710D01*
X-2113500Y12959000D01*
X-2458500Y12959000D01*
X-2472958Y12959710D01*
X-2487276Y12961834D01*
X-2501317Y12965351D01*
X-2514946Y12970228D01*
X-2528031Y12976417D01*
X-2540447Y12983858D01*
X-2552073Y12992481D01*
X-2562798Y13002202D01*
X-2572519Y13012927D01*
X-2581142Y13024553D01*
X-2588583Y13036969D01*
X-2594772Y13050054D01*
X-2599649Y13063683D01*
X-2603166Y13077724D01*
X-2605290Y13092042D01*
X-2606000Y13106500D01*
X-2606000Y13401500D01*
X-2605290Y13415958D01*
X-2603166Y13430276D01*
X-2599649Y13444317D01*
X-2594772Y13457946D01*
X-2588583Y13471031D01*
X-2581142Y13483447D01*
X-2572519Y13495073D01*
X-2562798Y13505798D01*
X-2552073Y13515519D01*
X-2540447Y13524142D01*
X-2528031Y13531583D01*
X-2514946Y13537772D01*
X-2501317Y13542649D01*
X-2487276Y13546166D01*
X-2472958Y13548290D01*
X-2458500Y13549000D01*
X-2113500Y13549000D01*
X-2099042Y13548290D01*
G37*
G36*
X2599958Y14472290D02*
G01*
X2614276Y14470166D01*
X2628317Y14466649D01*
X2641946Y14461772D01*
X2655031Y14455583D01*
X2667447Y14448142D01*
X2679073Y14439519D01*
X2689798Y14429798D01*
X2699519Y14419073D01*
X2708142Y14407447D01*
X2715583Y14395031D01*
X2721772Y14381946D01*
X2726649Y14368317D01*
X2730166Y14354276D01*
X2732290Y14339958D01*
X2733000Y14325500D01*
X2733000Y14030500D01*
X2732290Y14016042D01*
X2730166Y14001724D01*
X2726649Y13987683D01*
X2721772Y13974054D01*
X2715583Y13960969D01*
X2708142Y13948553D01*
X2699519Y13936927D01*
X2689798Y13926202D01*
X2679073Y13916481D01*
X2667447Y13907858D01*
X2655031Y13900417D01*
X2641946Y13894228D01*
X2628317Y13889351D01*
X2614276Y13885834D01*
X2599958Y13883710D01*
X2585500Y13883000D01*
X2240500Y13883000D01*
X2226042Y13883710D01*
X2211724Y13885834D01*
X2197683Y13889351D01*
X2184054Y13894228D01*
X2170969Y13900417D01*
X2158553Y13907858D01*
X2146927Y13916481D01*
X2136202Y13926202D01*
X2126481Y13936927D01*
X2117858Y13948553D01*
X2110417Y13960969D01*
X2104228Y13974054D01*
X2099351Y13987683D01*
X2095834Y14001724D01*
X2093710Y14016042D01*
X2093000Y14030500D01*
X2093000Y14325500D01*
X2093710Y14339958D01*
X2095834Y14354276D01*
X2099351Y14368317D01*
X2104228Y14381946D01*
X2110417Y14395031D01*
X2117858Y14407447D01*
X2126481Y14419073D01*
X2136202Y14429798D01*
X2146927Y14439519D01*
X2158553Y14448142D01*
X2170969Y14455583D01*
X2184054Y14461772D01*
X2197683Y14466649D01*
X2211724Y14470166D01*
X2226042Y14472290D01*
X2240500Y14473000D01*
X2585500Y14473000D01*
X2599958Y14472290D01*
G37*
G36*
X2599958Y13502290D02*
G01*
X2614276Y13500166D01*
X2628317Y13496649D01*
X2641946Y13491772D01*
X2655031Y13485583D01*
X2667447Y13478142D01*
X2679073Y13469519D01*
X2689798Y13459798D01*
X2699519Y13449073D01*
X2708142Y13437447D01*
X2715583Y13425031D01*
X2721772Y13411946D01*
X2726649Y13398317D01*
X2730166Y13384276D01*
X2732290Y13369958D01*
X2733000Y13355500D01*
X2733000Y13060500D01*
X2732290Y13046042D01*
X2730166Y13031724D01*
X2726649Y13017683D01*
X2721772Y13004054D01*
X2715583Y12990969D01*
X2708142Y12978553D01*
X2699519Y12966927D01*
X2689798Y12956202D01*
X2679073Y12946481D01*
X2667447Y12937858D01*
X2655031Y12930417D01*
X2641946Y12924228D01*
X2628317Y12919351D01*
X2614276Y12915834D01*
X2599958Y12913710D01*
X2585500Y12913000D01*
X2240500Y12913000D01*
X2226042Y12913710D01*
X2211724Y12915834D01*
X2197683Y12919351D01*
X2184054Y12924228D01*
X2170969Y12930417D01*
X2158553Y12937858D01*
X2146927Y12946481D01*
X2136202Y12956202D01*
X2126481Y12966927D01*
X2117858Y12978553D01*
X2110417Y12990969D01*
X2104228Y13004054D01*
X2099351Y13017683D01*
X2095834Y13031724D01*
X2093710Y13046042D01*
X2093000Y13060500D01*
X2093000Y13355500D01*
X2093710Y13369958D01*
X2095834Y13384276D01*
X2099351Y13398317D01*
X2104228Y13411946D01*
X2110417Y13425031D01*
X2117858Y13437447D01*
X2126481Y13449073D01*
X2136202Y13459798D01*
X2146927Y13469519D01*
X2158553Y13478142D01*
X2170969Y13485583D01*
X2184054Y13491772D01*
X2197683Y13496649D01*
X2211724Y13500166D01*
X2226042Y13502290D01*
X2240500Y13503000D01*
X2585500Y13503000D01*
X2599958Y13502290D01*
G37*
G36*
X1915458Y9873290D02*
G01*
X1929776Y9871166D01*
X1943817Y9867649D01*
X1957446Y9862772D01*
X1970531Y9856583D01*
X1982947Y9849142D01*
X1994573Y9840519D01*
X2005298Y9830798D01*
X2015019Y9820073D01*
X2023642Y9808447D01*
X2031083Y9796031D01*
X2037272Y9782946D01*
X2042149Y9769317D01*
X2045666Y9755276D01*
X2047790Y9740958D01*
X2048500Y9726500D01*
X2048500Y9431500D01*
X2047790Y9417042D01*
X2045666Y9402724D01*
X2042149Y9388683D01*
X2037272Y9375054D01*
X2031083Y9361969D01*
X2023642Y9349553D01*
X2015019Y9337927D01*
X2005298Y9327202D01*
X1994573Y9317481D01*
X1982947Y9308858D01*
X1970531Y9301417D01*
X1957446Y9295228D01*
X1943817Y9290351D01*
X1929776Y9286834D01*
X1915458Y9284710D01*
X1901000Y9284000D01*
X1556000Y9284000D01*
X1541542Y9284710D01*
X1527224Y9286834D01*
X1513183Y9290351D01*
X1499554Y9295228D01*
X1486469Y9301417D01*
X1474053Y9308858D01*
X1462427Y9317481D01*
X1451702Y9327202D01*
X1441981Y9337927D01*
X1433358Y9349553D01*
X1425917Y9361969D01*
X1419728Y9375054D01*
X1414851Y9388683D01*
X1411334Y9402724D01*
X1409210Y9417042D01*
X1408500Y9431500D01*
X1408500Y9726500D01*
X1409210Y9740958D01*
X1411334Y9755276D01*
X1414851Y9769317D01*
X1419728Y9782946D01*
X1425917Y9796031D01*
X1433358Y9808447D01*
X1441981Y9820073D01*
X1451702Y9830798D01*
X1462427Y9840519D01*
X1474053Y9849142D01*
X1486469Y9856583D01*
X1499554Y9862772D01*
X1513183Y9867649D01*
X1527224Y9871166D01*
X1541542Y9873290D01*
X1556000Y9874000D01*
X1901000Y9874000D01*
X1915458Y9873290D01*
G37*
G36*
X1915458Y8903290D02*
G01*
X1929776Y8901166D01*
X1943817Y8897649D01*
X1957446Y8892772D01*
X1970531Y8886583D01*
X1982947Y8879142D01*
X1994573Y8870519D01*
X2005298Y8860798D01*
X2015019Y8850073D01*
X2023642Y8838447D01*
X2031083Y8826031D01*
X2037272Y8812946D01*
X2042149Y8799317D01*
X2045666Y8785276D01*
X2047790Y8770958D01*
X2048500Y8756500D01*
X2048500Y8461500D01*
X2047790Y8447042D01*
X2045666Y8432724D01*
X2042149Y8418683D01*
X2037272Y8405054D01*
X2031083Y8391969D01*
X2023642Y8379553D01*
X2015019Y8367927D01*
X2005298Y8357202D01*
X1994573Y8347481D01*
X1982947Y8338858D01*
X1970531Y8331417D01*
X1957446Y8325228D01*
X1943817Y8320351D01*
X1929776Y8316834D01*
X1915458Y8314710D01*
X1901000Y8314000D01*
X1556000Y8314000D01*
X1541542Y8314710D01*
X1527224Y8316834D01*
X1513183Y8320351D01*
X1499554Y8325228D01*
X1486469Y8331417D01*
X1474053Y8338858D01*
X1462427Y8347481D01*
X1451702Y8357202D01*
X1441981Y8367927D01*
X1433358Y8379553D01*
X1425917Y8391969D01*
X1419728Y8405054D01*
X1414851Y8418683D01*
X1411334Y8432724D01*
X1409210Y8447042D01*
X1408500Y8461500D01*
X1408500Y8756500D01*
X1409210Y8770958D01*
X1411334Y8785276D01*
X1414851Y8799317D01*
X1419728Y8812946D01*
X1425917Y8826031D01*
X1433358Y8838447D01*
X1441981Y8850073D01*
X1451702Y8860798D01*
X1462427Y8870519D01*
X1474053Y8879142D01*
X1486469Y8886583D01*
X1499554Y8892772D01*
X1513183Y8897649D01*
X1527224Y8901166D01*
X1541542Y8903290D01*
X1556000Y8904000D01*
X1901000Y8904000D01*
X1915458Y8903290D01*
G37*
G36*
X-2407542Y8530790D02*
G01*
X-2393224Y8528666D01*
X-2379183Y8525149D01*
X-2365554Y8520272D01*
X-2352469Y8514083D01*
X-2340053Y8506642D01*
X-2328427Y8498019D01*
X-2317702Y8488298D01*
X-2307981Y8477573D01*
X-2299358Y8465947D01*
X-2291917Y8453531D01*
X-2285728Y8440446D01*
X-2280851Y8426817D01*
X-2277334Y8412776D01*
X-2275210Y8398458D01*
X-2274500Y8384000D01*
X-2274500Y8039000D01*
X-2275210Y8024542D01*
X-2277334Y8010224D01*
X-2280851Y7996183D01*
X-2285728Y7982554D01*
X-2291917Y7969469D01*
X-2299358Y7957053D01*
X-2307981Y7945427D01*
X-2317702Y7934702D01*
X-2328427Y7924981D01*
X-2340053Y7916358D01*
X-2352469Y7908917D01*
X-2365554Y7902728D01*
X-2379183Y7897851D01*
X-2393224Y7894334D01*
X-2407542Y7892210D01*
X-2422000Y7891500D01*
X-2717000Y7891500D01*
X-2731458Y7892210D01*
X-2745776Y7894334D01*
X-2759817Y7897851D01*
X-2773446Y7902728D01*
X-2786531Y7908917D01*
X-2798947Y7916358D01*
X-2810573Y7924981D01*
X-2821298Y7934702D01*
X-2831019Y7945427D01*
X-2839642Y7957053D01*
X-2847083Y7969469D01*
X-2853272Y7982554D01*
X-2858149Y7996183D01*
X-2861666Y8010224D01*
X-2863790Y8024542D01*
X-2864500Y8039000D01*
X-2864500Y8384000D01*
X-2863790Y8398458D01*
X-2861666Y8412776D01*
X-2858149Y8426817D01*
X-2853272Y8440446D01*
X-2847083Y8453531D01*
X-2839642Y8465947D01*
X-2831019Y8477573D01*
X-2821298Y8488298D01*
X-2810573Y8498019D01*
X-2798947Y8506642D01*
X-2786531Y8514083D01*
X-2773446Y8520272D01*
X-2759817Y8525149D01*
X-2745776Y8528666D01*
X-2731458Y8530790D01*
X-2717000Y8531500D01*
X-2422000Y8531500D01*
X-2407542Y8530790D01*
G37*
G36*
X-1437542Y8530790D02*
G01*
X-1423224Y8528666D01*
X-1409183Y8525149D01*
X-1395554Y8520272D01*
X-1382469Y8514083D01*
X-1370053Y8506642D01*
X-1358427Y8498019D01*
X-1347702Y8488298D01*
X-1337981Y8477573D01*
X-1329358Y8465947D01*
X-1321917Y8453531D01*
X-1315728Y8440446D01*
X-1310851Y8426817D01*
X-1307334Y8412776D01*
X-1305210Y8398458D01*
X-1304500Y8384000D01*
X-1304500Y8039000D01*
X-1305210Y8024542D01*
X-1307334Y8010224D01*
X-1310851Y7996183D01*
X-1315728Y7982554D01*
X-1321917Y7969469D01*
X-1329358Y7957053D01*
X-1337981Y7945427D01*
X-1347702Y7934702D01*
X-1358427Y7924981D01*
X-1370053Y7916358D01*
X-1382469Y7908917D01*
X-1395554Y7902728D01*
X-1409183Y7897851D01*
X-1423224Y7894334D01*
X-1437542Y7892210D01*
X-1452000Y7891500D01*
X-1747000Y7891500D01*
X-1761458Y7892210D01*
X-1775776Y7894334D01*
X-1789817Y7897851D01*
X-1803446Y7902728D01*
X-1816531Y7908917D01*
X-1828947Y7916358D01*
X-1840573Y7924981D01*
X-1851298Y7934702D01*
X-1861019Y7945427D01*
X-1869642Y7957053D01*
X-1877083Y7969469D01*
X-1883272Y7982554D01*
X-1888149Y7996183D01*
X-1891666Y8010224D01*
X-1893790Y8024542D01*
X-1894500Y8039000D01*
X-1894500Y8384000D01*
X-1893790Y8398458D01*
X-1891666Y8412776D01*
X-1888149Y8426817D01*
X-1883272Y8440446D01*
X-1877083Y8453531D01*
X-1869642Y8465947D01*
X-1861019Y8477573D01*
X-1851298Y8488298D01*
X-1840573Y8498019D01*
X-1828947Y8506642D01*
X-1816531Y8514083D01*
X-1803446Y8520272D01*
X-1789817Y8525149D01*
X-1775776Y8528666D01*
X-1761458Y8530790D01*
X-1747000Y8531500D01*
X-1452000Y8531500D01*
X-1437542Y8530790D01*
G37*
G36*
X7523158Y-20000710D02*
G01*
X7537476Y-20002834D01*
X7551517Y-20006351D01*
X7565146Y-20011228D01*
X7578231Y-20017417D01*
X7590647Y-20024858D01*
X7602273Y-20033481D01*
X7612998Y-20043202D01*
X7622719Y-20053927D01*
X7631342Y-20065553D01*
X7638783Y-20077969D01*
X7644972Y-20091054D01*
X7649849Y-20104683D01*
X7653366Y-20118724D01*
X7655490Y-20133042D01*
X7656200Y-20147500D01*
X7656200Y-20492500D01*
X7655490Y-20506958D01*
X7653366Y-20521276D01*
X7649849Y-20535317D01*
X7644972Y-20548946D01*
X7638783Y-20562031D01*
X7631342Y-20574447D01*
X7622719Y-20586073D01*
X7612998Y-20596798D01*
X7602273Y-20606519D01*
X7590647Y-20615142D01*
X7578231Y-20622583D01*
X7565146Y-20628772D01*
X7551517Y-20633649D01*
X7537476Y-20637166D01*
X7523158Y-20639290D01*
X7508700Y-20640000D01*
X7213700Y-20640000D01*
X7199242Y-20639290D01*
X7184924Y-20637166D01*
X7170883Y-20633649D01*
X7157254Y-20628772D01*
X7144169Y-20622583D01*
X7131753Y-20615142D01*
X7120127Y-20606519D01*
X7109402Y-20596798D01*
X7099681Y-20586073D01*
X7091058Y-20574447D01*
X7083617Y-20562031D01*
X7077428Y-20548946D01*
X7072551Y-20535317D01*
X7069034Y-20521276D01*
X7066910Y-20506958D01*
X7066200Y-20492500D01*
X7066200Y-20147500D01*
X7066910Y-20133042D01*
X7069034Y-20118724D01*
X7072551Y-20104683D01*
X7077428Y-20091054D01*
X7083617Y-20077969D01*
X7091058Y-20065553D01*
X7099681Y-20053927D01*
X7109402Y-20043202D01*
X7120127Y-20033481D01*
X7131753Y-20024858D01*
X7144169Y-20017417D01*
X7157254Y-20011228D01*
X7170883Y-20006351D01*
X7184924Y-20002834D01*
X7199242Y-20000710D01*
X7213700Y-20000000D01*
X7508700Y-20000000D01*
X7523158Y-20000710D01*
G37*
G36*
X8493158Y-20000710D02*
G01*
X8507476Y-20002834D01*
X8521517Y-20006351D01*
X8535146Y-20011228D01*
X8548231Y-20017417D01*
X8560647Y-20024858D01*
X8572273Y-20033481D01*
X8582998Y-20043202D01*
X8592719Y-20053927D01*
X8601342Y-20065553D01*
X8608783Y-20077969D01*
X8614972Y-20091054D01*
X8619849Y-20104683D01*
X8623366Y-20118724D01*
X8625490Y-20133042D01*
X8626200Y-20147500D01*
X8626200Y-20492500D01*
X8625490Y-20506958D01*
X8623366Y-20521276D01*
X8619849Y-20535317D01*
X8614972Y-20548946D01*
X8608783Y-20562031D01*
X8601342Y-20574447D01*
X8592719Y-20586073D01*
X8582998Y-20596798D01*
X8572273Y-20606519D01*
X8560647Y-20615142D01*
X8548231Y-20622583D01*
X8535146Y-20628772D01*
X8521517Y-20633649D01*
X8507476Y-20637166D01*
X8493158Y-20639290D01*
X8478700Y-20640000D01*
X8183700Y-20640000D01*
X8169242Y-20639290D01*
X8154924Y-20637166D01*
X8140883Y-20633649D01*
X8127254Y-20628772D01*
X8114169Y-20622583D01*
X8101753Y-20615142D01*
X8090127Y-20606519D01*
X8079402Y-20596798D01*
X8069681Y-20586073D01*
X8061058Y-20574447D01*
X8053617Y-20562031D01*
X8047428Y-20548946D01*
X8042551Y-20535317D01*
X8039034Y-20521276D01*
X8036910Y-20506958D01*
X8036200Y-20492500D01*
X8036200Y-20147500D01*
X8036910Y-20133042D01*
X8039034Y-20118724D01*
X8042551Y-20104683D01*
X8047428Y-20091054D01*
X8053617Y-20077969D01*
X8061058Y-20065553D01*
X8069681Y-20053927D01*
X8079402Y-20043202D01*
X8090127Y-20033481D01*
X8101753Y-20024858D01*
X8114169Y-20017417D01*
X8127254Y-20011228D01*
X8140883Y-20006351D01*
X8154924Y-20002834D01*
X8169242Y-20000710D01*
X8183700Y-20000000D01*
X8478700Y-20000000D01*
X8493158Y-20000710D01*
G37*
G36*
X5673358Y-19037510D02*
G01*
X5687676Y-19039634D01*
X5701717Y-19043151D01*
X5715346Y-19048028D01*
X5728431Y-19054217D01*
X5740847Y-19061658D01*
X5752473Y-19070281D01*
X5763198Y-19080002D01*
X5772919Y-19090727D01*
X5781542Y-19102353D01*
X5788983Y-19114769D01*
X5795172Y-19127854D01*
X5800049Y-19141483D01*
X5803566Y-19155524D01*
X5805690Y-19169842D01*
X5806400Y-19184300D01*
X5806400Y-19479300D01*
X5805690Y-19493758D01*
X5803566Y-19508076D01*
X5800049Y-19522117D01*
X5795172Y-19535746D01*
X5788983Y-19548831D01*
X5781542Y-19561247D01*
X5772919Y-19572873D01*
X5763198Y-19583598D01*
X5752473Y-19593319D01*
X5740847Y-19601942D01*
X5728431Y-19609383D01*
X5715346Y-19615572D01*
X5701717Y-19620449D01*
X5687676Y-19623966D01*
X5673358Y-19626090D01*
X5658900Y-19626800D01*
X5313900Y-19626800D01*
X5299442Y-19626090D01*
X5285124Y-19623966D01*
X5271083Y-19620449D01*
X5257454Y-19615572D01*
X5244369Y-19609383D01*
X5231953Y-19601942D01*
X5220327Y-19593319D01*
X5209602Y-19583598D01*
X5199881Y-19572873D01*
X5191258Y-19561247D01*
X5183817Y-19548831D01*
X5177628Y-19535746D01*
X5172751Y-19522117D01*
X5169234Y-19508076D01*
X5167110Y-19493758D01*
X5166400Y-19479300D01*
X5166400Y-19184300D01*
X5167110Y-19169842D01*
X5169234Y-19155524D01*
X5172751Y-19141483D01*
X5177628Y-19127854D01*
X5183817Y-19114769D01*
X5191258Y-19102353D01*
X5199881Y-19090727D01*
X5209602Y-19080002D01*
X5220327Y-19070281D01*
X5231953Y-19061658D01*
X5244369Y-19054217D01*
X5257454Y-19048028D01*
X5271083Y-19043151D01*
X5285124Y-19039634D01*
X5299442Y-19037510D01*
X5313900Y-19036800D01*
X5658900Y-19036800D01*
X5673358Y-19037510D01*
G37*
G36*
X5673358Y-18067510D02*
G01*
X5687676Y-18069634D01*
X5701717Y-18073151D01*
X5715346Y-18078028D01*
X5728431Y-18084217D01*
X5740847Y-18091658D01*
X5752473Y-18100281D01*
X5763198Y-18110002D01*
X5772919Y-18120727D01*
X5781542Y-18132353D01*
X5788983Y-18144769D01*
X5795172Y-18157854D01*
X5800049Y-18171483D01*
X5803566Y-18185524D01*
X5805690Y-18199842D01*
X5806400Y-18214300D01*
X5806400Y-18509300D01*
X5805690Y-18523758D01*
X5803566Y-18538076D01*
X5800049Y-18552117D01*
X5795172Y-18565746D01*
X5788983Y-18578831D01*
X5781542Y-18591247D01*
X5772919Y-18602873D01*
X5763198Y-18613598D01*
X5752473Y-18623319D01*
X5740847Y-18631942D01*
X5728431Y-18639383D01*
X5715346Y-18645572D01*
X5701717Y-18650449D01*
X5687676Y-18653966D01*
X5673358Y-18656090D01*
X5658900Y-18656800D01*
X5313900Y-18656800D01*
X5299442Y-18656090D01*
X5285124Y-18653966D01*
X5271083Y-18650449D01*
X5257454Y-18645572D01*
X5244369Y-18639383D01*
X5231953Y-18631942D01*
X5220327Y-18623319D01*
X5209602Y-18613598D01*
X5199881Y-18602873D01*
X5191258Y-18591247D01*
X5183817Y-18578831D01*
X5177628Y-18565746D01*
X5172751Y-18552117D01*
X5169234Y-18538076D01*
X5167110Y-18523758D01*
X5166400Y-18509300D01*
X5166400Y-18214300D01*
X5167110Y-18199842D01*
X5169234Y-18185524D01*
X5172751Y-18171483D01*
X5177628Y-18157854D01*
X5183817Y-18144769D01*
X5191258Y-18132353D01*
X5199881Y-18120727D01*
X5209602Y-18110002D01*
X5220327Y-18100281D01*
X5231953Y-18091658D01*
X5244369Y-18084217D01*
X5257454Y-18078028D01*
X5271083Y-18073151D01*
X5285124Y-18069634D01*
X5299442Y-18067510D01*
X5313900Y-18066800D01*
X5658900Y-18066800D01*
X5673358Y-18067510D01*
G37*
G36*
X-19675842Y-11140510D02*
G01*
X-19661524Y-11142634D01*
X-19647483Y-11146151D01*
X-19633854Y-11151028D01*
X-19620769Y-11157217D01*
X-19608353Y-11164658D01*
X-19596727Y-11173281D01*
X-19586002Y-11183002D01*
X-19576281Y-11193727D01*
X-19567658Y-11205353D01*
X-19560217Y-11217769D01*
X-19554028Y-11230854D01*
X-19549151Y-11244483D01*
X-19545634Y-11258524D01*
X-19543510Y-11272842D01*
X-19542800Y-11287300D01*
X-19542800Y-11582300D01*
X-19543510Y-11596758D01*
X-19545634Y-11611076D01*
X-19549151Y-11625117D01*
X-19554028Y-11638746D01*
X-19560217Y-11651831D01*
X-19567658Y-11664247D01*
X-19576281Y-11675873D01*
X-19586002Y-11686598D01*
X-19596727Y-11696319D01*
X-19608353Y-11704942D01*
X-19620769Y-11712383D01*
X-19633854Y-11718572D01*
X-19647483Y-11723449D01*
X-19661524Y-11726966D01*
X-19675842Y-11729090D01*
X-19690300Y-11729800D01*
X-20035300Y-11729800D01*
X-20049758Y-11729090D01*
X-20064076Y-11726966D01*
X-20078117Y-11723449D01*
X-20091746Y-11718572D01*
X-20104831Y-11712383D01*
X-20117247Y-11704942D01*
X-20128873Y-11696319D01*
X-20139598Y-11686598D01*
X-20149319Y-11675873D01*
X-20157942Y-11664247D01*
X-20165383Y-11651831D01*
X-20171572Y-11638746D01*
X-20176449Y-11625117D01*
X-20179966Y-11611076D01*
X-20182090Y-11596758D01*
X-20182800Y-11582300D01*
X-20182800Y-11287300D01*
X-20182090Y-11272842D01*
X-20179966Y-11258524D01*
X-20176449Y-11244483D01*
X-20171572Y-11230854D01*
X-20165383Y-11217769D01*
X-20157942Y-11205353D01*
X-20149319Y-11193727D01*
X-20139598Y-11183002D01*
X-20128873Y-11173281D01*
X-20117247Y-11164658D01*
X-20104831Y-11157217D01*
X-20091746Y-11151028D01*
X-20078117Y-11146151D01*
X-20064076Y-11142634D01*
X-20049758Y-11140510D01*
X-20035300Y-11139800D01*
X-19690300Y-11139800D01*
X-19675842Y-11140510D01*
G37*
G36*
X-19675842Y-10170510D02*
G01*
X-19661524Y-10172634D01*
X-19647483Y-10176151D01*
X-19633854Y-10181028D01*
X-19620769Y-10187217D01*
X-19608353Y-10194658D01*
X-19596727Y-10203281D01*
X-19586002Y-10213002D01*
X-19576281Y-10223727D01*
X-19567658Y-10235353D01*
X-19560217Y-10247769D01*
X-19554028Y-10260854D01*
X-19549151Y-10274483D01*
X-19545634Y-10288524D01*
X-19543510Y-10302842D01*
X-19542800Y-10317300D01*
X-19542800Y-10612300D01*
X-19543510Y-10626758D01*
X-19545634Y-10641076D01*
X-19549151Y-10655117D01*
X-19554028Y-10668746D01*
X-19560217Y-10681831D01*
X-19567658Y-10694247D01*
X-19576281Y-10705873D01*
X-19586002Y-10716598D01*
X-19596727Y-10726319D01*
X-19608353Y-10734942D01*
X-19620769Y-10742383D01*
X-19633854Y-10748572D01*
X-19647483Y-10753449D01*
X-19661524Y-10756966D01*
X-19675842Y-10759090D01*
X-19690300Y-10759800D01*
X-20035300Y-10759800D01*
X-20049758Y-10759090D01*
X-20064076Y-10756966D01*
X-20078117Y-10753449D01*
X-20091746Y-10748572D01*
X-20104831Y-10742383D01*
X-20117247Y-10734942D01*
X-20128873Y-10726319D01*
X-20139598Y-10716598D01*
X-20149319Y-10705873D01*
X-20157942Y-10694247D01*
X-20165383Y-10681831D01*
X-20171572Y-10668746D01*
X-20176449Y-10655117D01*
X-20179966Y-10641076D01*
X-20182090Y-10626758D01*
X-20182800Y-10612300D01*
X-20182800Y-10317300D01*
X-20182090Y-10302842D01*
X-20179966Y-10288524D01*
X-20176449Y-10274483D01*
X-20171572Y-10260854D01*
X-20165383Y-10247769D01*
X-20157942Y-10235353D01*
X-20149319Y-10223727D01*
X-20139598Y-10213002D01*
X-20128873Y-10203281D01*
X-20117247Y-10194658D01*
X-20104831Y-10187217D01*
X-20091746Y-10181028D01*
X-20078117Y-10176151D01*
X-20064076Y-10172634D01*
X-20049758Y-10170510D01*
X-20035300Y-10169800D01*
X-19690300Y-10169800D01*
X-19675842Y-10170510D01*
G37*
G36*
X-20117542Y9780790D02*
G01*
X-20103224Y9778666D01*
X-20089183Y9775149D01*
X-20075554Y9770272D01*
X-20062469Y9764083D01*
X-20050053Y9756642D01*
X-20038427Y9748019D01*
X-20027702Y9738298D01*
X-20017981Y9727573D01*
X-20009358Y9715947D01*
X-20001917Y9703531D01*
X-19995728Y9690446D01*
X-19990851Y9676817D01*
X-19987334Y9662776D01*
X-19985210Y9648458D01*
X-19984500Y9634000D01*
X-19984500Y9289000D01*
X-19985210Y9274542D01*
X-19987334Y9260224D01*
X-19990851Y9246183D01*
X-19995728Y9232554D01*
X-20001917Y9219469D01*
X-20009358Y9207053D01*
X-20017981Y9195427D01*
X-20027702Y9184702D01*
X-20038427Y9174981D01*
X-20050053Y9166358D01*
X-20062469Y9158917D01*
X-20075554Y9152728D01*
X-20089183Y9147851D01*
X-20103224Y9144334D01*
X-20117542Y9142210D01*
X-20132000Y9141500D01*
X-20427000Y9141500D01*
X-20441458Y9142210D01*
X-20455776Y9144334D01*
X-20469817Y9147851D01*
X-20483446Y9152728D01*
X-20496531Y9158917D01*
X-20508947Y9166358D01*
X-20520573Y9174981D01*
X-20531298Y9184702D01*
X-20541019Y9195427D01*
X-20549642Y9207053D01*
X-20557083Y9219469D01*
X-20563272Y9232554D01*
X-20568149Y9246183D01*
X-20571666Y9260224D01*
X-20573790Y9274542D01*
X-20574500Y9289000D01*
X-20574500Y9634000D01*
X-20573790Y9648458D01*
X-20571666Y9662776D01*
X-20568149Y9676817D01*
X-20563272Y9690446D01*
X-20557083Y9703531D01*
X-20549642Y9715947D01*
X-20541019Y9727573D01*
X-20531298Y9738298D01*
X-20520573Y9748019D01*
X-20508947Y9756642D01*
X-20496531Y9764083D01*
X-20483446Y9770272D01*
X-20469817Y9775149D01*
X-20455776Y9778666D01*
X-20441458Y9780790D01*
X-20427000Y9781500D01*
X-20132000Y9781500D01*
X-20117542Y9780790D01*
G37*
G36*
X-21087542Y9780790D02*
G01*
X-21073224Y9778666D01*
X-21059183Y9775149D01*
X-21045554Y9770272D01*
X-21032469Y9764083D01*
X-21020053Y9756642D01*
X-21008427Y9748019D01*
X-20997702Y9738298D01*
X-20987981Y9727573D01*
X-20979358Y9715947D01*
X-20971917Y9703531D01*
X-20965728Y9690446D01*
X-20960851Y9676817D01*
X-20957334Y9662776D01*
X-20955210Y9648458D01*
X-20954500Y9634000D01*
X-20954500Y9289000D01*
X-20955210Y9274542D01*
X-20957334Y9260224D01*
X-20960851Y9246183D01*
X-20965728Y9232554D01*
X-20971917Y9219469D01*
X-20979358Y9207053D01*
X-20987981Y9195427D01*
X-20997702Y9184702D01*
X-21008427Y9174981D01*
X-21020053Y9166358D01*
X-21032469Y9158917D01*
X-21045554Y9152728D01*
X-21059183Y9147851D01*
X-21073224Y9144334D01*
X-21087542Y9142210D01*
X-21102000Y9141500D01*
X-21397000Y9141500D01*
X-21411458Y9142210D01*
X-21425776Y9144334D01*
X-21439817Y9147851D01*
X-21453446Y9152728D01*
X-21466531Y9158917D01*
X-21478947Y9166358D01*
X-21490573Y9174981D01*
X-21501298Y9184702D01*
X-21511019Y9195427D01*
X-21519642Y9207053D01*
X-21527083Y9219469D01*
X-21533272Y9232554D01*
X-21538149Y9246183D01*
X-21541666Y9260224D01*
X-21543790Y9274542D01*
X-21544500Y9289000D01*
X-21544500Y9634000D01*
X-21543790Y9648458D01*
X-21541666Y9662776D01*
X-21538149Y9676817D01*
X-21533272Y9690446D01*
X-21527083Y9703531D01*
X-21519642Y9715947D01*
X-21511019Y9727573D01*
X-21501298Y9738298D01*
X-21490573Y9748019D01*
X-21478947Y9756642D01*
X-21466531Y9764083D01*
X-21453446Y9770272D01*
X-21439817Y9775149D01*
X-21425776Y9778666D01*
X-21411458Y9780790D01*
X-21397000Y9781500D01*
X-21102000Y9781500D01*
X-21087542Y9780790D01*
G37*
G36*
X-19967542Y5462790D02*
G01*
X-19953224Y5460666D01*
X-19939183Y5457149D01*
X-19925554Y5452272D01*
X-19912469Y5446083D01*
X-19900053Y5438642D01*
X-19888427Y5430019D01*
X-19877702Y5420298D01*
X-19867981Y5409573D01*
X-19859358Y5397947D01*
X-19851917Y5385531D01*
X-19845728Y5372446D01*
X-19840851Y5358817D01*
X-19837334Y5344776D01*
X-19835210Y5330458D01*
X-19834500Y5316000D01*
X-19834500Y4971000D01*
X-19835210Y4956542D01*
X-19837334Y4942224D01*
X-19840851Y4928183D01*
X-19845728Y4914554D01*
X-19851917Y4901469D01*
X-19859358Y4889053D01*
X-19867981Y4877427D01*
X-19877702Y4866702D01*
X-19888427Y4856981D01*
X-19900053Y4848358D01*
X-19912469Y4840917D01*
X-19925554Y4834728D01*
X-19939183Y4829851D01*
X-19953224Y4826334D01*
X-19967542Y4824210D01*
X-19982000Y4823500D01*
X-20277000Y4823500D01*
X-20291458Y4824210D01*
X-20305776Y4826334D01*
X-20319817Y4829851D01*
X-20333446Y4834728D01*
X-20346531Y4840917D01*
X-20358947Y4848358D01*
X-20370573Y4856981D01*
X-20381298Y4866702D01*
X-20391019Y4877427D01*
X-20399642Y4889053D01*
X-20407083Y4901469D01*
X-20413272Y4914554D01*
X-20418149Y4928183D01*
X-20421666Y4942224D01*
X-20423790Y4956542D01*
X-20424500Y4971000D01*
X-20424500Y5316000D01*
X-20423790Y5330458D01*
X-20421666Y5344776D01*
X-20418149Y5358817D01*
X-20413272Y5372446D01*
X-20407083Y5385531D01*
X-20399642Y5397947D01*
X-20391019Y5409573D01*
X-20381298Y5420298D01*
X-20370573Y5430019D01*
X-20358947Y5438642D01*
X-20346531Y5446083D01*
X-20333446Y5452272D01*
X-20319817Y5457149D01*
X-20305776Y5460666D01*
X-20291458Y5462790D01*
X-20277000Y5463500D01*
X-19982000Y5463500D01*
X-19967542Y5462790D01*
G37*
G36*
X-20937542Y5462790D02*
G01*
X-20923224Y5460666D01*
X-20909183Y5457149D01*
X-20895554Y5452272D01*
X-20882469Y5446083D01*
X-20870053Y5438642D01*
X-20858427Y5430019D01*
X-20847702Y5420298D01*
X-20837981Y5409573D01*
X-20829358Y5397947D01*
X-20821917Y5385531D01*
X-20815728Y5372446D01*
X-20810851Y5358817D01*
X-20807334Y5344776D01*
X-20805210Y5330458D01*
X-20804500Y5316000D01*
X-20804500Y4971000D01*
X-20805210Y4956542D01*
X-20807334Y4942224D01*
X-20810851Y4928183D01*
X-20815728Y4914554D01*
X-20821917Y4901469D01*
X-20829358Y4889053D01*
X-20837981Y4877427D01*
X-20847702Y4866702D01*
X-20858427Y4856981D01*
X-20870053Y4848358D01*
X-20882469Y4840917D01*
X-20895554Y4834728D01*
X-20909183Y4829851D01*
X-20923224Y4826334D01*
X-20937542Y4824210D01*
X-20952000Y4823500D01*
X-21247000Y4823500D01*
X-21261458Y4824210D01*
X-21275776Y4826334D01*
X-21289817Y4829851D01*
X-21303446Y4834728D01*
X-21316531Y4840917D01*
X-21328947Y4848358D01*
X-21340573Y4856981D01*
X-21351298Y4866702D01*
X-21361019Y4877427D01*
X-21369642Y4889053D01*
X-21377083Y4901469D01*
X-21383272Y4914554D01*
X-21388149Y4928183D01*
X-21391666Y4942224D01*
X-21393790Y4956542D01*
X-21394500Y4971000D01*
X-21394500Y5316000D01*
X-21393790Y5330458D01*
X-21391666Y5344776D01*
X-21388149Y5358817D01*
X-21383272Y5372446D01*
X-21377083Y5385531D01*
X-21369642Y5397947D01*
X-21361019Y5409573D01*
X-21351298Y5420298D01*
X-21340573Y5430019D01*
X-21328947Y5438642D01*
X-21316531Y5446083D01*
X-21303446Y5452272D01*
X-21289817Y5457149D01*
X-21275776Y5460666D01*
X-21261458Y5462790D01*
X-21247000Y5463500D01*
X-20952000Y5463500D01*
X-20937542Y5462790D01*
G37*
G36*
X-15688042Y-2580710D02*
G01*
X-15673724Y-2582834D01*
X-15659683Y-2586351D01*
X-15646054Y-2591228D01*
X-15632969Y-2597417D01*
X-15620553Y-2604858D01*
X-15608927Y-2613481D01*
X-15598202Y-2623202D01*
X-15588481Y-2633927D01*
X-15579858Y-2645553D01*
X-15572417Y-2657969D01*
X-15566228Y-2671054D01*
X-15561351Y-2684683D01*
X-15557834Y-2698724D01*
X-15555710Y-2713042D01*
X-15555000Y-2727500D01*
X-15555000Y-3022500D01*
X-15555710Y-3036958D01*
X-15557834Y-3051276D01*
X-15561351Y-3065317D01*
X-15566228Y-3078946D01*
X-15572417Y-3092031D01*
X-15579858Y-3104447D01*
X-15588481Y-3116073D01*
X-15598202Y-3126798D01*
X-15608927Y-3136519D01*
X-15620553Y-3145142D01*
X-15632969Y-3152583D01*
X-15646054Y-3158772D01*
X-15659683Y-3163649D01*
X-15673724Y-3167166D01*
X-15688042Y-3169290D01*
X-15702500Y-3170000D01*
X-16047500Y-3170000D01*
X-16061958Y-3169290D01*
X-16076276Y-3167166D01*
X-16090317Y-3163649D01*
X-16103946Y-3158772D01*
X-16117031Y-3152583D01*
X-16129447Y-3145142D01*
X-16141073Y-3136519D01*
X-16151798Y-3126798D01*
X-16161519Y-3116073D01*
X-16170142Y-3104447D01*
X-16177583Y-3092031D01*
X-16183772Y-3078946D01*
X-16188649Y-3065317D01*
X-16192166Y-3051276D01*
X-16194290Y-3036958D01*
X-16195000Y-3022500D01*
X-16195000Y-2727500D01*
X-16194290Y-2713042D01*
X-16192166Y-2698724D01*
X-16188649Y-2684683D01*
X-16183772Y-2671054D01*
X-16177583Y-2657969D01*
X-16170142Y-2645553D01*
X-16161519Y-2633927D01*
X-16151798Y-2623202D01*
X-16141073Y-2613481D01*
X-16129447Y-2604858D01*
X-16117031Y-2597417D01*
X-16103946Y-2591228D01*
X-16090317Y-2586351D01*
X-16076276Y-2582834D01*
X-16061958Y-2580710D01*
X-16047500Y-2580000D01*
X-15702500Y-2580000D01*
X-15688042Y-2580710D01*
G37*
G36*
X-15688042Y-1610710D02*
G01*
X-15673724Y-1612834D01*
X-15659683Y-1616351D01*
X-15646054Y-1621228D01*
X-15632969Y-1627417D01*
X-15620553Y-1634858D01*
X-15608927Y-1643481D01*
X-15598202Y-1653202D01*
X-15588481Y-1663927D01*
X-15579858Y-1675553D01*
X-15572417Y-1687969D01*
X-15566228Y-1701054D01*
X-15561351Y-1714683D01*
X-15557834Y-1728724D01*
X-15555710Y-1743042D01*
X-15555000Y-1757500D01*
X-15555000Y-2052500D01*
X-15555710Y-2066958D01*
X-15557834Y-2081276D01*
X-15561351Y-2095317D01*
X-15566228Y-2108946D01*
X-15572417Y-2122031D01*
X-15579858Y-2134447D01*
X-15588481Y-2146073D01*
X-15598202Y-2156798D01*
X-15608927Y-2166519D01*
X-15620553Y-2175142D01*
X-15632969Y-2182583D01*
X-15646054Y-2188772D01*
X-15659683Y-2193649D01*
X-15673724Y-2197166D01*
X-15688042Y-2199290D01*
X-15702500Y-2200000D01*
X-16047500Y-2200000D01*
X-16061958Y-2199290D01*
X-16076276Y-2197166D01*
X-16090317Y-2193649D01*
X-16103946Y-2188772D01*
X-16117031Y-2182583D01*
X-16129447Y-2175142D01*
X-16141073Y-2166519D01*
X-16151798Y-2156798D01*
X-16161519Y-2146073D01*
X-16170142Y-2134447D01*
X-16177583Y-2122031D01*
X-16183772Y-2108946D01*
X-16188649Y-2095317D01*
X-16192166Y-2081276D01*
X-16194290Y-2066958D01*
X-16195000Y-2052500D01*
X-16195000Y-1757500D01*
X-16194290Y-1743042D01*
X-16192166Y-1728724D01*
X-16188649Y-1714683D01*
X-16183772Y-1701054D01*
X-16177583Y-1687969D01*
X-16170142Y-1675553D01*
X-16161519Y-1663927D01*
X-16151798Y-1653202D01*
X-16141073Y-1643481D01*
X-16129447Y-1634858D01*
X-16117031Y-1627417D01*
X-16103946Y-1621228D01*
X-16090317Y-1616351D01*
X-16076276Y-1612834D01*
X-16061958Y-1610710D01*
X-16047500Y-1610000D01*
X-15702500Y-1610000D01*
X-15688042Y-1610710D01*
G37*
G36*
X-14801042Y-3427210D02*
G01*
X-14786724Y-3429334D01*
X-14772683Y-3432851D01*
X-14759054Y-3437728D01*
X-14745969Y-3443917D01*
X-14733553Y-3451358D01*
X-14721927Y-3459981D01*
X-14711202Y-3469702D01*
X-14701481Y-3480427D01*
X-14692858Y-3492053D01*
X-14685417Y-3504469D01*
X-14679228Y-3517554D01*
X-14674351Y-3531183D01*
X-14670834Y-3545224D01*
X-14668710Y-3559542D01*
X-14668000Y-3574000D01*
X-14668000Y-3919000D01*
X-14668710Y-3933458D01*
X-14670834Y-3947776D01*
X-14674351Y-3961817D01*
X-14679228Y-3975446D01*
X-14685417Y-3988531D01*
X-14692858Y-4000947D01*
X-14701481Y-4012573D01*
X-14711202Y-4023298D01*
X-14721927Y-4033019D01*
X-14733553Y-4041642D01*
X-14745969Y-4049083D01*
X-14759054Y-4055272D01*
X-14772683Y-4060149D01*
X-14786724Y-4063666D01*
X-14801042Y-4065790D01*
X-14815500Y-4066500D01*
X-15110500Y-4066500D01*
X-15124958Y-4065790D01*
X-15139276Y-4063666D01*
X-15153317Y-4060149D01*
X-15166946Y-4055272D01*
X-15180031Y-4049083D01*
X-15192447Y-4041642D01*
X-15204073Y-4033019D01*
X-15214798Y-4023298D01*
X-15224519Y-4012573D01*
X-15233142Y-4000947D01*
X-15240583Y-3988531D01*
X-15246772Y-3975446D01*
X-15251649Y-3961817D01*
X-15255166Y-3947776D01*
X-15257290Y-3933458D01*
X-15258000Y-3919000D01*
X-15258000Y-3574000D01*
X-15257290Y-3559542D01*
X-15255166Y-3545224D01*
X-15251649Y-3531183D01*
X-15246772Y-3517554D01*
X-15240583Y-3504469D01*
X-15233142Y-3492053D01*
X-15224519Y-3480427D01*
X-15214798Y-3469702D01*
X-15204073Y-3459981D01*
X-15192447Y-3451358D01*
X-15180031Y-3443917D01*
X-15166946Y-3437728D01*
X-15153317Y-3432851D01*
X-15139276Y-3429334D01*
X-15124958Y-3427210D01*
X-15110500Y-3426500D01*
X-14815500Y-3426500D01*
X-14801042Y-3427210D01*
G37*
G36*
X-13831042Y-3427210D02*
G01*
X-13816724Y-3429334D01*
X-13802683Y-3432851D01*
X-13789054Y-3437728D01*
X-13775969Y-3443917D01*
X-13763553Y-3451358D01*
X-13751927Y-3459981D01*
X-13741202Y-3469702D01*
X-13731481Y-3480427D01*
X-13722858Y-3492053D01*
X-13715417Y-3504469D01*
X-13709228Y-3517554D01*
X-13704351Y-3531183D01*
X-13700834Y-3545224D01*
X-13698710Y-3559542D01*
X-13698000Y-3574000D01*
X-13698000Y-3919000D01*
X-13698710Y-3933458D01*
X-13700834Y-3947776D01*
X-13704351Y-3961817D01*
X-13709228Y-3975446D01*
X-13715417Y-3988531D01*
X-13722858Y-4000947D01*
X-13731481Y-4012573D01*
X-13741202Y-4023298D01*
X-13751927Y-4033019D01*
X-13763553Y-4041642D01*
X-13775969Y-4049083D01*
X-13789054Y-4055272D01*
X-13802683Y-4060149D01*
X-13816724Y-4063666D01*
X-13831042Y-4065790D01*
X-13845500Y-4066500D01*
X-14140500Y-4066500D01*
X-14154958Y-4065790D01*
X-14169276Y-4063666D01*
X-14183317Y-4060149D01*
X-14196946Y-4055272D01*
X-14210031Y-4049083D01*
X-14222447Y-4041642D01*
X-14234073Y-4033019D01*
X-14244798Y-4023298D01*
X-14254519Y-4012573D01*
X-14263142Y-4000947D01*
X-14270583Y-3988531D01*
X-14276772Y-3975446D01*
X-14281649Y-3961817D01*
X-14285166Y-3947776D01*
X-14287290Y-3933458D01*
X-14288000Y-3919000D01*
X-14288000Y-3574000D01*
X-14287290Y-3559542D01*
X-14285166Y-3545224D01*
X-14281649Y-3531183D01*
X-14276772Y-3517554D01*
X-14270583Y-3504469D01*
X-14263142Y-3492053D01*
X-14254519Y-3480427D01*
X-14244798Y-3469702D01*
X-14234073Y-3459981D01*
X-14222447Y-3451358D01*
X-14210031Y-3443917D01*
X-14196946Y-3437728D01*
X-14183317Y-3432851D01*
X-14169276Y-3429334D01*
X-14154958Y-3427210D01*
X-14140500Y-3426500D01*
X-13845500Y-3426500D01*
X-13831042Y-3427210D01*
G37*
G36*
X-14633942Y-13904310D02*
G01*
X-14619624Y-13906434D01*
X-14605583Y-13909951D01*
X-14591954Y-13914828D01*
X-14578869Y-13921017D01*
X-14566453Y-13928458D01*
X-14554827Y-13937081D01*
X-14544102Y-13946802D01*
X-14534381Y-13957527D01*
X-14525758Y-13969153D01*
X-14518317Y-13981569D01*
X-14512128Y-13994654D01*
X-14507251Y-14008283D01*
X-14503734Y-14022324D01*
X-14501610Y-14036642D01*
X-14500900Y-14051100D01*
X-14500900Y-14346100D01*
X-14501610Y-14360558D01*
X-14503734Y-14374876D01*
X-14507251Y-14388917D01*
X-14512128Y-14402546D01*
X-14518317Y-14415631D01*
X-14525758Y-14428047D01*
X-14534381Y-14439673D01*
X-14544102Y-14450398D01*
X-14554827Y-14460119D01*
X-14566453Y-14468742D01*
X-14578869Y-14476183D01*
X-14591954Y-14482372D01*
X-14605583Y-14487249D01*
X-14619624Y-14490766D01*
X-14633942Y-14492890D01*
X-14648400Y-14493600D01*
X-14993400Y-14493600D01*
X-15007858Y-14492890D01*
X-15022176Y-14490766D01*
X-15036217Y-14487249D01*
X-15049846Y-14482372D01*
X-15062931Y-14476183D01*
X-15075347Y-14468742D01*
X-15086973Y-14460119D01*
X-15097698Y-14450398D01*
X-15107419Y-14439673D01*
X-15116042Y-14428047D01*
X-15123483Y-14415631D01*
X-15129672Y-14402546D01*
X-15134549Y-14388917D01*
X-15138066Y-14374876D01*
X-15140190Y-14360558D01*
X-15140900Y-14346100D01*
X-15140900Y-14051100D01*
X-15140190Y-14036642D01*
X-15138066Y-14022324D01*
X-15134549Y-14008283D01*
X-15129672Y-13994654D01*
X-15123483Y-13981569D01*
X-15116042Y-13969153D01*
X-15107419Y-13957527D01*
X-15097698Y-13946802D01*
X-15086973Y-13937081D01*
X-15075347Y-13928458D01*
X-15062931Y-13921017D01*
X-15049846Y-13914828D01*
X-15036217Y-13909951D01*
X-15022176Y-13906434D01*
X-15007858Y-13904310D01*
X-14993400Y-13903600D01*
X-14648400Y-13903600D01*
X-14633942Y-13904310D01*
G37*
G36*
X-14633942Y-14874310D02*
G01*
X-14619624Y-14876434D01*
X-14605583Y-14879951D01*
X-14591954Y-14884828D01*
X-14578869Y-14891017D01*
X-14566453Y-14898458D01*
X-14554827Y-14907081D01*
X-14544102Y-14916802D01*
X-14534381Y-14927527D01*
X-14525758Y-14939153D01*
X-14518317Y-14951569D01*
X-14512128Y-14964654D01*
X-14507251Y-14978283D01*
X-14503734Y-14992324D01*
X-14501610Y-15006642D01*
X-14500900Y-15021100D01*
X-14500900Y-15316100D01*
X-14501610Y-15330558D01*
X-14503734Y-15344876D01*
X-14507251Y-15358917D01*
X-14512128Y-15372546D01*
X-14518317Y-15385631D01*
X-14525758Y-15398047D01*
X-14534381Y-15409673D01*
X-14544102Y-15420398D01*
X-14554827Y-15430119D01*
X-14566453Y-15438742D01*
X-14578869Y-15446183D01*
X-14591954Y-15452372D01*
X-14605583Y-15457249D01*
X-14619624Y-15460766D01*
X-14633942Y-15462890D01*
X-14648400Y-15463600D01*
X-14993400Y-15463600D01*
X-15007858Y-15462890D01*
X-15022176Y-15460766D01*
X-15036217Y-15457249D01*
X-15049846Y-15452372D01*
X-15062931Y-15446183D01*
X-15075347Y-15438742D01*
X-15086973Y-15430119D01*
X-15097698Y-15420398D01*
X-15107419Y-15409673D01*
X-15116042Y-15398047D01*
X-15123483Y-15385631D01*
X-15129672Y-15372546D01*
X-15134549Y-15358917D01*
X-15138066Y-15344876D01*
X-15140190Y-15330558D01*
X-15140900Y-15316100D01*
X-15140900Y-15021100D01*
X-15140190Y-15006642D01*
X-15138066Y-14992324D01*
X-15134549Y-14978283D01*
X-15129672Y-14964654D01*
X-15123483Y-14951569D01*
X-15116042Y-14939153D01*
X-15107419Y-14927527D01*
X-15097698Y-14916802D01*
X-15086973Y-14907081D01*
X-15075347Y-14898458D01*
X-15062931Y-14891017D01*
X-15049846Y-14884828D01*
X-15036217Y-14879951D01*
X-15022176Y-14876434D01*
X-15007858Y-14874310D01*
X-14993400Y-14873600D01*
X-14648400Y-14873600D01*
X-14633942Y-14874310D01*
G37*
G36*
X-9998042Y-15809710D02*
G01*
X-9983724Y-15811834D01*
X-9969683Y-15815351D01*
X-9956054Y-15820228D01*
X-9942969Y-15826417D01*
X-9930553Y-15833858D01*
X-9918927Y-15842481D01*
X-9908202Y-15852202D01*
X-9898481Y-15862927D01*
X-9889858Y-15874553D01*
X-9882417Y-15886969D01*
X-9876228Y-15900054D01*
X-9871351Y-15913683D01*
X-9867834Y-15927724D01*
X-9865710Y-15942042D01*
X-9865000Y-15956500D01*
X-9865000Y-16301500D01*
X-9865710Y-16315958D01*
X-9867834Y-16330276D01*
X-9871351Y-16344317D01*
X-9876228Y-16357946D01*
X-9882417Y-16371031D01*
X-9889858Y-16383447D01*
X-9898481Y-16395073D01*
X-9908202Y-16405798D01*
X-9918927Y-16415519D01*
X-9930553Y-16424142D01*
X-9942969Y-16431583D01*
X-9956054Y-16437772D01*
X-9969683Y-16442649D01*
X-9983724Y-16446166D01*
X-9998042Y-16448290D01*
X-10012500Y-16449000D01*
X-10307500Y-16449000D01*
X-10321958Y-16448290D01*
X-10336276Y-16446166D01*
X-10350317Y-16442649D01*
X-10363946Y-16437772D01*
X-10377031Y-16431583D01*
X-10389447Y-16424142D01*
X-10401073Y-16415519D01*
X-10411798Y-16405798D01*
X-10421519Y-16395073D01*
X-10430142Y-16383447D01*
X-10437583Y-16371031D01*
X-10443772Y-16357946D01*
X-10448649Y-16344317D01*
X-10452166Y-16330276D01*
X-10454290Y-16315958D01*
X-10455000Y-16301500D01*
X-10455000Y-15956500D01*
X-10454290Y-15942042D01*
X-10452166Y-15927724D01*
X-10448649Y-15913683D01*
X-10443772Y-15900054D01*
X-10437583Y-15886969D01*
X-10430142Y-15874553D01*
X-10421519Y-15862927D01*
X-10411798Y-15852202D01*
X-10401073Y-15842481D01*
X-10389447Y-15833858D01*
X-10377031Y-15826417D01*
X-10363946Y-15820228D01*
X-10350317Y-15815351D01*
X-10336276Y-15811834D01*
X-10321958Y-15809710D01*
X-10307500Y-15809000D01*
X-10012500Y-15809000D01*
X-9998042Y-15809710D01*
G37*
G36*
X-10968042Y-15809710D02*
G01*
X-10953724Y-15811834D01*
X-10939683Y-15815351D01*
X-10926054Y-15820228D01*
X-10912969Y-15826417D01*
X-10900553Y-15833858D01*
X-10888927Y-15842481D01*
X-10878202Y-15852202D01*
X-10868481Y-15862927D01*
X-10859858Y-15874553D01*
X-10852417Y-15886969D01*
X-10846228Y-15900054D01*
X-10841351Y-15913683D01*
X-10837834Y-15927724D01*
X-10835710Y-15942042D01*
X-10835000Y-15956500D01*
X-10835000Y-16301500D01*
X-10835710Y-16315958D01*
X-10837834Y-16330276D01*
X-10841351Y-16344317D01*
X-10846228Y-16357946D01*
X-10852417Y-16371031D01*
X-10859858Y-16383447D01*
X-10868481Y-16395073D01*
X-10878202Y-16405798D01*
X-10888927Y-16415519D01*
X-10900553Y-16424142D01*
X-10912969Y-16431583D01*
X-10926054Y-16437772D01*
X-10939683Y-16442649D01*
X-10953724Y-16446166D01*
X-10968042Y-16448290D01*
X-10982500Y-16449000D01*
X-11277500Y-16449000D01*
X-11291958Y-16448290D01*
X-11306276Y-16446166D01*
X-11320317Y-16442649D01*
X-11333946Y-16437772D01*
X-11347031Y-16431583D01*
X-11359447Y-16424142D01*
X-11371073Y-16415519D01*
X-11381798Y-16405798D01*
X-11391519Y-16395073D01*
X-11400142Y-16383447D01*
X-11407583Y-16371031D01*
X-11413772Y-16357946D01*
X-11418649Y-16344317D01*
X-11422166Y-16330276D01*
X-11424290Y-16315958D01*
X-11425000Y-16301500D01*
X-11425000Y-15956500D01*
X-11424290Y-15942042D01*
X-11422166Y-15927724D01*
X-11418649Y-15913683D01*
X-11413772Y-15900054D01*
X-11407583Y-15886969D01*
X-11400142Y-15874553D01*
X-11391519Y-15862927D01*
X-11381798Y-15852202D01*
X-11371073Y-15842481D01*
X-11359447Y-15833858D01*
X-11347031Y-15826417D01*
X-11333946Y-15820228D01*
X-11320317Y-15815351D01*
X-11306276Y-15811834D01*
X-11291958Y-15809710D01*
X-11277500Y-15809000D01*
X-10982500Y-15809000D01*
X-10968042Y-15809710D01*
G37*
G36*
X-12601942Y-16865810D02*
G01*
X-12587624Y-16867934D01*
X-12573583Y-16871451D01*
X-12559954Y-16876328D01*
X-12546869Y-16882517D01*
X-12534453Y-16889958D01*
X-12522827Y-16898581D01*
X-12512102Y-16908302D01*
X-12502381Y-16919027D01*
X-12493758Y-16930653D01*
X-12486317Y-16943069D01*
X-12480128Y-16956154D01*
X-12475251Y-16969783D01*
X-12471734Y-16983824D01*
X-12469610Y-16998142D01*
X-12468900Y-17012600D01*
X-12468900Y-17307600D01*
X-12469610Y-17322058D01*
X-12471734Y-17336376D01*
X-12475251Y-17350417D01*
X-12480128Y-17364046D01*
X-12486317Y-17377131D01*
X-12493758Y-17389547D01*
X-12502381Y-17401173D01*
X-12512102Y-17411898D01*
X-12522827Y-17421619D01*
X-12534453Y-17430242D01*
X-12546869Y-17437683D01*
X-12559954Y-17443872D01*
X-12573583Y-17448749D01*
X-12587624Y-17452266D01*
X-12601942Y-17454390D01*
X-12616400Y-17455100D01*
X-12961400Y-17455100D01*
X-12975858Y-17454390D01*
X-12990176Y-17452266D01*
X-13004217Y-17448749D01*
X-13017846Y-17443872D01*
X-13030931Y-17437683D01*
X-13043347Y-17430242D01*
X-13054973Y-17421619D01*
X-13065698Y-17411898D01*
X-13075419Y-17401173D01*
X-13084042Y-17389547D01*
X-13091483Y-17377131D01*
X-13097672Y-17364046D01*
X-13102549Y-17350417D01*
X-13106066Y-17336376D01*
X-13108190Y-17322058D01*
X-13108900Y-17307600D01*
X-13108900Y-17012600D01*
X-13108190Y-16998142D01*
X-13106066Y-16983824D01*
X-13102549Y-16969783D01*
X-13097672Y-16956154D01*
X-13091483Y-16943069D01*
X-13084042Y-16930653D01*
X-13075419Y-16919027D01*
X-13065698Y-16908302D01*
X-13054973Y-16898581D01*
X-13043347Y-16889958D01*
X-13030931Y-16882517D01*
X-13017846Y-16876328D01*
X-13004217Y-16871451D01*
X-12990176Y-16867934D01*
X-12975858Y-16865810D01*
X-12961400Y-16865100D01*
X-12616400Y-16865100D01*
X-12601942Y-16865810D01*
G37*
G36*
X-12601942Y-15895810D02*
G01*
X-12587624Y-15897934D01*
X-12573583Y-15901451D01*
X-12559954Y-15906328D01*
X-12546869Y-15912517D01*
X-12534453Y-15919958D01*
X-12522827Y-15928581D01*
X-12512102Y-15938302D01*
X-12502381Y-15949027D01*
X-12493758Y-15960653D01*
X-12486317Y-15973069D01*
X-12480128Y-15986154D01*
X-12475251Y-15999783D01*
X-12471734Y-16013824D01*
X-12469610Y-16028142D01*
X-12468900Y-16042600D01*
X-12468900Y-16337600D01*
X-12469610Y-16352058D01*
X-12471734Y-16366376D01*
X-12475251Y-16380417D01*
X-12480128Y-16394046D01*
X-12486317Y-16407131D01*
X-12493758Y-16419547D01*
X-12502381Y-16431173D01*
X-12512102Y-16441898D01*
X-12522827Y-16451619D01*
X-12534453Y-16460242D01*
X-12546869Y-16467683D01*
X-12559954Y-16473872D01*
X-12573583Y-16478749D01*
X-12587624Y-16482266D01*
X-12601942Y-16484390D01*
X-12616400Y-16485100D01*
X-12961400Y-16485100D01*
X-12975858Y-16484390D01*
X-12990176Y-16482266D01*
X-13004217Y-16478749D01*
X-13017846Y-16473872D01*
X-13030931Y-16467683D01*
X-13043347Y-16460242D01*
X-13054973Y-16451619D01*
X-13065698Y-16441898D01*
X-13075419Y-16431173D01*
X-13084042Y-16419547D01*
X-13091483Y-16407131D01*
X-13097672Y-16394046D01*
X-13102549Y-16380417D01*
X-13106066Y-16366376D01*
X-13108190Y-16352058D01*
X-13108900Y-16337600D01*
X-13108900Y-16042600D01*
X-13108190Y-16028142D01*
X-13106066Y-16013824D01*
X-13102549Y-15999783D01*
X-13097672Y-15986154D01*
X-13091483Y-15973069D01*
X-13084042Y-15960653D01*
X-13075419Y-15949027D01*
X-13065698Y-15938302D01*
X-13054973Y-15928581D01*
X-13043347Y-15919958D01*
X-13030931Y-15912517D01*
X-13017846Y-15906328D01*
X-13004217Y-15901451D01*
X-12990176Y-15897934D01*
X-12975858Y-15895810D01*
X-12961400Y-15895100D01*
X-12616400Y-15895100D01*
X-12601942Y-15895810D01*
G37*
M02*
