G04 #@! TF.GenerationSoftware,KiCad,Pcbnew,5.1.5-52549c5~84~ubuntu18.04.1*
G04 #@! TF.CreationDate,2019-12-19T20:37:04-05:00*
G04 #@! TF.ProjectId,SwarmBot,53776172-6d42-46f7-942e-6b696361645f,rev?*
G04 #@! TF.SameCoordinates,Original*
G04 #@! TF.FileFunction,Soldermask,Bot*
G04 #@! TF.FilePolarity,Negative*
%FSLAX46Y46*%
G04 Gerber Fmt 4.6, Leading zero omitted, Abs format (unit mm)*
G04 Created by KiCad (PCBNEW 5.1.5-52549c5~84~ubuntu18.04.1) date 2019-12-19 20:37:04*
%MOMM*%
%LPD*%
G04 APERTURE LIST*
%ADD10C,0.100000*%
G04 APERTURE END LIST*
D10*
G36*
X379487Y-18748996D02*
G01*
X616253Y-18847068D01*
X616255Y-18847069D01*
X829339Y-18989447D01*
X1010553Y-19170661D01*
X1152932Y-19383747D01*
X1251004Y-19620513D01*
X1301000Y-19871861D01*
X1301000Y-20128139D01*
X1251004Y-20379487D01*
X1152932Y-20616253D01*
X1152931Y-20616255D01*
X1010553Y-20829339D01*
X829339Y-21010553D01*
X616255Y-21152931D01*
X616254Y-21152932D01*
X616253Y-21152932D01*
X379487Y-21251004D01*
X128139Y-21301000D01*
X-128139Y-21301000D01*
X-379487Y-21251004D01*
X-616253Y-21152932D01*
X-616254Y-21152932D01*
X-616255Y-21152931D01*
X-829339Y-21010553D01*
X-1010553Y-20829339D01*
X-1152931Y-20616255D01*
X-1152932Y-20616253D01*
X-1251004Y-20379487D01*
X-1301000Y-20128139D01*
X-1301000Y-19871861D01*
X-1251004Y-19620513D01*
X-1152932Y-19383747D01*
X-1010553Y-19170661D01*
X-829339Y-18989447D01*
X-616255Y-18847069D01*
X-616253Y-18847068D01*
X-379487Y-18748996D01*
X-128139Y-18699000D01*
X128139Y-18699000D01*
X379487Y-18748996D01*
G37*
G36*
X17979487Y-8348996D02*
G01*
X18216253Y-8447068D01*
X18216255Y-8447069D01*
X18429339Y-8589447D01*
X18610553Y-8770661D01*
X18731052Y-8951000D01*
X18752932Y-8983747D01*
X18851004Y-9220513D01*
X18901000Y-9471861D01*
X18901000Y-9728139D01*
X18851004Y-9979487D01*
X18752932Y-10216253D01*
X18752931Y-10216255D01*
X18610553Y-10429339D01*
X18429339Y-10610553D01*
X18216255Y-10752931D01*
X18216254Y-10752932D01*
X18216253Y-10752932D01*
X17979487Y-10851004D01*
X17728139Y-10901000D01*
X17471861Y-10901000D01*
X17220513Y-10851004D01*
X16983747Y-10752932D01*
X16983746Y-10752932D01*
X16983745Y-10752931D01*
X16770661Y-10610553D01*
X16589447Y-10429339D01*
X16447069Y-10216255D01*
X16447068Y-10216253D01*
X16348996Y-9979487D01*
X16299000Y-9728139D01*
X16299000Y-9471861D01*
X16348996Y-9220513D01*
X16447068Y-8983747D01*
X16468949Y-8951000D01*
X16589447Y-8770661D01*
X16770661Y-8589447D01*
X16983745Y-8447069D01*
X16983747Y-8447068D01*
X17220513Y-8348996D01*
X17471861Y-8299000D01*
X17728139Y-8299000D01*
X17979487Y-8348996D01*
G37*
G36*
X5979487Y-8348996D02*
G01*
X6216253Y-8447068D01*
X6216255Y-8447069D01*
X6429339Y-8589447D01*
X6610553Y-8770661D01*
X6731052Y-8951000D01*
X6752932Y-8983747D01*
X6851004Y-9220513D01*
X6901000Y-9471861D01*
X6901000Y-9728139D01*
X6851004Y-9979487D01*
X6752932Y-10216253D01*
X6752931Y-10216255D01*
X6610553Y-10429339D01*
X6429339Y-10610553D01*
X6216255Y-10752931D01*
X6216254Y-10752932D01*
X6216253Y-10752932D01*
X5979487Y-10851004D01*
X5728139Y-10901000D01*
X5471861Y-10901000D01*
X5220513Y-10851004D01*
X4983747Y-10752932D01*
X4983746Y-10752932D01*
X4983745Y-10752931D01*
X4770661Y-10610553D01*
X4589447Y-10429339D01*
X4447069Y-10216255D01*
X4447068Y-10216253D01*
X4348996Y-9979487D01*
X4299000Y-9728139D01*
X4299000Y-9471861D01*
X4348996Y-9220513D01*
X4447068Y-8983747D01*
X4468949Y-8951000D01*
X4589447Y-8770661D01*
X4770661Y-8589447D01*
X4983745Y-8447069D01*
X4983747Y-8447068D01*
X5220513Y-8348996D01*
X5471861Y-8299000D01*
X5728139Y-8299000D01*
X5979487Y-8348996D01*
G37*
G36*
X9850721Y-7870174D02*
G01*
X9950995Y-7911709D01*
X9950996Y-7911710D01*
X10041242Y-7972010D01*
X10117990Y-8048758D01*
X10117991Y-8048760D01*
X10178291Y-8139005D01*
X10209516Y-8214389D01*
X10221067Y-8236000D01*
X10236612Y-8254941D01*
X10255554Y-8270487D01*
X10277165Y-8282038D01*
X10300614Y-8289151D01*
X10325000Y-8291553D01*
X10349386Y-8289151D01*
X10372835Y-8282038D01*
X10394446Y-8270487D01*
X10413387Y-8254942D01*
X10428933Y-8236000D01*
X10440484Y-8214389D01*
X10471709Y-8139005D01*
X10532009Y-8048760D01*
X10532010Y-8048758D01*
X10608758Y-7972010D01*
X10699004Y-7911710D01*
X10699005Y-7911709D01*
X10799279Y-7870174D01*
X10905730Y-7849000D01*
X11014270Y-7849000D01*
X11120721Y-7870174D01*
X11220995Y-7911709D01*
X11220996Y-7911710D01*
X11311242Y-7972010D01*
X11387990Y-8048758D01*
X11387991Y-8048760D01*
X11448291Y-8139005D01*
X11479516Y-8214389D01*
X11491067Y-8236000D01*
X11506612Y-8254941D01*
X11525554Y-8270487D01*
X11547165Y-8282038D01*
X11570614Y-8289151D01*
X11595000Y-8291553D01*
X11619386Y-8289151D01*
X11642835Y-8282038D01*
X11664446Y-8270487D01*
X11683387Y-8254942D01*
X11698933Y-8236000D01*
X11710484Y-8214389D01*
X11741709Y-8139005D01*
X11802009Y-8048760D01*
X11802010Y-8048758D01*
X11878758Y-7972010D01*
X11969004Y-7911710D01*
X11969005Y-7911709D01*
X12069279Y-7870174D01*
X12175730Y-7849000D01*
X12284270Y-7849000D01*
X12390721Y-7870174D01*
X12490995Y-7911709D01*
X12490996Y-7911710D01*
X12581242Y-7972010D01*
X12657990Y-8048758D01*
X12657991Y-8048760D01*
X12720068Y-8141664D01*
X12735614Y-8160606D01*
X12754556Y-8176151D01*
X12776167Y-8187702D01*
X12799615Y-8194815D01*
X12824002Y-8197217D01*
X12848388Y-8194815D01*
X12871837Y-8187702D01*
X12893447Y-8176151D01*
X12912389Y-8160605D01*
X12927934Y-8141663D01*
X12939485Y-8120052D01*
X12946598Y-8096604D01*
X12949000Y-8072218D01*
X12949000Y-7849000D01*
X14051000Y-7849000D01*
X14051000Y-8951000D01*
X12949000Y-8951000D01*
X12949000Y-8727782D01*
X12946598Y-8703396D01*
X12939485Y-8679947D01*
X12927934Y-8658336D01*
X12912389Y-8639394D01*
X12893447Y-8623849D01*
X12871836Y-8612298D01*
X12848387Y-8605185D01*
X12824001Y-8602783D01*
X12799615Y-8605185D01*
X12776166Y-8612298D01*
X12754555Y-8623849D01*
X12735613Y-8639394D01*
X12720068Y-8658336D01*
X12678988Y-8719816D01*
X12657990Y-8751242D01*
X12581242Y-8827990D01*
X12535812Y-8858345D01*
X12490995Y-8888291D01*
X12390721Y-8929826D01*
X12284270Y-8951000D01*
X12175730Y-8951000D01*
X12069279Y-8929826D01*
X11969005Y-8888291D01*
X11924188Y-8858345D01*
X11878758Y-8827990D01*
X11802010Y-8751242D01*
X11770041Y-8703396D01*
X11741709Y-8660995D01*
X11710484Y-8585611D01*
X11698933Y-8564000D01*
X11683388Y-8545059D01*
X11664446Y-8529513D01*
X11642835Y-8517962D01*
X11619386Y-8510849D01*
X11595000Y-8508447D01*
X11570614Y-8510849D01*
X11547165Y-8517962D01*
X11525554Y-8529513D01*
X11506613Y-8545058D01*
X11491067Y-8564000D01*
X11479516Y-8585611D01*
X11448291Y-8660995D01*
X11419959Y-8703396D01*
X11387990Y-8751242D01*
X11311242Y-8827990D01*
X11265812Y-8858345D01*
X11220995Y-8888291D01*
X11120721Y-8929826D01*
X11014270Y-8951000D01*
X10905730Y-8951000D01*
X10799279Y-8929826D01*
X10699005Y-8888291D01*
X10654188Y-8858345D01*
X10608758Y-8827990D01*
X10532010Y-8751242D01*
X10500041Y-8703396D01*
X10471709Y-8660995D01*
X10440484Y-8585611D01*
X10428933Y-8564000D01*
X10413388Y-8545059D01*
X10394446Y-8529513D01*
X10372835Y-8517962D01*
X10349386Y-8510849D01*
X10325000Y-8508447D01*
X10300614Y-8510849D01*
X10277165Y-8517962D01*
X10255554Y-8529513D01*
X10236613Y-8545058D01*
X10221067Y-8564000D01*
X10209516Y-8585611D01*
X10178291Y-8660995D01*
X10149959Y-8703396D01*
X10117990Y-8751242D01*
X10041242Y-8827990D01*
X9995812Y-8858345D01*
X9950995Y-8888291D01*
X9850721Y-8929826D01*
X9744270Y-8951000D01*
X9635730Y-8951000D01*
X9529279Y-8929826D01*
X9429005Y-8888291D01*
X9384188Y-8858345D01*
X9338758Y-8827990D01*
X9262010Y-8751242D01*
X9230041Y-8703396D01*
X9201709Y-8660995D01*
X9160174Y-8560721D01*
X9139000Y-8454270D01*
X9139000Y-8345730D01*
X9160174Y-8239279D01*
X9201709Y-8139005D01*
X9262009Y-8048760D01*
X9262010Y-8048758D01*
X9338758Y-7972010D01*
X9429004Y-7911710D01*
X9429005Y-7911709D01*
X9529279Y-7870174D01*
X9635730Y-7849000D01*
X9744270Y-7849000D01*
X9850721Y-7870174D01*
G37*
G36*
X22620721Y-4330174D02*
G01*
X22720995Y-4371709D01*
X22720996Y-4371710D01*
X22811242Y-4432010D01*
X22887990Y-4508758D01*
X22887991Y-4508760D01*
X22948291Y-4599005D01*
X22989826Y-4699279D01*
X23011000Y-4805730D01*
X23011000Y-4914270D01*
X22989826Y-5020721D01*
X22948291Y-5120995D01*
X22948290Y-5120996D01*
X22887990Y-5211242D01*
X22811242Y-5287990D01*
X22779816Y-5308988D01*
X22718336Y-5350068D01*
X22699394Y-5365614D01*
X22683849Y-5384556D01*
X22672298Y-5406167D01*
X22665185Y-5429615D01*
X22662783Y-5454002D01*
X22665185Y-5478388D01*
X22672298Y-5501837D01*
X22683849Y-5523447D01*
X22699395Y-5542389D01*
X22718337Y-5557934D01*
X22739948Y-5569485D01*
X22763396Y-5576598D01*
X22787782Y-5579000D01*
X23011000Y-5579000D01*
X23011000Y-6681000D01*
X21909000Y-6681000D01*
X21909000Y-5579000D01*
X22132218Y-5579000D01*
X22156604Y-5576598D01*
X22180053Y-5569485D01*
X22201664Y-5557934D01*
X22220606Y-5542389D01*
X22236151Y-5523447D01*
X22247702Y-5501836D01*
X22254815Y-5478387D01*
X22257217Y-5454001D01*
X22254815Y-5429615D01*
X22247702Y-5406166D01*
X22236151Y-5384555D01*
X22220606Y-5365613D01*
X22201664Y-5350068D01*
X22140184Y-5308988D01*
X22108758Y-5287990D01*
X22032010Y-5211242D01*
X21971710Y-5120996D01*
X21971709Y-5120995D01*
X21930174Y-5020721D01*
X21909000Y-4914270D01*
X21909000Y-4805730D01*
X21930174Y-4699279D01*
X21971709Y-4599005D01*
X22032009Y-4508760D01*
X22032010Y-4508758D01*
X22108758Y-4432010D01*
X22199004Y-4371710D01*
X22199005Y-4371709D01*
X22299279Y-4330174D01*
X22405730Y-4309000D01*
X22514270Y-4309000D01*
X22620721Y-4330174D01*
G37*
G36*
X-10639000Y-2961000D02*
G01*
X-11741000Y-2961000D01*
X-11741000Y-349000D01*
X-10639000Y-349000D01*
X-10639000Y-2961000D01*
G37*
G36*
X19361000Y-2961000D02*
G01*
X18259000Y-2961000D01*
X18259000Y-349000D01*
X19361000Y-349000D01*
X19361000Y-2961000D01*
G37*
G36*
X-15719000Y-2961000D02*
G01*
X-16821000Y-2961000D01*
X-16821000Y-349000D01*
X-15719000Y-349000D01*
X-15719000Y-2961000D01*
G37*
G36*
X14281000Y-2961000D02*
G01*
X13179000Y-2961000D01*
X13179000Y-349000D01*
X14281000Y-349000D01*
X14281000Y-2961000D01*
G37*
G36*
X11741000Y349000D02*
G01*
X10639000Y349000D01*
X10639000Y2961000D01*
X11741000Y2961000D01*
X11741000Y349000D01*
G37*
G36*
X-18259000Y349000D02*
G01*
X-19361000Y349000D01*
X-19361000Y2961000D01*
X-18259000Y2961000D01*
X-18259000Y349000D01*
G37*
G36*
X16821000Y349000D02*
G01*
X15719000Y349000D01*
X15719000Y2961000D01*
X16821000Y2961000D01*
X16821000Y349000D01*
G37*
G36*
X-13179000Y349000D02*
G01*
X-14281000Y349000D01*
X-14281000Y2961000D01*
X-13179000Y2961000D01*
X-13179000Y349000D01*
G37*
G36*
X10121000Y6249000D02*
G01*
X9019000Y6249000D01*
X9019000Y8251000D01*
X10121000Y8251000D01*
X10121000Y6249000D01*
G37*
G36*
X7581000Y9549000D02*
G01*
X6479000Y9549000D01*
X6479000Y11551000D01*
X7581000Y11551000D01*
X7581000Y9549000D01*
G37*
G36*
X15796807Y17077192D02*
G01*
X15845203Y17067566D01*
X15882969Y17051923D01*
X15936378Y17029800D01*
X15936379Y17029799D01*
X16018436Y16974971D01*
X16088219Y16905188D01*
X16088220Y16905186D01*
X16143048Y16823130D01*
X16180814Y16731954D01*
X16200067Y16635164D01*
X16200067Y16536474D01*
X16180814Y16439684D01*
X16143048Y16348508D01*
X16143047Y16348507D01*
X16088219Y16266450D01*
X16018436Y16196667D01*
X15977129Y16169067D01*
X15936378Y16141838D01*
X15882969Y16119715D01*
X15845203Y16104072D01*
X15796807Y16094445D01*
X15748412Y16084819D01*
X15649722Y16084819D01*
X15601327Y16094445D01*
X15552931Y16104072D01*
X15515165Y16119715D01*
X15461756Y16141838D01*
X15421005Y16169067D01*
X15379698Y16196667D01*
X15309915Y16266450D01*
X15255087Y16348507D01*
X15255086Y16348508D01*
X15217320Y16439684D01*
X15198067Y16536474D01*
X15198067Y16635164D01*
X15217320Y16731954D01*
X15255086Y16823130D01*
X15309914Y16905186D01*
X15309915Y16905188D01*
X15379698Y16974971D01*
X15461755Y17029799D01*
X15461756Y17029800D01*
X15515165Y17051923D01*
X15552931Y17067566D01*
X15601327Y17077192D01*
X15649722Y17086819D01*
X15748412Y17086819D01*
X15796807Y17077192D01*
G37*
G36*
X13498673Y19005554D02*
G01*
X13547069Y18995928D01*
X13562715Y18989447D01*
X13638244Y18958162D01*
X13638245Y18958161D01*
X13720302Y18903333D01*
X13790085Y18833550D01*
X13790086Y18833548D01*
X13844914Y18751492D01*
X13882680Y18660316D01*
X13901933Y18563526D01*
X13901933Y18464836D01*
X13882680Y18368046D01*
X13844914Y18276870D01*
X13844913Y18276869D01*
X13790085Y18194812D01*
X13720302Y18125029D01*
X13678995Y18097429D01*
X13638244Y18070200D01*
X13584835Y18048077D01*
X13547069Y18032434D01*
X13498673Y18022808D01*
X13450278Y18013181D01*
X13351588Y18013181D01*
X13303193Y18022808D01*
X13254797Y18032434D01*
X13217031Y18048077D01*
X13163622Y18070200D01*
X13122871Y18097429D01*
X13081564Y18125029D01*
X13011781Y18194812D01*
X12956953Y18276869D01*
X12956952Y18276870D01*
X12919186Y18368046D01*
X12899933Y18464836D01*
X12899933Y18563526D01*
X12919186Y18660316D01*
X12956952Y18751492D01*
X13011780Y18833548D01*
X13011781Y18833550D01*
X13081564Y18903333D01*
X13163621Y18958161D01*
X13163622Y18958162D01*
X13239151Y18989447D01*
X13254797Y18995928D01*
X13303193Y19005554D01*
X13351588Y19015181D01*
X13450278Y19015181D01*
X13498673Y19005554D01*
G37*
G36*
X379487Y21251004D02*
G01*
X616253Y21152932D01*
X616255Y21152931D01*
X829339Y21010553D01*
X1010553Y20829339D01*
X1144859Y20628336D01*
X1152932Y20616253D01*
X1251004Y20379487D01*
X1301000Y20128139D01*
X1301000Y19871861D01*
X1251004Y19620513D01*
X1152932Y19383747D01*
X1152931Y19383745D01*
X1010553Y19170661D01*
X829339Y18989447D01*
X616255Y18847069D01*
X616254Y18847068D01*
X616253Y18847068D01*
X379487Y18748996D01*
X128139Y18699000D01*
X-128139Y18699000D01*
X-379487Y18748996D01*
X-616253Y18847068D01*
X-616254Y18847068D01*
X-616255Y18847069D01*
X-829339Y18989447D01*
X-1010553Y19170661D01*
X-1152931Y19383745D01*
X-1152932Y19383747D01*
X-1251004Y19620513D01*
X-1301000Y19871861D01*
X-1301000Y20128139D01*
X-1251004Y20379487D01*
X-1152932Y20616253D01*
X-1144858Y20628336D01*
X-1010553Y20829339D01*
X-829339Y21010553D01*
X-616255Y21152931D01*
X-616253Y21152932D01*
X-379487Y21251004D01*
X-128139Y21301000D01*
X128139Y21301000D01*
X379487Y21251004D01*
G37*
G36*
X5571000Y20697782D02*
G01*
X5573402Y20673396D01*
X5580515Y20649947D01*
X5592066Y20628336D01*
X5607611Y20609394D01*
X5626553Y20593849D01*
X5648164Y20582298D01*
X5671613Y20575185D01*
X5695999Y20572783D01*
X5720385Y20575185D01*
X5743834Y20582298D01*
X5765445Y20593849D01*
X5784387Y20609394D01*
X5799932Y20628336D01*
X5862009Y20721240D01*
X5862010Y20721242D01*
X5938758Y20797990D01*
X6029004Y20858290D01*
X6029005Y20858291D01*
X6129279Y20899826D01*
X6235730Y20921000D01*
X6344270Y20921000D01*
X6450721Y20899826D01*
X6550995Y20858291D01*
X6550996Y20858290D01*
X6641242Y20797990D01*
X6717990Y20721242D01*
X6717991Y20721240D01*
X6778291Y20630995D01*
X6819826Y20530721D01*
X6841000Y20424270D01*
X6841000Y20315730D01*
X6819826Y20209279D01*
X6778291Y20109005D01*
X6778290Y20109004D01*
X6717990Y20018758D01*
X6641242Y19942010D01*
X6595812Y19911655D01*
X6550995Y19881709D01*
X6450721Y19840174D01*
X6344270Y19819000D01*
X6235730Y19819000D01*
X6129279Y19840174D01*
X6029005Y19881709D01*
X5984188Y19911655D01*
X5938758Y19942010D01*
X5862010Y20018758D01*
X5841012Y20050184D01*
X5799932Y20111664D01*
X5784386Y20130606D01*
X5765444Y20146151D01*
X5743833Y20157702D01*
X5720385Y20164815D01*
X5695998Y20167217D01*
X5671612Y20164815D01*
X5648163Y20157702D01*
X5626553Y20146151D01*
X5607611Y20130605D01*
X5592066Y20111663D01*
X5580515Y20090052D01*
X5573402Y20066604D01*
X5571000Y20042218D01*
X5571000Y19819000D01*
X4469000Y19819000D01*
X4469000Y20921000D01*
X5571000Y20921000D01*
X5571000Y20697782D01*
G37*
M02*
