G04 #@! TF.GenerationSoftware,KiCad,Pcbnew,5.1.5-52549c5~84~ubuntu18.04.1*
G04 #@! TF.CreationDate,2019-12-08T01:29:41-05:00*
G04 #@! TF.ProjectId,SwarmBot,53776172-6d42-46f7-942e-6b696361645f,rev?*
G04 #@! TF.SameCoordinates,Original*
G04 #@! TF.FileFunction,Copper,L3,Inr*
G04 #@! TF.FilePolarity,Positive*
%FSLAX46Y46*%
G04 Gerber Fmt 4.6, Leading zero omitted, Abs format (unit mm)*
G04 Created by KiCad (PCBNEW 5.1.5-52549c5~84~ubuntu18.04.1) date 2019-12-08 01:29:41*
%MOMM*%
%LPD*%
G04 APERTURE LIST*
%ADD10O,1.200000X1.750000*%
%ADD11C,0.100000*%
%ADD12O,1.000000X1.000000*%
%ADD13R,1.000000X1.000000*%
%ADD14C,0.400000*%
%ADD15C,0.450000*%
%ADD16C,0.200000*%
%ADD17C,0.254000*%
G04 APERTURE END LIST*
D10*
X11970000Y13017500D03*
G04 #@! TA.AperFunction,ViaPad*
D11*
G36*
X14344505Y13891296D02*
G01*
X14368773Y13887696D01*
X14392572Y13881735D01*
X14415671Y13873470D01*
X14437850Y13862980D01*
X14458893Y13850368D01*
X14478599Y13835753D01*
X14496777Y13819277D01*
X14513253Y13801099D01*
X14527868Y13781393D01*
X14540480Y13760350D01*
X14550970Y13738171D01*
X14559235Y13715072D01*
X14565196Y13691273D01*
X14568796Y13667005D01*
X14570000Y13642501D01*
X14570000Y12392499D01*
X14568796Y12367995D01*
X14565196Y12343727D01*
X14559235Y12319928D01*
X14550970Y12296829D01*
X14540480Y12274650D01*
X14527868Y12253607D01*
X14513253Y12233901D01*
X14496777Y12215723D01*
X14478599Y12199247D01*
X14458893Y12184632D01*
X14437850Y12172020D01*
X14415671Y12161530D01*
X14392572Y12153265D01*
X14368773Y12147304D01*
X14344505Y12143704D01*
X14320001Y12142500D01*
X13619999Y12142500D01*
X13595495Y12143704D01*
X13571227Y12147304D01*
X13547428Y12153265D01*
X13524329Y12161530D01*
X13502150Y12172020D01*
X13481107Y12184632D01*
X13461401Y12199247D01*
X13443223Y12215723D01*
X13426747Y12233901D01*
X13412132Y12253607D01*
X13399520Y12274650D01*
X13389030Y12296829D01*
X13380765Y12319928D01*
X13374804Y12343727D01*
X13371204Y12367995D01*
X13370000Y12392499D01*
X13370000Y13642501D01*
X13371204Y13667005D01*
X13374804Y13691273D01*
X13380765Y13715072D01*
X13389030Y13738171D01*
X13399520Y13760350D01*
X13412132Y13781393D01*
X13426747Y13801099D01*
X13443223Y13819277D01*
X13461401Y13835753D01*
X13481107Y13850368D01*
X13502150Y13862980D01*
X13524329Y13873470D01*
X13547428Y13881735D01*
X13571227Y13887696D01*
X13595495Y13891296D01*
X13619999Y13892500D01*
X14320001Y13892500D01*
X14344505Y13891296D01*
G37*
G04 #@! TD.AperFunction*
D12*
X9690000Y-8400000D03*
X10960000Y-8400000D03*
X12230000Y-8400000D03*
D13*
X13500000Y-8400000D03*
D14*
X-13606780Y-441960D03*
X-8178800Y-12547600D03*
X10363200Y-16611600D03*
X-22707600Y3860800D03*
X-24130000Y3860800D03*
X-21386800Y1981200D03*
X-20320000Y1981200D03*
X-20320000Y2997200D03*
X-7315200Y-14122400D03*
X-11973560Y-14071600D03*
X-12242800Y-19050000D03*
X-50800Y-10261600D03*
X-101600Y-12090400D03*
X-1879600Y-12090400D03*
X-5181600Y20370800D03*
X-5842000Y18135600D03*
X-8686800Y19456400D03*
X-5486400Y22250400D03*
X5232400Y11938000D03*
X-1879600Y-10312400D03*
X-4114800Y-12954000D03*
X9042400Y-50800D03*
X9550400Y-2489200D03*
X-20421600Y3606800D03*
X-21437600Y2997200D03*
X-22707600Y3403600D03*
X-24130000Y3403600D03*
X-22707600Y2895600D03*
X-24130000Y2895600D03*
X-24130000Y2438400D03*
X-22707600Y2438400D03*
X-22707600Y1981200D03*
X-24130000Y1981200D03*
X-24130000Y-2946400D03*
X-22707600Y-1981200D03*
X-22707600Y-2438400D03*
X-22707600Y-3403600D03*
X-22707600Y-3860800D03*
X-24130000Y-3860800D03*
X-24130000Y-1981200D03*
X-24130000Y-3403600D03*
X-24130000Y-2438400D03*
X-22707600Y-2946400D03*
X-20624800Y-1930400D03*
X-21691600Y-2946400D03*
X-21742400Y-1930400D03*
X-20624800Y-2946400D03*
X-22707600Y-1066800D03*
X-24130000Y-1066800D03*
X-22707600Y-609600D03*
X-24130000Y-609600D03*
X-22707600Y1066800D03*
X-24130000Y609600D03*
X-22707600Y609600D03*
X-24130000Y1066800D03*
X-22072000Y-7136800D03*
X-22072000Y-7695600D03*
X-16327120Y-7459980D03*
X-20320000Y10210800D03*
X-16916400Y10363200D03*
X-18186400Y10414000D03*
X-18643600Y10414000D03*
X-19842200Y10079000D03*
X-14478000Y9398000D03*
X6807200Y-15951200D03*
X6908800Y-19862800D03*
X5943600Y-19761200D03*
X11633200Y-16611600D03*
X11633200Y-17932400D03*
X10414000Y-17932400D03*
X15290800Y-16256000D03*
X10668000Y-13919200D03*
X-8178800Y-12141200D03*
X-8178800Y-11734800D03*
X-8178800Y-11328400D03*
X-9144000Y-10515600D03*
X-8991600Y-10922000D03*
X-8178800Y-10922000D03*
X-8585200Y-10922000D03*
X-9144000Y-10109200D03*
X-9144000Y-9702800D03*
X-9144000Y-9296400D03*
X-12141200Y-6451600D03*
X-12141200Y-6858000D03*
X-12141200Y-7264400D03*
X-12141200Y-7670800D03*
X-12141200Y-8077200D03*
X-12141200Y-8483600D03*
X-12141200Y-8890000D03*
X-6908800Y-9550400D03*
X-6908800Y-9956800D03*
X-6908800Y-10769600D03*
X-6908800Y-11176000D03*
X-6908800Y-12395200D03*
X-6908800Y-11988800D03*
X-6908800Y-11582400D03*
X-6908800Y-10363200D03*
X-11633200Y-9093200D03*
X-10007600Y-9093200D03*
X-9601200Y-9093200D03*
X-11226800Y-9093200D03*
X-10820400Y-9093200D03*
X-10414000Y-9093200D03*
X-11684000Y-6324600D03*
X-11277600Y-6324600D03*
X-9652000Y-6324600D03*
X-9245600Y-6324600D03*
X-10871200Y-6324600D03*
X-10464800Y-6324600D03*
X-10058400Y-6324600D03*
X-8026400Y-6299200D03*
X-7658100Y-6507480D03*
X-8432800Y-6299200D03*
X-8839200Y-6299200D03*
X-6918960Y-8282940D03*
X-6918960Y-7876540D03*
X-7315200Y-7335520D03*
X-6918960Y-7470140D03*
X-6908800Y-9144000D03*
X-6908800Y-8712200D03*
X-5867400Y-13284200D03*
X-13779500Y-1625600D03*
X1701800Y8255000D03*
X-1244600Y11811000D03*
X-15808960Y-16349980D03*
X-6021200Y-20797810D03*
X-14742563Y-2895600D03*
X-12009120Y309880D03*
X-7726680Y-7325360D03*
X-7729220Y-6916420D03*
X18542000Y5537200D03*
X10210800Y-863600D03*
X-16154400Y14325600D03*
X749300Y11823700D03*
X4071910Y8280400D03*
X-4886960Y-11269980D03*
X-2080260Y-8257540D03*
X1183281Y-9401682D03*
X-6421120Y-12801600D03*
X-8727440Y-11465560D03*
X-14620240Y-14272260D03*
X-3878580Y-14038580D03*
X-1734820Y-17073880D03*
X9829800Y2352040D03*
X-17571720Y-14274800D03*
X-21996400Y-101600D03*
X-21996400Y355600D03*
X-21996400Y762000D03*
X-21940300Y1264700D03*
X-21132800Y4318000D03*
X-21437600Y4013200D03*
X-21767800Y3683000D03*
X-18288000Y9753600D03*
X-18186400Y11074400D03*
X11203940Y6098540D03*
X11214380Y5618760D03*
X11214380Y5141240D03*
X11214380Y4673880D03*
X11214380Y4252240D03*
X11214380Y3805200D03*
X11214380Y3378480D03*
X11214380Y2931440D03*
X-14020800Y-17856200D03*
X13700760Y-3312160D03*
X-13614400Y-18313400D03*
X16281400Y-10160D03*
X12293600Y-15646400D03*
X8703330Y-16751378D03*
X9753600Y-15646400D03*
X13360400Y-17035490D03*
X-16319502Y-2540D03*
X-17292320Y703580D03*
X-19375120Y-8615680D03*
X-15377160Y-18171160D03*
X-14827971Y3303070D03*
X-11049000Y-12776200D03*
X-15596575Y-9774260D03*
X-16683672Y-8403908D03*
X-14521180Y-10317480D03*
X-10350500Y5006340D03*
X-12090400Y4978400D03*
X-15900400Y5181600D03*
X-12522200Y-12446000D03*
X13208000Y-18135600D03*
X-3796561Y-17039486D03*
X-4028150Y-16189960D03*
X13944600Y-17462500D03*
X-13650495Y-13845710D03*
X-12471400Y2070100D03*
X-5750560Y-8267700D03*
X-5638800Y-17777170D03*
X-11963400Y2654300D03*
X-6184900Y-10238740D03*
X-5985056Y-17379869D03*
X8585200Y-3759200D03*
X-6019800Y-18338800D03*
X720682Y-8650118D03*
X24697Y-16202390D03*
X-5740400Y-16865600D03*
X-345998Y-15801340D03*
X-175260Y-8613140D03*
X-13614400Y-14808200D03*
X-14927262Y-17098962D03*
X-13959420Y14183780D03*
X-7366000Y-3454400D03*
X-9309100Y8902700D03*
X-7486198Y-4019805D03*
X-10058400Y9004300D03*
X-7626577Y-4527777D03*
X2743200Y9906000D03*
X-8051800Y-20421600D03*
X-3997267Y-15315629D03*
X-13589000Y-19405600D03*
X-17091660Y-13149580D03*
X-4267200Y11734800D03*
X-13665200Y-17322806D03*
X-4724400Y12090400D03*
X-13665200Y-15875000D03*
X-15285720Y-15499080D03*
X-16469650Y-10737655D03*
X-14053490Y-15382530D03*
X-15615630Y-11361173D03*
X-13940428Y-14285801D03*
X-11968480Y-3911600D03*
X-3759200Y12090400D03*
X-12039600Y-12776200D03*
X-14155420Y-10909300D03*
X-3251200Y11785600D03*
X-11557000Y-12547600D03*
X-14432280Y-5478780D03*
X-12068984Y-3394260D03*
X-10566400Y-12446000D03*
X-9685064Y4325664D03*
X-10160000Y-2941320D03*
X-8920480Y5796280D03*
X-10058400Y-12776200D03*
X-10923620Y-4095464D03*
X-9525000Y-12446000D03*
X-10755248Y-4594856D03*
X-9042400Y-12700000D03*
X-11042131Y-5456480D03*
X3708400Y9956800D03*
X-7010400Y-20370800D03*
X8166100Y-2534920D03*
X-2608580Y-14142720D03*
X-2852420Y-15491460D03*
X4724400Y9956800D03*
X-7569200Y-20701000D03*
X-3479800Y-15496540D03*
D15*
X-17569180Y-14272260D02*
X-17571720Y-14274800D01*
X-14620240Y-14272260D02*
X-17569180Y-14272260D01*
D16*
X-14521180Y-10317480D02*
X-13462000Y-10317480D01*
X-13462000Y-10317480D02*
X-12903200Y-10876280D01*
X-12903200Y-10876280D02*
X-11724640Y-10876280D01*
X-11049000Y-11551920D02*
X-11049000Y-12776200D01*
X-11724640Y-10876280D02*
X-11049000Y-11551920D01*
X-5750560Y-12171680D02*
X-4455160Y-13467080D01*
X-5355958Y-17777170D02*
X-5638800Y-17777170D01*
X-4455160Y-13467080D02*
X-4455160Y-16876372D01*
X-5750560Y-8267700D02*
X-5750560Y-12171680D01*
X-4455160Y-16876372D02*
X-5355958Y-17777170D01*
X-5955355Y-17350168D02*
X-5985056Y-17379869D01*
X-6184900Y-10238740D02*
X-6184900Y-12204700D01*
X-6184900Y-12204700D02*
X-4800600Y-13589000D01*
X-4800600Y-13589000D02*
X-4800600Y-16716930D01*
X-5433838Y-17350168D02*
X-5955355Y-17350168D01*
X-4800600Y-16716930D02*
X-5433838Y-17350168D01*
X-12168479Y-4111599D02*
X-11968480Y-3911600D01*
X-13940428Y-14285801D02*
X-14948181Y-13278048D01*
X-14948181Y-6891301D02*
X-12168479Y-4111599D01*
X-14948181Y-13278048D02*
X-14948181Y-6891301D01*
X-14432280Y-5478780D02*
X-12347760Y-3394260D01*
X-12347760Y-3394260D02*
X-12068984Y-3394260D01*
D17*
G36*
X2446209Y24524302D02*
G01*
X4386936Y24252425D01*
X6299928Y23827216D01*
X8173089Y23251364D01*
X9994577Y22528510D01*
X11752876Y21663223D01*
X13436870Y20660974D01*
X15035912Y19528099D01*
X16539892Y18271762D01*
X17939301Y16899905D01*
X19225292Y15421201D01*
X20389735Y13845000D01*
X21425267Y12181266D01*
X22325342Y10440517D01*
X23084269Y8633761D01*
X23697250Y6772419D01*
X24160409Y4868260D01*
X24470818Y2933322D01*
X24626515Y979839D01*
X24626515Y-979839D01*
X24470818Y-2933322D01*
X24160409Y-4868260D01*
X23697250Y-6772419D01*
X23084269Y-8633761D01*
X22325342Y-10440517D01*
X21425267Y-12181266D01*
X20389735Y-13845000D01*
X19225292Y-15421201D01*
X17939301Y-16899905D01*
X16539892Y-18271762D01*
X15035912Y-19528099D01*
X13436870Y-20660974D01*
X11752876Y-21663223D01*
X9994577Y-22528510D01*
X8173089Y-23251364D01*
X6299928Y-23827216D01*
X4386936Y-24252425D01*
X2446209Y-24524302D01*
X490016Y-24641128D01*
X-1469274Y-24602166D01*
X-3419276Y-24407660D01*
X-5347660Y-24058841D01*
X-7242234Y-23557915D01*
X-9091020Y-22908048D01*
X-10882330Y-22113349D01*
X-12604839Y-21178842D01*
X-13837954Y-20376885D01*
X-8505800Y-20376885D01*
X-8505800Y-20466315D01*
X-8488353Y-20554027D01*
X-8454130Y-20636650D01*
X-8404445Y-20711008D01*
X-8341208Y-20774245D01*
X-8266850Y-20823930D01*
X-8184227Y-20858153D01*
X-8096515Y-20875600D01*
X-8007085Y-20875600D01*
X-7989716Y-20872145D01*
X-7971530Y-20916050D01*
X-7921845Y-20990408D01*
X-7858608Y-21053645D01*
X-7784250Y-21103330D01*
X-7701627Y-21137553D01*
X-7613915Y-21155000D01*
X-7524485Y-21155000D01*
X-7436773Y-21137553D01*
X-7354150Y-21103330D01*
X-7279792Y-21053645D01*
X-7216555Y-20990408D01*
X-7166870Y-20916050D01*
X-7132647Y-20833427D01*
X-7128045Y-20810293D01*
X-7055115Y-20824800D01*
X-6965685Y-20824800D01*
X-6877973Y-20807353D01*
X-6795350Y-20773130D01*
X-6720992Y-20723445D01*
X-6657755Y-20660208D01*
X-6608070Y-20585850D01*
X-6573847Y-20503227D01*
X-6556400Y-20415515D01*
X-6556400Y-20326085D01*
X-6573847Y-20238373D01*
X-6608070Y-20155750D01*
X-6657755Y-20081392D01*
X-6720992Y-20018155D01*
X-6795350Y-19968470D01*
X-6877973Y-19934247D01*
X-6965685Y-19916800D01*
X-7055115Y-19916800D01*
X-7142827Y-19934247D01*
X-7225450Y-19968470D01*
X-7299808Y-20018155D01*
X-7363045Y-20081392D01*
X-7412730Y-20155750D01*
X-7446953Y-20238373D01*
X-7451555Y-20261507D01*
X-7524485Y-20247000D01*
X-7613915Y-20247000D01*
X-7631284Y-20250455D01*
X-7649470Y-20206550D01*
X-7699155Y-20132192D01*
X-7762392Y-20068955D01*
X-7836750Y-20019270D01*
X-7919373Y-19985047D01*
X-8007085Y-19967600D01*
X-8096515Y-19967600D01*
X-8184227Y-19985047D01*
X-8266850Y-20019270D01*
X-8341208Y-20068955D01*
X-8404445Y-20132192D01*
X-8454130Y-20206550D01*
X-8488353Y-20289173D01*
X-8505800Y-20376885D01*
X-13837954Y-20376885D01*
X-14247655Y-20110436D01*
X-15221145Y-19360885D01*
X-14043000Y-19360885D01*
X-14043000Y-19450315D01*
X-14025553Y-19538027D01*
X-13991330Y-19620650D01*
X-13941645Y-19695008D01*
X-13878408Y-19758245D01*
X-13804050Y-19807930D01*
X-13721427Y-19842153D01*
X-13633715Y-19859600D01*
X-13544285Y-19859600D01*
X-13456573Y-19842153D01*
X-13373950Y-19807930D01*
X-13325768Y-19775735D01*
X-2277000Y-19775735D01*
X-2277000Y-20224265D01*
X-2189496Y-20664176D01*
X-2017851Y-21078564D01*
X-1768661Y-21451503D01*
X-1451503Y-21768661D01*
X-1078564Y-22017851D01*
X-664176Y-22189496D01*
X-224265Y-22277000D01*
X224265Y-22277000D01*
X664176Y-22189496D01*
X1078564Y-22017851D01*
X1451503Y-21768661D01*
X1768661Y-21451503D01*
X2017851Y-21078564D01*
X2189496Y-20664176D01*
X2277000Y-20224265D01*
X2277000Y-19775735D01*
X2189496Y-19335824D01*
X2017851Y-18921436D01*
X1768661Y-18548497D01*
X1451503Y-18231339D01*
X1241299Y-18090885D01*
X12754000Y-18090885D01*
X12754000Y-18180315D01*
X12771447Y-18268027D01*
X12805670Y-18350650D01*
X12855355Y-18425008D01*
X12918592Y-18488245D01*
X12992950Y-18537930D01*
X13075573Y-18572153D01*
X13163285Y-18589600D01*
X13252715Y-18589600D01*
X13340427Y-18572153D01*
X13423050Y-18537930D01*
X13497408Y-18488245D01*
X13560645Y-18425008D01*
X13610330Y-18350650D01*
X13644553Y-18268027D01*
X13662000Y-18180315D01*
X13662000Y-18090885D01*
X13644553Y-18003173D01*
X13610330Y-17920550D01*
X13560645Y-17846192D01*
X13497408Y-17782955D01*
X13423050Y-17733270D01*
X13340427Y-17699047D01*
X13252715Y-17681600D01*
X13163285Y-17681600D01*
X13075573Y-17699047D01*
X12992950Y-17733270D01*
X12918592Y-17782955D01*
X12855355Y-17846192D01*
X12805670Y-17920550D01*
X12771447Y-18003173D01*
X12754000Y-18090885D01*
X1241299Y-18090885D01*
X1078564Y-17982149D01*
X664176Y-17810504D01*
X224265Y-17723000D01*
X-224265Y-17723000D01*
X-664176Y-17810504D01*
X-1078564Y-17982149D01*
X-1451503Y-18231339D01*
X-1768661Y-18548497D01*
X-2017851Y-18921436D01*
X-2189496Y-19335824D01*
X-2277000Y-19775735D01*
X-13325768Y-19775735D01*
X-13299592Y-19758245D01*
X-13236355Y-19695008D01*
X-13186670Y-19620650D01*
X-13152447Y-19538027D01*
X-13135000Y-19450315D01*
X-13135000Y-19360885D01*
X-13152447Y-19273173D01*
X-13186670Y-19190550D01*
X-13236355Y-19116192D01*
X-13299592Y-19052955D01*
X-13373950Y-19003270D01*
X-13456573Y-18969047D01*
X-13544285Y-18951600D01*
X-13633715Y-18951600D01*
X-13721427Y-18969047D01*
X-13804050Y-19003270D01*
X-13878408Y-19052955D01*
X-13941645Y-19116192D01*
X-13991330Y-19190550D01*
X-14025553Y-19273173D01*
X-14043000Y-19360885D01*
X-15221145Y-19360885D01*
X-15800394Y-18914885D01*
X-16671390Y-18126445D01*
X-15831160Y-18126445D01*
X-15831160Y-18215875D01*
X-15813713Y-18303587D01*
X-15779490Y-18386210D01*
X-15729805Y-18460568D01*
X-15666568Y-18523805D01*
X-15592210Y-18573490D01*
X-15509587Y-18607713D01*
X-15421875Y-18625160D01*
X-15332445Y-18625160D01*
X-15244733Y-18607713D01*
X-15162110Y-18573490D01*
X-15087752Y-18523805D01*
X-15024515Y-18460568D01*
X-14974830Y-18386210D01*
X-14940607Y-18303587D01*
X-14923160Y-18215875D01*
X-14923160Y-18126445D01*
X-14940607Y-18038733D01*
X-14974830Y-17956110D01*
X-15024515Y-17881752D01*
X-15087752Y-17818515D01*
X-15098273Y-17811485D01*
X-14474800Y-17811485D01*
X-14474800Y-17900915D01*
X-14457353Y-17988627D01*
X-14423130Y-18071250D01*
X-14373445Y-18145608D01*
X-14310208Y-18208845D01*
X-14235850Y-18258530D01*
X-14153227Y-18292753D01*
X-14068400Y-18309626D01*
X-14068400Y-18358115D01*
X-14050953Y-18445827D01*
X-14016730Y-18528450D01*
X-13967045Y-18602808D01*
X-13903808Y-18666045D01*
X-13829450Y-18715730D01*
X-13746827Y-18749953D01*
X-13659115Y-18767400D01*
X-13569685Y-18767400D01*
X-13481973Y-18749953D01*
X-13399350Y-18715730D01*
X-13324992Y-18666045D01*
X-13261755Y-18602808D01*
X-13212070Y-18528450D01*
X-13177847Y-18445827D01*
X-13160400Y-18358115D01*
X-13160400Y-18268685D01*
X-13177847Y-18180973D01*
X-13212070Y-18098350D01*
X-13261755Y-18023992D01*
X-13324992Y-17960755D01*
X-13399350Y-17911070D01*
X-13481973Y-17876847D01*
X-13566800Y-17859974D01*
X-13566800Y-17811485D01*
X-13575479Y-17767854D01*
X-13532773Y-17759359D01*
X-13450150Y-17725136D01*
X-13375792Y-17675451D01*
X-13312555Y-17612214D01*
X-13262870Y-17537856D01*
X-13228647Y-17455233D01*
X-13211200Y-17367521D01*
X-13211200Y-17278091D01*
X-13228647Y-17190379D01*
X-13262870Y-17107756D01*
X-13312555Y-17033398D01*
X-13375792Y-16970161D01*
X-13450150Y-16920476D01*
X-13532773Y-16886253D01*
X-13620485Y-16868806D01*
X-13709915Y-16868806D01*
X-13797627Y-16886253D01*
X-13880250Y-16920476D01*
X-13954608Y-16970161D01*
X-14017845Y-17033398D01*
X-14067530Y-17107756D01*
X-14101753Y-17190379D01*
X-14119200Y-17278091D01*
X-14119200Y-17367521D01*
X-14110521Y-17411152D01*
X-14153227Y-17419647D01*
X-14235850Y-17453870D01*
X-14310208Y-17503555D01*
X-14373445Y-17566792D01*
X-14423130Y-17641150D01*
X-14457353Y-17723773D01*
X-14474800Y-17811485D01*
X-15098273Y-17811485D01*
X-15162110Y-17768830D01*
X-15244733Y-17734607D01*
X-15332445Y-17717160D01*
X-15421875Y-17717160D01*
X-15509587Y-17734607D01*
X-15592210Y-17768830D01*
X-15666568Y-17818515D01*
X-15729805Y-17881752D01*
X-15779490Y-17956110D01*
X-15813713Y-18038733D01*
X-15831160Y-18126445D01*
X-16671390Y-18126445D01*
X-17253237Y-17599748D01*
X-17767132Y-17054247D01*
X-15381262Y-17054247D01*
X-15381262Y-17143677D01*
X-15363815Y-17231389D01*
X-15329592Y-17314012D01*
X-15279907Y-17388370D01*
X-15216670Y-17451607D01*
X-15142312Y-17501292D01*
X-15059689Y-17535515D01*
X-14971977Y-17552962D01*
X-14882547Y-17552962D01*
X-14794835Y-17535515D01*
X-14712212Y-17501292D01*
X-14637854Y-17451607D01*
X-14574617Y-17388370D01*
X-14524932Y-17314012D01*
X-14490709Y-17231389D01*
X-14473262Y-17143677D01*
X-14473262Y-17054247D01*
X-14490709Y-16966535D01*
X-14524932Y-16883912D01*
X-14574617Y-16809554D01*
X-14637854Y-16746317D01*
X-14712212Y-16696632D01*
X-14794835Y-16662409D01*
X-14882547Y-16644962D01*
X-14971977Y-16644962D01*
X-15059689Y-16662409D01*
X-15142312Y-16696632D01*
X-15216670Y-16746317D01*
X-15279907Y-16809554D01*
X-15329592Y-16883912D01*
X-15363815Y-16966535D01*
X-15381262Y-17054247D01*
X-17767132Y-17054247D01*
X-18597000Y-16173340D01*
X-19173711Y-15454365D01*
X-15739720Y-15454365D01*
X-15739720Y-15543795D01*
X-15722273Y-15631507D01*
X-15688050Y-15714130D01*
X-15638365Y-15788488D01*
X-15575128Y-15851725D01*
X-15500770Y-15901410D01*
X-15418147Y-15935633D01*
X-15330435Y-15953080D01*
X-15241005Y-15953080D01*
X-15153293Y-15935633D01*
X-15070670Y-15901410D01*
X-14996312Y-15851725D01*
X-14933075Y-15788488D01*
X-14883390Y-15714130D01*
X-14849167Y-15631507D01*
X-14831720Y-15543795D01*
X-14831720Y-15454365D01*
X-14849167Y-15366653D01*
X-14883390Y-15284030D01*
X-14933075Y-15209672D01*
X-14996312Y-15146435D01*
X-15070670Y-15096750D01*
X-15153293Y-15062527D01*
X-15241005Y-15045080D01*
X-15330435Y-15045080D01*
X-15418147Y-15062527D01*
X-15500770Y-15096750D01*
X-15575128Y-15146435D01*
X-15638365Y-15209672D01*
X-15688050Y-15284030D01*
X-15722273Y-15366653D01*
X-15739720Y-15454365D01*
X-19173711Y-15454365D01*
X-19823186Y-14644679D01*
X-20074340Y-14274800D01*
X-18053037Y-14274800D01*
X-18043788Y-14368700D01*
X-18016398Y-14458992D01*
X-17971920Y-14542205D01*
X-17912062Y-14615142D01*
X-17839125Y-14675000D01*
X-17755912Y-14719478D01*
X-17665620Y-14746868D01*
X-17571720Y-14756117D01*
X-17522410Y-14751260D01*
X-14596714Y-14751260D01*
X-14526340Y-14744329D01*
X-14436048Y-14716939D01*
X-14352835Y-14672460D01*
X-14279897Y-14612603D01*
X-14268981Y-14599301D01*
X-14229836Y-14638446D01*
X-14155478Y-14688131D01*
X-14072855Y-14722354D01*
X-14060699Y-14724772D01*
X-14068400Y-14763485D01*
X-14068400Y-14852915D01*
X-14053359Y-14928530D01*
X-14098205Y-14928530D01*
X-14185917Y-14945977D01*
X-14268540Y-14980200D01*
X-14342898Y-15029885D01*
X-14406135Y-15093122D01*
X-14455820Y-15167480D01*
X-14490043Y-15250103D01*
X-14507490Y-15337815D01*
X-14507490Y-15427245D01*
X-14490043Y-15514957D01*
X-14455820Y-15597580D01*
X-14406135Y-15671938D01*
X-14342898Y-15735175D01*
X-14268540Y-15784860D01*
X-14185917Y-15819083D01*
X-14119200Y-15832354D01*
X-14119200Y-15919715D01*
X-14101753Y-16007427D01*
X-14067530Y-16090050D01*
X-14017845Y-16164408D01*
X-13954608Y-16227645D01*
X-13880250Y-16277330D01*
X-13797627Y-16311553D01*
X-13709915Y-16329000D01*
X-13620485Y-16329000D01*
X-13532773Y-16311553D01*
X-13450150Y-16277330D01*
X-13375792Y-16227645D01*
X-13312555Y-16164408D01*
X-13262870Y-16090050D01*
X-13228647Y-16007427D01*
X-13211200Y-15919715D01*
X-13211200Y-15830285D01*
X-13228647Y-15742573D01*
X-13262870Y-15659950D01*
X-13312555Y-15585592D01*
X-13375792Y-15522355D01*
X-13450150Y-15472670D01*
X-13532773Y-15438447D01*
X-13599490Y-15425176D01*
X-13599490Y-15337815D01*
X-13614531Y-15262200D01*
X-13569685Y-15262200D01*
X-13481973Y-15244753D01*
X-13399350Y-15210530D01*
X-13324992Y-15160845D01*
X-13261755Y-15097608D01*
X-13212070Y-15023250D01*
X-13177847Y-14940627D01*
X-13160400Y-14852915D01*
X-13160400Y-14763485D01*
X-13177847Y-14675773D01*
X-13212070Y-14593150D01*
X-13261755Y-14518792D01*
X-13324992Y-14455555D01*
X-13399350Y-14405870D01*
X-13481973Y-14371647D01*
X-13494129Y-14369229D01*
X-13486428Y-14330516D01*
X-13486428Y-14269158D01*
X-13435445Y-14248040D01*
X-13361087Y-14198355D01*
X-13297850Y-14135118D01*
X-13248165Y-14060760D01*
X-13213942Y-13978137D01*
X-13196495Y-13890425D01*
X-13196495Y-13800995D01*
X-13213942Y-13713283D01*
X-13248165Y-13630660D01*
X-13297850Y-13556302D01*
X-13361087Y-13493065D01*
X-13435445Y-13443380D01*
X-13518068Y-13409157D01*
X-13605780Y-13391710D01*
X-13695210Y-13391710D01*
X-13782922Y-13409157D01*
X-13865545Y-13443380D01*
X-13939903Y-13493065D01*
X-14003140Y-13556302D01*
X-14052825Y-13630660D01*
X-14065160Y-13660439D01*
X-14594181Y-13131418D01*
X-14594181Y-11030627D01*
X-14591973Y-11041727D01*
X-14557750Y-11124350D01*
X-14508065Y-11198708D01*
X-14444828Y-11261945D01*
X-14370470Y-11311630D01*
X-14287847Y-11345853D01*
X-14200135Y-11363300D01*
X-14110705Y-11363300D01*
X-14022993Y-11345853D01*
X-13940370Y-11311630D01*
X-13866012Y-11261945D01*
X-13802775Y-11198708D01*
X-13753090Y-11124350D01*
X-13718867Y-11041727D01*
X-13701420Y-10954015D01*
X-13701420Y-10864585D01*
X-13718867Y-10776873D01*
X-13753090Y-10694250D01*
X-13768305Y-10671480D01*
X-13608630Y-10671480D01*
X-13165803Y-11114309D01*
X-13154726Y-11127806D01*
X-13141229Y-11138883D01*
X-13141225Y-11138887D01*
X-13100823Y-11172044D01*
X-13039325Y-11204915D01*
X-12972596Y-11225157D01*
X-12920582Y-11230280D01*
X-12920574Y-11230280D01*
X-12903200Y-11231991D01*
X-12885826Y-11230280D01*
X-11871270Y-11230280D01*
X-11403000Y-11698552D01*
X-11403000Y-12119983D01*
X-11424573Y-12111047D01*
X-11512285Y-12093600D01*
X-11601715Y-12093600D01*
X-11689427Y-12111047D01*
X-11772050Y-12145270D01*
X-11846408Y-12194955D01*
X-11909645Y-12258192D01*
X-11957397Y-12329657D01*
X-11994885Y-12322200D01*
X-12083931Y-12322200D01*
X-12085647Y-12313573D01*
X-12119870Y-12230950D01*
X-12169555Y-12156592D01*
X-12232792Y-12093355D01*
X-12307150Y-12043670D01*
X-12389773Y-12009447D01*
X-12477485Y-11992000D01*
X-12566915Y-11992000D01*
X-12654627Y-12009447D01*
X-12737250Y-12043670D01*
X-12811608Y-12093355D01*
X-12874845Y-12156592D01*
X-12924530Y-12230950D01*
X-12958753Y-12313573D01*
X-12976200Y-12401285D01*
X-12976200Y-12490715D01*
X-12958753Y-12578427D01*
X-12924530Y-12661050D01*
X-12874845Y-12735408D01*
X-12811608Y-12798645D01*
X-12737250Y-12848330D01*
X-12654627Y-12882553D01*
X-12566915Y-12900000D01*
X-12477869Y-12900000D01*
X-12476153Y-12908627D01*
X-12441930Y-12991250D01*
X-12392245Y-13065608D01*
X-12329008Y-13128845D01*
X-12254650Y-13178530D01*
X-12172027Y-13212753D01*
X-12084315Y-13230200D01*
X-11994885Y-13230200D01*
X-11907173Y-13212753D01*
X-11824550Y-13178530D01*
X-11750192Y-13128845D01*
X-11686955Y-13065608D01*
X-11639203Y-12994143D01*
X-11601715Y-13001600D01*
X-11512285Y-13001600D01*
X-11452009Y-12989610D01*
X-11451330Y-12991250D01*
X-11401645Y-13065608D01*
X-11338408Y-13128845D01*
X-11264050Y-13178530D01*
X-11181427Y-13212753D01*
X-11093715Y-13230200D01*
X-11004285Y-13230200D01*
X-10916573Y-13212753D01*
X-10833950Y-13178530D01*
X-10759592Y-13128845D01*
X-10696355Y-13065608D01*
X-10646670Y-12991250D01*
X-10612447Y-12908627D01*
X-10610731Y-12900000D01*
X-10521685Y-12900000D01*
X-10497621Y-12895213D01*
X-10494953Y-12908627D01*
X-10460730Y-12991250D01*
X-10411045Y-13065608D01*
X-10347808Y-13128845D01*
X-10273450Y-13178530D01*
X-10190827Y-13212753D01*
X-10103115Y-13230200D01*
X-10013685Y-13230200D01*
X-9925973Y-13212753D01*
X-9843350Y-13178530D01*
X-9768992Y-13128845D01*
X-9705755Y-13065608D01*
X-9656070Y-12991250D01*
X-9621847Y-12908627D01*
X-9618212Y-12890353D01*
X-9569715Y-12900000D01*
X-9480285Y-12900000D01*
X-9453196Y-12894612D01*
X-9444730Y-12915050D01*
X-9395045Y-12989408D01*
X-9331808Y-13052645D01*
X-9257450Y-13102330D01*
X-9174827Y-13136553D01*
X-9087115Y-13154000D01*
X-8997685Y-13154000D01*
X-8909973Y-13136553D01*
X-8827350Y-13102330D01*
X-8752992Y-13052645D01*
X-8689755Y-12989408D01*
X-8640070Y-12915050D01*
X-8605847Y-12832427D01*
X-8588400Y-12744715D01*
X-8588400Y-12655285D01*
X-8605847Y-12567573D01*
X-8640070Y-12484950D01*
X-8689755Y-12410592D01*
X-8752992Y-12347355D01*
X-8827350Y-12297670D01*
X-8909973Y-12263447D01*
X-8997685Y-12246000D01*
X-9087115Y-12246000D01*
X-9114204Y-12251388D01*
X-9122670Y-12230950D01*
X-9172355Y-12156592D01*
X-9235592Y-12093355D01*
X-9309950Y-12043670D01*
X-9392573Y-12009447D01*
X-9480285Y-11992000D01*
X-9569715Y-11992000D01*
X-9657427Y-12009447D01*
X-9740050Y-12043670D01*
X-9814408Y-12093355D01*
X-9877645Y-12156592D01*
X-9927330Y-12230950D01*
X-9961553Y-12313573D01*
X-9965188Y-12331847D01*
X-10013685Y-12322200D01*
X-10103115Y-12322200D01*
X-10127179Y-12326987D01*
X-10129847Y-12313573D01*
X-10164070Y-12230950D01*
X-10213755Y-12156592D01*
X-10276992Y-12093355D01*
X-10351350Y-12043670D01*
X-10433973Y-12009447D01*
X-10521685Y-11992000D01*
X-10611115Y-11992000D01*
X-10695000Y-12008686D01*
X-10695000Y-11569293D01*
X-10693289Y-11551919D01*
X-10695000Y-11534545D01*
X-10695000Y-11534538D01*
X-10700123Y-11482524D01*
X-10718833Y-11420845D01*
X-9181440Y-11420845D01*
X-9181440Y-11510275D01*
X-9163993Y-11597987D01*
X-9129770Y-11680610D01*
X-9080085Y-11754968D01*
X-9016848Y-11818205D01*
X-8942490Y-11867890D01*
X-8859867Y-11902113D01*
X-8772155Y-11919560D01*
X-8682725Y-11919560D01*
X-8595013Y-11902113D01*
X-8512390Y-11867890D01*
X-8438032Y-11818205D01*
X-8374795Y-11754968D01*
X-8325110Y-11680610D01*
X-8290887Y-11597987D01*
X-8273440Y-11510275D01*
X-8273440Y-11420845D01*
X-8290887Y-11333133D01*
X-8325110Y-11250510D01*
X-8374795Y-11176152D01*
X-8438032Y-11112915D01*
X-8512390Y-11063230D01*
X-8595013Y-11029007D01*
X-8682725Y-11011560D01*
X-8772155Y-11011560D01*
X-8859867Y-11029007D01*
X-8942490Y-11063230D01*
X-9016848Y-11112915D01*
X-9080085Y-11176152D01*
X-9129770Y-11250510D01*
X-9163993Y-11333133D01*
X-9181440Y-11420845D01*
X-10718833Y-11420845D01*
X-10720365Y-11415795D01*
X-10753236Y-11354297D01*
X-10760166Y-11345853D01*
X-10786394Y-11313894D01*
X-10786402Y-11313886D01*
X-10797475Y-11300394D01*
X-10810966Y-11289322D01*
X-11462029Y-10638261D01*
X-11473114Y-10624754D01*
X-11527017Y-10580516D01*
X-11588515Y-10547645D01*
X-11655244Y-10527403D01*
X-11707258Y-10522280D01*
X-11707266Y-10522280D01*
X-11724640Y-10520569D01*
X-11742014Y-10522280D01*
X-12756568Y-10522280D01*
X-13199389Y-10079461D01*
X-13210474Y-10065954D01*
X-13264377Y-10021716D01*
X-13325875Y-9988845D01*
X-13392604Y-9968603D01*
X-13444618Y-9963480D01*
X-13444626Y-9963480D01*
X-13462000Y-9961769D01*
X-13479374Y-9963480D01*
X-14233800Y-9963480D01*
X-14306130Y-9915150D01*
X-14388753Y-9880927D01*
X-14476465Y-9863480D01*
X-14565895Y-9863480D01*
X-14594181Y-9869106D01*
X-14594181Y-7037931D01*
X-14198791Y-6642541D01*
X-11955779Y-6642541D01*
X-11948159Y-8837101D01*
X-11945785Y-8861107D01*
X-11938621Y-8884950D01*
X-11926943Y-8906938D01*
X-11911200Y-8926225D01*
X-11891996Y-8942070D01*
X-11870071Y-8953864D01*
X-11846266Y-8961154D01*
X-11821496Y-8963660D01*
X-9064062Y-8970948D01*
X-9047474Y-10717466D01*
X-9045292Y-10739734D01*
X-9038314Y-10763633D01*
X-9026808Y-10785711D01*
X-9011215Y-10805120D01*
X-8992136Y-10821114D01*
X-8970303Y-10833079D01*
X-8946556Y-10840554D01*
X-8921806Y-10843253D01*
X-8074174Y-10852106D01*
X-8067039Y-12695412D01*
X-8064600Y-12719696D01*
X-8057373Y-12743521D01*
X-8045637Y-12765477D01*
X-8029843Y-12784723D01*
X-8010597Y-12800517D01*
X-7988641Y-12812253D01*
X-7964816Y-12819480D01*
X-7940040Y-12821920D01*
X-7155180Y-12821920D01*
X-7130569Y-12819513D01*
X-7106735Y-12812317D01*
X-7084763Y-12800610D01*
X-7065497Y-12784842D01*
X-7049677Y-12765618D01*
X-7044995Y-12756885D01*
X-6875120Y-12756885D01*
X-6875120Y-12846315D01*
X-6857673Y-12934027D01*
X-6823450Y-13016650D01*
X-6773765Y-13091008D01*
X-6710528Y-13154245D01*
X-6636170Y-13203930D01*
X-6553547Y-13238153D01*
X-6465835Y-13255600D01*
X-6376405Y-13255600D01*
X-6288693Y-13238153D01*
X-6206070Y-13203930D01*
X-6131712Y-13154245D01*
X-6068475Y-13091008D01*
X-6018790Y-13016650D01*
X-5984567Y-12934027D01*
X-5979861Y-12910369D01*
X-5154600Y-13735631D01*
X-5154599Y-16570298D01*
X-5307838Y-16723537D01*
X-5338070Y-16650550D01*
X-5387755Y-16576192D01*
X-5450992Y-16512955D01*
X-5525350Y-16463270D01*
X-5607973Y-16429047D01*
X-5695685Y-16411600D01*
X-5785115Y-16411600D01*
X-5872827Y-16429047D01*
X-5955450Y-16463270D01*
X-6029808Y-16512955D01*
X-6093045Y-16576192D01*
X-6142730Y-16650550D01*
X-6176953Y-16733173D01*
X-6194400Y-16820885D01*
X-6194400Y-16910315D01*
X-6182480Y-16970238D01*
X-6200106Y-16977539D01*
X-6274464Y-17027224D01*
X-6337701Y-17090461D01*
X-6387386Y-17164819D01*
X-6421609Y-17247442D01*
X-6439056Y-17335154D01*
X-6439056Y-17424584D01*
X-6421609Y-17512296D01*
X-6387386Y-17594919D01*
X-6337701Y-17669277D01*
X-6274464Y-17732514D01*
X-6200106Y-17782199D01*
X-6117483Y-17816422D01*
X-6092800Y-17821332D01*
X-6092800Y-17821885D01*
X-6079685Y-17887818D01*
X-6152227Y-17902247D01*
X-6234850Y-17936470D01*
X-6309208Y-17986155D01*
X-6372445Y-18049392D01*
X-6422130Y-18123750D01*
X-6456353Y-18206373D01*
X-6473800Y-18294085D01*
X-6473800Y-18383515D01*
X-6456353Y-18471227D01*
X-6422130Y-18553850D01*
X-6372445Y-18628208D01*
X-6309208Y-18691445D01*
X-6234850Y-18741130D01*
X-6152227Y-18775353D01*
X-6064515Y-18792800D01*
X-5975085Y-18792800D01*
X-5887373Y-18775353D01*
X-5804750Y-18741130D01*
X-5730392Y-18691445D01*
X-5667155Y-18628208D01*
X-5617470Y-18553850D01*
X-5583247Y-18471227D01*
X-5565800Y-18383515D01*
X-5565800Y-18294085D01*
X-5578915Y-18228152D01*
X-5506373Y-18213723D01*
X-5423750Y-18179500D01*
X-5353639Y-18132653D01*
X-5338584Y-18131170D01*
X-5338576Y-18131170D01*
X-5286562Y-18126047D01*
X-5219833Y-18105805D01*
X-5158335Y-18072934D01*
X-5104432Y-18028696D01*
X-5093346Y-18015188D01*
X-4235927Y-17157770D01*
X-4233114Y-17171913D01*
X-4198891Y-17254536D01*
X-4149206Y-17328894D01*
X-4085969Y-17392131D01*
X-4011611Y-17441816D01*
X-3928988Y-17476039D01*
X-3841276Y-17493486D01*
X-3751846Y-17493486D01*
X-3664134Y-17476039D01*
X-3581511Y-17441816D01*
X-3507153Y-17392131D01*
X-3443916Y-17328894D01*
X-3394231Y-17254536D01*
X-3360008Y-17171913D01*
X-3342561Y-17084201D01*
X-3342561Y-17029165D01*
X-2188820Y-17029165D01*
X-2188820Y-17118595D01*
X-2171373Y-17206307D01*
X-2137150Y-17288930D01*
X-2087465Y-17363288D01*
X-2024228Y-17426525D01*
X-1949870Y-17476210D01*
X-1867247Y-17510433D01*
X-1779535Y-17527880D01*
X-1690105Y-17527880D01*
X-1602393Y-17510433D01*
X-1519770Y-17476210D01*
X-1445412Y-17426525D01*
X-1382175Y-17363288D01*
X-1332490Y-17288930D01*
X-1298267Y-17206307D01*
X-1280820Y-17118595D01*
X-1280820Y-17029165D01*
X-1298267Y-16941453D01*
X-1332490Y-16858830D01*
X-1382175Y-16784472D01*
X-1445412Y-16721235D01*
X-1467220Y-16706663D01*
X8249330Y-16706663D01*
X8249330Y-16796093D01*
X8266777Y-16883805D01*
X8301000Y-16966428D01*
X8350685Y-17040786D01*
X8413922Y-17104023D01*
X8488280Y-17153708D01*
X8570903Y-17187931D01*
X8658615Y-17205378D01*
X8748045Y-17205378D01*
X8835757Y-17187931D01*
X8918380Y-17153708D01*
X8992738Y-17104023D01*
X9055975Y-17040786D01*
X9089391Y-16990775D01*
X12906400Y-16990775D01*
X12906400Y-17080205D01*
X12923847Y-17167917D01*
X12958070Y-17250540D01*
X13007755Y-17324898D01*
X13070992Y-17388135D01*
X13145350Y-17437820D01*
X13227973Y-17472043D01*
X13315685Y-17489490D01*
X13405115Y-17489490D01*
X13490600Y-17472486D01*
X13490600Y-17507215D01*
X13508047Y-17594927D01*
X13542270Y-17677550D01*
X13591955Y-17751908D01*
X13655192Y-17815145D01*
X13729550Y-17864830D01*
X13812173Y-17899053D01*
X13899885Y-17916500D01*
X13989315Y-17916500D01*
X14077027Y-17899053D01*
X14159650Y-17864830D01*
X14234008Y-17815145D01*
X14297245Y-17751908D01*
X14346930Y-17677550D01*
X14381153Y-17594927D01*
X14398600Y-17507215D01*
X14398600Y-17417785D01*
X14381153Y-17330073D01*
X14346930Y-17247450D01*
X14297245Y-17173092D01*
X14234008Y-17109855D01*
X14159650Y-17060170D01*
X14077027Y-17025947D01*
X13989315Y-17008500D01*
X13899885Y-17008500D01*
X13814400Y-17025504D01*
X13814400Y-16990775D01*
X13796953Y-16903063D01*
X13762730Y-16820440D01*
X13713045Y-16746082D01*
X13649808Y-16682845D01*
X13575450Y-16633160D01*
X13492827Y-16598937D01*
X13405115Y-16581490D01*
X13315685Y-16581490D01*
X13227973Y-16598937D01*
X13145350Y-16633160D01*
X13070992Y-16682845D01*
X13007755Y-16746082D01*
X12958070Y-16820440D01*
X12923847Y-16903063D01*
X12906400Y-16990775D01*
X9089391Y-16990775D01*
X9105660Y-16966428D01*
X9139883Y-16883805D01*
X9157330Y-16796093D01*
X9157330Y-16706663D01*
X9139883Y-16618951D01*
X9105660Y-16536328D01*
X9055975Y-16461970D01*
X8992738Y-16398733D01*
X8918380Y-16349048D01*
X8835757Y-16314825D01*
X8748045Y-16297378D01*
X8658615Y-16297378D01*
X8570903Y-16314825D01*
X8488280Y-16349048D01*
X8413922Y-16398733D01*
X8350685Y-16461970D01*
X8301000Y-16536328D01*
X8266777Y-16618951D01*
X8249330Y-16706663D01*
X-1467220Y-16706663D01*
X-1519770Y-16671550D01*
X-1602393Y-16637327D01*
X-1690105Y-16619880D01*
X-1779535Y-16619880D01*
X-1867247Y-16637327D01*
X-1949870Y-16671550D01*
X-2024228Y-16721235D01*
X-2087465Y-16784472D01*
X-2137150Y-16858830D01*
X-2171373Y-16941453D01*
X-2188820Y-17029165D01*
X-3342561Y-17029165D01*
X-3342561Y-16994771D01*
X-3360008Y-16907059D01*
X-3394231Y-16824436D01*
X-3443916Y-16750078D01*
X-3507153Y-16686841D01*
X-3581511Y-16637156D01*
X-3664134Y-16602933D01*
X-3751846Y-16585486D01*
X-3802917Y-16585486D01*
X-3738742Y-16542605D01*
X-3675505Y-16479368D01*
X-3625820Y-16405010D01*
X-3591597Y-16322387D01*
X-3574150Y-16234675D01*
X-3574150Y-16145245D01*
X-3591597Y-16057533D01*
X-3625820Y-15974910D01*
X-3669656Y-15909306D01*
X-3612227Y-15933093D01*
X-3524515Y-15950540D01*
X-3435085Y-15950540D01*
X-3347373Y-15933093D01*
X-3264750Y-15898870D01*
X-3190392Y-15849185D01*
X-3163570Y-15822363D01*
X-3141828Y-15844105D01*
X-3067470Y-15893790D01*
X-2984847Y-15928013D01*
X-2897135Y-15945460D01*
X-2807705Y-15945460D01*
X-2719993Y-15928013D01*
X-2637370Y-15893790D01*
X-2563012Y-15844105D01*
X-2499775Y-15780868D01*
X-2483577Y-15756625D01*
X-799998Y-15756625D01*
X-799998Y-15846055D01*
X-782551Y-15933767D01*
X-748328Y-16016390D01*
X-698643Y-16090748D01*
X-635406Y-16153985D01*
X-561048Y-16203670D01*
X-478425Y-16237893D01*
X-429187Y-16247687D01*
X-411856Y-16334817D01*
X-377633Y-16417440D01*
X-327948Y-16491798D01*
X-264711Y-16555035D01*
X-190353Y-16604720D01*
X-107730Y-16638943D01*
X-20018Y-16656390D01*
X69412Y-16656390D01*
X157124Y-16638943D01*
X239747Y-16604720D01*
X314105Y-16555035D01*
X377342Y-16491798D01*
X427027Y-16417440D01*
X461250Y-16334817D01*
X478697Y-16247105D01*
X478697Y-16157675D01*
X461250Y-16069963D01*
X427027Y-15987340D01*
X377342Y-15912982D01*
X314105Y-15849745D01*
X239747Y-15800060D01*
X157124Y-15765837D01*
X107886Y-15756043D01*
X90555Y-15668913D01*
X62709Y-15601685D01*
X9299600Y-15601685D01*
X9299600Y-15691115D01*
X9317047Y-15778827D01*
X9351270Y-15861450D01*
X9400955Y-15935808D01*
X9464192Y-15999045D01*
X9538550Y-16048730D01*
X9621173Y-16082953D01*
X9708885Y-16100400D01*
X9798315Y-16100400D01*
X9886027Y-16082953D01*
X9968650Y-16048730D01*
X10043008Y-15999045D01*
X10106245Y-15935808D01*
X10155930Y-15861450D01*
X10190153Y-15778827D01*
X10207600Y-15691115D01*
X10207600Y-15601685D01*
X11839600Y-15601685D01*
X11839600Y-15691115D01*
X11857047Y-15778827D01*
X11891270Y-15861450D01*
X11940955Y-15935808D01*
X12004192Y-15999045D01*
X12078550Y-16048730D01*
X12161173Y-16082953D01*
X12248885Y-16100400D01*
X12338315Y-16100400D01*
X12426027Y-16082953D01*
X12508650Y-16048730D01*
X12583008Y-15999045D01*
X12646245Y-15935808D01*
X12695930Y-15861450D01*
X12730153Y-15778827D01*
X12747600Y-15691115D01*
X12747600Y-15601685D01*
X12730153Y-15513973D01*
X12695930Y-15431350D01*
X12646245Y-15356992D01*
X12583008Y-15293755D01*
X12508650Y-15244070D01*
X12426027Y-15209847D01*
X12338315Y-15192400D01*
X12248885Y-15192400D01*
X12161173Y-15209847D01*
X12078550Y-15244070D01*
X12004192Y-15293755D01*
X11940955Y-15356992D01*
X11891270Y-15431350D01*
X11857047Y-15513973D01*
X11839600Y-15601685D01*
X10207600Y-15601685D01*
X10190153Y-15513973D01*
X10155930Y-15431350D01*
X10106245Y-15356992D01*
X10043008Y-15293755D01*
X9968650Y-15244070D01*
X9886027Y-15209847D01*
X9798315Y-15192400D01*
X9708885Y-15192400D01*
X9621173Y-15209847D01*
X9538550Y-15244070D01*
X9464192Y-15293755D01*
X9400955Y-15356992D01*
X9351270Y-15431350D01*
X9317047Y-15513973D01*
X9299600Y-15601685D01*
X62709Y-15601685D01*
X56332Y-15586290D01*
X6647Y-15511932D01*
X-56590Y-15448695D01*
X-130948Y-15399010D01*
X-213571Y-15364787D01*
X-301283Y-15347340D01*
X-390713Y-15347340D01*
X-478425Y-15364787D01*
X-561048Y-15399010D01*
X-635406Y-15448695D01*
X-698643Y-15511932D01*
X-748328Y-15586290D01*
X-782551Y-15668913D01*
X-799998Y-15756625D01*
X-2483577Y-15756625D01*
X-2450090Y-15706510D01*
X-2415867Y-15623887D01*
X-2398420Y-15536175D01*
X-2398420Y-15446745D01*
X-2415867Y-15359033D01*
X-2450090Y-15276410D01*
X-2499775Y-15202052D01*
X-2563012Y-15138815D01*
X-2637370Y-15089130D01*
X-2719993Y-15054907D01*
X-2807705Y-15037460D01*
X-2897135Y-15037460D01*
X-2984847Y-15054907D01*
X-3067470Y-15089130D01*
X-3141828Y-15138815D01*
X-3168650Y-15165637D01*
X-3190392Y-15143895D01*
X-3264750Y-15094210D01*
X-3347373Y-15059987D01*
X-3435085Y-15042540D01*
X-3524515Y-15042540D01*
X-3612227Y-15059987D01*
X-3619928Y-15063177D01*
X-3644622Y-15026221D01*
X-3707859Y-14962984D01*
X-3782217Y-14913299D01*
X-3864840Y-14879076D01*
X-3952552Y-14861629D01*
X-4041982Y-14861629D01*
X-4101160Y-14873400D01*
X-4101160Y-14435879D01*
X-4093630Y-14440910D01*
X-4011007Y-14475133D01*
X-3923295Y-14492580D01*
X-3833865Y-14492580D01*
X-3746153Y-14475133D01*
X-3663530Y-14440910D01*
X-3589172Y-14391225D01*
X-3525935Y-14327988D01*
X-3476250Y-14253630D01*
X-3442027Y-14171007D01*
X-3427507Y-14098005D01*
X-3062580Y-14098005D01*
X-3062580Y-14187435D01*
X-3045133Y-14275147D01*
X-3010910Y-14357770D01*
X-2961225Y-14432128D01*
X-2897988Y-14495365D01*
X-2823630Y-14545050D01*
X-2741007Y-14579273D01*
X-2653295Y-14596720D01*
X-2563865Y-14596720D01*
X-2476153Y-14579273D01*
X-2393530Y-14545050D01*
X-2319172Y-14495365D01*
X-2255935Y-14432128D01*
X-2206250Y-14357770D01*
X-2172027Y-14275147D01*
X-2154580Y-14187435D01*
X-2154580Y-14098005D01*
X-2172027Y-14010293D01*
X-2206250Y-13927670D01*
X-2255935Y-13853312D01*
X-2319172Y-13790075D01*
X-2393530Y-13740390D01*
X-2476153Y-13706167D01*
X-2563865Y-13688720D01*
X-2653295Y-13688720D01*
X-2741007Y-13706167D01*
X-2823630Y-13740390D01*
X-2897988Y-13790075D01*
X-2961225Y-13853312D01*
X-3010910Y-13927670D01*
X-3045133Y-14010293D01*
X-3062580Y-14098005D01*
X-3427507Y-14098005D01*
X-3424580Y-14083295D01*
X-3424580Y-13993865D01*
X-3442027Y-13906153D01*
X-3476250Y-13823530D01*
X-3525935Y-13749172D01*
X-3589172Y-13685935D01*
X-3663530Y-13636250D01*
X-3746153Y-13602027D01*
X-3833865Y-13584580D01*
X-3923295Y-13584580D01*
X-4011007Y-13602027D01*
X-4093630Y-13636250D01*
X-4101160Y-13641281D01*
X-4101160Y-13484453D01*
X-4099449Y-13467079D01*
X-4101160Y-13449705D01*
X-4101160Y-13449698D01*
X-4106283Y-13397684D01*
X-4126525Y-13330955D01*
X-4159396Y-13269457D01*
X-4166858Y-13260365D01*
X-4192554Y-13229054D01*
X-4192562Y-13229046D01*
X-4203635Y-13215554D01*
X-4217126Y-13204482D01*
X-5396560Y-12025050D01*
X-5396560Y-11225265D01*
X-5340960Y-11225265D01*
X-5340960Y-11314695D01*
X-5323513Y-11402407D01*
X-5289290Y-11485030D01*
X-5239605Y-11559388D01*
X-5176368Y-11622625D01*
X-5102010Y-11672310D01*
X-5019387Y-11706533D01*
X-4931675Y-11723980D01*
X-4842245Y-11723980D01*
X-4754533Y-11706533D01*
X-4671910Y-11672310D01*
X-4597552Y-11622625D01*
X-4534315Y-11559388D01*
X-4484630Y-11485030D01*
X-4450407Y-11402407D01*
X-4432960Y-11314695D01*
X-4432960Y-11225265D01*
X-4450407Y-11137553D01*
X-4484630Y-11054930D01*
X-4534315Y-10980572D01*
X-4597552Y-10917335D01*
X-4671910Y-10867650D01*
X-4754533Y-10833427D01*
X-4842245Y-10815980D01*
X-4931675Y-10815980D01*
X-5019387Y-10833427D01*
X-5102010Y-10867650D01*
X-5176368Y-10917335D01*
X-5239605Y-10980572D01*
X-5289290Y-11054930D01*
X-5323513Y-11137553D01*
X-5340960Y-11225265D01*
X-5396560Y-11225265D01*
X-5396560Y-8555080D01*
X-5348230Y-8482750D01*
X-5314007Y-8400127D01*
X-5296560Y-8312415D01*
X-5296560Y-8222985D01*
X-5298580Y-8212825D01*
X-2534260Y-8212825D01*
X-2534260Y-8302255D01*
X-2516813Y-8389967D01*
X-2482590Y-8472590D01*
X-2432905Y-8546948D01*
X-2369668Y-8610185D01*
X-2295310Y-8659870D01*
X-2212687Y-8694093D01*
X-2124975Y-8711540D01*
X-2035545Y-8711540D01*
X-1947833Y-8694093D01*
X-1865210Y-8659870D01*
X-1790852Y-8610185D01*
X-1749092Y-8568425D01*
X-629260Y-8568425D01*
X-629260Y-8657855D01*
X-611813Y-8745567D01*
X-577590Y-8828190D01*
X-527905Y-8902548D01*
X-464668Y-8965785D01*
X-390310Y-9015470D01*
X-307687Y-9049693D01*
X-219975Y-9067140D01*
X-130545Y-9067140D01*
X-42833Y-9049693D01*
X39790Y-9015470D01*
X114148Y-8965785D01*
X177385Y-8902548D01*
X227070Y-8828190D01*
X261293Y-8745567D01*
X269033Y-8706654D01*
X284129Y-8782545D01*
X318352Y-8865168D01*
X368037Y-8939526D01*
X431274Y-9002763D01*
X505632Y-9052448D01*
X588255Y-9086671D01*
X675967Y-9104118D01*
X765397Y-9104118D01*
X853109Y-9086671D01*
X858452Y-9084458D01*
X830636Y-9112274D01*
X780951Y-9186632D01*
X746728Y-9269255D01*
X729281Y-9356967D01*
X729281Y-9446397D01*
X746728Y-9534109D01*
X780951Y-9616732D01*
X830636Y-9691090D01*
X893873Y-9754327D01*
X968231Y-9804012D01*
X1050854Y-9838235D01*
X1138566Y-9855682D01*
X1227996Y-9855682D01*
X1315708Y-9838235D01*
X1398331Y-9804012D01*
X1472689Y-9754327D01*
X1535926Y-9691090D01*
X1585611Y-9616732D01*
X1619834Y-9534109D01*
X1636192Y-9451869D01*
X4096000Y-9451869D01*
X4096000Y-9748131D01*
X4153798Y-10038701D01*
X4267173Y-10312411D01*
X4431767Y-10558744D01*
X4641256Y-10768233D01*
X4887589Y-10932827D01*
X5161299Y-11046202D01*
X5451869Y-11104000D01*
X5748131Y-11104000D01*
X6038701Y-11046202D01*
X6312411Y-10932827D01*
X6558744Y-10768233D01*
X6768233Y-10558744D01*
X6932827Y-10312411D01*
X7046202Y-10038701D01*
X7104000Y-9748131D01*
X7104000Y-9451869D01*
X16096000Y-9451869D01*
X16096000Y-9748131D01*
X16153798Y-10038701D01*
X16267173Y-10312411D01*
X16431767Y-10558744D01*
X16641256Y-10768233D01*
X16887589Y-10932827D01*
X17161299Y-11046202D01*
X17451869Y-11104000D01*
X17748131Y-11104000D01*
X18038701Y-11046202D01*
X18312411Y-10932827D01*
X18558744Y-10768233D01*
X18768233Y-10558744D01*
X18932827Y-10312411D01*
X19046202Y-10038701D01*
X19104000Y-9748131D01*
X19104000Y-9451869D01*
X19046202Y-9161299D01*
X18932827Y-8887589D01*
X18768233Y-8641256D01*
X18558744Y-8431767D01*
X18312411Y-8267173D01*
X18038701Y-8153798D01*
X17748131Y-8096000D01*
X17451869Y-8096000D01*
X17161299Y-8153798D01*
X16887589Y-8267173D01*
X16641256Y-8431767D01*
X16431767Y-8641256D01*
X16267173Y-8887589D01*
X16153798Y-9161299D01*
X16096000Y-9451869D01*
X7104000Y-9451869D01*
X7046202Y-9161299D01*
X6932827Y-8887589D01*
X6768233Y-8641256D01*
X6558744Y-8431767D01*
X6400060Y-8325738D01*
X8936000Y-8325738D01*
X8936000Y-8474262D01*
X8964976Y-8619934D01*
X9021814Y-8757153D01*
X9104330Y-8880647D01*
X9209353Y-8985670D01*
X9332847Y-9068186D01*
X9470066Y-9125024D01*
X9615738Y-9154000D01*
X9764262Y-9154000D01*
X9909934Y-9125024D01*
X10047153Y-9068186D01*
X10170647Y-8985670D01*
X10275670Y-8880647D01*
X10325000Y-8806819D01*
X10374330Y-8880647D01*
X10479353Y-8985670D01*
X10602847Y-9068186D01*
X10740066Y-9125024D01*
X10885738Y-9154000D01*
X11034262Y-9154000D01*
X11179934Y-9125024D01*
X11317153Y-9068186D01*
X11440647Y-8985670D01*
X11545670Y-8880647D01*
X11595000Y-8806819D01*
X11644330Y-8880647D01*
X11749353Y-8985670D01*
X11872847Y-9068186D01*
X12010066Y-9125024D01*
X12155738Y-9154000D01*
X12304262Y-9154000D01*
X12449934Y-9125024D01*
X12587153Y-9068186D01*
X12710647Y-8985670D01*
X12749393Y-8946924D01*
X12749676Y-8949793D01*
X12764200Y-8997672D01*
X12787786Y-9041797D01*
X12819527Y-9080473D01*
X12858203Y-9112214D01*
X12902328Y-9135800D01*
X12950207Y-9150324D01*
X13000000Y-9155228D01*
X14000000Y-9155228D01*
X14049793Y-9150324D01*
X14097672Y-9135800D01*
X14141797Y-9112214D01*
X14180473Y-9080473D01*
X14212214Y-9041797D01*
X14235800Y-8997672D01*
X14250324Y-8949793D01*
X14255228Y-8900000D01*
X14255228Y-7900000D01*
X14250324Y-7850207D01*
X14235800Y-7802328D01*
X14212214Y-7758203D01*
X14180473Y-7719527D01*
X14141797Y-7687786D01*
X14097672Y-7664200D01*
X14049793Y-7649676D01*
X14000000Y-7644772D01*
X13000000Y-7644772D01*
X12950207Y-7649676D01*
X12902328Y-7664200D01*
X12858203Y-7687786D01*
X12819527Y-7719527D01*
X12787786Y-7758203D01*
X12764200Y-7802328D01*
X12749676Y-7850207D01*
X12749393Y-7853076D01*
X12710647Y-7814330D01*
X12587153Y-7731814D01*
X12449934Y-7674976D01*
X12304262Y-7646000D01*
X12155738Y-7646000D01*
X12010066Y-7674976D01*
X11872847Y-7731814D01*
X11749353Y-7814330D01*
X11644330Y-7919353D01*
X11595000Y-7993181D01*
X11545670Y-7919353D01*
X11440647Y-7814330D01*
X11317153Y-7731814D01*
X11179934Y-7674976D01*
X11034262Y-7646000D01*
X10885738Y-7646000D01*
X10740066Y-7674976D01*
X10602847Y-7731814D01*
X10479353Y-7814330D01*
X10374330Y-7919353D01*
X10325000Y-7993181D01*
X10275670Y-7919353D01*
X10170647Y-7814330D01*
X10047153Y-7731814D01*
X9909934Y-7674976D01*
X9764262Y-7646000D01*
X9615738Y-7646000D01*
X9470066Y-7674976D01*
X9332847Y-7731814D01*
X9209353Y-7814330D01*
X9104330Y-7919353D01*
X9021814Y-8042847D01*
X8964976Y-8180066D01*
X8936000Y-8325738D01*
X6400060Y-8325738D01*
X6312411Y-8267173D01*
X6038701Y-8153798D01*
X5748131Y-8096000D01*
X5451869Y-8096000D01*
X5161299Y-8153798D01*
X4887589Y-8267173D01*
X4641256Y-8431767D01*
X4431767Y-8641256D01*
X4267173Y-8887589D01*
X4153798Y-9161299D01*
X4096000Y-9451869D01*
X1636192Y-9451869D01*
X1637281Y-9446397D01*
X1637281Y-9356967D01*
X1619834Y-9269255D01*
X1585611Y-9186632D01*
X1535926Y-9112274D01*
X1472689Y-9049037D01*
X1398331Y-8999352D01*
X1315708Y-8965129D01*
X1227996Y-8947682D01*
X1138566Y-8947682D01*
X1050854Y-8965129D01*
X1045511Y-8967342D01*
X1073327Y-8939526D01*
X1123012Y-8865168D01*
X1157235Y-8782545D01*
X1174682Y-8694833D01*
X1174682Y-8605403D01*
X1157235Y-8517691D01*
X1123012Y-8435068D01*
X1073327Y-8360710D01*
X1010090Y-8297473D01*
X935732Y-8247788D01*
X853109Y-8213565D01*
X765397Y-8196118D01*
X675967Y-8196118D01*
X588255Y-8213565D01*
X505632Y-8247788D01*
X431274Y-8297473D01*
X368037Y-8360710D01*
X318352Y-8435068D01*
X284129Y-8517691D01*
X276389Y-8556604D01*
X261293Y-8480713D01*
X227070Y-8398090D01*
X177385Y-8323732D01*
X114148Y-8260495D01*
X39790Y-8210810D01*
X-42833Y-8176587D01*
X-130545Y-8159140D01*
X-219975Y-8159140D01*
X-307687Y-8176587D01*
X-390310Y-8210810D01*
X-464668Y-8260495D01*
X-527905Y-8323732D01*
X-577590Y-8398090D01*
X-611813Y-8480713D01*
X-629260Y-8568425D01*
X-1749092Y-8568425D01*
X-1727615Y-8546948D01*
X-1677930Y-8472590D01*
X-1643707Y-8389967D01*
X-1626260Y-8302255D01*
X-1626260Y-8212825D01*
X-1643707Y-8125113D01*
X-1677930Y-8042490D01*
X-1727615Y-7968132D01*
X-1790852Y-7904895D01*
X-1865210Y-7855210D01*
X-1947833Y-7820987D01*
X-2035545Y-7803540D01*
X-2124975Y-7803540D01*
X-2212687Y-7820987D01*
X-2295310Y-7855210D01*
X-2369668Y-7904895D01*
X-2432905Y-7968132D01*
X-2482590Y-8042490D01*
X-2516813Y-8125113D01*
X-2534260Y-8212825D01*
X-5298580Y-8212825D01*
X-5314007Y-8135273D01*
X-5348230Y-8052650D01*
X-5397915Y-7978292D01*
X-5461152Y-7915055D01*
X-5535510Y-7865370D01*
X-5618133Y-7831147D01*
X-5705845Y-7813700D01*
X-5795275Y-7813700D01*
X-5882987Y-7831147D01*
X-5965610Y-7865370D01*
X-6039968Y-7915055D01*
X-6103205Y-7978292D01*
X-6152890Y-8052650D01*
X-6187113Y-8135273D01*
X-6204560Y-8222985D01*
X-6204560Y-8312415D01*
X-6187113Y-8400127D01*
X-6152890Y-8482750D01*
X-6104560Y-8555080D01*
X-6104560Y-9791826D01*
X-6140185Y-9784740D01*
X-6229615Y-9784740D01*
X-6317327Y-9802187D01*
X-6399950Y-9836410D01*
X-6474308Y-9886095D01*
X-6537545Y-9949332D01*
X-6587230Y-10023690D01*
X-6621453Y-10106313D01*
X-6638900Y-10194025D01*
X-6638900Y-10283455D01*
X-6621453Y-10371167D01*
X-6587230Y-10453790D01*
X-6538900Y-10526120D01*
X-6538899Y-12187316D01*
X-6540611Y-12204700D01*
X-6533777Y-12274096D01*
X-6521801Y-12313573D01*
X-6513534Y-12340825D01*
X-6505677Y-12355525D01*
X-6553547Y-12365047D01*
X-6636170Y-12399270D01*
X-6710528Y-12448955D01*
X-6773765Y-12512192D01*
X-6823450Y-12586550D01*
X-6857673Y-12669173D01*
X-6875120Y-12756885D01*
X-7044995Y-12756885D01*
X-7037912Y-12743677D01*
X-7030653Y-12719862D01*
X-7028180Y-12695089D01*
X-7023100Y-8877469D01*
X-7023100Y-7538720D01*
X-7025619Y-7513549D01*
X-7032922Y-7489748D01*
X-7044727Y-7467829D01*
X-7060582Y-7448634D01*
X-7079877Y-7432901D01*
X-7101871Y-7421234D01*
X-7125718Y-7414082D01*
X-7150502Y-7411721D01*
X-7825741Y-7413858D01*
X-7825746Y-6638508D01*
X-7828193Y-6613699D01*
X-7835426Y-6589876D01*
X-7847169Y-6567923D01*
X-7862968Y-6548682D01*
X-7882217Y-6532893D01*
X-7904177Y-6521163D01*
X-7928003Y-6513943D01*
X-7952780Y-6511509D01*
X-11823734Y-6512560D01*
X-11857244Y-6517070D01*
X-11880496Y-6525968D01*
X-11885576Y-6528508D01*
X-11899704Y-6536749D01*
X-11918894Y-6552610D01*
X-11934621Y-6571910D01*
X-11946281Y-6593907D01*
X-11953425Y-6617756D01*
X-11955779Y-6642541D01*
X-14198791Y-6642541D01*
X-12968014Y-5411765D01*
X-11496131Y-5411765D01*
X-11496131Y-5501195D01*
X-11478684Y-5588907D01*
X-11444461Y-5671530D01*
X-11394776Y-5745888D01*
X-11331539Y-5809125D01*
X-11257181Y-5858810D01*
X-11174558Y-5893033D01*
X-11086846Y-5910480D01*
X-10997416Y-5910480D01*
X-10909704Y-5893033D01*
X-10827081Y-5858810D01*
X-10752723Y-5809125D01*
X-10689486Y-5745888D01*
X-10639801Y-5671530D01*
X-10605578Y-5588907D01*
X-10588131Y-5501195D01*
X-10588131Y-5411765D01*
X-10605578Y-5324053D01*
X-10639801Y-5241430D01*
X-10689486Y-5167072D01*
X-10752723Y-5103835D01*
X-10827081Y-5054150D01*
X-10876725Y-5033587D01*
X-10799963Y-5048856D01*
X-10710533Y-5048856D01*
X-10622821Y-5031409D01*
X-10540198Y-4997186D01*
X-10465840Y-4947501D01*
X-10402603Y-4884264D01*
X-10352918Y-4809906D01*
X-10318695Y-4727283D01*
X-10301248Y-4639571D01*
X-10301248Y-4550141D01*
X-10314590Y-4483062D01*
X-8080577Y-4483062D01*
X-8080577Y-4572492D01*
X-8063130Y-4660204D01*
X-8028907Y-4742827D01*
X-7979222Y-4817185D01*
X-7915985Y-4880422D01*
X-7841627Y-4930107D01*
X-7759004Y-4964330D01*
X-7671292Y-4981777D01*
X-7581862Y-4981777D01*
X-7494150Y-4964330D01*
X-7411527Y-4930107D01*
X-7337169Y-4880422D01*
X-7273932Y-4817185D01*
X-7224247Y-4742827D01*
X-7190024Y-4660204D01*
X-7172577Y-4572492D01*
X-7172577Y-4483062D01*
X-7190024Y-4395350D01*
X-7198920Y-4373873D01*
X-7196790Y-4372450D01*
X-7133553Y-4309213D01*
X-7083868Y-4234855D01*
X-7049645Y-4152232D01*
X-7032198Y-4064520D01*
X-7032198Y-3975090D01*
X-7049645Y-3887378D01*
X-7081548Y-3810356D01*
X-7076592Y-3807045D01*
X-7013355Y-3743808D01*
X-6963670Y-3669450D01*
X-6956091Y-3651152D01*
X-6566899Y-4344619D01*
X-5864336Y-5254468D01*
X-5036785Y-6052328D01*
X-4101884Y-6721192D01*
X-3079559Y-7246806D01*
X-1991597Y-7617967D01*
X-861189Y-7826764D01*
X287574Y-7868747D01*
X1430209Y-7743021D01*
X2542360Y-7452267D01*
X3600326Y-7002680D01*
X4581557Y-6403843D01*
X5465140Y-5668520D01*
X6232243Y-4812382D01*
X6866517Y-3853676D01*
X6931767Y-3714485D01*
X8131200Y-3714485D01*
X8131200Y-3803915D01*
X8148647Y-3891627D01*
X8182870Y-3974250D01*
X8232555Y-4048608D01*
X8295792Y-4111845D01*
X8370150Y-4161530D01*
X8452773Y-4195753D01*
X8540485Y-4213200D01*
X8629915Y-4213200D01*
X8717627Y-4195753D01*
X8800250Y-4161530D01*
X8874608Y-4111845D01*
X8937845Y-4048608D01*
X8987530Y-3974250D01*
X9021753Y-3891627D01*
X9039200Y-3803915D01*
X9039200Y-3714485D01*
X9021753Y-3626773D01*
X8987530Y-3544150D01*
X8937845Y-3469792D01*
X8874608Y-3406555D01*
X8800250Y-3356870D01*
X8717627Y-3322647D01*
X8629915Y-3305200D01*
X8540485Y-3305200D01*
X8452773Y-3322647D01*
X8370150Y-3356870D01*
X8295792Y-3406555D01*
X8232555Y-3469792D01*
X8182870Y-3544150D01*
X8148647Y-3626773D01*
X8131200Y-3714485D01*
X6931767Y-3714485D01*
X7141330Y-3267445D01*
X13246760Y-3267445D01*
X13246760Y-3356875D01*
X13264207Y-3444587D01*
X13298430Y-3527210D01*
X13348115Y-3601568D01*
X13411352Y-3664805D01*
X13485710Y-3714490D01*
X13568333Y-3748713D01*
X13656045Y-3766160D01*
X13745475Y-3766160D01*
X13833187Y-3748713D01*
X13915810Y-3714490D01*
X13990168Y-3664805D01*
X14053405Y-3601568D01*
X14103090Y-3527210D01*
X14137313Y-3444587D01*
X14154760Y-3356875D01*
X14154760Y-3267445D01*
X14137313Y-3179733D01*
X14103090Y-3097110D01*
X14053405Y-3022752D01*
X13990168Y-2959515D01*
X13915810Y-2909830D01*
X13833187Y-2875607D01*
X13745475Y-2858160D01*
X13656045Y-2858160D01*
X13568333Y-2875607D01*
X13485710Y-2909830D01*
X13411352Y-2959515D01*
X13348115Y-3022752D01*
X13298430Y-3097110D01*
X13264207Y-3179733D01*
X13246760Y-3267445D01*
X7141330Y-3267445D01*
X7354443Y-2812836D01*
X7451508Y-2490205D01*
X7712100Y-2490205D01*
X7712100Y-2579635D01*
X7729547Y-2667347D01*
X7763770Y-2749970D01*
X7813455Y-2824328D01*
X7876692Y-2887565D01*
X7951050Y-2937250D01*
X8033673Y-2971473D01*
X8121385Y-2988920D01*
X8210815Y-2988920D01*
X8298527Y-2971473D01*
X8381150Y-2937250D01*
X8455508Y-2887565D01*
X8518745Y-2824328D01*
X8568430Y-2749970D01*
X8602653Y-2667347D01*
X8620100Y-2579635D01*
X8620100Y-2490205D01*
X8602653Y-2402493D01*
X8568430Y-2319870D01*
X8518745Y-2245512D01*
X8455508Y-2182275D01*
X8381150Y-2132590D01*
X8298527Y-2098367D01*
X8210815Y-2080920D01*
X8121385Y-2080920D01*
X8033673Y-2098367D01*
X7951050Y-2132590D01*
X7876692Y-2182275D01*
X7813455Y-2245512D01*
X7763770Y-2319870D01*
X7729547Y-2402493D01*
X7712100Y-2490205D01*
X7451508Y-2490205D01*
X7685621Y-1712045D01*
X7817066Y-818885D01*
X9756800Y-818885D01*
X9756800Y-908315D01*
X9774247Y-996027D01*
X9808470Y-1078650D01*
X9858155Y-1153008D01*
X9921392Y-1216245D01*
X9995750Y-1265930D01*
X10078373Y-1300153D01*
X10166085Y-1317600D01*
X10255515Y-1317600D01*
X10343227Y-1300153D01*
X10425850Y-1265930D01*
X10500208Y-1216245D01*
X10563445Y-1153008D01*
X10613130Y-1078650D01*
X10647353Y-996027D01*
X10664800Y-908315D01*
X10664800Y-818885D01*
X10647353Y-731173D01*
X10613130Y-648550D01*
X10563445Y-574192D01*
X10500208Y-510955D01*
X10425850Y-461270D01*
X10343227Y-427047D01*
X10255515Y-409600D01*
X10166085Y-409600D01*
X10078373Y-427047D01*
X9995750Y-461270D01*
X9921392Y-510955D01*
X9858155Y-574192D01*
X9808470Y-648550D01*
X9774247Y-731173D01*
X9756800Y-818885D01*
X7817066Y-818885D01*
X7852994Y-574765D01*
X7852994Y34555D01*
X15827400Y34555D01*
X15827400Y-54875D01*
X15844847Y-142587D01*
X15879070Y-225210D01*
X15928755Y-299568D01*
X15991992Y-362805D01*
X16066350Y-412490D01*
X16148973Y-446713D01*
X16236685Y-464160D01*
X16326115Y-464160D01*
X16413827Y-446713D01*
X16496450Y-412490D01*
X16570808Y-362805D01*
X16634045Y-299568D01*
X16683730Y-225210D01*
X16717953Y-142587D01*
X16735400Y-54875D01*
X16735400Y34555D01*
X16717953Y122267D01*
X16683730Y204890D01*
X16634045Y279248D01*
X16570808Y342485D01*
X16496450Y392170D01*
X16413827Y426393D01*
X16326115Y443840D01*
X16236685Y443840D01*
X16148973Y426393D01*
X16066350Y392170D01*
X15991992Y342485D01*
X15928755Y279248D01*
X15879070Y204890D01*
X15844847Y122267D01*
X15827400Y34555D01*
X7852994Y34555D01*
X7852994Y574765D01*
X7685621Y1712045D01*
X7479623Y2396755D01*
X9375800Y2396755D01*
X9375800Y2307325D01*
X9393247Y2219613D01*
X9427470Y2136990D01*
X9477155Y2062632D01*
X9540392Y1999395D01*
X9614750Y1949710D01*
X9697373Y1915487D01*
X9785085Y1898040D01*
X9874515Y1898040D01*
X9962227Y1915487D01*
X10044850Y1949710D01*
X10119208Y1999395D01*
X10182445Y2062632D01*
X10232130Y2136990D01*
X10266353Y2219613D01*
X10283800Y2307325D01*
X10283800Y2396755D01*
X10266353Y2484467D01*
X10232130Y2567090D01*
X10182445Y2641448D01*
X10119208Y2704685D01*
X10044850Y2754370D01*
X9962227Y2788593D01*
X9874515Y2806040D01*
X9785085Y2806040D01*
X9697373Y2788593D01*
X9614750Y2754370D01*
X9540392Y2704685D01*
X9477155Y2641448D01*
X9427470Y2567090D01*
X9393247Y2484467D01*
X9375800Y2396755D01*
X7479623Y2396755D01*
X7354443Y2812836D01*
X6866517Y3853676D01*
X6232243Y4812382D01*
X5465140Y5668520D01*
X4894687Y6143255D01*
X10749940Y6143255D01*
X10749940Y6053825D01*
X10767387Y5966113D01*
X10801610Y5883490D01*
X10823428Y5850838D01*
X10812050Y5833810D01*
X10777827Y5751187D01*
X10760380Y5663475D01*
X10760380Y5574045D01*
X10777827Y5486333D01*
X10812050Y5403710D01*
X10827893Y5380000D01*
X10812050Y5356290D01*
X10777827Y5273667D01*
X10760380Y5185955D01*
X10760380Y5096525D01*
X10777827Y5008813D01*
X10812050Y4926190D01*
X10824498Y4907560D01*
X10812050Y4888930D01*
X10777827Y4806307D01*
X10760380Y4718595D01*
X10760380Y4629165D01*
X10777827Y4541453D01*
X10810298Y4463060D01*
X10777827Y4384667D01*
X10760380Y4296955D01*
X10760380Y4207525D01*
X10777827Y4119813D01*
X10812050Y4037190D01*
X10817710Y4028720D01*
X10812050Y4020250D01*
X10777827Y3937627D01*
X10760380Y3849915D01*
X10760380Y3760485D01*
X10777827Y3672773D01*
X10811350Y3591840D01*
X10777827Y3510907D01*
X10760380Y3423195D01*
X10760380Y3333765D01*
X10777827Y3246053D01*
X10812050Y3163430D01*
X10817710Y3154960D01*
X10812050Y3146490D01*
X10777827Y3063867D01*
X10760380Y2976155D01*
X10760380Y2886725D01*
X10777827Y2799013D01*
X10812050Y2716390D01*
X10861735Y2642032D01*
X10924972Y2578795D01*
X10999330Y2529110D01*
X11081953Y2494887D01*
X11169665Y2477440D01*
X11259095Y2477440D01*
X11346807Y2494887D01*
X11429430Y2529110D01*
X11503788Y2578795D01*
X11567025Y2642032D01*
X11616710Y2716390D01*
X11650933Y2799013D01*
X11668380Y2886725D01*
X11668380Y2976155D01*
X11650933Y3063867D01*
X11616710Y3146490D01*
X11611050Y3154960D01*
X11616710Y3163430D01*
X11650933Y3246053D01*
X11668380Y3333765D01*
X11668380Y3423195D01*
X11650933Y3510907D01*
X11617410Y3591840D01*
X11650933Y3672773D01*
X11668380Y3760485D01*
X11668380Y3849915D01*
X11650933Y3937627D01*
X11616710Y4020250D01*
X11611050Y4028720D01*
X11616710Y4037190D01*
X11650933Y4119813D01*
X11668380Y4207525D01*
X11668380Y4296955D01*
X11650933Y4384667D01*
X11618462Y4463060D01*
X11650933Y4541453D01*
X11668380Y4629165D01*
X11668380Y4718595D01*
X11650933Y4806307D01*
X11616710Y4888930D01*
X11604262Y4907560D01*
X11616710Y4926190D01*
X11650933Y5008813D01*
X11668380Y5096525D01*
X11668380Y5185955D01*
X11650933Y5273667D01*
X11616710Y5356290D01*
X11600867Y5380000D01*
X11616710Y5403710D01*
X11650933Y5486333D01*
X11668380Y5574045D01*
X11668380Y5581915D01*
X18088000Y5581915D01*
X18088000Y5492485D01*
X18105447Y5404773D01*
X18139670Y5322150D01*
X18189355Y5247792D01*
X18252592Y5184555D01*
X18326950Y5134870D01*
X18409573Y5100647D01*
X18497285Y5083200D01*
X18586715Y5083200D01*
X18674427Y5100647D01*
X18757050Y5134870D01*
X18831408Y5184555D01*
X18894645Y5247792D01*
X18944330Y5322150D01*
X18978553Y5404773D01*
X18996000Y5492485D01*
X18996000Y5581915D01*
X18978553Y5669627D01*
X18944330Y5752250D01*
X18894645Y5826608D01*
X18831408Y5889845D01*
X18757050Y5939530D01*
X18674427Y5973753D01*
X18586715Y5991200D01*
X18497285Y5991200D01*
X18409573Y5973753D01*
X18326950Y5939530D01*
X18252592Y5889845D01*
X18189355Y5826608D01*
X18139670Y5752250D01*
X18105447Y5669627D01*
X18088000Y5581915D01*
X11668380Y5581915D01*
X11668380Y5663475D01*
X11650933Y5751187D01*
X11616710Y5833810D01*
X11594892Y5866462D01*
X11606270Y5883490D01*
X11640493Y5966113D01*
X11657940Y6053825D01*
X11657940Y6143255D01*
X11640493Y6230967D01*
X11606270Y6313590D01*
X11556585Y6387948D01*
X11493348Y6451185D01*
X11418990Y6500870D01*
X11336367Y6535093D01*
X11248655Y6552540D01*
X11159225Y6552540D01*
X11071513Y6535093D01*
X10988890Y6500870D01*
X10914532Y6451185D01*
X10851295Y6387948D01*
X10801610Y6313590D01*
X10767387Y6230967D01*
X10749940Y6143255D01*
X4894687Y6143255D01*
X4581557Y6403843D01*
X3600326Y7002680D01*
X2542360Y7452267D01*
X1430209Y7743021D01*
X287574Y7868747D01*
X-861189Y7826764D01*
X-1991597Y7617967D01*
X-3079559Y7246806D01*
X-4101884Y6721192D01*
X-5036785Y6052328D01*
X-5864336Y5254468D01*
X-6566899Y4344619D01*
X-7129499Y3342172D01*
X-7540147Y2268492D01*
X-7790090Y1146464D01*
X-7874000Y0D01*
X-7790090Y-1146464D01*
X-7540147Y-2268492D01*
X-7255187Y-3013548D01*
X-7321285Y-3000400D01*
X-7410715Y-3000400D01*
X-7498427Y-3017847D01*
X-7581050Y-3052070D01*
X-7655408Y-3101755D01*
X-7718645Y-3164992D01*
X-7768330Y-3239350D01*
X-7802553Y-3321973D01*
X-7820000Y-3409685D01*
X-7820000Y-3499115D01*
X-7802553Y-3586827D01*
X-7770650Y-3663849D01*
X-7775606Y-3667160D01*
X-7838843Y-3730397D01*
X-7888528Y-3804755D01*
X-7922751Y-3887378D01*
X-7940198Y-3975090D01*
X-7940198Y-4064520D01*
X-7922751Y-4152232D01*
X-7913855Y-4173709D01*
X-7915985Y-4175132D01*
X-7979222Y-4238369D01*
X-8028907Y-4312727D01*
X-8063130Y-4395350D01*
X-8080577Y-4483062D01*
X-10314590Y-4483062D01*
X-10318695Y-4462429D01*
X-10352918Y-4379806D01*
X-10402603Y-4305448D01*
X-10465840Y-4242211D01*
X-10487111Y-4227998D01*
X-10487067Y-4227891D01*
X-10469620Y-4140179D01*
X-10469620Y-4050749D01*
X-10487067Y-3963037D01*
X-10521290Y-3880414D01*
X-10570975Y-3806056D01*
X-10634212Y-3742819D01*
X-10708570Y-3693134D01*
X-10791193Y-3658911D01*
X-10878905Y-3641464D01*
X-10968335Y-3641464D01*
X-11056047Y-3658911D01*
X-11138670Y-3693134D01*
X-11213028Y-3742819D01*
X-11276265Y-3806056D01*
X-11325950Y-3880414D01*
X-11360173Y-3963037D01*
X-11377620Y-4050749D01*
X-11377620Y-4140179D01*
X-11360173Y-4227891D01*
X-11325950Y-4310514D01*
X-11276265Y-4384872D01*
X-11213028Y-4448109D01*
X-11191757Y-4462322D01*
X-11191801Y-4462429D01*
X-11209248Y-4550141D01*
X-11209248Y-4639571D01*
X-11191801Y-4727283D01*
X-11157578Y-4809906D01*
X-11107893Y-4884264D01*
X-11044656Y-4947501D01*
X-10970298Y-4997186D01*
X-10920654Y-5017749D01*
X-10997416Y-5002480D01*
X-11086846Y-5002480D01*
X-11174558Y-5019927D01*
X-11257181Y-5054150D01*
X-11331539Y-5103835D01*
X-11394776Y-5167072D01*
X-11444461Y-5241430D01*
X-11478684Y-5324053D01*
X-11496131Y-5411765D01*
X-12968014Y-5411765D01*
X-11921372Y-4365124D01*
X-11836053Y-4348153D01*
X-11753430Y-4313930D01*
X-11679072Y-4264245D01*
X-11615835Y-4201008D01*
X-11566150Y-4126650D01*
X-11531927Y-4044027D01*
X-11514480Y-3956315D01*
X-11514480Y-3866885D01*
X-11531927Y-3779173D01*
X-11566150Y-3696550D01*
X-11615835Y-3622192D01*
X-11655543Y-3582484D01*
X-11632431Y-3526687D01*
X-11614984Y-3438975D01*
X-11614984Y-3349545D01*
X-11632431Y-3261833D01*
X-11666654Y-3179210D01*
X-11716339Y-3104852D01*
X-11779576Y-3041615D01*
X-11853934Y-2991930D01*
X-11936557Y-2957707D01*
X-12024269Y-2940260D01*
X-12113699Y-2940260D01*
X-12201411Y-2957707D01*
X-12284034Y-2991930D01*
X-12354848Y-3039247D01*
X-12365133Y-3040260D01*
X-12365142Y-3040260D01*
X-12417156Y-3045383D01*
X-12483885Y-3065625D01*
X-12545383Y-3098496D01*
X-12545385Y-3098497D01*
X-12545384Y-3098497D01*
X-12585786Y-3131654D01*
X-12585789Y-3131657D01*
X-12599286Y-3142734D01*
X-12610363Y-3156231D01*
X-14479386Y-5025256D01*
X-14564707Y-5042227D01*
X-14647330Y-5076450D01*
X-14721688Y-5126135D01*
X-14784925Y-5189372D01*
X-14834610Y-5263730D01*
X-14868833Y-5346353D01*
X-14886280Y-5434065D01*
X-14886280Y-5523495D01*
X-14868833Y-5611207D01*
X-14834610Y-5693830D01*
X-14784925Y-5768188D01*
X-14721688Y-5831425D01*
X-14647330Y-5881110D01*
X-14564707Y-5915333D01*
X-14488085Y-5930574D01*
X-15186204Y-6628694D01*
X-15199706Y-6639775D01*
X-15243944Y-6693678D01*
X-15258650Y-6721192D01*
X-15276815Y-6755176D01*
X-15297058Y-6821905D01*
X-15303892Y-6891301D01*
X-15302180Y-6908685D01*
X-15302180Y-9426602D01*
X-15307167Y-9421615D01*
X-15381525Y-9371930D01*
X-15464148Y-9337707D01*
X-15551860Y-9320260D01*
X-15641290Y-9320260D01*
X-15729002Y-9337707D01*
X-15811625Y-9371930D01*
X-15885983Y-9421615D01*
X-15949220Y-9484852D01*
X-15998905Y-9559210D01*
X-16033128Y-9641833D01*
X-16050575Y-9729545D01*
X-16050575Y-9818975D01*
X-16033128Y-9906687D01*
X-15998905Y-9989310D01*
X-15949220Y-10063668D01*
X-15885983Y-10126905D01*
X-15811625Y-10176590D01*
X-15729002Y-10210813D01*
X-15641290Y-10228260D01*
X-15551860Y-10228260D01*
X-15464148Y-10210813D01*
X-15381525Y-10176590D01*
X-15307167Y-10126905D01*
X-15302181Y-10121919D01*
X-15302181Y-11032569D01*
X-15326222Y-11008528D01*
X-15400580Y-10958843D01*
X-15483203Y-10924620D01*
X-15570915Y-10907173D01*
X-15660345Y-10907173D01*
X-15748057Y-10924620D01*
X-15830680Y-10958843D01*
X-15905038Y-11008528D01*
X-15968275Y-11071765D01*
X-16017960Y-11146123D01*
X-16052183Y-11228746D01*
X-16069630Y-11316458D01*
X-16069630Y-11405888D01*
X-16052183Y-11493600D01*
X-16017960Y-11576223D01*
X-15968275Y-11650581D01*
X-15905038Y-11713818D01*
X-15830680Y-11763503D01*
X-15748057Y-11797726D01*
X-15660345Y-11815173D01*
X-15570915Y-11815173D01*
X-15483203Y-11797726D01*
X-15400580Y-11763503D01*
X-15326222Y-11713818D01*
X-15302181Y-11689777D01*
X-15302181Y-13260674D01*
X-15303892Y-13278048D01*
X-15302181Y-13295422D01*
X-15302181Y-13295429D01*
X-15297058Y-13347443D01*
X-15276816Y-13414172D01*
X-15243945Y-13475670D01*
X-15199707Y-13529573D01*
X-15186203Y-13540656D01*
X-14933599Y-13793260D01*
X-17545660Y-13793260D01*
X-17569181Y-13790943D01*
X-17592701Y-13793260D01*
X-17592706Y-13793260D01*
X-17663080Y-13800191D01*
X-17753372Y-13827581D01*
X-17836585Y-13872060D01*
X-17909523Y-13931917D01*
X-17924527Y-13950200D01*
X-17927059Y-13952732D01*
X-17971920Y-14007395D01*
X-18016398Y-14090608D01*
X-18043788Y-14180900D01*
X-18053037Y-14274800D01*
X-20074340Y-14274800D01*
X-20868747Y-13104865D01*
X-17545660Y-13104865D01*
X-17545660Y-13194295D01*
X-17528213Y-13282007D01*
X-17493990Y-13364630D01*
X-17444305Y-13438988D01*
X-17381068Y-13502225D01*
X-17306710Y-13551910D01*
X-17224087Y-13586133D01*
X-17136375Y-13603580D01*
X-17046945Y-13603580D01*
X-16959233Y-13586133D01*
X-16876610Y-13551910D01*
X-16802252Y-13502225D01*
X-16739015Y-13438988D01*
X-16689330Y-13364630D01*
X-16655107Y-13282007D01*
X-16637660Y-13194295D01*
X-16637660Y-13104865D01*
X-16655107Y-13017153D01*
X-16689330Y-12934530D01*
X-16739015Y-12860172D01*
X-16802252Y-12796935D01*
X-16876610Y-12747250D01*
X-16959233Y-12713027D01*
X-17046945Y-12695580D01*
X-17136375Y-12695580D01*
X-17224087Y-12713027D01*
X-17306710Y-12747250D01*
X-17381068Y-12796935D01*
X-17444305Y-12860172D01*
X-17493990Y-12934530D01*
X-17528213Y-13017153D01*
X-17545660Y-13104865D01*
X-20868747Y-13104865D01*
X-20924044Y-13023429D01*
X-21892613Y-11319841D01*
X-22185785Y-10692940D01*
X-16923650Y-10692940D01*
X-16923650Y-10782370D01*
X-16906203Y-10870082D01*
X-16871980Y-10952705D01*
X-16822295Y-11027063D01*
X-16759058Y-11090300D01*
X-16684700Y-11139985D01*
X-16602077Y-11174208D01*
X-16514365Y-11191655D01*
X-16424935Y-11191655D01*
X-16337223Y-11174208D01*
X-16254600Y-11139985D01*
X-16180242Y-11090300D01*
X-16117005Y-11027063D01*
X-16067320Y-10952705D01*
X-16033097Y-10870082D01*
X-16015650Y-10782370D01*
X-16015650Y-10692940D01*
X-16033097Y-10605228D01*
X-16067320Y-10522605D01*
X-16117005Y-10448247D01*
X-16180242Y-10385010D01*
X-16254600Y-10335325D01*
X-16337223Y-10301102D01*
X-16424935Y-10283655D01*
X-16514365Y-10283655D01*
X-16602077Y-10301102D01*
X-16684700Y-10335325D01*
X-16759058Y-10385010D01*
X-16822295Y-10448247D01*
X-16871980Y-10522605D01*
X-16906203Y-10605228D01*
X-16923650Y-10692940D01*
X-22185785Y-10692940D01*
X-22722770Y-9544685D01*
X-23086951Y-8570965D01*
X-19829120Y-8570965D01*
X-19829120Y-8660395D01*
X-19811673Y-8748107D01*
X-19777450Y-8830730D01*
X-19727765Y-8905088D01*
X-19664528Y-8968325D01*
X-19590170Y-9018010D01*
X-19507547Y-9052233D01*
X-19419835Y-9069680D01*
X-19330405Y-9069680D01*
X-19242693Y-9052233D01*
X-19160070Y-9018010D01*
X-19085712Y-8968325D01*
X-19022475Y-8905088D01*
X-18972790Y-8830730D01*
X-18938567Y-8748107D01*
X-18921120Y-8660395D01*
X-18921120Y-8570965D01*
X-18938567Y-8483253D01*
X-18972790Y-8400630D01*
X-19000477Y-8359193D01*
X-17137672Y-8359193D01*
X-17137672Y-8448623D01*
X-17120225Y-8536335D01*
X-17086002Y-8618958D01*
X-17036317Y-8693316D01*
X-16973080Y-8756553D01*
X-16898722Y-8806238D01*
X-16816099Y-8840461D01*
X-16728387Y-8857908D01*
X-16638957Y-8857908D01*
X-16551245Y-8840461D01*
X-16468622Y-8806238D01*
X-16394264Y-8756553D01*
X-16331027Y-8693316D01*
X-16281342Y-8618958D01*
X-16247119Y-8536335D01*
X-16229672Y-8448623D01*
X-16229672Y-8359193D01*
X-16247119Y-8271481D01*
X-16281342Y-8188858D01*
X-16331027Y-8114500D01*
X-16394264Y-8051263D01*
X-16468622Y-8001578D01*
X-16551245Y-7967355D01*
X-16638957Y-7949908D01*
X-16728387Y-7949908D01*
X-16816099Y-7967355D01*
X-16898722Y-8001578D01*
X-16973080Y-8051263D01*
X-17036317Y-8114500D01*
X-17086002Y-8188858D01*
X-17120225Y-8271481D01*
X-17137672Y-8359193D01*
X-19000477Y-8359193D01*
X-19022475Y-8326272D01*
X-19085712Y-8263035D01*
X-19160070Y-8213350D01*
X-19242693Y-8179127D01*
X-19330405Y-8161680D01*
X-19419835Y-8161680D01*
X-19507547Y-8179127D01*
X-19590170Y-8213350D01*
X-19664528Y-8263035D01*
X-19727765Y-8326272D01*
X-19777450Y-8400630D01*
X-19811673Y-8483253D01*
X-19829120Y-8570965D01*
X-23086951Y-8570965D01*
X-23409267Y-7709185D01*
X-23947763Y-5824945D01*
X-24334853Y-3903878D01*
X-24455594Y-2896605D01*
X-10614000Y-2896605D01*
X-10614000Y-2986035D01*
X-10596553Y-3073747D01*
X-10562330Y-3156370D01*
X-10512645Y-3230728D01*
X-10449408Y-3293965D01*
X-10375050Y-3343650D01*
X-10292427Y-3377873D01*
X-10204715Y-3395320D01*
X-10115285Y-3395320D01*
X-10027573Y-3377873D01*
X-9944950Y-3343650D01*
X-9870592Y-3293965D01*
X-9807355Y-3230728D01*
X-9757670Y-3156370D01*
X-9723447Y-3073747D01*
X-9706000Y-2986035D01*
X-9706000Y-2896605D01*
X-9723447Y-2808893D01*
X-9757670Y-2726270D01*
X-9807355Y-2651912D01*
X-9870592Y-2588675D01*
X-9944950Y-2538990D01*
X-10027573Y-2504767D01*
X-10115285Y-2487320D01*
X-10204715Y-2487320D01*
X-10292427Y-2504767D01*
X-10375050Y-2538990D01*
X-10449408Y-2588675D01*
X-10512645Y-2651912D01*
X-10562330Y-2726270D01*
X-10596553Y-2808893D01*
X-10614000Y-2896605D01*
X-24455594Y-2896605D01*
X-24568090Y-1958129D01*
X-24646000Y0D01*
X-24613903Y806715D01*
X-22450400Y806715D01*
X-22450400Y717285D01*
X-22432953Y629573D01*
X-22403638Y558800D01*
X-22432953Y488027D01*
X-22450400Y400315D01*
X-22450400Y310885D01*
X-22432953Y223173D01*
X-22398730Y140550D01*
X-22389676Y127000D01*
X-22398730Y113450D01*
X-22432953Y30827D01*
X-22450400Y-56885D01*
X-22450400Y-146315D01*
X-22432953Y-234027D01*
X-22398730Y-316650D01*
X-22349045Y-391008D01*
X-22285808Y-454245D01*
X-22211450Y-503930D01*
X-22128827Y-538153D01*
X-22041115Y-555600D01*
X-21951685Y-555600D01*
X-21863973Y-538153D01*
X-21781350Y-503930D01*
X-21706992Y-454245D01*
X-21643755Y-391008D01*
X-21594070Y-316650D01*
X-21559847Y-234027D01*
X-21542400Y-146315D01*
X-21542400Y-56885D01*
X-21559847Y30827D01*
X-21564547Y42175D01*
X-16773502Y42175D01*
X-16773502Y-47255D01*
X-16756055Y-134967D01*
X-16721832Y-217590D01*
X-16672147Y-291948D01*
X-16608910Y-355185D01*
X-16534552Y-404870D01*
X-16451929Y-439093D01*
X-16364217Y-456540D01*
X-16274787Y-456540D01*
X-16187075Y-439093D01*
X-16104452Y-404870D01*
X-16030094Y-355185D01*
X-15966857Y-291948D01*
X-15917172Y-217590D01*
X-15882949Y-134967D01*
X-15865502Y-47255D01*
X-15865502Y42175D01*
X-15882949Y129887D01*
X-15917172Y212510D01*
X-15966857Y286868D01*
X-16030094Y350105D01*
X-16104452Y399790D01*
X-16187075Y434013D01*
X-16274787Y451460D01*
X-16364217Y451460D01*
X-16451929Y434013D01*
X-16534552Y399790D01*
X-16608910Y350105D01*
X-16672147Y286868D01*
X-16721832Y212510D01*
X-16756055Y129887D01*
X-16773502Y42175D01*
X-21564547Y42175D01*
X-21594070Y113450D01*
X-21603124Y127000D01*
X-21594070Y140550D01*
X-21559847Y223173D01*
X-21542400Y310885D01*
X-21542400Y400315D01*
X-21559847Y488027D01*
X-21589162Y558800D01*
X-21559847Y629573D01*
X-21542400Y717285D01*
X-21542400Y748295D01*
X-17746320Y748295D01*
X-17746320Y658865D01*
X-17728873Y571153D01*
X-17694650Y488530D01*
X-17644965Y414172D01*
X-17581728Y350935D01*
X-17507370Y301250D01*
X-17424747Y267027D01*
X-17337035Y249580D01*
X-17247605Y249580D01*
X-17159893Y267027D01*
X-17077270Y301250D01*
X-17002912Y350935D01*
X-16939675Y414172D01*
X-16889990Y488530D01*
X-16855767Y571153D01*
X-16838320Y658865D01*
X-16838320Y748295D01*
X-16855767Y836007D01*
X-16889990Y918630D01*
X-16939675Y992988D01*
X-17002912Y1056225D01*
X-17077270Y1105910D01*
X-17159893Y1140133D01*
X-17247605Y1157580D01*
X-17337035Y1157580D01*
X-17424747Y1140133D01*
X-17507370Y1105910D01*
X-17581728Y1056225D01*
X-17644965Y992988D01*
X-17694650Y918630D01*
X-17728873Y836007D01*
X-17746320Y748295D01*
X-21542400Y748295D01*
X-21542400Y806715D01*
X-21559847Y894427D01*
X-21591676Y971271D01*
X-21587655Y975292D01*
X-21537970Y1049650D01*
X-21503747Y1132273D01*
X-21486300Y1219985D01*
X-21486300Y1309415D01*
X-21503747Y1397127D01*
X-21537970Y1479750D01*
X-21587655Y1554108D01*
X-21650892Y1617345D01*
X-21725250Y1667030D01*
X-21807873Y1701253D01*
X-21895585Y1718700D01*
X-21985015Y1718700D01*
X-22072727Y1701253D01*
X-22155350Y1667030D01*
X-22229708Y1617345D01*
X-22292945Y1554108D01*
X-22342630Y1479750D01*
X-22376853Y1397127D01*
X-22394300Y1309415D01*
X-22394300Y1219985D01*
X-22376853Y1132273D01*
X-22345024Y1055429D01*
X-22349045Y1051408D01*
X-22398730Y977050D01*
X-22432953Y894427D01*
X-22450400Y806715D01*
X-24613903Y806715D01*
X-24568090Y1958129D01*
X-24549309Y2114815D01*
X-12925400Y2114815D01*
X-12925400Y2025385D01*
X-12907953Y1937673D01*
X-12873730Y1855050D01*
X-12824045Y1780692D01*
X-12760808Y1717455D01*
X-12686450Y1667770D01*
X-12603827Y1633547D01*
X-12516115Y1616100D01*
X-12426685Y1616100D01*
X-12338973Y1633547D01*
X-12256350Y1667770D01*
X-12181992Y1717455D01*
X-12118755Y1780692D01*
X-12069070Y1855050D01*
X-12034847Y1937673D01*
X-12017400Y2025385D01*
X-12017400Y2114815D01*
X-12034847Y2202527D01*
X-12036242Y2205895D01*
X-12008115Y2200300D01*
X-11918685Y2200300D01*
X-11830973Y2217747D01*
X-11748350Y2251970D01*
X-11673992Y2301655D01*
X-11610755Y2364892D01*
X-11561070Y2439250D01*
X-11526847Y2521873D01*
X-11509400Y2609585D01*
X-11509400Y2699015D01*
X-11526847Y2786727D01*
X-11561070Y2869350D01*
X-11610755Y2943708D01*
X-11673992Y3006945D01*
X-11748350Y3056630D01*
X-11830973Y3090853D01*
X-11918685Y3108300D01*
X-12008115Y3108300D01*
X-12095827Y3090853D01*
X-12178450Y3056630D01*
X-12252808Y3006945D01*
X-12316045Y2943708D01*
X-12365730Y2869350D01*
X-12399953Y2786727D01*
X-12417400Y2699015D01*
X-12417400Y2609585D01*
X-12399953Y2521873D01*
X-12398558Y2518505D01*
X-12426685Y2524100D01*
X-12516115Y2524100D01*
X-12603827Y2506653D01*
X-12686450Y2472430D01*
X-12760808Y2422745D01*
X-12824045Y2359508D01*
X-12873730Y2285150D01*
X-12907953Y2202527D01*
X-12925400Y2114815D01*
X-24549309Y2114815D01*
X-24355970Y3727715D01*
X-22221800Y3727715D01*
X-22221800Y3638285D01*
X-22204353Y3550573D01*
X-22170130Y3467950D01*
X-22120445Y3393592D01*
X-22057208Y3330355D01*
X-21982850Y3280670D01*
X-21900227Y3246447D01*
X-21812515Y3229000D01*
X-21723085Y3229000D01*
X-21635373Y3246447D01*
X-21552750Y3280670D01*
X-21478392Y3330355D01*
X-21460962Y3347785D01*
X-15281971Y3347785D01*
X-15281971Y3258355D01*
X-15264524Y3170643D01*
X-15230301Y3088020D01*
X-15180616Y3013662D01*
X-15117379Y2950425D01*
X-15043021Y2900740D01*
X-14960398Y2866517D01*
X-14872686Y2849070D01*
X-14783256Y2849070D01*
X-14695544Y2866517D01*
X-14612921Y2900740D01*
X-14538563Y2950425D01*
X-14475326Y3013662D01*
X-14425641Y3088020D01*
X-14391418Y3170643D01*
X-14373971Y3258355D01*
X-14373971Y3347785D01*
X-14391418Y3435497D01*
X-14425641Y3518120D01*
X-14475326Y3592478D01*
X-14538563Y3655715D01*
X-14612921Y3705400D01*
X-14695544Y3739623D01*
X-14783256Y3757070D01*
X-14872686Y3757070D01*
X-14960398Y3739623D01*
X-15043021Y3705400D01*
X-15117379Y3655715D01*
X-15180616Y3592478D01*
X-15230301Y3518120D01*
X-15264524Y3435497D01*
X-15281971Y3347785D01*
X-21460962Y3347785D01*
X-21415155Y3393592D01*
X-21365470Y3467950D01*
X-21331247Y3550573D01*
X-21326921Y3572321D01*
X-21305173Y3576647D01*
X-21222550Y3610870D01*
X-21148192Y3660555D01*
X-21084955Y3723792D01*
X-21035270Y3798150D01*
X-21001047Y3880773D01*
X-21000935Y3881335D01*
X-21000373Y3881447D01*
X-20917750Y3915670D01*
X-20843392Y3965355D01*
X-20780155Y4028592D01*
X-20730470Y4102950D01*
X-20696247Y4185573D01*
X-20678800Y4273285D01*
X-20678800Y4362715D01*
X-20680324Y4370379D01*
X-10139064Y4370379D01*
X-10139064Y4280949D01*
X-10121617Y4193237D01*
X-10087394Y4110614D01*
X-10037709Y4036256D01*
X-9974472Y3973019D01*
X-9900114Y3923334D01*
X-9817491Y3889111D01*
X-9729779Y3871664D01*
X-9640349Y3871664D01*
X-9552637Y3889111D01*
X-9470014Y3923334D01*
X-9395656Y3973019D01*
X-9332419Y4036256D01*
X-9282734Y4110614D01*
X-9248511Y4193237D01*
X-9231064Y4280949D01*
X-9231064Y4370379D01*
X-9248511Y4458091D01*
X-9282734Y4540714D01*
X-9332419Y4615072D01*
X-9395656Y4678309D01*
X-9470014Y4727994D01*
X-9552637Y4762217D01*
X-9640349Y4779664D01*
X-9729779Y4779664D01*
X-9817491Y4762217D01*
X-9900114Y4727994D01*
X-9974472Y4678309D01*
X-10037709Y4615072D01*
X-10087394Y4540714D01*
X-10121617Y4458091D01*
X-10139064Y4370379D01*
X-20680324Y4370379D01*
X-20696247Y4450427D01*
X-20730470Y4533050D01*
X-20780155Y4607408D01*
X-20843392Y4670645D01*
X-20917750Y4720330D01*
X-21000373Y4754553D01*
X-21088085Y4772000D01*
X-21177515Y4772000D01*
X-21265227Y4754553D01*
X-21347850Y4720330D01*
X-21422208Y4670645D01*
X-21485445Y4607408D01*
X-21535130Y4533050D01*
X-21569353Y4450427D01*
X-21569465Y4449865D01*
X-21570027Y4449753D01*
X-21652650Y4415530D01*
X-21727008Y4365845D01*
X-21790245Y4302608D01*
X-21839930Y4228250D01*
X-21874153Y4145627D01*
X-21878479Y4123879D01*
X-21900227Y4119553D01*
X-21982850Y4085330D01*
X-22057208Y4035645D01*
X-22120445Y3972408D01*
X-22170130Y3898050D01*
X-22204353Y3815427D01*
X-22221800Y3727715D01*
X-24355970Y3727715D01*
X-24334853Y3903878D01*
X-24068386Y5226315D01*
X-16354400Y5226315D01*
X-16354400Y5136885D01*
X-16336953Y5049173D01*
X-16302730Y4966550D01*
X-16253045Y4892192D01*
X-16189808Y4828955D01*
X-16115450Y4779270D01*
X-16032827Y4745047D01*
X-15945115Y4727600D01*
X-15855685Y4727600D01*
X-15767973Y4745047D01*
X-15685350Y4779270D01*
X-15610992Y4828955D01*
X-15547755Y4892192D01*
X-15498070Y4966550D01*
X-15474641Y5023115D01*
X-12544400Y5023115D01*
X-12544400Y4933685D01*
X-12526953Y4845973D01*
X-12492730Y4763350D01*
X-12443045Y4688992D01*
X-12379808Y4625755D01*
X-12305450Y4576070D01*
X-12222827Y4541847D01*
X-12135115Y4524400D01*
X-12045685Y4524400D01*
X-11957973Y4541847D01*
X-11875350Y4576070D01*
X-11800992Y4625755D01*
X-11737755Y4688992D01*
X-11688070Y4763350D01*
X-11653847Y4845973D01*
X-11636400Y4933685D01*
X-11636400Y5023115D01*
X-11641957Y5051055D01*
X-10804500Y5051055D01*
X-10804500Y4961625D01*
X-10787053Y4873913D01*
X-10752830Y4791290D01*
X-10703145Y4716932D01*
X-10639908Y4653695D01*
X-10565550Y4604010D01*
X-10482927Y4569787D01*
X-10395215Y4552340D01*
X-10305785Y4552340D01*
X-10218073Y4569787D01*
X-10135450Y4604010D01*
X-10061092Y4653695D01*
X-9997855Y4716932D01*
X-9948170Y4791290D01*
X-9913947Y4873913D01*
X-9896500Y4961625D01*
X-9896500Y5051055D01*
X-9913947Y5138767D01*
X-9948170Y5221390D01*
X-9997855Y5295748D01*
X-10061092Y5358985D01*
X-10135450Y5408670D01*
X-10218073Y5442893D01*
X-10305785Y5460340D01*
X-10395215Y5460340D01*
X-10482927Y5442893D01*
X-10565550Y5408670D01*
X-10639908Y5358985D01*
X-10703145Y5295748D01*
X-10752830Y5221390D01*
X-10787053Y5138767D01*
X-10804500Y5051055D01*
X-11641957Y5051055D01*
X-11653847Y5110827D01*
X-11688070Y5193450D01*
X-11737755Y5267808D01*
X-11800992Y5331045D01*
X-11875350Y5380730D01*
X-11957973Y5414953D01*
X-12045685Y5432400D01*
X-12135115Y5432400D01*
X-12222827Y5414953D01*
X-12305450Y5380730D01*
X-12379808Y5331045D01*
X-12443045Y5267808D01*
X-12492730Y5193450D01*
X-12526953Y5110827D01*
X-12544400Y5023115D01*
X-15474641Y5023115D01*
X-15463847Y5049173D01*
X-15446400Y5136885D01*
X-15446400Y5226315D01*
X-15463847Y5314027D01*
X-15498070Y5396650D01*
X-15547755Y5471008D01*
X-15610992Y5534245D01*
X-15685350Y5583930D01*
X-15767973Y5618153D01*
X-15855685Y5635600D01*
X-15945115Y5635600D01*
X-16032827Y5618153D01*
X-16115450Y5583930D01*
X-16189808Y5534245D01*
X-16253045Y5471008D01*
X-16302730Y5396650D01*
X-16336953Y5314027D01*
X-16354400Y5226315D01*
X-24068386Y5226315D01*
X-23947763Y5824945D01*
X-23943177Y5840995D01*
X-9374480Y5840995D01*
X-9374480Y5751565D01*
X-9357033Y5663853D01*
X-9322810Y5581230D01*
X-9273125Y5506872D01*
X-9209888Y5443635D01*
X-9135530Y5393950D01*
X-9052907Y5359727D01*
X-8965195Y5342280D01*
X-8875765Y5342280D01*
X-8788053Y5359727D01*
X-8705430Y5393950D01*
X-8631072Y5443635D01*
X-8567835Y5506872D01*
X-8518150Y5581230D01*
X-8483927Y5663853D01*
X-8466480Y5751565D01*
X-8466480Y5840995D01*
X-8483927Y5928707D01*
X-8518150Y6011330D01*
X-8567835Y6085688D01*
X-8631072Y6148925D01*
X-8705430Y6198610D01*
X-8788053Y6232833D01*
X-8875765Y6250280D01*
X-8965195Y6250280D01*
X-9052907Y6232833D01*
X-9135530Y6198610D01*
X-9209888Y6148925D01*
X-9273125Y6085688D01*
X-9322810Y6011330D01*
X-9357033Y5928707D01*
X-9374480Y5840995D01*
X-23943177Y5840995D01*
X-23409267Y7709185D01*
X-23178903Y8325115D01*
X3617910Y8325115D01*
X3617910Y8235685D01*
X3635357Y8147973D01*
X3669580Y8065350D01*
X3719265Y7990992D01*
X3782502Y7927755D01*
X3856860Y7878070D01*
X3939483Y7843847D01*
X4027195Y7826400D01*
X4116625Y7826400D01*
X4204337Y7843847D01*
X4286960Y7878070D01*
X4361318Y7927755D01*
X4424555Y7990992D01*
X4474240Y8065350D01*
X4508463Y8147973D01*
X4525910Y8235685D01*
X4525910Y8325115D01*
X4508463Y8412827D01*
X4474240Y8495450D01*
X4424555Y8569808D01*
X4361318Y8633045D01*
X4286960Y8682730D01*
X4204337Y8716953D01*
X4116625Y8734400D01*
X4027195Y8734400D01*
X3939483Y8716953D01*
X3856860Y8682730D01*
X3782502Y8633045D01*
X3719265Y8569808D01*
X3669580Y8495450D01*
X3635357Y8412827D01*
X3617910Y8325115D01*
X-23178903Y8325115D01*
X-22908156Y9049015D01*
X-10512400Y9049015D01*
X-10512400Y8959585D01*
X-10494953Y8871873D01*
X-10460730Y8789250D01*
X-10411045Y8714892D01*
X-10347808Y8651655D01*
X-10273450Y8601970D01*
X-10190827Y8567747D01*
X-10103115Y8550300D01*
X-10013685Y8550300D01*
X-9925973Y8567747D01*
X-9843350Y8601970D01*
X-9768992Y8651655D01*
X-9717747Y8702900D01*
X-9711430Y8687650D01*
X-9661745Y8613292D01*
X-9598508Y8550055D01*
X-9524150Y8500370D01*
X-9441527Y8466147D01*
X-9353815Y8448700D01*
X-9264385Y8448700D01*
X-9176673Y8466147D01*
X-9094050Y8500370D01*
X-9019692Y8550055D01*
X-8956455Y8613292D01*
X-8906770Y8687650D01*
X-8872547Y8770273D01*
X-8855100Y8857985D01*
X-8855100Y8947415D01*
X-8872547Y9035127D01*
X-8906770Y9117750D01*
X-8956455Y9192108D01*
X-9019692Y9255345D01*
X-9094050Y9305030D01*
X-9176673Y9339253D01*
X-9264385Y9356700D01*
X-9353815Y9356700D01*
X-9441527Y9339253D01*
X-9524150Y9305030D01*
X-9598508Y9255345D01*
X-9649753Y9204100D01*
X-9656070Y9219350D01*
X-9705755Y9293708D01*
X-9768992Y9356945D01*
X-9843350Y9406630D01*
X-9925973Y9440853D01*
X-10013685Y9458300D01*
X-10103115Y9458300D01*
X-10190827Y9440853D01*
X-10273450Y9406630D01*
X-10347808Y9356945D01*
X-10411045Y9293708D01*
X-10460730Y9219350D01*
X-10494953Y9136727D01*
X-10512400Y9049015D01*
X-22908156Y9049015D01*
X-22722770Y9544685D01*
X-22604160Y9798315D01*
X-18742000Y9798315D01*
X-18742000Y9708885D01*
X-18724553Y9621173D01*
X-18690330Y9538550D01*
X-18640645Y9464192D01*
X-18577408Y9400955D01*
X-18503050Y9351270D01*
X-18420427Y9317047D01*
X-18332715Y9299600D01*
X-18243285Y9299600D01*
X-18155573Y9317047D01*
X-18072950Y9351270D01*
X-17998592Y9400955D01*
X-17935355Y9464192D01*
X-17885670Y9538550D01*
X-17851447Y9621173D01*
X-17834000Y9708885D01*
X-17834000Y9798315D01*
X-17851447Y9886027D01*
X-17878241Y9950715D01*
X2289200Y9950715D01*
X2289200Y9861285D01*
X2306647Y9773573D01*
X2340870Y9690950D01*
X2390555Y9616592D01*
X2453792Y9553355D01*
X2528150Y9503670D01*
X2610773Y9469447D01*
X2698485Y9452000D01*
X2787915Y9452000D01*
X2875627Y9469447D01*
X2958250Y9503670D01*
X3032608Y9553355D01*
X3095845Y9616592D01*
X3145530Y9690950D01*
X3179753Y9773573D01*
X3197200Y9861285D01*
X3197200Y9950715D01*
X3187096Y10001515D01*
X3254400Y10001515D01*
X3254400Y9912085D01*
X3271847Y9824373D01*
X3306070Y9741750D01*
X3355755Y9667392D01*
X3418992Y9604155D01*
X3493350Y9554470D01*
X3575973Y9520247D01*
X3663685Y9502800D01*
X3753115Y9502800D01*
X3840827Y9520247D01*
X3923450Y9554470D01*
X3997808Y9604155D01*
X4061045Y9667392D01*
X4110730Y9741750D01*
X4144953Y9824373D01*
X4162400Y9912085D01*
X4162400Y10001515D01*
X4270400Y10001515D01*
X4270400Y9912085D01*
X4287847Y9824373D01*
X4322070Y9741750D01*
X4371755Y9667392D01*
X4434992Y9604155D01*
X4509350Y9554470D01*
X4591973Y9520247D01*
X4679685Y9502800D01*
X4769115Y9502800D01*
X4856827Y9520247D01*
X4939450Y9554470D01*
X5013808Y9604155D01*
X5077045Y9667392D01*
X5126730Y9741750D01*
X5160953Y9824373D01*
X5178400Y9912085D01*
X5178400Y10001515D01*
X5160953Y10089227D01*
X5126730Y10171850D01*
X5077045Y10246208D01*
X5013808Y10309445D01*
X4939450Y10359130D01*
X4856827Y10393353D01*
X4769115Y10410800D01*
X4679685Y10410800D01*
X4591973Y10393353D01*
X4509350Y10359130D01*
X4434992Y10309445D01*
X4371755Y10246208D01*
X4322070Y10171850D01*
X4287847Y10089227D01*
X4270400Y10001515D01*
X4162400Y10001515D01*
X4144953Y10089227D01*
X4110730Y10171850D01*
X4061045Y10246208D01*
X3997808Y10309445D01*
X3923450Y10359130D01*
X3840827Y10393353D01*
X3753115Y10410800D01*
X3663685Y10410800D01*
X3575973Y10393353D01*
X3493350Y10359130D01*
X3418992Y10309445D01*
X3355755Y10246208D01*
X3306070Y10171850D01*
X3271847Y10089227D01*
X3254400Y10001515D01*
X3187096Y10001515D01*
X3179753Y10038427D01*
X3145530Y10121050D01*
X3095845Y10195408D01*
X3032608Y10258645D01*
X2958250Y10308330D01*
X2875627Y10342553D01*
X2787915Y10360000D01*
X2698485Y10360000D01*
X2610773Y10342553D01*
X2528150Y10308330D01*
X2453792Y10258645D01*
X2390555Y10195408D01*
X2340870Y10121050D01*
X2306647Y10038427D01*
X2289200Y9950715D01*
X-17878241Y9950715D01*
X-17885670Y9968650D01*
X-17935355Y10043008D01*
X-17998592Y10106245D01*
X-18072950Y10155930D01*
X-18155573Y10190153D01*
X-18243285Y10207600D01*
X-18332715Y10207600D01*
X-18420427Y10190153D01*
X-18503050Y10155930D01*
X-18577408Y10106245D01*
X-18640645Y10043008D01*
X-18690330Y9968650D01*
X-18724553Y9886027D01*
X-18742000Y9798315D01*
X-22604160Y9798315D01*
X-21986484Y11119115D01*
X-18640400Y11119115D01*
X-18640400Y11029685D01*
X-18622953Y10941973D01*
X-18588730Y10859350D01*
X-18539045Y10784992D01*
X-18475808Y10721755D01*
X-18401450Y10672070D01*
X-18318827Y10637847D01*
X-18231115Y10620400D01*
X-18141685Y10620400D01*
X-18053973Y10637847D01*
X-17971350Y10672070D01*
X-17896992Y10721755D01*
X-17833755Y10784992D01*
X-17784070Y10859350D01*
X-17749847Y10941973D01*
X-17732400Y11029685D01*
X-17732400Y11119115D01*
X-17749847Y11206827D01*
X-17784070Y11289450D01*
X-17833755Y11363808D01*
X-17896992Y11427045D01*
X-17971350Y11476730D01*
X-18053973Y11510953D01*
X-18141685Y11528400D01*
X-18231115Y11528400D01*
X-18318827Y11510953D01*
X-18401450Y11476730D01*
X-18475808Y11427045D01*
X-18539045Y11363808D01*
X-18588730Y11289450D01*
X-18622953Y11206827D01*
X-18640400Y11119115D01*
X-21986484Y11119115D01*
X-21892613Y11319841D01*
X-21429092Y12135115D01*
X-5178400Y12135115D01*
X-5178400Y12045685D01*
X-5160953Y11957973D01*
X-5126730Y11875350D01*
X-5077045Y11800992D01*
X-5013808Y11737755D01*
X-4939450Y11688070D01*
X-4856827Y11653847D01*
X-4769115Y11636400D01*
X-4710521Y11636400D01*
X-4703753Y11602373D01*
X-4669530Y11519750D01*
X-4619845Y11445392D01*
X-4556608Y11382155D01*
X-4482250Y11332470D01*
X-4399627Y11298247D01*
X-4311915Y11280800D01*
X-4222485Y11280800D01*
X-4134773Y11298247D01*
X-4052150Y11332470D01*
X-3977792Y11382155D01*
X-3914555Y11445392D01*
X-3864870Y11519750D01*
X-3830647Y11602373D01*
X-3823119Y11640220D01*
X-3803915Y11636400D01*
X-3714485Y11636400D01*
X-3683369Y11642589D01*
X-3653530Y11570550D01*
X-3603845Y11496192D01*
X-3540608Y11432955D01*
X-3466250Y11383270D01*
X-3383627Y11349047D01*
X-3295915Y11331600D01*
X-3206485Y11331600D01*
X-3118773Y11349047D01*
X-3036150Y11383270D01*
X-2961792Y11432955D01*
X-2898555Y11496192D01*
X-2848870Y11570550D01*
X-2814647Y11653173D01*
X-2797200Y11740885D01*
X-2797200Y11830315D01*
X-2804778Y11868415D01*
X295300Y11868415D01*
X295300Y11778985D01*
X312747Y11691273D01*
X346970Y11608650D01*
X396655Y11534292D01*
X459892Y11471055D01*
X534250Y11421370D01*
X616873Y11387147D01*
X704585Y11369700D01*
X794015Y11369700D01*
X881727Y11387147D01*
X964350Y11421370D01*
X1038708Y11471055D01*
X1101945Y11534292D01*
X1151630Y11608650D01*
X1185853Y11691273D01*
X1203300Y11778985D01*
X1203300Y11868415D01*
X1185853Y11956127D01*
X1151630Y12038750D01*
X1101945Y12113108D01*
X1038708Y12176345D01*
X964350Y12226030D01*
X881727Y12260253D01*
X794015Y12277700D01*
X704585Y12277700D01*
X616873Y12260253D01*
X534250Y12226030D01*
X459892Y12176345D01*
X396655Y12113108D01*
X346970Y12038750D01*
X312747Y11956127D01*
X295300Y11868415D01*
X-2804778Y11868415D01*
X-2814647Y11918027D01*
X-2848870Y12000650D01*
X-2898555Y12075008D01*
X-2961792Y12138245D01*
X-3036150Y12187930D01*
X-3118773Y12222153D01*
X-3206485Y12239600D01*
X-3295915Y12239600D01*
X-3327031Y12233411D01*
X-3356870Y12305450D01*
X-3406555Y12379808D01*
X-3469792Y12443045D01*
X-3544150Y12492730D01*
X-3626773Y12526953D01*
X-3714485Y12544400D01*
X-3803915Y12544400D01*
X-3891627Y12526953D01*
X-3974250Y12492730D01*
X-4048608Y12443045D01*
X-4111845Y12379808D01*
X-4161530Y12305450D01*
X-4195753Y12222827D01*
X-4203281Y12184980D01*
X-4222485Y12188800D01*
X-4281079Y12188800D01*
X-4287847Y12222827D01*
X-4322070Y12305450D01*
X-4371755Y12379808D01*
X-4434992Y12443045D01*
X-4509350Y12492730D01*
X-4591973Y12526953D01*
X-4679685Y12544400D01*
X-4769115Y12544400D01*
X-4856827Y12526953D01*
X-4939450Y12492730D01*
X-5013808Y12443045D01*
X-5077045Y12379808D01*
X-5126730Y12305450D01*
X-5160953Y12222827D01*
X-5178400Y12135115D01*
X-21429092Y12135115D01*
X-20924044Y13023429D01*
X-20712854Y13334452D01*
X11116000Y13334452D01*
X11116000Y12700549D01*
X11128357Y12575088D01*
X11177189Y12414108D01*
X11256489Y12265748D01*
X11363209Y12135709D01*
X11493247Y12028989D01*
X11641607Y11949689D01*
X11802587Y11900857D01*
X11970000Y11884368D01*
X12137412Y11900857D01*
X12298392Y11949689D01*
X12446752Y12028989D01*
X12576791Y12135709D01*
X12683511Y12265747D01*
X12762811Y12414107D01*
X12811643Y12575087D01*
X12824000Y12700548D01*
X12824000Y13334452D01*
X12811643Y13459913D01*
X12762811Y13620893D01*
X12683511Y13769253D01*
X12576791Y13899291D01*
X12446753Y14006011D01*
X12298393Y14085311D01*
X12137413Y14134143D01*
X11970000Y14150632D01*
X11802588Y14134143D01*
X11641608Y14085311D01*
X11493248Y14006011D01*
X11363210Y13899291D01*
X11256490Y13769253D01*
X11177189Y13620893D01*
X11128357Y13459913D01*
X11116000Y13334452D01*
X-20712854Y13334452D01*
X-20009485Y14370315D01*
X-16608400Y14370315D01*
X-16608400Y14280885D01*
X-16590953Y14193173D01*
X-16556730Y14110550D01*
X-16507045Y14036192D01*
X-16443808Y13972955D01*
X-16369450Y13923270D01*
X-16286827Y13889047D01*
X-16199115Y13871600D01*
X-16109685Y13871600D01*
X-16021973Y13889047D01*
X-15939350Y13923270D01*
X-15864992Y13972955D01*
X-15801755Y14036192D01*
X-15752070Y14110550D01*
X-15717847Y14193173D01*
X-15710822Y14228495D01*
X-14413420Y14228495D01*
X-14413420Y14139065D01*
X-14395973Y14051353D01*
X-14361750Y13968730D01*
X-14312065Y13894372D01*
X-14248828Y13831135D01*
X-14174470Y13781450D01*
X-14091847Y13747227D01*
X-14004135Y13729780D01*
X-13914705Y13729780D01*
X-13826993Y13747227D01*
X-13744370Y13781450D01*
X-13670012Y13831135D01*
X-13606775Y13894372D01*
X-13557090Y13968730D01*
X-13522867Y14051353D01*
X-13505420Y14139065D01*
X-13505420Y14228495D01*
X-13522867Y14316207D01*
X-13557090Y14398830D01*
X-13606775Y14473188D01*
X-13670012Y14536425D01*
X-13744370Y14586110D01*
X-13826993Y14620333D01*
X-13914705Y14637780D01*
X-14004135Y14637780D01*
X-14091847Y14620333D01*
X-14174470Y14586110D01*
X-14248828Y14536425D01*
X-14312065Y14473188D01*
X-14361750Y14398830D01*
X-14395973Y14316207D01*
X-14413420Y14228495D01*
X-15710822Y14228495D01*
X-15700400Y14280885D01*
X-15700400Y14370315D01*
X-15717847Y14458027D01*
X-15752070Y14540650D01*
X-15801755Y14615008D01*
X-15864992Y14678245D01*
X-15939350Y14727930D01*
X-16021973Y14762153D01*
X-16109685Y14779600D01*
X-16199115Y14779600D01*
X-16286827Y14762153D01*
X-16369450Y14727930D01*
X-16443808Y14678245D01*
X-16507045Y14615008D01*
X-16556730Y14540650D01*
X-16590953Y14458027D01*
X-16608400Y14370315D01*
X-20009485Y14370315D01*
X-19823186Y14644679D01*
X-18597000Y16173340D01*
X-17253237Y17599748D01*
X-15800394Y18914885D01*
X-14247655Y20110436D01*
X-14057484Y20234114D01*
X-2377000Y20234114D01*
X-2377000Y19765886D01*
X-2285653Y19306655D01*
X-2106470Y18874068D01*
X-1846336Y18484751D01*
X-1515249Y18153664D01*
X-1125932Y17893530D01*
X-693345Y17714347D01*
X-234114Y17623000D01*
X234114Y17623000D01*
X693345Y17714347D01*
X1125932Y17893530D01*
X1515249Y18153664D01*
X1846336Y18484751D01*
X2106470Y18874068D01*
X2285653Y19306655D01*
X2377000Y19765886D01*
X2377000Y20234114D01*
X2285653Y20693345D01*
X2106470Y21125932D01*
X1846336Y21515249D01*
X1515249Y21846336D01*
X1125932Y22106470D01*
X693345Y22285653D01*
X234114Y22377000D01*
X-234114Y22377000D01*
X-693345Y22285653D01*
X-1125932Y22106470D01*
X-1515249Y21846336D01*
X-1846336Y21515249D01*
X-2106470Y21125932D01*
X-2285653Y20693345D01*
X-2377000Y20234114D01*
X-14057484Y20234114D01*
X-12604839Y21178842D01*
X-10882330Y22113349D01*
X-9091020Y22908048D01*
X-7242234Y23557915D01*
X-5347660Y24058841D01*
X-3419276Y24407660D01*
X-1469274Y24602166D01*
X490016Y24641128D01*
X2446209Y24524302D01*
G37*
X2446209Y24524302D02*
X4386936Y24252425D01*
X6299928Y23827216D01*
X8173089Y23251364D01*
X9994577Y22528510D01*
X11752876Y21663223D01*
X13436870Y20660974D01*
X15035912Y19528099D01*
X16539892Y18271762D01*
X17939301Y16899905D01*
X19225292Y15421201D01*
X20389735Y13845000D01*
X21425267Y12181266D01*
X22325342Y10440517D01*
X23084269Y8633761D01*
X23697250Y6772419D01*
X24160409Y4868260D01*
X24470818Y2933322D01*
X24626515Y979839D01*
X24626515Y-979839D01*
X24470818Y-2933322D01*
X24160409Y-4868260D01*
X23697250Y-6772419D01*
X23084269Y-8633761D01*
X22325342Y-10440517D01*
X21425267Y-12181266D01*
X20389735Y-13845000D01*
X19225292Y-15421201D01*
X17939301Y-16899905D01*
X16539892Y-18271762D01*
X15035912Y-19528099D01*
X13436870Y-20660974D01*
X11752876Y-21663223D01*
X9994577Y-22528510D01*
X8173089Y-23251364D01*
X6299928Y-23827216D01*
X4386936Y-24252425D01*
X2446209Y-24524302D01*
X490016Y-24641128D01*
X-1469274Y-24602166D01*
X-3419276Y-24407660D01*
X-5347660Y-24058841D01*
X-7242234Y-23557915D01*
X-9091020Y-22908048D01*
X-10882330Y-22113349D01*
X-12604839Y-21178842D01*
X-13837954Y-20376885D01*
X-8505800Y-20376885D01*
X-8505800Y-20466315D01*
X-8488353Y-20554027D01*
X-8454130Y-20636650D01*
X-8404445Y-20711008D01*
X-8341208Y-20774245D01*
X-8266850Y-20823930D01*
X-8184227Y-20858153D01*
X-8096515Y-20875600D01*
X-8007085Y-20875600D01*
X-7989716Y-20872145D01*
X-7971530Y-20916050D01*
X-7921845Y-20990408D01*
X-7858608Y-21053645D01*
X-7784250Y-21103330D01*
X-7701627Y-21137553D01*
X-7613915Y-21155000D01*
X-7524485Y-21155000D01*
X-7436773Y-21137553D01*
X-7354150Y-21103330D01*
X-7279792Y-21053645D01*
X-7216555Y-20990408D01*
X-7166870Y-20916050D01*
X-7132647Y-20833427D01*
X-7128045Y-20810293D01*
X-7055115Y-20824800D01*
X-6965685Y-20824800D01*
X-6877973Y-20807353D01*
X-6795350Y-20773130D01*
X-6720992Y-20723445D01*
X-6657755Y-20660208D01*
X-6608070Y-20585850D01*
X-6573847Y-20503227D01*
X-6556400Y-20415515D01*
X-6556400Y-20326085D01*
X-6573847Y-20238373D01*
X-6608070Y-20155750D01*
X-6657755Y-20081392D01*
X-6720992Y-20018155D01*
X-6795350Y-19968470D01*
X-6877973Y-19934247D01*
X-6965685Y-19916800D01*
X-7055115Y-19916800D01*
X-7142827Y-19934247D01*
X-7225450Y-19968470D01*
X-7299808Y-20018155D01*
X-7363045Y-20081392D01*
X-7412730Y-20155750D01*
X-7446953Y-20238373D01*
X-7451555Y-20261507D01*
X-7524485Y-20247000D01*
X-7613915Y-20247000D01*
X-7631284Y-20250455D01*
X-7649470Y-20206550D01*
X-7699155Y-20132192D01*
X-7762392Y-20068955D01*
X-7836750Y-20019270D01*
X-7919373Y-19985047D01*
X-8007085Y-19967600D01*
X-8096515Y-19967600D01*
X-8184227Y-19985047D01*
X-8266850Y-20019270D01*
X-8341208Y-20068955D01*
X-8404445Y-20132192D01*
X-8454130Y-20206550D01*
X-8488353Y-20289173D01*
X-8505800Y-20376885D01*
X-13837954Y-20376885D01*
X-14247655Y-20110436D01*
X-15221145Y-19360885D01*
X-14043000Y-19360885D01*
X-14043000Y-19450315D01*
X-14025553Y-19538027D01*
X-13991330Y-19620650D01*
X-13941645Y-19695008D01*
X-13878408Y-19758245D01*
X-13804050Y-19807930D01*
X-13721427Y-19842153D01*
X-13633715Y-19859600D01*
X-13544285Y-19859600D01*
X-13456573Y-19842153D01*
X-13373950Y-19807930D01*
X-13325768Y-19775735D01*
X-2277000Y-19775735D01*
X-2277000Y-20224265D01*
X-2189496Y-20664176D01*
X-2017851Y-21078564D01*
X-1768661Y-21451503D01*
X-1451503Y-21768661D01*
X-1078564Y-22017851D01*
X-664176Y-22189496D01*
X-224265Y-22277000D01*
X224265Y-22277000D01*
X664176Y-22189496D01*
X1078564Y-22017851D01*
X1451503Y-21768661D01*
X1768661Y-21451503D01*
X2017851Y-21078564D01*
X2189496Y-20664176D01*
X2277000Y-20224265D01*
X2277000Y-19775735D01*
X2189496Y-19335824D01*
X2017851Y-18921436D01*
X1768661Y-18548497D01*
X1451503Y-18231339D01*
X1241299Y-18090885D01*
X12754000Y-18090885D01*
X12754000Y-18180315D01*
X12771447Y-18268027D01*
X12805670Y-18350650D01*
X12855355Y-18425008D01*
X12918592Y-18488245D01*
X12992950Y-18537930D01*
X13075573Y-18572153D01*
X13163285Y-18589600D01*
X13252715Y-18589600D01*
X13340427Y-18572153D01*
X13423050Y-18537930D01*
X13497408Y-18488245D01*
X13560645Y-18425008D01*
X13610330Y-18350650D01*
X13644553Y-18268027D01*
X13662000Y-18180315D01*
X13662000Y-18090885D01*
X13644553Y-18003173D01*
X13610330Y-17920550D01*
X13560645Y-17846192D01*
X13497408Y-17782955D01*
X13423050Y-17733270D01*
X13340427Y-17699047D01*
X13252715Y-17681600D01*
X13163285Y-17681600D01*
X13075573Y-17699047D01*
X12992950Y-17733270D01*
X12918592Y-17782955D01*
X12855355Y-17846192D01*
X12805670Y-17920550D01*
X12771447Y-18003173D01*
X12754000Y-18090885D01*
X1241299Y-18090885D01*
X1078564Y-17982149D01*
X664176Y-17810504D01*
X224265Y-17723000D01*
X-224265Y-17723000D01*
X-664176Y-17810504D01*
X-1078564Y-17982149D01*
X-1451503Y-18231339D01*
X-1768661Y-18548497D01*
X-2017851Y-18921436D01*
X-2189496Y-19335824D01*
X-2277000Y-19775735D01*
X-13325768Y-19775735D01*
X-13299592Y-19758245D01*
X-13236355Y-19695008D01*
X-13186670Y-19620650D01*
X-13152447Y-19538027D01*
X-13135000Y-19450315D01*
X-13135000Y-19360885D01*
X-13152447Y-19273173D01*
X-13186670Y-19190550D01*
X-13236355Y-19116192D01*
X-13299592Y-19052955D01*
X-13373950Y-19003270D01*
X-13456573Y-18969047D01*
X-13544285Y-18951600D01*
X-13633715Y-18951600D01*
X-13721427Y-18969047D01*
X-13804050Y-19003270D01*
X-13878408Y-19052955D01*
X-13941645Y-19116192D01*
X-13991330Y-19190550D01*
X-14025553Y-19273173D01*
X-14043000Y-19360885D01*
X-15221145Y-19360885D01*
X-15800394Y-18914885D01*
X-16671390Y-18126445D01*
X-15831160Y-18126445D01*
X-15831160Y-18215875D01*
X-15813713Y-18303587D01*
X-15779490Y-18386210D01*
X-15729805Y-18460568D01*
X-15666568Y-18523805D01*
X-15592210Y-18573490D01*
X-15509587Y-18607713D01*
X-15421875Y-18625160D01*
X-15332445Y-18625160D01*
X-15244733Y-18607713D01*
X-15162110Y-18573490D01*
X-15087752Y-18523805D01*
X-15024515Y-18460568D01*
X-14974830Y-18386210D01*
X-14940607Y-18303587D01*
X-14923160Y-18215875D01*
X-14923160Y-18126445D01*
X-14940607Y-18038733D01*
X-14974830Y-17956110D01*
X-15024515Y-17881752D01*
X-15087752Y-17818515D01*
X-15098273Y-17811485D01*
X-14474800Y-17811485D01*
X-14474800Y-17900915D01*
X-14457353Y-17988627D01*
X-14423130Y-18071250D01*
X-14373445Y-18145608D01*
X-14310208Y-18208845D01*
X-14235850Y-18258530D01*
X-14153227Y-18292753D01*
X-14068400Y-18309626D01*
X-14068400Y-18358115D01*
X-14050953Y-18445827D01*
X-14016730Y-18528450D01*
X-13967045Y-18602808D01*
X-13903808Y-18666045D01*
X-13829450Y-18715730D01*
X-13746827Y-18749953D01*
X-13659115Y-18767400D01*
X-13569685Y-18767400D01*
X-13481973Y-18749953D01*
X-13399350Y-18715730D01*
X-13324992Y-18666045D01*
X-13261755Y-18602808D01*
X-13212070Y-18528450D01*
X-13177847Y-18445827D01*
X-13160400Y-18358115D01*
X-13160400Y-18268685D01*
X-13177847Y-18180973D01*
X-13212070Y-18098350D01*
X-13261755Y-18023992D01*
X-13324992Y-17960755D01*
X-13399350Y-17911070D01*
X-13481973Y-17876847D01*
X-13566800Y-17859974D01*
X-13566800Y-17811485D01*
X-13575479Y-17767854D01*
X-13532773Y-17759359D01*
X-13450150Y-17725136D01*
X-13375792Y-17675451D01*
X-13312555Y-17612214D01*
X-13262870Y-17537856D01*
X-13228647Y-17455233D01*
X-13211200Y-17367521D01*
X-13211200Y-17278091D01*
X-13228647Y-17190379D01*
X-13262870Y-17107756D01*
X-13312555Y-17033398D01*
X-13375792Y-16970161D01*
X-13450150Y-16920476D01*
X-13532773Y-16886253D01*
X-13620485Y-16868806D01*
X-13709915Y-16868806D01*
X-13797627Y-16886253D01*
X-13880250Y-16920476D01*
X-13954608Y-16970161D01*
X-14017845Y-17033398D01*
X-14067530Y-17107756D01*
X-14101753Y-17190379D01*
X-14119200Y-17278091D01*
X-14119200Y-17367521D01*
X-14110521Y-17411152D01*
X-14153227Y-17419647D01*
X-14235850Y-17453870D01*
X-14310208Y-17503555D01*
X-14373445Y-17566792D01*
X-14423130Y-17641150D01*
X-14457353Y-17723773D01*
X-14474800Y-17811485D01*
X-15098273Y-17811485D01*
X-15162110Y-17768830D01*
X-15244733Y-17734607D01*
X-15332445Y-17717160D01*
X-15421875Y-17717160D01*
X-15509587Y-17734607D01*
X-15592210Y-17768830D01*
X-15666568Y-17818515D01*
X-15729805Y-17881752D01*
X-15779490Y-17956110D01*
X-15813713Y-18038733D01*
X-15831160Y-18126445D01*
X-16671390Y-18126445D01*
X-17253237Y-17599748D01*
X-17767132Y-17054247D01*
X-15381262Y-17054247D01*
X-15381262Y-17143677D01*
X-15363815Y-17231389D01*
X-15329592Y-17314012D01*
X-15279907Y-17388370D01*
X-15216670Y-17451607D01*
X-15142312Y-17501292D01*
X-15059689Y-17535515D01*
X-14971977Y-17552962D01*
X-14882547Y-17552962D01*
X-14794835Y-17535515D01*
X-14712212Y-17501292D01*
X-14637854Y-17451607D01*
X-14574617Y-17388370D01*
X-14524932Y-17314012D01*
X-14490709Y-17231389D01*
X-14473262Y-17143677D01*
X-14473262Y-17054247D01*
X-14490709Y-16966535D01*
X-14524932Y-16883912D01*
X-14574617Y-16809554D01*
X-14637854Y-16746317D01*
X-14712212Y-16696632D01*
X-14794835Y-16662409D01*
X-14882547Y-16644962D01*
X-14971977Y-16644962D01*
X-15059689Y-16662409D01*
X-15142312Y-16696632D01*
X-15216670Y-16746317D01*
X-15279907Y-16809554D01*
X-15329592Y-16883912D01*
X-15363815Y-16966535D01*
X-15381262Y-17054247D01*
X-17767132Y-17054247D01*
X-18597000Y-16173340D01*
X-19173711Y-15454365D01*
X-15739720Y-15454365D01*
X-15739720Y-15543795D01*
X-15722273Y-15631507D01*
X-15688050Y-15714130D01*
X-15638365Y-15788488D01*
X-15575128Y-15851725D01*
X-15500770Y-15901410D01*
X-15418147Y-15935633D01*
X-15330435Y-15953080D01*
X-15241005Y-15953080D01*
X-15153293Y-15935633D01*
X-15070670Y-15901410D01*
X-14996312Y-15851725D01*
X-14933075Y-15788488D01*
X-14883390Y-15714130D01*
X-14849167Y-15631507D01*
X-14831720Y-15543795D01*
X-14831720Y-15454365D01*
X-14849167Y-15366653D01*
X-14883390Y-15284030D01*
X-14933075Y-15209672D01*
X-14996312Y-15146435D01*
X-15070670Y-15096750D01*
X-15153293Y-15062527D01*
X-15241005Y-15045080D01*
X-15330435Y-15045080D01*
X-15418147Y-15062527D01*
X-15500770Y-15096750D01*
X-15575128Y-15146435D01*
X-15638365Y-15209672D01*
X-15688050Y-15284030D01*
X-15722273Y-15366653D01*
X-15739720Y-15454365D01*
X-19173711Y-15454365D01*
X-19823186Y-14644679D01*
X-20074340Y-14274800D01*
X-18053037Y-14274800D01*
X-18043788Y-14368700D01*
X-18016398Y-14458992D01*
X-17971920Y-14542205D01*
X-17912062Y-14615142D01*
X-17839125Y-14675000D01*
X-17755912Y-14719478D01*
X-17665620Y-14746868D01*
X-17571720Y-14756117D01*
X-17522410Y-14751260D01*
X-14596714Y-14751260D01*
X-14526340Y-14744329D01*
X-14436048Y-14716939D01*
X-14352835Y-14672460D01*
X-14279897Y-14612603D01*
X-14268981Y-14599301D01*
X-14229836Y-14638446D01*
X-14155478Y-14688131D01*
X-14072855Y-14722354D01*
X-14060699Y-14724772D01*
X-14068400Y-14763485D01*
X-14068400Y-14852915D01*
X-14053359Y-14928530D01*
X-14098205Y-14928530D01*
X-14185917Y-14945977D01*
X-14268540Y-14980200D01*
X-14342898Y-15029885D01*
X-14406135Y-15093122D01*
X-14455820Y-15167480D01*
X-14490043Y-15250103D01*
X-14507490Y-15337815D01*
X-14507490Y-15427245D01*
X-14490043Y-15514957D01*
X-14455820Y-15597580D01*
X-14406135Y-15671938D01*
X-14342898Y-15735175D01*
X-14268540Y-15784860D01*
X-14185917Y-15819083D01*
X-14119200Y-15832354D01*
X-14119200Y-15919715D01*
X-14101753Y-16007427D01*
X-14067530Y-16090050D01*
X-14017845Y-16164408D01*
X-13954608Y-16227645D01*
X-13880250Y-16277330D01*
X-13797627Y-16311553D01*
X-13709915Y-16329000D01*
X-13620485Y-16329000D01*
X-13532773Y-16311553D01*
X-13450150Y-16277330D01*
X-13375792Y-16227645D01*
X-13312555Y-16164408D01*
X-13262870Y-16090050D01*
X-13228647Y-16007427D01*
X-13211200Y-15919715D01*
X-13211200Y-15830285D01*
X-13228647Y-15742573D01*
X-13262870Y-15659950D01*
X-13312555Y-15585592D01*
X-13375792Y-15522355D01*
X-13450150Y-15472670D01*
X-13532773Y-15438447D01*
X-13599490Y-15425176D01*
X-13599490Y-15337815D01*
X-13614531Y-15262200D01*
X-13569685Y-15262200D01*
X-13481973Y-15244753D01*
X-13399350Y-15210530D01*
X-13324992Y-15160845D01*
X-13261755Y-15097608D01*
X-13212070Y-15023250D01*
X-13177847Y-14940627D01*
X-13160400Y-14852915D01*
X-13160400Y-14763485D01*
X-13177847Y-14675773D01*
X-13212070Y-14593150D01*
X-13261755Y-14518792D01*
X-13324992Y-14455555D01*
X-13399350Y-14405870D01*
X-13481973Y-14371647D01*
X-13494129Y-14369229D01*
X-13486428Y-14330516D01*
X-13486428Y-14269158D01*
X-13435445Y-14248040D01*
X-13361087Y-14198355D01*
X-13297850Y-14135118D01*
X-13248165Y-14060760D01*
X-13213942Y-13978137D01*
X-13196495Y-13890425D01*
X-13196495Y-13800995D01*
X-13213942Y-13713283D01*
X-13248165Y-13630660D01*
X-13297850Y-13556302D01*
X-13361087Y-13493065D01*
X-13435445Y-13443380D01*
X-13518068Y-13409157D01*
X-13605780Y-13391710D01*
X-13695210Y-13391710D01*
X-13782922Y-13409157D01*
X-13865545Y-13443380D01*
X-13939903Y-13493065D01*
X-14003140Y-13556302D01*
X-14052825Y-13630660D01*
X-14065160Y-13660439D01*
X-14594181Y-13131418D01*
X-14594181Y-11030627D01*
X-14591973Y-11041727D01*
X-14557750Y-11124350D01*
X-14508065Y-11198708D01*
X-14444828Y-11261945D01*
X-14370470Y-11311630D01*
X-14287847Y-11345853D01*
X-14200135Y-11363300D01*
X-14110705Y-11363300D01*
X-14022993Y-11345853D01*
X-13940370Y-11311630D01*
X-13866012Y-11261945D01*
X-13802775Y-11198708D01*
X-13753090Y-11124350D01*
X-13718867Y-11041727D01*
X-13701420Y-10954015D01*
X-13701420Y-10864585D01*
X-13718867Y-10776873D01*
X-13753090Y-10694250D01*
X-13768305Y-10671480D01*
X-13608630Y-10671480D01*
X-13165803Y-11114309D01*
X-13154726Y-11127806D01*
X-13141229Y-11138883D01*
X-13141225Y-11138887D01*
X-13100823Y-11172044D01*
X-13039325Y-11204915D01*
X-12972596Y-11225157D01*
X-12920582Y-11230280D01*
X-12920574Y-11230280D01*
X-12903200Y-11231991D01*
X-12885826Y-11230280D01*
X-11871270Y-11230280D01*
X-11403000Y-11698552D01*
X-11403000Y-12119983D01*
X-11424573Y-12111047D01*
X-11512285Y-12093600D01*
X-11601715Y-12093600D01*
X-11689427Y-12111047D01*
X-11772050Y-12145270D01*
X-11846408Y-12194955D01*
X-11909645Y-12258192D01*
X-11957397Y-12329657D01*
X-11994885Y-12322200D01*
X-12083931Y-12322200D01*
X-12085647Y-12313573D01*
X-12119870Y-12230950D01*
X-12169555Y-12156592D01*
X-12232792Y-12093355D01*
X-12307150Y-12043670D01*
X-12389773Y-12009447D01*
X-12477485Y-11992000D01*
X-12566915Y-11992000D01*
X-12654627Y-12009447D01*
X-12737250Y-12043670D01*
X-12811608Y-12093355D01*
X-12874845Y-12156592D01*
X-12924530Y-12230950D01*
X-12958753Y-12313573D01*
X-12976200Y-12401285D01*
X-12976200Y-12490715D01*
X-12958753Y-12578427D01*
X-12924530Y-12661050D01*
X-12874845Y-12735408D01*
X-12811608Y-12798645D01*
X-12737250Y-12848330D01*
X-12654627Y-12882553D01*
X-12566915Y-12900000D01*
X-12477869Y-12900000D01*
X-12476153Y-12908627D01*
X-12441930Y-12991250D01*
X-12392245Y-13065608D01*
X-12329008Y-13128845D01*
X-12254650Y-13178530D01*
X-12172027Y-13212753D01*
X-12084315Y-13230200D01*
X-11994885Y-13230200D01*
X-11907173Y-13212753D01*
X-11824550Y-13178530D01*
X-11750192Y-13128845D01*
X-11686955Y-13065608D01*
X-11639203Y-12994143D01*
X-11601715Y-13001600D01*
X-11512285Y-13001600D01*
X-11452009Y-12989610D01*
X-11451330Y-12991250D01*
X-11401645Y-13065608D01*
X-11338408Y-13128845D01*
X-11264050Y-13178530D01*
X-11181427Y-13212753D01*
X-11093715Y-13230200D01*
X-11004285Y-13230200D01*
X-10916573Y-13212753D01*
X-10833950Y-13178530D01*
X-10759592Y-13128845D01*
X-10696355Y-13065608D01*
X-10646670Y-12991250D01*
X-10612447Y-12908627D01*
X-10610731Y-12900000D01*
X-10521685Y-12900000D01*
X-10497621Y-12895213D01*
X-10494953Y-12908627D01*
X-10460730Y-12991250D01*
X-10411045Y-13065608D01*
X-10347808Y-13128845D01*
X-10273450Y-13178530D01*
X-10190827Y-13212753D01*
X-10103115Y-13230200D01*
X-10013685Y-13230200D01*
X-9925973Y-13212753D01*
X-9843350Y-13178530D01*
X-9768992Y-13128845D01*
X-9705755Y-13065608D01*
X-9656070Y-12991250D01*
X-9621847Y-12908627D01*
X-9618212Y-12890353D01*
X-9569715Y-12900000D01*
X-9480285Y-12900000D01*
X-9453196Y-12894612D01*
X-9444730Y-12915050D01*
X-9395045Y-12989408D01*
X-9331808Y-13052645D01*
X-9257450Y-13102330D01*
X-9174827Y-13136553D01*
X-9087115Y-13154000D01*
X-8997685Y-13154000D01*
X-8909973Y-13136553D01*
X-8827350Y-13102330D01*
X-8752992Y-13052645D01*
X-8689755Y-12989408D01*
X-8640070Y-12915050D01*
X-8605847Y-12832427D01*
X-8588400Y-12744715D01*
X-8588400Y-12655285D01*
X-8605847Y-12567573D01*
X-8640070Y-12484950D01*
X-8689755Y-12410592D01*
X-8752992Y-12347355D01*
X-8827350Y-12297670D01*
X-8909973Y-12263447D01*
X-8997685Y-12246000D01*
X-9087115Y-12246000D01*
X-9114204Y-12251388D01*
X-9122670Y-12230950D01*
X-9172355Y-12156592D01*
X-9235592Y-12093355D01*
X-9309950Y-12043670D01*
X-9392573Y-12009447D01*
X-9480285Y-11992000D01*
X-9569715Y-11992000D01*
X-9657427Y-12009447D01*
X-9740050Y-12043670D01*
X-9814408Y-12093355D01*
X-9877645Y-12156592D01*
X-9927330Y-12230950D01*
X-9961553Y-12313573D01*
X-9965188Y-12331847D01*
X-10013685Y-12322200D01*
X-10103115Y-12322200D01*
X-10127179Y-12326987D01*
X-10129847Y-12313573D01*
X-10164070Y-12230950D01*
X-10213755Y-12156592D01*
X-10276992Y-12093355D01*
X-10351350Y-12043670D01*
X-10433973Y-12009447D01*
X-10521685Y-11992000D01*
X-10611115Y-11992000D01*
X-10695000Y-12008686D01*
X-10695000Y-11569293D01*
X-10693289Y-11551919D01*
X-10695000Y-11534545D01*
X-10695000Y-11534538D01*
X-10700123Y-11482524D01*
X-10718833Y-11420845D01*
X-9181440Y-11420845D01*
X-9181440Y-11510275D01*
X-9163993Y-11597987D01*
X-9129770Y-11680610D01*
X-9080085Y-11754968D01*
X-9016848Y-11818205D01*
X-8942490Y-11867890D01*
X-8859867Y-11902113D01*
X-8772155Y-11919560D01*
X-8682725Y-11919560D01*
X-8595013Y-11902113D01*
X-8512390Y-11867890D01*
X-8438032Y-11818205D01*
X-8374795Y-11754968D01*
X-8325110Y-11680610D01*
X-8290887Y-11597987D01*
X-8273440Y-11510275D01*
X-8273440Y-11420845D01*
X-8290887Y-11333133D01*
X-8325110Y-11250510D01*
X-8374795Y-11176152D01*
X-8438032Y-11112915D01*
X-8512390Y-11063230D01*
X-8595013Y-11029007D01*
X-8682725Y-11011560D01*
X-8772155Y-11011560D01*
X-8859867Y-11029007D01*
X-8942490Y-11063230D01*
X-9016848Y-11112915D01*
X-9080085Y-11176152D01*
X-9129770Y-11250510D01*
X-9163993Y-11333133D01*
X-9181440Y-11420845D01*
X-10718833Y-11420845D01*
X-10720365Y-11415795D01*
X-10753236Y-11354297D01*
X-10760166Y-11345853D01*
X-10786394Y-11313894D01*
X-10786402Y-11313886D01*
X-10797475Y-11300394D01*
X-10810966Y-11289322D01*
X-11462029Y-10638261D01*
X-11473114Y-10624754D01*
X-11527017Y-10580516D01*
X-11588515Y-10547645D01*
X-11655244Y-10527403D01*
X-11707258Y-10522280D01*
X-11707266Y-10522280D01*
X-11724640Y-10520569D01*
X-11742014Y-10522280D01*
X-12756568Y-10522280D01*
X-13199389Y-10079461D01*
X-13210474Y-10065954D01*
X-13264377Y-10021716D01*
X-13325875Y-9988845D01*
X-13392604Y-9968603D01*
X-13444618Y-9963480D01*
X-13444626Y-9963480D01*
X-13462000Y-9961769D01*
X-13479374Y-9963480D01*
X-14233800Y-9963480D01*
X-14306130Y-9915150D01*
X-14388753Y-9880927D01*
X-14476465Y-9863480D01*
X-14565895Y-9863480D01*
X-14594181Y-9869106D01*
X-14594181Y-7037931D01*
X-14198791Y-6642541D01*
X-11955779Y-6642541D01*
X-11948159Y-8837101D01*
X-11945785Y-8861107D01*
X-11938621Y-8884950D01*
X-11926943Y-8906938D01*
X-11911200Y-8926225D01*
X-11891996Y-8942070D01*
X-11870071Y-8953864D01*
X-11846266Y-8961154D01*
X-11821496Y-8963660D01*
X-9064062Y-8970948D01*
X-9047474Y-10717466D01*
X-9045292Y-10739734D01*
X-9038314Y-10763633D01*
X-9026808Y-10785711D01*
X-9011215Y-10805120D01*
X-8992136Y-10821114D01*
X-8970303Y-10833079D01*
X-8946556Y-10840554D01*
X-8921806Y-10843253D01*
X-8074174Y-10852106D01*
X-8067039Y-12695412D01*
X-8064600Y-12719696D01*
X-8057373Y-12743521D01*
X-8045637Y-12765477D01*
X-8029843Y-12784723D01*
X-8010597Y-12800517D01*
X-7988641Y-12812253D01*
X-7964816Y-12819480D01*
X-7940040Y-12821920D01*
X-7155180Y-12821920D01*
X-7130569Y-12819513D01*
X-7106735Y-12812317D01*
X-7084763Y-12800610D01*
X-7065497Y-12784842D01*
X-7049677Y-12765618D01*
X-7044995Y-12756885D01*
X-6875120Y-12756885D01*
X-6875120Y-12846315D01*
X-6857673Y-12934027D01*
X-6823450Y-13016650D01*
X-6773765Y-13091008D01*
X-6710528Y-13154245D01*
X-6636170Y-13203930D01*
X-6553547Y-13238153D01*
X-6465835Y-13255600D01*
X-6376405Y-13255600D01*
X-6288693Y-13238153D01*
X-6206070Y-13203930D01*
X-6131712Y-13154245D01*
X-6068475Y-13091008D01*
X-6018790Y-13016650D01*
X-5984567Y-12934027D01*
X-5979861Y-12910369D01*
X-5154600Y-13735631D01*
X-5154599Y-16570298D01*
X-5307838Y-16723537D01*
X-5338070Y-16650550D01*
X-5387755Y-16576192D01*
X-5450992Y-16512955D01*
X-5525350Y-16463270D01*
X-5607973Y-16429047D01*
X-5695685Y-16411600D01*
X-5785115Y-16411600D01*
X-5872827Y-16429047D01*
X-5955450Y-16463270D01*
X-6029808Y-16512955D01*
X-6093045Y-16576192D01*
X-6142730Y-16650550D01*
X-6176953Y-16733173D01*
X-6194400Y-16820885D01*
X-6194400Y-16910315D01*
X-6182480Y-16970238D01*
X-6200106Y-16977539D01*
X-6274464Y-17027224D01*
X-6337701Y-17090461D01*
X-6387386Y-17164819D01*
X-6421609Y-17247442D01*
X-6439056Y-17335154D01*
X-6439056Y-17424584D01*
X-6421609Y-17512296D01*
X-6387386Y-17594919D01*
X-6337701Y-17669277D01*
X-6274464Y-17732514D01*
X-6200106Y-17782199D01*
X-6117483Y-17816422D01*
X-6092800Y-17821332D01*
X-6092800Y-17821885D01*
X-6079685Y-17887818D01*
X-6152227Y-17902247D01*
X-6234850Y-17936470D01*
X-6309208Y-17986155D01*
X-6372445Y-18049392D01*
X-6422130Y-18123750D01*
X-6456353Y-18206373D01*
X-6473800Y-18294085D01*
X-6473800Y-18383515D01*
X-6456353Y-18471227D01*
X-6422130Y-18553850D01*
X-6372445Y-18628208D01*
X-6309208Y-18691445D01*
X-6234850Y-18741130D01*
X-6152227Y-18775353D01*
X-6064515Y-18792800D01*
X-5975085Y-18792800D01*
X-5887373Y-18775353D01*
X-5804750Y-18741130D01*
X-5730392Y-18691445D01*
X-5667155Y-18628208D01*
X-5617470Y-18553850D01*
X-5583247Y-18471227D01*
X-5565800Y-18383515D01*
X-5565800Y-18294085D01*
X-5578915Y-18228152D01*
X-5506373Y-18213723D01*
X-5423750Y-18179500D01*
X-5353639Y-18132653D01*
X-5338584Y-18131170D01*
X-5338576Y-18131170D01*
X-5286562Y-18126047D01*
X-5219833Y-18105805D01*
X-5158335Y-18072934D01*
X-5104432Y-18028696D01*
X-5093346Y-18015188D01*
X-4235927Y-17157770D01*
X-4233114Y-17171913D01*
X-4198891Y-17254536D01*
X-4149206Y-17328894D01*
X-4085969Y-17392131D01*
X-4011611Y-17441816D01*
X-3928988Y-17476039D01*
X-3841276Y-17493486D01*
X-3751846Y-17493486D01*
X-3664134Y-17476039D01*
X-3581511Y-17441816D01*
X-3507153Y-17392131D01*
X-3443916Y-17328894D01*
X-3394231Y-17254536D01*
X-3360008Y-17171913D01*
X-3342561Y-17084201D01*
X-3342561Y-17029165D01*
X-2188820Y-17029165D01*
X-2188820Y-17118595D01*
X-2171373Y-17206307D01*
X-2137150Y-17288930D01*
X-2087465Y-17363288D01*
X-2024228Y-17426525D01*
X-1949870Y-17476210D01*
X-1867247Y-17510433D01*
X-1779535Y-17527880D01*
X-1690105Y-17527880D01*
X-1602393Y-17510433D01*
X-1519770Y-17476210D01*
X-1445412Y-17426525D01*
X-1382175Y-17363288D01*
X-1332490Y-17288930D01*
X-1298267Y-17206307D01*
X-1280820Y-17118595D01*
X-1280820Y-17029165D01*
X-1298267Y-16941453D01*
X-1332490Y-16858830D01*
X-1382175Y-16784472D01*
X-1445412Y-16721235D01*
X-1467220Y-16706663D01*
X8249330Y-16706663D01*
X8249330Y-16796093D01*
X8266777Y-16883805D01*
X8301000Y-16966428D01*
X8350685Y-17040786D01*
X8413922Y-17104023D01*
X8488280Y-17153708D01*
X8570903Y-17187931D01*
X8658615Y-17205378D01*
X8748045Y-17205378D01*
X8835757Y-17187931D01*
X8918380Y-17153708D01*
X8992738Y-17104023D01*
X9055975Y-17040786D01*
X9089391Y-16990775D01*
X12906400Y-16990775D01*
X12906400Y-17080205D01*
X12923847Y-17167917D01*
X12958070Y-17250540D01*
X13007755Y-17324898D01*
X13070992Y-17388135D01*
X13145350Y-17437820D01*
X13227973Y-17472043D01*
X13315685Y-17489490D01*
X13405115Y-17489490D01*
X13490600Y-17472486D01*
X13490600Y-17507215D01*
X13508047Y-17594927D01*
X13542270Y-17677550D01*
X13591955Y-17751908D01*
X13655192Y-17815145D01*
X13729550Y-17864830D01*
X13812173Y-17899053D01*
X13899885Y-17916500D01*
X13989315Y-17916500D01*
X14077027Y-17899053D01*
X14159650Y-17864830D01*
X14234008Y-17815145D01*
X14297245Y-17751908D01*
X14346930Y-17677550D01*
X14381153Y-17594927D01*
X14398600Y-17507215D01*
X14398600Y-17417785D01*
X14381153Y-17330073D01*
X14346930Y-17247450D01*
X14297245Y-17173092D01*
X14234008Y-17109855D01*
X14159650Y-17060170D01*
X14077027Y-17025947D01*
X13989315Y-17008500D01*
X13899885Y-17008500D01*
X13814400Y-17025504D01*
X13814400Y-16990775D01*
X13796953Y-16903063D01*
X13762730Y-16820440D01*
X13713045Y-16746082D01*
X13649808Y-16682845D01*
X13575450Y-16633160D01*
X13492827Y-16598937D01*
X13405115Y-16581490D01*
X13315685Y-16581490D01*
X13227973Y-16598937D01*
X13145350Y-16633160D01*
X13070992Y-16682845D01*
X13007755Y-16746082D01*
X12958070Y-16820440D01*
X12923847Y-16903063D01*
X12906400Y-16990775D01*
X9089391Y-16990775D01*
X9105660Y-16966428D01*
X9139883Y-16883805D01*
X9157330Y-16796093D01*
X9157330Y-16706663D01*
X9139883Y-16618951D01*
X9105660Y-16536328D01*
X9055975Y-16461970D01*
X8992738Y-16398733D01*
X8918380Y-16349048D01*
X8835757Y-16314825D01*
X8748045Y-16297378D01*
X8658615Y-16297378D01*
X8570903Y-16314825D01*
X8488280Y-16349048D01*
X8413922Y-16398733D01*
X8350685Y-16461970D01*
X8301000Y-16536328D01*
X8266777Y-16618951D01*
X8249330Y-16706663D01*
X-1467220Y-16706663D01*
X-1519770Y-16671550D01*
X-1602393Y-16637327D01*
X-1690105Y-16619880D01*
X-1779535Y-16619880D01*
X-1867247Y-16637327D01*
X-1949870Y-16671550D01*
X-2024228Y-16721235D01*
X-2087465Y-16784472D01*
X-2137150Y-16858830D01*
X-2171373Y-16941453D01*
X-2188820Y-17029165D01*
X-3342561Y-17029165D01*
X-3342561Y-16994771D01*
X-3360008Y-16907059D01*
X-3394231Y-16824436D01*
X-3443916Y-16750078D01*
X-3507153Y-16686841D01*
X-3581511Y-16637156D01*
X-3664134Y-16602933D01*
X-3751846Y-16585486D01*
X-3802917Y-16585486D01*
X-3738742Y-16542605D01*
X-3675505Y-16479368D01*
X-3625820Y-16405010D01*
X-3591597Y-16322387D01*
X-3574150Y-16234675D01*
X-3574150Y-16145245D01*
X-3591597Y-16057533D01*
X-3625820Y-15974910D01*
X-3669656Y-15909306D01*
X-3612227Y-15933093D01*
X-3524515Y-15950540D01*
X-3435085Y-15950540D01*
X-3347373Y-15933093D01*
X-3264750Y-15898870D01*
X-3190392Y-15849185D01*
X-3163570Y-15822363D01*
X-3141828Y-15844105D01*
X-3067470Y-15893790D01*
X-2984847Y-15928013D01*
X-2897135Y-15945460D01*
X-2807705Y-15945460D01*
X-2719993Y-15928013D01*
X-2637370Y-15893790D01*
X-2563012Y-15844105D01*
X-2499775Y-15780868D01*
X-2483577Y-15756625D01*
X-799998Y-15756625D01*
X-799998Y-15846055D01*
X-782551Y-15933767D01*
X-748328Y-16016390D01*
X-698643Y-16090748D01*
X-635406Y-16153985D01*
X-561048Y-16203670D01*
X-478425Y-16237893D01*
X-429187Y-16247687D01*
X-411856Y-16334817D01*
X-377633Y-16417440D01*
X-327948Y-16491798D01*
X-264711Y-16555035D01*
X-190353Y-16604720D01*
X-107730Y-16638943D01*
X-20018Y-16656390D01*
X69412Y-16656390D01*
X157124Y-16638943D01*
X239747Y-16604720D01*
X314105Y-16555035D01*
X377342Y-16491798D01*
X427027Y-16417440D01*
X461250Y-16334817D01*
X478697Y-16247105D01*
X478697Y-16157675D01*
X461250Y-16069963D01*
X427027Y-15987340D01*
X377342Y-15912982D01*
X314105Y-15849745D01*
X239747Y-15800060D01*
X157124Y-15765837D01*
X107886Y-15756043D01*
X90555Y-15668913D01*
X62709Y-15601685D01*
X9299600Y-15601685D01*
X9299600Y-15691115D01*
X9317047Y-15778827D01*
X9351270Y-15861450D01*
X9400955Y-15935808D01*
X9464192Y-15999045D01*
X9538550Y-16048730D01*
X9621173Y-16082953D01*
X9708885Y-16100400D01*
X9798315Y-16100400D01*
X9886027Y-16082953D01*
X9968650Y-16048730D01*
X10043008Y-15999045D01*
X10106245Y-15935808D01*
X10155930Y-15861450D01*
X10190153Y-15778827D01*
X10207600Y-15691115D01*
X10207600Y-15601685D01*
X11839600Y-15601685D01*
X11839600Y-15691115D01*
X11857047Y-15778827D01*
X11891270Y-15861450D01*
X11940955Y-15935808D01*
X12004192Y-15999045D01*
X12078550Y-16048730D01*
X12161173Y-16082953D01*
X12248885Y-16100400D01*
X12338315Y-16100400D01*
X12426027Y-16082953D01*
X12508650Y-16048730D01*
X12583008Y-15999045D01*
X12646245Y-15935808D01*
X12695930Y-15861450D01*
X12730153Y-15778827D01*
X12747600Y-15691115D01*
X12747600Y-15601685D01*
X12730153Y-15513973D01*
X12695930Y-15431350D01*
X12646245Y-15356992D01*
X12583008Y-15293755D01*
X12508650Y-15244070D01*
X12426027Y-15209847D01*
X12338315Y-15192400D01*
X12248885Y-15192400D01*
X12161173Y-15209847D01*
X12078550Y-15244070D01*
X12004192Y-15293755D01*
X11940955Y-15356992D01*
X11891270Y-15431350D01*
X11857047Y-15513973D01*
X11839600Y-15601685D01*
X10207600Y-15601685D01*
X10190153Y-15513973D01*
X10155930Y-15431350D01*
X10106245Y-15356992D01*
X10043008Y-15293755D01*
X9968650Y-15244070D01*
X9886027Y-15209847D01*
X9798315Y-15192400D01*
X9708885Y-15192400D01*
X9621173Y-15209847D01*
X9538550Y-15244070D01*
X9464192Y-15293755D01*
X9400955Y-15356992D01*
X9351270Y-15431350D01*
X9317047Y-15513973D01*
X9299600Y-15601685D01*
X62709Y-15601685D01*
X56332Y-15586290D01*
X6647Y-15511932D01*
X-56590Y-15448695D01*
X-130948Y-15399010D01*
X-213571Y-15364787D01*
X-301283Y-15347340D01*
X-390713Y-15347340D01*
X-478425Y-15364787D01*
X-561048Y-15399010D01*
X-635406Y-15448695D01*
X-698643Y-15511932D01*
X-748328Y-15586290D01*
X-782551Y-15668913D01*
X-799998Y-15756625D01*
X-2483577Y-15756625D01*
X-2450090Y-15706510D01*
X-2415867Y-15623887D01*
X-2398420Y-15536175D01*
X-2398420Y-15446745D01*
X-2415867Y-15359033D01*
X-2450090Y-15276410D01*
X-2499775Y-15202052D01*
X-2563012Y-15138815D01*
X-2637370Y-15089130D01*
X-2719993Y-15054907D01*
X-2807705Y-15037460D01*
X-2897135Y-15037460D01*
X-2984847Y-15054907D01*
X-3067470Y-15089130D01*
X-3141828Y-15138815D01*
X-3168650Y-15165637D01*
X-3190392Y-15143895D01*
X-3264750Y-15094210D01*
X-3347373Y-15059987D01*
X-3435085Y-15042540D01*
X-3524515Y-15042540D01*
X-3612227Y-15059987D01*
X-3619928Y-15063177D01*
X-3644622Y-15026221D01*
X-3707859Y-14962984D01*
X-3782217Y-14913299D01*
X-3864840Y-14879076D01*
X-3952552Y-14861629D01*
X-4041982Y-14861629D01*
X-4101160Y-14873400D01*
X-4101160Y-14435879D01*
X-4093630Y-14440910D01*
X-4011007Y-14475133D01*
X-3923295Y-14492580D01*
X-3833865Y-14492580D01*
X-3746153Y-14475133D01*
X-3663530Y-14440910D01*
X-3589172Y-14391225D01*
X-3525935Y-14327988D01*
X-3476250Y-14253630D01*
X-3442027Y-14171007D01*
X-3427507Y-14098005D01*
X-3062580Y-14098005D01*
X-3062580Y-14187435D01*
X-3045133Y-14275147D01*
X-3010910Y-14357770D01*
X-2961225Y-14432128D01*
X-2897988Y-14495365D01*
X-2823630Y-14545050D01*
X-2741007Y-14579273D01*
X-2653295Y-14596720D01*
X-2563865Y-14596720D01*
X-2476153Y-14579273D01*
X-2393530Y-14545050D01*
X-2319172Y-14495365D01*
X-2255935Y-14432128D01*
X-2206250Y-14357770D01*
X-2172027Y-14275147D01*
X-2154580Y-14187435D01*
X-2154580Y-14098005D01*
X-2172027Y-14010293D01*
X-2206250Y-13927670D01*
X-2255935Y-13853312D01*
X-2319172Y-13790075D01*
X-2393530Y-13740390D01*
X-2476153Y-13706167D01*
X-2563865Y-13688720D01*
X-2653295Y-13688720D01*
X-2741007Y-13706167D01*
X-2823630Y-13740390D01*
X-2897988Y-13790075D01*
X-2961225Y-13853312D01*
X-3010910Y-13927670D01*
X-3045133Y-14010293D01*
X-3062580Y-14098005D01*
X-3427507Y-14098005D01*
X-3424580Y-14083295D01*
X-3424580Y-13993865D01*
X-3442027Y-13906153D01*
X-3476250Y-13823530D01*
X-3525935Y-13749172D01*
X-3589172Y-13685935D01*
X-3663530Y-13636250D01*
X-3746153Y-13602027D01*
X-3833865Y-13584580D01*
X-3923295Y-13584580D01*
X-4011007Y-13602027D01*
X-4093630Y-13636250D01*
X-4101160Y-13641281D01*
X-4101160Y-13484453D01*
X-4099449Y-13467079D01*
X-4101160Y-13449705D01*
X-4101160Y-13449698D01*
X-4106283Y-13397684D01*
X-4126525Y-13330955D01*
X-4159396Y-13269457D01*
X-4166858Y-13260365D01*
X-4192554Y-13229054D01*
X-4192562Y-13229046D01*
X-4203635Y-13215554D01*
X-4217126Y-13204482D01*
X-5396560Y-12025050D01*
X-5396560Y-11225265D01*
X-5340960Y-11225265D01*
X-5340960Y-11314695D01*
X-5323513Y-11402407D01*
X-5289290Y-11485030D01*
X-5239605Y-11559388D01*
X-5176368Y-11622625D01*
X-5102010Y-11672310D01*
X-5019387Y-11706533D01*
X-4931675Y-11723980D01*
X-4842245Y-11723980D01*
X-4754533Y-11706533D01*
X-4671910Y-11672310D01*
X-4597552Y-11622625D01*
X-4534315Y-11559388D01*
X-4484630Y-11485030D01*
X-4450407Y-11402407D01*
X-4432960Y-11314695D01*
X-4432960Y-11225265D01*
X-4450407Y-11137553D01*
X-4484630Y-11054930D01*
X-4534315Y-10980572D01*
X-4597552Y-10917335D01*
X-4671910Y-10867650D01*
X-4754533Y-10833427D01*
X-4842245Y-10815980D01*
X-4931675Y-10815980D01*
X-5019387Y-10833427D01*
X-5102010Y-10867650D01*
X-5176368Y-10917335D01*
X-5239605Y-10980572D01*
X-5289290Y-11054930D01*
X-5323513Y-11137553D01*
X-5340960Y-11225265D01*
X-5396560Y-11225265D01*
X-5396560Y-8555080D01*
X-5348230Y-8482750D01*
X-5314007Y-8400127D01*
X-5296560Y-8312415D01*
X-5296560Y-8222985D01*
X-5298580Y-8212825D01*
X-2534260Y-8212825D01*
X-2534260Y-8302255D01*
X-2516813Y-8389967D01*
X-2482590Y-8472590D01*
X-2432905Y-8546948D01*
X-2369668Y-8610185D01*
X-2295310Y-8659870D01*
X-2212687Y-8694093D01*
X-2124975Y-8711540D01*
X-2035545Y-8711540D01*
X-1947833Y-8694093D01*
X-1865210Y-8659870D01*
X-1790852Y-8610185D01*
X-1749092Y-8568425D01*
X-629260Y-8568425D01*
X-629260Y-8657855D01*
X-611813Y-8745567D01*
X-577590Y-8828190D01*
X-527905Y-8902548D01*
X-464668Y-8965785D01*
X-390310Y-9015470D01*
X-307687Y-9049693D01*
X-219975Y-9067140D01*
X-130545Y-9067140D01*
X-42833Y-9049693D01*
X39790Y-9015470D01*
X114148Y-8965785D01*
X177385Y-8902548D01*
X227070Y-8828190D01*
X261293Y-8745567D01*
X269033Y-8706654D01*
X284129Y-8782545D01*
X318352Y-8865168D01*
X368037Y-8939526D01*
X431274Y-9002763D01*
X505632Y-9052448D01*
X588255Y-9086671D01*
X675967Y-9104118D01*
X765397Y-9104118D01*
X853109Y-9086671D01*
X858452Y-9084458D01*
X830636Y-9112274D01*
X780951Y-9186632D01*
X746728Y-9269255D01*
X729281Y-9356967D01*
X729281Y-9446397D01*
X746728Y-9534109D01*
X780951Y-9616732D01*
X830636Y-9691090D01*
X893873Y-9754327D01*
X968231Y-9804012D01*
X1050854Y-9838235D01*
X1138566Y-9855682D01*
X1227996Y-9855682D01*
X1315708Y-9838235D01*
X1398331Y-9804012D01*
X1472689Y-9754327D01*
X1535926Y-9691090D01*
X1585611Y-9616732D01*
X1619834Y-9534109D01*
X1636192Y-9451869D01*
X4096000Y-9451869D01*
X4096000Y-9748131D01*
X4153798Y-10038701D01*
X4267173Y-10312411D01*
X4431767Y-10558744D01*
X4641256Y-10768233D01*
X4887589Y-10932827D01*
X5161299Y-11046202D01*
X5451869Y-11104000D01*
X5748131Y-11104000D01*
X6038701Y-11046202D01*
X6312411Y-10932827D01*
X6558744Y-10768233D01*
X6768233Y-10558744D01*
X6932827Y-10312411D01*
X7046202Y-10038701D01*
X7104000Y-9748131D01*
X7104000Y-9451869D01*
X16096000Y-9451869D01*
X16096000Y-9748131D01*
X16153798Y-10038701D01*
X16267173Y-10312411D01*
X16431767Y-10558744D01*
X16641256Y-10768233D01*
X16887589Y-10932827D01*
X17161299Y-11046202D01*
X17451869Y-11104000D01*
X17748131Y-11104000D01*
X18038701Y-11046202D01*
X18312411Y-10932827D01*
X18558744Y-10768233D01*
X18768233Y-10558744D01*
X18932827Y-10312411D01*
X19046202Y-10038701D01*
X19104000Y-9748131D01*
X19104000Y-9451869D01*
X19046202Y-9161299D01*
X18932827Y-8887589D01*
X18768233Y-8641256D01*
X18558744Y-8431767D01*
X18312411Y-8267173D01*
X18038701Y-8153798D01*
X17748131Y-8096000D01*
X17451869Y-8096000D01*
X17161299Y-8153798D01*
X16887589Y-8267173D01*
X16641256Y-8431767D01*
X16431767Y-8641256D01*
X16267173Y-8887589D01*
X16153798Y-9161299D01*
X16096000Y-9451869D01*
X7104000Y-9451869D01*
X7046202Y-9161299D01*
X6932827Y-8887589D01*
X6768233Y-8641256D01*
X6558744Y-8431767D01*
X6400060Y-8325738D01*
X8936000Y-8325738D01*
X8936000Y-8474262D01*
X8964976Y-8619934D01*
X9021814Y-8757153D01*
X9104330Y-8880647D01*
X9209353Y-8985670D01*
X9332847Y-9068186D01*
X9470066Y-9125024D01*
X9615738Y-9154000D01*
X9764262Y-9154000D01*
X9909934Y-9125024D01*
X10047153Y-9068186D01*
X10170647Y-8985670D01*
X10275670Y-8880647D01*
X10325000Y-8806819D01*
X10374330Y-8880647D01*
X10479353Y-8985670D01*
X10602847Y-9068186D01*
X10740066Y-9125024D01*
X10885738Y-9154000D01*
X11034262Y-9154000D01*
X11179934Y-9125024D01*
X11317153Y-9068186D01*
X11440647Y-8985670D01*
X11545670Y-8880647D01*
X11595000Y-8806819D01*
X11644330Y-8880647D01*
X11749353Y-8985670D01*
X11872847Y-9068186D01*
X12010066Y-9125024D01*
X12155738Y-9154000D01*
X12304262Y-9154000D01*
X12449934Y-9125024D01*
X12587153Y-9068186D01*
X12710647Y-8985670D01*
X12749393Y-8946924D01*
X12749676Y-8949793D01*
X12764200Y-8997672D01*
X12787786Y-9041797D01*
X12819527Y-9080473D01*
X12858203Y-9112214D01*
X12902328Y-9135800D01*
X12950207Y-9150324D01*
X13000000Y-9155228D01*
X14000000Y-9155228D01*
X14049793Y-9150324D01*
X14097672Y-9135800D01*
X14141797Y-9112214D01*
X14180473Y-9080473D01*
X14212214Y-9041797D01*
X14235800Y-8997672D01*
X14250324Y-8949793D01*
X14255228Y-8900000D01*
X14255228Y-7900000D01*
X14250324Y-7850207D01*
X14235800Y-7802328D01*
X14212214Y-7758203D01*
X14180473Y-7719527D01*
X14141797Y-7687786D01*
X14097672Y-7664200D01*
X14049793Y-7649676D01*
X14000000Y-7644772D01*
X13000000Y-7644772D01*
X12950207Y-7649676D01*
X12902328Y-7664200D01*
X12858203Y-7687786D01*
X12819527Y-7719527D01*
X12787786Y-7758203D01*
X12764200Y-7802328D01*
X12749676Y-7850207D01*
X12749393Y-7853076D01*
X12710647Y-7814330D01*
X12587153Y-7731814D01*
X12449934Y-7674976D01*
X12304262Y-7646000D01*
X12155738Y-7646000D01*
X12010066Y-7674976D01*
X11872847Y-7731814D01*
X11749353Y-7814330D01*
X11644330Y-7919353D01*
X11595000Y-7993181D01*
X11545670Y-7919353D01*
X11440647Y-7814330D01*
X11317153Y-7731814D01*
X11179934Y-7674976D01*
X11034262Y-7646000D01*
X10885738Y-7646000D01*
X10740066Y-7674976D01*
X10602847Y-7731814D01*
X10479353Y-7814330D01*
X10374330Y-7919353D01*
X10325000Y-7993181D01*
X10275670Y-7919353D01*
X10170647Y-7814330D01*
X10047153Y-7731814D01*
X9909934Y-7674976D01*
X9764262Y-7646000D01*
X9615738Y-7646000D01*
X9470066Y-7674976D01*
X9332847Y-7731814D01*
X9209353Y-7814330D01*
X9104330Y-7919353D01*
X9021814Y-8042847D01*
X8964976Y-8180066D01*
X8936000Y-8325738D01*
X6400060Y-8325738D01*
X6312411Y-8267173D01*
X6038701Y-8153798D01*
X5748131Y-8096000D01*
X5451869Y-8096000D01*
X5161299Y-8153798D01*
X4887589Y-8267173D01*
X4641256Y-8431767D01*
X4431767Y-8641256D01*
X4267173Y-8887589D01*
X4153798Y-9161299D01*
X4096000Y-9451869D01*
X1636192Y-9451869D01*
X1637281Y-9446397D01*
X1637281Y-9356967D01*
X1619834Y-9269255D01*
X1585611Y-9186632D01*
X1535926Y-9112274D01*
X1472689Y-9049037D01*
X1398331Y-8999352D01*
X1315708Y-8965129D01*
X1227996Y-8947682D01*
X1138566Y-8947682D01*
X1050854Y-8965129D01*
X1045511Y-8967342D01*
X1073327Y-8939526D01*
X1123012Y-8865168D01*
X1157235Y-8782545D01*
X1174682Y-8694833D01*
X1174682Y-8605403D01*
X1157235Y-8517691D01*
X1123012Y-8435068D01*
X1073327Y-8360710D01*
X1010090Y-8297473D01*
X935732Y-8247788D01*
X853109Y-8213565D01*
X765397Y-8196118D01*
X675967Y-8196118D01*
X588255Y-8213565D01*
X505632Y-8247788D01*
X431274Y-8297473D01*
X368037Y-8360710D01*
X318352Y-8435068D01*
X284129Y-8517691D01*
X276389Y-8556604D01*
X261293Y-8480713D01*
X227070Y-8398090D01*
X177385Y-8323732D01*
X114148Y-8260495D01*
X39790Y-8210810D01*
X-42833Y-8176587D01*
X-130545Y-8159140D01*
X-219975Y-8159140D01*
X-307687Y-8176587D01*
X-390310Y-8210810D01*
X-464668Y-8260495D01*
X-527905Y-8323732D01*
X-577590Y-8398090D01*
X-611813Y-8480713D01*
X-629260Y-8568425D01*
X-1749092Y-8568425D01*
X-1727615Y-8546948D01*
X-1677930Y-8472590D01*
X-1643707Y-8389967D01*
X-1626260Y-8302255D01*
X-1626260Y-8212825D01*
X-1643707Y-8125113D01*
X-1677930Y-8042490D01*
X-1727615Y-7968132D01*
X-1790852Y-7904895D01*
X-1865210Y-7855210D01*
X-1947833Y-7820987D01*
X-2035545Y-7803540D01*
X-2124975Y-7803540D01*
X-2212687Y-7820987D01*
X-2295310Y-7855210D01*
X-2369668Y-7904895D01*
X-2432905Y-7968132D01*
X-2482590Y-8042490D01*
X-2516813Y-8125113D01*
X-2534260Y-8212825D01*
X-5298580Y-8212825D01*
X-5314007Y-8135273D01*
X-5348230Y-8052650D01*
X-5397915Y-7978292D01*
X-5461152Y-7915055D01*
X-5535510Y-7865370D01*
X-5618133Y-7831147D01*
X-5705845Y-7813700D01*
X-5795275Y-7813700D01*
X-5882987Y-7831147D01*
X-5965610Y-7865370D01*
X-6039968Y-7915055D01*
X-6103205Y-7978292D01*
X-6152890Y-8052650D01*
X-6187113Y-8135273D01*
X-6204560Y-8222985D01*
X-6204560Y-8312415D01*
X-6187113Y-8400127D01*
X-6152890Y-8482750D01*
X-6104560Y-8555080D01*
X-6104560Y-9791826D01*
X-6140185Y-9784740D01*
X-6229615Y-9784740D01*
X-6317327Y-9802187D01*
X-6399950Y-9836410D01*
X-6474308Y-9886095D01*
X-6537545Y-9949332D01*
X-6587230Y-10023690D01*
X-6621453Y-10106313D01*
X-6638900Y-10194025D01*
X-6638900Y-10283455D01*
X-6621453Y-10371167D01*
X-6587230Y-10453790D01*
X-6538900Y-10526120D01*
X-6538899Y-12187316D01*
X-6540611Y-12204700D01*
X-6533777Y-12274096D01*
X-6521801Y-12313573D01*
X-6513534Y-12340825D01*
X-6505677Y-12355525D01*
X-6553547Y-12365047D01*
X-6636170Y-12399270D01*
X-6710528Y-12448955D01*
X-6773765Y-12512192D01*
X-6823450Y-12586550D01*
X-6857673Y-12669173D01*
X-6875120Y-12756885D01*
X-7044995Y-12756885D01*
X-7037912Y-12743677D01*
X-7030653Y-12719862D01*
X-7028180Y-12695089D01*
X-7023100Y-8877469D01*
X-7023100Y-7538720D01*
X-7025619Y-7513549D01*
X-7032922Y-7489748D01*
X-7044727Y-7467829D01*
X-7060582Y-7448634D01*
X-7079877Y-7432901D01*
X-7101871Y-7421234D01*
X-7125718Y-7414082D01*
X-7150502Y-7411721D01*
X-7825741Y-7413858D01*
X-7825746Y-6638508D01*
X-7828193Y-6613699D01*
X-7835426Y-6589876D01*
X-7847169Y-6567923D01*
X-7862968Y-6548682D01*
X-7882217Y-6532893D01*
X-7904177Y-6521163D01*
X-7928003Y-6513943D01*
X-7952780Y-6511509D01*
X-11823734Y-6512560D01*
X-11857244Y-6517070D01*
X-11880496Y-6525968D01*
X-11885576Y-6528508D01*
X-11899704Y-6536749D01*
X-11918894Y-6552610D01*
X-11934621Y-6571910D01*
X-11946281Y-6593907D01*
X-11953425Y-6617756D01*
X-11955779Y-6642541D01*
X-14198791Y-6642541D01*
X-12968014Y-5411765D01*
X-11496131Y-5411765D01*
X-11496131Y-5501195D01*
X-11478684Y-5588907D01*
X-11444461Y-5671530D01*
X-11394776Y-5745888D01*
X-11331539Y-5809125D01*
X-11257181Y-5858810D01*
X-11174558Y-5893033D01*
X-11086846Y-5910480D01*
X-10997416Y-5910480D01*
X-10909704Y-5893033D01*
X-10827081Y-5858810D01*
X-10752723Y-5809125D01*
X-10689486Y-5745888D01*
X-10639801Y-5671530D01*
X-10605578Y-5588907D01*
X-10588131Y-5501195D01*
X-10588131Y-5411765D01*
X-10605578Y-5324053D01*
X-10639801Y-5241430D01*
X-10689486Y-5167072D01*
X-10752723Y-5103835D01*
X-10827081Y-5054150D01*
X-10876725Y-5033587D01*
X-10799963Y-5048856D01*
X-10710533Y-5048856D01*
X-10622821Y-5031409D01*
X-10540198Y-4997186D01*
X-10465840Y-4947501D01*
X-10402603Y-4884264D01*
X-10352918Y-4809906D01*
X-10318695Y-4727283D01*
X-10301248Y-4639571D01*
X-10301248Y-4550141D01*
X-10314590Y-4483062D01*
X-8080577Y-4483062D01*
X-8080577Y-4572492D01*
X-8063130Y-4660204D01*
X-8028907Y-4742827D01*
X-7979222Y-4817185D01*
X-7915985Y-4880422D01*
X-7841627Y-4930107D01*
X-7759004Y-4964330D01*
X-7671292Y-4981777D01*
X-7581862Y-4981777D01*
X-7494150Y-4964330D01*
X-7411527Y-4930107D01*
X-7337169Y-4880422D01*
X-7273932Y-4817185D01*
X-7224247Y-4742827D01*
X-7190024Y-4660204D01*
X-7172577Y-4572492D01*
X-7172577Y-4483062D01*
X-7190024Y-4395350D01*
X-7198920Y-4373873D01*
X-7196790Y-4372450D01*
X-7133553Y-4309213D01*
X-7083868Y-4234855D01*
X-7049645Y-4152232D01*
X-7032198Y-4064520D01*
X-7032198Y-3975090D01*
X-7049645Y-3887378D01*
X-7081548Y-3810356D01*
X-7076592Y-3807045D01*
X-7013355Y-3743808D01*
X-6963670Y-3669450D01*
X-6956091Y-3651152D01*
X-6566899Y-4344619D01*
X-5864336Y-5254468D01*
X-5036785Y-6052328D01*
X-4101884Y-6721192D01*
X-3079559Y-7246806D01*
X-1991597Y-7617967D01*
X-861189Y-7826764D01*
X287574Y-7868747D01*
X1430209Y-7743021D01*
X2542360Y-7452267D01*
X3600326Y-7002680D01*
X4581557Y-6403843D01*
X5465140Y-5668520D01*
X6232243Y-4812382D01*
X6866517Y-3853676D01*
X6931767Y-3714485D01*
X8131200Y-3714485D01*
X8131200Y-3803915D01*
X8148647Y-3891627D01*
X8182870Y-3974250D01*
X8232555Y-4048608D01*
X8295792Y-4111845D01*
X8370150Y-4161530D01*
X8452773Y-4195753D01*
X8540485Y-4213200D01*
X8629915Y-4213200D01*
X8717627Y-4195753D01*
X8800250Y-4161530D01*
X8874608Y-4111845D01*
X8937845Y-4048608D01*
X8987530Y-3974250D01*
X9021753Y-3891627D01*
X9039200Y-3803915D01*
X9039200Y-3714485D01*
X9021753Y-3626773D01*
X8987530Y-3544150D01*
X8937845Y-3469792D01*
X8874608Y-3406555D01*
X8800250Y-3356870D01*
X8717627Y-3322647D01*
X8629915Y-3305200D01*
X8540485Y-3305200D01*
X8452773Y-3322647D01*
X8370150Y-3356870D01*
X8295792Y-3406555D01*
X8232555Y-3469792D01*
X8182870Y-3544150D01*
X8148647Y-3626773D01*
X8131200Y-3714485D01*
X6931767Y-3714485D01*
X7141330Y-3267445D01*
X13246760Y-3267445D01*
X13246760Y-3356875D01*
X13264207Y-3444587D01*
X13298430Y-3527210D01*
X13348115Y-3601568D01*
X13411352Y-3664805D01*
X13485710Y-3714490D01*
X13568333Y-3748713D01*
X13656045Y-3766160D01*
X13745475Y-3766160D01*
X13833187Y-3748713D01*
X13915810Y-3714490D01*
X13990168Y-3664805D01*
X14053405Y-3601568D01*
X14103090Y-3527210D01*
X14137313Y-3444587D01*
X14154760Y-3356875D01*
X14154760Y-3267445D01*
X14137313Y-3179733D01*
X14103090Y-3097110D01*
X14053405Y-3022752D01*
X13990168Y-2959515D01*
X13915810Y-2909830D01*
X13833187Y-2875607D01*
X13745475Y-2858160D01*
X13656045Y-2858160D01*
X13568333Y-2875607D01*
X13485710Y-2909830D01*
X13411352Y-2959515D01*
X13348115Y-3022752D01*
X13298430Y-3097110D01*
X13264207Y-3179733D01*
X13246760Y-3267445D01*
X7141330Y-3267445D01*
X7354443Y-2812836D01*
X7451508Y-2490205D01*
X7712100Y-2490205D01*
X7712100Y-2579635D01*
X7729547Y-2667347D01*
X7763770Y-2749970D01*
X7813455Y-2824328D01*
X7876692Y-2887565D01*
X7951050Y-2937250D01*
X8033673Y-2971473D01*
X8121385Y-2988920D01*
X8210815Y-2988920D01*
X8298527Y-2971473D01*
X8381150Y-2937250D01*
X8455508Y-2887565D01*
X8518745Y-2824328D01*
X8568430Y-2749970D01*
X8602653Y-2667347D01*
X8620100Y-2579635D01*
X8620100Y-2490205D01*
X8602653Y-2402493D01*
X8568430Y-2319870D01*
X8518745Y-2245512D01*
X8455508Y-2182275D01*
X8381150Y-2132590D01*
X8298527Y-2098367D01*
X8210815Y-2080920D01*
X8121385Y-2080920D01*
X8033673Y-2098367D01*
X7951050Y-2132590D01*
X7876692Y-2182275D01*
X7813455Y-2245512D01*
X7763770Y-2319870D01*
X7729547Y-2402493D01*
X7712100Y-2490205D01*
X7451508Y-2490205D01*
X7685621Y-1712045D01*
X7817066Y-818885D01*
X9756800Y-818885D01*
X9756800Y-908315D01*
X9774247Y-996027D01*
X9808470Y-1078650D01*
X9858155Y-1153008D01*
X9921392Y-1216245D01*
X9995750Y-1265930D01*
X10078373Y-1300153D01*
X10166085Y-1317600D01*
X10255515Y-1317600D01*
X10343227Y-1300153D01*
X10425850Y-1265930D01*
X10500208Y-1216245D01*
X10563445Y-1153008D01*
X10613130Y-1078650D01*
X10647353Y-996027D01*
X10664800Y-908315D01*
X10664800Y-818885D01*
X10647353Y-731173D01*
X10613130Y-648550D01*
X10563445Y-574192D01*
X10500208Y-510955D01*
X10425850Y-461270D01*
X10343227Y-427047D01*
X10255515Y-409600D01*
X10166085Y-409600D01*
X10078373Y-427047D01*
X9995750Y-461270D01*
X9921392Y-510955D01*
X9858155Y-574192D01*
X9808470Y-648550D01*
X9774247Y-731173D01*
X9756800Y-818885D01*
X7817066Y-818885D01*
X7852994Y-574765D01*
X7852994Y34555D01*
X15827400Y34555D01*
X15827400Y-54875D01*
X15844847Y-142587D01*
X15879070Y-225210D01*
X15928755Y-299568D01*
X15991992Y-362805D01*
X16066350Y-412490D01*
X16148973Y-446713D01*
X16236685Y-464160D01*
X16326115Y-464160D01*
X16413827Y-446713D01*
X16496450Y-412490D01*
X16570808Y-362805D01*
X16634045Y-299568D01*
X16683730Y-225210D01*
X16717953Y-142587D01*
X16735400Y-54875D01*
X16735400Y34555D01*
X16717953Y122267D01*
X16683730Y204890D01*
X16634045Y279248D01*
X16570808Y342485D01*
X16496450Y392170D01*
X16413827Y426393D01*
X16326115Y443840D01*
X16236685Y443840D01*
X16148973Y426393D01*
X16066350Y392170D01*
X15991992Y342485D01*
X15928755Y279248D01*
X15879070Y204890D01*
X15844847Y122267D01*
X15827400Y34555D01*
X7852994Y34555D01*
X7852994Y574765D01*
X7685621Y1712045D01*
X7479623Y2396755D01*
X9375800Y2396755D01*
X9375800Y2307325D01*
X9393247Y2219613D01*
X9427470Y2136990D01*
X9477155Y2062632D01*
X9540392Y1999395D01*
X9614750Y1949710D01*
X9697373Y1915487D01*
X9785085Y1898040D01*
X9874515Y1898040D01*
X9962227Y1915487D01*
X10044850Y1949710D01*
X10119208Y1999395D01*
X10182445Y2062632D01*
X10232130Y2136990D01*
X10266353Y2219613D01*
X10283800Y2307325D01*
X10283800Y2396755D01*
X10266353Y2484467D01*
X10232130Y2567090D01*
X10182445Y2641448D01*
X10119208Y2704685D01*
X10044850Y2754370D01*
X9962227Y2788593D01*
X9874515Y2806040D01*
X9785085Y2806040D01*
X9697373Y2788593D01*
X9614750Y2754370D01*
X9540392Y2704685D01*
X9477155Y2641448D01*
X9427470Y2567090D01*
X9393247Y2484467D01*
X9375800Y2396755D01*
X7479623Y2396755D01*
X7354443Y2812836D01*
X6866517Y3853676D01*
X6232243Y4812382D01*
X5465140Y5668520D01*
X4894687Y6143255D01*
X10749940Y6143255D01*
X10749940Y6053825D01*
X10767387Y5966113D01*
X10801610Y5883490D01*
X10823428Y5850838D01*
X10812050Y5833810D01*
X10777827Y5751187D01*
X10760380Y5663475D01*
X10760380Y5574045D01*
X10777827Y5486333D01*
X10812050Y5403710D01*
X10827893Y5380000D01*
X10812050Y5356290D01*
X10777827Y5273667D01*
X10760380Y5185955D01*
X10760380Y5096525D01*
X10777827Y5008813D01*
X10812050Y4926190D01*
X10824498Y4907560D01*
X10812050Y4888930D01*
X10777827Y4806307D01*
X10760380Y4718595D01*
X10760380Y4629165D01*
X10777827Y4541453D01*
X10810298Y4463060D01*
X10777827Y4384667D01*
X10760380Y4296955D01*
X10760380Y4207525D01*
X10777827Y4119813D01*
X10812050Y4037190D01*
X10817710Y4028720D01*
X10812050Y4020250D01*
X10777827Y3937627D01*
X10760380Y3849915D01*
X10760380Y3760485D01*
X10777827Y3672773D01*
X10811350Y3591840D01*
X10777827Y3510907D01*
X10760380Y3423195D01*
X10760380Y3333765D01*
X10777827Y3246053D01*
X10812050Y3163430D01*
X10817710Y3154960D01*
X10812050Y3146490D01*
X10777827Y3063867D01*
X10760380Y2976155D01*
X10760380Y2886725D01*
X10777827Y2799013D01*
X10812050Y2716390D01*
X10861735Y2642032D01*
X10924972Y2578795D01*
X10999330Y2529110D01*
X11081953Y2494887D01*
X11169665Y2477440D01*
X11259095Y2477440D01*
X11346807Y2494887D01*
X11429430Y2529110D01*
X11503788Y2578795D01*
X11567025Y2642032D01*
X11616710Y2716390D01*
X11650933Y2799013D01*
X11668380Y2886725D01*
X11668380Y2976155D01*
X11650933Y3063867D01*
X11616710Y3146490D01*
X11611050Y3154960D01*
X11616710Y3163430D01*
X11650933Y3246053D01*
X11668380Y3333765D01*
X11668380Y3423195D01*
X11650933Y3510907D01*
X11617410Y3591840D01*
X11650933Y3672773D01*
X11668380Y3760485D01*
X11668380Y3849915D01*
X11650933Y3937627D01*
X11616710Y4020250D01*
X11611050Y4028720D01*
X11616710Y4037190D01*
X11650933Y4119813D01*
X11668380Y4207525D01*
X11668380Y4296955D01*
X11650933Y4384667D01*
X11618462Y4463060D01*
X11650933Y4541453D01*
X11668380Y4629165D01*
X11668380Y4718595D01*
X11650933Y4806307D01*
X11616710Y4888930D01*
X11604262Y4907560D01*
X11616710Y4926190D01*
X11650933Y5008813D01*
X11668380Y5096525D01*
X11668380Y5185955D01*
X11650933Y5273667D01*
X11616710Y5356290D01*
X11600867Y5380000D01*
X11616710Y5403710D01*
X11650933Y5486333D01*
X11668380Y5574045D01*
X11668380Y5581915D01*
X18088000Y5581915D01*
X18088000Y5492485D01*
X18105447Y5404773D01*
X18139670Y5322150D01*
X18189355Y5247792D01*
X18252592Y5184555D01*
X18326950Y5134870D01*
X18409573Y5100647D01*
X18497285Y5083200D01*
X18586715Y5083200D01*
X18674427Y5100647D01*
X18757050Y5134870D01*
X18831408Y5184555D01*
X18894645Y5247792D01*
X18944330Y5322150D01*
X18978553Y5404773D01*
X18996000Y5492485D01*
X18996000Y5581915D01*
X18978553Y5669627D01*
X18944330Y5752250D01*
X18894645Y5826608D01*
X18831408Y5889845D01*
X18757050Y5939530D01*
X18674427Y5973753D01*
X18586715Y5991200D01*
X18497285Y5991200D01*
X18409573Y5973753D01*
X18326950Y5939530D01*
X18252592Y5889845D01*
X18189355Y5826608D01*
X18139670Y5752250D01*
X18105447Y5669627D01*
X18088000Y5581915D01*
X11668380Y5581915D01*
X11668380Y5663475D01*
X11650933Y5751187D01*
X11616710Y5833810D01*
X11594892Y5866462D01*
X11606270Y5883490D01*
X11640493Y5966113D01*
X11657940Y6053825D01*
X11657940Y6143255D01*
X11640493Y6230967D01*
X11606270Y6313590D01*
X11556585Y6387948D01*
X11493348Y6451185D01*
X11418990Y6500870D01*
X11336367Y6535093D01*
X11248655Y6552540D01*
X11159225Y6552540D01*
X11071513Y6535093D01*
X10988890Y6500870D01*
X10914532Y6451185D01*
X10851295Y6387948D01*
X10801610Y6313590D01*
X10767387Y6230967D01*
X10749940Y6143255D01*
X4894687Y6143255D01*
X4581557Y6403843D01*
X3600326Y7002680D01*
X2542360Y7452267D01*
X1430209Y7743021D01*
X287574Y7868747D01*
X-861189Y7826764D01*
X-1991597Y7617967D01*
X-3079559Y7246806D01*
X-4101884Y6721192D01*
X-5036785Y6052328D01*
X-5864336Y5254468D01*
X-6566899Y4344619D01*
X-7129499Y3342172D01*
X-7540147Y2268492D01*
X-7790090Y1146464D01*
X-7874000Y0D01*
X-7790090Y-1146464D01*
X-7540147Y-2268492D01*
X-7255187Y-3013548D01*
X-7321285Y-3000400D01*
X-7410715Y-3000400D01*
X-7498427Y-3017847D01*
X-7581050Y-3052070D01*
X-7655408Y-3101755D01*
X-7718645Y-3164992D01*
X-7768330Y-3239350D01*
X-7802553Y-3321973D01*
X-7820000Y-3409685D01*
X-7820000Y-3499115D01*
X-7802553Y-3586827D01*
X-7770650Y-3663849D01*
X-7775606Y-3667160D01*
X-7838843Y-3730397D01*
X-7888528Y-3804755D01*
X-7922751Y-3887378D01*
X-7940198Y-3975090D01*
X-7940198Y-4064520D01*
X-7922751Y-4152232D01*
X-7913855Y-4173709D01*
X-7915985Y-4175132D01*
X-7979222Y-4238369D01*
X-8028907Y-4312727D01*
X-8063130Y-4395350D01*
X-8080577Y-4483062D01*
X-10314590Y-4483062D01*
X-10318695Y-4462429D01*
X-10352918Y-4379806D01*
X-10402603Y-4305448D01*
X-10465840Y-4242211D01*
X-10487111Y-4227998D01*
X-10487067Y-4227891D01*
X-10469620Y-4140179D01*
X-10469620Y-4050749D01*
X-10487067Y-3963037D01*
X-10521290Y-3880414D01*
X-10570975Y-3806056D01*
X-10634212Y-3742819D01*
X-10708570Y-3693134D01*
X-10791193Y-3658911D01*
X-10878905Y-3641464D01*
X-10968335Y-3641464D01*
X-11056047Y-3658911D01*
X-11138670Y-3693134D01*
X-11213028Y-3742819D01*
X-11276265Y-3806056D01*
X-11325950Y-3880414D01*
X-11360173Y-3963037D01*
X-11377620Y-4050749D01*
X-11377620Y-4140179D01*
X-11360173Y-4227891D01*
X-11325950Y-4310514D01*
X-11276265Y-4384872D01*
X-11213028Y-4448109D01*
X-11191757Y-4462322D01*
X-11191801Y-4462429D01*
X-11209248Y-4550141D01*
X-11209248Y-4639571D01*
X-11191801Y-4727283D01*
X-11157578Y-4809906D01*
X-11107893Y-4884264D01*
X-11044656Y-4947501D01*
X-10970298Y-4997186D01*
X-10920654Y-5017749D01*
X-10997416Y-5002480D01*
X-11086846Y-5002480D01*
X-11174558Y-5019927D01*
X-11257181Y-5054150D01*
X-11331539Y-5103835D01*
X-11394776Y-5167072D01*
X-11444461Y-5241430D01*
X-11478684Y-5324053D01*
X-11496131Y-5411765D01*
X-12968014Y-5411765D01*
X-11921372Y-4365124D01*
X-11836053Y-4348153D01*
X-11753430Y-4313930D01*
X-11679072Y-4264245D01*
X-11615835Y-4201008D01*
X-11566150Y-4126650D01*
X-11531927Y-4044027D01*
X-11514480Y-3956315D01*
X-11514480Y-3866885D01*
X-11531927Y-3779173D01*
X-11566150Y-3696550D01*
X-11615835Y-3622192D01*
X-11655543Y-3582484D01*
X-11632431Y-3526687D01*
X-11614984Y-3438975D01*
X-11614984Y-3349545D01*
X-11632431Y-3261833D01*
X-11666654Y-3179210D01*
X-11716339Y-3104852D01*
X-11779576Y-3041615D01*
X-11853934Y-2991930D01*
X-11936557Y-2957707D01*
X-12024269Y-2940260D01*
X-12113699Y-2940260D01*
X-12201411Y-2957707D01*
X-12284034Y-2991930D01*
X-12354848Y-3039247D01*
X-12365133Y-3040260D01*
X-12365142Y-3040260D01*
X-12417156Y-3045383D01*
X-12483885Y-3065625D01*
X-12545383Y-3098496D01*
X-12545385Y-3098497D01*
X-12545384Y-3098497D01*
X-12585786Y-3131654D01*
X-12585789Y-3131657D01*
X-12599286Y-3142734D01*
X-12610363Y-3156231D01*
X-14479386Y-5025256D01*
X-14564707Y-5042227D01*
X-14647330Y-5076450D01*
X-14721688Y-5126135D01*
X-14784925Y-5189372D01*
X-14834610Y-5263730D01*
X-14868833Y-5346353D01*
X-14886280Y-5434065D01*
X-14886280Y-5523495D01*
X-14868833Y-5611207D01*
X-14834610Y-5693830D01*
X-14784925Y-5768188D01*
X-14721688Y-5831425D01*
X-14647330Y-5881110D01*
X-14564707Y-5915333D01*
X-14488085Y-5930574D01*
X-15186204Y-6628694D01*
X-15199706Y-6639775D01*
X-15243944Y-6693678D01*
X-15258650Y-6721192D01*
X-15276815Y-6755176D01*
X-15297058Y-6821905D01*
X-15303892Y-6891301D01*
X-15302180Y-6908685D01*
X-15302180Y-9426602D01*
X-15307167Y-9421615D01*
X-15381525Y-9371930D01*
X-15464148Y-9337707D01*
X-15551860Y-9320260D01*
X-15641290Y-9320260D01*
X-15729002Y-9337707D01*
X-15811625Y-9371930D01*
X-15885983Y-9421615D01*
X-15949220Y-9484852D01*
X-15998905Y-9559210D01*
X-16033128Y-9641833D01*
X-16050575Y-9729545D01*
X-16050575Y-9818975D01*
X-16033128Y-9906687D01*
X-15998905Y-9989310D01*
X-15949220Y-10063668D01*
X-15885983Y-10126905D01*
X-15811625Y-10176590D01*
X-15729002Y-10210813D01*
X-15641290Y-10228260D01*
X-15551860Y-10228260D01*
X-15464148Y-10210813D01*
X-15381525Y-10176590D01*
X-15307167Y-10126905D01*
X-15302181Y-10121919D01*
X-15302181Y-11032569D01*
X-15326222Y-11008528D01*
X-15400580Y-10958843D01*
X-15483203Y-10924620D01*
X-15570915Y-10907173D01*
X-15660345Y-10907173D01*
X-15748057Y-10924620D01*
X-15830680Y-10958843D01*
X-15905038Y-11008528D01*
X-15968275Y-11071765D01*
X-16017960Y-11146123D01*
X-16052183Y-11228746D01*
X-16069630Y-11316458D01*
X-16069630Y-11405888D01*
X-16052183Y-11493600D01*
X-16017960Y-11576223D01*
X-15968275Y-11650581D01*
X-15905038Y-11713818D01*
X-15830680Y-11763503D01*
X-15748057Y-11797726D01*
X-15660345Y-11815173D01*
X-15570915Y-11815173D01*
X-15483203Y-11797726D01*
X-15400580Y-11763503D01*
X-15326222Y-11713818D01*
X-15302181Y-11689777D01*
X-15302181Y-13260674D01*
X-15303892Y-13278048D01*
X-15302181Y-13295422D01*
X-15302181Y-13295429D01*
X-15297058Y-13347443D01*
X-15276816Y-13414172D01*
X-15243945Y-13475670D01*
X-15199707Y-13529573D01*
X-15186203Y-13540656D01*
X-14933599Y-13793260D01*
X-17545660Y-13793260D01*
X-17569181Y-13790943D01*
X-17592701Y-13793260D01*
X-17592706Y-13793260D01*
X-17663080Y-13800191D01*
X-17753372Y-13827581D01*
X-17836585Y-13872060D01*
X-17909523Y-13931917D01*
X-17924527Y-13950200D01*
X-17927059Y-13952732D01*
X-17971920Y-14007395D01*
X-18016398Y-14090608D01*
X-18043788Y-14180900D01*
X-18053037Y-14274800D01*
X-20074340Y-14274800D01*
X-20868747Y-13104865D01*
X-17545660Y-13104865D01*
X-17545660Y-13194295D01*
X-17528213Y-13282007D01*
X-17493990Y-13364630D01*
X-17444305Y-13438988D01*
X-17381068Y-13502225D01*
X-17306710Y-13551910D01*
X-17224087Y-13586133D01*
X-17136375Y-13603580D01*
X-17046945Y-13603580D01*
X-16959233Y-13586133D01*
X-16876610Y-13551910D01*
X-16802252Y-13502225D01*
X-16739015Y-13438988D01*
X-16689330Y-13364630D01*
X-16655107Y-13282007D01*
X-16637660Y-13194295D01*
X-16637660Y-13104865D01*
X-16655107Y-13017153D01*
X-16689330Y-12934530D01*
X-16739015Y-12860172D01*
X-16802252Y-12796935D01*
X-16876610Y-12747250D01*
X-16959233Y-12713027D01*
X-17046945Y-12695580D01*
X-17136375Y-12695580D01*
X-17224087Y-12713027D01*
X-17306710Y-12747250D01*
X-17381068Y-12796935D01*
X-17444305Y-12860172D01*
X-17493990Y-12934530D01*
X-17528213Y-13017153D01*
X-17545660Y-13104865D01*
X-20868747Y-13104865D01*
X-20924044Y-13023429D01*
X-21892613Y-11319841D01*
X-22185785Y-10692940D01*
X-16923650Y-10692940D01*
X-16923650Y-10782370D01*
X-16906203Y-10870082D01*
X-16871980Y-10952705D01*
X-16822295Y-11027063D01*
X-16759058Y-11090300D01*
X-16684700Y-11139985D01*
X-16602077Y-11174208D01*
X-16514365Y-11191655D01*
X-16424935Y-11191655D01*
X-16337223Y-11174208D01*
X-16254600Y-11139985D01*
X-16180242Y-11090300D01*
X-16117005Y-11027063D01*
X-16067320Y-10952705D01*
X-16033097Y-10870082D01*
X-16015650Y-10782370D01*
X-16015650Y-10692940D01*
X-16033097Y-10605228D01*
X-16067320Y-10522605D01*
X-16117005Y-10448247D01*
X-16180242Y-10385010D01*
X-16254600Y-10335325D01*
X-16337223Y-10301102D01*
X-16424935Y-10283655D01*
X-16514365Y-10283655D01*
X-16602077Y-10301102D01*
X-16684700Y-10335325D01*
X-16759058Y-10385010D01*
X-16822295Y-10448247D01*
X-16871980Y-10522605D01*
X-16906203Y-10605228D01*
X-16923650Y-10692940D01*
X-22185785Y-10692940D01*
X-22722770Y-9544685D01*
X-23086951Y-8570965D01*
X-19829120Y-8570965D01*
X-19829120Y-8660395D01*
X-19811673Y-8748107D01*
X-19777450Y-8830730D01*
X-19727765Y-8905088D01*
X-19664528Y-8968325D01*
X-19590170Y-9018010D01*
X-19507547Y-9052233D01*
X-19419835Y-9069680D01*
X-19330405Y-9069680D01*
X-19242693Y-9052233D01*
X-19160070Y-9018010D01*
X-19085712Y-8968325D01*
X-19022475Y-8905088D01*
X-18972790Y-8830730D01*
X-18938567Y-8748107D01*
X-18921120Y-8660395D01*
X-18921120Y-8570965D01*
X-18938567Y-8483253D01*
X-18972790Y-8400630D01*
X-19000477Y-8359193D01*
X-17137672Y-8359193D01*
X-17137672Y-8448623D01*
X-17120225Y-8536335D01*
X-17086002Y-8618958D01*
X-17036317Y-8693316D01*
X-16973080Y-8756553D01*
X-16898722Y-8806238D01*
X-16816099Y-8840461D01*
X-16728387Y-8857908D01*
X-16638957Y-8857908D01*
X-16551245Y-8840461D01*
X-16468622Y-8806238D01*
X-16394264Y-8756553D01*
X-16331027Y-8693316D01*
X-16281342Y-8618958D01*
X-16247119Y-8536335D01*
X-16229672Y-8448623D01*
X-16229672Y-8359193D01*
X-16247119Y-8271481D01*
X-16281342Y-8188858D01*
X-16331027Y-8114500D01*
X-16394264Y-8051263D01*
X-16468622Y-8001578D01*
X-16551245Y-7967355D01*
X-16638957Y-7949908D01*
X-16728387Y-7949908D01*
X-16816099Y-7967355D01*
X-16898722Y-8001578D01*
X-16973080Y-8051263D01*
X-17036317Y-8114500D01*
X-17086002Y-8188858D01*
X-17120225Y-8271481D01*
X-17137672Y-8359193D01*
X-19000477Y-8359193D01*
X-19022475Y-8326272D01*
X-19085712Y-8263035D01*
X-19160070Y-8213350D01*
X-19242693Y-8179127D01*
X-19330405Y-8161680D01*
X-19419835Y-8161680D01*
X-19507547Y-8179127D01*
X-19590170Y-8213350D01*
X-19664528Y-8263035D01*
X-19727765Y-8326272D01*
X-19777450Y-8400630D01*
X-19811673Y-8483253D01*
X-19829120Y-8570965D01*
X-23086951Y-8570965D01*
X-23409267Y-7709185D01*
X-23947763Y-5824945D01*
X-24334853Y-3903878D01*
X-24455594Y-2896605D01*
X-10614000Y-2896605D01*
X-10614000Y-2986035D01*
X-10596553Y-3073747D01*
X-10562330Y-3156370D01*
X-10512645Y-3230728D01*
X-10449408Y-3293965D01*
X-10375050Y-3343650D01*
X-10292427Y-3377873D01*
X-10204715Y-3395320D01*
X-10115285Y-3395320D01*
X-10027573Y-3377873D01*
X-9944950Y-3343650D01*
X-9870592Y-3293965D01*
X-9807355Y-3230728D01*
X-9757670Y-3156370D01*
X-9723447Y-3073747D01*
X-9706000Y-2986035D01*
X-9706000Y-2896605D01*
X-9723447Y-2808893D01*
X-9757670Y-2726270D01*
X-9807355Y-2651912D01*
X-9870592Y-2588675D01*
X-9944950Y-2538990D01*
X-10027573Y-2504767D01*
X-10115285Y-2487320D01*
X-10204715Y-2487320D01*
X-10292427Y-2504767D01*
X-10375050Y-2538990D01*
X-10449408Y-2588675D01*
X-10512645Y-2651912D01*
X-10562330Y-2726270D01*
X-10596553Y-2808893D01*
X-10614000Y-2896605D01*
X-24455594Y-2896605D01*
X-24568090Y-1958129D01*
X-24646000Y0D01*
X-24613903Y806715D01*
X-22450400Y806715D01*
X-22450400Y717285D01*
X-22432953Y629573D01*
X-22403638Y558800D01*
X-22432953Y488027D01*
X-22450400Y400315D01*
X-22450400Y310885D01*
X-22432953Y223173D01*
X-22398730Y140550D01*
X-22389676Y127000D01*
X-22398730Y113450D01*
X-22432953Y30827D01*
X-22450400Y-56885D01*
X-22450400Y-146315D01*
X-22432953Y-234027D01*
X-22398730Y-316650D01*
X-22349045Y-391008D01*
X-22285808Y-454245D01*
X-22211450Y-503930D01*
X-22128827Y-538153D01*
X-22041115Y-555600D01*
X-21951685Y-555600D01*
X-21863973Y-538153D01*
X-21781350Y-503930D01*
X-21706992Y-454245D01*
X-21643755Y-391008D01*
X-21594070Y-316650D01*
X-21559847Y-234027D01*
X-21542400Y-146315D01*
X-21542400Y-56885D01*
X-21559847Y30827D01*
X-21564547Y42175D01*
X-16773502Y42175D01*
X-16773502Y-47255D01*
X-16756055Y-134967D01*
X-16721832Y-217590D01*
X-16672147Y-291948D01*
X-16608910Y-355185D01*
X-16534552Y-404870D01*
X-16451929Y-439093D01*
X-16364217Y-456540D01*
X-16274787Y-456540D01*
X-16187075Y-439093D01*
X-16104452Y-404870D01*
X-16030094Y-355185D01*
X-15966857Y-291948D01*
X-15917172Y-217590D01*
X-15882949Y-134967D01*
X-15865502Y-47255D01*
X-15865502Y42175D01*
X-15882949Y129887D01*
X-15917172Y212510D01*
X-15966857Y286868D01*
X-16030094Y350105D01*
X-16104452Y399790D01*
X-16187075Y434013D01*
X-16274787Y451460D01*
X-16364217Y451460D01*
X-16451929Y434013D01*
X-16534552Y399790D01*
X-16608910Y350105D01*
X-16672147Y286868D01*
X-16721832Y212510D01*
X-16756055Y129887D01*
X-16773502Y42175D01*
X-21564547Y42175D01*
X-21594070Y113450D01*
X-21603124Y127000D01*
X-21594070Y140550D01*
X-21559847Y223173D01*
X-21542400Y310885D01*
X-21542400Y400315D01*
X-21559847Y488027D01*
X-21589162Y558800D01*
X-21559847Y629573D01*
X-21542400Y717285D01*
X-21542400Y748295D01*
X-17746320Y748295D01*
X-17746320Y658865D01*
X-17728873Y571153D01*
X-17694650Y488530D01*
X-17644965Y414172D01*
X-17581728Y350935D01*
X-17507370Y301250D01*
X-17424747Y267027D01*
X-17337035Y249580D01*
X-17247605Y249580D01*
X-17159893Y267027D01*
X-17077270Y301250D01*
X-17002912Y350935D01*
X-16939675Y414172D01*
X-16889990Y488530D01*
X-16855767Y571153D01*
X-16838320Y658865D01*
X-16838320Y748295D01*
X-16855767Y836007D01*
X-16889990Y918630D01*
X-16939675Y992988D01*
X-17002912Y1056225D01*
X-17077270Y1105910D01*
X-17159893Y1140133D01*
X-17247605Y1157580D01*
X-17337035Y1157580D01*
X-17424747Y1140133D01*
X-17507370Y1105910D01*
X-17581728Y1056225D01*
X-17644965Y992988D01*
X-17694650Y918630D01*
X-17728873Y836007D01*
X-17746320Y748295D01*
X-21542400Y748295D01*
X-21542400Y806715D01*
X-21559847Y894427D01*
X-21591676Y971271D01*
X-21587655Y975292D01*
X-21537970Y1049650D01*
X-21503747Y1132273D01*
X-21486300Y1219985D01*
X-21486300Y1309415D01*
X-21503747Y1397127D01*
X-21537970Y1479750D01*
X-21587655Y1554108D01*
X-21650892Y1617345D01*
X-21725250Y1667030D01*
X-21807873Y1701253D01*
X-21895585Y1718700D01*
X-21985015Y1718700D01*
X-22072727Y1701253D01*
X-22155350Y1667030D01*
X-22229708Y1617345D01*
X-22292945Y1554108D01*
X-22342630Y1479750D01*
X-22376853Y1397127D01*
X-22394300Y1309415D01*
X-22394300Y1219985D01*
X-22376853Y1132273D01*
X-22345024Y1055429D01*
X-22349045Y1051408D01*
X-22398730Y977050D01*
X-22432953Y894427D01*
X-22450400Y806715D01*
X-24613903Y806715D01*
X-24568090Y1958129D01*
X-24549309Y2114815D01*
X-12925400Y2114815D01*
X-12925400Y2025385D01*
X-12907953Y1937673D01*
X-12873730Y1855050D01*
X-12824045Y1780692D01*
X-12760808Y1717455D01*
X-12686450Y1667770D01*
X-12603827Y1633547D01*
X-12516115Y1616100D01*
X-12426685Y1616100D01*
X-12338973Y1633547D01*
X-12256350Y1667770D01*
X-12181992Y1717455D01*
X-12118755Y1780692D01*
X-12069070Y1855050D01*
X-12034847Y1937673D01*
X-12017400Y2025385D01*
X-12017400Y2114815D01*
X-12034847Y2202527D01*
X-12036242Y2205895D01*
X-12008115Y2200300D01*
X-11918685Y2200300D01*
X-11830973Y2217747D01*
X-11748350Y2251970D01*
X-11673992Y2301655D01*
X-11610755Y2364892D01*
X-11561070Y2439250D01*
X-11526847Y2521873D01*
X-11509400Y2609585D01*
X-11509400Y2699015D01*
X-11526847Y2786727D01*
X-11561070Y2869350D01*
X-11610755Y2943708D01*
X-11673992Y3006945D01*
X-11748350Y3056630D01*
X-11830973Y3090853D01*
X-11918685Y3108300D01*
X-12008115Y3108300D01*
X-12095827Y3090853D01*
X-12178450Y3056630D01*
X-12252808Y3006945D01*
X-12316045Y2943708D01*
X-12365730Y2869350D01*
X-12399953Y2786727D01*
X-12417400Y2699015D01*
X-12417400Y2609585D01*
X-12399953Y2521873D01*
X-12398558Y2518505D01*
X-12426685Y2524100D01*
X-12516115Y2524100D01*
X-12603827Y2506653D01*
X-12686450Y2472430D01*
X-12760808Y2422745D01*
X-12824045Y2359508D01*
X-12873730Y2285150D01*
X-12907953Y2202527D01*
X-12925400Y2114815D01*
X-24549309Y2114815D01*
X-24355970Y3727715D01*
X-22221800Y3727715D01*
X-22221800Y3638285D01*
X-22204353Y3550573D01*
X-22170130Y3467950D01*
X-22120445Y3393592D01*
X-22057208Y3330355D01*
X-21982850Y3280670D01*
X-21900227Y3246447D01*
X-21812515Y3229000D01*
X-21723085Y3229000D01*
X-21635373Y3246447D01*
X-21552750Y3280670D01*
X-21478392Y3330355D01*
X-21460962Y3347785D01*
X-15281971Y3347785D01*
X-15281971Y3258355D01*
X-15264524Y3170643D01*
X-15230301Y3088020D01*
X-15180616Y3013662D01*
X-15117379Y2950425D01*
X-15043021Y2900740D01*
X-14960398Y2866517D01*
X-14872686Y2849070D01*
X-14783256Y2849070D01*
X-14695544Y2866517D01*
X-14612921Y2900740D01*
X-14538563Y2950425D01*
X-14475326Y3013662D01*
X-14425641Y3088020D01*
X-14391418Y3170643D01*
X-14373971Y3258355D01*
X-14373971Y3347785D01*
X-14391418Y3435497D01*
X-14425641Y3518120D01*
X-14475326Y3592478D01*
X-14538563Y3655715D01*
X-14612921Y3705400D01*
X-14695544Y3739623D01*
X-14783256Y3757070D01*
X-14872686Y3757070D01*
X-14960398Y3739623D01*
X-15043021Y3705400D01*
X-15117379Y3655715D01*
X-15180616Y3592478D01*
X-15230301Y3518120D01*
X-15264524Y3435497D01*
X-15281971Y3347785D01*
X-21460962Y3347785D01*
X-21415155Y3393592D01*
X-21365470Y3467950D01*
X-21331247Y3550573D01*
X-21326921Y3572321D01*
X-21305173Y3576647D01*
X-21222550Y3610870D01*
X-21148192Y3660555D01*
X-21084955Y3723792D01*
X-21035270Y3798150D01*
X-21001047Y3880773D01*
X-21000935Y3881335D01*
X-21000373Y3881447D01*
X-20917750Y3915670D01*
X-20843392Y3965355D01*
X-20780155Y4028592D01*
X-20730470Y4102950D01*
X-20696247Y4185573D01*
X-20678800Y4273285D01*
X-20678800Y4362715D01*
X-20680324Y4370379D01*
X-10139064Y4370379D01*
X-10139064Y4280949D01*
X-10121617Y4193237D01*
X-10087394Y4110614D01*
X-10037709Y4036256D01*
X-9974472Y3973019D01*
X-9900114Y3923334D01*
X-9817491Y3889111D01*
X-9729779Y3871664D01*
X-9640349Y3871664D01*
X-9552637Y3889111D01*
X-9470014Y3923334D01*
X-9395656Y3973019D01*
X-9332419Y4036256D01*
X-9282734Y4110614D01*
X-9248511Y4193237D01*
X-9231064Y4280949D01*
X-9231064Y4370379D01*
X-9248511Y4458091D01*
X-9282734Y4540714D01*
X-9332419Y4615072D01*
X-9395656Y4678309D01*
X-9470014Y4727994D01*
X-9552637Y4762217D01*
X-9640349Y4779664D01*
X-9729779Y4779664D01*
X-9817491Y4762217D01*
X-9900114Y4727994D01*
X-9974472Y4678309D01*
X-10037709Y4615072D01*
X-10087394Y4540714D01*
X-10121617Y4458091D01*
X-10139064Y4370379D01*
X-20680324Y4370379D01*
X-20696247Y4450427D01*
X-20730470Y4533050D01*
X-20780155Y4607408D01*
X-20843392Y4670645D01*
X-20917750Y4720330D01*
X-21000373Y4754553D01*
X-21088085Y4772000D01*
X-21177515Y4772000D01*
X-21265227Y4754553D01*
X-21347850Y4720330D01*
X-21422208Y4670645D01*
X-21485445Y4607408D01*
X-21535130Y4533050D01*
X-21569353Y4450427D01*
X-21569465Y4449865D01*
X-21570027Y4449753D01*
X-21652650Y4415530D01*
X-21727008Y4365845D01*
X-21790245Y4302608D01*
X-21839930Y4228250D01*
X-21874153Y4145627D01*
X-21878479Y4123879D01*
X-21900227Y4119553D01*
X-21982850Y4085330D01*
X-22057208Y4035645D01*
X-22120445Y3972408D01*
X-22170130Y3898050D01*
X-22204353Y3815427D01*
X-22221800Y3727715D01*
X-24355970Y3727715D01*
X-24334853Y3903878D01*
X-24068386Y5226315D01*
X-16354400Y5226315D01*
X-16354400Y5136885D01*
X-16336953Y5049173D01*
X-16302730Y4966550D01*
X-16253045Y4892192D01*
X-16189808Y4828955D01*
X-16115450Y4779270D01*
X-16032827Y4745047D01*
X-15945115Y4727600D01*
X-15855685Y4727600D01*
X-15767973Y4745047D01*
X-15685350Y4779270D01*
X-15610992Y4828955D01*
X-15547755Y4892192D01*
X-15498070Y4966550D01*
X-15474641Y5023115D01*
X-12544400Y5023115D01*
X-12544400Y4933685D01*
X-12526953Y4845973D01*
X-12492730Y4763350D01*
X-12443045Y4688992D01*
X-12379808Y4625755D01*
X-12305450Y4576070D01*
X-12222827Y4541847D01*
X-12135115Y4524400D01*
X-12045685Y4524400D01*
X-11957973Y4541847D01*
X-11875350Y4576070D01*
X-11800992Y4625755D01*
X-11737755Y4688992D01*
X-11688070Y4763350D01*
X-11653847Y4845973D01*
X-11636400Y4933685D01*
X-11636400Y5023115D01*
X-11641957Y5051055D01*
X-10804500Y5051055D01*
X-10804500Y4961625D01*
X-10787053Y4873913D01*
X-10752830Y4791290D01*
X-10703145Y4716932D01*
X-10639908Y4653695D01*
X-10565550Y4604010D01*
X-10482927Y4569787D01*
X-10395215Y4552340D01*
X-10305785Y4552340D01*
X-10218073Y4569787D01*
X-10135450Y4604010D01*
X-10061092Y4653695D01*
X-9997855Y4716932D01*
X-9948170Y4791290D01*
X-9913947Y4873913D01*
X-9896500Y4961625D01*
X-9896500Y5051055D01*
X-9913947Y5138767D01*
X-9948170Y5221390D01*
X-9997855Y5295748D01*
X-10061092Y5358985D01*
X-10135450Y5408670D01*
X-10218073Y5442893D01*
X-10305785Y5460340D01*
X-10395215Y5460340D01*
X-10482927Y5442893D01*
X-10565550Y5408670D01*
X-10639908Y5358985D01*
X-10703145Y5295748D01*
X-10752830Y5221390D01*
X-10787053Y5138767D01*
X-10804500Y5051055D01*
X-11641957Y5051055D01*
X-11653847Y5110827D01*
X-11688070Y5193450D01*
X-11737755Y5267808D01*
X-11800992Y5331045D01*
X-11875350Y5380730D01*
X-11957973Y5414953D01*
X-12045685Y5432400D01*
X-12135115Y5432400D01*
X-12222827Y5414953D01*
X-12305450Y5380730D01*
X-12379808Y5331045D01*
X-12443045Y5267808D01*
X-12492730Y5193450D01*
X-12526953Y5110827D01*
X-12544400Y5023115D01*
X-15474641Y5023115D01*
X-15463847Y5049173D01*
X-15446400Y5136885D01*
X-15446400Y5226315D01*
X-15463847Y5314027D01*
X-15498070Y5396650D01*
X-15547755Y5471008D01*
X-15610992Y5534245D01*
X-15685350Y5583930D01*
X-15767973Y5618153D01*
X-15855685Y5635600D01*
X-15945115Y5635600D01*
X-16032827Y5618153D01*
X-16115450Y5583930D01*
X-16189808Y5534245D01*
X-16253045Y5471008D01*
X-16302730Y5396650D01*
X-16336953Y5314027D01*
X-16354400Y5226315D01*
X-24068386Y5226315D01*
X-23947763Y5824945D01*
X-23943177Y5840995D01*
X-9374480Y5840995D01*
X-9374480Y5751565D01*
X-9357033Y5663853D01*
X-9322810Y5581230D01*
X-9273125Y5506872D01*
X-9209888Y5443635D01*
X-9135530Y5393950D01*
X-9052907Y5359727D01*
X-8965195Y5342280D01*
X-8875765Y5342280D01*
X-8788053Y5359727D01*
X-8705430Y5393950D01*
X-8631072Y5443635D01*
X-8567835Y5506872D01*
X-8518150Y5581230D01*
X-8483927Y5663853D01*
X-8466480Y5751565D01*
X-8466480Y5840995D01*
X-8483927Y5928707D01*
X-8518150Y6011330D01*
X-8567835Y6085688D01*
X-8631072Y6148925D01*
X-8705430Y6198610D01*
X-8788053Y6232833D01*
X-8875765Y6250280D01*
X-8965195Y6250280D01*
X-9052907Y6232833D01*
X-9135530Y6198610D01*
X-9209888Y6148925D01*
X-9273125Y6085688D01*
X-9322810Y6011330D01*
X-9357033Y5928707D01*
X-9374480Y5840995D01*
X-23943177Y5840995D01*
X-23409267Y7709185D01*
X-23178903Y8325115D01*
X3617910Y8325115D01*
X3617910Y8235685D01*
X3635357Y8147973D01*
X3669580Y8065350D01*
X3719265Y7990992D01*
X3782502Y7927755D01*
X3856860Y7878070D01*
X3939483Y7843847D01*
X4027195Y7826400D01*
X4116625Y7826400D01*
X4204337Y7843847D01*
X4286960Y7878070D01*
X4361318Y7927755D01*
X4424555Y7990992D01*
X4474240Y8065350D01*
X4508463Y8147973D01*
X4525910Y8235685D01*
X4525910Y8325115D01*
X4508463Y8412827D01*
X4474240Y8495450D01*
X4424555Y8569808D01*
X4361318Y8633045D01*
X4286960Y8682730D01*
X4204337Y8716953D01*
X4116625Y8734400D01*
X4027195Y8734400D01*
X3939483Y8716953D01*
X3856860Y8682730D01*
X3782502Y8633045D01*
X3719265Y8569808D01*
X3669580Y8495450D01*
X3635357Y8412827D01*
X3617910Y8325115D01*
X-23178903Y8325115D01*
X-22908156Y9049015D01*
X-10512400Y9049015D01*
X-10512400Y8959585D01*
X-10494953Y8871873D01*
X-10460730Y8789250D01*
X-10411045Y8714892D01*
X-10347808Y8651655D01*
X-10273450Y8601970D01*
X-10190827Y8567747D01*
X-10103115Y8550300D01*
X-10013685Y8550300D01*
X-9925973Y8567747D01*
X-9843350Y8601970D01*
X-9768992Y8651655D01*
X-9717747Y8702900D01*
X-9711430Y8687650D01*
X-9661745Y8613292D01*
X-9598508Y8550055D01*
X-9524150Y8500370D01*
X-9441527Y8466147D01*
X-9353815Y8448700D01*
X-9264385Y8448700D01*
X-9176673Y8466147D01*
X-9094050Y8500370D01*
X-9019692Y8550055D01*
X-8956455Y8613292D01*
X-8906770Y8687650D01*
X-8872547Y8770273D01*
X-8855100Y8857985D01*
X-8855100Y8947415D01*
X-8872547Y9035127D01*
X-8906770Y9117750D01*
X-8956455Y9192108D01*
X-9019692Y9255345D01*
X-9094050Y9305030D01*
X-9176673Y9339253D01*
X-9264385Y9356700D01*
X-9353815Y9356700D01*
X-9441527Y9339253D01*
X-9524150Y9305030D01*
X-9598508Y9255345D01*
X-9649753Y9204100D01*
X-9656070Y9219350D01*
X-9705755Y9293708D01*
X-9768992Y9356945D01*
X-9843350Y9406630D01*
X-9925973Y9440853D01*
X-10013685Y9458300D01*
X-10103115Y9458300D01*
X-10190827Y9440853D01*
X-10273450Y9406630D01*
X-10347808Y9356945D01*
X-10411045Y9293708D01*
X-10460730Y9219350D01*
X-10494953Y9136727D01*
X-10512400Y9049015D01*
X-22908156Y9049015D01*
X-22722770Y9544685D01*
X-22604160Y9798315D01*
X-18742000Y9798315D01*
X-18742000Y9708885D01*
X-18724553Y9621173D01*
X-18690330Y9538550D01*
X-18640645Y9464192D01*
X-18577408Y9400955D01*
X-18503050Y9351270D01*
X-18420427Y9317047D01*
X-18332715Y9299600D01*
X-18243285Y9299600D01*
X-18155573Y9317047D01*
X-18072950Y9351270D01*
X-17998592Y9400955D01*
X-17935355Y9464192D01*
X-17885670Y9538550D01*
X-17851447Y9621173D01*
X-17834000Y9708885D01*
X-17834000Y9798315D01*
X-17851447Y9886027D01*
X-17878241Y9950715D01*
X2289200Y9950715D01*
X2289200Y9861285D01*
X2306647Y9773573D01*
X2340870Y9690950D01*
X2390555Y9616592D01*
X2453792Y9553355D01*
X2528150Y9503670D01*
X2610773Y9469447D01*
X2698485Y9452000D01*
X2787915Y9452000D01*
X2875627Y9469447D01*
X2958250Y9503670D01*
X3032608Y9553355D01*
X3095845Y9616592D01*
X3145530Y9690950D01*
X3179753Y9773573D01*
X3197200Y9861285D01*
X3197200Y9950715D01*
X3187096Y10001515D01*
X3254400Y10001515D01*
X3254400Y9912085D01*
X3271847Y9824373D01*
X3306070Y9741750D01*
X3355755Y9667392D01*
X3418992Y9604155D01*
X3493350Y9554470D01*
X3575973Y9520247D01*
X3663685Y9502800D01*
X3753115Y9502800D01*
X3840827Y9520247D01*
X3923450Y9554470D01*
X3997808Y9604155D01*
X4061045Y9667392D01*
X4110730Y9741750D01*
X4144953Y9824373D01*
X4162400Y9912085D01*
X4162400Y10001515D01*
X4270400Y10001515D01*
X4270400Y9912085D01*
X4287847Y9824373D01*
X4322070Y9741750D01*
X4371755Y9667392D01*
X4434992Y9604155D01*
X4509350Y9554470D01*
X4591973Y9520247D01*
X4679685Y9502800D01*
X4769115Y9502800D01*
X4856827Y9520247D01*
X4939450Y9554470D01*
X5013808Y9604155D01*
X5077045Y9667392D01*
X5126730Y9741750D01*
X5160953Y9824373D01*
X5178400Y9912085D01*
X5178400Y10001515D01*
X5160953Y10089227D01*
X5126730Y10171850D01*
X5077045Y10246208D01*
X5013808Y10309445D01*
X4939450Y10359130D01*
X4856827Y10393353D01*
X4769115Y10410800D01*
X4679685Y10410800D01*
X4591973Y10393353D01*
X4509350Y10359130D01*
X4434992Y10309445D01*
X4371755Y10246208D01*
X4322070Y10171850D01*
X4287847Y10089227D01*
X4270400Y10001515D01*
X4162400Y10001515D01*
X4144953Y10089227D01*
X4110730Y10171850D01*
X4061045Y10246208D01*
X3997808Y10309445D01*
X3923450Y10359130D01*
X3840827Y10393353D01*
X3753115Y10410800D01*
X3663685Y10410800D01*
X3575973Y10393353D01*
X3493350Y10359130D01*
X3418992Y10309445D01*
X3355755Y10246208D01*
X3306070Y10171850D01*
X3271847Y10089227D01*
X3254400Y10001515D01*
X3187096Y10001515D01*
X3179753Y10038427D01*
X3145530Y10121050D01*
X3095845Y10195408D01*
X3032608Y10258645D01*
X2958250Y10308330D01*
X2875627Y10342553D01*
X2787915Y10360000D01*
X2698485Y10360000D01*
X2610773Y10342553D01*
X2528150Y10308330D01*
X2453792Y10258645D01*
X2390555Y10195408D01*
X2340870Y10121050D01*
X2306647Y10038427D01*
X2289200Y9950715D01*
X-17878241Y9950715D01*
X-17885670Y9968650D01*
X-17935355Y10043008D01*
X-17998592Y10106245D01*
X-18072950Y10155930D01*
X-18155573Y10190153D01*
X-18243285Y10207600D01*
X-18332715Y10207600D01*
X-18420427Y10190153D01*
X-18503050Y10155930D01*
X-18577408Y10106245D01*
X-18640645Y10043008D01*
X-18690330Y9968650D01*
X-18724553Y9886027D01*
X-18742000Y9798315D01*
X-22604160Y9798315D01*
X-21986484Y11119115D01*
X-18640400Y11119115D01*
X-18640400Y11029685D01*
X-18622953Y10941973D01*
X-18588730Y10859350D01*
X-18539045Y10784992D01*
X-18475808Y10721755D01*
X-18401450Y10672070D01*
X-18318827Y10637847D01*
X-18231115Y10620400D01*
X-18141685Y10620400D01*
X-18053973Y10637847D01*
X-17971350Y10672070D01*
X-17896992Y10721755D01*
X-17833755Y10784992D01*
X-17784070Y10859350D01*
X-17749847Y10941973D01*
X-17732400Y11029685D01*
X-17732400Y11119115D01*
X-17749847Y11206827D01*
X-17784070Y11289450D01*
X-17833755Y11363808D01*
X-17896992Y11427045D01*
X-17971350Y11476730D01*
X-18053973Y11510953D01*
X-18141685Y11528400D01*
X-18231115Y11528400D01*
X-18318827Y11510953D01*
X-18401450Y11476730D01*
X-18475808Y11427045D01*
X-18539045Y11363808D01*
X-18588730Y11289450D01*
X-18622953Y11206827D01*
X-18640400Y11119115D01*
X-21986484Y11119115D01*
X-21892613Y11319841D01*
X-21429092Y12135115D01*
X-5178400Y12135115D01*
X-5178400Y12045685D01*
X-5160953Y11957973D01*
X-5126730Y11875350D01*
X-5077045Y11800992D01*
X-5013808Y11737755D01*
X-4939450Y11688070D01*
X-4856827Y11653847D01*
X-4769115Y11636400D01*
X-4710521Y11636400D01*
X-4703753Y11602373D01*
X-4669530Y11519750D01*
X-4619845Y11445392D01*
X-4556608Y11382155D01*
X-4482250Y11332470D01*
X-4399627Y11298247D01*
X-4311915Y11280800D01*
X-4222485Y11280800D01*
X-4134773Y11298247D01*
X-4052150Y11332470D01*
X-3977792Y11382155D01*
X-3914555Y11445392D01*
X-3864870Y11519750D01*
X-3830647Y11602373D01*
X-3823119Y11640220D01*
X-3803915Y11636400D01*
X-3714485Y11636400D01*
X-3683369Y11642589D01*
X-3653530Y11570550D01*
X-3603845Y11496192D01*
X-3540608Y11432955D01*
X-3466250Y11383270D01*
X-3383627Y11349047D01*
X-3295915Y11331600D01*
X-3206485Y11331600D01*
X-3118773Y11349047D01*
X-3036150Y11383270D01*
X-2961792Y11432955D01*
X-2898555Y11496192D01*
X-2848870Y11570550D01*
X-2814647Y11653173D01*
X-2797200Y11740885D01*
X-2797200Y11830315D01*
X-2804778Y11868415D01*
X295300Y11868415D01*
X295300Y11778985D01*
X312747Y11691273D01*
X346970Y11608650D01*
X396655Y11534292D01*
X459892Y11471055D01*
X534250Y11421370D01*
X616873Y11387147D01*
X704585Y11369700D01*
X794015Y11369700D01*
X881727Y11387147D01*
X964350Y11421370D01*
X1038708Y11471055D01*
X1101945Y11534292D01*
X1151630Y11608650D01*
X1185853Y11691273D01*
X1203300Y11778985D01*
X1203300Y11868415D01*
X1185853Y11956127D01*
X1151630Y12038750D01*
X1101945Y12113108D01*
X1038708Y12176345D01*
X964350Y12226030D01*
X881727Y12260253D01*
X794015Y12277700D01*
X704585Y12277700D01*
X616873Y12260253D01*
X534250Y12226030D01*
X459892Y12176345D01*
X396655Y12113108D01*
X346970Y12038750D01*
X312747Y11956127D01*
X295300Y11868415D01*
X-2804778Y11868415D01*
X-2814647Y11918027D01*
X-2848870Y12000650D01*
X-2898555Y12075008D01*
X-2961792Y12138245D01*
X-3036150Y12187930D01*
X-3118773Y12222153D01*
X-3206485Y12239600D01*
X-3295915Y12239600D01*
X-3327031Y12233411D01*
X-3356870Y12305450D01*
X-3406555Y12379808D01*
X-3469792Y12443045D01*
X-3544150Y12492730D01*
X-3626773Y12526953D01*
X-3714485Y12544400D01*
X-3803915Y12544400D01*
X-3891627Y12526953D01*
X-3974250Y12492730D01*
X-4048608Y12443045D01*
X-4111845Y12379808D01*
X-4161530Y12305450D01*
X-4195753Y12222827D01*
X-4203281Y12184980D01*
X-4222485Y12188800D01*
X-4281079Y12188800D01*
X-4287847Y12222827D01*
X-4322070Y12305450D01*
X-4371755Y12379808D01*
X-4434992Y12443045D01*
X-4509350Y12492730D01*
X-4591973Y12526953D01*
X-4679685Y12544400D01*
X-4769115Y12544400D01*
X-4856827Y12526953D01*
X-4939450Y12492730D01*
X-5013808Y12443045D01*
X-5077045Y12379808D01*
X-5126730Y12305450D01*
X-5160953Y12222827D01*
X-5178400Y12135115D01*
X-21429092Y12135115D01*
X-20924044Y13023429D01*
X-20712854Y13334452D01*
X11116000Y13334452D01*
X11116000Y12700549D01*
X11128357Y12575088D01*
X11177189Y12414108D01*
X11256489Y12265748D01*
X11363209Y12135709D01*
X11493247Y12028989D01*
X11641607Y11949689D01*
X11802587Y11900857D01*
X11970000Y11884368D01*
X12137412Y11900857D01*
X12298392Y11949689D01*
X12446752Y12028989D01*
X12576791Y12135709D01*
X12683511Y12265747D01*
X12762811Y12414107D01*
X12811643Y12575087D01*
X12824000Y12700548D01*
X12824000Y13334452D01*
X12811643Y13459913D01*
X12762811Y13620893D01*
X12683511Y13769253D01*
X12576791Y13899291D01*
X12446753Y14006011D01*
X12298393Y14085311D01*
X12137413Y14134143D01*
X11970000Y14150632D01*
X11802588Y14134143D01*
X11641608Y14085311D01*
X11493248Y14006011D01*
X11363210Y13899291D01*
X11256490Y13769253D01*
X11177189Y13620893D01*
X11128357Y13459913D01*
X11116000Y13334452D01*
X-20712854Y13334452D01*
X-20009485Y14370315D01*
X-16608400Y14370315D01*
X-16608400Y14280885D01*
X-16590953Y14193173D01*
X-16556730Y14110550D01*
X-16507045Y14036192D01*
X-16443808Y13972955D01*
X-16369450Y13923270D01*
X-16286827Y13889047D01*
X-16199115Y13871600D01*
X-16109685Y13871600D01*
X-16021973Y13889047D01*
X-15939350Y13923270D01*
X-15864992Y13972955D01*
X-15801755Y14036192D01*
X-15752070Y14110550D01*
X-15717847Y14193173D01*
X-15710822Y14228495D01*
X-14413420Y14228495D01*
X-14413420Y14139065D01*
X-14395973Y14051353D01*
X-14361750Y13968730D01*
X-14312065Y13894372D01*
X-14248828Y13831135D01*
X-14174470Y13781450D01*
X-14091847Y13747227D01*
X-14004135Y13729780D01*
X-13914705Y13729780D01*
X-13826993Y13747227D01*
X-13744370Y13781450D01*
X-13670012Y13831135D01*
X-13606775Y13894372D01*
X-13557090Y13968730D01*
X-13522867Y14051353D01*
X-13505420Y14139065D01*
X-13505420Y14228495D01*
X-13522867Y14316207D01*
X-13557090Y14398830D01*
X-13606775Y14473188D01*
X-13670012Y14536425D01*
X-13744370Y14586110D01*
X-13826993Y14620333D01*
X-13914705Y14637780D01*
X-14004135Y14637780D01*
X-14091847Y14620333D01*
X-14174470Y14586110D01*
X-14248828Y14536425D01*
X-14312065Y14473188D01*
X-14361750Y14398830D01*
X-14395973Y14316207D01*
X-14413420Y14228495D01*
X-15710822Y14228495D01*
X-15700400Y14280885D01*
X-15700400Y14370315D01*
X-15717847Y14458027D01*
X-15752070Y14540650D01*
X-15801755Y14615008D01*
X-15864992Y14678245D01*
X-15939350Y14727930D01*
X-16021973Y14762153D01*
X-16109685Y14779600D01*
X-16199115Y14779600D01*
X-16286827Y14762153D01*
X-16369450Y14727930D01*
X-16443808Y14678245D01*
X-16507045Y14615008D01*
X-16556730Y14540650D01*
X-16590953Y14458027D01*
X-16608400Y14370315D01*
X-20009485Y14370315D01*
X-19823186Y14644679D01*
X-18597000Y16173340D01*
X-17253237Y17599748D01*
X-15800394Y18914885D01*
X-14247655Y20110436D01*
X-14057484Y20234114D01*
X-2377000Y20234114D01*
X-2377000Y19765886D01*
X-2285653Y19306655D01*
X-2106470Y18874068D01*
X-1846336Y18484751D01*
X-1515249Y18153664D01*
X-1125932Y17893530D01*
X-693345Y17714347D01*
X-234114Y17623000D01*
X234114Y17623000D01*
X693345Y17714347D01*
X1125932Y17893530D01*
X1515249Y18153664D01*
X1846336Y18484751D01*
X2106470Y18874068D01*
X2285653Y19306655D01*
X2377000Y19765886D01*
X2377000Y20234114D01*
X2285653Y20693345D01*
X2106470Y21125932D01*
X1846336Y21515249D01*
X1515249Y21846336D01*
X1125932Y22106470D01*
X693345Y22285653D01*
X234114Y22377000D01*
X-234114Y22377000D01*
X-693345Y22285653D01*
X-1125932Y22106470D01*
X-1515249Y21846336D01*
X-1846336Y21515249D01*
X-2106470Y21125932D01*
X-2285653Y20693345D01*
X-2377000Y20234114D01*
X-14057484Y20234114D01*
X-12604839Y21178842D01*
X-10882330Y22113349D01*
X-9091020Y22908048D01*
X-7242234Y23557915D01*
X-5347660Y24058841D01*
X-3419276Y24407660D01*
X-1469274Y24602166D01*
X490016Y24641128D01*
X2446209Y24524302D01*
M02*
