G04 #@! TF.GenerationSoftware,KiCad,Pcbnew,5.1.5-52549c5~84~ubuntu18.04.1*
G04 #@! TF.CreationDate,2019-12-03T21:10:06-05:00*
G04 #@! TF.ProjectId,SwarmBot,53776172-6d42-46f7-942e-6b696361645f,rev?*
G04 #@! TF.SameCoordinates,Original*
G04 #@! TF.FileFunction,Copper,L2,Bot*
G04 #@! TF.FilePolarity,Positive*
%FSLAX46Y46*%
G04 Gerber Fmt 4.6, Leading zero omitted, Abs format (unit mm)*
G04 Created by KiCad (PCBNEW 5.1.5-52549c5~84~ubuntu18.04.1) date 2019-12-03 21:10:06*
%MOMM*%
%LPD*%
G04 APERTURE LIST*
%ADD10O,1.200000X1.750000*%
%ADD11C,0.100000*%
%ADD12O,1.000000X1.000000*%
%ADD13R,1.000000X1.000000*%
%ADD14R,0.900000X2.000000*%
%ADD15C,0.400000*%
%ADD16C,0.800000*%
%ADD17C,0.200000*%
%ADD18C,0.450000*%
%ADD19C,0.250000*%
%ADD20C,0.254000*%
G04 APERTURE END LIST*
D10*
X8223500Y13017500D03*
G04 #@! TA.AperFunction,ComponentPad*
D11*
G36*
X10598005Y13891296D02*
G01*
X10622273Y13887696D01*
X10646072Y13881735D01*
X10669171Y13873470D01*
X10691350Y13862980D01*
X10712393Y13850368D01*
X10732099Y13835753D01*
X10750277Y13819277D01*
X10766753Y13801099D01*
X10781368Y13781393D01*
X10793980Y13760350D01*
X10804470Y13738171D01*
X10812735Y13715072D01*
X10818696Y13691273D01*
X10822296Y13667005D01*
X10823500Y13642501D01*
X10823500Y12392499D01*
X10822296Y12367995D01*
X10818696Y12343727D01*
X10812735Y12319928D01*
X10804470Y12296829D01*
X10793980Y12274650D01*
X10781368Y12253607D01*
X10766753Y12233901D01*
X10750277Y12215723D01*
X10732099Y12199247D01*
X10712393Y12184632D01*
X10691350Y12172020D01*
X10669171Y12161530D01*
X10646072Y12153265D01*
X10622273Y12147304D01*
X10598005Y12143704D01*
X10573501Y12142500D01*
X9873499Y12142500D01*
X9848995Y12143704D01*
X9824727Y12147304D01*
X9800928Y12153265D01*
X9777829Y12161530D01*
X9755650Y12172020D01*
X9734607Y12184632D01*
X9714901Y12199247D01*
X9696723Y12215723D01*
X9680247Y12233901D01*
X9665632Y12253607D01*
X9653020Y12274650D01*
X9642530Y12296829D01*
X9634265Y12319928D01*
X9628304Y12343727D01*
X9624704Y12367995D01*
X9623500Y12392499D01*
X9623500Y13642501D01*
X9624704Y13667005D01*
X9628304Y13691273D01*
X9634265Y13715072D01*
X9642530Y13738171D01*
X9653020Y13760350D01*
X9665632Y13781393D01*
X9680247Y13801099D01*
X9696723Y13819277D01*
X9714901Y13835753D01*
X9734607Y13850368D01*
X9755650Y13862980D01*
X9777829Y13873470D01*
X9800928Y13881735D01*
X9824727Y13887696D01*
X9848995Y13891296D01*
X9873499Y13892500D01*
X10573501Y13892500D01*
X10598005Y13891296D01*
G37*
G04 #@! TD.AperFunction*
D12*
X9690000Y-8400000D03*
X10960000Y-8400000D03*
X12230000Y-8400000D03*
D13*
X13500000Y-8400000D03*
D14*
X-13000000Y-1600000D03*
X-17000000Y-1600000D03*
X-15000000Y1600000D03*
X-19000000Y1600000D03*
X19000000Y-1600000D03*
X15000000Y-1600000D03*
X17000000Y1600000D03*
X13000000Y1600000D03*
D15*
X10363200Y-16611600D03*
X10414000Y-17932400D03*
X-12890500Y-1651000D03*
X-13716000Y-762000D03*
X-12763500Y190500D03*
X-12636500Y-13906500D03*
X-12509500Y-10795000D03*
X-8318500Y-10033000D03*
X-8445500Y-13271500D03*
X-13487400Y-15976600D03*
X-13487400Y-16421100D03*
X-13487400Y-16865600D03*
X-13487400Y-17310100D03*
X-13487400Y-17754600D03*
X-13487400Y-18199100D03*
X-13487400Y-18643600D03*
X-13487400Y-19088100D03*
X-13487400Y-19507200D03*
X-13487400Y-19913600D03*
X-13487400Y-20358100D03*
X-13042900Y-20675600D03*
X-12598400Y-20675600D03*
X-12598400Y-21120100D03*
X-12153900Y-21247100D03*
X-11709400Y-21247100D03*
X-11264900Y-21247100D03*
X-10820400Y-21247100D03*
X-10375900Y-21247100D03*
X-9931400Y-21247100D03*
X-9486900Y-21247100D03*
X-9042400Y-21247100D03*
X-8597900Y-21247100D03*
X-8153400Y-21247100D03*
X-7899400Y-20866100D03*
X-7899400Y-20421600D03*
X-7899400Y-19977100D03*
X-7899400Y-19532600D03*
X-7899400Y-19088100D03*
X-7899400Y-18643600D03*
X-8280400Y-18389600D03*
X-8724900Y-18389600D03*
X-9169400Y-18389600D03*
X-9613900Y-18389600D03*
X-10058400Y-18389600D03*
X-10502900Y-18389600D03*
X-10947400Y-18389600D03*
X-11201400Y-18008600D03*
X-11201400Y-17564100D03*
X-11645900Y-17437100D03*
X-12090400Y-17437100D03*
X-12090400Y-16992600D03*
X-12090400Y-16548100D03*
X-12090400Y-16103600D03*
X-21844000Y2032000D03*
X-20320000Y2032000D03*
X-20320000Y2921000D03*
X-21844000Y2921000D03*
X-24130000Y2032000D03*
X-22733000Y2032000D03*
X-22733000Y3810000D03*
X-24130000Y3810000D03*
X-22987000Y1143000D03*
X-22987000Y508000D03*
X-24130000Y508000D03*
X-24130000Y1143000D03*
X-24130000Y-1143000D03*
X-22733000Y-1143000D03*
X-22733000Y-508000D03*
X-24130000Y-508000D03*
X-21844000Y-2921000D03*
X-20320000Y-2921000D03*
X-20320000Y-2032000D03*
X-21844000Y-2032000D03*
X-24003000Y-3810000D03*
X-22860000Y-3683000D03*
X-22860000Y-2159000D03*
X-24003000Y-2159000D03*
X-2298000Y8783000D03*
X2300000Y9475000D03*
X-2921000Y14224000D03*
X1524000Y13843000D03*
X-14859000Y-2794000D03*
X-22072000Y-7213000D03*
X-22072000Y-7721000D03*
X-20574000Y5715000D03*
X-20574000Y8128000D03*
X-21463000Y-11049000D03*
X-9398000Y-16510000D03*
X-5207000Y-12827000D03*
X-15494000Y-14097000D03*
X6959600Y-16002000D03*
X14173200Y-15544800D03*
X11633200Y-16611600D03*
X11633200Y-17881600D03*
X7366000Y-19812000D03*
X5921337Y-19346810D03*
X6886537Y-19346810D03*
X40000Y9300000D03*
X-16446500Y-8382000D03*
X-14122398Y-8382000D03*
D16*
X-7350018Y3240018D03*
X-7650000Y6950000D03*
D15*
X-440000Y7920000D03*
X-21971000Y-127000D03*
X-21971000Y381000D03*
X-21971000Y889000D03*
X-21814000Y1300000D03*
X-21209000Y3683000D03*
X-21209000Y4445000D03*
X13000000Y4770400D03*
X13000000Y4364000D03*
X13000000Y3957600D03*
X13000000Y3551200D03*
X13000000Y3144800D03*
X13000000Y2738400D03*
X-6350000Y-10922000D03*
X-5943600Y-10414000D03*
X12242800Y-15595600D03*
X8737600Y-17012590D03*
X9753600Y-15494000D03*
X13157341Y-17012590D03*
X-16002000Y127000D03*
X-15367000Y-889000D03*
X-6286500Y-8826500D03*
X-14351000Y5334000D03*
X-14224000Y3937000D03*
X-17653000Y-6223000D03*
X-17526000Y-3492500D03*
X-10160000Y3937000D03*
X-17272000Y-11430000D03*
X-9271000Y-15875000D03*
X-8636000Y-4635500D03*
X-11582400Y-7569200D03*
X-13335000Y5080000D03*
X-11811000Y4826000D03*
X12954000Y-18491200D03*
X-7467600Y-15595600D03*
X13766800Y-17526000D03*
X-6502400Y-15087600D03*
X-12827000Y2540000D03*
X-14414500Y-10604500D03*
X-11866510Y-4000500D03*
X-15557500Y-9398000D03*
X-12065000Y2540000D03*
X-12192000Y-5740400D03*
X-9779000Y-5524500D03*
X-14549490Y-10009122D03*
X-10177011Y-7031489D03*
X-14529930Y-11615122D03*
X-9249911Y-6815589D03*
X-12763500Y-7747000D03*
X-15113000Y-7048500D03*
X-15113000Y-5715000D03*
X-13398500Y-7810500D03*
X-15811500Y-7048500D03*
X-15836345Y-5415934D03*
D17*
X-16446500Y-8382000D02*
X-14122398Y-8382000D01*
D18*
X-7350018Y6650018D02*
X-7650000Y6950000D01*
X-7350018Y3240018D02*
X-7350018Y6650018D01*
X-21971000Y-127000D02*
X-21971000Y889000D01*
X-21971000Y1143000D02*
X-21814000Y1300000D01*
X-21971000Y889000D02*
X-21971000Y1143000D01*
X-21209000Y3683000D02*
X-21209000Y4445000D01*
X-21218999Y3673001D02*
X-21209000Y3683000D01*
X-21218999Y1612159D02*
X-21218999Y3673001D01*
X-21814000Y1300000D02*
X-21531158Y1300000D01*
X-21531158Y1300000D02*
X-21218999Y1612159D01*
X13000000Y1600000D02*
X13000000Y2738400D01*
X13000000Y4770400D02*
X13000000Y4770400D01*
X13000000Y4364000D02*
X13000000Y4770400D01*
X13000000Y3957600D02*
X13000000Y4364000D01*
X13000000Y3551200D02*
X13000000Y3957600D01*
X13000000Y3144800D02*
X13000000Y3551200D01*
X13000000Y2738400D02*
X13000000Y3144800D01*
D17*
X15000000Y-2373600D02*
X15000000Y-1600000D01*
X11334789Y-6038811D02*
X15000000Y-2373600D01*
X6051589Y-6038811D02*
X11334789Y-6038811D01*
X-6350000Y-10922000D02*
X1168400Y-10922000D01*
X1168400Y-10922000D02*
X6051589Y-6038811D01*
X16350000Y1600000D02*
X17000000Y1600000D01*
X16209998Y1600000D02*
X16350000Y1600000D01*
X1110700Y-10414000D02*
X5987500Y-5537200D01*
X-5943600Y-10414000D02*
X1110700Y-10414000D01*
X5987500Y-5537200D02*
X11125200Y-5537200D01*
X11125200Y-5537200D02*
X14071600Y-2590800D01*
X14071600Y-2590800D02*
X14071600Y-538398D01*
X14071600Y-538398D02*
X16209998Y1600000D01*
D19*
X12230000Y-14262000D02*
X12230000Y-8400000D01*
X12242800Y-15595600D02*
X12242800Y-14274800D01*
X12242800Y-14274800D02*
X12230000Y-14262000D01*
X8890000Y-13779500D02*
X8890000Y-16860190D01*
X9652000Y-13017500D02*
X8890000Y-13779500D01*
X8890000Y-16860190D02*
X8737600Y-17012590D01*
X9690000Y-8400000D02*
X9652000Y-8438000D01*
X9652000Y-8438000D02*
X9652000Y-13017500D01*
X9652000Y-13919200D02*
X10922000Y-12649200D01*
X10922000Y-12649200D02*
X10922000Y-8438000D01*
X9753600Y-15494000D02*
X9652000Y-15392400D01*
X10922000Y-8438000D02*
X10960000Y-8400000D01*
X9652000Y-15392400D02*
X9652000Y-13919200D01*
X13157341Y-16729748D02*
X13157341Y-17012590D01*
X13157341Y-11684841D02*
X13157341Y-16729748D01*
X13500000Y-8400000D02*
X13500000Y-11342182D01*
X13500000Y-11342182D02*
X13157341Y-11684841D01*
D17*
X-16002000Y127000D02*
X-15494000Y-381000D01*
X-15494000Y-381000D02*
X-15494000Y-762000D01*
X-15494000Y-762000D02*
X-15367000Y-889000D01*
X-14351000Y5334000D02*
X-14351000Y4064000D01*
X-14351000Y4064000D02*
X-14224000Y3937000D01*
X-14653002Y3937000D02*
X-14506842Y3937000D01*
X-17843500Y-2857500D02*
X-17843500Y746502D01*
X-17526000Y-3492500D02*
X-17526000Y-3175000D01*
X-14506842Y3937000D02*
X-14224000Y3937000D01*
X-17843500Y746502D02*
X-14653002Y3937000D01*
X-17526000Y-3175000D02*
X-17843500Y-2857500D01*
X-8864600Y-6248400D02*
X-6486499Y-8626501D01*
X-6486499Y-8626501D02*
X-6286500Y-8826500D01*
X-17653000Y-6223000D02*
X-17627600Y-6248400D01*
X-17627600Y-6248400D02*
X-8864600Y-6248400D01*
X-17272000Y-11430000D02*
X-16002000Y-12700000D01*
X-16002000Y-12700000D02*
X-10922000Y-12700000D01*
X-10922000Y-12700000D02*
X-9271000Y-14351000D01*
X-9271000Y-14351000D02*
X-9271000Y-15875000D01*
X-8636000Y2413000D02*
X-10160000Y3937000D01*
X-8636000Y-4635500D02*
X-8636000Y2413000D01*
X-17272000Y-10210800D02*
X-17272000Y-11430000D01*
X-15951200Y-8890000D02*
X-17272000Y-10210800D01*
X-11582400Y-7569200D02*
X-12903200Y-8890000D01*
X-12903200Y-8890000D02*
X-15951200Y-8890000D01*
X-13335000Y5080000D02*
X-12065000Y5080000D01*
X-12065000Y5080000D02*
X-11811000Y4826000D01*
X12754001Y-18691199D02*
X12954000Y-18491200D01*
X-1683300Y-15646400D02*
X1517100Y-18846800D01*
X1517100Y-18846800D02*
X12598400Y-18846800D01*
X-7416800Y-15646400D02*
X-1683300Y-15646400D01*
X-7467600Y-15595600D02*
X-7416800Y-15646400D01*
X12598400Y-18846800D02*
X12754001Y-18691199D01*
X13483958Y-17526000D02*
X13766800Y-17526000D01*
X-6502400Y-15087600D02*
X-1676400Y-15087600D01*
X11981900Y-18440400D02*
X12896300Y-17526000D01*
X12896300Y-17526000D02*
X13483958Y-17526000D01*
X1676400Y-18440400D02*
X11981900Y-18440400D01*
X-1676400Y-15087600D02*
X1676400Y-18440400D01*
X-14414500Y-10604500D02*
X-14697342Y-10604500D01*
X-14697342Y-10604500D02*
X-15557500Y-9744342D01*
X-15557500Y-9744342D02*
X-15557500Y-9680842D01*
X-15557500Y-9680842D02*
X-15557500Y-9398000D01*
X-11866510Y-3717658D02*
X-11866510Y-4000500D01*
X-12827000Y2540000D02*
X-11866510Y1579510D01*
X-11866510Y1579510D02*
X-11866510Y-3717658D01*
X-11992001Y-5540401D02*
X-12192000Y-5740400D01*
X-11366500Y1841500D02*
X-11366500Y-4914900D01*
X-12065000Y2540000D02*
X-11366500Y1841500D01*
X-11366500Y-4914900D02*
X-11992001Y-5540401D01*
X-13154644Y-10009122D02*
X-10377010Y-7231488D01*
X-10377010Y-7231488D02*
X-10177011Y-7031489D01*
X-14549490Y-10009122D02*
X-13154644Y-10009122D01*
X-14529930Y-11615122D02*
X-14049444Y-11615122D01*
X-14049444Y-11615122D02*
X-9249911Y-6815589D01*
X-15049500Y-7112000D02*
X-15113000Y-7048500D01*
X-13335000Y-7112000D02*
X-15049500Y-7112000D01*
X-12763500Y-7747000D02*
X-12763500Y-7683500D01*
X-12763500Y-7683500D02*
X-13335000Y-7112000D01*
X-15000000Y400000D02*
X-15000000Y1600000D01*
X-15113000Y-5715000D02*
X-15113000Y-5432158D01*
X-16065500Y-4479658D02*
X-16065500Y-2349500D01*
X-14668500Y68500D02*
X-15000000Y400000D01*
X-15748000Y-2032000D02*
X-15621000Y-2032000D01*
X-14668500Y-1079500D02*
X-14668500Y68500D01*
X-16065500Y-2349500D02*
X-15748000Y-2032000D01*
X-15113000Y-5432158D02*
X-16065500Y-4479658D01*
X-15621000Y-2032000D02*
X-14668500Y-1079500D01*
X-15811500Y-7175500D02*
X-15811500Y-7048500D01*
X-15430500Y-7556500D02*
X-15811500Y-7175500D01*
X-13398500Y-7810500D02*
X-13652500Y-7556500D01*
X-13652500Y-7556500D02*
X-15430500Y-7556500D01*
X-17000000Y-1600000D02*
X-17000000Y-4252279D01*
X-17000000Y-4252279D02*
X-16036344Y-5215935D01*
X-16036344Y-5215935D02*
X-15836345Y-5415934D01*
D20*
G36*
X9994577Y22528510D02*
G01*
X11752876Y21663223D01*
X13436870Y20660974D01*
X15035912Y19528099D01*
X16539892Y18271762D01*
X17939301Y16899905D01*
X19225292Y15421201D01*
X20389735Y13845000D01*
X21425267Y12181266D01*
X22325342Y10440517D01*
X23084269Y8633761D01*
X23697250Y6772419D01*
X24160409Y4868260D01*
X24470818Y2933322D01*
X24626515Y979839D01*
X24626515Y-979839D01*
X24470818Y-2933322D01*
X24160409Y-4868260D01*
X23697250Y-6772419D01*
X23084269Y-8633761D01*
X22325342Y-10440517D01*
X21425267Y-12181266D01*
X20389735Y-13845000D01*
X19225292Y-15421201D01*
X17939301Y-16899905D01*
X16539892Y-18271762D01*
X15035912Y-19528099D01*
X13436870Y-20660974D01*
X11752876Y-21663223D01*
X9994577Y-22528510D01*
X8173089Y-23251364D01*
X6299928Y-23827216D01*
X4386936Y-24252425D01*
X2446209Y-24524302D01*
X490016Y-24641128D01*
X-1469274Y-24602166D01*
X-3419276Y-24407660D01*
X-5347660Y-24058841D01*
X-7242234Y-23557915D01*
X-9091020Y-22908048D01*
X-10882330Y-22113349D01*
X-12604839Y-21178842D01*
X-14247655Y-20110436D01*
X-15800394Y-18914885D01*
X-17253237Y-17599748D01*
X-18597000Y-16173340D01*
X-18938178Y-15748000D01*
X-13398500Y-15748000D01*
X-13398500Y-20447000D01*
X-13396060Y-20471776D01*
X-13388833Y-20495601D01*
X-13377097Y-20517557D01*
X-13361303Y-20536803D01*
X-13342057Y-20552597D01*
X-13320101Y-20564333D01*
X-13296276Y-20571560D01*
X-13271500Y-20574000D01*
X-12509500Y-20574000D01*
X-12509500Y-21018500D01*
X-12507060Y-21043276D01*
X-12499833Y-21067101D01*
X-12488097Y-21089057D01*
X-12472303Y-21108303D01*
X-12453057Y-21124097D01*
X-12431101Y-21135833D01*
X-12407276Y-21143060D01*
X-12382500Y-21145500D01*
X-8128000Y-21145500D01*
X-8103224Y-21143060D01*
X-8079399Y-21135833D01*
X-8057443Y-21124097D01*
X-8038197Y-21108303D01*
X-8022403Y-21089057D01*
X-8010667Y-21067101D01*
X-8003440Y-21043276D01*
X-8001000Y-21018500D01*
X-8001000Y-19851869D01*
X-1504000Y-19851869D01*
X-1504000Y-20148131D01*
X-1446202Y-20438701D01*
X-1332827Y-20712411D01*
X-1168233Y-20958744D01*
X-958744Y-21168233D01*
X-712411Y-21332827D01*
X-438701Y-21446202D01*
X-148131Y-21504000D01*
X148131Y-21504000D01*
X438701Y-21446202D01*
X712411Y-21332827D01*
X958744Y-21168233D01*
X1168233Y-20958744D01*
X1332827Y-20712411D01*
X1446202Y-20438701D01*
X1504000Y-20148131D01*
X1504000Y-19851869D01*
X1446202Y-19561299D01*
X1332827Y-19287589D01*
X1168233Y-19041256D01*
X958744Y-18831767D01*
X712411Y-18667173D01*
X438701Y-18553798D01*
X148131Y-18496000D01*
X-148131Y-18496000D01*
X-438701Y-18553798D01*
X-712411Y-18667173D01*
X-958744Y-18831767D01*
X-1168233Y-19041256D01*
X-1332827Y-19287589D01*
X-1446202Y-19561299D01*
X-1504000Y-19851869D01*
X-8001000Y-19851869D01*
X-8001000Y-18732500D01*
X-8003440Y-18707724D01*
X-8010667Y-18683899D01*
X-8022403Y-18661943D01*
X-8038197Y-18642697D01*
X-8057443Y-18626903D01*
X-8079399Y-18615167D01*
X-8103224Y-18607940D01*
X-8128000Y-18605500D01*
X-12128500Y-18605500D01*
X-12128500Y-15748000D01*
X-12130940Y-15723224D01*
X-12138167Y-15699399D01*
X-12149903Y-15677443D01*
X-12165697Y-15658197D01*
X-12184943Y-15642403D01*
X-12206899Y-15630667D01*
X-12230724Y-15623440D01*
X-12255500Y-15621000D01*
X-13271500Y-15621000D01*
X-13296276Y-15623440D01*
X-13320101Y-15630667D01*
X-13342057Y-15642403D01*
X-13361303Y-15658197D01*
X-13377097Y-15677443D01*
X-13388833Y-15699399D01*
X-13396060Y-15723224D01*
X-13398500Y-15748000D01*
X-18938178Y-15748000D01*
X-19823186Y-14644679D01*
X-20924044Y-13023429D01*
X-21892613Y-11319841D01*
X-22722770Y-9544685D01*
X-23409267Y-7709185D01*
X-23947763Y-5824945D01*
X-24334853Y-3903878D01*
X-24568090Y-1958129D01*
X-24646000Y0D01*
X-24600523Y1143000D01*
X-22452317Y1143000D01*
X-22450000Y1119477D01*
X-22450000Y865475D01*
X-22449999Y865465D01*
X-22450000Y-150525D01*
X-22443069Y-220899D01*
X-22415679Y-311191D01*
X-22371200Y-394405D01*
X-22311343Y-467343D01*
X-22238405Y-527200D01*
X-22155192Y-571679D01*
X-22064900Y-599069D01*
X-21971000Y-608317D01*
X-21877101Y-599069D01*
X-21786809Y-571679D01*
X-21703595Y-527200D01*
X-21630657Y-467343D01*
X-21570800Y-394405D01*
X-21526321Y-311192D01*
X-21498931Y-220900D01*
X-21492000Y-150526D01*
X-21492000Y822540D01*
X-21437258Y827931D01*
X-21346966Y855321D01*
X-21263753Y899800D01*
X-21190815Y959657D01*
X-21175811Y977940D01*
X-20896934Y1256816D01*
X-20878656Y1271816D01*
X-20834556Y1325553D01*
X-20818799Y1344752D01*
X-20774321Y1427966D01*
X-20774320Y1427967D01*
X-20746930Y1518259D01*
X-20739999Y1588633D01*
X-20739999Y1588637D01*
X-20737682Y1612158D01*
X-20739999Y1635679D01*
X-20739999Y3578986D01*
X-20736931Y3589100D01*
X-20730000Y3659474D01*
X-20730000Y3659477D01*
X-20727683Y3683000D01*
X-20730000Y3706523D01*
X-20730000Y4468526D01*
X-20736931Y4538900D01*
X-20764321Y4629192D01*
X-20808800Y4712405D01*
X-20868657Y4785343D01*
X-20941595Y4845200D01*
X-21024808Y4889679D01*
X-21115100Y4917069D01*
X-21209000Y4926317D01*
X-21302899Y4917069D01*
X-21393191Y4889679D01*
X-21476404Y4845200D01*
X-21549342Y4785343D01*
X-21609199Y4712405D01*
X-21653678Y4629192D01*
X-21681068Y4538900D01*
X-21687999Y4468526D01*
X-21688000Y3777012D01*
X-21691067Y3766901D01*
X-21700316Y3673001D01*
X-21697998Y3649468D01*
X-21697999Y1810567D01*
X-21729565Y1779000D01*
X-21790469Y1779000D01*
X-21814000Y1781318D01*
X-21860222Y1776765D01*
X-21907900Y1772069D01*
X-21998192Y1744679D01*
X-22081405Y1700200D01*
X-22154343Y1640343D01*
X-22169347Y1622060D01*
X-22293064Y1498343D01*
X-22311342Y1483343D01*
X-22327319Y1463874D01*
X-22371200Y1410405D01*
X-22392627Y1370317D01*
X-22415679Y1327192D01*
X-22443069Y1236900D01*
X-22449897Y1167573D01*
X-22452317Y1143000D01*
X-24600523Y1143000D01*
X-24568090Y1958129D01*
X-24334853Y3903878D01*
X-23947763Y5824945D01*
X-23409267Y7709185D01*
X-22722770Y9544685D01*
X-21892613Y11319841D01*
X-20924044Y13023429D01*
X-20364583Y13847355D01*
X-20319999Y-508789D01*
X-20315119Y-557553D01*
X-20300665Y-605202D01*
X-20277193Y-649115D01*
X-20245605Y-687605D01*
X-20207115Y-719193D01*
X-20163202Y-742665D01*
X-20115553Y-757119D01*
X-20066000Y-762000D01*
X-18197499Y-762000D01*
X-18197500Y-2840126D01*
X-18199211Y-2857500D01*
X-18197500Y-2874874D01*
X-18197500Y-2874881D01*
X-18196349Y-2886564D01*
X-18192377Y-2926896D01*
X-18189319Y-2936975D01*
X-18172135Y-2993624D01*
X-18139264Y-3055122D01*
X-18095026Y-3109025D01*
X-18081523Y-3120107D01*
X-17926668Y-3274963D01*
X-17928330Y-3277450D01*
X-17962553Y-3360073D01*
X-17980000Y-3447785D01*
X-17980000Y-3537215D01*
X-17962553Y-3624927D01*
X-17928330Y-3707550D01*
X-17878645Y-3781908D01*
X-17815408Y-3845145D01*
X-17741050Y-3894830D01*
X-17658427Y-3929053D01*
X-17570715Y-3946500D01*
X-17481285Y-3946500D01*
X-17393573Y-3929053D01*
X-17353999Y-3912661D01*
X-17353999Y-4234895D01*
X-17355711Y-4252279D01*
X-17348877Y-4321675D01*
X-17328634Y-4388404D01*
X-17295763Y-4449902D01*
X-17251525Y-4503805D01*
X-17238023Y-4514886D01*
X-16289869Y-5463042D01*
X-16272898Y-5548361D01*
X-16238675Y-5630984D01*
X-16188990Y-5705342D01*
X-16125753Y-5768579D01*
X-16051395Y-5818264D01*
X-15968772Y-5852487D01*
X-15881060Y-5869934D01*
X-15791630Y-5869934D01*
X-15703918Y-5852487D01*
X-15621295Y-5818264D01*
X-15563090Y-5779372D01*
X-15549553Y-5847427D01*
X-15530096Y-5894400D01*
X-17339547Y-5894400D01*
X-17363592Y-5870355D01*
X-17437950Y-5820670D01*
X-17520573Y-5786447D01*
X-17608285Y-5769000D01*
X-17697715Y-5769000D01*
X-17785427Y-5786447D01*
X-17868050Y-5820670D01*
X-17942408Y-5870355D01*
X-18005645Y-5933592D01*
X-18055330Y-6007950D01*
X-18089553Y-6090573D01*
X-18107000Y-6178285D01*
X-18107000Y-6267715D01*
X-18089553Y-6355427D01*
X-18055330Y-6438050D01*
X-18005645Y-6512408D01*
X-17942408Y-6575645D01*
X-17868050Y-6625330D01*
X-17785427Y-6659553D01*
X-17697715Y-6677000D01*
X-17608285Y-6677000D01*
X-17520573Y-6659553D01*
X-17437950Y-6625330D01*
X-17403633Y-6602400D01*
X-15895931Y-6602400D01*
X-15943927Y-6611947D01*
X-16026550Y-6646170D01*
X-16100908Y-6695855D01*
X-16164145Y-6759092D01*
X-16213830Y-6833450D01*
X-16248053Y-6916073D01*
X-16265500Y-7003785D01*
X-16265500Y-7093215D01*
X-16248053Y-7180927D01*
X-16213830Y-7263550D01*
X-16164145Y-7337908D01*
X-16100908Y-7401145D01*
X-16064058Y-7425768D01*
X-16063026Y-7427025D01*
X-16049523Y-7438107D01*
X-15693103Y-7794529D01*
X-15682026Y-7808026D01*
X-15668529Y-7819103D01*
X-15668526Y-7819106D01*
X-15637442Y-7844616D01*
X-15628123Y-7852264D01*
X-15566625Y-7885135D01*
X-15520139Y-7899236D01*
X-15499897Y-7905377D01*
X-15493064Y-7906050D01*
X-15447882Y-7910500D01*
X-15447875Y-7910500D01*
X-15430501Y-7912211D01*
X-15413127Y-7910500D01*
X-13841503Y-7910500D01*
X-13835053Y-7942927D01*
X-13800830Y-8025550D01*
X-13751145Y-8099908D01*
X-13687908Y-8163145D01*
X-13613550Y-8212830D01*
X-13530927Y-8247053D01*
X-13443215Y-8264500D01*
X-13353785Y-8264500D01*
X-13266073Y-8247053D01*
X-13183450Y-8212830D01*
X-13109092Y-8163145D01*
X-13048522Y-8102575D01*
X-12978550Y-8149330D01*
X-12895927Y-8183553D01*
X-12808215Y-8201000D01*
X-12718785Y-8201000D01*
X-12713849Y-8200018D01*
X-13049830Y-8536000D01*
X-13694781Y-8536000D01*
X-13685845Y-8514427D01*
X-13668398Y-8426715D01*
X-13668398Y-8337285D01*
X-13685845Y-8249573D01*
X-13720068Y-8166950D01*
X-13769753Y-8092592D01*
X-13832990Y-8029355D01*
X-13907348Y-7979670D01*
X-13989971Y-7945447D01*
X-14077683Y-7928000D01*
X-14167113Y-7928000D01*
X-14254825Y-7945447D01*
X-14337448Y-7979670D01*
X-14409778Y-8028000D01*
X-16159120Y-8028000D01*
X-16231450Y-7979670D01*
X-16314073Y-7945447D01*
X-16401785Y-7928000D01*
X-16491215Y-7928000D01*
X-16578927Y-7945447D01*
X-16661550Y-7979670D01*
X-16735908Y-8029355D01*
X-16799145Y-8092592D01*
X-16848830Y-8166950D01*
X-16883053Y-8249573D01*
X-16900500Y-8337285D01*
X-16900500Y-8426715D01*
X-16883053Y-8514427D01*
X-16848830Y-8597050D01*
X-16799145Y-8671408D01*
X-16735908Y-8734645D01*
X-16661550Y-8784330D01*
X-16578927Y-8818553D01*
X-16491215Y-8836000D01*
X-16401785Y-8836000D01*
X-16396850Y-8835018D01*
X-17510023Y-9948193D01*
X-17523526Y-9959275D01*
X-17567764Y-10013178D01*
X-17600635Y-10074676D01*
X-17620877Y-10141405D01*
X-17626000Y-10193419D01*
X-17626000Y-10193426D01*
X-17627711Y-10210800D01*
X-17626000Y-10228175D01*
X-17625999Y-11142619D01*
X-17674330Y-11214950D01*
X-17708553Y-11297573D01*
X-17726000Y-11385285D01*
X-17726000Y-11474715D01*
X-17708553Y-11562427D01*
X-17674330Y-11645050D01*
X-17624645Y-11719408D01*
X-17561408Y-11782645D01*
X-17487050Y-11832330D01*
X-17404427Y-11866553D01*
X-17319106Y-11883524D01*
X-16264603Y-12938029D01*
X-16253526Y-12951526D01*
X-16240029Y-12962603D01*
X-16240026Y-12962606D01*
X-16208942Y-12988116D01*
X-16199623Y-12995764D01*
X-16138125Y-13028635D01*
X-16091639Y-13042736D01*
X-16071397Y-13048877D01*
X-16064564Y-13049550D01*
X-16019382Y-13054000D01*
X-16019375Y-13054000D01*
X-16002001Y-13055711D01*
X-15984626Y-13054000D01*
X-11068630Y-13054000D01*
X-9625000Y-14497632D01*
X-9624999Y-15587619D01*
X-9673330Y-15659950D01*
X-9707553Y-15742573D01*
X-9725000Y-15830285D01*
X-9725000Y-15919715D01*
X-9707553Y-16007427D01*
X-9673330Y-16090050D01*
X-9623645Y-16164408D01*
X-9560408Y-16227645D01*
X-9486050Y-16277330D01*
X-9403427Y-16311553D01*
X-9315715Y-16329000D01*
X-9226285Y-16329000D01*
X-9138573Y-16311553D01*
X-9055950Y-16277330D01*
X-8981592Y-16227645D01*
X-8918355Y-16164408D01*
X-8868670Y-16090050D01*
X-8834447Y-16007427D01*
X-8817000Y-15919715D01*
X-8817000Y-15830285D01*
X-8834447Y-15742573D01*
X-8868670Y-15659950D01*
X-8917000Y-15587620D01*
X-8917000Y-15550885D01*
X-7921600Y-15550885D01*
X-7921600Y-15640315D01*
X-7904153Y-15728027D01*
X-7869930Y-15810650D01*
X-7820245Y-15885008D01*
X-7757008Y-15948245D01*
X-7682650Y-15997930D01*
X-7600027Y-16032153D01*
X-7512315Y-16049600D01*
X-7422885Y-16049600D01*
X-7335173Y-16032153D01*
X-7258513Y-16000400D01*
X-1829930Y-16000400D01*
X1254493Y-19084824D01*
X1265574Y-19098326D01*
X1319477Y-19142564D01*
X1380975Y-19175435D01*
X1427461Y-19189536D01*
X1447703Y-19195677D01*
X1454536Y-19196350D01*
X1499718Y-19200800D01*
X1499725Y-19200800D01*
X1517099Y-19202511D01*
X1534474Y-19200800D01*
X12581026Y-19200800D01*
X12598400Y-19202511D01*
X12615774Y-19200800D01*
X12615782Y-19200800D01*
X12667796Y-19195677D01*
X12734525Y-19175435D01*
X12796023Y-19142564D01*
X12849926Y-19098326D01*
X12861012Y-19084818D01*
X13001105Y-18944725D01*
X13086427Y-18927753D01*
X13169050Y-18893530D01*
X13243408Y-18843845D01*
X13306645Y-18780608D01*
X13356330Y-18706250D01*
X13390553Y-18623627D01*
X13408000Y-18535915D01*
X13408000Y-18446485D01*
X13390553Y-18358773D01*
X13356330Y-18276150D01*
X13306645Y-18201792D01*
X13243408Y-18138555D01*
X13169050Y-18088870D01*
X13086427Y-18054647D01*
X12998715Y-18037200D01*
X12909285Y-18037200D01*
X12879882Y-18043049D01*
X13042931Y-17880000D01*
X13479420Y-17880000D01*
X13551750Y-17928330D01*
X13634373Y-17962553D01*
X13722085Y-17980000D01*
X13811515Y-17980000D01*
X13899227Y-17962553D01*
X13981850Y-17928330D01*
X14056208Y-17878645D01*
X14119445Y-17815408D01*
X14169130Y-17741050D01*
X14203353Y-17658427D01*
X14220800Y-17570715D01*
X14220800Y-17481285D01*
X14203353Y-17393573D01*
X14169130Y-17310950D01*
X14119445Y-17236592D01*
X14056208Y-17173355D01*
X13981850Y-17123670D01*
X13899227Y-17089447D01*
X13811515Y-17072000D01*
X13722085Y-17072000D01*
X13634373Y-17089447D01*
X13602305Y-17102730D01*
X13611341Y-17057305D01*
X13611341Y-16967875D01*
X13593894Y-16880163D01*
X13559671Y-16797540D01*
X13536341Y-16762625D01*
X13536341Y-11841827D01*
X13754831Y-11623338D01*
X13769290Y-11611472D01*
X13816651Y-11553761D01*
X13851844Y-11487920D01*
X13866941Y-11438151D01*
X13873515Y-11416480D01*
X13880833Y-11342183D01*
X13879000Y-11323573D01*
X13879000Y-9451869D01*
X16096000Y-9451869D01*
X16096000Y-9748131D01*
X16153798Y-10038701D01*
X16267173Y-10312411D01*
X16431767Y-10558744D01*
X16641256Y-10768233D01*
X16887589Y-10932827D01*
X17161299Y-11046202D01*
X17451869Y-11104000D01*
X17748131Y-11104000D01*
X18038701Y-11046202D01*
X18312411Y-10932827D01*
X18558744Y-10768233D01*
X18768233Y-10558744D01*
X18932827Y-10312411D01*
X19046202Y-10038701D01*
X19104000Y-9748131D01*
X19104000Y-9451869D01*
X19046202Y-9161299D01*
X18932827Y-8887589D01*
X18768233Y-8641256D01*
X18558744Y-8431767D01*
X18312411Y-8267173D01*
X18038701Y-8153798D01*
X17748131Y-8096000D01*
X17451869Y-8096000D01*
X17161299Y-8153798D01*
X16887589Y-8267173D01*
X16641256Y-8431767D01*
X16431767Y-8641256D01*
X16267173Y-8887589D01*
X16153798Y-9161299D01*
X16096000Y-9451869D01*
X13879000Y-9451869D01*
X13879000Y-9155228D01*
X14000000Y-9155228D01*
X14049793Y-9150324D01*
X14097672Y-9135800D01*
X14141797Y-9112214D01*
X14180473Y-9080473D01*
X14212214Y-9041797D01*
X14235800Y-8997672D01*
X14250324Y-8949793D01*
X14255228Y-8900000D01*
X14255228Y-7900000D01*
X14250324Y-7850207D01*
X14235800Y-7802328D01*
X14212214Y-7758203D01*
X14180473Y-7719527D01*
X14141797Y-7687786D01*
X14097672Y-7664200D01*
X14049793Y-7649676D01*
X14000000Y-7644772D01*
X13000000Y-7644772D01*
X12950207Y-7649676D01*
X12902328Y-7664200D01*
X12858203Y-7687786D01*
X12819527Y-7719527D01*
X12787786Y-7758203D01*
X12764200Y-7802328D01*
X12749676Y-7850207D01*
X12749393Y-7853076D01*
X12710647Y-7814330D01*
X12587153Y-7731814D01*
X12449934Y-7674976D01*
X12304262Y-7646000D01*
X12155738Y-7646000D01*
X12010066Y-7674976D01*
X11872847Y-7731814D01*
X11749353Y-7814330D01*
X11644330Y-7919353D01*
X11595000Y-7993181D01*
X11545670Y-7919353D01*
X11440647Y-7814330D01*
X11317153Y-7731814D01*
X11179934Y-7674976D01*
X11034262Y-7646000D01*
X10885738Y-7646000D01*
X10740066Y-7674976D01*
X10602847Y-7731814D01*
X10479353Y-7814330D01*
X10374330Y-7919353D01*
X10325000Y-7993181D01*
X10275670Y-7919353D01*
X10170647Y-7814330D01*
X10047153Y-7731814D01*
X9909934Y-7674976D01*
X9764262Y-7646000D01*
X9615738Y-7646000D01*
X9470066Y-7674976D01*
X9332847Y-7731814D01*
X9209353Y-7814330D01*
X9104330Y-7919353D01*
X9021814Y-8042847D01*
X8964976Y-8180066D01*
X8936000Y-8325738D01*
X8936000Y-8474262D01*
X8964976Y-8619934D01*
X9021814Y-8757153D01*
X9104330Y-8880647D01*
X9209353Y-8985670D01*
X9273000Y-9028198D01*
X9273001Y-12860512D01*
X8635174Y-13498340D01*
X8620710Y-13510210D01*
X8573349Y-13567922D01*
X8538156Y-13633763D01*
X8533258Y-13649910D01*
X8516485Y-13705203D01*
X8509167Y-13779500D01*
X8511000Y-13798110D01*
X8511001Y-16617977D01*
X8448192Y-16659945D01*
X8384955Y-16723182D01*
X8335270Y-16797540D01*
X8301047Y-16880163D01*
X8283600Y-16967875D01*
X8283600Y-17057305D01*
X8301047Y-17145017D01*
X8335270Y-17227640D01*
X8384955Y-17301998D01*
X8448192Y-17365235D01*
X8522550Y-17414920D01*
X8605173Y-17449143D01*
X8692885Y-17466590D01*
X8782315Y-17466590D01*
X8870027Y-17449143D01*
X8952650Y-17414920D01*
X9027008Y-17365235D01*
X9090245Y-17301998D01*
X9139930Y-17227640D01*
X9174153Y-17145017D01*
X9182987Y-17100604D01*
X9206651Y-17071769D01*
X9241844Y-17005928D01*
X9263515Y-16934487D01*
X9269000Y-16878800D01*
X9269000Y-16878798D01*
X9270833Y-16860191D01*
X9269000Y-16841584D01*
X9269000Y-13936486D01*
X9272523Y-13932964D01*
X9273001Y-13937820D01*
X9273000Y-15373790D01*
X9271167Y-15392400D01*
X9275703Y-15438447D01*
X9278485Y-15466696D01*
X9299600Y-15536304D01*
X9299600Y-15538715D01*
X9317047Y-15626427D01*
X9351270Y-15709050D01*
X9400955Y-15783408D01*
X9464192Y-15846645D01*
X9538550Y-15896330D01*
X9621173Y-15930553D01*
X9708885Y-15948000D01*
X9798315Y-15948000D01*
X9886027Y-15930553D01*
X9968650Y-15896330D01*
X10043008Y-15846645D01*
X10106245Y-15783408D01*
X10155930Y-15709050D01*
X10190153Y-15626427D01*
X10207600Y-15538715D01*
X10207600Y-15449285D01*
X10190153Y-15361573D01*
X10155930Y-15278950D01*
X10106245Y-15204592D01*
X10043008Y-15141355D01*
X10031000Y-15133331D01*
X10031000Y-14076186D01*
X11176833Y-12930354D01*
X11191290Y-12918490D01*
X11238651Y-12860779D01*
X11273844Y-12794938D01*
X11295515Y-12723497D01*
X11301000Y-12667810D01*
X11301000Y-12667808D01*
X11302833Y-12649201D01*
X11301000Y-12630594D01*
X11301000Y-9074877D01*
X11317153Y-9068186D01*
X11440647Y-8985670D01*
X11545670Y-8880647D01*
X11595000Y-8806819D01*
X11644330Y-8880647D01*
X11749353Y-8985670D01*
X11851001Y-9053589D01*
X11851000Y-14243390D01*
X11849167Y-14262000D01*
X11851000Y-14280609D01*
X11856485Y-14336296D01*
X11863801Y-14360414D01*
X11863800Y-15345634D01*
X11840470Y-15380550D01*
X11806247Y-15463173D01*
X11788800Y-15550885D01*
X11788800Y-15640315D01*
X11806247Y-15728027D01*
X11840470Y-15810650D01*
X11890155Y-15885008D01*
X11953392Y-15948245D01*
X12027750Y-15997930D01*
X12110373Y-16032153D01*
X12198085Y-16049600D01*
X12287515Y-16049600D01*
X12375227Y-16032153D01*
X12457850Y-15997930D01*
X12532208Y-15948245D01*
X12595445Y-15885008D01*
X12645130Y-15810650D01*
X12679353Y-15728027D01*
X12696800Y-15640315D01*
X12696800Y-15550885D01*
X12679353Y-15463173D01*
X12645130Y-15380550D01*
X12621800Y-15345635D01*
X12621800Y-14293410D01*
X12623633Y-14274800D01*
X12616315Y-14200503D01*
X12616269Y-14200352D01*
X12609000Y-14176388D01*
X12609000Y-9053588D01*
X12710647Y-8985670D01*
X12749393Y-8946924D01*
X12749676Y-8949793D01*
X12764200Y-8997672D01*
X12787786Y-9041797D01*
X12819527Y-9080473D01*
X12858203Y-9112214D01*
X12902328Y-9135800D01*
X12950207Y-9150324D01*
X13000000Y-9155228D01*
X13121000Y-9155228D01*
X13121001Y-11185194D01*
X12902515Y-11403681D01*
X12888051Y-11415551D01*
X12840690Y-11473263D01*
X12805497Y-11539104D01*
X12796002Y-11570407D01*
X12783826Y-11610544D01*
X12776508Y-11684841D01*
X12778341Y-11703451D01*
X12778342Y-16711129D01*
X12778341Y-16711139D01*
X12778341Y-16762625D01*
X12755011Y-16797540D01*
X12720788Y-16880163D01*
X12703341Y-16967875D01*
X12703341Y-17057305D01*
X12720788Y-17145017D01*
X12745680Y-17205113D01*
X12738753Y-17208815D01*
X12698677Y-17230236D01*
X12644774Y-17274474D01*
X12633693Y-17287976D01*
X11835270Y-18086400D01*
X1823032Y-18086400D01*
X-1413788Y-14849582D01*
X-1424874Y-14836074D01*
X-1478777Y-14791836D01*
X-1540275Y-14758965D01*
X-1607004Y-14738723D01*
X-1659018Y-14733600D01*
X-1659026Y-14733600D01*
X-1676400Y-14731889D01*
X-1693774Y-14733600D01*
X-6215020Y-14733600D01*
X-6287350Y-14685270D01*
X-6369973Y-14651047D01*
X-6457685Y-14633600D01*
X-6547115Y-14633600D01*
X-6634827Y-14651047D01*
X-6717450Y-14685270D01*
X-6791808Y-14734955D01*
X-6855045Y-14798192D01*
X-6904730Y-14872550D01*
X-6938953Y-14955173D01*
X-6956400Y-15042885D01*
X-6956400Y-15132315D01*
X-6938953Y-15220027D01*
X-6908976Y-15292400D01*
X-7128747Y-15292400D01*
X-7178192Y-15242955D01*
X-7252550Y-15193270D01*
X-7335173Y-15159047D01*
X-7422885Y-15141600D01*
X-7512315Y-15141600D01*
X-7600027Y-15159047D01*
X-7682650Y-15193270D01*
X-7757008Y-15242955D01*
X-7820245Y-15306192D01*
X-7869930Y-15380550D01*
X-7904153Y-15463173D01*
X-7921600Y-15550885D01*
X-8917000Y-15550885D01*
X-8917000Y-14368374D01*
X-8915289Y-14351000D01*
X-8917000Y-14333626D01*
X-8917000Y-14333618D01*
X-8922123Y-14281604D01*
X-8942365Y-14214875D01*
X-8975236Y-14153377D01*
X-8988358Y-14137389D01*
X-9008393Y-14112975D01*
X-9008402Y-14112966D01*
X-9019475Y-14099474D01*
X-9032966Y-14088402D01*
X-10659388Y-12461982D01*
X-10670474Y-12448474D01*
X-10724377Y-12404236D01*
X-10785875Y-12371365D01*
X-10852604Y-12351123D01*
X-10904618Y-12346000D01*
X-10904626Y-12346000D01*
X-10922000Y-12344289D01*
X-10939374Y-12346000D01*
X-15855368Y-12346000D01*
X-16818476Y-11382894D01*
X-16835447Y-11297573D01*
X-16869670Y-11214950D01*
X-16918000Y-11142620D01*
X-16918000Y-10357430D01*
X-16010137Y-9449568D01*
X-15994053Y-9530427D01*
X-15959830Y-9613050D01*
X-15911500Y-9685380D01*
X-15911500Y-9726968D01*
X-15913211Y-9744342D01*
X-15911500Y-9761716D01*
X-15911500Y-9761723D01*
X-15908314Y-9794072D01*
X-15906377Y-9813738D01*
X-15905397Y-9816967D01*
X-15886135Y-9880466D01*
X-15853264Y-9941964D01*
X-15809026Y-9995867D01*
X-15795523Y-10006950D01*
X-14959949Y-10842524D01*
X-14948868Y-10856026D01*
X-14894965Y-10900264D01*
X-14833467Y-10933135D01*
X-14786981Y-10947236D01*
X-14766739Y-10953377D01*
X-14759906Y-10954050D01*
X-14714724Y-10958500D01*
X-14714717Y-10958500D01*
X-14699661Y-10959983D01*
X-14629550Y-11006830D01*
X-14546927Y-11041053D01*
X-14459215Y-11058500D01*
X-14369785Y-11058500D01*
X-14282073Y-11041053D01*
X-14199450Y-11006830D01*
X-14125092Y-10957145D01*
X-14061855Y-10893908D01*
X-14012170Y-10819550D01*
X-13977947Y-10736927D01*
X-13960500Y-10649215D01*
X-13960500Y-10559785D01*
X-13977947Y-10472073D01*
X-14012170Y-10389450D01*
X-14029762Y-10363122D01*
X-13298074Y-10363122D01*
X-14196074Y-11261122D01*
X-14242550Y-11261122D01*
X-14314880Y-11212792D01*
X-14397503Y-11178569D01*
X-14485215Y-11161122D01*
X-14574645Y-11161122D01*
X-14662357Y-11178569D01*
X-14744980Y-11212792D01*
X-14819338Y-11262477D01*
X-14882575Y-11325714D01*
X-14932260Y-11400072D01*
X-14966483Y-11482695D01*
X-14983930Y-11570407D01*
X-14983930Y-11659837D01*
X-14966483Y-11747549D01*
X-14932260Y-11830172D01*
X-14882575Y-11904530D01*
X-14819338Y-11967767D01*
X-14744980Y-12017452D01*
X-14662357Y-12051675D01*
X-14574645Y-12069122D01*
X-14485215Y-12069122D01*
X-14397503Y-12051675D01*
X-14314880Y-12017452D01*
X-14242550Y-11969122D01*
X-14066818Y-11969122D01*
X-14049444Y-11970833D01*
X-14032070Y-11969122D01*
X-14032062Y-11969122D01*
X-13980048Y-11963999D01*
X-13913319Y-11943757D01*
X-13851821Y-11910886D01*
X-13797918Y-11866648D01*
X-13786832Y-11853140D01*
X-9202804Y-7269113D01*
X-9117484Y-7252142D01*
X-9034861Y-7217919D01*
X-8960503Y-7168234D01*
X-8897266Y-7104997D01*
X-8847581Y-7030639D01*
X-8813358Y-6948016D01*
X-8795911Y-6860304D01*
X-8795911Y-6817719D01*
X-6740024Y-8873607D01*
X-6723053Y-8958927D01*
X-6688830Y-9041550D01*
X-6639145Y-9115908D01*
X-6575908Y-9179145D01*
X-6501550Y-9228830D01*
X-6418927Y-9263053D01*
X-6331215Y-9280500D01*
X-6241785Y-9280500D01*
X-6154073Y-9263053D01*
X-6071450Y-9228830D01*
X-5997092Y-9179145D01*
X-5933855Y-9115908D01*
X-5884170Y-9041550D01*
X-5849947Y-8958927D01*
X-5832500Y-8871215D01*
X-5832500Y-8781785D01*
X-5849947Y-8694073D01*
X-5884170Y-8611450D01*
X-5933855Y-8537092D01*
X-5997092Y-8473855D01*
X-6071450Y-8424170D01*
X-6154073Y-8389947D01*
X-6239393Y-8372976D01*
X-8601988Y-6010382D01*
X-8613074Y-5996874D01*
X-8666977Y-5952636D01*
X-8728475Y-5919765D01*
X-8795204Y-5899523D01*
X-8847218Y-5894400D01*
X-8847226Y-5894400D01*
X-8864600Y-5892689D01*
X-8881974Y-5894400D01*
X-9515416Y-5894400D01*
X-9489592Y-5877145D01*
X-9426355Y-5813908D01*
X-9376670Y-5739550D01*
X-9342447Y-5656927D01*
X-9325000Y-5569215D01*
X-9325000Y-5479785D01*
X-9342447Y-5392073D01*
X-9376670Y-5309450D01*
X-9426355Y-5235092D01*
X-9489592Y-5171855D01*
X-9563950Y-5122170D01*
X-9646573Y-5087947D01*
X-9734285Y-5070500D01*
X-9823715Y-5070500D01*
X-9911427Y-5087947D01*
X-9994050Y-5122170D01*
X-10068408Y-5171855D01*
X-10131645Y-5235092D01*
X-10181330Y-5309450D01*
X-10215553Y-5392073D01*
X-10233000Y-5479785D01*
X-10233000Y-5569215D01*
X-10215553Y-5656927D01*
X-10181330Y-5739550D01*
X-10131645Y-5813908D01*
X-10068408Y-5877145D01*
X-10042584Y-5894400D01*
X-11764383Y-5894400D01*
X-11755447Y-5872827D01*
X-11738476Y-5787507D01*
X-11729395Y-5778426D01*
X-11729391Y-5778421D01*
X-11128476Y-5177507D01*
X-11114974Y-5166426D01*
X-11070736Y-5112523D01*
X-11037865Y-5051025D01*
X-11019721Y-4991212D01*
X-11017623Y-4984297D01*
X-11015664Y-4964409D01*
X-11012500Y-4932282D01*
X-11012500Y-4932275D01*
X-11010789Y-4914900D01*
X-11012500Y-4897526D01*
X-11012500Y1824126D01*
X-11010789Y1841501D01*
X-11012500Y1858875D01*
X-11012500Y1858882D01*
X-11017623Y1910896D01*
X-11037865Y1977625D01*
X-11070736Y2039123D01*
X-11086849Y2058756D01*
X-11103894Y2079525D01*
X-11103897Y2079528D01*
X-11114975Y2093026D01*
X-11128472Y2104103D01*
X-11611476Y2587106D01*
X-11628447Y2672427D01*
X-11662670Y2755050D01*
X-11712355Y2829408D01*
X-11775592Y2892645D01*
X-11849950Y2942330D01*
X-11932573Y2976553D01*
X-12020285Y2994000D01*
X-12109715Y2994000D01*
X-12197427Y2976553D01*
X-12280050Y2942330D01*
X-12354408Y2892645D01*
X-12417645Y2829408D01*
X-12446000Y2786972D01*
X-12474355Y2829408D01*
X-12537592Y2892645D01*
X-12611950Y2942330D01*
X-12694573Y2976553D01*
X-12782285Y2994000D01*
X-12871715Y2994000D01*
X-12959427Y2976553D01*
X-13042050Y2942330D01*
X-13116408Y2892645D01*
X-13179645Y2829408D01*
X-13229330Y2755050D01*
X-13263553Y2672427D01*
X-13281000Y2584715D01*
X-13281000Y2495285D01*
X-13263553Y2407573D01*
X-13229330Y2324950D01*
X-13179645Y2250592D01*
X-13116408Y2187355D01*
X-13042050Y2137670D01*
X-12959427Y2103447D01*
X-12874106Y2086476D01*
X-12220510Y1432879D01*
X-12220509Y-3700267D01*
X-12220510Y-3700277D01*
X-12220510Y-3713120D01*
X-12268840Y-3785450D01*
X-12303063Y-3868073D01*
X-12320510Y-3955785D01*
X-12320510Y-4045215D01*
X-12303063Y-4132927D01*
X-12268840Y-4215550D01*
X-12219155Y-4289908D01*
X-12155918Y-4353145D01*
X-12081560Y-4402830D01*
X-11998937Y-4437053D01*
X-11911225Y-4454500D01*
X-11821795Y-4454500D01*
X-11734083Y-4437053D01*
X-11720499Y-4431426D01*
X-11720499Y-4768268D01*
X-12230021Y-5277791D01*
X-12230026Y-5277795D01*
X-12239107Y-5286876D01*
X-12324427Y-5303847D01*
X-12407050Y-5338070D01*
X-12481408Y-5387755D01*
X-12544645Y-5450992D01*
X-12594330Y-5525350D01*
X-12628553Y-5607973D01*
X-12646000Y-5695685D01*
X-12646000Y-5785115D01*
X-12628553Y-5872827D01*
X-12619617Y-5894400D01*
X-14695904Y-5894400D01*
X-14676447Y-5847427D01*
X-14659000Y-5759715D01*
X-14659000Y-5670285D01*
X-14676447Y-5582573D01*
X-14710670Y-5499950D01*
X-14757517Y-5429839D01*
X-14759000Y-5414785D01*
X-14759000Y-5414776D01*
X-14764123Y-5362762D01*
X-14784365Y-5296033D01*
X-14817236Y-5234535D01*
X-14832502Y-5215934D01*
X-14850394Y-5194132D01*
X-14850397Y-5194129D01*
X-14861474Y-5180632D01*
X-14874971Y-5169555D01*
X-15711500Y-4333028D01*
X-15711500Y-2496130D01*
X-15601124Y-2385754D01*
X-15551604Y-2380877D01*
X-15484875Y-2360635D01*
X-15423377Y-2327764D01*
X-15369474Y-2283526D01*
X-15358388Y-2270018D01*
X-14430466Y-1342098D01*
X-14416975Y-1331026D01*
X-14405902Y-1317534D01*
X-14405894Y-1317526D01*
X-14372737Y-1277124D01*
X-14372736Y-1277123D01*
X-14339865Y-1215625D01*
X-14319623Y-1148896D01*
X-14314500Y-1096882D01*
X-14314500Y-1096873D01*
X-14312789Y-1079501D01*
X-14314500Y-1062129D01*
X-14314500Y51126D01*
X-14312789Y68500D01*
X-14314500Y85875D01*
X-14314500Y85882D01*
X-14319623Y137896D01*
X-14326927Y161976D01*
X-14339865Y204625D01*
X-14372736Y266123D01*
X-14416974Y320026D01*
X-14430477Y331108D01*
X-14460953Y361584D01*
X-14452328Y364200D01*
X-14408203Y387786D01*
X-14369527Y419527D01*
X-14337786Y458203D01*
X-14314200Y502328D01*
X-14299676Y550207D01*
X-14294772Y600000D01*
X-14294772Y2600000D01*
X-14299676Y2649793D01*
X-14314200Y2697672D01*
X-14337786Y2741797D01*
X-14369527Y2780473D01*
X-14408203Y2812214D01*
X-14452328Y2835800D01*
X-14500207Y2850324D01*
X-14550000Y2855228D01*
X-15234143Y2855228D01*
X-14508377Y3580993D01*
X-14439050Y3534670D01*
X-14356427Y3500447D01*
X-14268715Y3483000D01*
X-14179285Y3483000D01*
X-14091573Y3500447D01*
X-14008950Y3534670D01*
X-13934592Y3584355D01*
X-13871355Y3647592D01*
X-13821670Y3721950D01*
X-13787447Y3804573D01*
X-13770000Y3892285D01*
X-13770000Y3981715D01*
X-10614000Y3981715D01*
X-10614000Y3892285D01*
X-10596553Y3804573D01*
X-10562330Y3721950D01*
X-10512645Y3647592D01*
X-10449408Y3584355D01*
X-10375050Y3534670D01*
X-10292427Y3500447D01*
X-10207106Y3483476D01*
X-8989999Y2266367D01*
X-8990000Y-4348120D01*
X-9038330Y-4420450D01*
X-9072553Y-4503073D01*
X-9090000Y-4590785D01*
X-9090000Y-4680215D01*
X-9072553Y-4767927D01*
X-9038330Y-4850550D01*
X-8988645Y-4924908D01*
X-8925408Y-4988145D01*
X-8851050Y-5037830D01*
X-8768427Y-5072053D01*
X-8680715Y-5089500D01*
X-8591285Y-5089500D01*
X-8503573Y-5072053D01*
X-8420950Y-5037830D01*
X-8346592Y-4988145D01*
X-8283355Y-4924908D01*
X-8233670Y-4850550D01*
X-8199447Y-4767927D01*
X-8182000Y-4680215D01*
X-8182000Y-4590785D01*
X-8199447Y-4503073D01*
X-8233670Y-4420450D01*
X-8282000Y-4348120D01*
X-8282000Y2395629D01*
X-8280289Y2413001D01*
X-8282000Y2430373D01*
X-8282000Y2430382D01*
X-8287123Y2482396D01*
X-8307365Y2549125D01*
X-8340236Y2610623D01*
X-8347884Y2619942D01*
X-8373394Y2651026D01*
X-8373397Y2651029D01*
X-8384474Y2664526D01*
X-8397971Y2675603D01*
X-9706476Y3984106D01*
X-9723447Y4069427D01*
X-9757670Y4152050D01*
X-9807355Y4226408D01*
X-9870592Y4289645D01*
X-9944950Y4339330D01*
X-10027573Y4373553D01*
X-10115285Y4391000D01*
X-10204715Y4391000D01*
X-10292427Y4373553D01*
X-10375050Y4339330D01*
X-10449408Y4289645D01*
X-10512645Y4226408D01*
X-10562330Y4152050D01*
X-10596553Y4069427D01*
X-10614000Y3981715D01*
X-13770000Y3981715D01*
X-13787447Y4069427D01*
X-13821670Y4152050D01*
X-13871355Y4226408D01*
X-13934592Y4289645D01*
X-13997000Y4331345D01*
X-13997000Y5046620D01*
X-13948670Y5118950D01*
X-13946283Y5124715D01*
X-13789000Y5124715D01*
X-13789000Y5035285D01*
X-13771553Y4947573D01*
X-13737330Y4864950D01*
X-13687645Y4790592D01*
X-13624408Y4727355D01*
X-13550050Y4677670D01*
X-13467427Y4643447D01*
X-13379715Y4626000D01*
X-13290285Y4626000D01*
X-13202573Y4643447D01*
X-13119950Y4677670D01*
X-13047620Y4726000D01*
X-12254003Y4726000D01*
X-12247553Y4693573D01*
X-12213330Y4610950D01*
X-12163645Y4536592D01*
X-12100408Y4473355D01*
X-12026050Y4423670D01*
X-11943427Y4389447D01*
X-11855715Y4372000D01*
X-11766285Y4372000D01*
X-11678573Y4389447D01*
X-11595950Y4423670D01*
X-11521592Y4473355D01*
X-11458355Y4536592D01*
X-11408670Y4610950D01*
X-11374447Y4693573D01*
X-11357000Y4781285D01*
X-11357000Y4870715D01*
X-11374447Y4958427D01*
X-11408670Y5041050D01*
X-11458355Y5115408D01*
X-11521592Y5178645D01*
X-11595950Y5228330D01*
X-11678573Y5262553D01*
X-11763894Y5279524D01*
X-11802389Y5318019D01*
X-11813474Y5331526D01*
X-11867377Y5375764D01*
X-11928875Y5408635D01*
X-11995604Y5428877D01*
X-12047618Y5434000D01*
X-12047626Y5434000D01*
X-12065000Y5435711D01*
X-12082374Y5434000D01*
X-13047620Y5434000D01*
X-13119950Y5482330D01*
X-13202573Y5516553D01*
X-13290285Y5534000D01*
X-13379715Y5534000D01*
X-13467427Y5516553D01*
X-13550050Y5482330D01*
X-13624408Y5432645D01*
X-13687645Y5369408D01*
X-13737330Y5295050D01*
X-13771553Y5212427D01*
X-13789000Y5124715D01*
X-13946283Y5124715D01*
X-13914447Y5201573D01*
X-13897000Y5289285D01*
X-13897000Y5378715D01*
X-13914447Y5466427D01*
X-13948670Y5549050D01*
X-13998355Y5623408D01*
X-14061592Y5686645D01*
X-14135950Y5736330D01*
X-14218573Y5770553D01*
X-14306285Y5788000D01*
X-14395715Y5788000D01*
X-14483427Y5770553D01*
X-14566050Y5736330D01*
X-14640408Y5686645D01*
X-14703645Y5623408D01*
X-14753330Y5549050D01*
X-14787553Y5466427D01*
X-14805000Y5378715D01*
X-14805000Y5289285D01*
X-14787553Y5201573D01*
X-14753330Y5118950D01*
X-14705000Y5046620D01*
X-14704999Y4287591D01*
X-14722398Y4285877D01*
X-14789127Y4265635D01*
X-14850625Y4232764D01*
X-14873356Y4214109D01*
X-14891027Y4199607D01*
X-14891031Y4199603D01*
X-14904528Y4188526D01*
X-14915605Y4175029D01*
X-17526000Y1564632D01*
X-17526000Y6554292D01*
X-17338742Y7014413D01*
X-8304000Y7014413D01*
X-8304000Y6885587D01*
X-8278867Y6759235D01*
X-8229567Y6640215D01*
X-8157995Y6533100D01*
X-8066900Y6442005D01*
X-7959785Y6370433D01*
X-7840765Y6321133D01*
X-7829017Y6318796D01*
X-7829018Y3685913D01*
X-7858013Y3656918D01*
X-7929585Y3549803D01*
X-7978885Y3430783D01*
X-8004018Y3304431D01*
X-8004018Y3175605D01*
X-7978885Y3049253D01*
X-7929585Y2930233D01*
X-7858013Y2823118D01*
X-7766918Y2732023D01*
X-7659803Y2660451D01*
X-7540783Y2611151D01*
X-7418401Y2586808D01*
X-7540147Y2268492D01*
X-7790090Y1146464D01*
X-7874000Y0D01*
X-7790090Y-1146464D01*
X-7540147Y-2268492D01*
X-7129499Y-3342172D01*
X-6566899Y-4344619D01*
X-5864336Y-5254468D01*
X-5036785Y-6052328D01*
X-4101884Y-6721192D01*
X-3079559Y-7246806D01*
X-1991597Y-7617967D01*
X-861189Y-7826764D01*
X287574Y-7868747D01*
X1430209Y-7743021D01*
X2542360Y-7452267D01*
X3600326Y-7002680D01*
X4581557Y-6403843D01*
X4812013Y-6212056D01*
X964070Y-10060000D01*
X-5656220Y-10060000D01*
X-5728550Y-10011670D01*
X-5811173Y-9977447D01*
X-5898885Y-9960000D01*
X-5988315Y-9960000D01*
X-6076027Y-9977447D01*
X-6158650Y-10011670D01*
X-6233008Y-10061355D01*
X-6296245Y-10124592D01*
X-6345930Y-10198950D01*
X-6380153Y-10281573D01*
X-6397600Y-10369285D01*
X-6397600Y-10458715D01*
X-6395714Y-10468199D01*
X-6482427Y-10485447D01*
X-6565050Y-10519670D01*
X-6639408Y-10569355D01*
X-6702645Y-10632592D01*
X-6752330Y-10706950D01*
X-6786553Y-10789573D01*
X-6804000Y-10877285D01*
X-6804000Y-10966715D01*
X-6786553Y-11054427D01*
X-6752330Y-11137050D01*
X-6702645Y-11211408D01*
X-6639408Y-11274645D01*
X-6565050Y-11324330D01*
X-6482427Y-11358553D01*
X-6394715Y-11376000D01*
X-6305285Y-11376000D01*
X-6217573Y-11358553D01*
X-6134950Y-11324330D01*
X-6062620Y-11276000D01*
X1151026Y-11276000D01*
X1168400Y-11277711D01*
X1185774Y-11276000D01*
X1185782Y-11276000D01*
X1237796Y-11270877D01*
X1304525Y-11250635D01*
X1366023Y-11217764D01*
X1419926Y-11173526D01*
X1431012Y-11160018D01*
X3139161Y-9451869D01*
X4096000Y-9451869D01*
X4096000Y-9748131D01*
X4153798Y-10038701D01*
X4267173Y-10312411D01*
X4431767Y-10558744D01*
X4641256Y-10768233D01*
X4887589Y-10932827D01*
X5161299Y-11046202D01*
X5451869Y-11104000D01*
X5748131Y-11104000D01*
X6038701Y-11046202D01*
X6312411Y-10932827D01*
X6558744Y-10768233D01*
X6768233Y-10558744D01*
X6932827Y-10312411D01*
X7046202Y-10038701D01*
X7104000Y-9748131D01*
X7104000Y-9451869D01*
X7046202Y-9161299D01*
X6932827Y-8887589D01*
X6768233Y-8641256D01*
X6558744Y-8431767D01*
X6312411Y-8267173D01*
X6038701Y-8153798D01*
X5748131Y-8096000D01*
X5451869Y-8096000D01*
X5161299Y-8153798D01*
X4887589Y-8267173D01*
X4641256Y-8431767D01*
X4431767Y-8641256D01*
X4267173Y-8887589D01*
X4153798Y-9161299D01*
X4096000Y-9451869D01*
X3139161Y-9451869D01*
X6198220Y-6392811D01*
X11317415Y-6392811D01*
X11334789Y-6394522D01*
X11352163Y-6392811D01*
X11352171Y-6392811D01*
X11404185Y-6387688D01*
X11470914Y-6367446D01*
X11532412Y-6334575D01*
X11586315Y-6290337D01*
X11597401Y-6276829D01*
X15019003Y-2855228D01*
X15450000Y-2855228D01*
X15499793Y-2850324D01*
X15547672Y-2835800D01*
X15591797Y-2812214D01*
X15630473Y-2780473D01*
X15662214Y-2741797D01*
X15685800Y-2697672D01*
X15700324Y-2649793D01*
X15705228Y-2600000D01*
X15705228Y-600000D01*
X15700324Y-550207D01*
X15685800Y-502328D01*
X15662214Y-458203D01*
X15630473Y-419527D01*
X15591797Y-387786D01*
X15547672Y-364200D01*
X15499793Y-349676D01*
X15450000Y-344772D01*
X14765856Y-344772D01*
X16294772Y1184142D01*
X16294772Y600000D01*
X16299676Y550207D01*
X16314200Y502328D01*
X16337786Y458203D01*
X16369527Y419527D01*
X16408203Y387786D01*
X16452328Y364200D01*
X16500207Y349676D01*
X16550000Y344772D01*
X17450000Y344772D01*
X17499793Y349676D01*
X17547672Y364200D01*
X17591797Y387786D01*
X17630473Y419527D01*
X17662214Y458203D01*
X17685800Y502328D01*
X17700324Y550207D01*
X17705228Y600000D01*
X17705228Y2600000D01*
X17700324Y2649793D01*
X17685800Y2697672D01*
X17662214Y2741797D01*
X17630473Y2780473D01*
X17591797Y2812214D01*
X17547672Y2835800D01*
X17499793Y2850324D01*
X17450000Y2855228D01*
X16550000Y2855228D01*
X16500207Y2850324D01*
X16452328Y2835800D01*
X16408203Y2812214D01*
X16369527Y2780473D01*
X16337786Y2741797D01*
X16314200Y2697672D01*
X16299676Y2649793D01*
X16294772Y2600000D01*
X16294772Y1954000D01*
X16227369Y1954000D01*
X16209997Y1955711D01*
X16192625Y1954000D01*
X16192616Y1954000D01*
X16140602Y1948877D01*
X16073873Y1928635D01*
X16012375Y1895764D01*
X16012373Y1895763D01*
X16012374Y1895763D01*
X15971972Y1862606D01*
X15971969Y1862603D01*
X15958472Y1851526D01*
X15947395Y1838029D01*
X13833577Y-275791D01*
X13820075Y-286872D01*
X13775837Y-340775D01*
X13742966Y-402273D01*
X13722723Y-469002D01*
X13715889Y-538398D01*
X13717601Y-555782D01*
X13717600Y-2444169D01*
X10978570Y-5183200D01*
X6004874Y-5183200D01*
X5987500Y-5181489D01*
X5970126Y-5183200D01*
X5970118Y-5183200D01*
X5918104Y-5188323D01*
X5886924Y-5197781D01*
X6232243Y-4812382D01*
X6866517Y-3853676D01*
X7354443Y-2812836D01*
X7685621Y-1712045D01*
X7852994Y-574765D01*
X7852994Y574765D01*
X7685621Y1712045D01*
X7418476Y2600000D01*
X12294772Y2600000D01*
X12294772Y600000D01*
X12299676Y550207D01*
X12314200Y502328D01*
X12337786Y458203D01*
X12369527Y419527D01*
X12408203Y387786D01*
X12452328Y364200D01*
X12500207Y349676D01*
X12550000Y344772D01*
X13450000Y344772D01*
X13499793Y349676D01*
X13547672Y364200D01*
X13591797Y387786D01*
X13630473Y419527D01*
X13662214Y458203D01*
X13685800Y502328D01*
X13700324Y550207D01*
X13705228Y600000D01*
X13705228Y2600000D01*
X13700324Y2649793D01*
X13685800Y2697672D01*
X13662214Y2741797D01*
X13630473Y2780473D01*
X13591797Y2812214D01*
X13547672Y2835800D01*
X13499793Y2850324D01*
X13479000Y2852372D01*
X13479000Y4746874D01*
X13481317Y4770400D01*
X13472069Y4864300D01*
X13444679Y4954592D01*
X13400200Y5037805D01*
X13340343Y5110743D01*
X13267405Y5170600D01*
X13184192Y5215079D01*
X13093900Y5242469D01*
X13023526Y5249400D01*
X13000000Y5251717D01*
X12976474Y5249400D01*
X12906100Y5242469D01*
X12815808Y5215079D01*
X12732595Y5170600D01*
X12659657Y5110743D01*
X12599800Y5037805D01*
X12555321Y4954592D01*
X12527931Y4864300D01*
X12518683Y4770400D01*
X12521000Y4746874D01*
X12521000Y2852372D01*
X12500207Y2850324D01*
X12452328Y2835800D01*
X12408203Y2812214D01*
X12369527Y2780473D01*
X12337786Y2741797D01*
X12314200Y2697672D01*
X12299676Y2649793D01*
X12294772Y2600000D01*
X7418476Y2600000D01*
X7354443Y2812836D01*
X6866517Y3853676D01*
X6232243Y4812382D01*
X5465140Y5668520D01*
X4581557Y6403843D01*
X3600326Y7002680D01*
X2542360Y7452267D01*
X1430209Y7743021D01*
X287574Y7868747D01*
X10687Y7858628D01*
X14000Y7875285D01*
X14000Y7964715D01*
X-3447Y8052427D01*
X-37670Y8135050D01*
X-87355Y8209408D01*
X-150592Y8272645D01*
X-224950Y8322330D01*
X-307573Y8356553D01*
X-395285Y8374000D01*
X-484715Y8374000D01*
X-572427Y8356553D01*
X-655050Y8322330D01*
X-729408Y8272645D01*
X-792645Y8209408D01*
X-842330Y8135050D01*
X-876553Y8052427D01*
X-894000Y7964715D01*
X-894000Y7875285D01*
X-883528Y7822638D01*
X-1991597Y7617967D01*
X-3079559Y7246806D01*
X-4101884Y6721192D01*
X-5036785Y6052328D01*
X-5864336Y5254468D01*
X-6566899Y4344619D01*
X-6871018Y3802736D01*
X-6871018Y6626495D01*
X-6868701Y6650018D01*
X-6871018Y6673544D01*
X-6877949Y6743918D01*
X-6905339Y6834210D01*
X-6949818Y6917424D01*
X-6976553Y6950000D01*
X-6996000Y6973697D01*
X-6996000Y7014413D01*
X-7021133Y7140765D01*
X-7070433Y7259785D01*
X-7142005Y7366900D01*
X-7233100Y7457995D01*
X-7340215Y7529567D01*
X-7459235Y7578867D01*
X-7585587Y7604000D01*
X-7714413Y7604000D01*
X-7840765Y7578867D01*
X-7959785Y7529567D01*
X-8066900Y7457995D01*
X-8157995Y7366900D01*
X-8229567Y7259785D01*
X-8278867Y7140765D01*
X-8304000Y7014413D01*
X-17338742Y7014413D01*
X-15791111Y10817163D01*
X-10286099Y15321264D01*
X-7066604Y16510000D01*
X4826000Y16510000D01*
X4826000Y11176000D01*
X4830881Y11126447D01*
X4845335Y11078798D01*
X4868807Y11034885D01*
X4900395Y10996395D01*
X4938885Y10964807D01*
X4982798Y10941335D01*
X5030447Y10926881D01*
X5080000Y10922000D01*
X9144000Y10922000D01*
X9193553Y10926881D01*
X9241202Y10941335D01*
X9285115Y10964807D01*
X9323605Y10996395D01*
X9355193Y11034885D01*
X9378665Y11078798D01*
X9393119Y11126447D01*
X9398000Y11176000D01*
X9398000Y22765260D01*
X9994577Y22528510D01*
G37*
X9994577Y22528510D02*
X11752876Y21663223D01*
X13436870Y20660974D01*
X15035912Y19528099D01*
X16539892Y18271762D01*
X17939301Y16899905D01*
X19225292Y15421201D01*
X20389735Y13845000D01*
X21425267Y12181266D01*
X22325342Y10440517D01*
X23084269Y8633761D01*
X23697250Y6772419D01*
X24160409Y4868260D01*
X24470818Y2933322D01*
X24626515Y979839D01*
X24626515Y-979839D01*
X24470818Y-2933322D01*
X24160409Y-4868260D01*
X23697250Y-6772419D01*
X23084269Y-8633761D01*
X22325342Y-10440517D01*
X21425267Y-12181266D01*
X20389735Y-13845000D01*
X19225292Y-15421201D01*
X17939301Y-16899905D01*
X16539892Y-18271762D01*
X15035912Y-19528099D01*
X13436870Y-20660974D01*
X11752876Y-21663223D01*
X9994577Y-22528510D01*
X8173089Y-23251364D01*
X6299928Y-23827216D01*
X4386936Y-24252425D01*
X2446209Y-24524302D01*
X490016Y-24641128D01*
X-1469274Y-24602166D01*
X-3419276Y-24407660D01*
X-5347660Y-24058841D01*
X-7242234Y-23557915D01*
X-9091020Y-22908048D01*
X-10882330Y-22113349D01*
X-12604839Y-21178842D01*
X-14247655Y-20110436D01*
X-15800394Y-18914885D01*
X-17253237Y-17599748D01*
X-18597000Y-16173340D01*
X-18938178Y-15748000D01*
X-13398500Y-15748000D01*
X-13398500Y-20447000D01*
X-13396060Y-20471776D01*
X-13388833Y-20495601D01*
X-13377097Y-20517557D01*
X-13361303Y-20536803D01*
X-13342057Y-20552597D01*
X-13320101Y-20564333D01*
X-13296276Y-20571560D01*
X-13271500Y-20574000D01*
X-12509500Y-20574000D01*
X-12509500Y-21018500D01*
X-12507060Y-21043276D01*
X-12499833Y-21067101D01*
X-12488097Y-21089057D01*
X-12472303Y-21108303D01*
X-12453057Y-21124097D01*
X-12431101Y-21135833D01*
X-12407276Y-21143060D01*
X-12382500Y-21145500D01*
X-8128000Y-21145500D01*
X-8103224Y-21143060D01*
X-8079399Y-21135833D01*
X-8057443Y-21124097D01*
X-8038197Y-21108303D01*
X-8022403Y-21089057D01*
X-8010667Y-21067101D01*
X-8003440Y-21043276D01*
X-8001000Y-21018500D01*
X-8001000Y-19851869D01*
X-1504000Y-19851869D01*
X-1504000Y-20148131D01*
X-1446202Y-20438701D01*
X-1332827Y-20712411D01*
X-1168233Y-20958744D01*
X-958744Y-21168233D01*
X-712411Y-21332827D01*
X-438701Y-21446202D01*
X-148131Y-21504000D01*
X148131Y-21504000D01*
X438701Y-21446202D01*
X712411Y-21332827D01*
X958744Y-21168233D01*
X1168233Y-20958744D01*
X1332827Y-20712411D01*
X1446202Y-20438701D01*
X1504000Y-20148131D01*
X1504000Y-19851869D01*
X1446202Y-19561299D01*
X1332827Y-19287589D01*
X1168233Y-19041256D01*
X958744Y-18831767D01*
X712411Y-18667173D01*
X438701Y-18553798D01*
X148131Y-18496000D01*
X-148131Y-18496000D01*
X-438701Y-18553798D01*
X-712411Y-18667173D01*
X-958744Y-18831767D01*
X-1168233Y-19041256D01*
X-1332827Y-19287589D01*
X-1446202Y-19561299D01*
X-1504000Y-19851869D01*
X-8001000Y-19851869D01*
X-8001000Y-18732500D01*
X-8003440Y-18707724D01*
X-8010667Y-18683899D01*
X-8022403Y-18661943D01*
X-8038197Y-18642697D01*
X-8057443Y-18626903D01*
X-8079399Y-18615167D01*
X-8103224Y-18607940D01*
X-8128000Y-18605500D01*
X-12128500Y-18605500D01*
X-12128500Y-15748000D01*
X-12130940Y-15723224D01*
X-12138167Y-15699399D01*
X-12149903Y-15677443D01*
X-12165697Y-15658197D01*
X-12184943Y-15642403D01*
X-12206899Y-15630667D01*
X-12230724Y-15623440D01*
X-12255500Y-15621000D01*
X-13271500Y-15621000D01*
X-13296276Y-15623440D01*
X-13320101Y-15630667D01*
X-13342057Y-15642403D01*
X-13361303Y-15658197D01*
X-13377097Y-15677443D01*
X-13388833Y-15699399D01*
X-13396060Y-15723224D01*
X-13398500Y-15748000D01*
X-18938178Y-15748000D01*
X-19823186Y-14644679D01*
X-20924044Y-13023429D01*
X-21892613Y-11319841D01*
X-22722770Y-9544685D01*
X-23409267Y-7709185D01*
X-23947763Y-5824945D01*
X-24334853Y-3903878D01*
X-24568090Y-1958129D01*
X-24646000Y0D01*
X-24600523Y1143000D01*
X-22452317Y1143000D01*
X-22450000Y1119477D01*
X-22450000Y865475D01*
X-22449999Y865465D01*
X-22450000Y-150525D01*
X-22443069Y-220899D01*
X-22415679Y-311191D01*
X-22371200Y-394405D01*
X-22311343Y-467343D01*
X-22238405Y-527200D01*
X-22155192Y-571679D01*
X-22064900Y-599069D01*
X-21971000Y-608317D01*
X-21877101Y-599069D01*
X-21786809Y-571679D01*
X-21703595Y-527200D01*
X-21630657Y-467343D01*
X-21570800Y-394405D01*
X-21526321Y-311192D01*
X-21498931Y-220900D01*
X-21492000Y-150526D01*
X-21492000Y822540D01*
X-21437258Y827931D01*
X-21346966Y855321D01*
X-21263753Y899800D01*
X-21190815Y959657D01*
X-21175811Y977940D01*
X-20896934Y1256816D01*
X-20878656Y1271816D01*
X-20834556Y1325553D01*
X-20818799Y1344752D01*
X-20774321Y1427966D01*
X-20774320Y1427967D01*
X-20746930Y1518259D01*
X-20739999Y1588633D01*
X-20739999Y1588637D01*
X-20737682Y1612158D01*
X-20739999Y1635679D01*
X-20739999Y3578986D01*
X-20736931Y3589100D01*
X-20730000Y3659474D01*
X-20730000Y3659477D01*
X-20727683Y3683000D01*
X-20730000Y3706523D01*
X-20730000Y4468526D01*
X-20736931Y4538900D01*
X-20764321Y4629192D01*
X-20808800Y4712405D01*
X-20868657Y4785343D01*
X-20941595Y4845200D01*
X-21024808Y4889679D01*
X-21115100Y4917069D01*
X-21209000Y4926317D01*
X-21302899Y4917069D01*
X-21393191Y4889679D01*
X-21476404Y4845200D01*
X-21549342Y4785343D01*
X-21609199Y4712405D01*
X-21653678Y4629192D01*
X-21681068Y4538900D01*
X-21687999Y4468526D01*
X-21688000Y3777012D01*
X-21691067Y3766901D01*
X-21700316Y3673001D01*
X-21697998Y3649468D01*
X-21697999Y1810567D01*
X-21729565Y1779000D01*
X-21790469Y1779000D01*
X-21814000Y1781318D01*
X-21860222Y1776765D01*
X-21907900Y1772069D01*
X-21998192Y1744679D01*
X-22081405Y1700200D01*
X-22154343Y1640343D01*
X-22169347Y1622060D01*
X-22293064Y1498343D01*
X-22311342Y1483343D01*
X-22327319Y1463874D01*
X-22371200Y1410405D01*
X-22392627Y1370317D01*
X-22415679Y1327192D01*
X-22443069Y1236900D01*
X-22449897Y1167573D01*
X-22452317Y1143000D01*
X-24600523Y1143000D01*
X-24568090Y1958129D01*
X-24334853Y3903878D01*
X-23947763Y5824945D01*
X-23409267Y7709185D01*
X-22722770Y9544685D01*
X-21892613Y11319841D01*
X-20924044Y13023429D01*
X-20364583Y13847355D01*
X-20319999Y-508789D01*
X-20315119Y-557553D01*
X-20300665Y-605202D01*
X-20277193Y-649115D01*
X-20245605Y-687605D01*
X-20207115Y-719193D01*
X-20163202Y-742665D01*
X-20115553Y-757119D01*
X-20066000Y-762000D01*
X-18197499Y-762000D01*
X-18197500Y-2840126D01*
X-18199211Y-2857500D01*
X-18197500Y-2874874D01*
X-18197500Y-2874881D01*
X-18196349Y-2886564D01*
X-18192377Y-2926896D01*
X-18189319Y-2936975D01*
X-18172135Y-2993624D01*
X-18139264Y-3055122D01*
X-18095026Y-3109025D01*
X-18081523Y-3120107D01*
X-17926668Y-3274963D01*
X-17928330Y-3277450D01*
X-17962553Y-3360073D01*
X-17980000Y-3447785D01*
X-17980000Y-3537215D01*
X-17962553Y-3624927D01*
X-17928330Y-3707550D01*
X-17878645Y-3781908D01*
X-17815408Y-3845145D01*
X-17741050Y-3894830D01*
X-17658427Y-3929053D01*
X-17570715Y-3946500D01*
X-17481285Y-3946500D01*
X-17393573Y-3929053D01*
X-17353999Y-3912661D01*
X-17353999Y-4234895D01*
X-17355711Y-4252279D01*
X-17348877Y-4321675D01*
X-17328634Y-4388404D01*
X-17295763Y-4449902D01*
X-17251525Y-4503805D01*
X-17238023Y-4514886D01*
X-16289869Y-5463042D01*
X-16272898Y-5548361D01*
X-16238675Y-5630984D01*
X-16188990Y-5705342D01*
X-16125753Y-5768579D01*
X-16051395Y-5818264D01*
X-15968772Y-5852487D01*
X-15881060Y-5869934D01*
X-15791630Y-5869934D01*
X-15703918Y-5852487D01*
X-15621295Y-5818264D01*
X-15563090Y-5779372D01*
X-15549553Y-5847427D01*
X-15530096Y-5894400D01*
X-17339547Y-5894400D01*
X-17363592Y-5870355D01*
X-17437950Y-5820670D01*
X-17520573Y-5786447D01*
X-17608285Y-5769000D01*
X-17697715Y-5769000D01*
X-17785427Y-5786447D01*
X-17868050Y-5820670D01*
X-17942408Y-5870355D01*
X-18005645Y-5933592D01*
X-18055330Y-6007950D01*
X-18089553Y-6090573D01*
X-18107000Y-6178285D01*
X-18107000Y-6267715D01*
X-18089553Y-6355427D01*
X-18055330Y-6438050D01*
X-18005645Y-6512408D01*
X-17942408Y-6575645D01*
X-17868050Y-6625330D01*
X-17785427Y-6659553D01*
X-17697715Y-6677000D01*
X-17608285Y-6677000D01*
X-17520573Y-6659553D01*
X-17437950Y-6625330D01*
X-17403633Y-6602400D01*
X-15895931Y-6602400D01*
X-15943927Y-6611947D01*
X-16026550Y-6646170D01*
X-16100908Y-6695855D01*
X-16164145Y-6759092D01*
X-16213830Y-6833450D01*
X-16248053Y-6916073D01*
X-16265500Y-7003785D01*
X-16265500Y-7093215D01*
X-16248053Y-7180927D01*
X-16213830Y-7263550D01*
X-16164145Y-7337908D01*
X-16100908Y-7401145D01*
X-16064058Y-7425768D01*
X-16063026Y-7427025D01*
X-16049523Y-7438107D01*
X-15693103Y-7794529D01*
X-15682026Y-7808026D01*
X-15668529Y-7819103D01*
X-15668526Y-7819106D01*
X-15637442Y-7844616D01*
X-15628123Y-7852264D01*
X-15566625Y-7885135D01*
X-15520139Y-7899236D01*
X-15499897Y-7905377D01*
X-15493064Y-7906050D01*
X-15447882Y-7910500D01*
X-15447875Y-7910500D01*
X-15430501Y-7912211D01*
X-15413127Y-7910500D01*
X-13841503Y-7910500D01*
X-13835053Y-7942927D01*
X-13800830Y-8025550D01*
X-13751145Y-8099908D01*
X-13687908Y-8163145D01*
X-13613550Y-8212830D01*
X-13530927Y-8247053D01*
X-13443215Y-8264500D01*
X-13353785Y-8264500D01*
X-13266073Y-8247053D01*
X-13183450Y-8212830D01*
X-13109092Y-8163145D01*
X-13048522Y-8102575D01*
X-12978550Y-8149330D01*
X-12895927Y-8183553D01*
X-12808215Y-8201000D01*
X-12718785Y-8201000D01*
X-12713849Y-8200018D01*
X-13049830Y-8536000D01*
X-13694781Y-8536000D01*
X-13685845Y-8514427D01*
X-13668398Y-8426715D01*
X-13668398Y-8337285D01*
X-13685845Y-8249573D01*
X-13720068Y-8166950D01*
X-13769753Y-8092592D01*
X-13832990Y-8029355D01*
X-13907348Y-7979670D01*
X-13989971Y-7945447D01*
X-14077683Y-7928000D01*
X-14167113Y-7928000D01*
X-14254825Y-7945447D01*
X-14337448Y-7979670D01*
X-14409778Y-8028000D01*
X-16159120Y-8028000D01*
X-16231450Y-7979670D01*
X-16314073Y-7945447D01*
X-16401785Y-7928000D01*
X-16491215Y-7928000D01*
X-16578927Y-7945447D01*
X-16661550Y-7979670D01*
X-16735908Y-8029355D01*
X-16799145Y-8092592D01*
X-16848830Y-8166950D01*
X-16883053Y-8249573D01*
X-16900500Y-8337285D01*
X-16900500Y-8426715D01*
X-16883053Y-8514427D01*
X-16848830Y-8597050D01*
X-16799145Y-8671408D01*
X-16735908Y-8734645D01*
X-16661550Y-8784330D01*
X-16578927Y-8818553D01*
X-16491215Y-8836000D01*
X-16401785Y-8836000D01*
X-16396850Y-8835018D01*
X-17510023Y-9948193D01*
X-17523526Y-9959275D01*
X-17567764Y-10013178D01*
X-17600635Y-10074676D01*
X-17620877Y-10141405D01*
X-17626000Y-10193419D01*
X-17626000Y-10193426D01*
X-17627711Y-10210800D01*
X-17626000Y-10228175D01*
X-17625999Y-11142619D01*
X-17674330Y-11214950D01*
X-17708553Y-11297573D01*
X-17726000Y-11385285D01*
X-17726000Y-11474715D01*
X-17708553Y-11562427D01*
X-17674330Y-11645050D01*
X-17624645Y-11719408D01*
X-17561408Y-11782645D01*
X-17487050Y-11832330D01*
X-17404427Y-11866553D01*
X-17319106Y-11883524D01*
X-16264603Y-12938029D01*
X-16253526Y-12951526D01*
X-16240029Y-12962603D01*
X-16240026Y-12962606D01*
X-16208942Y-12988116D01*
X-16199623Y-12995764D01*
X-16138125Y-13028635D01*
X-16091639Y-13042736D01*
X-16071397Y-13048877D01*
X-16064564Y-13049550D01*
X-16019382Y-13054000D01*
X-16019375Y-13054000D01*
X-16002001Y-13055711D01*
X-15984626Y-13054000D01*
X-11068630Y-13054000D01*
X-9625000Y-14497632D01*
X-9624999Y-15587619D01*
X-9673330Y-15659950D01*
X-9707553Y-15742573D01*
X-9725000Y-15830285D01*
X-9725000Y-15919715D01*
X-9707553Y-16007427D01*
X-9673330Y-16090050D01*
X-9623645Y-16164408D01*
X-9560408Y-16227645D01*
X-9486050Y-16277330D01*
X-9403427Y-16311553D01*
X-9315715Y-16329000D01*
X-9226285Y-16329000D01*
X-9138573Y-16311553D01*
X-9055950Y-16277330D01*
X-8981592Y-16227645D01*
X-8918355Y-16164408D01*
X-8868670Y-16090050D01*
X-8834447Y-16007427D01*
X-8817000Y-15919715D01*
X-8817000Y-15830285D01*
X-8834447Y-15742573D01*
X-8868670Y-15659950D01*
X-8917000Y-15587620D01*
X-8917000Y-15550885D01*
X-7921600Y-15550885D01*
X-7921600Y-15640315D01*
X-7904153Y-15728027D01*
X-7869930Y-15810650D01*
X-7820245Y-15885008D01*
X-7757008Y-15948245D01*
X-7682650Y-15997930D01*
X-7600027Y-16032153D01*
X-7512315Y-16049600D01*
X-7422885Y-16049600D01*
X-7335173Y-16032153D01*
X-7258513Y-16000400D01*
X-1829930Y-16000400D01*
X1254493Y-19084824D01*
X1265574Y-19098326D01*
X1319477Y-19142564D01*
X1380975Y-19175435D01*
X1427461Y-19189536D01*
X1447703Y-19195677D01*
X1454536Y-19196350D01*
X1499718Y-19200800D01*
X1499725Y-19200800D01*
X1517099Y-19202511D01*
X1534474Y-19200800D01*
X12581026Y-19200800D01*
X12598400Y-19202511D01*
X12615774Y-19200800D01*
X12615782Y-19200800D01*
X12667796Y-19195677D01*
X12734525Y-19175435D01*
X12796023Y-19142564D01*
X12849926Y-19098326D01*
X12861012Y-19084818D01*
X13001105Y-18944725D01*
X13086427Y-18927753D01*
X13169050Y-18893530D01*
X13243408Y-18843845D01*
X13306645Y-18780608D01*
X13356330Y-18706250D01*
X13390553Y-18623627D01*
X13408000Y-18535915D01*
X13408000Y-18446485D01*
X13390553Y-18358773D01*
X13356330Y-18276150D01*
X13306645Y-18201792D01*
X13243408Y-18138555D01*
X13169050Y-18088870D01*
X13086427Y-18054647D01*
X12998715Y-18037200D01*
X12909285Y-18037200D01*
X12879882Y-18043049D01*
X13042931Y-17880000D01*
X13479420Y-17880000D01*
X13551750Y-17928330D01*
X13634373Y-17962553D01*
X13722085Y-17980000D01*
X13811515Y-17980000D01*
X13899227Y-17962553D01*
X13981850Y-17928330D01*
X14056208Y-17878645D01*
X14119445Y-17815408D01*
X14169130Y-17741050D01*
X14203353Y-17658427D01*
X14220800Y-17570715D01*
X14220800Y-17481285D01*
X14203353Y-17393573D01*
X14169130Y-17310950D01*
X14119445Y-17236592D01*
X14056208Y-17173355D01*
X13981850Y-17123670D01*
X13899227Y-17089447D01*
X13811515Y-17072000D01*
X13722085Y-17072000D01*
X13634373Y-17089447D01*
X13602305Y-17102730D01*
X13611341Y-17057305D01*
X13611341Y-16967875D01*
X13593894Y-16880163D01*
X13559671Y-16797540D01*
X13536341Y-16762625D01*
X13536341Y-11841827D01*
X13754831Y-11623338D01*
X13769290Y-11611472D01*
X13816651Y-11553761D01*
X13851844Y-11487920D01*
X13866941Y-11438151D01*
X13873515Y-11416480D01*
X13880833Y-11342183D01*
X13879000Y-11323573D01*
X13879000Y-9451869D01*
X16096000Y-9451869D01*
X16096000Y-9748131D01*
X16153798Y-10038701D01*
X16267173Y-10312411D01*
X16431767Y-10558744D01*
X16641256Y-10768233D01*
X16887589Y-10932827D01*
X17161299Y-11046202D01*
X17451869Y-11104000D01*
X17748131Y-11104000D01*
X18038701Y-11046202D01*
X18312411Y-10932827D01*
X18558744Y-10768233D01*
X18768233Y-10558744D01*
X18932827Y-10312411D01*
X19046202Y-10038701D01*
X19104000Y-9748131D01*
X19104000Y-9451869D01*
X19046202Y-9161299D01*
X18932827Y-8887589D01*
X18768233Y-8641256D01*
X18558744Y-8431767D01*
X18312411Y-8267173D01*
X18038701Y-8153798D01*
X17748131Y-8096000D01*
X17451869Y-8096000D01*
X17161299Y-8153798D01*
X16887589Y-8267173D01*
X16641256Y-8431767D01*
X16431767Y-8641256D01*
X16267173Y-8887589D01*
X16153798Y-9161299D01*
X16096000Y-9451869D01*
X13879000Y-9451869D01*
X13879000Y-9155228D01*
X14000000Y-9155228D01*
X14049793Y-9150324D01*
X14097672Y-9135800D01*
X14141797Y-9112214D01*
X14180473Y-9080473D01*
X14212214Y-9041797D01*
X14235800Y-8997672D01*
X14250324Y-8949793D01*
X14255228Y-8900000D01*
X14255228Y-7900000D01*
X14250324Y-7850207D01*
X14235800Y-7802328D01*
X14212214Y-7758203D01*
X14180473Y-7719527D01*
X14141797Y-7687786D01*
X14097672Y-7664200D01*
X14049793Y-7649676D01*
X14000000Y-7644772D01*
X13000000Y-7644772D01*
X12950207Y-7649676D01*
X12902328Y-7664200D01*
X12858203Y-7687786D01*
X12819527Y-7719527D01*
X12787786Y-7758203D01*
X12764200Y-7802328D01*
X12749676Y-7850207D01*
X12749393Y-7853076D01*
X12710647Y-7814330D01*
X12587153Y-7731814D01*
X12449934Y-7674976D01*
X12304262Y-7646000D01*
X12155738Y-7646000D01*
X12010066Y-7674976D01*
X11872847Y-7731814D01*
X11749353Y-7814330D01*
X11644330Y-7919353D01*
X11595000Y-7993181D01*
X11545670Y-7919353D01*
X11440647Y-7814330D01*
X11317153Y-7731814D01*
X11179934Y-7674976D01*
X11034262Y-7646000D01*
X10885738Y-7646000D01*
X10740066Y-7674976D01*
X10602847Y-7731814D01*
X10479353Y-7814330D01*
X10374330Y-7919353D01*
X10325000Y-7993181D01*
X10275670Y-7919353D01*
X10170647Y-7814330D01*
X10047153Y-7731814D01*
X9909934Y-7674976D01*
X9764262Y-7646000D01*
X9615738Y-7646000D01*
X9470066Y-7674976D01*
X9332847Y-7731814D01*
X9209353Y-7814330D01*
X9104330Y-7919353D01*
X9021814Y-8042847D01*
X8964976Y-8180066D01*
X8936000Y-8325738D01*
X8936000Y-8474262D01*
X8964976Y-8619934D01*
X9021814Y-8757153D01*
X9104330Y-8880647D01*
X9209353Y-8985670D01*
X9273000Y-9028198D01*
X9273001Y-12860512D01*
X8635174Y-13498340D01*
X8620710Y-13510210D01*
X8573349Y-13567922D01*
X8538156Y-13633763D01*
X8533258Y-13649910D01*
X8516485Y-13705203D01*
X8509167Y-13779500D01*
X8511000Y-13798110D01*
X8511001Y-16617977D01*
X8448192Y-16659945D01*
X8384955Y-16723182D01*
X8335270Y-16797540D01*
X8301047Y-16880163D01*
X8283600Y-16967875D01*
X8283600Y-17057305D01*
X8301047Y-17145017D01*
X8335270Y-17227640D01*
X8384955Y-17301998D01*
X8448192Y-17365235D01*
X8522550Y-17414920D01*
X8605173Y-17449143D01*
X8692885Y-17466590D01*
X8782315Y-17466590D01*
X8870027Y-17449143D01*
X8952650Y-17414920D01*
X9027008Y-17365235D01*
X9090245Y-17301998D01*
X9139930Y-17227640D01*
X9174153Y-17145017D01*
X9182987Y-17100604D01*
X9206651Y-17071769D01*
X9241844Y-17005928D01*
X9263515Y-16934487D01*
X9269000Y-16878800D01*
X9269000Y-16878798D01*
X9270833Y-16860191D01*
X9269000Y-16841584D01*
X9269000Y-13936486D01*
X9272523Y-13932964D01*
X9273001Y-13937820D01*
X9273000Y-15373790D01*
X9271167Y-15392400D01*
X9275703Y-15438447D01*
X9278485Y-15466696D01*
X9299600Y-15536304D01*
X9299600Y-15538715D01*
X9317047Y-15626427D01*
X9351270Y-15709050D01*
X9400955Y-15783408D01*
X9464192Y-15846645D01*
X9538550Y-15896330D01*
X9621173Y-15930553D01*
X9708885Y-15948000D01*
X9798315Y-15948000D01*
X9886027Y-15930553D01*
X9968650Y-15896330D01*
X10043008Y-15846645D01*
X10106245Y-15783408D01*
X10155930Y-15709050D01*
X10190153Y-15626427D01*
X10207600Y-15538715D01*
X10207600Y-15449285D01*
X10190153Y-15361573D01*
X10155930Y-15278950D01*
X10106245Y-15204592D01*
X10043008Y-15141355D01*
X10031000Y-15133331D01*
X10031000Y-14076186D01*
X11176833Y-12930354D01*
X11191290Y-12918490D01*
X11238651Y-12860779D01*
X11273844Y-12794938D01*
X11295515Y-12723497D01*
X11301000Y-12667810D01*
X11301000Y-12667808D01*
X11302833Y-12649201D01*
X11301000Y-12630594D01*
X11301000Y-9074877D01*
X11317153Y-9068186D01*
X11440647Y-8985670D01*
X11545670Y-8880647D01*
X11595000Y-8806819D01*
X11644330Y-8880647D01*
X11749353Y-8985670D01*
X11851001Y-9053589D01*
X11851000Y-14243390D01*
X11849167Y-14262000D01*
X11851000Y-14280609D01*
X11856485Y-14336296D01*
X11863801Y-14360414D01*
X11863800Y-15345634D01*
X11840470Y-15380550D01*
X11806247Y-15463173D01*
X11788800Y-15550885D01*
X11788800Y-15640315D01*
X11806247Y-15728027D01*
X11840470Y-15810650D01*
X11890155Y-15885008D01*
X11953392Y-15948245D01*
X12027750Y-15997930D01*
X12110373Y-16032153D01*
X12198085Y-16049600D01*
X12287515Y-16049600D01*
X12375227Y-16032153D01*
X12457850Y-15997930D01*
X12532208Y-15948245D01*
X12595445Y-15885008D01*
X12645130Y-15810650D01*
X12679353Y-15728027D01*
X12696800Y-15640315D01*
X12696800Y-15550885D01*
X12679353Y-15463173D01*
X12645130Y-15380550D01*
X12621800Y-15345635D01*
X12621800Y-14293410D01*
X12623633Y-14274800D01*
X12616315Y-14200503D01*
X12616269Y-14200352D01*
X12609000Y-14176388D01*
X12609000Y-9053588D01*
X12710647Y-8985670D01*
X12749393Y-8946924D01*
X12749676Y-8949793D01*
X12764200Y-8997672D01*
X12787786Y-9041797D01*
X12819527Y-9080473D01*
X12858203Y-9112214D01*
X12902328Y-9135800D01*
X12950207Y-9150324D01*
X13000000Y-9155228D01*
X13121000Y-9155228D01*
X13121001Y-11185194D01*
X12902515Y-11403681D01*
X12888051Y-11415551D01*
X12840690Y-11473263D01*
X12805497Y-11539104D01*
X12796002Y-11570407D01*
X12783826Y-11610544D01*
X12776508Y-11684841D01*
X12778341Y-11703451D01*
X12778342Y-16711129D01*
X12778341Y-16711139D01*
X12778341Y-16762625D01*
X12755011Y-16797540D01*
X12720788Y-16880163D01*
X12703341Y-16967875D01*
X12703341Y-17057305D01*
X12720788Y-17145017D01*
X12745680Y-17205113D01*
X12738753Y-17208815D01*
X12698677Y-17230236D01*
X12644774Y-17274474D01*
X12633693Y-17287976D01*
X11835270Y-18086400D01*
X1823032Y-18086400D01*
X-1413788Y-14849582D01*
X-1424874Y-14836074D01*
X-1478777Y-14791836D01*
X-1540275Y-14758965D01*
X-1607004Y-14738723D01*
X-1659018Y-14733600D01*
X-1659026Y-14733600D01*
X-1676400Y-14731889D01*
X-1693774Y-14733600D01*
X-6215020Y-14733600D01*
X-6287350Y-14685270D01*
X-6369973Y-14651047D01*
X-6457685Y-14633600D01*
X-6547115Y-14633600D01*
X-6634827Y-14651047D01*
X-6717450Y-14685270D01*
X-6791808Y-14734955D01*
X-6855045Y-14798192D01*
X-6904730Y-14872550D01*
X-6938953Y-14955173D01*
X-6956400Y-15042885D01*
X-6956400Y-15132315D01*
X-6938953Y-15220027D01*
X-6908976Y-15292400D01*
X-7128747Y-15292400D01*
X-7178192Y-15242955D01*
X-7252550Y-15193270D01*
X-7335173Y-15159047D01*
X-7422885Y-15141600D01*
X-7512315Y-15141600D01*
X-7600027Y-15159047D01*
X-7682650Y-15193270D01*
X-7757008Y-15242955D01*
X-7820245Y-15306192D01*
X-7869930Y-15380550D01*
X-7904153Y-15463173D01*
X-7921600Y-15550885D01*
X-8917000Y-15550885D01*
X-8917000Y-14368374D01*
X-8915289Y-14351000D01*
X-8917000Y-14333626D01*
X-8917000Y-14333618D01*
X-8922123Y-14281604D01*
X-8942365Y-14214875D01*
X-8975236Y-14153377D01*
X-8988358Y-14137389D01*
X-9008393Y-14112975D01*
X-9008402Y-14112966D01*
X-9019475Y-14099474D01*
X-9032966Y-14088402D01*
X-10659388Y-12461982D01*
X-10670474Y-12448474D01*
X-10724377Y-12404236D01*
X-10785875Y-12371365D01*
X-10852604Y-12351123D01*
X-10904618Y-12346000D01*
X-10904626Y-12346000D01*
X-10922000Y-12344289D01*
X-10939374Y-12346000D01*
X-15855368Y-12346000D01*
X-16818476Y-11382894D01*
X-16835447Y-11297573D01*
X-16869670Y-11214950D01*
X-16918000Y-11142620D01*
X-16918000Y-10357430D01*
X-16010137Y-9449568D01*
X-15994053Y-9530427D01*
X-15959830Y-9613050D01*
X-15911500Y-9685380D01*
X-15911500Y-9726968D01*
X-15913211Y-9744342D01*
X-15911500Y-9761716D01*
X-15911500Y-9761723D01*
X-15908314Y-9794072D01*
X-15906377Y-9813738D01*
X-15905397Y-9816967D01*
X-15886135Y-9880466D01*
X-15853264Y-9941964D01*
X-15809026Y-9995867D01*
X-15795523Y-10006950D01*
X-14959949Y-10842524D01*
X-14948868Y-10856026D01*
X-14894965Y-10900264D01*
X-14833467Y-10933135D01*
X-14786981Y-10947236D01*
X-14766739Y-10953377D01*
X-14759906Y-10954050D01*
X-14714724Y-10958500D01*
X-14714717Y-10958500D01*
X-14699661Y-10959983D01*
X-14629550Y-11006830D01*
X-14546927Y-11041053D01*
X-14459215Y-11058500D01*
X-14369785Y-11058500D01*
X-14282073Y-11041053D01*
X-14199450Y-11006830D01*
X-14125092Y-10957145D01*
X-14061855Y-10893908D01*
X-14012170Y-10819550D01*
X-13977947Y-10736927D01*
X-13960500Y-10649215D01*
X-13960500Y-10559785D01*
X-13977947Y-10472073D01*
X-14012170Y-10389450D01*
X-14029762Y-10363122D01*
X-13298074Y-10363122D01*
X-14196074Y-11261122D01*
X-14242550Y-11261122D01*
X-14314880Y-11212792D01*
X-14397503Y-11178569D01*
X-14485215Y-11161122D01*
X-14574645Y-11161122D01*
X-14662357Y-11178569D01*
X-14744980Y-11212792D01*
X-14819338Y-11262477D01*
X-14882575Y-11325714D01*
X-14932260Y-11400072D01*
X-14966483Y-11482695D01*
X-14983930Y-11570407D01*
X-14983930Y-11659837D01*
X-14966483Y-11747549D01*
X-14932260Y-11830172D01*
X-14882575Y-11904530D01*
X-14819338Y-11967767D01*
X-14744980Y-12017452D01*
X-14662357Y-12051675D01*
X-14574645Y-12069122D01*
X-14485215Y-12069122D01*
X-14397503Y-12051675D01*
X-14314880Y-12017452D01*
X-14242550Y-11969122D01*
X-14066818Y-11969122D01*
X-14049444Y-11970833D01*
X-14032070Y-11969122D01*
X-14032062Y-11969122D01*
X-13980048Y-11963999D01*
X-13913319Y-11943757D01*
X-13851821Y-11910886D01*
X-13797918Y-11866648D01*
X-13786832Y-11853140D01*
X-9202804Y-7269113D01*
X-9117484Y-7252142D01*
X-9034861Y-7217919D01*
X-8960503Y-7168234D01*
X-8897266Y-7104997D01*
X-8847581Y-7030639D01*
X-8813358Y-6948016D01*
X-8795911Y-6860304D01*
X-8795911Y-6817719D01*
X-6740024Y-8873607D01*
X-6723053Y-8958927D01*
X-6688830Y-9041550D01*
X-6639145Y-9115908D01*
X-6575908Y-9179145D01*
X-6501550Y-9228830D01*
X-6418927Y-9263053D01*
X-6331215Y-9280500D01*
X-6241785Y-9280500D01*
X-6154073Y-9263053D01*
X-6071450Y-9228830D01*
X-5997092Y-9179145D01*
X-5933855Y-9115908D01*
X-5884170Y-9041550D01*
X-5849947Y-8958927D01*
X-5832500Y-8871215D01*
X-5832500Y-8781785D01*
X-5849947Y-8694073D01*
X-5884170Y-8611450D01*
X-5933855Y-8537092D01*
X-5997092Y-8473855D01*
X-6071450Y-8424170D01*
X-6154073Y-8389947D01*
X-6239393Y-8372976D01*
X-8601988Y-6010382D01*
X-8613074Y-5996874D01*
X-8666977Y-5952636D01*
X-8728475Y-5919765D01*
X-8795204Y-5899523D01*
X-8847218Y-5894400D01*
X-8847226Y-5894400D01*
X-8864600Y-5892689D01*
X-8881974Y-5894400D01*
X-9515416Y-5894400D01*
X-9489592Y-5877145D01*
X-9426355Y-5813908D01*
X-9376670Y-5739550D01*
X-9342447Y-5656927D01*
X-9325000Y-5569215D01*
X-9325000Y-5479785D01*
X-9342447Y-5392073D01*
X-9376670Y-5309450D01*
X-9426355Y-5235092D01*
X-9489592Y-5171855D01*
X-9563950Y-5122170D01*
X-9646573Y-5087947D01*
X-9734285Y-5070500D01*
X-9823715Y-5070500D01*
X-9911427Y-5087947D01*
X-9994050Y-5122170D01*
X-10068408Y-5171855D01*
X-10131645Y-5235092D01*
X-10181330Y-5309450D01*
X-10215553Y-5392073D01*
X-10233000Y-5479785D01*
X-10233000Y-5569215D01*
X-10215553Y-5656927D01*
X-10181330Y-5739550D01*
X-10131645Y-5813908D01*
X-10068408Y-5877145D01*
X-10042584Y-5894400D01*
X-11764383Y-5894400D01*
X-11755447Y-5872827D01*
X-11738476Y-5787507D01*
X-11729395Y-5778426D01*
X-11729391Y-5778421D01*
X-11128476Y-5177507D01*
X-11114974Y-5166426D01*
X-11070736Y-5112523D01*
X-11037865Y-5051025D01*
X-11019721Y-4991212D01*
X-11017623Y-4984297D01*
X-11015664Y-4964409D01*
X-11012500Y-4932282D01*
X-11012500Y-4932275D01*
X-11010789Y-4914900D01*
X-11012500Y-4897526D01*
X-11012500Y1824126D01*
X-11010789Y1841501D01*
X-11012500Y1858875D01*
X-11012500Y1858882D01*
X-11017623Y1910896D01*
X-11037865Y1977625D01*
X-11070736Y2039123D01*
X-11086849Y2058756D01*
X-11103894Y2079525D01*
X-11103897Y2079528D01*
X-11114975Y2093026D01*
X-11128472Y2104103D01*
X-11611476Y2587106D01*
X-11628447Y2672427D01*
X-11662670Y2755050D01*
X-11712355Y2829408D01*
X-11775592Y2892645D01*
X-11849950Y2942330D01*
X-11932573Y2976553D01*
X-12020285Y2994000D01*
X-12109715Y2994000D01*
X-12197427Y2976553D01*
X-12280050Y2942330D01*
X-12354408Y2892645D01*
X-12417645Y2829408D01*
X-12446000Y2786972D01*
X-12474355Y2829408D01*
X-12537592Y2892645D01*
X-12611950Y2942330D01*
X-12694573Y2976553D01*
X-12782285Y2994000D01*
X-12871715Y2994000D01*
X-12959427Y2976553D01*
X-13042050Y2942330D01*
X-13116408Y2892645D01*
X-13179645Y2829408D01*
X-13229330Y2755050D01*
X-13263553Y2672427D01*
X-13281000Y2584715D01*
X-13281000Y2495285D01*
X-13263553Y2407573D01*
X-13229330Y2324950D01*
X-13179645Y2250592D01*
X-13116408Y2187355D01*
X-13042050Y2137670D01*
X-12959427Y2103447D01*
X-12874106Y2086476D01*
X-12220510Y1432879D01*
X-12220509Y-3700267D01*
X-12220510Y-3700277D01*
X-12220510Y-3713120D01*
X-12268840Y-3785450D01*
X-12303063Y-3868073D01*
X-12320510Y-3955785D01*
X-12320510Y-4045215D01*
X-12303063Y-4132927D01*
X-12268840Y-4215550D01*
X-12219155Y-4289908D01*
X-12155918Y-4353145D01*
X-12081560Y-4402830D01*
X-11998937Y-4437053D01*
X-11911225Y-4454500D01*
X-11821795Y-4454500D01*
X-11734083Y-4437053D01*
X-11720499Y-4431426D01*
X-11720499Y-4768268D01*
X-12230021Y-5277791D01*
X-12230026Y-5277795D01*
X-12239107Y-5286876D01*
X-12324427Y-5303847D01*
X-12407050Y-5338070D01*
X-12481408Y-5387755D01*
X-12544645Y-5450992D01*
X-12594330Y-5525350D01*
X-12628553Y-5607973D01*
X-12646000Y-5695685D01*
X-12646000Y-5785115D01*
X-12628553Y-5872827D01*
X-12619617Y-5894400D01*
X-14695904Y-5894400D01*
X-14676447Y-5847427D01*
X-14659000Y-5759715D01*
X-14659000Y-5670285D01*
X-14676447Y-5582573D01*
X-14710670Y-5499950D01*
X-14757517Y-5429839D01*
X-14759000Y-5414785D01*
X-14759000Y-5414776D01*
X-14764123Y-5362762D01*
X-14784365Y-5296033D01*
X-14817236Y-5234535D01*
X-14832502Y-5215934D01*
X-14850394Y-5194132D01*
X-14850397Y-5194129D01*
X-14861474Y-5180632D01*
X-14874971Y-5169555D01*
X-15711500Y-4333028D01*
X-15711500Y-2496130D01*
X-15601124Y-2385754D01*
X-15551604Y-2380877D01*
X-15484875Y-2360635D01*
X-15423377Y-2327764D01*
X-15369474Y-2283526D01*
X-15358388Y-2270018D01*
X-14430466Y-1342098D01*
X-14416975Y-1331026D01*
X-14405902Y-1317534D01*
X-14405894Y-1317526D01*
X-14372737Y-1277124D01*
X-14372736Y-1277123D01*
X-14339865Y-1215625D01*
X-14319623Y-1148896D01*
X-14314500Y-1096882D01*
X-14314500Y-1096873D01*
X-14312789Y-1079501D01*
X-14314500Y-1062129D01*
X-14314500Y51126D01*
X-14312789Y68500D01*
X-14314500Y85875D01*
X-14314500Y85882D01*
X-14319623Y137896D01*
X-14326927Y161976D01*
X-14339865Y204625D01*
X-14372736Y266123D01*
X-14416974Y320026D01*
X-14430477Y331108D01*
X-14460953Y361584D01*
X-14452328Y364200D01*
X-14408203Y387786D01*
X-14369527Y419527D01*
X-14337786Y458203D01*
X-14314200Y502328D01*
X-14299676Y550207D01*
X-14294772Y600000D01*
X-14294772Y2600000D01*
X-14299676Y2649793D01*
X-14314200Y2697672D01*
X-14337786Y2741797D01*
X-14369527Y2780473D01*
X-14408203Y2812214D01*
X-14452328Y2835800D01*
X-14500207Y2850324D01*
X-14550000Y2855228D01*
X-15234143Y2855228D01*
X-14508377Y3580993D01*
X-14439050Y3534670D01*
X-14356427Y3500447D01*
X-14268715Y3483000D01*
X-14179285Y3483000D01*
X-14091573Y3500447D01*
X-14008950Y3534670D01*
X-13934592Y3584355D01*
X-13871355Y3647592D01*
X-13821670Y3721950D01*
X-13787447Y3804573D01*
X-13770000Y3892285D01*
X-13770000Y3981715D01*
X-10614000Y3981715D01*
X-10614000Y3892285D01*
X-10596553Y3804573D01*
X-10562330Y3721950D01*
X-10512645Y3647592D01*
X-10449408Y3584355D01*
X-10375050Y3534670D01*
X-10292427Y3500447D01*
X-10207106Y3483476D01*
X-8989999Y2266367D01*
X-8990000Y-4348120D01*
X-9038330Y-4420450D01*
X-9072553Y-4503073D01*
X-9090000Y-4590785D01*
X-9090000Y-4680215D01*
X-9072553Y-4767927D01*
X-9038330Y-4850550D01*
X-8988645Y-4924908D01*
X-8925408Y-4988145D01*
X-8851050Y-5037830D01*
X-8768427Y-5072053D01*
X-8680715Y-5089500D01*
X-8591285Y-5089500D01*
X-8503573Y-5072053D01*
X-8420950Y-5037830D01*
X-8346592Y-4988145D01*
X-8283355Y-4924908D01*
X-8233670Y-4850550D01*
X-8199447Y-4767927D01*
X-8182000Y-4680215D01*
X-8182000Y-4590785D01*
X-8199447Y-4503073D01*
X-8233670Y-4420450D01*
X-8282000Y-4348120D01*
X-8282000Y2395629D01*
X-8280289Y2413001D01*
X-8282000Y2430373D01*
X-8282000Y2430382D01*
X-8287123Y2482396D01*
X-8307365Y2549125D01*
X-8340236Y2610623D01*
X-8347884Y2619942D01*
X-8373394Y2651026D01*
X-8373397Y2651029D01*
X-8384474Y2664526D01*
X-8397971Y2675603D01*
X-9706476Y3984106D01*
X-9723447Y4069427D01*
X-9757670Y4152050D01*
X-9807355Y4226408D01*
X-9870592Y4289645D01*
X-9944950Y4339330D01*
X-10027573Y4373553D01*
X-10115285Y4391000D01*
X-10204715Y4391000D01*
X-10292427Y4373553D01*
X-10375050Y4339330D01*
X-10449408Y4289645D01*
X-10512645Y4226408D01*
X-10562330Y4152050D01*
X-10596553Y4069427D01*
X-10614000Y3981715D01*
X-13770000Y3981715D01*
X-13787447Y4069427D01*
X-13821670Y4152050D01*
X-13871355Y4226408D01*
X-13934592Y4289645D01*
X-13997000Y4331345D01*
X-13997000Y5046620D01*
X-13948670Y5118950D01*
X-13946283Y5124715D01*
X-13789000Y5124715D01*
X-13789000Y5035285D01*
X-13771553Y4947573D01*
X-13737330Y4864950D01*
X-13687645Y4790592D01*
X-13624408Y4727355D01*
X-13550050Y4677670D01*
X-13467427Y4643447D01*
X-13379715Y4626000D01*
X-13290285Y4626000D01*
X-13202573Y4643447D01*
X-13119950Y4677670D01*
X-13047620Y4726000D01*
X-12254003Y4726000D01*
X-12247553Y4693573D01*
X-12213330Y4610950D01*
X-12163645Y4536592D01*
X-12100408Y4473355D01*
X-12026050Y4423670D01*
X-11943427Y4389447D01*
X-11855715Y4372000D01*
X-11766285Y4372000D01*
X-11678573Y4389447D01*
X-11595950Y4423670D01*
X-11521592Y4473355D01*
X-11458355Y4536592D01*
X-11408670Y4610950D01*
X-11374447Y4693573D01*
X-11357000Y4781285D01*
X-11357000Y4870715D01*
X-11374447Y4958427D01*
X-11408670Y5041050D01*
X-11458355Y5115408D01*
X-11521592Y5178645D01*
X-11595950Y5228330D01*
X-11678573Y5262553D01*
X-11763894Y5279524D01*
X-11802389Y5318019D01*
X-11813474Y5331526D01*
X-11867377Y5375764D01*
X-11928875Y5408635D01*
X-11995604Y5428877D01*
X-12047618Y5434000D01*
X-12047626Y5434000D01*
X-12065000Y5435711D01*
X-12082374Y5434000D01*
X-13047620Y5434000D01*
X-13119950Y5482330D01*
X-13202573Y5516553D01*
X-13290285Y5534000D01*
X-13379715Y5534000D01*
X-13467427Y5516553D01*
X-13550050Y5482330D01*
X-13624408Y5432645D01*
X-13687645Y5369408D01*
X-13737330Y5295050D01*
X-13771553Y5212427D01*
X-13789000Y5124715D01*
X-13946283Y5124715D01*
X-13914447Y5201573D01*
X-13897000Y5289285D01*
X-13897000Y5378715D01*
X-13914447Y5466427D01*
X-13948670Y5549050D01*
X-13998355Y5623408D01*
X-14061592Y5686645D01*
X-14135950Y5736330D01*
X-14218573Y5770553D01*
X-14306285Y5788000D01*
X-14395715Y5788000D01*
X-14483427Y5770553D01*
X-14566050Y5736330D01*
X-14640408Y5686645D01*
X-14703645Y5623408D01*
X-14753330Y5549050D01*
X-14787553Y5466427D01*
X-14805000Y5378715D01*
X-14805000Y5289285D01*
X-14787553Y5201573D01*
X-14753330Y5118950D01*
X-14705000Y5046620D01*
X-14704999Y4287591D01*
X-14722398Y4285877D01*
X-14789127Y4265635D01*
X-14850625Y4232764D01*
X-14873356Y4214109D01*
X-14891027Y4199607D01*
X-14891031Y4199603D01*
X-14904528Y4188526D01*
X-14915605Y4175029D01*
X-17526000Y1564632D01*
X-17526000Y6554292D01*
X-17338742Y7014413D01*
X-8304000Y7014413D01*
X-8304000Y6885587D01*
X-8278867Y6759235D01*
X-8229567Y6640215D01*
X-8157995Y6533100D01*
X-8066900Y6442005D01*
X-7959785Y6370433D01*
X-7840765Y6321133D01*
X-7829017Y6318796D01*
X-7829018Y3685913D01*
X-7858013Y3656918D01*
X-7929585Y3549803D01*
X-7978885Y3430783D01*
X-8004018Y3304431D01*
X-8004018Y3175605D01*
X-7978885Y3049253D01*
X-7929585Y2930233D01*
X-7858013Y2823118D01*
X-7766918Y2732023D01*
X-7659803Y2660451D01*
X-7540783Y2611151D01*
X-7418401Y2586808D01*
X-7540147Y2268492D01*
X-7790090Y1146464D01*
X-7874000Y0D01*
X-7790090Y-1146464D01*
X-7540147Y-2268492D01*
X-7129499Y-3342172D01*
X-6566899Y-4344619D01*
X-5864336Y-5254468D01*
X-5036785Y-6052328D01*
X-4101884Y-6721192D01*
X-3079559Y-7246806D01*
X-1991597Y-7617967D01*
X-861189Y-7826764D01*
X287574Y-7868747D01*
X1430209Y-7743021D01*
X2542360Y-7452267D01*
X3600326Y-7002680D01*
X4581557Y-6403843D01*
X4812013Y-6212056D01*
X964070Y-10060000D01*
X-5656220Y-10060000D01*
X-5728550Y-10011670D01*
X-5811173Y-9977447D01*
X-5898885Y-9960000D01*
X-5988315Y-9960000D01*
X-6076027Y-9977447D01*
X-6158650Y-10011670D01*
X-6233008Y-10061355D01*
X-6296245Y-10124592D01*
X-6345930Y-10198950D01*
X-6380153Y-10281573D01*
X-6397600Y-10369285D01*
X-6397600Y-10458715D01*
X-6395714Y-10468199D01*
X-6482427Y-10485447D01*
X-6565050Y-10519670D01*
X-6639408Y-10569355D01*
X-6702645Y-10632592D01*
X-6752330Y-10706950D01*
X-6786553Y-10789573D01*
X-6804000Y-10877285D01*
X-6804000Y-10966715D01*
X-6786553Y-11054427D01*
X-6752330Y-11137050D01*
X-6702645Y-11211408D01*
X-6639408Y-11274645D01*
X-6565050Y-11324330D01*
X-6482427Y-11358553D01*
X-6394715Y-11376000D01*
X-6305285Y-11376000D01*
X-6217573Y-11358553D01*
X-6134950Y-11324330D01*
X-6062620Y-11276000D01*
X1151026Y-11276000D01*
X1168400Y-11277711D01*
X1185774Y-11276000D01*
X1185782Y-11276000D01*
X1237796Y-11270877D01*
X1304525Y-11250635D01*
X1366023Y-11217764D01*
X1419926Y-11173526D01*
X1431012Y-11160018D01*
X3139161Y-9451869D01*
X4096000Y-9451869D01*
X4096000Y-9748131D01*
X4153798Y-10038701D01*
X4267173Y-10312411D01*
X4431767Y-10558744D01*
X4641256Y-10768233D01*
X4887589Y-10932827D01*
X5161299Y-11046202D01*
X5451869Y-11104000D01*
X5748131Y-11104000D01*
X6038701Y-11046202D01*
X6312411Y-10932827D01*
X6558744Y-10768233D01*
X6768233Y-10558744D01*
X6932827Y-10312411D01*
X7046202Y-10038701D01*
X7104000Y-9748131D01*
X7104000Y-9451869D01*
X7046202Y-9161299D01*
X6932827Y-8887589D01*
X6768233Y-8641256D01*
X6558744Y-8431767D01*
X6312411Y-8267173D01*
X6038701Y-8153798D01*
X5748131Y-8096000D01*
X5451869Y-8096000D01*
X5161299Y-8153798D01*
X4887589Y-8267173D01*
X4641256Y-8431767D01*
X4431767Y-8641256D01*
X4267173Y-8887589D01*
X4153798Y-9161299D01*
X4096000Y-9451869D01*
X3139161Y-9451869D01*
X6198220Y-6392811D01*
X11317415Y-6392811D01*
X11334789Y-6394522D01*
X11352163Y-6392811D01*
X11352171Y-6392811D01*
X11404185Y-6387688D01*
X11470914Y-6367446D01*
X11532412Y-6334575D01*
X11586315Y-6290337D01*
X11597401Y-6276829D01*
X15019003Y-2855228D01*
X15450000Y-2855228D01*
X15499793Y-2850324D01*
X15547672Y-2835800D01*
X15591797Y-2812214D01*
X15630473Y-2780473D01*
X15662214Y-2741797D01*
X15685800Y-2697672D01*
X15700324Y-2649793D01*
X15705228Y-2600000D01*
X15705228Y-600000D01*
X15700324Y-550207D01*
X15685800Y-502328D01*
X15662214Y-458203D01*
X15630473Y-419527D01*
X15591797Y-387786D01*
X15547672Y-364200D01*
X15499793Y-349676D01*
X15450000Y-344772D01*
X14765856Y-344772D01*
X16294772Y1184142D01*
X16294772Y600000D01*
X16299676Y550207D01*
X16314200Y502328D01*
X16337786Y458203D01*
X16369527Y419527D01*
X16408203Y387786D01*
X16452328Y364200D01*
X16500207Y349676D01*
X16550000Y344772D01*
X17450000Y344772D01*
X17499793Y349676D01*
X17547672Y364200D01*
X17591797Y387786D01*
X17630473Y419527D01*
X17662214Y458203D01*
X17685800Y502328D01*
X17700324Y550207D01*
X17705228Y600000D01*
X17705228Y2600000D01*
X17700324Y2649793D01*
X17685800Y2697672D01*
X17662214Y2741797D01*
X17630473Y2780473D01*
X17591797Y2812214D01*
X17547672Y2835800D01*
X17499793Y2850324D01*
X17450000Y2855228D01*
X16550000Y2855228D01*
X16500207Y2850324D01*
X16452328Y2835800D01*
X16408203Y2812214D01*
X16369527Y2780473D01*
X16337786Y2741797D01*
X16314200Y2697672D01*
X16299676Y2649793D01*
X16294772Y2600000D01*
X16294772Y1954000D01*
X16227369Y1954000D01*
X16209997Y1955711D01*
X16192625Y1954000D01*
X16192616Y1954000D01*
X16140602Y1948877D01*
X16073873Y1928635D01*
X16012375Y1895764D01*
X16012373Y1895763D01*
X16012374Y1895763D01*
X15971972Y1862606D01*
X15971969Y1862603D01*
X15958472Y1851526D01*
X15947395Y1838029D01*
X13833577Y-275791D01*
X13820075Y-286872D01*
X13775837Y-340775D01*
X13742966Y-402273D01*
X13722723Y-469002D01*
X13715889Y-538398D01*
X13717601Y-555782D01*
X13717600Y-2444169D01*
X10978570Y-5183200D01*
X6004874Y-5183200D01*
X5987500Y-5181489D01*
X5970126Y-5183200D01*
X5970118Y-5183200D01*
X5918104Y-5188323D01*
X5886924Y-5197781D01*
X6232243Y-4812382D01*
X6866517Y-3853676D01*
X7354443Y-2812836D01*
X7685621Y-1712045D01*
X7852994Y-574765D01*
X7852994Y574765D01*
X7685621Y1712045D01*
X7418476Y2600000D01*
X12294772Y2600000D01*
X12294772Y600000D01*
X12299676Y550207D01*
X12314200Y502328D01*
X12337786Y458203D01*
X12369527Y419527D01*
X12408203Y387786D01*
X12452328Y364200D01*
X12500207Y349676D01*
X12550000Y344772D01*
X13450000Y344772D01*
X13499793Y349676D01*
X13547672Y364200D01*
X13591797Y387786D01*
X13630473Y419527D01*
X13662214Y458203D01*
X13685800Y502328D01*
X13700324Y550207D01*
X13705228Y600000D01*
X13705228Y2600000D01*
X13700324Y2649793D01*
X13685800Y2697672D01*
X13662214Y2741797D01*
X13630473Y2780473D01*
X13591797Y2812214D01*
X13547672Y2835800D01*
X13499793Y2850324D01*
X13479000Y2852372D01*
X13479000Y4746874D01*
X13481317Y4770400D01*
X13472069Y4864300D01*
X13444679Y4954592D01*
X13400200Y5037805D01*
X13340343Y5110743D01*
X13267405Y5170600D01*
X13184192Y5215079D01*
X13093900Y5242469D01*
X13023526Y5249400D01*
X13000000Y5251717D01*
X12976474Y5249400D01*
X12906100Y5242469D01*
X12815808Y5215079D01*
X12732595Y5170600D01*
X12659657Y5110743D01*
X12599800Y5037805D01*
X12555321Y4954592D01*
X12527931Y4864300D01*
X12518683Y4770400D01*
X12521000Y4746874D01*
X12521000Y2852372D01*
X12500207Y2850324D01*
X12452328Y2835800D01*
X12408203Y2812214D01*
X12369527Y2780473D01*
X12337786Y2741797D01*
X12314200Y2697672D01*
X12299676Y2649793D01*
X12294772Y2600000D01*
X7418476Y2600000D01*
X7354443Y2812836D01*
X6866517Y3853676D01*
X6232243Y4812382D01*
X5465140Y5668520D01*
X4581557Y6403843D01*
X3600326Y7002680D01*
X2542360Y7452267D01*
X1430209Y7743021D01*
X287574Y7868747D01*
X10687Y7858628D01*
X14000Y7875285D01*
X14000Y7964715D01*
X-3447Y8052427D01*
X-37670Y8135050D01*
X-87355Y8209408D01*
X-150592Y8272645D01*
X-224950Y8322330D01*
X-307573Y8356553D01*
X-395285Y8374000D01*
X-484715Y8374000D01*
X-572427Y8356553D01*
X-655050Y8322330D01*
X-729408Y8272645D01*
X-792645Y8209408D01*
X-842330Y8135050D01*
X-876553Y8052427D01*
X-894000Y7964715D01*
X-894000Y7875285D01*
X-883528Y7822638D01*
X-1991597Y7617967D01*
X-3079559Y7246806D01*
X-4101884Y6721192D01*
X-5036785Y6052328D01*
X-5864336Y5254468D01*
X-6566899Y4344619D01*
X-6871018Y3802736D01*
X-6871018Y6626495D01*
X-6868701Y6650018D01*
X-6871018Y6673544D01*
X-6877949Y6743918D01*
X-6905339Y6834210D01*
X-6949818Y6917424D01*
X-6976553Y6950000D01*
X-6996000Y6973697D01*
X-6996000Y7014413D01*
X-7021133Y7140765D01*
X-7070433Y7259785D01*
X-7142005Y7366900D01*
X-7233100Y7457995D01*
X-7340215Y7529567D01*
X-7459235Y7578867D01*
X-7585587Y7604000D01*
X-7714413Y7604000D01*
X-7840765Y7578867D01*
X-7959785Y7529567D01*
X-8066900Y7457995D01*
X-8157995Y7366900D01*
X-8229567Y7259785D01*
X-8278867Y7140765D01*
X-8304000Y7014413D01*
X-17338742Y7014413D01*
X-15791111Y10817163D01*
X-10286099Y15321264D01*
X-7066604Y16510000D01*
X4826000Y16510000D01*
X4826000Y11176000D01*
X4830881Y11126447D01*
X4845335Y11078798D01*
X4868807Y11034885D01*
X4900395Y10996395D01*
X4938885Y10964807D01*
X4982798Y10941335D01*
X5030447Y10926881D01*
X5080000Y10922000D01*
X9144000Y10922000D01*
X9193553Y10926881D01*
X9241202Y10941335D01*
X9285115Y10964807D01*
X9323605Y10996395D01*
X9355193Y11034885D01*
X9378665Y11078798D01*
X9393119Y11126447D01*
X9398000Y11176000D01*
X9398000Y22765260D01*
X9994577Y22528510D01*
G36*
X2446209Y24524302D02*
G01*
X4386936Y24252425D01*
X6299928Y23827216D01*
X8173089Y23251364D01*
X9017000Y22916460D01*
X9017000Y11303000D01*
X5207000Y11303000D01*
X5207000Y16764000D01*
X5204560Y16788776D01*
X5197333Y16812601D01*
X5185597Y16834557D01*
X5169803Y16853803D01*
X5150557Y16869597D01*
X5128601Y16881333D01*
X5104776Y16888560D01*
X5080000Y16891000D01*
X-7112000Y16891000D01*
X-7136776Y16888560D01*
X-7155990Y16883138D01*
X-10457990Y15663938D01*
X-10480387Y15653067D01*
X-10494421Y15643093D01*
X-16082421Y11071093D01*
X-16100052Y11053515D01*
X-16113914Y11032835D01*
X-16119631Y11020673D01*
X-17897631Y6651873D01*
X-17904711Y6628005D01*
X-17907000Y6604000D01*
X-17907000Y1183632D01*
X-18081523Y1009109D01*
X-18095025Y998028D01*
X-18139263Y944125D01*
X-18172134Y882627D01*
X-18192377Y815898D01*
X-18199211Y746502D01*
X-18197499Y729118D01*
X-18197499Y-381000D01*
X-19939394Y-381000D01*
X-19946088Y1774420D01*
X-19917670Y1816950D01*
X-19883447Y1899573D01*
X-19866000Y1987285D01*
X-19866000Y2076715D01*
X-19883447Y2164427D01*
X-19917670Y2247050D01*
X-19947695Y2291985D01*
X-19948836Y2659307D01*
X-19917670Y2705950D01*
X-19883447Y2788573D01*
X-19866000Y2876285D01*
X-19866000Y2965715D01*
X-19883447Y3053427D01*
X-19917670Y3136050D01*
X-19950469Y3185137D01*
X-19985317Y14405907D01*
X-19823186Y14644679D01*
X-18597000Y16173340D01*
X-17253237Y17599748D01*
X-15800394Y18914885D01*
X-14247655Y20110436D01*
X-14189694Y20148131D01*
X-1504000Y20148131D01*
X-1504000Y19851869D01*
X-1446202Y19561299D01*
X-1332827Y19287589D01*
X-1168233Y19041256D01*
X-958744Y18831767D01*
X-712411Y18667173D01*
X-438701Y18553798D01*
X-148131Y18496000D01*
X148131Y18496000D01*
X438701Y18553798D01*
X712411Y18667173D01*
X958744Y18831767D01*
X1168233Y19041256D01*
X1332827Y19287589D01*
X1446202Y19561299D01*
X1504000Y19851869D01*
X1504000Y20148131D01*
X1446202Y20438701D01*
X1332827Y20712411D01*
X1168233Y20958744D01*
X958744Y21168233D01*
X712411Y21332827D01*
X438701Y21446202D01*
X148131Y21504000D01*
X-148131Y21504000D01*
X-438701Y21446202D01*
X-712411Y21332827D01*
X-958744Y21168233D01*
X-1168233Y20958744D01*
X-1332827Y20712411D01*
X-1446202Y20438701D01*
X-1504000Y20148131D01*
X-14189694Y20148131D01*
X-12604839Y21178842D01*
X-10882330Y22113349D01*
X-9091020Y22908048D01*
X-7242234Y23557915D01*
X-5347660Y24058841D01*
X-3419276Y24407660D01*
X-1469274Y24602166D01*
X490016Y24641128D01*
X2446209Y24524302D01*
G37*
X2446209Y24524302D02*
X4386936Y24252425D01*
X6299928Y23827216D01*
X8173089Y23251364D01*
X9017000Y22916460D01*
X9017000Y11303000D01*
X5207000Y11303000D01*
X5207000Y16764000D01*
X5204560Y16788776D01*
X5197333Y16812601D01*
X5185597Y16834557D01*
X5169803Y16853803D01*
X5150557Y16869597D01*
X5128601Y16881333D01*
X5104776Y16888560D01*
X5080000Y16891000D01*
X-7112000Y16891000D01*
X-7136776Y16888560D01*
X-7155990Y16883138D01*
X-10457990Y15663938D01*
X-10480387Y15653067D01*
X-10494421Y15643093D01*
X-16082421Y11071093D01*
X-16100052Y11053515D01*
X-16113914Y11032835D01*
X-16119631Y11020673D01*
X-17897631Y6651873D01*
X-17904711Y6628005D01*
X-17907000Y6604000D01*
X-17907000Y1183632D01*
X-18081523Y1009109D01*
X-18095025Y998028D01*
X-18139263Y944125D01*
X-18172134Y882627D01*
X-18192377Y815898D01*
X-18199211Y746502D01*
X-18197499Y729118D01*
X-18197499Y-381000D01*
X-19939394Y-381000D01*
X-19946088Y1774420D01*
X-19917670Y1816950D01*
X-19883447Y1899573D01*
X-19866000Y1987285D01*
X-19866000Y2076715D01*
X-19883447Y2164427D01*
X-19917670Y2247050D01*
X-19947695Y2291985D01*
X-19948836Y2659307D01*
X-19917670Y2705950D01*
X-19883447Y2788573D01*
X-19866000Y2876285D01*
X-19866000Y2965715D01*
X-19883447Y3053427D01*
X-19917670Y3136050D01*
X-19950469Y3185137D01*
X-19985317Y14405907D01*
X-19823186Y14644679D01*
X-18597000Y16173340D01*
X-17253237Y17599748D01*
X-15800394Y18914885D01*
X-14247655Y20110436D01*
X-14189694Y20148131D01*
X-1504000Y20148131D01*
X-1504000Y19851869D01*
X-1446202Y19561299D01*
X-1332827Y19287589D01*
X-1168233Y19041256D01*
X-958744Y18831767D01*
X-712411Y18667173D01*
X-438701Y18553798D01*
X-148131Y18496000D01*
X148131Y18496000D01*
X438701Y18553798D01*
X712411Y18667173D01*
X958744Y18831767D01*
X1168233Y19041256D01*
X1332827Y19287589D01*
X1446202Y19561299D01*
X1504000Y19851869D01*
X1504000Y20148131D01*
X1446202Y20438701D01*
X1332827Y20712411D01*
X1168233Y20958744D01*
X958744Y21168233D01*
X712411Y21332827D01*
X438701Y21446202D01*
X148131Y21504000D01*
X-148131Y21504000D01*
X-438701Y21446202D01*
X-712411Y21332827D01*
X-958744Y21168233D01*
X-1168233Y20958744D01*
X-1332827Y20712411D01*
X-1446202Y20438701D01*
X-1504000Y20148131D01*
X-14189694Y20148131D01*
X-12604839Y21178842D01*
X-10882330Y22113349D01*
X-9091020Y22908048D01*
X-7242234Y23557915D01*
X-5347660Y24058841D01*
X-3419276Y24407660D01*
X-1469274Y24602166D01*
X490016Y24641128D01*
X2446209Y24524302D01*
M02*
