G04 #@! TF.GenerationSoftware,KiCad,Pcbnew,5.1.5-52549c5~84~ubuntu18.04.1*
G04 #@! TF.CreationDate,2019-12-08T01:29:41-05:00*
G04 #@! TF.ProjectId,SwarmBot,53776172-6d42-46f7-942e-6b696361645f,rev?*
G04 #@! TF.SameCoordinates,Original*
G04 #@! TF.FileFunction,Copper,L4,Bot*
G04 #@! TF.FilePolarity,Positive*
%FSLAX46Y46*%
G04 Gerber Fmt 4.6, Leading zero omitted, Abs format (unit mm)*
G04 Created by KiCad (PCBNEW 5.1.5-52549c5~84~ubuntu18.04.1) date 2019-12-08 01:29:41*
%MOMM*%
%LPD*%
G04 APERTURE LIST*
%ADD10R,1.000000X2.510000*%
%ADD11O,1.200000X1.750000*%
%ADD12C,0.100000*%
%ADD13O,1.000000X1.000000*%
%ADD14R,1.000000X1.000000*%
%ADD15C,0.400000*%
%ADD16C,0.450000*%
%ADD17C,0.200000*%
%ADD18C,0.250000*%
%ADD19C,0.254000*%
G04 APERTURE END LIST*
D10*
X-11190000Y-1655000D03*
X-16270000Y-1655000D03*
X-13730000Y1655000D03*
X-18810000Y1655000D03*
X18810000Y-1655000D03*
X13730000Y-1655000D03*
X16270000Y1655000D03*
X11190000Y1655000D03*
D11*
X11970000Y13017500D03*
G04 #@! TA.AperFunction,ComponentPad*
D12*
G36*
X14344505Y13891296D02*
G01*
X14368773Y13887696D01*
X14392572Y13881735D01*
X14415671Y13873470D01*
X14437850Y13862980D01*
X14458893Y13850368D01*
X14478599Y13835753D01*
X14496777Y13819277D01*
X14513253Y13801099D01*
X14527868Y13781393D01*
X14540480Y13760350D01*
X14550970Y13738171D01*
X14559235Y13715072D01*
X14565196Y13691273D01*
X14568796Y13667005D01*
X14570000Y13642501D01*
X14570000Y12392499D01*
X14568796Y12367995D01*
X14565196Y12343727D01*
X14559235Y12319928D01*
X14550970Y12296829D01*
X14540480Y12274650D01*
X14527868Y12253607D01*
X14513253Y12233901D01*
X14496777Y12215723D01*
X14478599Y12199247D01*
X14458893Y12184632D01*
X14437850Y12172020D01*
X14415671Y12161530D01*
X14392572Y12153265D01*
X14368773Y12147304D01*
X14344505Y12143704D01*
X14320001Y12142500D01*
X13619999Y12142500D01*
X13595495Y12143704D01*
X13571227Y12147304D01*
X13547428Y12153265D01*
X13524329Y12161530D01*
X13502150Y12172020D01*
X13481107Y12184632D01*
X13461401Y12199247D01*
X13443223Y12215723D01*
X13426747Y12233901D01*
X13412132Y12253607D01*
X13399520Y12274650D01*
X13389030Y12296829D01*
X13380765Y12319928D01*
X13374804Y12343727D01*
X13371204Y12367995D01*
X13370000Y12392499D01*
X13370000Y13642501D01*
X13371204Y13667005D01*
X13374804Y13691273D01*
X13380765Y13715072D01*
X13389030Y13738171D01*
X13399520Y13760350D01*
X13412132Y13781393D01*
X13426747Y13801099D01*
X13443223Y13819277D01*
X13461401Y13835753D01*
X13481107Y13850368D01*
X13502150Y13862980D01*
X13524329Y13873470D01*
X13547428Y13881735D01*
X13571227Y13887696D01*
X13595495Y13891296D01*
X13619999Y13892500D01*
X14320001Y13892500D01*
X14344505Y13891296D01*
G37*
G04 #@! TD.AperFunction*
D13*
X9690000Y-8400000D03*
X10960000Y-8400000D03*
X12230000Y-8400000D03*
D14*
X13500000Y-8400000D03*
D15*
X-13606780Y-441960D03*
X-8178800Y-12547600D03*
X10363200Y-16611600D03*
X-22707600Y3860800D03*
X-24130000Y3860800D03*
X-21386800Y1981200D03*
X-20320000Y1981200D03*
X-20320000Y2997200D03*
X-7315200Y-14122400D03*
X-11973560Y-14071600D03*
X-12242800Y-19050000D03*
X-50800Y-10261600D03*
X-101600Y-12090400D03*
X-1879600Y-12090400D03*
X-5181600Y20370800D03*
X-5842000Y18135600D03*
X-8686800Y19456400D03*
X-5486400Y22250400D03*
X5232400Y11938000D03*
X-1879600Y-10312400D03*
X-4114800Y-12954000D03*
X9042400Y-50800D03*
X9550400Y-2489200D03*
X-20421600Y3606800D03*
X-21437600Y2997200D03*
X-22707600Y3403600D03*
X-24130000Y3403600D03*
X-22707600Y2895600D03*
X-24130000Y2895600D03*
X-24130000Y2438400D03*
X-22707600Y2438400D03*
X-22707600Y1981200D03*
X-24130000Y1981200D03*
X-24130000Y-2946400D03*
X-22707600Y-1981200D03*
X-22707600Y-2438400D03*
X-22707600Y-3403600D03*
X-22707600Y-3860800D03*
X-24130000Y-3860800D03*
X-24130000Y-1981200D03*
X-24130000Y-3403600D03*
X-24130000Y-2438400D03*
X-22707600Y-2946400D03*
X-20624800Y-1930400D03*
X-21691600Y-2946400D03*
X-21742400Y-1930400D03*
X-20624800Y-2946400D03*
X-22707600Y-1066800D03*
X-24130000Y-1066800D03*
X-22707600Y-609600D03*
X-24130000Y-609600D03*
X-22707600Y1066800D03*
X-24130000Y609600D03*
X-22707600Y609600D03*
X-24130000Y1066800D03*
X-22072000Y-7136800D03*
X-22072000Y-7695600D03*
X-16327120Y-7459980D03*
X-20320000Y10210800D03*
X-16916400Y10363200D03*
X-18186400Y10414000D03*
X-18643600Y10414000D03*
X-19842200Y10079000D03*
X-14478000Y9398000D03*
X6807200Y-15951200D03*
X6908800Y-19862800D03*
X5943600Y-19761200D03*
X11633200Y-16611600D03*
X11633200Y-17932400D03*
X10414000Y-17932400D03*
X15290800Y-16256000D03*
X10668000Y-13919200D03*
X-8178800Y-12141200D03*
X-8178800Y-11734800D03*
X-8178800Y-11328400D03*
X-9144000Y-10515600D03*
X-8991600Y-10922000D03*
X-8178800Y-10922000D03*
X-8585200Y-10922000D03*
X-9144000Y-10109200D03*
X-9144000Y-9702800D03*
X-9144000Y-9296400D03*
X-12141200Y-6451600D03*
X-12141200Y-6858000D03*
X-12141200Y-7264400D03*
X-12141200Y-7670800D03*
X-12141200Y-8077200D03*
X-12141200Y-8483600D03*
X-12141200Y-8890000D03*
X-6908800Y-9550400D03*
X-6908800Y-9956800D03*
X-6908800Y-10769600D03*
X-6908800Y-11176000D03*
X-6908800Y-12395200D03*
X-6908800Y-11988800D03*
X-6908800Y-11582400D03*
X-6908800Y-10363200D03*
X-11633200Y-9093200D03*
X-10007600Y-9093200D03*
X-9601200Y-9093200D03*
X-11226800Y-9093200D03*
X-10820400Y-9093200D03*
X-10414000Y-9093200D03*
X-11684000Y-6324600D03*
X-11277600Y-6324600D03*
X-9652000Y-6324600D03*
X-9245600Y-6324600D03*
X-10871200Y-6324600D03*
X-10464800Y-6324600D03*
X-10058400Y-6324600D03*
X-8026400Y-6299200D03*
X-7658100Y-6507480D03*
X-8432800Y-6299200D03*
X-8839200Y-6299200D03*
X-6918960Y-8282940D03*
X-6918960Y-7876540D03*
X-7315200Y-7335520D03*
X-6918960Y-7470140D03*
X-6908800Y-9144000D03*
X-6908800Y-8712200D03*
X-5867400Y-13284200D03*
X-13779500Y-1625600D03*
X1701800Y8255000D03*
X-1244600Y11811000D03*
X-15808960Y-16349980D03*
X-6021200Y-20797810D03*
X-14742563Y-2895600D03*
X-12009120Y309880D03*
X-7726680Y-7325360D03*
X-7729220Y-6916420D03*
X18542000Y5537200D03*
X10210800Y-863600D03*
X-16154400Y14325600D03*
X749300Y11823700D03*
X4071910Y8280400D03*
X-4886960Y-11269980D03*
X-2080260Y-8257540D03*
X1183281Y-9401682D03*
X-6421120Y-12801600D03*
X-8727440Y-11465560D03*
X-14620240Y-14272260D03*
X-3878580Y-14038580D03*
X-1734820Y-17073880D03*
X9829800Y2352040D03*
X-17571720Y-14274800D03*
X-21996400Y-101600D03*
X-21996400Y355600D03*
X-21996400Y762000D03*
X-21940300Y1264700D03*
X-21132800Y4318000D03*
X-21437600Y4013200D03*
X-21767800Y3683000D03*
X-18288000Y9753600D03*
X-18186400Y11074400D03*
X11203940Y6098540D03*
X11214380Y5618760D03*
X11214380Y5141240D03*
X11214380Y4673880D03*
X11214380Y4252240D03*
X11214380Y3805200D03*
X11214380Y3378480D03*
X11214380Y2931440D03*
X-14020800Y-17856200D03*
X13700760Y-3312160D03*
X-13614400Y-18313400D03*
X16281400Y-10160D03*
X12293600Y-15646400D03*
X8703330Y-16751378D03*
X9753600Y-15646400D03*
X13360400Y-17035490D03*
X-16319502Y-2540D03*
X-17292320Y703580D03*
X-19375120Y-8615680D03*
X-15377160Y-18171160D03*
X-14827971Y3303070D03*
X-11049000Y-12776200D03*
X-15596575Y-9774260D03*
X-16683672Y-8403908D03*
X-14521180Y-10317480D03*
X-10350500Y5006340D03*
X-12090400Y4978400D03*
X-15900400Y5181600D03*
X-12522200Y-12446000D03*
X13208000Y-18135600D03*
X-3796561Y-17039486D03*
X-4028150Y-16189960D03*
X13944600Y-17462500D03*
X-13650495Y-13845710D03*
X-12471400Y2070100D03*
X-5750560Y-8267700D03*
X-5638800Y-17777170D03*
X-11963400Y2654300D03*
X-6184900Y-10238740D03*
X-5985056Y-17379869D03*
X8585200Y-3759200D03*
X-6019800Y-18338800D03*
X720682Y-8650118D03*
X24697Y-16202390D03*
X-5740400Y-16865600D03*
X-345998Y-15801340D03*
X-175260Y-8613140D03*
X-13614400Y-14808200D03*
X-14927262Y-17098962D03*
X-13959420Y14183780D03*
X-7366000Y-3454400D03*
X-9309100Y8902700D03*
X-7486198Y-4019805D03*
X-10058400Y9004300D03*
X-7626577Y-4527777D03*
X2743200Y9906000D03*
X-8051800Y-20421600D03*
X-3997267Y-15315629D03*
X-13589000Y-19405600D03*
X-17091660Y-13149580D03*
X-4267200Y11734800D03*
X-13665200Y-17322806D03*
X-4724400Y12090400D03*
X-13665200Y-15875000D03*
X-15285720Y-15499080D03*
X-16469650Y-10737655D03*
X-14053490Y-15382530D03*
X-15615630Y-11361173D03*
X-13940428Y-14285801D03*
X-11968480Y-3911600D03*
X-3759200Y12090400D03*
X-12039600Y-12776200D03*
X-14155420Y-10909300D03*
X-3251200Y11785600D03*
X-11557000Y-12547600D03*
X-14432280Y-5478780D03*
X-12068984Y-3394260D03*
X-10566400Y-12446000D03*
X-9685064Y4325664D03*
X-10160000Y-2941320D03*
X-8920480Y5796280D03*
X-10058400Y-12776200D03*
X-10923620Y-4095464D03*
X-9525000Y-12446000D03*
X-10755248Y-4594856D03*
X-9042400Y-12700000D03*
X-11042131Y-5456480D03*
X3708400Y9956800D03*
X-7010400Y-20370800D03*
X8166100Y-2534920D03*
X-2608580Y-14142720D03*
X-2852420Y-15491460D03*
X4724400Y9956800D03*
X-7569200Y-20701000D03*
X-3479800Y-15496540D03*
D16*
X-21996400Y1208600D02*
X-21940300Y1264700D01*
X-21996400Y-101600D02*
X-21996400Y1208600D01*
X-21940300Y1264700D02*
X-21940300Y3510500D01*
X-21940300Y3510500D02*
X-21767800Y3683000D01*
X-21437600Y4013200D02*
X-21132800Y4318000D01*
X-21767800Y3683000D02*
X-21437600Y4013200D01*
X11214380Y1597460D02*
X11214380Y2931440D01*
X11214380Y6088100D02*
X11203940Y6098540D01*
X11214380Y5618760D02*
X11214380Y6088100D01*
X11214380Y5141240D02*
X11214380Y5618760D01*
X11214380Y4673880D02*
X11214380Y5141240D01*
X11214380Y4252240D02*
X11214380Y4673880D01*
X11214380Y3805200D02*
X11214380Y4252240D01*
X11214380Y3378480D02*
X11214380Y3805200D01*
X11214380Y2931440D02*
X11214380Y3378480D01*
D17*
X13700760Y-3029318D02*
X13700760Y-3312160D01*
X13700760Y-1600000D02*
X13700760Y-3029318D01*
X16281400Y272682D02*
X16281400Y-10160D01*
X16281400Y1600000D02*
X16281400Y272682D01*
D18*
X12293600Y-8463600D02*
X12230000Y-8400000D01*
X12293600Y-15646400D02*
X12293600Y-8463600D01*
X8703330Y-9386670D02*
X8703330Y-16751378D01*
X9690000Y-8400000D02*
X8703330Y-9386670D01*
X9553601Y-15446401D02*
X9553601Y-12633299D01*
X9753600Y-15646400D02*
X9553601Y-15446401D01*
X10960000Y-11226900D02*
X10960000Y-8400000D01*
X9553601Y-12633299D02*
X10960000Y-11226900D01*
X13500000Y-8400000D02*
X13500000Y-16895890D01*
X13500000Y-16895890D02*
X13360400Y-17035490D01*
D17*
X-16319502Y-2540D02*
X-17025622Y703580D01*
X-17025622Y703580D02*
X-17292320Y703580D01*
X-16613490Y-12185212D02*
X-19375120Y-9423582D01*
X-15377160Y-18171160D02*
X-16613490Y-16934830D01*
X-19375120Y-9423582D02*
X-19375120Y-8898522D01*
X-19375120Y-8898522D02*
X-19375120Y-8615680D01*
X-16613490Y-16934830D02*
X-16613490Y-12185212D01*
X-15390832Y3303070D02*
X-15110813Y3303070D01*
X-15110813Y3303070D02*
X-14827971Y3303070D01*
X-17729481Y-6970041D02*
X-17729481Y964421D01*
X-19375120Y-8615680D02*
X-17729481Y-6970041D01*
X-17729481Y964421D02*
X-15390832Y3303070D01*
X-15596575Y-9774260D02*
X-16683672Y-8687163D01*
X-16683672Y-8687163D02*
X-16683672Y-8403908D01*
X-12966700Y-2629464D02*
X-12966700Y1564640D01*
X-12966700Y1564640D02*
X-12951460Y1579880D01*
X-13906218Y-3568982D02*
X-12966700Y-2629464D01*
X-13906218Y-5582142D02*
X-13906218Y-3568982D01*
X-11049000Y-11602537D02*
X-11777148Y-10874389D01*
X-13919200Y-9728200D02*
X-13919200Y-5595124D01*
X-11777148Y-10874389D02*
X-12773011Y-10874389D01*
X-12773011Y-10874389D02*
X-13919200Y-9728200D01*
X-11049000Y-12776200D02*
X-11049000Y-11602537D01*
X-13919200Y-5595124D02*
X-13906218Y-5582142D01*
X-12966700Y1564640D02*
X-12966700Y3030220D01*
X-12966700Y3030220D02*
X-12966700Y3449320D01*
X-12966700Y3449320D02*
X-11409680Y5006340D01*
X-11409680Y5006340D02*
X-10350500Y5006340D01*
X-12090400Y4978400D02*
X-12293600Y5181600D01*
X-12293600Y5181600D02*
X-15900400Y5181600D01*
X-3596562Y-17239485D02*
X-3796561Y-17039486D01*
X11838161Y-17505399D02*
X-3330648Y-17505399D01*
X-3330648Y-17505399D02*
X-3596562Y-17239485D01*
X12468362Y-18135600D02*
X11838161Y-17505399D01*
X13208000Y-18135600D02*
X12468362Y-18135600D01*
X-12522200Y-12446000D02*
X-12522200Y-14150340D01*
X-4228149Y-15989961D02*
X-4028150Y-16189960D01*
X-12522200Y-14150340D02*
X-10682579Y-15989961D01*
X-10682579Y-15989961D02*
X-4228149Y-15989961D01*
X-11059293Y-16436912D02*
X-4675072Y-16436912D01*
X375304Y-17178388D02*
X12278910Y-17178388D01*
X-13650495Y-13845710D02*
X-11059293Y-16436912D01*
X-4675072Y-16436912D02*
X-4495023Y-16616961D01*
X-3889230Y-16609342D02*
X-193742Y-16609342D01*
X12563022Y-17462500D02*
X13661758Y-17462500D01*
X-3896849Y-16616961D02*
X-3889230Y-16609342D01*
X13661758Y-17462500D02*
X13944600Y-17462500D01*
X-4495023Y-16616961D02*
X-3896849Y-16616961D01*
X-193742Y-16609342D02*
X375304Y-17178388D01*
X12278910Y-17178388D02*
X12563022Y-17462500D01*
X-9144000Y-4076700D02*
X-5750560Y-7470140D01*
X-9144000Y1511300D02*
X-9144000Y-4076700D01*
X-12471400Y2070100D02*
X-9702800Y2070100D01*
X-9702800Y2070100D02*
X-9144000Y1511300D01*
X-5750560Y-7470140D02*
X-5750560Y-8267700D01*
X-9824537Y2654300D02*
X-11963400Y2654300D01*
X-6184900Y-10238740D02*
X-6184900Y-9588500D01*
X-5308600Y-8712200D02*
X-5308600Y-7449638D01*
X-6184900Y-9588500D02*
X-5308600Y-8712200D01*
X-5308600Y-7449638D02*
X-8816989Y-3941249D01*
X-8816989Y1646752D02*
X-9824537Y2654300D01*
X-8816989Y-3941249D02*
X-8816989Y1646752D01*
X3694282Y-8650118D02*
X720682Y-8650118D01*
X8585200Y-3759200D02*
X3694282Y-8650118D01*
X756271Y-8968549D02*
X756271Y-15470816D01*
X224696Y-16002391D02*
X24697Y-16202390D01*
X756271Y-15470816D02*
X224696Y-16002391D01*
X720682Y-8932960D02*
X756271Y-8968549D01*
X720682Y-8650118D02*
X720682Y-8932960D01*
X24739Y-8813139D02*
X-175260Y-8613140D01*
X-345998Y-15801340D02*
X-121920Y-15801340D01*
X429260Y-9476740D02*
X24739Y-9072219D01*
X-121920Y-15801340D02*
X429260Y-15250160D01*
X429260Y-15250160D02*
X429260Y-9476740D01*
X24739Y-9072219D02*
X24739Y-8813139D01*
X-15169573Y-14385867D02*
X-15169573Y-1141153D01*
X-13614400Y-14808200D02*
X-14747240Y-14808200D01*
X-13830300Y1569700D02*
X-13800000Y1600000D01*
X-13830300Y198120D02*
X-13830300Y1569700D01*
X-15169573Y-1141153D02*
X-13830300Y198120D01*
X-14747240Y-14808200D02*
X-15169573Y-14385867D01*
X-14927262Y-16816120D02*
X-14927262Y-17098962D01*
X-14927262Y-16623716D02*
X-14927262Y-16816120D01*
X-15970618Y-15580360D02*
X-14927262Y-16623716D01*
X-16235680Y-3317240D02*
X-16230600Y-3322320D01*
X-17110674Y-4202394D02*
X-17110674Y-11225566D01*
X-16230600Y-3322320D02*
X-17110674Y-4202394D01*
X-16235680Y-1645920D02*
X-16235680Y-3317240D01*
X-17110674Y-11225566D02*
X-15970618Y-12365622D01*
X-15970618Y-12365622D02*
X-15970618Y-15580360D01*
X-13759421Y13983781D02*
X-13959420Y14183780D01*
X-7366000Y-3454400D02*
X-7829297Y-2991103D01*
X-7829297Y-2991103D02*
X-7829297Y8053657D01*
X-7829297Y8053657D02*
X-13759421Y13983781D01*
X-8156308Y-3349695D02*
X-7686197Y-3819806D01*
X-8156308Y7749908D02*
X-8156308Y-3349695D01*
X-9309100Y8902700D02*
X-8156308Y7749908D01*
X-7686197Y-3819806D02*
X-7486198Y-4019805D01*
X-8483319Y-3671035D02*
X-7826576Y-4327778D01*
X-10058400Y9004300D02*
X-8483319Y7429219D01*
X-7826576Y-4327778D02*
X-7626577Y-4527777D01*
X-8483319Y7429219D02*
X-8483319Y-3671035D01*
X2743200Y9906000D02*
X2743200Y8084638D01*
X-3797268Y-15115630D02*
X-3997267Y-15315629D01*
X-3405491Y-10237908D02*
X-3405491Y-14723853D01*
X-3405491Y-14723853D02*
X-3797268Y-15115630D01*
X3283403Y-7839089D02*
X-1006672Y-7839089D01*
X-1006672Y-7839089D02*
X-3405491Y-10237908D01*
X7739098Y-2329958D02*
X7739098Y-3383394D01*
X7830538Y-2238518D02*
X7739098Y-2329958D01*
X4141259Y6686578D02*
X5469498Y6686578D01*
X5469498Y6686578D02*
X7830538Y4325538D01*
X7830538Y4325538D02*
X7830538Y-2238518D01*
X2743200Y8084638D02*
X4141259Y6686578D01*
X7739098Y-3383394D02*
X3283403Y-7839089D01*
X-14899823Y-19405600D02*
X-17091660Y-17213763D01*
X-13589000Y-19405600D02*
X-14899823Y-19405600D01*
X-17091660Y-13432422D02*
X-17091660Y-13149580D01*
X-17091660Y-17213763D02*
X-17091660Y-13432422D01*
X-14810740Y-15875000D02*
X-15156180Y-15529560D01*
X-13665200Y-15875000D02*
X-14810740Y-15875000D01*
X-15156180Y-15529560D02*
X-15255240Y-15529560D01*
X-15255240Y-15529560D02*
X-15285720Y-15499080D01*
X-14714112Y-15382530D02*
X-15615630Y-14481012D01*
X-14053490Y-15382530D02*
X-14714112Y-15382530D01*
X-15615630Y-11644015D02*
X-15615630Y-11361173D01*
X-15615630Y-14481012D02*
X-15615630Y-11644015D01*
X-12573000Y-11544300D02*
X-13520420Y-11544300D01*
X-12039600Y-12776200D02*
X-12039600Y-12077700D01*
X-12039600Y-12077700D02*
X-12573000Y-11544300D01*
X-14155420Y-10909300D02*
X-13955421Y-11109299D01*
X-13520420Y-11544300D02*
X-13955421Y-11109299D01*
X-11557000Y-12547600D02*
X-11557000Y-11557000D01*
X-11557000Y-11557000D02*
X-11912600Y-11201400D01*
X-14432280Y-9697720D02*
X-14432280Y-5761622D01*
X-14432280Y-5761622D02*
X-14432280Y-5478780D01*
X-12928600Y-11201400D02*
X-14432280Y-9697720D01*
X-11912600Y-11201400D02*
X-12928600Y-11201400D01*
X-13592130Y-6467430D02*
X-13592130Y-6337300D01*
X-12630122Y-10547378D02*
X-13592130Y-9585370D01*
X-11629908Y-10547378D02*
X-12630122Y-10547378D01*
X-10566400Y-12446000D02*
X-10566400Y-11610886D01*
X-10566400Y-11610886D02*
X-11629908Y-10547378D01*
X-13592130Y-9585370D02*
X-13592130Y-6467430D01*
X-10391140Y-3535680D02*
X-10160000Y-3304540D01*
X-13592130Y-6467430D02*
X-13579207Y-6454507D01*
X-13579207Y-6454507D02*
X-13579207Y-5580249D01*
X-11854461Y-4422421D02*
X-10967720Y-3535680D01*
X-13579207Y-5580249D02*
X-12421379Y-4422421D01*
X-10967720Y-3535680D02*
X-10391140Y-3535680D01*
X-12421379Y-4422421D02*
X-11854461Y-4422421D01*
X-10160000Y-3304540D02*
X-10160000Y-2941320D01*
X-9685064Y4325664D02*
X-9685064Y5031696D01*
X-9685064Y5031696D02*
X-8920480Y5796280D01*
X-11123619Y-4295463D02*
X-10923620Y-4095464D01*
X-12285928Y-4749432D02*
X-11577588Y-4749432D01*
X-10058400Y-11656424D02*
X-11494457Y-10220367D01*
X-11494457Y-10220367D02*
X-12446954Y-10220367D01*
X-12446954Y-10220367D02*
X-13252196Y-9415125D01*
X-11577588Y-4749432D02*
X-11123619Y-4295463D01*
X-10058400Y-12776200D02*
X-10058400Y-11656424D01*
X-13252196Y-5715700D02*
X-12285928Y-4749432D01*
X-13252196Y-9415125D02*
X-13252196Y-5715700D01*
X-10955247Y-4794855D02*
X-10755248Y-4594856D01*
X-11236835Y-5076443D02*
X-10955247Y-4794855D01*
X-12925185Y-9279673D02*
X-12925185Y-5907218D01*
X-12925185Y-5907218D02*
X-12094410Y-5076443D01*
X-9525000Y-12446000D02*
X-9525000Y-11727362D01*
X-9525000Y-11727362D02*
X-11359006Y-9893356D01*
X-12094410Y-5076443D02*
X-11236835Y-5076443D01*
X-12311502Y-9893356D02*
X-12925185Y-9279673D01*
X-11359006Y-9893356D02*
X-12311502Y-9893356D01*
X-9154441Y-11670521D02*
X-9154441Y-11635459D01*
X-12598174Y-9144221D02*
X-12598174Y-6044974D01*
X-12176050Y-9566345D02*
X-12598174Y-9144221D01*
X-11324973Y-5456480D02*
X-11042131Y-5456480D01*
X-9154441Y-11635459D02*
X-11223555Y-9566345D01*
X-11223555Y-9566345D02*
X-12176050Y-9566345D01*
X-12009680Y-5456480D02*
X-11324973Y-5456480D01*
X-9042400Y-12700000D02*
X-9042400Y-11782562D01*
X-12598174Y-6044974D02*
X-12009680Y-5456480D01*
X-9042400Y-11782562D02*
X-9154441Y-11670521D01*
X5604949Y7013589D02*
X8201010Y4417528D01*
X3508401Y7781899D02*
X4276711Y7013589D01*
X4276711Y7013589D02*
X5604949Y7013589D01*
X3708400Y9956800D02*
X3508401Y9756801D01*
X3508401Y9756801D02*
X3508401Y7781899D01*
X8201010Y4417528D02*
X8201010Y762000D01*
X8201010Y-2500010D02*
X8166100Y-2534920D01*
X8201010Y762000D02*
X8201010Y-2500010D01*
X-2608580Y-14142720D02*
X-2608580Y-15247620D01*
X-2608580Y-15247620D02*
X-2852420Y-15491460D01*
X8559800Y774700D02*
X8547100Y762000D01*
X8559800Y4521200D02*
X8559800Y774700D01*
X5740400Y7340600D02*
X8559800Y4521200D01*
X5435600Y7340600D02*
X5740400Y7340600D01*
X4724400Y9956800D02*
X4724400Y8051800D01*
X4724400Y8051800D02*
X5435600Y7340600D01*
X-3078480Y-10373360D02*
X-871220Y-8166100D01*
X3535680Y-8166100D02*
X8684542Y-3017238D01*
X8684542Y-2169938D02*
X8559800Y-2045196D01*
X-3078480Y-15095220D02*
X-3078480Y-10373360D01*
X-871220Y-8166100D02*
X3535680Y-8166100D01*
X8684542Y-3017238D02*
X8684542Y-2169938D01*
X-3479800Y-15496540D02*
X-3078480Y-15095220D01*
X8559800Y-2045196D02*
X8559800Y774700D01*
D19*
G36*
X15035912Y19528099D02*
G01*
X16539892Y18271762D01*
X17939301Y16899905D01*
X19225292Y15421201D01*
X20389735Y13845000D01*
X21425267Y12181266D01*
X22325342Y10440517D01*
X23084269Y8633761D01*
X23697250Y6772419D01*
X24160409Y4868260D01*
X24470818Y2933322D01*
X24626515Y979839D01*
X24626515Y-979839D01*
X24470818Y-2933322D01*
X24160409Y-4868260D01*
X23697250Y-6772419D01*
X23084269Y-8633761D01*
X22325342Y-10440517D01*
X21425267Y-12181266D01*
X20389735Y-13845000D01*
X19225292Y-15421201D01*
X17939301Y-16899905D01*
X16539892Y-18271762D01*
X15035912Y-19528099D01*
X13436870Y-20660974D01*
X11752876Y-21663223D01*
X9994577Y-22528510D01*
X8173089Y-23251364D01*
X6299928Y-23827216D01*
X4386936Y-24252425D01*
X2446209Y-24524302D01*
X490016Y-24641128D01*
X-1469274Y-24602166D01*
X-3419276Y-24407660D01*
X-5347660Y-24058841D01*
X-7242234Y-23557915D01*
X-9091020Y-22908048D01*
X-10882330Y-22113349D01*
X-12604839Y-21178842D01*
X-13837954Y-20376885D01*
X-8505800Y-20376885D01*
X-8505800Y-20466315D01*
X-8488353Y-20554027D01*
X-8454130Y-20636650D01*
X-8404445Y-20711008D01*
X-8341208Y-20774245D01*
X-8266850Y-20823930D01*
X-8184227Y-20858153D01*
X-8096515Y-20875600D01*
X-8007085Y-20875600D01*
X-7989716Y-20872145D01*
X-7971530Y-20916050D01*
X-7921845Y-20990408D01*
X-7858608Y-21053645D01*
X-7784250Y-21103330D01*
X-7701627Y-21137553D01*
X-7613915Y-21155000D01*
X-7524485Y-21155000D01*
X-7436773Y-21137553D01*
X-7354150Y-21103330D01*
X-7279792Y-21053645D01*
X-7216555Y-20990408D01*
X-7166870Y-20916050D01*
X-7132647Y-20833427D01*
X-7128045Y-20810293D01*
X-7055115Y-20824800D01*
X-6965685Y-20824800D01*
X-6877973Y-20807353D01*
X-6795350Y-20773130D01*
X-6720992Y-20723445D01*
X-6657755Y-20660208D01*
X-6608070Y-20585850D01*
X-6573847Y-20503227D01*
X-6556400Y-20415515D01*
X-6556400Y-20326085D01*
X-6573847Y-20238373D01*
X-6608070Y-20155750D01*
X-6657755Y-20081392D01*
X-6720992Y-20018155D01*
X-6795350Y-19968470D01*
X-6877973Y-19934247D01*
X-6965685Y-19916800D01*
X-7055115Y-19916800D01*
X-7142827Y-19934247D01*
X-7225450Y-19968470D01*
X-7299808Y-20018155D01*
X-7363045Y-20081392D01*
X-7412730Y-20155750D01*
X-7446953Y-20238373D01*
X-7451555Y-20261507D01*
X-7524485Y-20247000D01*
X-7613915Y-20247000D01*
X-7631284Y-20250455D01*
X-7649470Y-20206550D01*
X-7699155Y-20132192D01*
X-7762392Y-20068955D01*
X-7836750Y-20019270D01*
X-7919373Y-19985047D01*
X-8007085Y-19967600D01*
X-8096515Y-19967600D01*
X-8184227Y-19985047D01*
X-8266850Y-20019270D01*
X-8341208Y-20068955D01*
X-8404445Y-20132192D01*
X-8454130Y-20206550D01*
X-8488353Y-20289173D01*
X-8505800Y-20376885D01*
X-13837954Y-20376885D01*
X-14247655Y-20110436D01*
X-14703308Y-19759600D01*
X-13876380Y-19759600D01*
X-13804050Y-19807930D01*
X-13721427Y-19842153D01*
X-13633715Y-19859600D01*
X-13544285Y-19859600D01*
X-13456573Y-19842153D01*
X-13373950Y-19807930D01*
X-13299592Y-19758245D01*
X-13236355Y-19695008D01*
X-13186670Y-19620650D01*
X-13152447Y-19538027D01*
X-13135000Y-19450315D01*
X-13135000Y-19360885D01*
X-13152447Y-19273173D01*
X-13186670Y-19190550D01*
X-13236355Y-19116192D01*
X-13299592Y-19052955D01*
X-13373950Y-19003270D01*
X-13456573Y-18969047D01*
X-13544285Y-18951600D01*
X-13633715Y-18951600D01*
X-13721427Y-18969047D01*
X-13804050Y-19003270D01*
X-13876380Y-19051600D01*
X-14753191Y-19051600D01*
X-15211036Y-18593755D01*
X-15162110Y-18573490D01*
X-15087752Y-18523805D01*
X-15024515Y-18460568D01*
X-14974830Y-18386210D01*
X-14940607Y-18303587D01*
X-14923160Y-18215875D01*
X-14923160Y-18126445D01*
X-14940607Y-18038733D01*
X-14974830Y-17956110D01*
X-15024515Y-17881752D01*
X-15087752Y-17818515D01*
X-15098273Y-17811485D01*
X-14474800Y-17811485D01*
X-14474800Y-17900915D01*
X-14457353Y-17988627D01*
X-14423130Y-18071250D01*
X-14373445Y-18145608D01*
X-14310208Y-18208845D01*
X-14235850Y-18258530D01*
X-14153227Y-18292753D01*
X-14068400Y-18309626D01*
X-14068400Y-18358115D01*
X-14050953Y-18445827D01*
X-14016730Y-18528450D01*
X-13967045Y-18602808D01*
X-13903808Y-18666045D01*
X-13829450Y-18715730D01*
X-13746827Y-18749953D01*
X-13659115Y-18767400D01*
X-13569685Y-18767400D01*
X-13481973Y-18749953D01*
X-13399350Y-18715730D01*
X-13324992Y-18666045D01*
X-13261755Y-18602808D01*
X-13212070Y-18528450D01*
X-13177847Y-18445827D01*
X-13160400Y-18358115D01*
X-13160400Y-18268685D01*
X-13177847Y-18180973D01*
X-13212070Y-18098350D01*
X-13261755Y-18023992D01*
X-13324992Y-17960755D01*
X-13399350Y-17911070D01*
X-13481973Y-17876847D01*
X-13566800Y-17859974D01*
X-13566800Y-17811485D01*
X-13575479Y-17767854D01*
X-13532773Y-17759359D01*
X-13450150Y-17725136D01*
X-13375792Y-17675451D01*
X-13312555Y-17612214D01*
X-13262870Y-17537856D01*
X-13228647Y-17455233D01*
X-13211200Y-17367521D01*
X-13211200Y-17278091D01*
X-13228647Y-17190379D01*
X-13262870Y-17107756D01*
X-13312555Y-17033398D01*
X-13375792Y-16970161D01*
X-13450150Y-16920476D01*
X-13532773Y-16886253D01*
X-13620485Y-16868806D01*
X-13709915Y-16868806D01*
X-13797627Y-16886253D01*
X-13880250Y-16920476D01*
X-13954608Y-16970161D01*
X-14017845Y-17033398D01*
X-14067530Y-17107756D01*
X-14101753Y-17190379D01*
X-14119200Y-17278091D01*
X-14119200Y-17367521D01*
X-14110521Y-17411152D01*
X-14153227Y-17419647D01*
X-14235850Y-17453870D01*
X-14310208Y-17503555D01*
X-14373445Y-17566792D01*
X-14423130Y-17641150D01*
X-14457353Y-17723773D01*
X-14474800Y-17811485D01*
X-15098273Y-17811485D01*
X-15162110Y-17768830D01*
X-15244733Y-17734607D01*
X-15330053Y-17717636D01*
X-16259490Y-16788200D01*
X-16259490Y-15786380D01*
X-16222143Y-15831886D01*
X-16208641Y-15842967D01*
X-15281262Y-16770348D01*
X-15281262Y-16811582D01*
X-15329592Y-16883912D01*
X-15363815Y-16966535D01*
X-15381262Y-17054247D01*
X-15381262Y-17143677D01*
X-15363815Y-17231389D01*
X-15329592Y-17314012D01*
X-15279907Y-17388370D01*
X-15216670Y-17451607D01*
X-15142312Y-17501292D01*
X-15059689Y-17535515D01*
X-14971977Y-17552962D01*
X-14882547Y-17552962D01*
X-14794835Y-17535515D01*
X-14712212Y-17501292D01*
X-14637854Y-17451607D01*
X-14574617Y-17388370D01*
X-14524932Y-17314012D01*
X-14490709Y-17231389D01*
X-14473262Y-17143677D01*
X-14473262Y-17054247D01*
X-14490709Y-16966535D01*
X-14524932Y-16883912D01*
X-14573262Y-16811582D01*
X-14573262Y-16641090D01*
X-14571551Y-16623715D01*
X-14573262Y-16606341D01*
X-14573262Y-16606334D01*
X-14578013Y-16558101D01*
X-14578385Y-16554319D01*
X-14588688Y-16520356D01*
X-14598627Y-16487591D01*
X-14631498Y-16426093D01*
X-14637042Y-16419338D01*
X-14664656Y-16385690D01*
X-14664664Y-16385682D01*
X-14675737Y-16372190D01*
X-14689228Y-16361118D01*
X-14820607Y-16229739D01*
X-14810740Y-16230711D01*
X-14793366Y-16229000D01*
X-13952580Y-16229000D01*
X-13880250Y-16277330D01*
X-13797627Y-16311553D01*
X-13709915Y-16329000D01*
X-13620485Y-16329000D01*
X-13532773Y-16311553D01*
X-13450150Y-16277330D01*
X-13375792Y-16227645D01*
X-13312555Y-16164408D01*
X-13262870Y-16090050D01*
X-13228647Y-16007427D01*
X-13211200Y-15919715D01*
X-13211200Y-15830285D01*
X-13228647Y-15742573D01*
X-13262870Y-15659950D01*
X-13312555Y-15585592D01*
X-13375792Y-15522355D01*
X-13450150Y-15472670D01*
X-13532773Y-15438447D01*
X-13599490Y-15425176D01*
X-13599490Y-15337815D01*
X-13614531Y-15262200D01*
X-13569685Y-15262200D01*
X-13481973Y-15244753D01*
X-13399350Y-15210530D01*
X-13324992Y-15160845D01*
X-13261755Y-15097608D01*
X-13212070Y-15023250D01*
X-13177847Y-14940627D01*
X-13160400Y-14852915D01*
X-13160400Y-14836435D01*
X-11321900Y-16674936D01*
X-11310819Y-16688438D01*
X-11256916Y-16732676D01*
X-11195418Y-16765547D01*
X-11158058Y-16776880D01*
X-11128690Y-16785789D01*
X-11121857Y-16786462D01*
X-11076675Y-16790912D01*
X-11076668Y-16790912D01*
X-11059294Y-16792623D01*
X-11041919Y-16790912D01*
X-6188438Y-16790912D01*
X-6194400Y-16820885D01*
X-6194400Y-16910315D01*
X-6182480Y-16970238D01*
X-6200106Y-16977539D01*
X-6274464Y-17027224D01*
X-6337701Y-17090461D01*
X-6387386Y-17164819D01*
X-6421609Y-17247442D01*
X-6439056Y-17335154D01*
X-6439056Y-17424584D01*
X-6421609Y-17512296D01*
X-6387386Y-17594919D01*
X-6337701Y-17669277D01*
X-6274464Y-17732514D01*
X-6200106Y-17782199D01*
X-6117483Y-17816422D01*
X-6092800Y-17821332D01*
X-6092800Y-17821885D01*
X-6079685Y-17887818D01*
X-6152227Y-17902247D01*
X-6234850Y-17936470D01*
X-6309208Y-17986155D01*
X-6372445Y-18049392D01*
X-6422130Y-18123750D01*
X-6456353Y-18206373D01*
X-6473800Y-18294085D01*
X-6473800Y-18383515D01*
X-6456353Y-18471227D01*
X-6422130Y-18553850D01*
X-6372445Y-18628208D01*
X-6309208Y-18691445D01*
X-6234850Y-18741130D01*
X-6152227Y-18775353D01*
X-6064515Y-18792800D01*
X-5975085Y-18792800D01*
X-5887373Y-18775353D01*
X-5804750Y-18741130D01*
X-5730392Y-18691445D01*
X-5667155Y-18628208D01*
X-5617470Y-18553850D01*
X-5583247Y-18471227D01*
X-5565800Y-18383515D01*
X-5565800Y-18294085D01*
X-5578915Y-18228152D01*
X-5506373Y-18213723D01*
X-5423750Y-18179500D01*
X-5349392Y-18129815D01*
X-5286155Y-18066578D01*
X-5236470Y-17992220D01*
X-5202247Y-17909597D01*
X-5184800Y-17821885D01*
X-5184800Y-17732455D01*
X-5202247Y-17644743D01*
X-5236470Y-17562120D01*
X-5286155Y-17487762D01*
X-5349392Y-17424525D01*
X-5423750Y-17374840D01*
X-5506373Y-17340617D01*
X-5531056Y-17335707D01*
X-5531056Y-17335154D01*
X-5542976Y-17275231D01*
X-5525350Y-17267930D01*
X-5450992Y-17218245D01*
X-5387755Y-17155008D01*
X-5338070Y-17080650D01*
X-5303847Y-16998027D01*
X-5286400Y-16910315D01*
X-5286400Y-16820885D01*
X-5292362Y-16790912D01*
X-4821702Y-16790912D01*
X-4757635Y-16854979D01*
X-4746549Y-16868487D01*
X-4692646Y-16912725D01*
X-4631148Y-16945596D01*
X-4564419Y-16965838D01*
X-4512405Y-16970961D01*
X-4512397Y-16970961D01*
X-4495023Y-16972672D01*
X-4477649Y-16970961D01*
X-4245825Y-16970961D01*
X-4250561Y-16994771D01*
X-4250561Y-17084201D01*
X-4233114Y-17171913D01*
X-4198891Y-17254536D01*
X-4149206Y-17328894D01*
X-4085969Y-17392131D01*
X-4011611Y-17441816D01*
X-3928988Y-17476039D01*
X-3843668Y-17493010D01*
X-3834587Y-17502091D01*
X-3834582Y-17502095D01*
X-3593251Y-17743427D01*
X-3582174Y-17756925D01*
X-3568677Y-17768002D01*
X-3568674Y-17768005D01*
X-3550457Y-17782955D01*
X-3528271Y-17801163D01*
X-3466773Y-17834034D01*
X-3426693Y-17846192D01*
X-3400045Y-17854276D01*
X-3393212Y-17854949D01*
X-3348030Y-17859399D01*
X-3348023Y-17859399D01*
X-3330649Y-17861110D01*
X-3313274Y-17859399D01*
X-782219Y-17859399D01*
X-1078564Y-17982149D01*
X-1451503Y-18231339D01*
X-1768661Y-18548497D01*
X-2017851Y-18921436D01*
X-2189496Y-19335824D01*
X-2277000Y-19775735D01*
X-2277000Y-20224265D01*
X-2189496Y-20664176D01*
X-2017851Y-21078564D01*
X-1768661Y-21451503D01*
X-1451503Y-21768661D01*
X-1078564Y-22017851D01*
X-664176Y-22189496D01*
X-224265Y-22277000D01*
X224265Y-22277000D01*
X664176Y-22189496D01*
X1078564Y-22017851D01*
X1451503Y-21768661D01*
X1768661Y-21451503D01*
X2017851Y-21078564D01*
X2189496Y-20664176D01*
X2277000Y-20224265D01*
X2277000Y-19775735D01*
X2189496Y-19335824D01*
X2017851Y-18921436D01*
X1768661Y-18548497D01*
X1451503Y-18231339D01*
X1078564Y-17982149D01*
X782219Y-17859399D01*
X11691531Y-17859399D01*
X12205755Y-18373624D01*
X12216836Y-18387126D01*
X12270739Y-18431364D01*
X12332237Y-18464235D01*
X12398965Y-18484477D01*
X12405185Y-18485090D01*
X12450980Y-18489600D01*
X12450987Y-18489600D01*
X12468362Y-18491311D01*
X12485736Y-18489600D01*
X12920620Y-18489600D01*
X12992950Y-18537930D01*
X13075573Y-18572153D01*
X13163285Y-18589600D01*
X13252715Y-18589600D01*
X13340427Y-18572153D01*
X13423050Y-18537930D01*
X13497408Y-18488245D01*
X13560645Y-18425008D01*
X13610330Y-18350650D01*
X13644553Y-18268027D01*
X13662000Y-18180315D01*
X13662000Y-18090885D01*
X13644553Y-18003173D01*
X13610330Y-17920550D01*
X13560645Y-17846192D01*
X13530953Y-17816500D01*
X13657220Y-17816500D01*
X13729550Y-17864830D01*
X13812173Y-17899053D01*
X13899885Y-17916500D01*
X13989315Y-17916500D01*
X14077027Y-17899053D01*
X14159650Y-17864830D01*
X14234008Y-17815145D01*
X14297245Y-17751908D01*
X14346930Y-17677550D01*
X14381153Y-17594927D01*
X14398600Y-17507215D01*
X14398600Y-17417785D01*
X14381153Y-17330073D01*
X14346930Y-17247450D01*
X14297245Y-17173092D01*
X14234008Y-17109855D01*
X14159650Y-17060170D01*
X14077027Y-17025947D01*
X13989315Y-17008500D01*
X13899885Y-17008500D01*
X13859454Y-17016542D01*
X13873515Y-16970187D01*
X13879000Y-16914500D01*
X13879000Y-16914498D01*
X13880833Y-16895891D01*
X13879000Y-16877284D01*
X13879000Y-9451869D01*
X16096000Y-9451869D01*
X16096000Y-9748131D01*
X16153798Y-10038701D01*
X16267173Y-10312411D01*
X16431767Y-10558744D01*
X16641256Y-10768233D01*
X16887589Y-10932827D01*
X17161299Y-11046202D01*
X17451869Y-11104000D01*
X17748131Y-11104000D01*
X18038701Y-11046202D01*
X18312411Y-10932827D01*
X18558744Y-10768233D01*
X18768233Y-10558744D01*
X18932827Y-10312411D01*
X19046202Y-10038701D01*
X19104000Y-9748131D01*
X19104000Y-9451869D01*
X19046202Y-9161299D01*
X18932827Y-8887589D01*
X18768233Y-8641256D01*
X18558744Y-8431767D01*
X18312411Y-8267173D01*
X18038701Y-8153798D01*
X17748131Y-8096000D01*
X17451869Y-8096000D01*
X17161299Y-8153798D01*
X16887589Y-8267173D01*
X16641256Y-8431767D01*
X16431767Y-8641256D01*
X16267173Y-8887589D01*
X16153798Y-9161299D01*
X16096000Y-9451869D01*
X13879000Y-9451869D01*
X13879000Y-9155228D01*
X14000000Y-9155228D01*
X14049793Y-9150324D01*
X14097672Y-9135800D01*
X14141797Y-9112214D01*
X14180473Y-9080473D01*
X14212214Y-9041797D01*
X14235800Y-8997672D01*
X14250324Y-8949793D01*
X14255228Y-8900000D01*
X14255228Y-7900000D01*
X14250324Y-7850207D01*
X14235800Y-7802328D01*
X14212214Y-7758203D01*
X14180473Y-7719527D01*
X14141797Y-7687786D01*
X14097672Y-7664200D01*
X14049793Y-7649676D01*
X14000000Y-7644772D01*
X13000000Y-7644772D01*
X12950207Y-7649676D01*
X12902328Y-7664200D01*
X12858203Y-7687786D01*
X12819527Y-7719527D01*
X12787786Y-7758203D01*
X12764200Y-7802328D01*
X12749676Y-7850207D01*
X12749393Y-7853076D01*
X12710647Y-7814330D01*
X12587153Y-7731814D01*
X12449934Y-7674976D01*
X12304262Y-7646000D01*
X12155738Y-7646000D01*
X12010066Y-7674976D01*
X11872847Y-7731814D01*
X11749353Y-7814330D01*
X11644330Y-7919353D01*
X11595000Y-7993181D01*
X11545670Y-7919353D01*
X11440647Y-7814330D01*
X11317153Y-7731814D01*
X11179934Y-7674976D01*
X11034262Y-7646000D01*
X10885738Y-7646000D01*
X10740066Y-7674976D01*
X10602847Y-7731814D01*
X10479353Y-7814330D01*
X10374330Y-7919353D01*
X10325000Y-7993181D01*
X10275670Y-7919353D01*
X10170647Y-7814330D01*
X10047153Y-7731814D01*
X9909934Y-7674976D01*
X9764262Y-7646000D01*
X9615738Y-7646000D01*
X9470066Y-7674976D01*
X9332847Y-7731814D01*
X9209353Y-7814330D01*
X9104330Y-7919353D01*
X9021814Y-8042847D01*
X8964976Y-8180066D01*
X8936000Y-8325738D01*
X8936000Y-8474262D01*
X8959850Y-8594164D01*
X8448504Y-9105510D01*
X8434040Y-9117380D01*
X8386679Y-9175092D01*
X8351486Y-9240933D01*
X8339078Y-9281837D01*
X8329815Y-9312373D01*
X8322497Y-9386670D01*
X8324330Y-9405280D01*
X8324331Y-16501411D01*
X8301000Y-16536328D01*
X8266777Y-16618951D01*
X8249330Y-16706663D01*
X8249330Y-16796093D01*
X8254958Y-16824388D01*
X521936Y-16824388D01*
X277225Y-16579678D01*
X314105Y-16555035D01*
X377342Y-16491798D01*
X427027Y-16417440D01*
X461250Y-16334817D01*
X478221Y-16249497D01*
X487302Y-16240416D01*
X487306Y-16240411D01*
X994300Y-15733419D01*
X1007797Y-15722342D01*
X1018874Y-15708845D01*
X1018878Y-15708841D01*
X1035093Y-15689082D01*
X1052035Y-15668439D01*
X1084906Y-15606941D01*
X1105148Y-15540212D01*
X1110271Y-15488198D01*
X1110271Y-15488186D01*
X1111982Y-15470816D01*
X1110271Y-15453442D01*
X1110271Y-9850054D01*
X1138566Y-9855682D01*
X1227996Y-9855682D01*
X1315708Y-9838235D01*
X1398331Y-9804012D01*
X1472689Y-9754327D01*
X1535926Y-9691090D01*
X1585611Y-9616732D01*
X1619834Y-9534109D01*
X1636192Y-9451869D01*
X4096000Y-9451869D01*
X4096000Y-9748131D01*
X4153798Y-10038701D01*
X4267173Y-10312411D01*
X4431767Y-10558744D01*
X4641256Y-10768233D01*
X4887589Y-10932827D01*
X5161299Y-11046202D01*
X5451869Y-11104000D01*
X5748131Y-11104000D01*
X6038701Y-11046202D01*
X6312411Y-10932827D01*
X6558744Y-10768233D01*
X6768233Y-10558744D01*
X6932827Y-10312411D01*
X7046202Y-10038701D01*
X7104000Y-9748131D01*
X7104000Y-9451869D01*
X7046202Y-9161299D01*
X6932827Y-8887589D01*
X6768233Y-8641256D01*
X6558744Y-8431767D01*
X6312411Y-8267173D01*
X6038701Y-8153798D01*
X5748131Y-8096000D01*
X5451869Y-8096000D01*
X5161299Y-8153798D01*
X4887589Y-8267173D01*
X4641256Y-8431767D01*
X4431767Y-8641256D01*
X4267173Y-8887589D01*
X4153798Y-9161299D01*
X4096000Y-9451869D01*
X1636192Y-9451869D01*
X1637281Y-9446397D01*
X1637281Y-9356967D01*
X1619834Y-9269255D01*
X1585611Y-9186632D01*
X1535926Y-9112274D01*
X1472689Y-9049037D01*
X1405464Y-9004118D01*
X3676908Y-9004118D01*
X3694282Y-9005829D01*
X3711656Y-9004118D01*
X3711664Y-9004118D01*
X3763678Y-8998995D01*
X3830407Y-8978753D01*
X3891905Y-8945882D01*
X3945808Y-8901644D01*
X3956894Y-8888136D01*
X8632308Y-4212724D01*
X8717627Y-4195753D01*
X8800250Y-4161530D01*
X8874608Y-4111845D01*
X8937845Y-4048608D01*
X8987530Y-3974250D01*
X9021753Y-3891627D01*
X9039200Y-3803915D01*
X9039200Y-3714485D01*
X9021753Y-3626773D01*
X8987530Y-3544150D01*
X8937845Y-3469792D01*
X8874608Y-3406555D01*
X8827400Y-3375012D01*
X8922576Y-3279836D01*
X8936067Y-3268764D01*
X8947140Y-3255272D01*
X8947148Y-3255264D01*
X8980305Y-3214862D01*
X8980306Y-3214861D01*
X9013177Y-3153363D01*
X9033419Y-3086634D01*
X9038542Y-3034620D01*
X9038542Y-3034611D01*
X9040253Y-3017239D01*
X9038542Y-2999867D01*
X9038542Y-2187312D01*
X9040253Y-2169938D01*
X9038542Y-2152563D01*
X9038542Y-2152556D01*
X9033419Y-2100542D01*
X9032760Y-2098367D01*
X9013177Y-2033813D01*
X9003639Y-2015969D01*
X8980306Y-1972315D01*
X8936068Y-1918412D01*
X8922560Y-1907326D01*
X8913800Y-1898566D01*
X8913800Y-818885D01*
X9756800Y-818885D01*
X9756800Y-908315D01*
X9774247Y-996027D01*
X9808470Y-1078650D01*
X9858155Y-1153008D01*
X9921392Y-1216245D01*
X9995750Y-1265930D01*
X10078373Y-1300153D01*
X10166085Y-1317600D01*
X10255515Y-1317600D01*
X10343227Y-1300153D01*
X10425850Y-1265930D01*
X10500208Y-1216245D01*
X10563445Y-1153008D01*
X10613130Y-1078650D01*
X10647353Y-996027D01*
X10664800Y-908315D01*
X10664800Y-818885D01*
X10647353Y-731173D01*
X10613130Y-648550D01*
X10563445Y-574192D01*
X10500208Y-510955D01*
X10425850Y-461270D01*
X10343227Y-427047D01*
X10255515Y-409600D01*
X10166085Y-409600D01*
X10078373Y-427047D01*
X9995750Y-461270D01*
X9921392Y-510955D01*
X9858155Y-574192D01*
X9808470Y-648550D01*
X9774247Y-731173D01*
X9756800Y-818885D01*
X8913800Y-818885D01*
X8913800Y-400000D01*
X12974772Y-400000D01*
X12974772Y-2910000D01*
X12979676Y-2959793D01*
X12994200Y-3007672D01*
X13017786Y-3051797D01*
X13049527Y-3090473D01*
X13088203Y-3122214D01*
X13132328Y-3145800D01*
X13180207Y-3160324D01*
X13230000Y-3165228D01*
X13270215Y-3165228D01*
X13264207Y-3179733D01*
X13246760Y-3267445D01*
X13246760Y-3356875D01*
X13264207Y-3444587D01*
X13298430Y-3527210D01*
X13348115Y-3601568D01*
X13411352Y-3664805D01*
X13485710Y-3714490D01*
X13568333Y-3748713D01*
X13656045Y-3766160D01*
X13745475Y-3766160D01*
X13833187Y-3748713D01*
X13915810Y-3714490D01*
X13990168Y-3664805D01*
X14053405Y-3601568D01*
X14103090Y-3527210D01*
X14137313Y-3444587D01*
X14154760Y-3356875D01*
X14154760Y-3267445D01*
X14137313Y-3179733D01*
X14131305Y-3165228D01*
X14230000Y-3165228D01*
X14279793Y-3160324D01*
X14327672Y-3145800D01*
X14371797Y-3122214D01*
X14410473Y-3090473D01*
X14442214Y-3051797D01*
X14465800Y-3007672D01*
X14480324Y-2959793D01*
X14485228Y-2910000D01*
X14485228Y-400000D01*
X14480324Y-350207D01*
X14465800Y-302328D01*
X14442214Y-258203D01*
X14410473Y-219527D01*
X14371797Y-187786D01*
X14327672Y-164200D01*
X14279793Y-149676D01*
X14230000Y-144772D01*
X13230000Y-144772D01*
X13180207Y-149676D01*
X13132328Y-164200D01*
X13088203Y-187786D01*
X13049527Y-219527D01*
X13017786Y-258203D01*
X12994200Y-302328D01*
X12979676Y-350207D01*
X12974772Y-400000D01*
X8913800Y-400000D01*
X8913800Y757326D01*
X8915511Y774700D01*
X8913800Y792074D01*
X8913800Y2396755D01*
X9375800Y2396755D01*
X9375800Y2307325D01*
X9393247Y2219613D01*
X9427470Y2136990D01*
X9477155Y2062632D01*
X9540392Y1999395D01*
X9614750Y1949710D01*
X9697373Y1915487D01*
X9785085Y1898040D01*
X9874515Y1898040D01*
X9962227Y1915487D01*
X10044850Y1949710D01*
X10119208Y1999395D01*
X10182445Y2062632D01*
X10232130Y2136990D01*
X10266353Y2219613D01*
X10283800Y2307325D01*
X10283800Y2396755D01*
X10266353Y2484467D01*
X10232130Y2567090D01*
X10182445Y2641448D01*
X10119208Y2704685D01*
X10044850Y2754370D01*
X9962227Y2788593D01*
X9874515Y2806040D01*
X9785085Y2806040D01*
X9697373Y2788593D01*
X9614750Y2754370D01*
X9540392Y2704685D01*
X9477155Y2641448D01*
X9427470Y2567090D01*
X9393247Y2484467D01*
X9375800Y2396755D01*
X8913800Y2396755D01*
X8913800Y2910000D01*
X10434772Y2910000D01*
X10434772Y400000D01*
X10439676Y350207D01*
X10454200Y302328D01*
X10477786Y258203D01*
X10509527Y219527D01*
X10548203Y187786D01*
X10592328Y164200D01*
X10640207Y149676D01*
X10690000Y144772D01*
X11690000Y144772D01*
X11739793Y149676D01*
X11787672Y164200D01*
X11831797Y187786D01*
X11870473Y219527D01*
X11902214Y258203D01*
X11925800Y302328D01*
X11940324Y350207D01*
X11945228Y400000D01*
X11945228Y2910000D01*
X15514772Y2910000D01*
X15514772Y400000D01*
X15519676Y350207D01*
X15534200Y302328D01*
X15557786Y258203D01*
X15589527Y219527D01*
X15628203Y187786D01*
X15672328Y164200D01*
X15720207Y149676D01*
X15770000Y144772D01*
X15854169Y144772D01*
X15844847Y122267D01*
X15827400Y34555D01*
X15827400Y-54875D01*
X15844847Y-142587D01*
X15879070Y-225210D01*
X15928755Y-299568D01*
X15991992Y-362805D01*
X16066350Y-412490D01*
X16148973Y-446713D01*
X16236685Y-464160D01*
X16326115Y-464160D01*
X16413827Y-446713D01*
X16496450Y-412490D01*
X16570808Y-362805D01*
X16634045Y-299568D01*
X16683730Y-225210D01*
X16717953Y-142587D01*
X16735400Y-54875D01*
X16735400Y34555D01*
X16717953Y122267D01*
X16708631Y144772D01*
X16770000Y144772D01*
X16819793Y149676D01*
X16867672Y164200D01*
X16911797Y187786D01*
X16950473Y219527D01*
X16982214Y258203D01*
X17005800Y302328D01*
X17020324Y350207D01*
X17025228Y400000D01*
X17025228Y2910000D01*
X17020324Y2959793D01*
X17005800Y3007672D01*
X16982214Y3051797D01*
X16950473Y3090473D01*
X16911797Y3122214D01*
X16867672Y3145800D01*
X16819793Y3160324D01*
X16770000Y3165228D01*
X15770000Y3165228D01*
X15720207Y3160324D01*
X15672328Y3145800D01*
X15628203Y3122214D01*
X15589527Y3090473D01*
X15557786Y3051797D01*
X15534200Y3007672D01*
X15519676Y2959793D01*
X15514772Y2910000D01*
X11945228Y2910000D01*
X11940324Y2959793D01*
X11925800Y3007672D01*
X11902214Y3051797D01*
X11870473Y3090473D01*
X11831797Y3122214D01*
X11787672Y3145800D01*
X11739793Y3160324D01*
X11693380Y3164895D01*
X11693380Y5581915D01*
X18088000Y5581915D01*
X18088000Y5492485D01*
X18105447Y5404773D01*
X18139670Y5322150D01*
X18189355Y5247792D01*
X18252592Y5184555D01*
X18326950Y5134870D01*
X18409573Y5100647D01*
X18497285Y5083200D01*
X18586715Y5083200D01*
X18674427Y5100647D01*
X18757050Y5134870D01*
X18831408Y5184555D01*
X18894645Y5247792D01*
X18944330Y5322150D01*
X18978553Y5404773D01*
X18996000Y5492485D01*
X18996000Y5581915D01*
X18978553Y5669627D01*
X18944330Y5752250D01*
X18894645Y5826608D01*
X18831408Y5889845D01*
X18757050Y5939530D01*
X18674427Y5973753D01*
X18586715Y5991200D01*
X18497285Y5991200D01*
X18409573Y5973753D01*
X18326950Y5939530D01*
X18252592Y5889845D01*
X18189355Y5826608D01*
X18139670Y5752250D01*
X18105447Y5669627D01*
X18088000Y5581915D01*
X11693380Y5581915D01*
X11693380Y6064580D01*
X11695697Y6088101D01*
X11692071Y6124914D01*
X11686449Y6182000D01*
X11659059Y6272292D01*
X11630073Y6326520D01*
X11614580Y6355506D01*
X11574911Y6403843D01*
X11554723Y6428443D01*
X11536441Y6443446D01*
X11526008Y6453879D01*
X11471345Y6498740D01*
X11388132Y6543218D01*
X11297840Y6570608D01*
X11203940Y6579857D01*
X11110040Y6570608D01*
X11019748Y6543218D01*
X10936535Y6498740D01*
X10863598Y6438882D01*
X10803740Y6365945D01*
X10759262Y6282732D01*
X10731872Y6192440D01*
X10722623Y6098540D01*
X10731872Y6004640D01*
X10735381Y5993073D01*
X10735380Y5595235D01*
X10735381Y5595226D01*
X10735380Y5117715D01*
X10735381Y5117706D01*
X10735380Y4697407D01*
X10735380Y3165228D01*
X10690000Y3165228D01*
X10640207Y3160324D01*
X10592328Y3145800D01*
X10548203Y3122214D01*
X10509527Y3090473D01*
X10477786Y3051797D01*
X10454200Y3007672D01*
X10439676Y2959793D01*
X10434772Y2910000D01*
X8913800Y2910000D01*
X8913800Y4503826D01*
X8915511Y4521200D01*
X8913800Y4538574D01*
X8913800Y4538582D01*
X8908677Y4590596D01*
X8888435Y4657325D01*
X8855564Y4718823D01*
X8826026Y4754814D01*
X8822406Y4759225D01*
X8822403Y4759228D01*
X8811325Y4772726D01*
X8797828Y4783803D01*
X6003012Y7578618D01*
X5991926Y7592126D01*
X5938023Y7636364D01*
X5876525Y7669235D01*
X5809796Y7689477D01*
X5757782Y7694600D01*
X5757774Y7694600D01*
X5740400Y7696311D01*
X5723026Y7694600D01*
X5582231Y7694600D01*
X5078400Y8198430D01*
X5078400Y9669420D01*
X5126730Y9741750D01*
X5160953Y9824373D01*
X5178400Y9912085D01*
X5178400Y10001515D01*
X5160953Y10089227D01*
X5126730Y10171850D01*
X5077045Y10246208D01*
X5013808Y10309445D01*
X4939450Y10359130D01*
X4856827Y10393353D01*
X4769115Y10410800D01*
X4679685Y10410800D01*
X4591973Y10393353D01*
X4509350Y10359130D01*
X4434992Y10309445D01*
X4371755Y10246208D01*
X4322070Y10171850D01*
X4287847Y10089227D01*
X4270400Y10001515D01*
X4270400Y9912085D01*
X4287847Y9824373D01*
X4322070Y9741750D01*
X4370400Y9669420D01*
X4370401Y8623962D01*
X4361318Y8633045D01*
X4286960Y8682730D01*
X4204337Y8716953D01*
X4116625Y8734400D01*
X4027195Y8734400D01*
X3939483Y8716953D01*
X3862401Y8685025D01*
X3862401Y9529183D01*
X3923450Y9554470D01*
X3997808Y9604155D01*
X4061045Y9667392D01*
X4110730Y9741750D01*
X4144953Y9824373D01*
X4162400Y9912085D01*
X4162400Y10001515D01*
X4144953Y10089227D01*
X4110730Y10171850D01*
X4061045Y10246208D01*
X3997808Y10309445D01*
X3923450Y10359130D01*
X3840827Y10393353D01*
X3753115Y10410800D01*
X3663685Y10410800D01*
X3575973Y10393353D01*
X3493350Y10359130D01*
X3418992Y10309445D01*
X3355755Y10246208D01*
X3306070Y10171850D01*
X3271847Y10089227D01*
X3255396Y10006524D01*
X3212637Y9954423D01*
X3197200Y9925542D01*
X3197200Y9950715D01*
X3179753Y10038427D01*
X3145530Y10121050D01*
X3095845Y10195408D01*
X3032608Y10258645D01*
X2958250Y10308330D01*
X2875627Y10342553D01*
X2787915Y10360000D01*
X2698485Y10360000D01*
X2610773Y10342553D01*
X2528150Y10308330D01*
X2453792Y10258645D01*
X2390555Y10195408D01*
X2340870Y10121050D01*
X2306647Y10038427D01*
X2289200Y9950715D01*
X2289200Y9861285D01*
X2306647Y9773573D01*
X2340870Y9690950D01*
X2389200Y9618620D01*
X2389201Y8102022D01*
X2387489Y8084638D01*
X2394323Y8015242D01*
X2414566Y7948513D01*
X2447437Y7887015D01*
X2491675Y7833112D01*
X2505177Y7822031D01*
X3120714Y7206493D01*
X2542360Y7452267D01*
X1430209Y7743021D01*
X287574Y7868747D01*
X-861189Y7826764D01*
X-1991597Y7617967D01*
X-3079559Y7246806D01*
X-4101884Y6721192D01*
X-5036785Y6052328D01*
X-5864336Y5254468D01*
X-6566899Y4344619D01*
X-7129499Y3342172D01*
X-7475297Y2438049D01*
X-7475297Y8036283D01*
X-7473586Y8053657D01*
X-7475297Y8071032D01*
X-7475297Y8071039D01*
X-7480420Y8123053D01*
X-7482762Y8130776D01*
X-7500662Y8189782D01*
X-7517222Y8220763D01*
X-7533533Y8251280D01*
X-7577771Y8305183D01*
X-7591273Y8316264D01*
X-11410124Y12135115D01*
X-5178400Y12135115D01*
X-5178400Y12045685D01*
X-5160953Y11957973D01*
X-5126730Y11875350D01*
X-5077045Y11800992D01*
X-5013808Y11737755D01*
X-4939450Y11688070D01*
X-4856827Y11653847D01*
X-4769115Y11636400D01*
X-4710521Y11636400D01*
X-4703753Y11602373D01*
X-4669530Y11519750D01*
X-4619845Y11445392D01*
X-4556608Y11382155D01*
X-4482250Y11332470D01*
X-4399627Y11298247D01*
X-4311915Y11280800D01*
X-4222485Y11280800D01*
X-4134773Y11298247D01*
X-4052150Y11332470D01*
X-3977792Y11382155D01*
X-3914555Y11445392D01*
X-3864870Y11519750D01*
X-3830647Y11602373D01*
X-3823119Y11640220D01*
X-3803915Y11636400D01*
X-3714485Y11636400D01*
X-3683369Y11642589D01*
X-3653530Y11570550D01*
X-3603845Y11496192D01*
X-3540608Y11432955D01*
X-3466250Y11383270D01*
X-3383627Y11349047D01*
X-3295915Y11331600D01*
X-3206485Y11331600D01*
X-3118773Y11349047D01*
X-3036150Y11383270D01*
X-2961792Y11432955D01*
X-2898555Y11496192D01*
X-2848870Y11570550D01*
X-2814647Y11653173D01*
X-2797200Y11740885D01*
X-2797200Y11830315D01*
X-2804778Y11868415D01*
X295300Y11868415D01*
X295300Y11778985D01*
X312747Y11691273D01*
X346970Y11608650D01*
X396655Y11534292D01*
X459892Y11471055D01*
X534250Y11421370D01*
X616873Y11387147D01*
X704585Y11369700D01*
X794015Y11369700D01*
X881727Y11387147D01*
X964350Y11421370D01*
X1038708Y11471055D01*
X1101945Y11534292D01*
X1151630Y11608650D01*
X1185853Y11691273D01*
X1203300Y11778985D01*
X1203300Y11868415D01*
X1185853Y11956127D01*
X1151630Y12038750D01*
X1101945Y12113108D01*
X1038708Y12176345D01*
X964350Y12226030D01*
X881727Y12260253D01*
X794015Y12277700D01*
X704585Y12277700D01*
X616873Y12260253D01*
X534250Y12226030D01*
X459892Y12176345D01*
X396655Y12113108D01*
X346970Y12038750D01*
X312747Y11956127D01*
X295300Y11868415D01*
X-2804778Y11868415D01*
X-2814647Y11918027D01*
X-2848870Y12000650D01*
X-2898555Y12075008D01*
X-2961792Y12138245D01*
X-3036150Y12187930D01*
X-3118773Y12222153D01*
X-3206485Y12239600D01*
X-3295915Y12239600D01*
X-3327031Y12233411D01*
X-3356870Y12305450D01*
X-3406555Y12379808D01*
X-3469792Y12443045D01*
X-3544150Y12492730D01*
X-3626773Y12526953D01*
X-3714485Y12544400D01*
X-3803915Y12544400D01*
X-3891627Y12526953D01*
X-3974250Y12492730D01*
X-4048608Y12443045D01*
X-4111845Y12379808D01*
X-4161530Y12305450D01*
X-4195753Y12222827D01*
X-4203281Y12184980D01*
X-4222485Y12188800D01*
X-4281079Y12188800D01*
X-4287847Y12222827D01*
X-4322070Y12305450D01*
X-4371755Y12379808D01*
X-4434992Y12443045D01*
X-4509350Y12492730D01*
X-4591973Y12526953D01*
X-4679685Y12544400D01*
X-4769115Y12544400D01*
X-4856827Y12526953D01*
X-4939450Y12492730D01*
X-5013808Y12443045D01*
X-5077045Y12379808D01*
X-5126730Y12305450D01*
X-5160953Y12222827D01*
X-5178400Y12135115D01*
X-11410124Y12135115D01*
X-12656695Y13381685D01*
X-10286099Y15321264D01*
X-7066604Y16510000D01*
X9906000Y16510000D01*
X9906000Y11176000D01*
X9910881Y11126447D01*
X9925335Y11078798D01*
X9948807Y11034885D01*
X9980395Y10996395D01*
X10018885Y10964807D01*
X10062798Y10941335D01*
X10110447Y10926881D01*
X10160000Y10922000D01*
X13208000Y10922000D01*
X13257553Y10926881D01*
X13305202Y10941335D01*
X13349115Y10964807D01*
X13387605Y10996395D01*
X13419193Y11034885D01*
X13442665Y11078798D01*
X13457119Y11126447D01*
X13462000Y11176000D01*
X13462000Y20643170D01*
X15035912Y19528099D01*
G37*
X15035912Y19528099D02*
X16539892Y18271762D01*
X17939301Y16899905D01*
X19225292Y15421201D01*
X20389735Y13845000D01*
X21425267Y12181266D01*
X22325342Y10440517D01*
X23084269Y8633761D01*
X23697250Y6772419D01*
X24160409Y4868260D01*
X24470818Y2933322D01*
X24626515Y979839D01*
X24626515Y-979839D01*
X24470818Y-2933322D01*
X24160409Y-4868260D01*
X23697250Y-6772419D01*
X23084269Y-8633761D01*
X22325342Y-10440517D01*
X21425267Y-12181266D01*
X20389735Y-13845000D01*
X19225292Y-15421201D01*
X17939301Y-16899905D01*
X16539892Y-18271762D01*
X15035912Y-19528099D01*
X13436870Y-20660974D01*
X11752876Y-21663223D01*
X9994577Y-22528510D01*
X8173089Y-23251364D01*
X6299928Y-23827216D01*
X4386936Y-24252425D01*
X2446209Y-24524302D01*
X490016Y-24641128D01*
X-1469274Y-24602166D01*
X-3419276Y-24407660D01*
X-5347660Y-24058841D01*
X-7242234Y-23557915D01*
X-9091020Y-22908048D01*
X-10882330Y-22113349D01*
X-12604839Y-21178842D01*
X-13837954Y-20376885D01*
X-8505800Y-20376885D01*
X-8505800Y-20466315D01*
X-8488353Y-20554027D01*
X-8454130Y-20636650D01*
X-8404445Y-20711008D01*
X-8341208Y-20774245D01*
X-8266850Y-20823930D01*
X-8184227Y-20858153D01*
X-8096515Y-20875600D01*
X-8007085Y-20875600D01*
X-7989716Y-20872145D01*
X-7971530Y-20916050D01*
X-7921845Y-20990408D01*
X-7858608Y-21053645D01*
X-7784250Y-21103330D01*
X-7701627Y-21137553D01*
X-7613915Y-21155000D01*
X-7524485Y-21155000D01*
X-7436773Y-21137553D01*
X-7354150Y-21103330D01*
X-7279792Y-21053645D01*
X-7216555Y-20990408D01*
X-7166870Y-20916050D01*
X-7132647Y-20833427D01*
X-7128045Y-20810293D01*
X-7055115Y-20824800D01*
X-6965685Y-20824800D01*
X-6877973Y-20807353D01*
X-6795350Y-20773130D01*
X-6720992Y-20723445D01*
X-6657755Y-20660208D01*
X-6608070Y-20585850D01*
X-6573847Y-20503227D01*
X-6556400Y-20415515D01*
X-6556400Y-20326085D01*
X-6573847Y-20238373D01*
X-6608070Y-20155750D01*
X-6657755Y-20081392D01*
X-6720992Y-20018155D01*
X-6795350Y-19968470D01*
X-6877973Y-19934247D01*
X-6965685Y-19916800D01*
X-7055115Y-19916800D01*
X-7142827Y-19934247D01*
X-7225450Y-19968470D01*
X-7299808Y-20018155D01*
X-7363045Y-20081392D01*
X-7412730Y-20155750D01*
X-7446953Y-20238373D01*
X-7451555Y-20261507D01*
X-7524485Y-20247000D01*
X-7613915Y-20247000D01*
X-7631284Y-20250455D01*
X-7649470Y-20206550D01*
X-7699155Y-20132192D01*
X-7762392Y-20068955D01*
X-7836750Y-20019270D01*
X-7919373Y-19985047D01*
X-8007085Y-19967600D01*
X-8096515Y-19967600D01*
X-8184227Y-19985047D01*
X-8266850Y-20019270D01*
X-8341208Y-20068955D01*
X-8404445Y-20132192D01*
X-8454130Y-20206550D01*
X-8488353Y-20289173D01*
X-8505800Y-20376885D01*
X-13837954Y-20376885D01*
X-14247655Y-20110436D01*
X-14703308Y-19759600D01*
X-13876380Y-19759600D01*
X-13804050Y-19807930D01*
X-13721427Y-19842153D01*
X-13633715Y-19859600D01*
X-13544285Y-19859600D01*
X-13456573Y-19842153D01*
X-13373950Y-19807930D01*
X-13299592Y-19758245D01*
X-13236355Y-19695008D01*
X-13186670Y-19620650D01*
X-13152447Y-19538027D01*
X-13135000Y-19450315D01*
X-13135000Y-19360885D01*
X-13152447Y-19273173D01*
X-13186670Y-19190550D01*
X-13236355Y-19116192D01*
X-13299592Y-19052955D01*
X-13373950Y-19003270D01*
X-13456573Y-18969047D01*
X-13544285Y-18951600D01*
X-13633715Y-18951600D01*
X-13721427Y-18969047D01*
X-13804050Y-19003270D01*
X-13876380Y-19051600D01*
X-14753191Y-19051600D01*
X-15211036Y-18593755D01*
X-15162110Y-18573490D01*
X-15087752Y-18523805D01*
X-15024515Y-18460568D01*
X-14974830Y-18386210D01*
X-14940607Y-18303587D01*
X-14923160Y-18215875D01*
X-14923160Y-18126445D01*
X-14940607Y-18038733D01*
X-14974830Y-17956110D01*
X-15024515Y-17881752D01*
X-15087752Y-17818515D01*
X-15098273Y-17811485D01*
X-14474800Y-17811485D01*
X-14474800Y-17900915D01*
X-14457353Y-17988627D01*
X-14423130Y-18071250D01*
X-14373445Y-18145608D01*
X-14310208Y-18208845D01*
X-14235850Y-18258530D01*
X-14153227Y-18292753D01*
X-14068400Y-18309626D01*
X-14068400Y-18358115D01*
X-14050953Y-18445827D01*
X-14016730Y-18528450D01*
X-13967045Y-18602808D01*
X-13903808Y-18666045D01*
X-13829450Y-18715730D01*
X-13746827Y-18749953D01*
X-13659115Y-18767400D01*
X-13569685Y-18767400D01*
X-13481973Y-18749953D01*
X-13399350Y-18715730D01*
X-13324992Y-18666045D01*
X-13261755Y-18602808D01*
X-13212070Y-18528450D01*
X-13177847Y-18445827D01*
X-13160400Y-18358115D01*
X-13160400Y-18268685D01*
X-13177847Y-18180973D01*
X-13212070Y-18098350D01*
X-13261755Y-18023992D01*
X-13324992Y-17960755D01*
X-13399350Y-17911070D01*
X-13481973Y-17876847D01*
X-13566800Y-17859974D01*
X-13566800Y-17811485D01*
X-13575479Y-17767854D01*
X-13532773Y-17759359D01*
X-13450150Y-17725136D01*
X-13375792Y-17675451D01*
X-13312555Y-17612214D01*
X-13262870Y-17537856D01*
X-13228647Y-17455233D01*
X-13211200Y-17367521D01*
X-13211200Y-17278091D01*
X-13228647Y-17190379D01*
X-13262870Y-17107756D01*
X-13312555Y-17033398D01*
X-13375792Y-16970161D01*
X-13450150Y-16920476D01*
X-13532773Y-16886253D01*
X-13620485Y-16868806D01*
X-13709915Y-16868806D01*
X-13797627Y-16886253D01*
X-13880250Y-16920476D01*
X-13954608Y-16970161D01*
X-14017845Y-17033398D01*
X-14067530Y-17107756D01*
X-14101753Y-17190379D01*
X-14119200Y-17278091D01*
X-14119200Y-17367521D01*
X-14110521Y-17411152D01*
X-14153227Y-17419647D01*
X-14235850Y-17453870D01*
X-14310208Y-17503555D01*
X-14373445Y-17566792D01*
X-14423130Y-17641150D01*
X-14457353Y-17723773D01*
X-14474800Y-17811485D01*
X-15098273Y-17811485D01*
X-15162110Y-17768830D01*
X-15244733Y-17734607D01*
X-15330053Y-17717636D01*
X-16259490Y-16788200D01*
X-16259490Y-15786380D01*
X-16222143Y-15831886D01*
X-16208641Y-15842967D01*
X-15281262Y-16770348D01*
X-15281262Y-16811582D01*
X-15329592Y-16883912D01*
X-15363815Y-16966535D01*
X-15381262Y-17054247D01*
X-15381262Y-17143677D01*
X-15363815Y-17231389D01*
X-15329592Y-17314012D01*
X-15279907Y-17388370D01*
X-15216670Y-17451607D01*
X-15142312Y-17501292D01*
X-15059689Y-17535515D01*
X-14971977Y-17552962D01*
X-14882547Y-17552962D01*
X-14794835Y-17535515D01*
X-14712212Y-17501292D01*
X-14637854Y-17451607D01*
X-14574617Y-17388370D01*
X-14524932Y-17314012D01*
X-14490709Y-17231389D01*
X-14473262Y-17143677D01*
X-14473262Y-17054247D01*
X-14490709Y-16966535D01*
X-14524932Y-16883912D01*
X-14573262Y-16811582D01*
X-14573262Y-16641090D01*
X-14571551Y-16623715D01*
X-14573262Y-16606341D01*
X-14573262Y-16606334D01*
X-14578013Y-16558101D01*
X-14578385Y-16554319D01*
X-14588688Y-16520356D01*
X-14598627Y-16487591D01*
X-14631498Y-16426093D01*
X-14637042Y-16419338D01*
X-14664656Y-16385690D01*
X-14664664Y-16385682D01*
X-14675737Y-16372190D01*
X-14689228Y-16361118D01*
X-14820607Y-16229739D01*
X-14810740Y-16230711D01*
X-14793366Y-16229000D01*
X-13952580Y-16229000D01*
X-13880250Y-16277330D01*
X-13797627Y-16311553D01*
X-13709915Y-16329000D01*
X-13620485Y-16329000D01*
X-13532773Y-16311553D01*
X-13450150Y-16277330D01*
X-13375792Y-16227645D01*
X-13312555Y-16164408D01*
X-13262870Y-16090050D01*
X-13228647Y-16007427D01*
X-13211200Y-15919715D01*
X-13211200Y-15830285D01*
X-13228647Y-15742573D01*
X-13262870Y-15659950D01*
X-13312555Y-15585592D01*
X-13375792Y-15522355D01*
X-13450150Y-15472670D01*
X-13532773Y-15438447D01*
X-13599490Y-15425176D01*
X-13599490Y-15337815D01*
X-13614531Y-15262200D01*
X-13569685Y-15262200D01*
X-13481973Y-15244753D01*
X-13399350Y-15210530D01*
X-13324992Y-15160845D01*
X-13261755Y-15097608D01*
X-13212070Y-15023250D01*
X-13177847Y-14940627D01*
X-13160400Y-14852915D01*
X-13160400Y-14836435D01*
X-11321900Y-16674936D01*
X-11310819Y-16688438D01*
X-11256916Y-16732676D01*
X-11195418Y-16765547D01*
X-11158058Y-16776880D01*
X-11128690Y-16785789D01*
X-11121857Y-16786462D01*
X-11076675Y-16790912D01*
X-11076668Y-16790912D01*
X-11059294Y-16792623D01*
X-11041919Y-16790912D01*
X-6188438Y-16790912D01*
X-6194400Y-16820885D01*
X-6194400Y-16910315D01*
X-6182480Y-16970238D01*
X-6200106Y-16977539D01*
X-6274464Y-17027224D01*
X-6337701Y-17090461D01*
X-6387386Y-17164819D01*
X-6421609Y-17247442D01*
X-6439056Y-17335154D01*
X-6439056Y-17424584D01*
X-6421609Y-17512296D01*
X-6387386Y-17594919D01*
X-6337701Y-17669277D01*
X-6274464Y-17732514D01*
X-6200106Y-17782199D01*
X-6117483Y-17816422D01*
X-6092800Y-17821332D01*
X-6092800Y-17821885D01*
X-6079685Y-17887818D01*
X-6152227Y-17902247D01*
X-6234850Y-17936470D01*
X-6309208Y-17986155D01*
X-6372445Y-18049392D01*
X-6422130Y-18123750D01*
X-6456353Y-18206373D01*
X-6473800Y-18294085D01*
X-6473800Y-18383515D01*
X-6456353Y-18471227D01*
X-6422130Y-18553850D01*
X-6372445Y-18628208D01*
X-6309208Y-18691445D01*
X-6234850Y-18741130D01*
X-6152227Y-18775353D01*
X-6064515Y-18792800D01*
X-5975085Y-18792800D01*
X-5887373Y-18775353D01*
X-5804750Y-18741130D01*
X-5730392Y-18691445D01*
X-5667155Y-18628208D01*
X-5617470Y-18553850D01*
X-5583247Y-18471227D01*
X-5565800Y-18383515D01*
X-5565800Y-18294085D01*
X-5578915Y-18228152D01*
X-5506373Y-18213723D01*
X-5423750Y-18179500D01*
X-5349392Y-18129815D01*
X-5286155Y-18066578D01*
X-5236470Y-17992220D01*
X-5202247Y-17909597D01*
X-5184800Y-17821885D01*
X-5184800Y-17732455D01*
X-5202247Y-17644743D01*
X-5236470Y-17562120D01*
X-5286155Y-17487762D01*
X-5349392Y-17424525D01*
X-5423750Y-17374840D01*
X-5506373Y-17340617D01*
X-5531056Y-17335707D01*
X-5531056Y-17335154D01*
X-5542976Y-17275231D01*
X-5525350Y-17267930D01*
X-5450992Y-17218245D01*
X-5387755Y-17155008D01*
X-5338070Y-17080650D01*
X-5303847Y-16998027D01*
X-5286400Y-16910315D01*
X-5286400Y-16820885D01*
X-5292362Y-16790912D01*
X-4821702Y-16790912D01*
X-4757635Y-16854979D01*
X-4746549Y-16868487D01*
X-4692646Y-16912725D01*
X-4631148Y-16945596D01*
X-4564419Y-16965838D01*
X-4512405Y-16970961D01*
X-4512397Y-16970961D01*
X-4495023Y-16972672D01*
X-4477649Y-16970961D01*
X-4245825Y-16970961D01*
X-4250561Y-16994771D01*
X-4250561Y-17084201D01*
X-4233114Y-17171913D01*
X-4198891Y-17254536D01*
X-4149206Y-17328894D01*
X-4085969Y-17392131D01*
X-4011611Y-17441816D01*
X-3928988Y-17476039D01*
X-3843668Y-17493010D01*
X-3834587Y-17502091D01*
X-3834582Y-17502095D01*
X-3593251Y-17743427D01*
X-3582174Y-17756925D01*
X-3568677Y-17768002D01*
X-3568674Y-17768005D01*
X-3550457Y-17782955D01*
X-3528271Y-17801163D01*
X-3466773Y-17834034D01*
X-3426693Y-17846192D01*
X-3400045Y-17854276D01*
X-3393212Y-17854949D01*
X-3348030Y-17859399D01*
X-3348023Y-17859399D01*
X-3330649Y-17861110D01*
X-3313274Y-17859399D01*
X-782219Y-17859399D01*
X-1078564Y-17982149D01*
X-1451503Y-18231339D01*
X-1768661Y-18548497D01*
X-2017851Y-18921436D01*
X-2189496Y-19335824D01*
X-2277000Y-19775735D01*
X-2277000Y-20224265D01*
X-2189496Y-20664176D01*
X-2017851Y-21078564D01*
X-1768661Y-21451503D01*
X-1451503Y-21768661D01*
X-1078564Y-22017851D01*
X-664176Y-22189496D01*
X-224265Y-22277000D01*
X224265Y-22277000D01*
X664176Y-22189496D01*
X1078564Y-22017851D01*
X1451503Y-21768661D01*
X1768661Y-21451503D01*
X2017851Y-21078564D01*
X2189496Y-20664176D01*
X2277000Y-20224265D01*
X2277000Y-19775735D01*
X2189496Y-19335824D01*
X2017851Y-18921436D01*
X1768661Y-18548497D01*
X1451503Y-18231339D01*
X1078564Y-17982149D01*
X782219Y-17859399D01*
X11691531Y-17859399D01*
X12205755Y-18373624D01*
X12216836Y-18387126D01*
X12270739Y-18431364D01*
X12332237Y-18464235D01*
X12398965Y-18484477D01*
X12405185Y-18485090D01*
X12450980Y-18489600D01*
X12450987Y-18489600D01*
X12468362Y-18491311D01*
X12485736Y-18489600D01*
X12920620Y-18489600D01*
X12992950Y-18537930D01*
X13075573Y-18572153D01*
X13163285Y-18589600D01*
X13252715Y-18589600D01*
X13340427Y-18572153D01*
X13423050Y-18537930D01*
X13497408Y-18488245D01*
X13560645Y-18425008D01*
X13610330Y-18350650D01*
X13644553Y-18268027D01*
X13662000Y-18180315D01*
X13662000Y-18090885D01*
X13644553Y-18003173D01*
X13610330Y-17920550D01*
X13560645Y-17846192D01*
X13530953Y-17816500D01*
X13657220Y-17816500D01*
X13729550Y-17864830D01*
X13812173Y-17899053D01*
X13899885Y-17916500D01*
X13989315Y-17916500D01*
X14077027Y-17899053D01*
X14159650Y-17864830D01*
X14234008Y-17815145D01*
X14297245Y-17751908D01*
X14346930Y-17677550D01*
X14381153Y-17594927D01*
X14398600Y-17507215D01*
X14398600Y-17417785D01*
X14381153Y-17330073D01*
X14346930Y-17247450D01*
X14297245Y-17173092D01*
X14234008Y-17109855D01*
X14159650Y-17060170D01*
X14077027Y-17025947D01*
X13989315Y-17008500D01*
X13899885Y-17008500D01*
X13859454Y-17016542D01*
X13873515Y-16970187D01*
X13879000Y-16914500D01*
X13879000Y-16914498D01*
X13880833Y-16895891D01*
X13879000Y-16877284D01*
X13879000Y-9451869D01*
X16096000Y-9451869D01*
X16096000Y-9748131D01*
X16153798Y-10038701D01*
X16267173Y-10312411D01*
X16431767Y-10558744D01*
X16641256Y-10768233D01*
X16887589Y-10932827D01*
X17161299Y-11046202D01*
X17451869Y-11104000D01*
X17748131Y-11104000D01*
X18038701Y-11046202D01*
X18312411Y-10932827D01*
X18558744Y-10768233D01*
X18768233Y-10558744D01*
X18932827Y-10312411D01*
X19046202Y-10038701D01*
X19104000Y-9748131D01*
X19104000Y-9451869D01*
X19046202Y-9161299D01*
X18932827Y-8887589D01*
X18768233Y-8641256D01*
X18558744Y-8431767D01*
X18312411Y-8267173D01*
X18038701Y-8153798D01*
X17748131Y-8096000D01*
X17451869Y-8096000D01*
X17161299Y-8153798D01*
X16887589Y-8267173D01*
X16641256Y-8431767D01*
X16431767Y-8641256D01*
X16267173Y-8887589D01*
X16153798Y-9161299D01*
X16096000Y-9451869D01*
X13879000Y-9451869D01*
X13879000Y-9155228D01*
X14000000Y-9155228D01*
X14049793Y-9150324D01*
X14097672Y-9135800D01*
X14141797Y-9112214D01*
X14180473Y-9080473D01*
X14212214Y-9041797D01*
X14235800Y-8997672D01*
X14250324Y-8949793D01*
X14255228Y-8900000D01*
X14255228Y-7900000D01*
X14250324Y-7850207D01*
X14235800Y-7802328D01*
X14212214Y-7758203D01*
X14180473Y-7719527D01*
X14141797Y-7687786D01*
X14097672Y-7664200D01*
X14049793Y-7649676D01*
X14000000Y-7644772D01*
X13000000Y-7644772D01*
X12950207Y-7649676D01*
X12902328Y-7664200D01*
X12858203Y-7687786D01*
X12819527Y-7719527D01*
X12787786Y-7758203D01*
X12764200Y-7802328D01*
X12749676Y-7850207D01*
X12749393Y-7853076D01*
X12710647Y-7814330D01*
X12587153Y-7731814D01*
X12449934Y-7674976D01*
X12304262Y-7646000D01*
X12155738Y-7646000D01*
X12010066Y-7674976D01*
X11872847Y-7731814D01*
X11749353Y-7814330D01*
X11644330Y-7919353D01*
X11595000Y-7993181D01*
X11545670Y-7919353D01*
X11440647Y-7814330D01*
X11317153Y-7731814D01*
X11179934Y-7674976D01*
X11034262Y-7646000D01*
X10885738Y-7646000D01*
X10740066Y-7674976D01*
X10602847Y-7731814D01*
X10479353Y-7814330D01*
X10374330Y-7919353D01*
X10325000Y-7993181D01*
X10275670Y-7919353D01*
X10170647Y-7814330D01*
X10047153Y-7731814D01*
X9909934Y-7674976D01*
X9764262Y-7646000D01*
X9615738Y-7646000D01*
X9470066Y-7674976D01*
X9332847Y-7731814D01*
X9209353Y-7814330D01*
X9104330Y-7919353D01*
X9021814Y-8042847D01*
X8964976Y-8180066D01*
X8936000Y-8325738D01*
X8936000Y-8474262D01*
X8959850Y-8594164D01*
X8448504Y-9105510D01*
X8434040Y-9117380D01*
X8386679Y-9175092D01*
X8351486Y-9240933D01*
X8339078Y-9281837D01*
X8329815Y-9312373D01*
X8322497Y-9386670D01*
X8324330Y-9405280D01*
X8324331Y-16501411D01*
X8301000Y-16536328D01*
X8266777Y-16618951D01*
X8249330Y-16706663D01*
X8249330Y-16796093D01*
X8254958Y-16824388D01*
X521936Y-16824388D01*
X277225Y-16579678D01*
X314105Y-16555035D01*
X377342Y-16491798D01*
X427027Y-16417440D01*
X461250Y-16334817D01*
X478221Y-16249497D01*
X487302Y-16240416D01*
X487306Y-16240411D01*
X994300Y-15733419D01*
X1007797Y-15722342D01*
X1018874Y-15708845D01*
X1018878Y-15708841D01*
X1035093Y-15689082D01*
X1052035Y-15668439D01*
X1084906Y-15606941D01*
X1105148Y-15540212D01*
X1110271Y-15488198D01*
X1110271Y-15488186D01*
X1111982Y-15470816D01*
X1110271Y-15453442D01*
X1110271Y-9850054D01*
X1138566Y-9855682D01*
X1227996Y-9855682D01*
X1315708Y-9838235D01*
X1398331Y-9804012D01*
X1472689Y-9754327D01*
X1535926Y-9691090D01*
X1585611Y-9616732D01*
X1619834Y-9534109D01*
X1636192Y-9451869D01*
X4096000Y-9451869D01*
X4096000Y-9748131D01*
X4153798Y-10038701D01*
X4267173Y-10312411D01*
X4431767Y-10558744D01*
X4641256Y-10768233D01*
X4887589Y-10932827D01*
X5161299Y-11046202D01*
X5451869Y-11104000D01*
X5748131Y-11104000D01*
X6038701Y-11046202D01*
X6312411Y-10932827D01*
X6558744Y-10768233D01*
X6768233Y-10558744D01*
X6932827Y-10312411D01*
X7046202Y-10038701D01*
X7104000Y-9748131D01*
X7104000Y-9451869D01*
X7046202Y-9161299D01*
X6932827Y-8887589D01*
X6768233Y-8641256D01*
X6558744Y-8431767D01*
X6312411Y-8267173D01*
X6038701Y-8153798D01*
X5748131Y-8096000D01*
X5451869Y-8096000D01*
X5161299Y-8153798D01*
X4887589Y-8267173D01*
X4641256Y-8431767D01*
X4431767Y-8641256D01*
X4267173Y-8887589D01*
X4153798Y-9161299D01*
X4096000Y-9451869D01*
X1636192Y-9451869D01*
X1637281Y-9446397D01*
X1637281Y-9356967D01*
X1619834Y-9269255D01*
X1585611Y-9186632D01*
X1535926Y-9112274D01*
X1472689Y-9049037D01*
X1405464Y-9004118D01*
X3676908Y-9004118D01*
X3694282Y-9005829D01*
X3711656Y-9004118D01*
X3711664Y-9004118D01*
X3763678Y-8998995D01*
X3830407Y-8978753D01*
X3891905Y-8945882D01*
X3945808Y-8901644D01*
X3956894Y-8888136D01*
X8632308Y-4212724D01*
X8717627Y-4195753D01*
X8800250Y-4161530D01*
X8874608Y-4111845D01*
X8937845Y-4048608D01*
X8987530Y-3974250D01*
X9021753Y-3891627D01*
X9039200Y-3803915D01*
X9039200Y-3714485D01*
X9021753Y-3626773D01*
X8987530Y-3544150D01*
X8937845Y-3469792D01*
X8874608Y-3406555D01*
X8827400Y-3375012D01*
X8922576Y-3279836D01*
X8936067Y-3268764D01*
X8947140Y-3255272D01*
X8947148Y-3255264D01*
X8980305Y-3214862D01*
X8980306Y-3214861D01*
X9013177Y-3153363D01*
X9033419Y-3086634D01*
X9038542Y-3034620D01*
X9038542Y-3034611D01*
X9040253Y-3017239D01*
X9038542Y-2999867D01*
X9038542Y-2187312D01*
X9040253Y-2169938D01*
X9038542Y-2152563D01*
X9038542Y-2152556D01*
X9033419Y-2100542D01*
X9032760Y-2098367D01*
X9013177Y-2033813D01*
X9003639Y-2015969D01*
X8980306Y-1972315D01*
X8936068Y-1918412D01*
X8922560Y-1907326D01*
X8913800Y-1898566D01*
X8913800Y-818885D01*
X9756800Y-818885D01*
X9756800Y-908315D01*
X9774247Y-996027D01*
X9808470Y-1078650D01*
X9858155Y-1153008D01*
X9921392Y-1216245D01*
X9995750Y-1265930D01*
X10078373Y-1300153D01*
X10166085Y-1317600D01*
X10255515Y-1317600D01*
X10343227Y-1300153D01*
X10425850Y-1265930D01*
X10500208Y-1216245D01*
X10563445Y-1153008D01*
X10613130Y-1078650D01*
X10647353Y-996027D01*
X10664800Y-908315D01*
X10664800Y-818885D01*
X10647353Y-731173D01*
X10613130Y-648550D01*
X10563445Y-574192D01*
X10500208Y-510955D01*
X10425850Y-461270D01*
X10343227Y-427047D01*
X10255515Y-409600D01*
X10166085Y-409600D01*
X10078373Y-427047D01*
X9995750Y-461270D01*
X9921392Y-510955D01*
X9858155Y-574192D01*
X9808470Y-648550D01*
X9774247Y-731173D01*
X9756800Y-818885D01*
X8913800Y-818885D01*
X8913800Y-400000D01*
X12974772Y-400000D01*
X12974772Y-2910000D01*
X12979676Y-2959793D01*
X12994200Y-3007672D01*
X13017786Y-3051797D01*
X13049527Y-3090473D01*
X13088203Y-3122214D01*
X13132328Y-3145800D01*
X13180207Y-3160324D01*
X13230000Y-3165228D01*
X13270215Y-3165228D01*
X13264207Y-3179733D01*
X13246760Y-3267445D01*
X13246760Y-3356875D01*
X13264207Y-3444587D01*
X13298430Y-3527210D01*
X13348115Y-3601568D01*
X13411352Y-3664805D01*
X13485710Y-3714490D01*
X13568333Y-3748713D01*
X13656045Y-3766160D01*
X13745475Y-3766160D01*
X13833187Y-3748713D01*
X13915810Y-3714490D01*
X13990168Y-3664805D01*
X14053405Y-3601568D01*
X14103090Y-3527210D01*
X14137313Y-3444587D01*
X14154760Y-3356875D01*
X14154760Y-3267445D01*
X14137313Y-3179733D01*
X14131305Y-3165228D01*
X14230000Y-3165228D01*
X14279793Y-3160324D01*
X14327672Y-3145800D01*
X14371797Y-3122214D01*
X14410473Y-3090473D01*
X14442214Y-3051797D01*
X14465800Y-3007672D01*
X14480324Y-2959793D01*
X14485228Y-2910000D01*
X14485228Y-400000D01*
X14480324Y-350207D01*
X14465800Y-302328D01*
X14442214Y-258203D01*
X14410473Y-219527D01*
X14371797Y-187786D01*
X14327672Y-164200D01*
X14279793Y-149676D01*
X14230000Y-144772D01*
X13230000Y-144772D01*
X13180207Y-149676D01*
X13132328Y-164200D01*
X13088203Y-187786D01*
X13049527Y-219527D01*
X13017786Y-258203D01*
X12994200Y-302328D01*
X12979676Y-350207D01*
X12974772Y-400000D01*
X8913800Y-400000D01*
X8913800Y757326D01*
X8915511Y774700D01*
X8913800Y792074D01*
X8913800Y2396755D01*
X9375800Y2396755D01*
X9375800Y2307325D01*
X9393247Y2219613D01*
X9427470Y2136990D01*
X9477155Y2062632D01*
X9540392Y1999395D01*
X9614750Y1949710D01*
X9697373Y1915487D01*
X9785085Y1898040D01*
X9874515Y1898040D01*
X9962227Y1915487D01*
X10044850Y1949710D01*
X10119208Y1999395D01*
X10182445Y2062632D01*
X10232130Y2136990D01*
X10266353Y2219613D01*
X10283800Y2307325D01*
X10283800Y2396755D01*
X10266353Y2484467D01*
X10232130Y2567090D01*
X10182445Y2641448D01*
X10119208Y2704685D01*
X10044850Y2754370D01*
X9962227Y2788593D01*
X9874515Y2806040D01*
X9785085Y2806040D01*
X9697373Y2788593D01*
X9614750Y2754370D01*
X9540392Y2704685D01*
X9477155Y2641448D01*
X9427470Y2567090D01*
X9393247Y2484467D01*
X9375800Y2396755D01*
X8913800Y2396755D01*
X8913800Y2910000D01*
X10434772Y2910000D01*
X10434772Y400000D01*
X10439676Y350207D01*
X10454200Y302328D01*
X10477786Y258203D01*
X10509527Y219527D01*
X10548203Y187786D01*
X10592328Y164200D01*
X10640207Y149676D01*
X10690000Y144772D01*
X11690000Y144772D01*
X11739793Y149676D01*
X11787672Y164200D01*
X11831797Y187786D01*
X11870473Y219527D01*
X11902214Y258203D01*
X11925800Y302328D01*
X11940324Y350207D01*
X11945228Y400000D01*
X11945228Y2910000D01*
X15514772Y2910000D01*
X15514772Y400000D01*
X15519676Y350207D01*
X15534200Y302328D01*
X15557786Y258203D01*
X15589527Y219527D01*
X15628203Y187786D01*
X15672328Y164200D01*
X15720207Y149676D01*
X15770000Y144772D01*
X15854169Y144772D01*
X15844847Y122267D01*
X15827400Y34555D01*
X15827400Y-54875D01*
X15844847Y-142587D01*
X15879070Y-225210D01*
X15928755Y-299568D01*
X15991992Y-362805D01*
X16066350Y-412490D01*
X16148973Y-446713D01*
X16236685Y-464160D01*
X16326115Y-464160D01*
X16413827Y-446713D01*
X16496450Y-412490D01*
X16570808Y-362805D01*
X16634045Y-299568D01*
X16683730Y-225210D01*
X16717953Y-142587D01*
X16735400Y-54875D01*
X16735400Y34555D01*
X16717953Y122267D01*
X16708631Y144772D01*
X16770000Y144772D01*
X16819793Y149676D01*
X16867672Y164200D01*
X16911797Y187786D01*
X16950473Y219527D01*
X16982214Y258203D01*
X17005800Y302328D01*
X17020324Y350207D01*
X17025228Y400000D01*
X17025228Y2910000D01*
X17020324Y2959793D01*
X17005800Y3007672D01*
X16982214Y3051797D01*
X16950473Y3090473D01*
X16911797Y3122214D01*
X16867672Y3145800D01*
X16819793Y3160324D01*
X16770000Y3165228D01*
X15770000Y3165228D01*
X15720207Y3160324D01*
X15672328Y3145800D01*
X15628203Y3122214D01*
X15589527Y3090473D01*
X15557786Y3051797D01*
X15534200Y3007672D01*
X15519676Y2959793D01*
X15514772Y2910000D01*
X11945228Y2910000D01*
X11940324Y2959793D01*
X11925800Y3007672D01*
X11902214Y3051797D01*
X11870473Y3090473D01*
X11831797Y3122214D01*
X11787672Y3145800D01*
X11739793Y3160324D01*
X11693380Y3164895D01*
X11693380Y5581915D01*
X18088000Y5581915D01*
X18088000Y5492485D01*
X18105447Y5404773D01*
X18139670Y5322150D01*
X18189355Y5247792D01*
X18252592Y5184555D01*
X18326950Y5134870D01*
X18409573Y5100647D01*
X18497285Y5083200D01*
X18586715Y5083200D01*
X18674427Y5100647D01*
X18757050Y5134870D01*
X18831408Y5184555D01*
X18894645Y5247792D01*
X18944330Y5322150D01*
X18978553Y5404773D01*
X18996000Y5492485D01*
X18996000Y5581915D01*
X18978553Y5669627D01*
X18944330Y5752250D01*
X18894645Y5826608D01*
X18831408Y5889845D01*
X18757050Y5939530D01*
X18674427Y5973753D01*
X18586715Y5991200D01*
X18497285Y5991200D01*
X18409573Y5973753D01*
X18326950Y5939530D01*
X18252592Y5889845D01*
X18189355Y5826608D01*
X18139670Y5752250D01*
X18105447Y5669627D01*
X18088000Y5581915D01*
X11693380Y5581915D01*
X11693380Y6064580D01*
X11695697Y6088101D01*
X11692071Y6124914D01*
X11686449Y6182000D01*
X11659059Y6272292D01*
X11630073Y6326520D01*
X11614580Y6355506D01*
X11574911Y6403843D01*
X11554723Y6428443D01*
X11536441Y6443446D01*
X11526008Y6453879D01*
X11471345Y6498740D01*
X11388132Y6543218D01*
X11297840Y6570608D01*
X11203940Y6579857D01*
X11110040Y6570608D01*
X11019748Y6543218D01*
X10936535Y6498740D01*
X10863598Y6438882D01*
X10803740Y6365945D01*
X10759262Y6282732D01*
X10731872Y6192440D01*
X10722623Y6098540D01*
X10731872Y6004640D01*
X10735381Y5993073D01*
X10735380Y5595235D01*
X10735381Y5595226D01*
X10735380Y5117715D01*
X10735381Y5117706D01*
X10735380Y4697407D01*
X10735380Y3165228D01*
X10690000Y3165228D01*
X10640207Y3160324D01*
X10592328Y3145800D01*
X10548203Y3122214D01*
X10509527Y3090473D01*
X10477786Y3051797D01*
X10454200Y3007672D01*
X10439676Y2959793D01*
X10434772Y2910000D01*
X8913800Y2910000D01*
X8913800Y4503826D01*
X8915511Y4521200D01*
X8913800Y4538574D01*
X8913800Y4538582D01*
X8908677Y4590596D01*
X8888435Y4657325D01*
X8855564Y4718823D01*
X8826026Y4754814D01*
X8822406Y4759225D01*
X8822403Y4759228D01*
X8811325Y4772726D01*
X8797828Y4783803D01*
X6003012Y7578618D01*
X5991926Y7592126D01*
X5938023Y7636364D01*
X5876525Y7669235D01*
X5809796Y7689477D01*
X5757782Y7694600D01*
X5757774Y7694600D01*
X5740400Y7696311D01*
X5723026Y7694600D01*
X5582231Y7694600D01*
X5078400Y8198430D01*
X5078400Y9669420D01*
X5126730Y9741750D01*
X5160953Y9824373D01*
X5178400Y9912085D01*
X5178400Y10001515D01*
X5160953Y10089227D01*
X5126730Y10171850D01*
X5077045Y10246208D01*
X5013808Y10309445D01*
X4939450Y10359130D01*
X4856827Y10393353D01*
X4769115Y10410800D01*
X4679685Y10410800D01*
X4591973Y10393353D01*
X4509350Y10359130D01*
X4434992Y10309445D01*
X4371755Y10246208D01*
X4322070Y10171850D01*
X4287847Y10089227D01*
X4270400Y10001515D01*
X4270400Y9912085D01*
X4287847Y9824373D01*
X4322070Y9741750D01*
X4370400Y9669420D01*
X4370401Y8623962D01*
X4361318Y8633045D01*
X4286960Y8682730D01*
X4204337Y8716953D01*
X4116625Y8734400D01*
X4027195Y8734400D01*
X3939483Y8716953D01*
X3862401Y8685025D01*
X3862401Y9529183D01*
X3923450Y9554470D01*
X3997808Y9604155D01*
X4061045Y9667392D01*
X4110730Y9741750D01*
X4144953Y9824373D01*
X4162400Y9912085D01*
X4162400Y10001515D01*
X4144953Y10089227D01*
X4110730Y10171850D01*
X4061045Y10246208D01*
X3997808Y10309445D01*
X3923450Y10359130D01*
X3840827Y10393353D01*
X3753115Y10410800D01*
X3663685Y10410800D01*
X3575973Y10393353D01*
X3493350Y10359130D01*
X3418992Y10309445D01*
X3355755Y10246208D01*
X3306070Y10171850D01*
X3271847Y10089227D01*
X3255396Y10006524D01*
X3212637Y9954423D01*
X3197200Y9925542D01*
X3197200Y9950715D01*
X3179753Y10038427D01*
X3145530Y10121050D01*
X3095845Y10195408D01*
X3032608Y10258645D01*
X2958250Y10308330D01*
X2875627Y10342553D01*
X2787915Y10360000D01*
X2698485Y10360000D01*
X2610773Y10342553D01*
X2528150Y10308330D01*
X2453792Y10258645D01*
X2390555Y10195408D01*
X2340870Y10121050D01*
X2306647Y10038427D01*
X2289200Y9950715D01*
X2289200Y9861285D01*
X2306647Y9773573D01*
X2340870Y9690950D01*
X2389200Y9618620D01*
X2389201Y8102022D01*
X2387489Y8084638D01*
X2394323Y8015242D01*
X2414566Y7948513D01*
X2447437Y7887015D01*
X2491675Y7833112D01*
X2505177Y7822031D01*
X3120714Y7206493D01*
X2542360Y7452267D01*
X1430209Y7743021D01*
X287574Y7868747D01*
X-861189Y7826764D01*
X-1991597Y7617967D01*
X-3079559Y7246806D01*
X-4101884Y6721192D01*
X-5036785Y6052328D01*
X-5864336Y5254468D01*
X-6566899Y4344619D01*
X-7129499Y3342172D01*
X-7475297Y2438049D01*
X-7475297Y8036283D01*
X-7473586Y8053657D01*
X-7475297Y8071032D01*
X-7475297Y8071039D01*
X-7480420Y8123053D01*
X-7482762Y8130776D01*
X-7500662Y8189782D01*
X-7517222Y8220763D01*
X-7533533Y8251280D01*
X-7577771Y8305183D01*
X-7591273Y8316264D01*
X-11410124Y12135115D01*
X-5178400Y12135115D01*
X-5178400Y12045685D01*
X-5160953Y11957973D01*
X-5126730Y11875350D01*
X-5077045Y11800992D01*
X-5013808Y11737755D01*
X-4939450Y11688070D01*
X-4856827Y11653847D01*
X-4769115Y11636400D01*
X-4710521Y11636400D01*
X-4703753Y11602373D01*
X-4669530Y11519750D01*
X-4619845Y11445392D01*
X-4556608Y11382155D01*
X-4482250Y11332470D01*
X-4399627Y11298247D01*
X-4311915Y11280800D01*
X-4222485Y11280800D01*
X-4134773Y11298247D01*
X-4052150Y11332470D01*
X-3977792Y11382155D01*
X-3914555Y11445392D01*
X-3864870Y11519750D01*
X-3830647Y11602373D01*
X-3823119Y11640220D01*
X-3803915Y11636400D01*
X-3714485Y11636400D01*
X-3683369Y11642589D01*
X-3653530Y11570550D01*
X-3603845Y11496192D01*
X-3540608Y11432955D01*
X-3466250Y11383270D01*
X-3383627Y11349047D01*
X-3295915Y11331600D01*
X-3206485Y11331600D01*
X-3118773Y11349047D01*
X-3036150Y11383270D01*
X-2961792Y11432955D01*
X-2898555Y11496192D01*
X-2848870Y11570550D01*
X-2814647Y11653173D01*
X-2797200Y11740885D01*
X-2797200Y11830315D01*
X-2804778Y11868415D01*
X295300Y11868415D01*
X295300Y11778985D01*
X312747Y11691273D01*
X346970Y11608650D01*
X396655Y11534292D01*
X459892Y11471055D01*
X534250Y11421370D01*
X616873Y11387147D01*
X704585Y11369700D01*
X794015Y11369700D01*
X881727Y11387147D01*
X964350Y11421370D01*
X1038708Y11471055D01*
X1101945Y11534292D01*
X1151630Y11608650D01*
X1185853Y11691273D01*
X1203300Y11778985D01*
X1203300Y11868415D01*
X1185853Y11956127D01*
X1151630Y12038750D01*
X1101945Y12113108D01*
X1038708Y12176345D01*
X964350Y12226030D01*
X881727Y12260253D01*
X794015Y12277700D01*
X704585Y12277700D01*
X616873Y12260253D01*
X534250Y12226030D01*
X459892Y12176345D01*
X396655Y12113108D01*
X346970Y12038750D01*
X312747Y11956127D01*
X295300Y11868415D01*
X-2804778Y11868415D01*
X-2814647Y11918027D01*
X-2848870Y12000650D01*
X-2898555Y12075008D01*
X-2961792Y12138245D01*
X-3036150Y12187930D01*
X-3118773Y12222153D01*
X-3206485Y12239600D01*
X-3295915Y12239600D01*
X-3327031Y12233411D01*
X-3356870Y12305450D01*
X-3406555Y12379808D01*
X-3469792Y12443045D01*
X-3544150Y12492730D01*
X-3626773Y12526953D01*
X-3714485Y12544400D01*
X-3803915Y12544400D01*
X-3891627Y12526953D01*
X-3974250Y12492730D01*
X-4048608Y12443045D01*
X-4111845Y12379808D01*
X-4161530Y12305450D01*
X-4195753Y12222827D01*
X-4203281Y12184980D01*
X-4222485Y12188800D01*
X-4281079Y12188800D01*
X-4287847Y12222827D01*
X-4322070Y12305450D01*
X-4371755Y12379808D01*
X-4434992Y12443045D01*
X-4509350Y12492730D01*
X-4591973Y12526953D01*
X-4679685Y12544400D01*
X-4769115Y12544400D01*
X-4856827Y12526953D01*
X-4939450Y12492730D01*
X-5013808Y12443045D01*
X-5077045Y12379808D01*
X-5126730Y12305450D01*
X-5160953Y12222827D01*
X-5178400Y12135115D01*
X-11410124Y12135115D01*
X-12656695Y13381685D01*
X-10286099Y15321264D01*
X-7066604Y16510000D01*
X9906000Y16510000D01*
X9906000Y11176000D01*
X9910881Y11126447D01*
X9925335Y11078798D01*
X9948807Y11034885D01*
X9980395Y10996395D01*
X10018885Y10964807D01*
X10062798Y10941335D01*
X10110447Y10926881D01*
X10160000Y10922000D01*
X13208000Y10922000D01*
X13257553Y10926881D01*
X13305202Y10941335D01*
X13349115Y10964807D01*
X13387605Y10996395D01*
X13419193Y11034885D01*
X13442665Y11078798D01*
X13457119Y11126447D01*
X13462000Y11176000D01*
X13462000Y20643170D01*
X15035912Y19528099D01*
G36*
X-20319999Y-508789D02*
G01*
X-20315119Y-557553D01*
X-20300665Y-605202D01*
X-20277193Y-649115D01*
X-20245605Y-687605D01*
X-20207115Y-719193D01*
X-20163202Y-742665D01*
X-20115553Y-757119D01*
X-20066000Y-762000D01*
X-18083480Y-762000D01*
X-18083481Y-6823410D01*
X-19422226Y-8162156D01*
X-19507547Y-8179127D01*
X-19590170Y-8213350D01*
X-19664528Y-8263035D01*
X-19727765Y-8326272D01*
X-19777450Y-8400630D01*
X-19811673Y-8483253D01*
X-19829120Y-8570965D01*
X-19829120Y-8660395D01*
X-19811673Y-8748107D01*
X-19777450Y-8830730D01*
X-19729120Y-8903060D01*
X-19729120Y-8915903D01*
X-19729119Y-8915913D01*
X-19729120Y-9406207D01*
X-19730831Y-9423582D01*
X-19729120Y-9440956D01*
X-19729120Y-9440963D01*
X-19725541Y-9477296D01*
X-19723997Y-9492978D01*
X-19722792Y-9496949D01*
X-19703755Y-9559706D01*
X-19670884Y-9621204D01*
X-19626646Y-9675107D01*
X-19613142Y-9686190D01*
X-16967489Y-12331845D01*
X-16967489Y-12711385D01*
X-17046945Y-12695580D01*
X-17136375Y-12695580D01*
X-17224087Y-12713027D01*
X-17306710Y-12747250D01*
X-17381068Y-12796935D01*
X-17444305Y-12860172D01*
X-17493990Y-12934530D01*
X-17528213Y-13017153D01*
X-17545660Y-13104865D01*
X-17545660Y-13194295D01*
X-17528213Y-13282007D01*
X-17493990Y-13364630D01*
X-17445660Y-13436960D01*
X-17445660Y-13449803D01*
X-17445659Y-13449813D01*
X-17445659Y-13836981D01*
X-17527005Y-13820800D01*
X-17616435Y-13820800D01*
X-17704147Y-13838247D01*
X-17786770Y-13872470D01*
X-17861128Y-13922155D01*
X-17924365Y-13985392D01*
X-17974050Y-14059750D01*
X-18008273Y-14142373D01*
X-18025720Y-14230085D01*
X-18025720Y-14319515D01*
X-18008273Y-14407227D01*
X-17974050Y-14489850D01*
X-17924365Y-14564208D01*
X-17861128Y-14627445D01*
X-17786770Y-14677130D01*
X-17704147Y-14711353D01*
X-17616435Y-14728800D01*
X-17527005Y-14728800D01*
X-17445659Y-14712619D01*
X-17445660Y-17196389D01*
X-17447371Y-17213763D01*
X-17445660Y-17231137D01*
X-17445660Y-17231144D01*
X-17441210Y-17276326D01*
X-17440537Y-17283159D01*
X-17438786Y-17288930D01*
X-17420295Y-17349887D01*
X-17387424Y-17411385D01*
X-17343186Y-17465288D01*
X-17329682Y-17476371D01*
X-16758095Y-18047959D01*
X-17253237Y-17599748D01*
X-18597000Y-16173340D01*
X-19823186Y-14644679D01*
X-20924044Y-13023429D01*
X-21892613Y-11319841D01*
X-22722770Y-9544685D01*
X-23409267Y-7709185D01*
X-23947763Y-5824945D01*
X-24334853Y-3903878D01*
X-24568090Y-1958129D01*
X-24646000Y0D01*
X-24597913Y1208600D01*
X-22477717Y1208600D01*
X-22475399Y1185067D01*
X-22475400Y-125125D01*
X-22468469Y-195499D01*
X-22441079Y-285791D01*
X-22396600Y-369005D01*
X-22336743Y-441943D01*
X-22263805Y-501800D01*
X-22180592Y-546279D01*
X-22090300Y-573669D01*
X-21996400Y-582917D01*
X-21902501Y-573669D01*
X-21812209Y-546279D01*
X-21728995Y-501800D01*
X-21656057Y-441943D01*
X-21596200Y-369005D01*
X-21551721Y-285792D01*
X-21524331Y-195500D01*
X-21517400Y-125126D01*
X-21517400Y1039763D01*
X-21495621Y1080508D01*
X-21468231Y1170800D01*
X-21461300Y1241174D01*
X-21461300Y1241179D01*
X-21458983Y1264699D01*
X-21461300Y1288220D01*
X-21461300Y3312093D01*
X-21412461Y3360932D01*
X-21082261Y3691131D01*
X-21082256Y3691137D01*
X-20777461Y3995932D01*
X-20732600Y4050593D01*
X-20688122Y4133807D01*
X-20660733Y4224099D01*
X-20651483Y4317999D01*
X-20660733Y4411900D01*
X-20688122Y4502191D01*
X-20732600Y4585405D01*
X-20792458Y4658342D01*
X-20865395Y4718200D01*
X-20948609Y4762678D01*
X-21038900Y4790067D01*
X-21132801Y4799317D01*
X-21226701Y4790067D01*
X-21316993Y4762678D01*
X-21400207Y4718200D01*
X-21454868Y4673339D01*
X-21759663Y4368544D01*
X-21759669Y4368539D01*
X-22089869Y4038339D01*
X-22089868Y4038339D01*
X-22262364Y3865843D01*
X-22280642Y3850843D01*
X-22298792Y3828726D01*
X-22340500Y3777905D01*
X-22384978Y3694692D01*
X-22412368Y3604400D01*
X-22421617Y3510500D01*
X-22419299Y3486967D01*
X-22419300Y1433536D01*
X-22441078Y1392792D01*
X-22468468Y1302500D01*
X-22477717Y1208600D01*
X-24597913Y1208600D01*
X-24568090Y1958129D01*
X-24334853Y3903878D01*
X-23947763Y5824945D01*
X-23409267Y7709185D01*
X-22722770Y9544685D01*
X-21892613Y11319841D01*
X-20924044Y13023429D01*
X-20364583Y13847355D01*
X-20319999Y-508789D01*
G37*
X-20319999Y-508789D02*
X-20315119Y-557553D01*
X-20300665Y-605202D01*
X-20277193Y-649115D01*
X-20245605Y-687605D01*
X-20207115Y-719193D01*
X-20163202Y-742665D01*
X-20115553Y-757119D01*
X-20066000Y-762000D01*
X-18083480Y-762000D01*
X-18083481Y-6823410D01*
X-19422226Y-8162156D01*
X-19507547Y-8179127D01*
X-19590170Y-8213350D01*
X-19664528Y-8263035D01*
X-19727765Y-8326272D01*
X-19777450Y-8400630D01*
X-19811673Y-8483253D01*
X-19829120Y-8570965D01*
X-19829120Y-8660395D01*
X-19811673Y-8748107D01*
X-19777450Y-8830730D01*
X-19729120Y-8903060D01*
X-19729120Y-8915903D01*
X-19729119Y-8915913D01*
X-19729120Y-9406207D01*
X-19730831Y-9423582D01*
X-19729120Y-9440956D01*
X-19729120Y-9440963D01*
X-19725541Y-9477296D01*
X-19723997Y-9492978D01*
X-19722792Y-9496949D01*
X-19703755Y-9559706D01*
X-19670884Y-9621204D01*
X-19626646Y-9675107D01*
X-19613142Y-9686190D01*
X-16967489Y-12331845D01*
X-16967489Y-12711385D01*
X-17046945Y-12695580D01*
X-17136375Y-12695580D01*
X-17224087Y-12713027D01*
X-17306710Y-12747250D01*
X-17381068Y-12796935D01*
X-17444305Y-12860172D01*
X-17493990Y-12934530D01*
X-17528213Y-13017153D01*
X-17545660Y-13104865D01*
X-17545660Y-13194295D01*
X-17528213Y-13282007D01*
X-17493990Y-13364630D01*
X-17445660Y-13436960D01*
X-17445660Y-13449803D01*
X-17445659Y-13449813D01*
X-17445659Y-13836981D01*
X-17527005Y-13820800D01*
X-17616435Y-13820800D01*
X-17704147Y-13838247D01*
X-17786770Y-13872470D01*
X-17861128Y-13922155D01*
X-17924365Y-13985392D01*
X-17974050Y-14059750D01*
X-18008273Y-14142373D01*
X-18025720Y-14230085D01*
X-18025720Y-14319515D01*
X-18008273Y-14407227D01*
X-17974050Y-14489850D01*
X-17924365Y-14564208D01*
X-17861128Y-14627445D01*
X-17786770Y-14677130D01*
X-17704147Y-14711353D01*
X-17616435Y-14728800D01*
X-17527005Y-14728800D01*
X-17445659Y-14712619D01*
X-17445660Y-17196389D01*
X-17447371Y-17213763D01*
X-17445660Y-17231137D01*
X-17445660Y-17231144D01*
X-17441210Y-17276326D01*
X-17440537Y-17283159D01*
X-17438786Y-17288930D01*
X-17420295Y-17349887D01*
X-17387424Y-17411385D01*
X-17343186Y-17465288D01*
X-17329682Y-17476371D01*
X-16758095Y-18047959D01*
X-17253237Y-17599748D01*
X-18597000Y-16173340D01*
X-19823186Y-14644679D01*
X-20924044Y-13023429D01*
X-21892613Y-11319841D01*
X-22722770Y-9544685D01*
X-23409267Y-7709185D01*
X-23947763Y-5824945D01*
X-24334853Y-3903878D01*
X-24568090Y-1958129D01*
X-24646000Y0D01*
X-24597913Y1208600D01*
X-22477717Y1208600D01*
X-22475399Y1185067D01*
X-22475400Y-125125D01*
X-22468469Y-195499D01*
X-22441079Y-285791D01*
X-22396600Y-369005D01*
X-22336743Y-441943D01*
X-22263805Y-501800D01*
X-22180592Y-546279D01*
X-22090300Y-573669D01*
X-21996400Y-582917D01*
X-21902501Y-573669D01*
X-21812209Y-546279D01*
X-21728995Y-501800D01*
X-21656057Y-441943D01*
X-21596200Y-369005D01*
X-21551721Y-285792D01*
X-21524331Y-195500D01*
X-21517400Y-125126D01*
X-21517400Y1039763D01*
X-21495621Y1080508D01*
X-21468231Y1170800D01*
X-21461300Y1241174D01*
X-21461300Y1241179D01*
X-21458983Y1264699D01*
X-21461300Y1288220D01*
X-21461300Y3312093D01*
X-21412461Y3360932D01*
X-21082261Y3691131D01*
X-21082256Y3691137D01*
X-20777461Y3995932D01*
X-20732600Y4050593D01*
X-20688122Y4133807D01*
X-20660733Y4224099D01*
X-20651483Y4317999D01*
X-20660733Y4411900D01*
X-20688122Y4502191D01*
X-20732600Y4585405D01*
X-20792458Y4658342D01*
X-20865395Y4718200D01*
X-20948609Y4762678D01*
X-21038900Y4790067D01*
X-21132801Y4799317D01*
X-21226701Y4790067D01*
X-21316993Y4762678D01*
X-21400207Y4718200D01*
X-21454868Y4673339D01*
X-21759663Y4368544D01*
X-21759669Y4368539D01*
X-22089869Y4038339D01*
X-22089868Y4038339D01*
X-22262364Y3865843D01*
X-22280642Y3850843D01*
X-22298792Y3828726D01*
X-22340500Y3777905D01*
X-22384978Y3694692D01*
X-22412368Y3604400D01*
X-22421617Y3510500D01*
X-22419299Y3486967D01*
X-22419300Y1433536D01*
X-22441078Y1392792D01*
X-22468468Y1302500D01*
X-22477717Y1208600D01*
X-24597913Y1208600D01*
X-24568090Y1958129D01*
X-24334853Y3903878D01*
X-23947763Y5824945D01*
X-23409267Y7709185D01*
X-22722770Y9544685D01*
X-21892613Y11319841D01*
X-20924044Y13023429D01*
X-20364583Y13847355D01*
X-20319999Y-508789D01*
G36*
X11644330Y-8880647D02*
G01*
X11749353Y-8985670D01*
X11872847Y-9068186D01*
X11914601Y-9085481D01*
X11914600Y-15396435D01*
X11891270Y-15431350D01*
X11857047Y-15513973D01*
X11839600Y-15601685D01*
X11839600Y-15691115D01*
X11857047Y-15778827D01*
X11891270Y-15861450D01*
X11940955Y-15935808D01*
X12004192Y-15999045D01*
X12078550Y-16048730D01*
X12161173Y-16082953D01*
X12248885Y-16100400D01*
X12338315Y-16100400D01*
X12426027Y-16082953D01*
X12508650Y-16048730D01*
X12583008Y-15999045D01*
X12646245Y-15935808D01*
X12695930Y-15861450D01*
X12730153Y-15778827D01*
X12747600Y-15691115D01*
X12747600Y-15601685D01*
X12730153Y-15513973D01*
X12695930Y-15431350D01*
X12672600Y-15396435D01*
X12672600Y-9011092D01*
X12710647Y-8985670D01*
X12749393Y-8946924D01*
X12749676Y-8949793D01*
X12764200Y-8997672D01*
X12787786Y-9041797D01*
X12819527Y-9080473D01*
X12858203Y-9112214D01*
X12902328Y-9135800D01*
X12950207Y-9150324D01*
X13000000Y-9155228D01*
X13121000Y-9155228D01*
X13121001Y-16649430D01*
X13070992Y-16682845D01*
X13007755Y-16746082D01*
X12958070Y-16820440D01*
X12923847Y-16903063D01*
X12906400Y-16990775D01*
X12906400Y-17080205D01*
X12912028Y-17108500D01*
X12709653Y-17108500D01*
X12541521Y-16940369D01*
X12530436Y-16926862D01*
X12476533Y-16882624D01*
X12415035Y-16849753D01*
X12348306Y-16829511D01*
X12296292Y-16824388D01*
X12296284Y-16824388D01*
X12278910Y-16822677D01*
X12261536Y-16824388D01*
X9151702Y-16824388D01*
X9157330Y-16796093D01*
X9157330Y-16706663D01*
X9139883Y-16618951D01*
X9105660Y-16536328D01*
X9082330Y-16501413D01*
X9082330Y-9543656D01*
X9495836Y-9130150D01*
X9615738Y-9154000D01*
X9764262Y-9154000D01*
X9909934Y-9125024D01*
X10047153Y-9068186D01*
X10170647Y-8985670D01*
X10275670Y-8880647D01*
X10325000Y-8806819D01*
X10374330Y-8880647D01*
X10479353Y-8985670D01*
X10581001Y-9053589D01*
X10581000Y-11069913D01*
X9298770Y-12352144D01*
X9284312Y-12364009D01*
X9255375Y-12399270D01*
X9236951Y-12421720D01*
X9201758Y-12487561D01*
X9180086Y-12559002D01*
X9172768Y-12633299D01*
X9174602Y-12651919D01*
X9174601Y-15427791D01*
X9172768Y-15446401D01*
X9180086Y-15520698D01*
X9183114Y-15530679D01*
X9201757Y-15592138D01*
X9236950Y-15657979D01*
X9284311Y-15715691D01*
X9298775Y-15727561D01*
X9308854Y-15737640D01*
X9317047Y-15778827D01*
X9351270Y-15861450D01*
X9400955Y-15935808D01*
X9464192Y-15999045D01*
X9538550Y-16048730D01*
X9621173Y-16082953D01*
X9708885Y-16100400D01*
X9798315Y-16100400D01*
X9886027Y-16082953D01*
X9968650Y-16048730D01*
X10043008Y-15999045D01*
X10106245Y-15935808D01*
X10155930Y-15861450D01*
X10190153Y-15778827D01*
X10207600Y-15691115D01*
X10207600Y-15601685D01*
X10190153Y-15513973D01*
X10155930Y-15431350D01*
X10106245Y-15356992D01*
X10043008Y-15293755D01*
X9968650Y-15244070D01*
X9932601Y-15229138D01*
X9932601Y-12790285D01*
X11214833Y-11508054D01*
X11229290Y-11496190D01*
X11276651Y-11438479D01*
X11311844Y-11372638D01*
X11333515Y-11301197D01*
X11339000Y-11245510D01*
X11339000Y-11245509D01*
X11340833Y-11226900D01*
X11339000Y-11208290D01*
X11339000Y-9053588D01*
X11440647Y-8985670D01*
X11545670Y-8880647D01*
X11595000Y-8806819D01*
X11644330Y-8880647D01*
G37*
X11644330Y-8880647D02*
X11749353Y-8985670D01*
X11872847Y-9068186D01*
X11914601Y-9085481D01*
X11914600Y-15396435D01*
X11891270Y-15431350D01*
X11857047Y-15513973D01*
X11839600Y-15601685D01*
X11839600Y-15691115D01*
X11857047Y-15778827D01*
X11891270Y-15861450D01*
X11940955Y-15935808D01*
X12004192Y-15999045D01*
X12078550Y-16048730D01*
X12161173Y-16082953D01*
X12248885Y-16100400D01*
X12338315Y-16100400D01*
X12426027Y-16082953D01*
X12508650Y-16048730D01*
X12583008Y-15999045D01*
X12646245Y-15935808D01*
X12695930Y-15861450D01*
X12730153Y-15778827D01*
X12747600Y-15691115D01*
X12747600Y-15601685D01*
X12730153Y-15513973D01*
X12695930Y-15431350D01*
X12672600Y-15396435D01*
X12672600Y-9011092D01*
X12710647Y-8985670D01*
X12749393Y-8946924D01*
X12749676Y-8949793D01*
X12764200Y-8997672D01*
X12787786Y-9041797D01*
X12819527Y-9080473D01*
X12858203Y-9112214D01*
X12902328Y-9135800D01*
X12950207Y-9150324D01*
X13000000Y-9155228D01*
X13121000Y-9155228D01*
X13121001Y-16649430D01*
X13070992Y-16682845D01*
X13007755Y-16746082D01*
X12958070Y-16820440D01*
X12923847Y-16903063D01*
X12906400Y-16990775D01*
X12906400Y-17080205D01*
X12912028Y-17108500D01*
X12709653Y-17108500D01*
X12541521Y-16940369D01*
X12530436Y-16926862D01*
X12476533Y-16882624D01*
X12415035Y-16849753D01*
X12348306Y-16829511D01*
X12296292Y-16824388D01*
X12296284Y-16824388D01*
X12278910Y-16822677D01*
X12261536Y-16824388D01*
X9151702Y-16824388D01*
X9157330Y-16796093D01*
X9157330Y-16706663D01*
X9139883Y-16618951D01*
X9105660Y-16536328D01*
X9082330Y-16501413D01*
X9082330Y-9543656D01*
X9495836Y-9130150D01*
X9615738Y-9154000D01*
X9764262Y-9154000D01*
X9909934Y-9125024D01*
X10047153Y-9068186D01*
X10170647Y-8985670D01*
X10275670Y-8880647D01*
X10325000Y-8806819D01*
X10374330Y-8880647D01*
X10479353Y-8985670D01*
X10581001Y-9053589D01*
X10581000Y-11069913D01*
X9298770Y-12352144D01*
X9284312Y-12364009D01*
X9255375Y-12399270D01*
X9236951Y-12421720D01*
X9201758Y-12487561D01*
X9180086Y-12559002D01*
X9172768Y-12633299D01*
X9174602Y-12651919D01*
X9174601Y-15427791D01*
X9172768Y-15446401D01*
X9180086Y-15520698D01*
X9183114Y-15530679D01*
X9201757Y-15592138D01*
X9236950Y-15657979D01*
X9284311Y-15715691D01*
X9298775Y-15727561D01*
X9308854Y-15737640D01*
X9317047Y-15778827D01*
X9351270Y-15861450D01*
X9400955Y-15935808D01*
X9464192Y-15999045D01*
X9538550Y-16048730D01*
X9621173Y-16082953D01*
X9708885Y-16100400D01*
X9798315Y-16100400D01*
X9886027Y-16082953D01*
X9968650Y-16048730D01*
X10043008Y-15999045D01*
X10106245Y-15935808D01*
X10155930Y-15861450D01*
X10190153Y-15778827D01*
X10207600Y-15691115D01*
X10207600Y-15601685D01*
X10190153Y-15513973D01*
X10155930Y-15431350D01*
X10106245Y-15356992D01*
X10043008Y-15293755D01*
X9968650Y-15244070D01*
X9932601Y-15229138D01*
X9932601Y-12790285D01*
X11214833Y-11508054D01*
X11229290Y-11496190D01*
X11276651Y-11438479D01*
X11311844Y-11372638D01*
X11333515Y-11301197D01*
X11339000Y-11245510D01*
X11339000Y-11245509D01*
X11340833Y-11226900D01*
X11339000Y-11208290D01*
X11339000Y-9053588D01*
X11440647Y-8985670D01*
X11545670Y-8880647D01*
X11595000Y-8806819D01*
X11644330Y-8880647D01*
G36*
X-629260Y-8568425D02*
G01*
X-629260Y-8657855D01*
X-611813Y-8745567D01*
X-577590Y-8828190D01*
X-527905Y-8902548D01*
X-464668Y-8965785D01*
X-390310Y-9015470D01*
X-329261Y-9040757D01*
X-329261Y-9054845D01*
X-330972Y-9072219D01*
X-329261Y-9089593D01*
X-329261Y-9089600D01*
X-325772Y-9125024D01*
X-324138Y-9141615D01*
X-323347Y-9144221D01*
X-303896Y-9208343D01*
X-271025Y-9269841D01*
X-226787Y-9323744D01*
X-213284Y-9334826D01*
X75261Y-9623372D01*
X75260Y-15103528D01*
X-194074Y-15372863D01*
X-213571Y-15364787D01*
X-301283Y-15347340D01*
X-390713Y-15347340D01*
X-478425Y-15364787D01*
X-561048Y-15399010D01*
X-635406Y-15448695D01*
X-698643Y-15511932D01*
X-748328Y-15586290D01*
X-782551Y-15668913D01*
X-799998Y-15756625D01*
X-799998Y-15846055D01*
X-782551Y-15933767D01*
X-748328Y-16016390D01*
X-698643Y-16090748D01*
X-635406Y-16153985D01*
X-561048Y-16203670D01*
X-478425Y-16237893D01*
X-429187Y-16247687D01*
X-427665Y-16255342D01*
X-3578261Y-16255342D01*
X-3574150Y-16234675D01*
X-3574150Y-16145245D01*
X-3591597Y-16057533D01*
X-3625820Y-15974910D01*
X-3669656Y-15909306D01*
X-3612227Y-15933093D01*
X-3524515Y-15950540D01*
X-3435085Y-15950540D01*
X-3347373Y-15933093D01*
X-3264750Y-15898870D01*
X-3190392Y-15849185D01*
X-3163570Y-15822363D01*
X-3141828Y-15844105D01*
X-3067470Y-15893790D01*
X-2984847Y-15928013D01*
X-2897135Y-15945460D01*
X-2807705Y-15945460D01*
X-2719993Y-15928013D01*
X-2637370Y-15893790D01*
X-2563012Y-15844105D01*
X-2499775Y-15780868D01*
X-2450090Y-15706510D01*
X-2415867Y-15623887D01*
X-2398896Y-15538567D01*
X-2370557Y-15510228D01*
X-2357054Y-15499146D01*
X-2312816Y-15445243D01*
X-2281303Y-15386286D01*
X-2279945Y-15383746D01*
X-2259703Y-15317017D01*
X-2258171Y-15301458D01*
X-2254580Y-15265002D01*
X-2254580Y-15264995D01*
X-2252869Y-15247620D01*
X-2254580Y-15230246D01*
X-2254580Y-14430100D01*
X-2206250Y-14357770D01*
X-2172027Y-14275147D01*
X-2154580Y-14187435D01*
X-2154580Y-14098005D01*
X-2172027Y-14010293D01*
X-2206250Y-13927670D01*
X-2255935Y-13853312D01*
X-2319172Y-13790075D01*
X-2393530Y-13740390D01*
X-2476153Y-13706167D01*
X-2563865Y-13688720D01*
X-2653295Y-13688720D01*
X-2724480Y-13702880D01*
X-2724480Y-10519990D01*
X-724589Y-8520100D01*
X-619648Y-8520100D01*
X-629260Y-8568425D01*
G37*
X-629260Y-8568425D02*
X-629260Y-8657855D01*
X-611813Y-8745567D01*
X-577590Y-8828190D01*
X-527905Y-8902548D01*
X-464668Y-8965785D01*
X-390310Y-9015470D01*
X-329261Y-9040757D01*
X-329261Y-9054845D01*
X-330972Y-9072219D01*
X-329261Y-9089593D01*
X-329261Y-9089600D01*
X-325772Y-9125024D01*
X-324138Y-9141615D01*
X-323347Y-9144221D01*
X-303896Y-9208343D01*
X-271025Y-9269841D01*
X-226787Y-9323744D01*
X-213284Y-9334826D01*
X75261Y-9623372D01*
X75260Y-15103528D01*
X-194074Y-15372863D01*
X-213571Y-15364787D01*
X-301283Y-15347340D01*
X-390713Y-15347340D01*
X-478425Y-15364787D01*
X-561048Y-15399010D01*
X-635406Y-15448695D01*
X-698643Y-15511932D01*
X-748328Y-15586290D01*
X-782551Y-15668913D01*
X-799998Y-15756625D01*
X-799998Y-15846055D01*
X-782551Y-15933767D01*
X-748328Y-16016390D01*
X-698643Y-16090748D01*
X-635406Y-16153985D01*
X-561048Y-16203670D01*
X-478425Y-16237893D01*
X-429187Y-16247687D01*
X-427665Y-16255342D01*
X-3578261Y-16255342D01*
X-3574150Y-16234675D01*
X-3574150Y-16145245D01*
X-3591597Y-16057533D01*
X-3625820Y-15974910D01*
X-3669656Y-15909306D01*
X-3612227Y-15933093D01*
X-3524515Y-15950540D01*
X-3435085Y-15950540D01*
X-3347373Y-15933093D01*
X-3264750Y-15898870D01*
X-3190392Y-15849185D01*
X-3163570Y-15822363D01*
X-3141828Y-15844105D01*
X-3067470Y-15893790D01*
X-2984847Y-15928013D01*
X-2897135Y-15945460D01*
X-2807705Y-15945460D01*
X-2719993Y-15928013D01*
X-2637370Y-15893790D01*
X-2563012Y-15844105D01*
X-2499775Y-15780868D01*
X-2450090Y-15706510D01*
X-2415867Y-15623887D01*
X-2398896Y-15538567D01*
X-2370557Y-15510228D01*
X-2357054Y-15499146D01*
X-2312816Y-15445243D01*
X-2281303Y-15386286D01*
X-2279945Y-15383746D01*
X-2259703Y-15317017D01*
X-2258171Y-15301458D01*
X-2254580Y-15265002D01*
X-2254580Y-15264995D01*
X-2252869Y-15247620D01*
X-2254580Y-15230246D01*
X-2254580Y-14430100D01*
X-2206250Y-14357770D01*
X-2172027Y-14275147D01*
X-2154580Y-14187435D01*
X-2154580Y-14098005D01*
X-2172027Y-14010293D01*
X-2206250Y-13927670D01*
X-2255935Y-13853312D01*
X-2319172Y-13790075D01*
X-2393530Y-13740390D01*
X-2476153Y-13706167D01*
X-2563865Y-13688720D01*
X-2653295Y-13688720D01*
X-2724480Y-13702880D01*
X-2724480Y-10519990D01*
X-724589Y-8520100D01*
X-619648Y-8520100D01*
X-629260Y-8568425D01*
G36*
X-9498000Y1364668D02*
G01*
X-9497999Y-4059316D01*
X-9499711Y-4076700D01*
X-9492877Y-4146096D01*
X-9478716Y-4192775D01*
X-9472634Y-4212825D01*
X-9439763Y-4274323D01*
X-9395525Y-4328226D01*
X-9382023Y-4339307D01*
X-6104560Y-7616771D01*
X-6104559Y-7980319D01*
X-6152890Y-8052650D01*
X-6187113Y-8135273D01*
X-6204560Y-8222985D01*
X-6204560Y-8312415D01*
X-6187113Y-8400127D01*
X-6152890Y-8482750D01*
X-6103205Y-8557108D01*
X-6039968Y-8620345D01*
X-5965610Y-8670030D01*
X-5882987Y-8704253D01*
X-5814840Y-8717808D01*
X-6422923Y-9325893D01*
X-6436425Y-9336974D01*
X-6480663Y-9390877D01*
X-6501692Y-9430220D01*
X-6513534Y-9452375D01*
X-6533777Y-9519104D01*
X-6540611Y-9588500D01*
X-6538899Y-9605884D01*
X-6538900Y-9951359D01*
X-6587230Y-10023690D01*
X-6621453Y-10106313D01*
X-6638900Y-10194025D01*
X-6638900Y-10283455D01*
X-6621453Y-10371167D01*
X-6587230Y-10453790D01*
X-6537545Y-10528148D01*
X-6474308Y-10591385D01*
X-6399950Y-10641070D01*
X-6317327Y-10675293D01*
X-6229615Y-10692740D01*
X-6140185Y-10692740D01*
X-6052473Y-10675293D01*
X-5969850Y-10641070D01*
X-5895492Y-10591385D01*
X-5832255Y-10528148D01*
X-5782570Y-10453790D01*
X-5748347Y-10371167D01*
X-5730900Y-10283455D01*
X-5730900Y-10194025D01*
X-5748347Y-10106313D01*
X-5782570Y-10023690D01*
X-5830900Y-9951360D01*
X-5830900Y-9735130D01*
X-5070566Y-8974798D01*
X-5057075Y-8963726D01*
X-5046002Y-8950234D01*
X-5045994Y-8950226D01*
X-5012837Y-8909824D01*
X-5012836Y-8909823D01*
X-4979965Y-8848325D01*
X-4961820Y-8788510D01*
X-4959723Y-8781597D01*
X-4957257Y-8756558D01*
X-4954600Y-8729582D01*
X-4954600Y-8729575D01*
X-4952889Y-8712201D01*
X-4954600Y-8694827D01*
X-4954600Y-7467011D01*
X-4952889Y-7449637D01*
X-4954600Y-7432263D01*
X-4954600Y-7432256D01*
X-4959723Y-7380242D01*
X-4979965Y-7313513D01*
X-5012836Y-7252015D01*
X-5029168Y-7232115D01*
X-5045994Y-7211612D01*
X-5045997Y-7211609D01*
X-5057074Y-7198112D01*
X-5070571Y-7187035D01*
X-7361157Y-4896450D01*
X-7337169Y-4880422D01*
X-7273932Y-4817185D01*
X-7224247Y-4742827D01*
X-7190024Y-4660204D01*
X-7172577Y-4572492D01*
X-7172577Y-4483062D01*
X-7190024Y-4395350D01*
X-7198920Y-4373873D01*
X-7196790Y-4372450D01*
X-7133553Y-4309213D01*
X-7083868Y-4234855D01*
X-7049645Y-4152232D01*
X-7032198Y-4064520D01*
X-7032198Y-3975090D01*
X-7049645Y-3887378D01*
X-7081548Y-3810356D01*
X-7076592Y-3807045D01*
X-7013355Y-3743808D01*
X-6963670Y-3669450D01*
X-6956091Y-3651152D01*
X-6566899Y-4344619D01*
X-5864336Y-5254468D01*
X-5036785Y-6052328D01*
X-4101884Y-6721192D01*
X-3079559Y-7246806D01*
X-1991597Y-7617967D01*
X-1396164Y-7727949D01*
X-1691058Y-8022843D01*
X-1727615Y-7968132D01*
X-1790852Y-7904895D01*
X-1865210Y-7855210D01*
X-1947833Y-7820987D01*
X-2035545Y-7803540D01*
X-2124975Y-7803540D01*
X-2212687Y-7820987D01*
X-2295310Y-7855210D01*
X-2369668Y-7904895D01*
X-2432905Y-7968132D01*
X-2482590Y-8042490D01*
X-2516813Y-8125113D01*
X-2534260Y-8212825D01*
X-2534260Y-8302255D01*
X-2516813Y-8389967D01*
X-2482590Y-8472590D01*
X-2432905Y-8546948D01*
X-2369668Y-8610185D01*
X-2314957Y-8646742D01*
X-3643513Y-9975300D01*
X-3657017Y-9986383D01*
X-3701255Y-10040286D01*
X-3734126Y-10101784D01*
X-3754368Y-10168513D01*
X-3759491Y-10220527D01*
X-3759491Y-10220534D01*
X-3761202Y-10237908D01*
X-3759491Y-10255282D01*
X-3759490Y-13599374D01*
X-3833865Y-13584580D01*
X-3923295Y-13584580D01*
X-4011007Y-13602027D01*
X-4093630Y-13636250D01*
X-4167988Y-13685935D01*
X-4231225Y-13749172D01*
X-4280910Y-13823530D01*
X-4315133Y-13906153D01*
X-4332580Y-13993865D01*
X-4332580Y-14083295D01*
X-4315133Y-14171007D01*
X-4280910Y-14253630D01*
X-4231225Y-14327988D01*
X-4167988Y-14391225D01*
X-4093630Y-14440910D01*
X-4011007Y-14475133D01*
X-3923295Y-14492580D01*
X-3833865Y-14492580D01*
X-3759490Y-14477786D01*
X-3759490Y-14577221D01*
X-4035288Y-14853020D01*
X-4035293Y-14853024D01*
X-4044374Y-14862105D01*
X-4129694Y-14879076D01*
X-4212317Y-14913299D01*
X-4286675Y-14962984D01*
X-4349912Y-15026221D01*
X-4399597Y-15100579D01*
X-4433820Y-15183202D01*
X-4451267Y-15270914D01*
X-4451267Y-15360344D01*
X-4433820Y-15448056D01*
X-4399597Y-15530679D01*
X-4349912Y-15605037D01*
X-4318988Y-15635961D01*
X-10535948Y-15635961D01*
X-12168200Y-14003710D01*
X-12168200Y-13213514D01*
X-12084315Y-13230200D01*
X-11994885Y-13230200D01*
X-11907173Y-13212753D01*
X-11824550Y-13178530D01*
X-11750192Y-13128845D01*
X-11686955Y-13065608D01*
X-11639203Y-12994143D01*
X-11601715Y-13001600D01*
X-11512285Y-13001600D01*
X-11452009Y-12989610D01*
X-11451330Y-12991250D01*
X-11401645Y-13065608D01*
X-11338408Y-13128845D01*
X-11264050Y-13178530D01*
X-11181427Y-13212753D01*
X-11093715Y-13230200D01*
X-11004285Y-13230200D01*
X-10916573Y-13212753D01*
X-10833950Y-13178530D01*
X-10759592Y-13128845D01*
X-10696355Y-13065608D01*
X-10646670Y-12991250D01*
X-10612447Y-12908627D01*
X-10610731Y-12900000D01*
X-10521685Y-12900000D01*
X-10497621Y-12895213D01*
X-10494953Y-12908627D01*
X-10460730Y-12991250D01*
X-10411045Y-13065608D01*
X-10347808Y-13128845D01*
X-10273450Y-13178530D01*
X-10190827Y-13212753D01*
X-10103115Y-13230200D01*
X-10013685Y-13230200D01*
X-9925973Y-13212753D01*
X-9843350Y-13178530D01*
X-9768992Y-13128845D01*
X-9705755Y-13065608D01*
X-9656070Y-12991250D01*
X-9621847Y-12908627D01*
X-9618212Y-12890353D01*
X-9569715Y-12900000D01*
X-9480285Y-12900000D01*
X-9453196Y-12894612D01*
X-9444730Y-12915050D01*
X-9395045Y-12989408D01*
X-9331808Y-13052645D01*
X-9257450Y-13102330D01*
X-9174827Y-13136553D01*
X-9087115Y-13154000D01*
X-8997685Y-13154000D01*
X-8909973Y-13136553D01*
X-8827350Y-13102330D01*
X-8752992Y-13052645D01*
X-8689755Y-12989408D01*
X-8640070Y-12915050D01*
X-8605847Y-12832427D01*
X-8588400Y-12744715D01*
X-8588400Y-12655285D01*
X-8605847Y-12567573D01*
X-8640070Y-12484950D01*
X-8688400Y-12412620D01*
X-8688400Y-11919560D01*
X-8682725Y-11919560D01*
X-8595013Y-11902113D01*
X-8512390Y-11867890D01*
X-8438032Y-11818205D01*
X-8374795Y-11754968D01*
X-8325110Y-11680610D01*
X-8290887Y-11597987D01*
X-8273440Y-11510275D01*
X-8273440Y-11420845D01*
X-8290887Y-11333133D01*
X-8325110Y-11250510D01*
X-8374795Y-11176152D01*
X-8438032Y-11112915D01*
X-8512390Y-11063230D01*
X-8595013Y-11029007D01*
X-8682725Y-11011560D01*
X-8772155Y-11011560D01*
X-8859867Y-11029007D01*
X-8942490Y-11063230D01*
X-9016848Y-11112915D01*
X-9080085Y-11176152D01*
X-9093316Y-11195953D01*
X-10960943Y-9328327D01*
X-10972029Y-9314819D01*
X-11025932Y-9270581D01*
X-11087430Y-9237710D01*
X-11154159Y-9217468D01*
X-11206173Y-9212345D01*
X-11206181Y-9212345D01*
X-11223555Y-9210634D01*
X-11240929Y-9212345D01*
X-12029419Y-9212345D01*
X-12244174Y-8997590D01*
X-12244174Y-6642541D01*
X-11955779Y-6642541D01*
X-11948159Y-8837101D01*
X-11945785Y-8861107D01*
X-11938621Y-8884950D01*
X-11926943Y-8906938D01*
X-11911200Y-8926225D01*
X-11891996Y-8942070D01*
X-11870071Y-8953864D01*
X-11846266Y-8961154D01*
X-11821496Y-8963660D01*
X-9064062Y-8970948D01*
X-9047474Y-10717466D01*
X-9045292Y-10739734D01*
X-9038314Y-10763633D01*
X-9026808Y-10785711D01*
X-9011215Y-10805120D01*
X-8992136Y-10821114D01*
X-8970303Y-10833079D01*
X-8946556Y-10840554D01*
X-8921806Y-10843253D01*
X-8074174Y-10852106D01*
X-8067039Y-12695412D01*
X-8064600Y-12719696D01*
X-8057373Y-12743521D01*
X-8045637Y-12765477D01*
X-8029843Y-12784723D01*
X-8010597Y-12800517D01*
X-7988641Y-12812253D01*
X-7964816Y-12819480D01*
X-7940040Y-12821920D01*
X-7155180Y-12821920D01*
X-7130569Y-12819513D01*
X-7106735Y-12812317D01*
X-7084763Y-12800610D01*
X-7065497Y-12784842D01*
X-7049677Y-12765618D01*
X-7044995Y-12756885D01*
X-6875120Y-12756885D01*
X-6875120Y-12846315D01*
X-6857673Y-12934027D01*
X-6823450Y-13016650D01*
X-6773765Y-13091008D01*
X-6710528Y-13154245D01*
X-6636170Y-13203930D01*
X-6553547Y-13238153D01*
X-6465835Y-13255600D01*
X-6376405Y-13255600D01*
X-6288693Y-13238153D01*
X-6206070Y-13203930D01*
X-6131712Y-13154245D01*
X-6068475Y-13091008D01*
X-6018790Y-13016650D01*
X-5984567Y-12934027D01*
X-5967120Y-12846315D01*
X-5967120Y-12756885D01*
X-5984567Y-12669173D01*
X-6018790Y-12586550D01*
X-6068475Y-12512192D01*
X-6131712Y-12448955D01*
X-6206070Y-12399270D01*
X-6288693Y-12365047D01*
X-6376405Y-12347600D01*
X-6465835Y-12347600D01*
X-6553547Y-12365047D01*
X-6636170Y-12399270D01*
X-6710528Y-12448955D01*
X-6773765Y-12512192D01*
X-6823450Y-12586550D01*
X-6857673Y-12669173D01*
X-6875120Y-12756885D01*
X-7044995Y-12756885D01*
X-7037912Y-12743677D01*
X-7030653Y-12719862D01*
X-7028180Y-12695089D01*
X-7026225Y-11225265D01*
X-5340960Y-11225265D01*
X-5340960Y-11314695D01*
X-5323513Y-11402407D01*
X-5289290Y-11485030D01*
X-5239605Y-11559388D01*
X-5176368Y-11622625D01*
X-5102010Y-11672310D01*
X-5019387Y-11706533D01*
X-4931675Y-11723980D01*
X-4842245Y-11723980D01*
X-4754533Y-11706533D01*
X-4671910Y-11672310D01*
X-4597552Y-11622625D01*
X-4534315Y-11559388D01*
X-4484630Y-11485030D01*
X-4450407Y-11402407D01*
X-4432960Y-11314695D01*
X-4432960Y-11225265D01*
X-4450407Y-11137553D01*
X-4484630Y-11054930D01*
X-4534315Y-10980572D01*
X-4597552Y-10917335D01*
X-4671910Y-10867650D01*
X-4754533Y-10833427D01*
X-4842245Y-10815980D01*
X-4931675Y-10815980D01*
X-5019387Y-10833427D01*
X-5102010Y-10867650D01*
X-5176368Y-10917335D01*
X-5239605Y-10980572D01*
X-5289290Y-11054930D01*
X-5323513Y-11137553D01*
X-5340960Y-11225265D01*
X-7026225Y-11225265D01*
X-7023100Y-8877469D01*
X-7023100Y-7538720D01*
X-7025619Y-7513549D01*
X-7032922Y-7489748D01*
X-7044727Y-7467829D01*
X-7060582Y-7448634D01*
X-7079877Y-7432901D01*
X-7101871Y-7421234D01*
X-7125718Y-7414082D01*
X-7150502Y-7411721D01*
X-7825741Y-7413858D01*
X-7825746Y-6638508D01*
X-7828193Y-6613699D01*
X-7835426Y-6589876D01*
X-7847169Y-6567923D01*
X-7862968Y-6548682D01*
X-7882217Y-6532893D01*
X-7904177Y-6521163D01*
X-7928003Y-6513943D01*
X-7952780Y-6511509D01*
X-11823734Y-6512560D01*
X-11857244Y-6517070D01*
X-11880496Y-6525968D01*
X-11885576Y-6528508D01*
X-11899704Y-6536749D01*
X-11918894Y-6552610D01*
X-11934621Y-6571910D01*
X-11946281Y-6593907D01*
X-11953425Y-6617756D01*
X-11955779Y-6642541D01*
X-12244174Y-6642541D01*
X-12244174Y-6191604D01*
X-11863048Y-5810480D01*
X-11329511Y-5810480D01*
X-11257181Y-5858810D01*
X-11174558Y-5893033D01*
X-11086846Y-5910480D01*
X-10997416Y-5910480D01*
X-10909704Y-5893033D01*
X-10827081Y-5858810D01*
X-10752723Y-5809125D01*
X-10689486Y-5745888D01*
X-10639801Y-5671530D01*
X-10605578Y-5588907D01*
X-10588131Y-5501195D01*
X-10588131Y-5411765D01*
X-10605578Y-5324053D01*
X-10639801Y-5241430D01*
X-10689486Y-5167072D01*
X-10752723Y-5103835D01*
X-10759241Y-5099480D01*
X-10708140Y-5048380D01*
X-10622821Y-5031409D01*
X-10540198Y-4997186D01*
X-10465840Y-4947501D01*
X-10402603Y-4884264D01*
X-10352918Y-4809906D01*
X-10318695Y-4727283D01*
X-10301248Y-4639571D01*
X-10301248Y-4550141D01*
X-10318695Y-4462429D01*
X-10352918Y-4379806D01*
X-10402603Y-4305448D01*
X-10465840Y-4242211D01*
X-10487111Y-4227998D01*
X-10487067Y-4227891D01*
X-10469620Y-4140179D01*
X-10469620Y-4050749D01*
X-10487067Y-3963037D01*
X-10517452Y-3889680D01*
X-10408514Y-3889680D01*
X-10391140Y-3891391D01*
X-10373766Y-3889680D01*
X-10373758Y-3889680D01*
X-10321744Y-3884557D01*
X-10255015Y-3864315D01*
X-10193517Y-3831444D01*
X-10139614Y-3787206D01*
X-10128529Y-3773699D01*
X-9921972Y-3567143D01*
X-9908475Y-3556066D01*
X-9897397Y-3542568D01*
X-9897394Y-3542565D01*
X-9864237Y-3502164D01*
X-9864236Y-3502163D01*
X-9831365Y-3440665D01*
X-9811123Y-3373936D01*
X-9806000Y-3321922D01*
X-9806000Y-3321915D01*
X-9804289Y-3304541D01*
X-9806000Y-3287167D01*
X-9806000Y-3228700D01*
X-9757670Y-3156370D01*
X-9723447Y-3073747D01*
X-9706000Y-2986035D01*
X-9706000Y-2896605D01*
X-9723447Y-2808893D01*
X-9757670Y-2726270D01*
X-9807355Y-2651912D01*
X-9870592Y-2588675D01*
X-9944950Y-2538990D01*
X-10027573Y-2504767D01*
X-10115285Y-2487320D01*
X-10204715Y-2487320D01*
X-10292427Y-2504767D01*
X-10375050Y-2538990D01*
X-10449408Y-2588675D01*
X-10512645Y-2651912D01*
X-10562330Y-2726270D01*
X-10596553Y-2808893D01*
X-10614000Y-2896605D01*
X-10614000Y-2986035D01*
X-10596553Y-3073747D01*
X-10562330Y-3156370D01*
X-10545418Y-3181680D01*
X-10950346Y-3181680D01*
X-10967721Y-3179969D01*
X-10985095Y-3181680D01*
X-10985102Y-3181680D01*
X-11026648Y-3185772D01*
X-11037117Y-3186803D01*
X-11057359Y-3192944D01*
X-11103845Y-3207045D01*
X-11165343Y-3239916D01*
X-11219246Y-3284154D01*
X-11230327Y-3297656D01*
X-11591413Y-3658742D01*
X-11615835Y-3622192D01*
X-11655543Y-3582484D01*
X-11632431Y-3526687D01*
X-11614984Y-3438975D01*
X-11614984Y-3349545D01*
X-11632431Y-3261833D01*
X-11666654Y-3179210D01*
X-11716339Y-3104852D01*
X-11779576Y-3041615D01*
X-11853934Y-2991930D01*
X-11936557Y-2957707D01*
X-12024269Y-2940260D01*
X-12113699Y-2940260D01*
X-12201411Y-2957707D01*
X-12284034Y-2991930D01*
X-12358392Y-3041615D01*
X-12421629Y-3104852D01*
X-12471314Y-3179210D01*
X-12505537Y-3261833D01*
X-12522984Y-3349545D01*
X-12522984Y-3438975D01*
X-12505537Y-3526687D01*
X-12471314Y-3609310D01*
X-12421629Y-3683668D01*
X-12381921Y-3723376D01*
X-12405033Y-3779173D01*
X-12422480Y-3866885D01*
X-12422480Y-3956315D01*
X-12405033Y-4044027D01*
X-12394929Y-4068421D01*
X-12404005Y-4068421D01*
X-12421380Y-4066710D01*
X-12438754Y-4068421D01*
X-12438761Y-4068421D01*
X-12483943Y-4072871D01*
X-12490776Y-4073544D01*
X-12501179Y-4076700D01*
X-12557504Y-4093786D01*
X-12619002Y-4126657D01*
X-12672905Y-4170895D01*
X-12683986Y-4184397D01*
X-13552218Y-5052630D01*
X-13552218Y-3715612D01*
X-12728672Y-2892067D01*
X-12715175Y-2880990D01*
X-12704097Y-2867492D01*
X-12704094Y-2867489D01*
X-12688828Y-2848887D01*
X-12670936Y-2827087D01*
X-12638065Y-2765589D01*
X-12617823Y-2698860D01*
X-12612700Y-2646846D01*
X-12612700Y-2646839D01*
X-12610989Y-2629465D01*
X-12612700Y-2612090D01*
X-12612700Y1477134D01*
X-12602583Y1510485D01*
X-12595749Y1579880D01*
X-12600978Y1632980D01*
X-12516115Y1616100D01*
X-12426685Y1616100D01*
X-12338973Y1633547D01*
X-12256350Y1667770D01*
X-12184020Y1716100D01*
X-9849430Y1716100D01*
X-9498000Y1364668D01*
G37*
X-9498000Y1364668D02*
X-9497999Y-4059316D01*
X-9499711Y-4076700D01*
X-9492877Y-4146096D01*
X-9478716Y-4192775D01*
X-9472634Y-4212825D01*
X-9439763Y-4274323D01*
X-9395525Y-4328226D01*
X-9382023Y-4339307D01*
X-6104560Y-7616771D01*
X-6104559Y-7980319D01*
X-6152890Y-8052650D01*
X-6187113Y-8135273D01*
X-6204560Y-8222985D01*
X-6204560Y-8312415D01*
X-6187113Y-8400127D01*
X-6152890Y-8482750D01*
X-6103205Y-8557108D01*
X-6039968Y-8620345D01*
X-5965610Y-8670030D01*
X-5882987Y-8704253D01*
X-5814840Y-8717808D01*
X-6422923Y-9325893D01*
X-6436425Y-9336974D01*
X-6480663Y-9390877D01*
X-6501692Y-9430220D01*
X-6513534Y-9452375D01*
X-6533777Y-9519104D01*
X-6540611Y-9588500D01*
X-6538899Y-9605884D01*
X-6538900Y-9951359D01*
X-6587230Y-10023690D01*
X-6621453Y-10106313D01*
X-6638900Y-10194025D01*
X-6638900Y-10283455D01*
X-6621453Y-10371167D01*
X-6587230Y-10453790D01*
X-6537545Y-10528148D01*
X-6474308Y-10591385D01*
X-6399950Y-10641070D01*
X-6317327Y-10675293D01*
X-6229615Y-10692740D01*
X-6140185Y-10692740D01*
X-6052473Y-10675293D01*
X-5969850Y-10641070D01*
X-5895492Y-10591385D01*
X-5832255Y-10528148D01*
X-5782570Y-10453790D01*
X-5748347Y-10371167D01*
X-5730900Y-10283455D01*
X-5730900Y-10194025D01*
X-5748347Y-10106313D01*
X-5782570Y-10023690D01*
X-5830900Y-9951360D01*
X-5830900Y-9735130D01*
X-5070566Y-8974798D01*
X-5057075Y-8963726D01*
X-5046002Y-8950234D01*
X-5045994Y-8950226D01*
X-5012837Y-8909824D01*
X-5012836Y-8909823D01*
X-4979965Y-8848325D01*
X-4961820Y-8788510D01*
X-4959723Y-8781597D01*
X-4957257Y-8756558D01*
X-4954600Y-8729582D01*
X-4954600Y-8729575D01*
X-4952889Y-8712201D01*
X-4954600Y-8694827D01*
X-4954600Y-7467011D01*
X-4952889Y-7449637D01*
X-4954600Y-7432263D01*
X-4954600Y-7432256D01*
X-4959723Y-7380242D01*
X-4979965Y-7313513D01*
X-5012836Y-7252015D01*
X-5029168Y-7232115D01*
X-5045994Y-7211612D01*
X-5045997Y-7211609D01*
X-5057074Y-7198112D01*
X-5070571Y-7187035D01*
X-7361157Y-4896450D01*
X-7337169Y-4880422D01*
X-7273932Y-4817185D01*
X-7224247Y-4742827D01*
X-7190024Y-4660204D01*
X-7172577Y-4572492D01*
X-7172577Y-4483062D01*
X-7190024Y-4395350D01*
X-7198920Y-4373873D01*
X-7196790Y-4372450D01*
X-7133553Y-4309213D01*
X-7083868Y-4234855D01*
X-7049645Y-4152232D01*
X-7032198Y-4064520D01*
X-7032198Y-3975090D01*
X-7049645Y-3887378D01*
X-7081548Y-3810356D01*
X-7076592Y-3807045D01*
X-7013355Y-3743808D01*
X-6963670Y-3669450D01*
X-6956091Y-3651152D01*
X-6566899Y-4344619D01*
X-5864336Y-5254468D01*
X-5036785Y-6052328D01*
X-4101884Y-6721192D01*
X-3079559Y-7246806D01*
X-1991597Y-7617967D01*
X-1396164Y-7727949D01*
X-1691058Y-8022843D01*
X-1727615Y-7968132D01*
X-1790852Y-7904895D01*
X-1865210Y-7855210D01*
X-1947833Y-7820987D01*
X-2035545Y-7803540D01*
X-2124975Y-7803540D01*
X-2212687Y-7820987D01*
X-2295310Y-7855210D01*
X-2369668Y-7904895D01*
X-2432905Y-7968132D01*
X-2482590Y-8042490D01*
X-2516813Y-8125113D01*
X-2534260Y-8212825D01*
X-2534260Y-8302255D01*
X-2516813Y-8389967D01*
X-2482590Y-8472590D01*
X-2432905Y-8546948D01*
X-2369668Y-8610185D01*
X-2314957Y-8646742D01*
X-3643513Y-9975300D01*
X-3657017Y-9986383D01*
X-3701255Y-10040286D01*
X-3734126Y-10101784D01*
X-3754368Y-10168513D01*
X-3759491Y-10220527D01*
X-3759491Y-10220534D01*
X-3761202Y-10237908D01*
X-3759491Y-10255282D01*
X-3759490Y-13599374D01*
X-3833865Y-13584580D01*
X-3923295Y-13584580D01*
X-4011007Y-13602027D01*
X-4093630Y-13636250D01*
X-4167988Y-13685935D01*
X-4231225Y-13749172D01*
X-4280910Y-13823530D01*
X-4315133Y-13906153D01*
X-4332580Y-13993865D01*
X-4332580Y-14083295D01*
X-4315133Y-14171007D01*
X-4280910Y-14253630D01*
X-4231225Y-14327988D01*
X-4167988Y-14391225D01*
X-4093630Y-14440910D01*
X-4011007Y-14475133D01*
X-3923295Y-14492580D01*
X-3833865Y-14492580D01*
X-3759490Y-14477786D01*
X-3759490Y-14577221D01*
X-4035288Y-14853020D01*
X-4035293Y-14853024D01*
X-4044374Y-14862105D01*
X-4129694Y-14879076D01*
X-4212317Y-14913299D01*
X-4286675Y-14962984D01*
X-4349912Y-15026221D01*
X-4399597Y-15100579D01*
X-4433820Y-15183202D01*
X-4451267Y-15270914D01*
X-4451267Y-15360344D01*
X-4433820Y-15448056D01*
X-4399597Y-15530679D01*
X-4349912Y-15605037D01*
X-4318988Y-15635961D01*
X-10535948Y-15635961D01*
X-12168200Y-14003710D01*
X-12168200Y-13213514D01*
X-12084315Y-13230200D01*
X-11994885Y-13230200D01*
X-11907173Y-13212753D01*
X-11824550Y-13178530D01*
X-11750192Y-13128845D01*
X-11686955Y-13065608D01*
X-11639203Y-12994143D01*
X-11601715Y-13001600D01*
X-11512285Y-13001600D01*
X-11452009Y-12989610D01*
X-11451330Y-12991250D01*
X-11401645Y-13065608D01*
X-11338408Y-13128845D01*
X-11264050Y-13178530D01*
X-11181427Y-13212753D01*
X-11093715Y-13230200D01*
X-11004285Y-13230200D01*
X-10916573Y-13212753D01*
X-10833950Y-13178530D01*
X-10759592Y-13128845D01*
X-10696355Y-13065608D01*
X-10646670Y-12991250D01*
X-10612447Y-12908627D01*
X-10610731Y-12900000D01*
X-10521685Y-12900000D01*
X-10497621Y-12895213D01*
X-10494953Y-12908627D01*
X-10460730Y-12991250D01*
X-10411045Y-13065608D01*
X-10347808Y-13128845D01*
X-10273450Y-13178530D01*
X-10190827Y-13212753D01*
X-10103115Y-13230200D01*
X-10013685Y-13230200D01*
X-9925973Y-13212753D01*
X-9843350Y-13178530D01*
X-9768992Y-13128845D01*
X-9705755Y-13065608D01*
X-9656070Y-12991250D01*
X-9621847Y-12908627D01*
X-9618212Y-12890353D01*
X-9569715Y-12900000D01*
X-9480285Y-12900000D01*
X-9453196Y-12894612D01*
X-9444730Y-12915050D01*
X-9395045Y-12989408D01*
X-9331808Y-13052645D01*
X-9257450Y-13102330D01*
X-9174827Y-13136553D01*
X-9087115Y-13154000D01*
X-8997685Y-13154000D01*
X-8909973Y-13136553D01*
X-8827350Y-13102330D01*
X-8752992Y-13052645D01*
X-8689755Y-12989408D01*
X-8640070Y-12915050D01*
X-8605847Y-12832427D01*
X-8588400Y-12744715D01*
X-8588400Y-12655285D01*
X-8605847Y-12567573D01*
X-8640070Y-12484950D01*
X-8688400Y-12412620D01*
X-8688400Y-11919560D01*
X-8682725Y-11919560D01*
X-8595013Y-11902113D01*
X-8512390Y-11867890D01*
X-8438032Y-11818205D01*
X-8374795Y-11754968D01*
X-8325110Y-11680610D01*
X-8290887Y-11597987D01*
X-8273440Y-11510275D01*
X-8273440Y-11420845D01*
X-8290887Y-11333133D01*
X-8325110Y-11250510D01*
X-8374795Y-11176152D01*
X-8438032Y-11112915D01*
X-8512390Y-11063230D01*
X-8595013Y-11029007D01*
X-8682725Y-11011560D01*
X-8772155Y-11011560D01*
X-8859867Y-11029007D01*
X-8942490Y-11063230D01*
X-9016848Y-11112915D01*
X-9080085Y-11176152D01*
X-9093316Y-11195953D01*
X-10960943Y-9328327D01*
X-10972029Y-9314819D01*
X-11025932Y-9270581D01*
X-11087430Y-9237710D01*
X-11154159Y-9217468D01*
X-11206173Y-9212345D01*
X-11206181Y-9212345D01*
X-11223555Y-9210634D01*
X-11240929Y-9212345D01*
X-12029419Y-9212345D01*
X-12244174Y-8997590D01*
X-12244174Y-6642541D01*
X-11955779Y-6642541D01*
X-11948159Y-8837101D01*
X-11945785Y-8861107D01*
X-11938621Y-8884950D01*
X-11926943Y-8906938D01*
X-11911200Y-8926225D01*
X-11891996Y-8942070D01*
X-11870071Y-8953864D01*
X-11846266Y-8961154D01*
X-11821496Y-8963660D01*
X-9064062Y-8970948D01*
X-9047474Y-10717466D01*
X-9045292Y-10739734D01*
X-9038314Y-10763633D01*
X-9026808Y-10785711D01*
X-9011215Y-10805120D01*
X-8992136Y-10821114D01*
X-8970303Y-10833079D01*
X-8946556Y-10840554D01*
X-8921806Y-10843253D01*
X-8074174Y-10852106D01*
X-8067039Y-12695412D01*
X-8064600Y-12719696D01*
X-8057373Y-12743521D01*
X-8045637Y-12765477D01*
X-8029843Y-12784723D01*
X-8010597Y-12800517D01*
X-7988641Y-12812253D01*
X-7964816Y-12819480D01*
X-7940040Y-12821920D01*
X-7155180Y-12821920D01*
X-7130569Y-12819513D01*
X-7106735Y-12812317D01*
X-7084763Y-12800610D01*
X-7065497Y-12784842D01*
X-7049677Y-12765618D01*
X-7044995Y-12756885D01*
X-6875120Y-12756885D01*
X-6875120Y-12846315D01*
X-6857673Y-12934027D01*
X-6823450Y-13016650D01*
X-6773765Y-13091008D01*
X-6710528Y-13154245D01*
X-6636170Y-13203930D01*
X-6553547Y-13238153D01*
X-6465835Y-13255600D01*
X-6376405Y-13255600D01*
X-6288693Y-13238153D01*
X-6206070Y-13203930D01*
X-6131712Y-13154245D01*
X-6068475Y-13091008D01*
X-6018790Y-13016650D01*
X-5984567Y-12934027D01*
X-5967120Y-12846315D01*
X-5967120Y-12756885D01*
X-5984567Y-12669173D01*
X-6018790Y-12586550D01*
X-6068475Y-12512192D01*
X-6131712Y-12448955D01*
X-6206070Y-12399270D01*
X-6288693Y-12365047D01*
X-6376405Y-12347600D01*
X-6465835Y-12347600D01*
X-6553547Y-12365047D01*
X-6636170Y-12399270D01*
X-6710528Y-12448955D01*
X-6773765Y-12512192D01*
X-6823450Y-12586550D01*
X-6857673Y-12669173D01*
X-6875120Y-12756885D01*
X-7044995Y-12756885D01*
X-7037912Y-12743677D01*
X-7030653Y-12719862D01*
X-7028180Y-12695089D01*
X-7026225Y-11225265D01*
X-5340960Y-11225265D01*
X-5340960Y-11314695D01*
X-5323513Y-11402407D01*
X-5289290Y-11485030D01*
X-5239605Y-11559388D01*
X-5176368Y-11622625D01*
X-5102010Y-11672310D01*
X-5019387Y-11706533D01*
X-4931675Y-11723980D01*
X-4842245Y-11723980D01*
X-4754533Y-11706533D01*
X-4671910Y-11672310D01*
X-4597552Y-11622625D01*
X-4534315Y-11559388D01*
X-4484630Y-11485030D01*
X-4450407Y-11402407D01*
X-4432960Y-11314695D01*
X-4432960Y-11225265D01*
X-4450407Y-11137553D01*
X-4484630Y-11054930D01*
X-4534315Y-10980572D01*
X-4597552Y-10917335D01*
X-4671910Y-10867650D01*
X-4754533Y-10833427D01*
X-4842245Y-10815980D01*
X-4931675Y-10815980D01*
X-5019387Y-10833427D01*
X-5102010Y-10867650D01*
X-5176368Y-10917335D01*
X-5239605Y-10980572D01*
X-5289290Y-11054930D01*
X-5323513Y-11137553D01*
X-5340960Y-11225265D01*
X-7026225Y-11225265D01*
X-7023100Y-8877469D01*
X-7023100Y-7538720D01*
X-7025619Y-7513549D01*
X-7032922Y-7489748D01*
X-7044727Y-7467829D01*
X-7060582Y-7448634D01*
X-7079877Y-7432901D01*
X-7101871Y-7421234D01*
X-7125718Y-7414082D01*
X-7150502Y-7411721D01*
X-7825741Y-7413858D01*
X-7825746Y-6638508D01*
X-7828193Y-6613699D01*
X-7835426Y-6589876D01*
X-7847169Y-6567923D01*
X-7862968Y-6548682D01*
X-7882217Y-6532893D01*
X-7904177Y-6521163D01*
X-7928003Y-6513943D01*
X-7952780Y-6511509D01*
X-11823734Y-6512560D01*
X-11857244Y-6517070D01*
X-11880496Y-6525968D01*
X-11885576Y-6528508D01*
X-11899704Y-6536749D01*
X-11918894Y-6552610D01*
X-11934621Y-6571910D01*
X-11946281Y-6593907D01*
X-11953425Y-6617756D01*
X-11955779Y-6642541D01*
X-12244174Y-6642541D01*
X-12244174Y-6191604D01*
X-11863048Y-5810480D01*
X-11329511Y-5810480D01*
X-11257181Y-5858810D01*
X-11174558Y-5893033D01*
X-11086846Y-5910480D01*
X-10997416Y-5910480D01*
X-10909704Y-5893033D01*
X-10827081Y-5858810D01*
X-10752723Y-5809125D01*
X-10689486Y-5745888D01*
X-10639801Y-5671530D01*
X-10605578Y-5588907D01*
X-10588131Y-5501195D01*
X-10588131Y-5411765D01*
X-10605578Y-5324053D01*
X-10639801Y-5241430D01*
X-10689486Y-5167072D01*
X-10752723Y-5103835D01*
X-10759241Y-5099480D01*
X-10708140Y-5048380D01*
X-10622821Y-5031409D01*
X-10540198Y-4997186D01*
X-10465840Y-4947501D01*
X-10402603Y-4884264D01*
X-10352918Y-4809906D01*
X-10318695Y-4727283D01*
X-10301248Y-4639571D01*
X-10301248Y-4550141D01*
X-10318695Y-4462429D01*
X-10352918Y-4379806D01*
X-10402603Y-4305448D01*
X-10465840Y-4242211D01*
X-10487111Y-4227998D01*
X-10487067Y-4227891D01*
X-10469620Y-4140179D01*
X-10469620Y-4050749D01*
X-10487067Y-3963037D01*
X-10517452Y-3889680D01*
X-10408514Y-3889680D01*
X-10391140Y-3891391D01*
X-10373766Y-3889680D01*
X-10373758Y-3889680D01*
X-10321744Y-3884557D01*
X-10255015Y-3864315D01*
X-10193517Y-3831444D01*
X-10139614Y-3787206D01*
X-10128529Y-3773699D01*
X-9921972Y-3567143D01*
X-9908475Y-3556066D01*
X-9897397Y-3542568D01*
X-9897394Y-3542565D01*
X-9864237Y-3502164D01*
X-9864236Y-3502163D01*
X-9831365Y-3440665D01*
X-9811123Y-3373936D01*
X-9806000Y-3321922D01*
X-9806000Y-3321915D01*
X-9804289Y-3304541D01*
X-9806000Y-3287167D01*
X-9806000Y-3228700D01*
X-9757670Y-3156370D01*
X-9723447Y-3073747D01*
X-9706000Y-2986035D01*
X-9706000Y-2896605D01*
X-9723447Y-2808893D01*
X-9757670Y-2726270D01*
X-9807355Y-2651912D01*
X-9870592Y-2588675D01*
X-9944950Y-2538990D01*
X-10027573Y-2504767D01*
X-10115285Y-2487320D01*
X-10204715Y-2487320D01*
X-10292427Y-2504767D01*
X-10375050Y-2538990D01*
X-10449408Y-2588675D01*
X-10512645Y-2651912D01*
X-10562330Y-2726270D01*
X-10596553Y-2808893D01*
X-10614000Y-2896605D01*
X-10614000Y-2986035D01*
X-10596553Y-3073747D01*
X-10562330Y-3156370D01*
X-10545418Y-3181680D01*
X-10950346Y-3181680D01*
X-10967721Y-3179969D01*
X-10985095Y-3181680D01*
X-10985102Y-3181680D01*
X-11026648Y-3185772D01*
X-11037117Y-3186803D01*
X-11057359Y-3192944D01*
X-11103845Y-3207045D01*
X-11165343Y-3239916D01*
X-11219246Y-3284154D01*
X-11230327Y-3297656D01*
X-11591413Y-3658742D01*
X-11615835Y-3622192D01*
X-11655543Y-3582484D01*
X-11632431Y-3526687D01*
X-11614984Y-3438975D01*
X-11614984Y-3349545D01*
X-11632431Y-3261833D01*
X-11666654Y-3179210D01*
X-11716339Y-3104852D01*
X-11779576Y-3041615D01*
X-11853934Y-2991930D01*
X-11936557Y-2957707D01*
X-12024269Y-2940260D01*
X-12113699Y-2940260D01*
X-12201411Y-2957707D01*
X-12284034Y-2991930D01*
X-12358392Y-3041615D01*
X-12421629Y-3104852D01*
X-12471314Y-3179210D01*
X-12505537Y-3261833D01*
X-12522984Y-3349545D01*
X-12522984Y-3438975D01*
X-12505537Y-3526687D01*
X-12471314Y-3609310D01*
X-12421629Y-3683668D01*
X-12381921Y-3723376D01*
X-12405033Y-3779173D01*
X-12422480Y-3866885D01*
X-12422480Y-3956315D01*
X-12405033Y-4044027D01*
X-12394929Y-4068421D01*
X-12404005Y-4068421D01*
X-12421380Y-4066710D01*
X-12438754Y-4068421D01*
X-12438761Y-4068421D01*
X-12483943Y-4072871D01*
X-12490776Y-4073544D01*
X-12501179Y-4076700D01*
X-12557504Y-4093786D01*
X-12619002Y-4126657D01*
X-12672905Y-4170895D01*
X-12683986Y-4184397D01*
X-13552218Y-5052630D01*
X-13552218Y-3715612D01*
X-12728672Y-2892067D01*
X-12715175Y-2880990D01*
X-12704097Y-2867492D01*
X-12704094Y-2867489D01*
X-12688828Y-2848887D01*
X-12670936Y-2827087D01*
X-12638065Y-2765589D01*
X-12617823Y-2698860D01*
X-12612700Y-2646846D01*
X-12612700Y-2646839D01*
X-12610989Y-2629465D01*
X-12612700Y-2612090D01*
X-12612700Y1477134D01*
X-12602583Y1510485D01*
X-12595749Y1579880D01*
X-12600978Y1632980D01*
X-12516115Y1616100D01*
X-12426685Y1616100D01*
X-12338973Y1633547D01*
X-12256350Y1667770D01*
X-12184020Y1716100D01*
X-9849430Y1716100D01*
X-9498000Y1364668D01*
G36*
X-15523573Y-9325887D02*
G01*
X-15549467Y-9320736D01*
X-16272527Y-8597677D01*
X-16247119Y-8536335D01*
X-16229672Y-8448623D01*
X-16229672Y-8359193D01*
X-16247119Y-8271481D01*
X-16281342Y-8188858D01*
X-16331027Y-8114500D01*
X-16394264Y-8051263D01*
X-16468622Y-8001578D01*
X-16551245Y-7967355D01*
X-16638957Y-7949908D01*
X-16728387Y-7949908D01*
X-16756674Y-7955535D01*
X-16756674Y-4349024D01*
X-15992568Y-3584920D01*
X-15979074Y-3573846D01*
X-15968000Y-3560352D01*
X-15967993Y-3560345D01*
X-15934837Y-3519943D01*
X-15901965Y-3458445D01*
X-15881723Y-3391716D01*
X-15874889Y-3322320D01*
X-15878647Y-3284154D01*
X-15881680Y-3253361D01*
X-15881680Y-3165228D01*
X-15770000Y-3165228D01*
X-15720207Y-3160324D01*
X-15672328Y-3145800D01*
X-15628203Y-3122214D01*
X-15589527Y-3090473D01*
X-15557786Y-3051797D01*
X-15534200Y-3007672D01*
X-15523572Y-2972637D01*
X-15523573Y-9325887D01*
G37*
X-15523573Y-9325887D02*
X-15549467Y-9320736D01*
X-16272527Y-8597677D01*
X-16247119Y-8536335D01*
X-16229672Y-8448623D01*
X-16229672Y-8359193D01*
X-16247119Y-8271481D01*
X-16281342Y-8188858D01*
X-16331027Y-8114500D01*
X-16394264Y-8051263D01*
X-16468622Y-8001578D01*
X-16551245Y-7967355D01*
X-16638957Y-7949908D01*
X-16728387Y-7949908D01*
X-16756674Y-7955535D01*
X-16756674Y-4349024D01*
X-15992568Y-3584920D01*
X-15979074Y-3573846D01*
X-15968000Y-3560352D01*
X-15967993Y-3560345D01*
X-15934837Y-3519943D01*
X-15901965Y-3458445D01*
X-15881723Y-3391716D01*
X-15874889Y-3322320D01*
X-15878647Y-3284154D01*
X-15881680Y-3253361D01*
X-15881680Y-3165228D01*
X-15770000Y-3165228D01*
X-15720207Y-3160324D01*
X-15672328Y-3145800D01*
X-15628203Y-3122214D01*
X-15589527Y-3090473D01*
X-15557786Y-3051797D01*
X-15534200Y-3007672D01*
X-15523572Y-2972637D01*
X-15523573Y-9325887D01*
G36*
X-13320700Y-2482833D02*
G01*
X-14144241Y-3306375D01*
X-14157743Y-3317456D01*
X-14201981Y-3371359D01*
X-14220793Y-3406555D01*
X-14234852Y-3432857D01*
X-14255095Y-3499586D01*
X-14261929Y-3568982D01*
X-14260217Y-3586366D01*
X-14260218Y-5058644D01*
X-14299853Y-5042227D01*
X-14387565Y-5024780D01*
X-14476995Y-5024780D01*
X-14564707Y-5042227D01*
X-14647330Y-5076450D01*
X-14721688Y-5126135D01*
X-14784925Y-5189372D01*
X-14815573Y-5235239D01*
X-14815573Y-1287783D01*
X-13592272Y-64483D01*
X-13578775Y-53406D01*
X-13567697Y-39908D01*
X-13567694Y-39905D01*
X-13553888Y-23082D01*
X-13534536Y497D01*
X-13501665Y61995D01*
X-13481423Y128724D01*
X-13479842Y144772D01*
X-13320699Y144772D01*
X-13320700Y-2482833D01*
G37*
X-13320700Y-2482833D02*
X-14144241Y-3306375D01*
X-14157743Y-3317456D01*
X-14201981Y-3371359D01*
X-14220793Y-3406555D01*
X-14234852Y-3432857D01*
X-14255095Y-3499586D01*
X-14261929Y-3568982D01*
X-14260217Y-3586366D01*
X-14260218Y-5058644D01*
X-14299853Y-5042227D01*
X-14387565Y-5024780D01*
X-14476995Y-5024780D01*
X-14564707Y-5042227D01*
X-14647330Y-5076450D01*
X-14721688Y-5126135D01*
X-14784925Y-5189372D01*
X-14815573Y-5235239D01*
X-14815573Y-1287783D01*
X-13592272Y-64483D01*
X-13578775Y-53406D01*
X-13567697Y-39908D01*
X-13567694Y-39905D01*
X-13553888Y-23082D01*
X-13534536Y497D01*
X-13501665Y61995D01*
X-13481423Y128724D01*
X-13479842Y144772D01*
X-13320699Y144772D01*
X-13320700Y-2482833D01*
G36*
X-9558409Y9282138D02*
G01*
X-9598508Y9255345D01*
X-9649753Y9204100D01*
X-9656070Y9219350D01*
X-9705755Y9293708D01*
X-9768992Y9356945D01*
X-9843350Y9406630D01*
X-9925973Y9440853D01*
X-10013685Y9458300D01*
X-10103115Y9458300D01*
X-10190827Y9440853D01*
X-10273450Y9406630D01*
X-10347808Y9356945D01*
X-10411045Y9293708D01*
X-10460730Y9219350D01*
X-10494953Y9136727D01*
X-10512400Y9049015D01*
X-10512400Y8959585D01*
X-10494953Y8871873D01*
X-10460730Y8789250D01*
X-10411045Y8714892D01*
X-10347808Y8651655D01*
X-10273450Y8601970D01*
X-10190827Y8567747D01*
X-10105506Y8550776D01*
X-8837319Y7282588D01*
X-8837319Y6242633D01*
X-8875765Y6250280D01*
X-8965195Y6250280D01*
X-9052907Y6232833D01*
X-9135530Y6198610D01*
X-9209888Y6148925D01*
X-9273125Y6085688D01*
X-9322810Y6011330D01*
X-9357033Y5928707D01*
X-9374004Y5843386D01*
X-9923087Y5294303D01*
X-9936589Y5283222D01*
X-9965746Y5247694D01*
X-9997855Y5295748D01*
X-10061092Y5358985D01*
X-10135450Y5408670D01*
X-10218073Y5442893D01*
X-10305785Y5460340D01*
X-10395215Y5460340D01*
X-10482927Y5442893D01*
X-10565550Y5408670D01*
X-10637880Y5360340D01*
X-11392306Y5360340D01*
X-11409680Y5362051D01*
X-11427055Y5360340D01*
X-11427062Y5360340D01*
X-11472857Y5355830D01*
X-11479077Y5355217D01*
X-11521724Y5342280D01*
X-11545805Y5334975D01*
X-11607303Y5302104D01*
X-11661206Y5257866D01*
X-11672287Y5244364D01*
X-11702142Y5214509D01*
X-11737755Y5267808D01*
X-11800992Y5331045D01*
X-11875350Y5380730D01*
X-11957973Y5414953D01*
X-12040657Y5431400D01*
X-12042074Y5433126D01*
X-12095977Y5477364D01*
X-12157475Y5510235D01*
X-12224204Y5530477D01*
X-12276218Y5535600D01*
X-12276226Y5535600D01*
X-12293600Y5537311D01*
X-12310974Y5535600D01*
X-15613020Y5535600D01*
X-15685350Y5583930D01*
X-15767973Y5618153D01*
X-15855685Y5635600D01*
X-15945115Y5635600D01*
X-16032827Y5618153D01*
X-16115450Y5583930D01*
X-16189808Y5534245D01*
X-16253045Y5471008D01*
X-16302730Y5396650D01*
X-16336953Y5314027D01*
X-16354400Y5226315D01*
X-16354400Y5136885D01*
X-16336953Y5049173D01*
X-16302730Y4966550D01*
X-16253045Y4892192D01*
X-16189808Y4828955D01*
X-16115450Y4779270D01*
X-16032827Y4745047D01*
X-15945115Y4727600D01*
X-15855685Y4727600D01*
X-15767973Y4745047D01*
X-15685350Y4779270D01*
X-15613020Y4827600D01*
X-12519343Y4827600D01*
X-12492730Y4763350D01*
X-12443045Y4688992D01*
X-12379808Y4625755D01*
X-12326509Y4590141D01*
X-13204723Y3711927D01*
X-13218225Y3700846D01*
X-13262463Y3646943D01*
X-13291575Y3592478D01*
X-13295334Y3585445D01*
X-13315577Y3518716D01*
X-13317678Y3497380D01*
X-13320700Y3466702D01*
X-13320700Y3466694D01*
X-13322411Y3449320D01*
X-13320700Y3431946D01*
X-13320700Y3165228D01*
X-14230000Y3165228D01*
X-14279793Y3160324D01*
X-14327672Y3145800D01*
X-14371797Y3122214D01*
X-14410473Y3090473D01*
X-14442214Y3051797D01*
X-14465800Y3007672D01*
X-14480324Y2959793D01*
X-14485228Y2910000D01*
X-14485228Y400000D01*
X-14480324Y350207D01*
X-14465800Y302328D01*
X-14442214Y258203D01*
X-14410473Y219527D01*
X-14371797Y187786D01*
X-14351900Y177151D01*
X-15407596Y-878546D01*
X-15421098Y-889627D01*
X-15465336Y-943530D01*
X-15484743Y-979839D01*
X-15498207Y-1005028D01*
X-15514772Y-1059633D01*
X-15514772Y-400000D01*
X-15519676Y-350207D01*
X-15534200Y-302328D01*
X-15557786Y-258203D01*
X-15589527Y-219527D01*
X-15628203Y-187786D01*
X-15672328Y-164200D01*
X-15720207Y-149676D01*
X-15770000Y-144772D01*
X-15887010Y-144772D01*
X-15882949Y-134967D01*
X-15865502Y-47255D01*
X-15865502Y42175D01*
X-15882949Y129887D01*
X-15917172Y212510D01*
X-15966857Y286868D01*
X-16030094Y350105D01*
X-16104452Y399790D01*
X-16187075Y434013D01*
X-16272395Y450984D01*
X-16763010Y941599D01*
X-16774096Y955106D01*
X-16827999Y999344D01*
X-16889497Y1032215D01*
X-16956226Y1052457D01*
X-17004369Y1057199D01*
X-17077270Y1105910D01*
X-17084406Y1108866D01*
X-15244201Y2949070D01*
X-15115351Y2949070D01*
X-15043021Y2900740D01*
X-14960398Y2866517D01*
X-14872686Y2849070D01*
X-14783256Y2849070D01*
X-14695544Y2866517D01*
X-14612921Y2900740D01*
X-14538563Y2950425D01*
X-14475326Y3013662D01*
X-14425641Y3088020D01*
X-14391418Y3170643D01*
X-14373971Y3258355D01*
X-14373971Y3347785D01*
X-14391418Y3435497D01*
X-14425641Y3518120D01*
X-14475326Y3592478D01*
X-14538563Y3655715D01*
X-14612921Y3705400D01*
X-14695544Y3739623D01*
X-14783256Y3757070D01*
X-14872686Y3757070D01*
X-14960398Y3739623D01*
X-15043021Y3705400D01*
X-15115351Y3657070D01*
X-15373458Y3657070D01*
X-15390833Y3658781D01*
X-15408207Y3657070D01*
X-15408214Y3657070D01*
X-15453396Y3652620D01*
X-15460229Y3651947D01*
X-15476724Y3646943D01*
X-15526957Y3631705D01*
X-15588455Y3598834D01*
X-15642358Y3554596D01*
X-15653439Y3541094D01*
X-17526000Y1668532D01*
X-17526000Y6554292D01*
X-15791111Y10817163D01*
X-13207388Y12931118D01*
X-9558409Y9282138D01*
G37*
X-9558409Y9282138D02*
X-9598508Y9255345D01*
X-9649753Y9204100D01*
X-9656070Y9219350D01*
X-9705755Y9293708D01*
X-9768992Y9356945D01*
X-9843350Y9406630D01*
X-9925973Y9440853D01*
X-10013685Y9458300D01*
X-10103115Y9458300D01*
X-10190827Y9440853D01*
X-10273450Y9406630D01*
X-10347808Y9356945D01*
X-10411045Y9293708D01*
X-10460730Y9219350D01*
X-10494953Y9136727D01*
X-10512400Y9049015D01*
X-10512400Y8959585D01*
X-10494953Y8871873D01*
X-10460730Y8789250D01*
X-10411045Y8714892D01*
X-10347808Y8651655D01*
X-10273450Y8601970D01*
X-10190827Y8567747D01*
X-10105506Y8550776D01*
X-8837319Y7282588D01*
X-8837319Y6242633D01*
X-8875765Y6250280D01*
X-8965195Y6250280D01*
X-9052907Y6232833D01*
X-9135530Y6198610D01*
X-9209888Y6148925D01*
X-9273125Y6085688D01*
X-9322810Y6011330D01*
X-9357033Y5928707D01*
X-9374004Y5843386D01*
X-9923087Y5294303D01*
X-9936589Y5283222D01*
X-9965746Y5247694D01*
X-9997855Y5295748D01*
X-10061092Y5358985D01*
X-10135450Y5408670D01*
X-10218073Y5442893D01*
X-10305785Y5460340D01*
X-10395215Y5460340D01*
X-10482927Y5442893D01*
X-10565550Y5408670D01*
X-10637880Y5360340D01*
X-11392306Y5360340D01*
X-11409680Y5362051D01*
X-11427055Y5360340D01*
X-11427062Y5360340D01*
X-11472857Y5355830D01*
X-11479077Y5355217D01*
X-11521724Y5342280D01*
X-11545805Y5334975D01*
X-11607303Y5302104D01*
X-11661206Y5257866D01*
X-11672287Y5244364D01*
X-11702142Y5214509D01*
X-11737755Y5267808D01*
X-11800992Y5331045D01*
X-11875350Y5380730D01*
X-11957973Y5414953D01*
X-12040657Y5431400D01*
X-12042074Y5433126D01*
X-12095977Y5477364D01*
X-12157475Y5510235D01*
X-12224204Y5530477D01*
X-12276218Y5535600D01*
X-12276226Y5535600D01*
X-12293600Y5537311D01*
X-12310974Y5535600D01*
X-15613020Y5535600D01*
X-15685350Y5583930D01*
X-15767973Y5618153D01*
X-15855685Y5635600D01*
X-15945115Y5635600D01*
X-16032827Y5618153D01*
X-16115450Y5583930D01*
X-16189808Y5534245D01*
X-16253045Y5471008D01*
X-16302730Y5396650D01*
X-16336953Y5314027D01*
X-16354400Y5226315D01*
X-16354400Y5136885D01*
X-16336953Y5049173D01*
X-16302730Y4966550D01*
X-16253045Y4892192D01*
X-16189808Y4828955D01*
X-16115450Y4779270D01*
X-16032827Y4745047D01*
X-15945115Y4727600D01*
X-15855685Y4727600D01*
X-15767973Y4745047D01*
X-15685350Y4779270D01*
X-15613020Y4827600D01*
X-12519343Y4827600D01*
X-12492730Y4763350D01*
X-12443045Y4688992D01*
X-12379808Y4625755D01*
X-12326509Y4590141D01*
X-13204723Y3711927D01*
X-13218225Y3700846D01*
X-13262463Y3646943D01*
X-13291575Y3592478D01*
X-13295334Y3585445D01*
X-13315577Y3518716D01*
X-13317678Y3497380D01*
X-13320700Y3466702D01*
X-13320700Y3466694D01*
X-13322411Y3449320D01*
X-13320700Y3431946D01*
X-13320700Y3165228D01*
X-14230000Y3165228D01*
X-14279793Y3160324D01*
X-14327672Y3145800D01*
X-14371797Y3122214D01*
X-14410473Y3090473D01*
X-14442214Y3051797D01*
X-14465800Y3007672D01*
X-14480324Y2959793D01*
X-14485228Y2910000D01*
X-14485228Y400000D01*
X-14480324Y350207D01*
X-14465800Y302328D01*
X-14442214Y258203D01*
X-14410473Y219527D01*
X-14371797Y187786D01*
X-14351900Y177151D01*
X-15407596Y-878546D01*
X-15421098Y-889627D01*
X-15465336Y-943530D01*
X-15484743Y-979839D01*
X-15498207Y-1005028D01*
X-15514772Y-1059633D01*
X-15514772Y-400000D01*
X-15519676Y-350207D01*
X-15534200Y-302328D01*
X-15557786Y-258203D01*
X-15589527Y-219527D01*
X-15628203Y-187786D01*
X-15672328Y-164200D01*
X-15720207Y-149676D01*
X-15770000Y-144772D01*
X-15887010Y-144772D01*
X-15882949Y-134967D01*
X-15865502Y-47255D01*
X-15865502Y42175D01*
X-15882949Y129887D01*
X-15917172Y212510D01*
X-15966857Y286868D01*
X-16030094Y350105D01*
X-16104452Y399790D01*
X-16187075Y434013D01*
X-16272395Y450984D01*
X-16763010Y941599D01*
X-16774096Y955106D01*
X-16827999Y999344D01*
X-16889497Y1032215D01*
X-16956226Y1052457D01*
X-17004369Y1057199D01*
X-17077270Y1105910D01*
X-17084406Y1108866D01*
X-15244201Y2949070D01*
X-15115351Y2949070D01*
X-15043021Y2900740D01*
X-14960398Y2866517D01*
X-14872686Y2849070D01*
X-14783256Y2849070D01*
X-14695544Y2866517D01*
X-14612921Y2900740D01*
X-14538563Y2950425D01*
X-14475326Y3013662D01*
X-14425641Y3088020D01*
X-14391418Y3170643D01*
X-14373971Y3258355D01*
X-14373971Y3347785D01*
X-14391418Y3435497D01*
X-14425641Y3518120D01*
X-14475326Y3592478D01*
X-14538563Y3655715D01*
X-14612921Y3705400D01*
X-14695544Y3739623D01*
X-14783256Y3757070D01*
X-14872686Y3757070D01*
X-14960398Y3739623D01*
X-15043021Y3705400D01*
X-15115351Y3657070D01*
X-15373458Y3657070D01*
X-15390833Y3658781D01*
X-15408207Y3657070D01*
X-15408214Y3657070D01*
X-15453396Y3652620D01*
X-15460229Y3651947D01*
X-15476724Y3646943D01*
X-15526957Y3631705D01*
X-15588455Y3598834D01*
X-15642358Y3554596D01*
X-15653439Y3541094D01*
X-17526000Y1668532D01*
X-17526000Y6554292D01*
X-15791111Y10817163D01*
X-13207388Y12931118D01*
X-9558409Y9282138D01*
G36*
X2446209Y24524302D02*
G01*
X4386936Y24252425D01*
X6299928Y23827216D01*
X8173089Y23251364D01*
X9994577Y22528510D01*
X11752876Y21663223D01*
X13081000Y20872774D01*
X13081000Y11303000D01*
X10287000Y11303000D01*
X10287000Y16764000D01*
X10284560Y16788776D01*
X10277333Y16812601D01*
X10265597Y16834557D01*
X10249803Y16853803D01*
X10230557Y16869597D01*
X10208601Y16881333D01*
X10184776Y16888560D01*
X10160000Y16891000D01*
X-7112000Y16891000D01*
X-7136776Y16888560D01*
X-7155990Y16883138D01*
X-10457990Y15663938D01*
X-10480387Y15653067D01*
X-10494421Y15643093D01*
X-12927446Y13652436D01*
X-13496810Y14221800D01*
X-13496815Y14221806D01*
X-13505896Y14230887D01*
X-13522867Y14316207D01*
X-13557090Y14398830D01*
X-13606775Y14473188D01*
X-13670012Y14536425D01*
X-13744370Y14586110D01*
X-13826993Y14620333D01*
X-13914705Y14637780D01*
X-14004135Y14637780D01*
X-14091847Y14620333D01*
X-14174470Y14586110D01*
X-14248828Y14536425D01*
X-14312065Y14473188D01*
X-14361750Y14398830D01*
X-14395973Y14316207D01*
X-14413420Y14228495D01*
X-14413420Y14139065D01*
X-14395973Y14051353D01*
X-14361750Y13968730D01*
X-14312065Y13894372D01*
X-14248828Y13831135D01*
X-14174470Y13781450D01*
X-14091847Y13747227D01*
X-14006527Y13730256D01*
X-13997446Y13721175D01*
X-13997440Y13721170D01*
X-13478139Y13201869D01*
X-16082421Y11071093D01*
X-16100052Y11053515D01*
X-16113914Y11032835D01*
X-16119631Y11020673D01*
X-17897631Y6651873D01*
X-17904711Y6628005D01*
X-17907000Y6604000D01*
X-17907000Y1287532D01*
X-17967504Y1227028D01*
X-17981006Y1215947D01*
X-18025244Y1162044D01*
X-18042151Y1130412D01*
X-18058115Y1100546D01*
X-18078358Y1033817D01*
X-18085192Y964421D01*
X-18083480Y947037D01*
X-18083480Y-381000D01*
X-19939394Y-381000D01*
X-19945931Y1723855D01*
X-19917670Y1766150D01*
X-19883447Y1848773D01*
X-19866000Y1936485D01*
X-19866000Y2025915D01*
X-19883447Y2113627D01*
X-19917670Y2196250D01*
X-19947537Y2240948D01*
X-19949072Y2735155D01*
X-19917670Y2782150D01*
X-19883447Y2864773D01*
X-19866000Y2952485D01*
X-19866000Y3041915D01*
X-19883447Y3129627D01*
X-19917670Y3212250D01*
X-19950707Y3261693D01*
X-19970521Y9641630D01*
X-19886915Y9625000D01*
X-19797485Y9625000D01*
X-19709773Y9642447D01*
X-19627150Y9676670D01*
X-19552792Y9726355D01*
X-19489555Y9789592D01*
X-19439870Y9863950D01*
X-19405647Y9946573D01*
X-19388200Y10034285D01*
X-19388200Y10123715D01*
X-19405647Y10211427D01*
X-19439870Y10294050D01*
X-19489555Y10368408D01*
X-19552792Y10431645D01*
X-19593304Y10458715D01*
X-19097600Y10458715D01*
X-19097600Y10369285D01*
X-19080153Y10281573D01*
X-19045930Y10198950D01*
X-18996245Y10124592D01*
X-18933008Y10061355D01*
X-18858650Y10011670D01*
X-18776027Y9977447D01*
X-18688315Y9960000D01*
X-18598885Y9960000D01*
X-18511173Y9977447D01*
X-18428550Y10011670D01*
X-18415000Y10020724D01*
X-18401450Y10011670D01*
X-18318827Y9977447D01*
X-18231115Y9960000D01*
X-18141685Y9960000D01*
X-18053973Y9977447D01*
X-17971350Y10011670D01*
X-17896992Y10061355D01*
X-17833755Y10124592D01*
X-17784070Y10198950D01*
X-17749847Y10281573D01*
X-17732400Y10369285D01*
X-17732400Y10407915D01*
X-17370400Y10407915D01*
X-17370400Y10318485D01*
X-17352953Y10230773D01*
X-17318730Y10148150D01*
X-17269045Y10073792D01*
X-17205808Y10010555D01*
X-17131450Y9960870D01*
X-17048827Y9926647D01*
X-16961115Y9909200D01*
X-16871685Y9909200D01*
X-16783973Y9926647D01*
X-16701350Y9960870D01*
X-16626992Y10010555D01*
X-16563755Y10073792D01*
X-16514070Y10148150D01*
X-16479847Y10230773D01*
X-16462400Y10318485D01*
X-16462400Y10407915D01*
X-16479847Y10495627D01*
X-16514070Y10578250D01*
X-16563755Y10652608D01*
X-16626992Y10715845D01*
X-16701350Y10765530D01*
X-16783973Y10799753D01*
X-16871685Y10817200D01*
X-16961115Y10817200D01*
X-17048827Y10799753D01*
X-17131450Y10765530D01*
X-17205808Y10715845D01*
X-17269045Y10652608D01*
X-17318730Y10578250D01*
X-17352953Y10495627D01*
X-17370400Y10407915D01*
X-17732400Y10407915D01*
X-17732400Y10458715D01*
X-17749847Y10546427D01*
X-17784070Y10629050D01*
X-17833755Y10703408D01*
X-17896992Y10766645D01*
X-17971350Y10816330D01*
X-18053973Y10850553D01*
X-18141685Y10868000D01*
X-18231115Y10868000D01*
X-18318827Y10850553D01*
X-18401450Y10816330D01*
X-18415000Y10807276D01*
X-18428550Y10816330D01*
X-18511173Y10850553D01*
X-18598885Y10868000D01*
X-18688315Y10868000D01*
X-18776027Y10850553D01*
X-18858650Y10816330D01*
X-18933008Y10766645D01*
X-18996245Y10703408D01*
X-19045930Y10629050D01*
X-19080153Y10546427D01*
X-19097600Y10458715D01*
X-19593304Y10458715D01*
X-19627150Y10481330D01*
X-19709773Y10515553D01*
X-19797485Y10533000D01*
X-19886915Y10533000D01*
X-19973235Y10515830D01*
X-19985206Y14370315D01*
X-16608400Y14370315D01*
X-16608400Y14280885D01*
X-16590953Y14193173D01*
X-16556730Y14110550D01*
X-16507045Y14036192D01*
X-16443808Y13972955D01*
X-16369450Y13923270D01*
X-16286827Y13889047D01*
X-16199115Y13871600D01*
X-16109685Y13871600D01*
X-16021973Y13889047D01*
X-15939350Y13923270D01*
X-15864992Y13972955D01*
X-15801755Y14036192D01*
X-15752070Y14110550D01*
X-15717847Y14193173D01*
X-15700400Y14280885D01*
X-15700400Y14370315D01*
X-15717847Y14458027D01*
X-15752070Y14540650D01*
X-15801755Y14615008D01*
X-15864992Y14678245D01*
X-15939350Y14727930D01*
X-16021973Y14762153D01*
X-16109685Y14779600D01*
X-16199115Y14779600D01*
X-16286827Y14762153D01*
X-16369450Y14727930D01*
X-16443808Y14678245D01*
X-16507045Y14615008D01*
X-16556730Y14540650D01*
X-16590953Y14458027D01*
X-16608400Y14370315D01*
X-19985206Y14370315D01*
X-19985317Y14405907D01*
X-19823186Y14644679D01*
X-18597000Y16173340D01*
X-17253237Y17599748D01*
X-16611880Y18180315D01*
X-6296000Y18180315D01*
X-6296000Y18090885D01*
X-6278553Y18003173D01*
X-6244330Y17920550D01*
X-6194645Y17846192D01*
X-6131408Y17782955D01*
X-6057050Y17733270D01*
X-5974427Y17699047D01*
X-5886715Y17681600D01*
X-5797285Y17681600D01*
X-5709573Y17699047D01*
X-5626950Y17733270D01*
X-5552592Y17782955D01*
X-5489355Y17846192D01*
X-5439670Y17920550D01*
X-5405447Y18003173D01*
X-5388000Y18090885D01*
X-5388000Y18180315D01*
X-5405447Y18268027D01*
X-5439670Y18350650D01*
X-5489355Y18425008D01*
X-5552592Y18488245D01*
X-5626950Y18537930D01*
X-5709573Y18572153D01*
X-5797285Y18589600D01*
X-5886715Y18589600D01*
X-5974427Y18572153D01*
X-6057050Y18537930D01*
X-6131408Y18488245D01*
X-6194645Y18425008D01*
X-6244330Y18350650D01*
X-6278553Y18268027D01*
X-6296000Y18180315D01*
X-16611880Y18180315D01*
X-15800394Y18914885D01*
X-15039020Y19501115D01*
X-9140800Y19501115D01*
X-9140800Y19411685D01*
X-9123353Y19323973D01*
X-9089130Y19241350D01*
X-9039445Y19166992D01*
X-8976208Y19103755D01*
X-8901850Y19054070D01*
X-8819227Y19019847D01*
X-8731515Y19002400D01*
X-8642085Y19002400D01*
X-8554373Y19019847D01*
X-8471750Y19054070D01*
X-8397392Y19103755D01*
X-8334155Y19166992D01*
X-8284470Y19241350D01*
X-8250247Y19323973D01*
X-8232800Y19411685D01*
X-8232800Y19501115D01*
X-8250247Y19588827D01*
X-8284470Y19671450D01*
X-8334155Y19745808D01*
X-8397392Y19809045D01*
X-8471750Y19858730D01*
X-8554373Y19892953D01*
X-8642085Y19910400D01*
X-8731515Y19910400D01*
X-8819227Y19892953D01*
X-8901850Y19858730D01*
X-8976208Y19809045D01*
X-9039445Y19745808D01*
X-9089130Y19671450D01*
X-9123353Y19588827D01*
X-9140800Y19501115D01*
X-15039020Y19501115D01*
X-14247655Y20110436D01*
X-13778556Y20415515D01*
X-5635600Y20415515D01*
X-5635600Y20326085D01*
X-5618153Y20238373D01*
X-5583930Y20155750D01*
X-5534245Y20081392D01*
X-5471008Y20018155D01*
X-5396650Y19968470D01*
X-5314027Y19934247D01*
X-5226315Y19916800D01*
X-5136885Y19916800D01*
X-5049173Y19934247D01*
X-4966550Y19968470D01*
X-4892192Y20018155D01*
X-4828955Y20081392D01*
X-4779270Y20155750D01*
X-4746812Y20234114D01*
X-2377000Y20234114D01*
X-2377000Y19765886D01*
X-2285653Y19306655D01*
X-2106470Y18874068D01*
X-1846336Y18484751D01*
X-1515249Y18153664D01*
X-1125932Y17893530D01*
X-693345Y17714347D01*
X-234114Y17623000D01*
X234114Y17623000D01*
X693345Y17714347D01*
X1125932Y17893530D01*
X1515249Y18153664D01*
X1846336Y18484751D01*
X2106470Y18874068D01*
X2285653Y19306655D01*
X2377000Y19765886D01*
X2377000Y20234114D01*
X2285653Y20693345D01*
X2106470Y21125932D01*
X1846336Y21515249D01*
X1515249Y21846336D01*
X1125932Y22106470D01*
X693345Y22285653D01*
X234114Y22377000D01*
X-234114Y22377000D01*
X-693345Y22285653D01*
X-1125932Y22106470D01*
X-1515249Y21846336D01*
X-1846336Y21515249D01*
X-2106470Y21125932D01*
X-2285653Y20693345D01*
X-2377000Y20234114D01*
X-4746812Y20234114D01*
X-4745047Y20238373D01*
X-4727600Y20326085D01*
X-4727600Y20415515D01*
X-4745047Y20503227D01*
X-4779270Y20585850D01*
X-4828955Y20660208D01*
X-4892192Y20723445D01*
X-4966550Y20773130D01*
X-5049173Y20807353D01*
X-5136885Y20824800D01*
X-5226315Y20824800D01*
X-5314027Y20807353D01*
X-5396650Y20773130D01*
X-5471008Y20723445D01*
X-5534245Y20660208D01*
X-5583930Y20585850D01*
X-5618153Y20503227D01*
X-5635600Y20415515D01*
X-13778556Y20415515D01*
X-12604839Y21178842D01*
X-10882330Y22113349D01*
X-10472617Y22295115D01*
X-5940400Y22295115D01*
X-5940400Y22205685D01*
X-5922953Y22117973D01*
X-5888730Y22035350D01*
X-5839045Y21960992D01*
X-5775808Y21897755D01*
X-5701450Y21848070D01*
X-5618827Y21813847D01*
X-5531115Y21796400D01*
X-5441685Y21796400D01*
X-5353973Y21813847D01*
X-5271350Y21848070D01*
X-5196992Y21897755D01*
X-5133755Y21960992D01*
X-5084070Y22035350D01*
X-5049847Y22117973D01*
X-5032400Y22205685D01*
X-5032400Y22295115D01*
X-5049847Y22382827D01*
X-5084070Y22465450D01*
X-5133755Y22539808D01*
X-5196992Y22603045D01*
X-5271350Y22652730D01*
X-5353973Y22686953D01*
X-5441685Y22704400D01*
X-5531115Y22704400D01*
X-5618827Y22686953D01*
X-5701450Y22652730D01*
X-5775808Y22603045D01*
X-5839045Y22539808D01*
X-5888730Y22465450D01*
X-5922953Y22382827D01*
X-5940400Y22295115D01*
X-10472617Y22295115D01*
X-9091020Y22908048D01*
X-7242234Y23557915D01*
X-5347660Y24058841D01*
X-3419276Y24407660D01*
X-1469274Y24602166D01*
X490016Y24641128D01*
X2446209Y24524302D01*
G37*
X2446209Y24524302D02*
X4386936Y24252425D01*
X6299928Y23827216D01*
X8173089Y23251364D01*
X9994577Y22528510D01*
X11752876Y21663223D01*
X13081000Y20872774D01*
X13081000Y11303000D01*
X10287000Y11303000D01*
X10287000Y16764000D01*
X10284560Y16788776D01*
X10277333Y16812601D01*
X10265597Y16834557D01*
X10249803Y16853803D01*
X10230557Y16869597D01*
X10208601Y16881333D01*
X10184776Y16888560D01*
X10160000Y16891000D01*
X-7112000Y16891000D01*
X-7136776Y16888560D01*
X-7155990Y16883138D01*
X-10457990Y15663938D01*
X-10480387Y15653067D01*
X-10494421Y15643093D01*
X-12927446Y13652436D01*
X-13496810Y14221800D01*
X-13496815Y14221806D01*
X-13505896Y14230887D01*
X-13522867Y14316207D01*
X-13557090Y14398830D01*
X-13606775Y14473188D01*
X-13670012Y14536425D01*
X-13744370Y14586110D01*
X-13826993Y14620333D01*
X-13914705Y14637780D01*
X-14004135Y14637780D01*
X-14091847Y14620333D01*
X-14174470Y14586110D01*
X-14248828Y14536425D01*
X-14312065Y14473188D01*
X-14361750Y14398830D01*
X-14395973Y14316207D01*
X-14413420Y14228495D01*
X-14413420Y14139065D01*
X-14395973Y14051353D01*
X-14361750Y13968730D01*
X-14312065Y13894372D01*
X-14248828Y13831135D01*
X-14174470Y13781450D01*
X-14091847Y13747227D01*
X-14006527Y13730256D01*
X-13997446Y13721175D01*
X-13997440Y13721170D01*
X-13478139Y13201869D01*
X-16082421Y11071093D01*
X-16100052Y11053515D01*
X-16113914Y11032835D01*
X-16119631Y11020673D01*
X-17897631Y6651873D01*
X-17904711Y6628005D01*
X-17907000Y6604000D01*
X-17907000Y1287532D01*
X-17967504Y1227028D01*
X-17981006Y1215947D01*
X-18025244Y1162044D01*
X-18042151Y1130412D01*
X-18058115Y1100546D01*
X-18078358Y1033817D01*
X-18085192Y964421D01*
X-18083480Y947037D01*
X-18083480Y-381000D01*
X-19939394Y-381000D01*
X-19945931Y1723855D01*
X-19917670Y1766150D01*
X-19883447Y1848773D01*
X-19866000Y1936485D01*
X-19866000Y2025915D01*
X-19883447Y2113627D01*
X-19917670Y2196250D01*
X-19947537Y2240948D01*
X-19949072Y2735155D01*
X-19917670Y2782150D01*
X-19883447Y2864773D01*
X-19866000Y2952485D01*
X-19866000Y3041915D01*
X-19883447Y3129627D01*
X-19917670Y3212250D01*
X-19950707Y3261693D01*
X-19970521Y9641630D01*
X-19886915Y9625000D01*
X-19797485Y9625000D01*
X-19709773Y9642447D01*
X-19627150Y9676670D01*
X-19552792Y9726355D01*
X-19489555Y9789592D01*
X-19439870Y9863950D01*
X-19405647Y9946573D01*
X-19388200Y10034285D01*
X-19388200Y10123715D01*
X-19405647Y10211427D01*
X-19439870Y10294050D01*
X-19489555Y10368408D01*
X-19552792Y10431645D01*
X-19593304Y10458715D01*
X-19097600Y10458715D01*
X-19097600Y10369285D01*
X-19080153Y10281573D01*
X-19045930Y10198950D01*
X-18996245Y10124592D01*
X-18933008Y10061355D01*
X-18858650Y10011670D01*
X-18776027Y9977447D01*
X-18688315Y9960000D01*
X-18598885Y9960000D01*
X-18511173Y9977447D01*
X-18428550Y10011670D01*
X-18415000Y10020724D01*
X-18401450Y10011670D01*
X-18318827Y9977447D01*
X-18231115Y9960000D01*
X-18141685Y9960000D01*
X-18053973Y9977447D01*
X-17971350Y10011670D01*
X-17896992Y10061355D01*
X-17833755Y10124592D01*
X-17784070Y10198950D01*
X-17749847Y10281573D01*
X-17732400Y10369285D01*
X-17732400Y10407915D01*
X-17370400Y10407915D01*
X-17370400Y10318485D01*
X-17352953Y10230773D01*
X-17318730Y10148150D01*
X-17269045Y10073792D01*
X-17205808Y10010555D01*
X-17131450Y9960870D01*
X-17048827Y9926647D01*
X-16961115Y9909200D01*
X-16871685Y9909200D01*
X-16783973Y9926647D01*
X-16701350Y9960870D01*
X-16626992Y10010555D01*
X-16563755Y10073792D01*
X-16514070Y10148150D01*
X-16479847Y10230773D01*
X-16462400Y10318485D01*
X-16462400Y10407915D01*
X-16479847Y10495627D01*
X-16514070Y10578250D01*
X-16563755Y10652608D01*
X-16626992Y10715845D01*
X-16701350Y10765530D01*
X-16783973Y10799753D01*
X-16871685Y10817200D01*
X-16961115Y10817200D01*
X-17048827Y10799753D01*
X-17131450Y10765530D01*
X-17205808Y10715845D01*
X-17269045Y10652608D01*
X-17318730Y10578250D01*
X-17352953Y10495627D01*
X-17370400Y10407915D01*
X-17732400Y10407915D01*
X-17732400Y10458715D01*
X-17749847Y10546427D01*
X-17784070Y10629050D01*
X-17833755Y10703408D01*
X-17896992Y10766645D01*
X-17971350Y10816330D01*
X-18053973Y10850553D01*
X-18141685Y10868000D01*
X-18231115Y10868000D01*
X-18318827Y10850553D01*
X-18401450Y10816330D01*
X-18415000Y10807276D01*
X-18428550Y10816330D01*
X-18511173Y10850553D01*
X-18598885Y10868000D01*
X-18688315Y10868000D01*
X-18776027Y10850553D01*
X-18858650Y10816330D01*
X-18933008Y10766645D01*
X-18996245Y10703408D01*
X-19045930Y10629050D01*
X-19080153Y10546427D01*
X-19097600Y10458715D01*
X-19593304Y10458715D01*
X-19627150Y10481330D01*
X-19709773Y10515553D01*
X-19797485Y10533000D01*
X-19886915Y10533000D01*
X-19973235Y10515830D01*
X-19985206Y14370315D01*
X-16608400Y14370315D01*
X-16608400Y14280885D01*
X-16590953Y14193173D01*
X-16556730Y14110550D01*
X-16507045Y14036192D01*
X-16443808Y13972955D01*
X-16369450Y13923270D01*
X-16286827Y13889047D01*
X-16199115Y13871600D01*
X-16109685Y13871600D01*
X-16021973Y13889047D01*
X-15939350Y13923270D01*
X-15864992Y13972955D01*
X-15801755Y14036192D01*
X-15752070Y14110550D01*
X-15717847Y14193173D01*
X-15700400Y14280885D01*
X-15700400Y14370315D01*
X-15717847Y14458027D01*
X-15752070Y14540650D01*
X-15801755Y14615008D01*
X-15864992Y14678245D01*
X-15939350Y14727930D01*
X-16021973Y14762153D01*
X-16109685Y14779600D01*
X-16199115Y14779600D01*
X-16286827Y14762153D01*
X-16369450Y14727930D01*
X-16443808Y14678245D01*
X-16507045Y14615008D01*
X-16556730Y14540650D01*
X-16590953Y14458027D01*
X-16608400Y14370315D01*
X-19985206Y14370315D01*
X-19985317Y14405907D01*
X-19823186Y14644679D01*
X-18597000Y16173340D01*
X-17253237Y17599748D01*
X-16611880Y18180315D01*
X-6296000Y18180315D01*
X-6296000Y18090885D01*
X-6278553Y18003173D01*
X-6244330Y17920550D01*
X-6194645Y17846192D01*
X-6131408Y17782955D01*
X-6057050Y17733270D01*
X-5974427Y17699047D01*
X-5886715Y17681600D01*
X-5797285Y17681600D01*
X-5709573Y17699047D01*
X-5626950Y17733270D01*
X-5552592Y17782955D01*
X-5489355Y17846192D01*
X-5439670Y17920550D01*
X-5405447Y18003173D01*
X-5388000Y18090885D01*
X-5388000Y18180315D01*
X-5405447Y18268027D01*
X-5439670Y18350650D01*
X-5489355Y18425008D01*
X-5552592Y18488245D01*
X-5626950Y18537930D01*
X-5709573Y18572153D01*
X-5797285Y18589600D01*
X-5886715Y18589600D01*
X-5974427Y18572153D01*
X-6057050Y18537930D01*
X-6131408Y18488245D01*
X-6194645Y18425008D01*
X-6244330Y18350650D01*
X-6278553Y18268027D01*
X-6296000Y18180315D01*
X-16611880Y18180315D01*
X-15800394Y18914885D01*
X-15039020Y19501115D01*
X-9140800Y19501115D01*
X-9140800Y19411685D01*
X-9123353Y19323973D01*
X-9089130Y19241350D01*
X-9039445Y19166992D01*
X-8976208Y19103755D01*
X-8901850Y19054070D01*
X-8819227Y19019847D01*
X-8731515Y19002400D01*
X-8642085Y19002400D01*
X-8554373Y19019847D01*
X-8471750Y19054070D01*
X-8397392Y19103755D01*
X-8334155Y19166992D01*
X-8284470Y19241350D01*
X-8250247Y19323973D01*
X-8232800Y19411685D01*
X-8232800Y19501115D01*
X-8250247Y19588827D01*
X-8284470Y19671450D01*
X-8334155Y19745808D01*
X-8397392Y19809045D01*
X-8471750Y19858730D01*
X-8554373Y19892953D01*
X-8642085Y19910400D01*
X-8731515Y19910400D01*
X-8819227Y19892953D01*
X-8901850Y19858730D01*
X-8976208Y19809045D01*
X-9039445Y19745808D01*
X-9089130Y19671450D01*
X-9123353Y19588827D01*
X-9140800Y19501115D01*
X-15039020Y19501115D01*
X-14247655Y20110436D01*
X-13778556Y20415515D01*
X-5635600Y20415515D01*
X-5635600Y20326085D01*
X-5618153Y20238373D01*
X-5583930Y20155750D01*
X-5534245Y20081392D01*
X-5471008Y20018155D01*
X-5396650Y19968470D01*
X-5314027Y19934247D01*
X-5226315Y19916800D01*
X-5136885Y19916800D01*
X-5049173Y19934247D01*
X-4966550Y19968470D01*
X-4892192Y20018155D01*
X-4828955Y20081392D01*
X-4779270Y20155750D01*
X-4746812Y20234114D01*
X-2377000Y20234114D01*
X-2377000Y19765886D01*
X-2285653Y19306655D01*
X-2106470Y18874068D01*
X-1846336Y18484751D01*
X-1515249Y18153664D01*
X-1125932Y17893530D01*
X-693345Y17714347D01*
X-234114Y17623000D01*
X234114Y17623000D01*
X693345Y17714347D01*
X1125932Y17893530D01*
X1515249Y18153664D01*
X1846336Y18484751D01*
X2106470Y18874068D01*
X2285653Y19306655D01*
X2377000Y19765886D01*
X2377000Y20234114D01*
X2285653Y20693345D01*
X2106470Y21125932D01*
X1846336Y21515249D01*
X1515249Y21846336D01*
X1125932Y22106470D01*
X693345Y22285653D01*
X234114Y22377000D01*
X-234114Y22377000D01*
X-693345Y22285653D01*
X-1125932Y22106470D01*
X-1515249Y21846336D01*
X-1846336Y21515249D01*
X-2106470Y21125932D01*
X-2285653Y20693345D01*
X-2377000Y20234114D01*
X-4746812Y20234114D01*
X-4745047Y20238373D01*
X-4727600Y20326085D01*
X-4727600Y20415515D01*
X-4745047Y20503227D01*
X-4779270Y20585850D01*
X-4828955Y20660208D01*
X-4892192Y20723445D01*
X-4966550Y20773130D01*
X-5049173Y20807353D01*
X-5136885Y20824800D01*
X-5226315Y20824800D01*
X-5314027Y20807353D01*
X-5396650Y20773130D01*
X-5471008Y20723445D01*
X-5534245Y20660208D01*
X-5583930Y20585850D01*
X-5618153Y20503227D01*
X-5635600Y20415515D01*
X-13778556Y20415515D01*
X-12604839Y21178842D01*
X-10882330Y22113349D01*
X-10472617Y22295115D01*
X-5940400Y22295115D01*
X-5940400Y22205685D01*
X-5922953Y22117973D01*
X-5888730Y22035350D01*
X-5839045Y21960992D01*
X-5775808Y21897755D01*
X-5701450Y21848070D01*
X-5618827Y21813847D01*
X-5531115Y21796400D01*
X-5441685Y21796400D01*
X-5353973Y21813847D01*
X-5271350Y21848070D01*
X-5196992Y21897755D01*
X-5133755Y21960992D01*
X-5084070Y22035350D01*
X-5049847Y22117973D01*
X-5032400Y22205685D01*
X-5032400Y22295115D01*
X-5049847Y22382827D01*
X-5084070Y22465450D01*
X-5133755Y22539808D01*
X-5196992Y22603045D01*
X-5271350Y22652730D01*
X-5353973Y22686953D01*
X-5441685Y22704400D01*
X-5531115Y22704400D01*
X-5618827Y22686953D01*
X-5701450Y22652730D01*
X-5775808Y22603045D01*
X-5839045Y22539808D01*
X-5888730Y22465450D01*
X-5922953Y22382827D01*
X-5940400Y22295115D01*
X-10472617Y22295115D01*
X-9091020Y22908048D01*
X-7242234Y23557915D01*
X-5347660Y24058841D01*
X-3419276Y24407660D01*
X-1469274Y24602166D01*
X490016Y24641128D01*
X2446209Y24524302D01*
M02*
