G04 #@! TF.GenerationSoftware,KiCad,Pcbnew,5.1.5-52549c5~84~ubuntu18.04.1*
G04 #@! TF.CreationDate,2019-12-03T21:10:06-05:00*
G04 #@! TF.ProjectId,SwarmBot,53776172-6d42-46f7-942e-6b696361645f,rev?*
G04 #@! TF.SameCoordinates,Original*
G04 #@! TF.FileFunction,Soldermask,Top*
G04 #@! TF.FilePolarity,Negative*
%FSLAX46Y46*%
G04 Gerber Fmt 4.6, Leading zero omitted, Abs format (unit mm)*
G04 Created by KiCad (PCBNEW 5.1.5-52549c5~84~ubuntu18.04.1) date 2019-12-03 21:10:06*
%MOMM*%
%LPD*%
G04 APERTURE LIST*
%ADD10C,0.100000*%
G04 APERTURE END LIST*
D10*
G36*
X379487Y-18748996D02*
G01*
X574091Y-18829604D01*
X616255Y-18847069D01*
X829339Y-18989447D01*
X1010553Y-19170661D01*
X1150717Y-19380431D01*
X1152932Y-19383747D01*
X1251004Y-19620513D01*
X1301000Y-19871861D01*
X1301000Y-20128139D01*
X1251004Y-20379487D01*
X1166207Y-20584204D01*
X1152931Y-20616255D01*
X1010553Y-20829339D01*
X829339Y-21010553D01*
X616255Y-21152931D01*
X616254Y-21152932D01*
X616253Y-21152932D01*
X379487Y-21251004D01*
X128139Y-21301000D01*
X-128139Y-21301000D01*
X-379487Y-21251004D01*
X-616253Y-21152932D01*
X-616254Y-21152932D01*
X-616255Y-21152931D01*
X-829339Y-21010553D01*
X-1010553Y-20829339D01*
X-1152931Y-20616255D01*
X-1166207Y-20584204D01*
X-1251004Y-20379487D01*
X-1301000Y-20128139D01*
X-1301000Y-19871861D01*
X-1251004Y-19620513D01*
X-1152932Y-19383747D01*
X-1150716Y-19380431D01*
X-1010553Y-19170661D01*
X-829339Y-18989447D01*
X-616255Y-18847069D01*
X-574091Y-18829604D01*
X-379487Y-18748996D01*
X-128139Y-18699000D01*
X128139Y-18699000D01*
X379487Y-18748996D01*
G37*
G36*
X6708138Y-18986116D02*
G01*
X6728757Y-18992371D01*
X6747753Y-19002524D01*
X6764408Y-19016192D01*
X6778074Y-19032845D01*
X6793932Y-19062513D01*
X6807546Y-19082887D01*
X6824873Y-19100214D01*
X6845248Y-19113828D01*
X6867887Y-19123205D01*
X6891920Y-19127985D01*
X6916424Y-19127985D01*
X6940457Y-19123204D01*
X6963096Y-19113827D01*
X6983470Y-19100213D01*
X7000797Y-19082886D01*
X7013742Y-19063513D01*
X7027792Y-19046392D01*
X7044447Y-19032724D01*
X7063443Y-19022571D01*
X7084062Y-19016316D01*
X7111640Y-19013600D01*
X7620360Y-19013600D01*
X7647938Y-19016316D01*
X7668557Y-19022571D01*
X7687553Y-19032724D01*
X7704208Y-19046392D01*
X7717875Y-19063047D01*
X7724379Y-19075214D01*
X7737993Y-19095588D01*
X7755320Y-19112915D01*
X7775694Y-19126528D01*
X7798333Y-19135905D01*
X7822367Y-19140685D01*
X7846871Y-19140685D01*
X7870904Y-19135904D01*
X7893543Y-19126526D01*
X7913917Y-19112912D01*
X7931244Y-19095585D01*
X7944855Y-19075214D01*
X7953924Y-19058247D01*
X7967592Y-19041592D01*
X7984247Y-19027924D01*
X8003243Y-19017771D01*
X8023862Y-19011516D01*
X8051440Y-19008800D01*
X8560160Y-19008800D01*
X8587738Y-19011516D01*
X8608357Y-19017771D01*
X8627353Y-19027924D01*
X8644008Y-19041592D01*
X8657676Y-19058247D01*
X8667829Y-19077243D01*
X8674084Y-19097862D01*
X8676800Y-19125440D01*
X8676800Y-19584160D01*
X8674084Y-19611738D01*
X8667829Y-19632357D01*
X8657676Y-19651353D01*
X8644008Y-19668008D01*
X8627353Y-19681676D01*
X8608357Y-19691829D01*
X8587738Y-19698084D01*
X8563377Y-19700483D01*
X8539344Y-19705263D01*
X8516705Y-19714640D01*
X8496330Y-19728254D01*
X8479003Y-19745581D01*
X8465389Y-19765955D01*
X8456012Y-19788594D01*
X8451231Y-19812627D01*
X8451231Y-19837131D01*
X8456011Y-19861164D01*
X8465388Y-19883803D01*
X8479002Y-19904178D01*
X8496329Y-19921505D01*
X8516703Y-19935119D01*
X8539342Y-19944496D01*
X8563375Y-19949277D01*
X8588138Y-19951716D01*
X8608757Y-19957971D01*
X8627753Y-19968124D01*
X8644408Y-19981792D01*
X8658076Y-19998447D01*
X8668229Y-20017443D01*
X8674484Y-20038062D01*
X8677200Y-20065640D01*
X8677200Y-20574360D01*
X8674484Y-20601938D01*
X8668229Y-20622557D01*
X8658076Y-20641553D01*
X8644408Y-20658208D01*
X8627753Y-20671876D01*
X8608757Y-20682029D01*
X8588138Y-20688284D01*
X8560560Y-20691000D01*
X8101840Y-20691000D01*
X8074262Y-20688284D01*
X8053643Y-20682029D01*
X8034647Y-20671876D01*
X8017992Y-20658208D01*
X8004324Y-20641553D01*
X7994171Y-20622557D01*
X7987916Y-20601938D01*
X7985200Y-20574360D01*
X7985200Y-20065640D01*
X7987916Y-20038062D01*
X7994171Y-20017443D01*
X8004324Y-19998447D01*
X8017992Y-19981792D01*
X8034647Y-19968124D01*
X8053643Y-19957971D01*
X8074262Y-19951716D01*
X8089696Y-19950196D01*
X8113729Y-19945416D01*
X8136368Y-19936038D01*
X8156742Y-19922425D01*
X8174069Y-19905098D01*
X8187683Y-19884723D01*
X8197061Y-19862084D01*
X8201841Y-19838051D01*
X8201841Y-19813547D01*
X8197061Y-19789514D01*
X8187683Y-19766875D01*
X8174070Y-19746501D01*
X8156743Y-19729174D01*
X8136368Y-19715560D01*
X8113729Y-19706182D01*
X8089696Y-19701402D01*
X8077444Y-19700800D01*
X8051440Y-19700800D01*
X8023862Y-19698084D01*
X8003243Y-19691829D01*
X7984247Y-19681676D01*
X7967592Y-19668008D01*
X7953925Y-19651353D01*
X7947421Y-19639186D01*
X7933807Y-19618812D01*
X7916480Y-19601485D01*
X7896106Y-19587872D01*
X7873467Y-19578495D01*
X7849433Y-19573715D01*
X7824929Y-19573715D01*
X7800896Y-19578496D01*
X7778257Y-19587874D01*
X7757883Y-19601488D01*
X7740556Y-19618815D01*
X7726945Y-19639186D01*
X7717876Y-19656153D01*
X7704208Y-19672808D01*
X7687553Y-19686476D01*
X7668557Y-19696629D01*
X7647938Y-19702884D01*
X7631592Y-19704494D01*
X7607559Y-19709275D01*
X7584921Y-19718652D01*
X7564546Y-19732266D01*
X7547220Y-19749594D01*
X7533606Y-19769968D01*
X7524229Y-19792607D01*
X7519449Y-19816640D01*
X7519449Y-19841145D01*
X7524230Y-19865178D01*
X7533607Y-19887816D01*
X7547221Y-19908191D01*
X7564549Y-19925517D01*
X7584923Y-19939131D01*
X7607562Y-19948508D01*
X7638756Y-19957970D01*
X7657753Y-19968124D01*
X7674408Y-19981792D01*
X7688076Y-19998447D01*
X7698229Y-20017443D01*
X7704484Y-20038062D01*
X7707200Y-20065640D01*
X7707200Y-20574360D01*
X7704484Y-20601938D01*
X7698229Y-20622557D01*
X7688076Y-20641553D01*
X7674408Y-20658208D01*
X7657753Y-20671876D01*
X7638757Y-20682029D01*
X7618138Y-20688284D01*
X7590560Y-20691000D01*
X7131840Y-20691000D01*
X7104262Y-20688284D01*
X7083643Y-20682029D01*
X7064647Y-20671876D01*
X7047992Y-20658208D01*
X7034324Y-20641553D01*
X7024171Y-20622557D01*
X7017916Y-20601938D01*
X7015200Y-20574360D01*
X7015200Y-20065640D01*
X7017916Y-20038062D01*
X7024171Y-20017443D01*
X7034324Y-19998447D01*
X7047992Y-19981792D01*
X7064647Y-19968124D01*
X7083643Y-19957971D01*
X7113773Y-19948831D01*
X7118376Y-19947916D01*
X7141016Y-19938541D01*
X7161392Y-19924929D01*
X7178721Y-19907604D01*
X7192337Y-19887231D01*
X7201717Y-19864593D01*
X7206500Y-19840561D01*
X7206502Y-19816056D01*
X7201725Y-19792023D01*
X7192350Y-19769383D01*
X7178738Y-19749007D01*
X7161413Y-19731678D01*
X7141040Y-19718062D01*
X7118402Y-19708682D01*
X7094357Y-19703898D01*
X7084062Y-19702884D01*
X7063443Y-19696629D01*
X7044447Y-19686476D01*
X7027792Y-19672808D01*
X7014126Y-19656155D01*
X6998268Y-19626487D01*
X6984654Y-19606113D01*
X6967327Y-19588786D01*
X6946952Y-19575172D01*
X6924313Y-19565795D01*
X6900280Y-19561015D01*
X6875776Y-19561015D01*
X6851743Y-19565796D01*
X6829104Y-19575173D01*
X6808730Y-19588787D01*
X6791403Y-19606114D01*
X6778458Y-19625487D01*
X6764408Y-19642608D01*
X6747753Y-19656276D01*
X6728757Y-19666429D01*
X6708138Y-19672684D01*
X6680560Y-19675400D01*
X6171840Y-19675400D01*
X6144262Y-19672684D01*
X6123643Y-19666429D01*
X6104647Y-19656276D01*
X6087992Y-19642608D01*
X6074324Y-19625952D01*
X6067178Y-19612584D01*
X6053564Y-19592210D01*
X6036236Y-19574884D01*
X6015862Y-19561271D01*
X5993222Y-19551894D01*
X5969189Y-19547115D01*
X5944685Y-19547115D01*
X5920652Y-19551897D01*
X5898013Y-19561275D01*
X5877639Y-19574889D01*
X5860313Y-19592217D01*
X5846702Y-19612587D01*
X5838274Y-19628355D01*
X5824608Y-19645008D01*
X5807953Y-19658676D01*
X5788957Y-19668829D01*
X5768338Y-19675084D01*
X5740760Y-19677800D01*
X5232040Y-19677800D01*
X5204462Y-19675084D01*
X5183843Y-19668829D01*
X5164847Y-19658676D01*
X5148192Y-19645008D01*
X5134524Y-19628352D01*
X5127378Y-19614984D01*
X5113764Y-19594610D01*
X5096436Y-19577284D01*
X5076062Y-19563671D01*
X5053422Y-19554294D01*
X5029389Y-19549515D01*
X5004885Y-19549515D01*
X4980852Y-19554297D01*
X4958213Y-19563675D01*
X4937839Y-19577289D01*
X4920513Y-19594617D01*
X4906902Y-19614987D01*
X4898474Y-19630755D01*
X4884808Y-19647408D01*
X4868153Y-19661076D01*
X4849157Y-19671229D01*
X4828538Y-19677484D01*
X4800960Y-19680200D01*
X4292240Y-19680200D01*
X4264662Y-19677484D01*
X4244043Y-19671229D01*
X4225047Y-19661076D01*
X4208392Y-19647408D01*
X4194724Y-19630753D01*
X4184571Y-19611757D01*
X4178316Y-19591138D01*
X4175600Y-19563560D01*
X4175600Y-19104840D01*
X4178316Y-19077262D01*
X4184571Y-19056643D01*
X4194724Y-19037647D01*
X4208392Y-19020992D01*
X4225047Y-19007324D01*
X4244043Y-18997171D01*
X4264662Y-18990916D01*
X4292240Y-18988200D01*
X4800960Y-18988200D01*
X4828538Y-18990916D01*
X4849157Y-18997171D01*
X4868153Y-19007324D01*
X4884808Y-19020992D01*
X4898476Y-19037648D01*
X4905622Y-19051016D01*
X4919236Y-19071390D01*
X4936564Y-19088716D01*
X4956938Y-19102329D01*
X4979578Y-19111706D01*
X5003611Y-19116485D01*
X5028115Y-19116485D01*
X5052148Y-19111703D01*
X5074787Y-19102325D01*
X5095161Y-19088711D01*
X5112487Y-19071383D01*
X5126098Y-19051013D01*
X5134526Y-19035245D01*
X5148192Y-19018592D01*
X5164847Y-19004924D01*
X5183843Y-18994771D01*
X5204462Y-18988516D01*
X5232040Y-18985800D01*
X5740760Y-18985800D01*
X5768338Y-18988516D01*
X5788957Y-18994771D01*
X5807953Y-19004924D01*
X5824608Y-19018592D01*
X5838276Y-19035248D01*
X5845422Y-19048616D01*
X5859036Y-19068990D01*
X5876364Y-19086316D01*
X5896738Y-19099929D01*
X5919378Y-19109306D01*
X5943411Y-19114085D01*
X5967915Y-19114085D01*
X5991948Y-19109303D01*
X6014587Y-19099925D01*
X6034961Y-19086311D01*
X6052287Y-19068983D01*
X6065898Y-19048613D01*
X6074326Y-19032845D01*
X6087992Y-19016192D01*
X6104647Y-19002524D01*
X6123643Y-18992371D01*
X6144262Y-18986116D01*
X6171840Y-18983400D01*
X6680560Y-18983400D01*
X6708138Y-18986116D01*
G37*
G36*
X-11067900Y-20637600D02*
G01*
X-11969900Y-20637600D01*
X-11969900Y-18935600D01*
X-11067900Y-18935600D01*
X-11067900Y-20637600D01*
G37*
G36*
X-8467900Y-20637600D02*
G01*
X-9369900Y-20637600D01*
X-9369900Y-18935600D01*
X-8467900Y-18935600D01*
X-8467900Y-20637600D01*
G37*
G36*
X-12506962Y-19674316D02*
G01*
X-12486343Y-19680571D01*
X-12467347Y-19690724D01*
X-12450692Y-19704392D01*
X-12437024Y-19721047D01*
X-12426871Y-19740043D01*
X-12420616Y-19760662D01*
X-12417900Y-19788240D01*
X-12417900Y-20246960D01*
X-12420616Y-20274538D01*
X-12426871Y-20295157D01*
X-12437024Y-20314153D01*
X-12450692Y-20330808D01*
X-12467347Y-20344476D01*
X-12486343Y-20354629D01*
X-12506962Y-20360884D01*
X-12534540Y-20363600D01*
X-13043260Y-20363600D01*
X-13070838Y-20360884D01*
X-13091457Y-20354629D01*
X-13110453Y-20344476D01*
X-13127108Y-20330808D01*
X-13140776Y-20314153D01*
X-13150929Y-20295157D01*
X-13157184Y-20274538D01*
X-13159900Y-20246960D01*
X-13159900Y-19788240D01*
X-13157184Y-19760662D01*
X-13150929Y-19740043D01*
X-13140776Y-19721047D01*
X-13127108Y-19704392D01*
X-13110453Y-19690724D01*
X-13091457Y-19680571D01*
X-13070838Y-19674316D01*
X-13043260Y-19671600D01*
X-12534540Y-19671600D01*
X-12506962Y-19674316D01*
G37*
G36*
X13947138Y-19217116D02*
G01*
X13967757Y-19223371D01*
X13986753Y-19233524D01*
X14003408Y-19247192D01*
X14017076Y-19263847D01*
X14027229Y-19282843D01*
X14033484Y-19303462D01*
X14035404Y-19322958D01*
X14040184Y-19346991D01*
X14049562Y-19369630D01*
X14058125Y-19382446D01*
X14050960Y-19393170D01*
X14041583Y-19415808D01*
X14036802Y-19439842D01*
X14036200Y-19452094D01*
X14036200Y-19789760D01*
X14033484Y-19817338D01*
X14027229Y-19837957D01*
X14017076Y-19856953D01*
X14003408Y-19873608D01*
X13986753Y-19887276D01*
X13967757Y-19897429D01*
X13947138Y-19903684D01*
X13919560Y-19906400D01*
X13410840Y-19906400D01*
X13383262Y-19903684D01*
X13362643Y-19897429D01*
X13343647Y-19887276D01*
X13326992Y-19873608D01*
X13313324Y-19856953D01*
X13303171Y-19837957D01*
X13296916Y-19817338D01*
X13294200Y-19789760D01*
X13294200Y-19331040D01*
X13296916Y-19303462D01*
X13303171Y-19282843D01*
X13313324Y-19263847D01*
X13326992Y-19247192D01*
X13343647Y-19233524D01*
X13362643Y-19223371D01*
X13383262Y-19217116D01*
X13410840Y-19214400D01*
X13919560Y-19214400D01*
X13947138Y-19217116D01*
G37*
G36*
X14937738Y-18859116D02*
G01*
X14958357Y-18865371D01*
X14977353Y-18875524D01*
X14994008Y-18889192D01*
X15007676Y-18905847D01*
X15017829Y-18924843D01*
X15024084Y-18945462D01*
X15026800Y-18973040D01*
X15026800Y-19431760D01*
X15024084Y-19459338D01*
X15017829Y-19479957D01*
X15007676Y-19498953D01*
X14994008Y-19515608D01*
X14977353Y-19529276D01*
X14958357Y-19539429D01*
X14937738Y-19545684D01*
X14910160Y-19548400D01*
X14401440Y-19548400D01*
X14373862Y-19545684D01*
X14353243Y-19539429D01*
X14334247Y-19529276D01*
X14317592Y-19515608D01*
X14303924Y-19498953D01*
X14293771Y-19479957D01*
X14287516Y-19459338D01*
X14285596Y-19439842D01*
X14280816Y-19415809D01*
X14271438Y-19393170D01*
X14262875Y-19380354D01*
X14270040Y-19369630D01*
X14279417Y-19346992D01*
X14284198Y-19322958D01*
X14284800Y-19310706D01*
X14284800Y-18973040D01*
X14287516Y-18945462D01*
X14293771Y-18924843D01*
X14303924Y-18905847D01*
X14317592Y-18889192D01*
X14334247Y-18875524D01*
X14353243Y-18865371D01*
X14373862Y-18859116D01*
X14401440Y-18856400D01*
X14910160Y-18856400D01*
X14937738Y-18859116D01*
G37*
G36*
X-12572462Y-17767316D02*
G01*
X-12551843Y-17773571D01*
X-12532847Y-17783724D01*
X-12516192Y-17797392D01*
X-12502524Y-17814047D01*
X-12492371Y-17833043D01*
X-12486116Y-17853662D01*
X-12483400Y-17881240D01*
X-12483400Y-18389960D01*
X-12486116Y-18417538D01*
X-12492371Y-18438157D01*
X-12502524Y-18457153D01*
X-12516194Y-18473810D01*
X-12538000Y-18491705D01*
X-12555328Y-18509031D01*
X-12568942Y-18529406D01*
X-12578319Y-18552044D01*
X-12583100Y-18576078D01*
X-12583100Y-18600582D01*
X-12578320Y-18624615D01*
X-12568943Y-18647254D01*
X-12555329Y-18667628D01*
X-12538003Y-18684956D01*
X-12517628Y-18698570D01*
X-12494989Y-18707947D01*
X-12486346Y-18710569D01*
X-12467347Y-18720724D01*
X-12450692Y-18734392D01*
X-12437024Y-18751047D01*
X-12426871Y-18770043D01*
X-12420616Y-18790662D01*
X-12417900Y-18818240D01*
X-12417900Y-19276960D01*
X-12420616Y-19304538D01*
X-12426871Y-19325157D01*
X-12437024Y-19344153D01*
X-12450692Y-19360808D01*
X-12467347Y-19374476D01*
X-12486343Y-19384629D01*
X-12506962Y-19390884D01*
X-12534540Y-19393600D01*
X-13043260Y-19393600D01*
X-13070838Y-19390884D01*
X-13091457Y-19384629D01*
X-13110453Y-19374476D01*
X-13127108Y-19360808D01*
X-13140776Y-19344153D01*
X-13150929Y-19325157D01*
X-13157184Y-19304538D01*
X-13159900Y-19276960D01*
X-13159900Y-18818240D01*
X-13157184Y-18790662D01*
X-13150929Y-18770043D01*
X-13140776Y-18751047D01*
X-13127108Y-18734392D01*
X-13110454Y-18720725D01*
X-13106257Y-18718482D01*
X-13085883Y-18704869D01*
X-13068556Y-18687542D01*
X-13054942Y-18667167D01*
X-13045565Y-18644529D01*
X-13040784Y-18620495D01*
X-13040784Y-18595991D01*
X-13045564Y-18571958D01*
X-13054942Y-18549319D01*
X-13068555Y-18528945D01*
X-13085882Y-18511618D01*
X-13106254Y-18498005D01*
X-13125954Y-18487474D01*
X-13142608Y-18473808D01*
X-13156276Y-18457153D01*
X-13166429Y-18438157D01*
X-13172684Y-18417538D01*
X-13175400Y-18389960D01*
X-13175400Y-17881240D01*
X-13172684Y-17853662D01*
X-13166429Y-17833043D01*
X-13156276Y-17814047D01*
X-13142608Y-17797392D01*
X-13125953Y-17783724D01*
X-13106957Y-17773571D01*
X-13086338Y-17767316D01*
X-13058760Y-17764600D01*
X-12600040Y-17764600D01*
X-12572462Y-17767316D01*
G37*
G36*
X10295401Y-15364508D02*
G01*
X10314347Y-15370256D01*
X10333291Y-15376002D01*
X10368210Y-15394666D01*
X10398816Y-15419784D01*
X10409379Y-15432655D01*
X10426702Y-15449978D01*
X10447077Y-15463592D01*
X10469715Y-15472970D01*
X10493749Y-15477750D01*
X10518253Y-15477750D01*
X10542286Y-15472970D01*
X10564925Y-15463592D01*
X10585299Y-15449979D01*
X10602617Y-15432661D01*
X10613185Y-15419784D01*
X10643791Y-15394666D01*
X10678710Y-15376002D01*
X10697654Y-15370256D01*
X10716600Y-15364508D01*
X10751696Y-15361052D01*
X10756000Y-15360628D01*
X10756001Y-15360628D01*
X10795401Y-15364508D01*
X10814347Y-15370256D01*
X10833291Y-15376002D01*
X10868210Y-15394666D01*
X10898816Y-15419784D01*
X10909379Y-15432655D01*
X10926702Y-15449978D01*
X10947077Y-15463592D01*
X10969715Y-15472970D01*
X10993749Y-15477750D01*
X11018253Y-15477750D01*
X11042286Y-15472970D01*
X11064925Y-15463592D01*
X11085299Y-15449979D01*
X11102617Y-15432661D01*
X11113185Y-15419784D01*
X11143791Y-15394666D01*
X11178710Y-15376002D01*
X11197654Y-15370256D01*
X11216600Y-15364508D01*
X11251696Y-15361052D01*
X11256000Y-15360628D01*
X11256001Y-15360628D01*
X11295401Y-15364508D01*
X11314347Y-15370256D01*
X11333291Y-15376002D01*
X11368210Y-15394666D01*
X11398816Y-15419784D01*
X11409379Y-15432655D01*
X11426702Y-15449978D01*
X11447077Y-15463592D01*
X11469715Y-15472970D01*
X11493749Y-15477750D01*
X11518253Y-15477750D01*
X11542286Y-15472970D01*
X11564925Y-15463592D01*
X11585299Y-15449979D01*
X11602617Y-15432661D01*
X11613185Y-15419784D01*
X11643791Y-15394666D01*
X11678710Y-15376002D01*
X11697654Y-15370256D01*
X11716600Y-15364508D01*
X11751696Y-15361052D01*
X11756000Y-15360628D01*
X11756001Y-15360628D01*
X11795401Y-15364508D01*
X11814347Y-15370256D01*
X11833291Y-15376002D01*
X11868210Y-15394666D01*
X11898816Y-15419784D01*
X11923934Y-15450390D01*
X11936003Y-15472970D01*
X11942597Y-15485307D01*
X11954092Y-15523199D01*
X11957000Y-15552726D01*
X11957000Y-16022474D01*
X11954092Y-16052001D01*
X11954091Y-16052003D01*
X11942598Y-16089891D01*
X11923934Y-16124810D01*
X11923931Y-16124814D01*
X11922401Y-16127676D01*
X11913024Y-16150314D01*
X11908243Y-16174347D01*
X11908243Y-16198852D01*
X11913023Y-16222885D01*
X11922400Y-16245524D01*
X11936013Y-16265898D01*
X11953340Y-16283226D01*
X11973361Y-16296604D01*
X11978066Y-16305406D01*
X11993611Y-16324348D01*
X12012553Y-16339893D01*
X12034164Y-16351444D01*
X12057613Y-16358557D01*
X12081999Y-16360959D01*
X12106385Y-16358557D01*
X12129834Y-16351444D01*
X12140924Y-16346199D01*
X12143786Y-16344669D01*
X12143790Y-16344666D01*
X12178709Y-16326002D01*
X12216599Y-16314508D01*
X12246126Y-16311600D01*
X12715874Y-16311600D01*
X12745401Y-16314508D01*
X12764347Y-16320256D01*
X12783291Y-16326002D01*
X12818210Y-16344666D01*
X12848816Y-16369784D01*
X12873934Y-16400390D01*
X12886080Y-16423114D01*
X12892597Y-16435307D01*
X12904092Y-16473199D01*
X12907972Y-16512600D01*
X12904092Y-16552001D01*
X12904091Y-16552003D01*
X12892598Y-16589891D01*
X12873934Y-16624810D01*
X12848816Y-16655416D01*
X12835945Y-16665979D01*
X12818623Y-16683301D01*
X12805009Y-16703675D01*
X12795632Y-16726314D01*
X12790851Y-16750347D01*
X12790851Y-16774851D01*
X12795631Y-16798884D01*
X12805008Y-16821523D01*
X12818622Y-16841898D01*
X12835945Y-16859221D01*
X12848816Y-16869784D01*
X12873934Y-16900390D01*
X12884894Y-16920896D01*
X12892597Y-16935307D01*
X12904092Y-16973199D01*
X12907972Y-17012600D01*
X12904092Y-17052001D01*
X12904091Y-17052003D01*
X12892598Y-17089891D01*
X12873934Y-17124810D01*
X12848816Y-17155416D01*
X12835945Y-17165979D01*
X12818623Y-17183301D01*
X12805009Y-17203675D01*
X12795632Y-17226314D01*
X12790851Y-17250347D01*
X12790851Y-17274851D01*
X12795631Y-17298884D01*
X12805008Y-17321523D01*
X12818622Y-17341898D01*
X12835945Y-17359221D01*
X12848816Y-17369784D01*
X12873934Y-17400390D01*
X12882832Y-17417038D01*
X12892597Y-17435307D01*
X12904092Y-17473199D01*
X12907972Y-17512600D01*
X12904092Y-17552001D01*
X12904091Y-17552003D01*
X12892598Y-17589891D01*
X12873934Y-17624810D01*
X12848816Y-17655416D01*
X12835945Y-17665979D01*
X12818623Y-17683301D01*
X12805009Y-17703675D01*
X12795632Y-17726314D01*
X12790851Y-17750347D01*
X12790851Y-17774851D01*
X12795631Y-17798884D01*
X12805008Y-17821523D01*
X12818622Y-17841898D01*
X12835945Y-17859221D01*
X12848816Y-17869784D01*
X12873934Y-17900390D01*
X12891466Y-17933190D01*
X12892597Y-17935307D01*
X12904092Y-17973199D01*
X12907972Y-18012600D01*
X12904092Y-18052001D01*
X12902295Y-18057924D01*
X12892598Y-18089891D01*
X12873934Y-18124810D01*
X12848816Y-18155416D01*
X12818210Y-18180534D01*
X12783291Y-18199198D01*
X12764347Y-18204945D01*
X12745401Y-18210692D01*
X12715874Y-18213600D01*
X12246126Y-18213600D01*
X12216599Y-18210692D01*
X12178709Y-18199198D01*
X12178707Y-18199197D01*
X12143790Y-18180534D01*
X12143786Y-18180531D01*
X12140924Y-18179001D01*
X12118286Y-18169624D01*
X12094253Y-18164843D01*
X12069748Y-18164843D01*
X12045715Y-18169623D01*
X12023076Y-18179000D01*
X12002702Y-18192613D01*
X11985374Y-18209940D01*
X11971996Y-18229961D01*
X11963194Y-18234666D01*
X11944252Y-18250211D01*
X11928707Y-18269153D01*
X11917156Y-18290764D01*
X11910043Y-18314213D01*
X11907641Y-18338599D01*
X11910043Y-18362985D01*
X11917156Y-18386434D01*
X11922401Y-18397524D01*
X11923931Y-18400386D01*
X11923934Y-18400390D01*
X11942598Y-18435309D01*
X11954092Y-18473199D01*
X11957000Y-18502726D01*
X11957000Y-18972474D01*
X11954092Y-19002001D01*
X11951021Y-19012124D01*
X11942598Y-19039891D01*
X11923934Y-19074810D01*
X11898816Y-19105416D01*
X11868209Y-19130534D01*
X11833290Y-19149198D01*
X11821254Y-19152849D01*
X11795400Y-19160692D01*
X11760304Y-19164148D01*
X11756000Y-19164572D01*
X11755999Y-19164572D01*
X11716599Y-19160692D01*
X11690745Y-19152849D01*
X11678709Y-19149198D01*
X11643790Y-19130534D01*
X11613184Y-19105416D01*
X11602622Y-19092546D01*
X11585299Y-19075223D01*
X11564925Y-19061609D01*
X11542286Y-19052232D01*
X11518253Y-19047451D01*
X11493749Y-19047451D01*
X11469716Y-19052231D01*
X11447077Y-19061608D01*
X11426702Y-19075222D01*
X11409379Y-19092545D01*
X11398816Y-19105416D01*
X11368209Y-19130534D01*
X11333290Y-19149198D01*
X11321254Y-19152849D01*
X11295400Y-19160692D01*
X11260304Y-19164148D01*
X11256000Y-19164572D01*
X11255999Y-19164572D01*
X11216599Y-19160692D01*
X11190745Y-19152849D01*
X11178709Y-19149198D01*
X11143790Y-19130534D01*
X11113184Y-19105416D01*
X11102622Y-19092546D01*
X11085299Y-19075223D01*
X11064925Y-19061609D01*
X11042286Y-19052232D01*
X11018253Y-19047451D01*
X10993749Y-19047451D01*
X10969716Y-19052231D01*
X10947077Y-19061608D01*
X10926702Y-19075222D01*
X10909379Y-19092545D01*
X10898816Y-19105416D01*
X10868209Y-19130534D01*
X10833290Y-19149198D01*
X10821254Y-19152849D01*
X10795400Y-19160692D01*
X10760304Y-19164148D01*
X10756000Y-19164572D01*
X10755999Y-19164572D01*
X10716599Y-19160692D01*
X10690745Y-19152849D01*
X10678709Y-19149198D01*
X10643790Y-19130534D01*
X10613184Y-19105416D01*
X10602622Y-19092546D01*
X10585299Y-19075223D01*
X10564925Y-19061609D01*
X10542286Y-19052232D01*
X10518253Y-19047451D01*
X10493749Y-19047451D01*
X10469716Y-19052231D01*
X10447077Y-19061608D01*
X10426702Y-19075222D01*
X10409379Y-19092545D01*
X10398816Y-19105416D01*
X10368209Y-19130534D01*
X10333290Y-19149198D01*
X10321254Y-19152849D01*
X10295400Y-19160692D01*
X10260304Y-19164148D01*
X10256000Y-19164572D01*
X10255999Y-19164572D01*
X10216599Y-19160692D01*
X10190745Y-19152849D01*
X10178709Y-19149198D01*
X10143790Y-19130534D01*
X10113184Y-19105416D01*
X10088066Y-19074809D01*
X10069402Y-19039890D01*
X10062692Y-19017771D01*
X10057908Y-19002000D01*
X10055000Y-18972473D01*
X10055000Y-18502731D01*
X10057909Y-18473199D01*
X10069403Y-18435309D01*
X10088067Y-18400390D01*
X10088070Y-18400386D01*
X10089600Y-18397524D01*
X10098977Y-18374886D01*
X10103758Y-18350853D01*
X10103758Y-18326348D01*
X10098978Y-18302315D01*
X10089601Y-18279676D01*
X10075988Y-18259302D01*
X10058661Y-18241974D01*
X10038638Y-18228595D01*
X10033934Y-18219794D01*
X10018389Y-18200852D01*
X9999447Y-18185307D01*
X9977836Y-18173756D01*
X9954387Y-18166643D01*
X9930001Y-18164241D01*
X9905615Y-18166643D01*
X9882166Y-18173756D01*
X9871076Y-18179001D01*
X9868214Y-18180531D01*
X9868210Y-18180534D01*
X9833293Y-18199197D01*
X9833291Y-18199198D01*
X9795401Y-18210692D01*
X9765874Y-18213600D01*
X9296126Y-18213600D01*
X9266599Y-18210692D01*
X9247653Y-18204945D01*
X9228709Y-18199198D01*
X9193790Y-18180534D01*
X9163184Y-18155416D01*
X9138066Y-18124810D01*
X9119402Y-18089891D01*
X9109705Y-18057924D01*
X9107908Y-18052001D01*
X9104028Y-18012600D01*
X9107908Y-17973199D01*
X9119403Y-17935307D01*
X9120534Y-17933190D01*
X9138066Y-17900390D01*
X9163184Y-17869784D01*
X9176055Y-17859221D01*
X9193377Y-17841899D01*
X9206991Y-17821525D01*
X9216368Y-17798886D01*
X9221149Y-17774853D01*
X9221149Y-17750349D01*
X9216369Y-17726316D01*
X9206992Y-17703677D01*
X9193378Y-17683302D01*
X9176055Y-17665979D01*
X9163184Y-17655416D01*
X9138066Y-17624810D01*
X9119402Y-17589891D01*
X9107909Y-17552003D01*
X9107908Y-17552001D01*
X9104028Y-17512600D01*
X9107908Y-17473199D01*
X9119403Y-17435307D01*
X9129168Y-17417038D01*
X9138066Y-17400390D01*
X9163184Y-17369784D01*
X9176055Y-17359221D01*
X9193377Y-17341899D01*
X9206991Y-17321525D01*
X9216368Y-17298886D01*
X9221149Y-17274853D01*
X9221149Y-17250349D01*
X9216369Y-17226316D01*
X9206992Y-17203677D01*
X9193378Y-17183302D01*
X9176055Y-17165979D01*
X9163184Y-17155416D01*
X9138066Y-17124810D01*
X9119402Y-17089891D01*
X9107909Y-17052003D01*
X9107908Y-17052001D01*
X9104028Y-17012600D01*
X9107908Y-16973199D01*
X9119403Y-16935307D01*
X9127106Y-16920896D01*
X9138066Y-16900390D01*
X9163184Y-16869784D01*
X9176055Y-16859221D01*
X9193377Y-16841899D01*
X9206991Y-16821525D01*
X9216368Y-16798886D01*
X9221149Y-16774853D01*
X9221149Y-16750349D01*
X9216369Y-16726316D01*
X9206992Y-16703677D01*
X9193378Y-16683302D01*
X9176055Y-16665979D01*
X9163184Y-16655416D01*
X9138066Y-16624810D01*
X9119402Y-16589891D01*
X9107909Y-16552003D01*
X9107908Y-16552001D01*
X9104028Y-16512600D01*
X9107908Y-16473199D01*
X9119403Y-16435307D01*
X9125920Y-16423114D01*
X9138066Y-16400390D01*
X9163184Y-16369784D01*
X9193790Y-16344666D01*
X9228709Y-16326002D01*
X9247653Y-16320256D01*
X9266599Y-16314508D01*
X9296126Y-16311600D01*
X9765874Y-16311600D01*
X9795401Y-16314508D01*
X9833291Y-16326002D01*
X9868210Y-16344666D01*
X9868214Y-16344669D01*
X9871076Y-16346199D01*
X9893714Y-16355576D01*
X9917747Y-16360357D01*
X9942252Y-16360357D01*
X9966285Y-16355577D01*
X9988924Y-16346200D01*
X10009298Y-16332587D01*
X10026626Y-16315260D01*
X10040003Y-16295240D01*
X10048807Y-16290534D01*
X10067749Y-16274989D01*
X10083294Y-16256047D01*
X10094845Y-16234436D01*
X10101958Y-16210987D01*
X10104360Y-16186601D01*
X10101958Y-16162215D01*
X10094845Y-16138766D01*
X10089599Y-16127675D01*
X10088069Y-16124813D01*
X10088066Y-16124809D01*
X10069402Y-16089890D01*
X10057909Y-16052002D01*
X10057908Y-16052000D01*
X10055000Y-16022473D01*
X10055000Y-15552731D01*
X10057909Y-15523199D01*
X10069404Y-15485307D01*
X10075998Y-15472970D01*
X10088067Y-15450390D01*
X10113185Y-15419784D01*
X10143791Y-15394666D01*
X10178710Y-15376002D01*
X10197654Y-15370256D01*
X10216600Y-15364508D01*
X10251696Y-15361052D01*
X10256000Y-15360628D01*
X10256001Y-15360628D01*
X10295401Y-15364508D01*
G37*
G36*
X13947138Y-18247116D02*
G01*
X13967757Y-18253371D01*
X13986753Y-18263524D01*
X14003408Y-18277192D01*
X14017076Y-18293847D01*
X14027229Y-18312843D01*
X14033484Y-18333462D01*
X14035404Y-18352958D01*
X14040184Y-18376991D01*
X14049562Y-18399630D01*
X14058125Y-18412446D01*
X14050960Y-18423170D01*
X14041583Y-18445808D01*
X14036802Y-18469842D01*
X14036200Y-18482094D01*
X14036200Y-18819760D01*
X14033484Y-18847338D01*
X14027229Y-18867957D01*
X14017076Y-18886953D01*
X14003408Y-18903608D01*
X13986753Y-18917276D01*
X13967757Y-18927429D01*
X13947138Y-18933684D01*
X13919560Y-18936400D01*
X13410840Y-18936400D01*
X13383262Y-18933684D01*
X13362643Y-18927429D01*
X13343647Y-18917276D01*
X13326992Y-18903608D01*
X13313324Y-18886953D01*
X13303171Y-18867957D01*
X13296916Y-18847338D01*
X13294200Y-18819760D01*
X13294200Y-18361040D01*
X13296916Y-18333462D01*
X13303171Y-18312843D01*
X13313324Y-18293847D01*
X13326992Y-18277192D01*
X13343647Y-18263524D01*
X13362643Y-18253371D01*
X13383262Y-18247116D01*
X13410840Y-18244400D01*
X13919560Y-18244400D01*
X13947138Y-18247116D01*
G37*
G36*
X6708138Y-18016116D02*
G01*
X6728757Y-18022371D01*
X6747753Y-18032524D01*
X6764408Y-18046192D01*
X6778074Y-18062845D01*
X6793932Y-18092513D01*
X6807546Y-18112887D01*
X6824873Y-18130214D01*
X6845248Y-18143828D01*
X6867887Y-18153205D01*
X6891920Y-18157985D01*
X6916424Y-18157985D01*
X6940457Y-18153204D01*
X6963096Y-18143827D01*
X6983470Y-18130213D01*
X7000797Y-18112886D01*
X7013742Y-18093513D01*
X7027792Y-18076392D01*
X7044447Y-18062724D01*
X7063443Y-18052571D01*
X7084062Y-18046316D01*
X7111640Y-18043600D01*
X7620360Y-18043600D01*
X7647938Y-18046316D01*
X7668557Y-18052571D01*
X7687553Y-18062724D01*
X7704208Y-18076392D01*
X7717875Y-18093047D01*
X7724379Y-18105214D01*
X7737993Y-18125588D01*
X7755320Y-18142915D01*
X7775694Y-18156528D01*
X7798333Y-18165905D01*
X7822367Y-18170685D01*
X7846871Y-18170685D01*
X7870904Y-18165904D01*
X7893543Y-18156526D01*
X7913917Y-18142912D01*
X7931244Y-18125585D01*
X7944855Y-18105214D01*
X7953924Y-18088247D01*
X7967592Y-18071592D01*
X7984247Y-18057924D01*
X8003243Y-18047771D01*
X8023862Y-18041516D01*
X8051440Y-18038800D01*
X8560160Y-18038800D01*
X8587738Y-18041516D01*
X8608357Y-18047771D01*
X8627353Y-18057924D01*
X8644008Y-18071592D01*
X8657676Y-18088247D01*
X8667829Y-18107243D01*
X8674084Y-18127862D01*
X8676800Y-18155440D01*
X8676800Y-18614160D01*
X8674084Y-18641738D01*
X8667829Y-18662357D01*
X8657676Y-18681353D01*
X8644008Y-18698008D01*
X8627353Y-18711676D01*
X8608357Y-18721829D01*
X8587738Y-18728084D01*
X8560160Y-18730800D01*
X8051440Y-18730800D01*
X8023862Y-18728084D01*
X8003243Y-18721829D01*
X7984247Y-18711676D01*
X7967592Y-18698008D01*
X7953925Y-18681353D01*
X7947421Y-18669186D01*
X7933807Y-18648812D01*
X7916480Y-18631485D01*
X7896106Y-18617872D01*
X7873467Y-18608495D01*
X7849433Y-18603715D01*
X7824929Y-18603715D01*
X7800896Y-18608496D01*
X7778257Y-18617874D01*
X7757883Y-18631488D01*
X7740556Y-18648815D01*
X7726945Y-18669186D01*
X7717876Y-18686153D01*
X7704208Y-18702808D01*
X7687553Y-18716476D01*
X7668557Y-18726629D01*
X7647938Y-18732884D01*
X7620360Y-18735600D01*
X7111640Y-18735600D01*
X7084062Y-18732884D01*
X7063443Y-18726629D01*
X7044447Y-18716476D01*
X7027792Y-18702808D01*
X7014126Y-18686155D01*
X6998268Y-18656487D01*
X6984654Y-18636113D01*
X6967327Y-18618786D01*
X6946952Y-18605172D01*
X6924313Y-18595795D01*
X6900280Y-18591015D01*
X6875776Y-18591015D01*
X6851743Y-18595796D01*
X6829104Y-18605173D01*
X6808730Y-18618787D01*
X6791403Y-18636114D01*
X6778458Y-18655487D01*
X6764408Y-18672608D01*
X6747753Y-18686276D01*
X6728757Y-18696429D01*
X6708138Y-18702684D01*
X6680560Y-18705400D01*
X6171840Y-18705400D01*
X6144262Y-18702684D01*
X6123643Y-18696429D01*
X6104647Y-18686276D01*
X6087992Y-18672608D01*
X6074324Y-18655952D01*
X6067178Y-18642584D01*
X6053564Y-18622210D01*
X6036236Y-18604884D01*
X6015862Y-18591271D01*
X5993222Y-18581894D01*
X5969189Y-18577115D01*
X5944685Y-18577115D01*
X5920652Y-18581897D01*
X5898013Y-18591275D01*
X5877639Y-18604889D01*
X5860313Y-18622217D01*
X5846702Y-18642587D01*
X5838274Y-18658355D01*
X5824608Y-18675008D01*
X5807953Y-18688676D01*
X5788957Y-18698829D01*
X5768338Y-18705084D01*
X5740760Y-18707800D01*
X5232040Y-18707800D01*
X5204462Y-18705084D01*
X5183843Y-18698829D01*
X5164847Y-18688676D01*
X5148192Y-18675008D01*
X5134524Y-18658352D01*
X5127378Y-18644984D01*
X5113764Y-18624610D01*
X5096436Y-18607284D01*
X5076062Y-18593671D01*
X5053422Y-18584294D01*
X5029389Y-18579515D01*
X5004885Y-18579515D01*
X4980852Y-18584297D01*
X4958213Y-18593675D01*
X4937839Y-18607289D01*
X4920513Y-18624617D01*
X4906902Y-18644987D01*
X4898474Y-18660755D01*
X4884808Y-18677408D01*
X4868153Y-18691076D01*
X4849157Y-18701229D01*
X4828538Y-18707484D01*
X4800960Y-18710200D01*
X4292240Y-18710200D01*
X4264662Y-18707484D01*
X4244043Y-18701229D01*
X4225047Y-18691076D01*
X4208392Y-18677408D01*
X4194724Y-18660753D01*
X4184571Y-18641757D01*
X4178316Y-18621138D01*
X4175600Y-18593560D01*
X4175600Y-18134840D01*
X4178316Y-18107262D01*
X4184571Y-18086643D01*
X4194724Y-18067647D01*
X4208392Y-18050992D01*
X4225047Y-18037324D01*
X4244043Y-18027171D01*
X4264662Y-18020916D01*
X4292240Y-18018200D01*
X4800960Y-18018200D01*
X4828538Y-18020916D01*
X4849157Y-18027171D01*
X4868153Y-18037324D01*
X4884808Y-18050992D01*
X4898476Y-18067648D01*
X4905622Y-18081016D01*
X4919236Y-18101390D01*
X4936564Y-18118716D01*
X4956938Y-18132329D01*
X4979578Y-18141706D01*
X5003611Y-18146485D01*
X5028115Y-18146485D01*
X5052148Y-18141703D01*
X5074787Y-18132325D01*
X5095161Y-18118711D01*
X5112487Y-18101383D01*
X5126098Y-18081013D01*
X5134526Y-18065245D01*
X5148192Y-18048592D01*
X5164847Y-18034924D01*
X5183843Y-18024771D01*
X5204462Y-18018516D01*
X5232040Y-18015800D01*
X5740760Y-18015800D01*
X5768338Y-18018516D01*
X5788957Y-18024771D01*
X5807953Y-18034924D01*
X5824608Y-18048592D01*
X5838276Y-18065248D01*
X5845422Y-18078616D01*
X5859036Y-18098990D01*
X5876364Y-18116316D01*
X5896738Y-18129929D01*
X5919378Y-18139306D01*
X5943411Y-18144085D01*
X5967915Y-18144085D01*
X5991948Y-18139303D01*
X6014587Y-18129925D01*
X6034961Y-18116311D01*
X6052287Y-18098983D01*
X6065898Y-18078613D01*
X6074326Y-18062845D01*
X6087992Y-18046192D01*
X6104647Y-18032524D01*
X6123643Y-18022371D01*
X6144262Y-18016116D01*
X6171840Y-18013400D01*
X6680560Y-18013400D01*
X6708138Y-18016116D01*
G37*
G36*
X14937738Y-17889116D02*
G01*
X14958357Y-17895371D01*
X14977353Y-17905524D01*
X14994008Y-17919192D01*
X15007676Y-17935847D01*
X15017829Y-17954843D01*
X15024084Y-17975462D01*
X15026800Y-18003040D01*
X15026800Y-18461760D01*
X15024084Y-18489338D01*
X15017829Y-18509957D01*
X15007676Y-18528953D01*
X14994008Y-18545608D01*
X14977353Y-18559276D01*
X14958357Y-18569429D01*
X14937738Y-18575684D01*
X14910160Y-18578400D01*
X14401440Y-18578400D01*
X14373862Y-18575684D01*
X14353243Y-18569429D01*
X14334247Y-18559276D01*
X14317592Y-18545608D01*
X14303924Y-18528953D01*
X14293771Y-18509957D01*
X14287516Y-18489338D01*
X14285596Y-18469842D01*
X14280816Y-18445809D01*
X14271438Y-18423170D01*
X14262875Y-18410354D01*
X14270040Y-18399630D01*
X14279417Y-18376992D01*
X14284198Y-18352958D01*
X14284800Y-18340706D01*
X14284800Y-18003040D01*
X14287516Y-17975462D01*
X14293771Y-17954843D01*
X14303924Y-17935847D01*
X14317592Y-17919192D01*
X14334247Y-17905524D01*
X14353243Y-17895371D01*
X14373862Y-17889116D01*
X14401440Y-17886400D01*
X14910160Y-17886400D01*
X14937738Y-17889116D01*
G37*
G36*
X-11602462Y-17767316D02*
G01*
X-11581843Y-17773571D01*
X-11562847Y-17783724D01*
X-11546192Y-17797392D01*
X-11532524Y-17814047D01*
X-11522371Y-17833043D01*
X-11516116Y-17853662D01*
X-11513400Y-17881240D01*
X-11513400Y-18389960D01*
X-11516116Y-18417538D01*
X-11522371Y-18438157D01*
X-11532524Y-18457153D01*
X-11546192Y-18473808D01*
X-11562847Y-18487476D01*
X-11581843Y-18497629D01*
X-11602462Y-18503884D01*
X-11630040Y-18506600D01*
X-12088760Y-18506600D01*
X-12116338Y-18503884D01*
X-12136957Y-18497629D01*
X-12155953Y-18487476D01*
X-12172608Y-18473808D01*
X-12186276Y-18457153D01*
X-12196429Y-18438157D01*
X-12202684Y-18417538D01*
X-12205400Y-18389960D01*
X-12205400Y-17881240D01*
X-12202684Y-17853662D01*
X-12196429Y-17833043D01*
X-12186276Y-17814047D01*
X-12172608Y-17797392D01*
X-12155953Y-17783724D01*
X-12136957Y-17773571D01*
X-12116338Y-17767316D01*
X-12088760Y-17764600D01*
X-11630040Y-17764600D01*
X-11602462Y-17767316D01*
G37*
G36*
X-12506962Y-16816816D02*
G01*
X-12486343Y-16823071D01*
X-12467347Y-16833224D01*
X-12450692Y-16846892D01*
X-12437024Y-16863547D01*
X-12426871Y-16882543D01*
X-12420616Y-16903162D01*
X-12417900Y-16930740D01*
X-12417900Y-17389460D01*
X-12420616Y-17417038D01*
X-12426871Y-17437657D01*
X-12437024Y-17456653D01*
X-12450692Y-17473308D01*
X-12467347Y-17486976D01*
X-12486343Y-17497129D01*
X-12506962Y-17503384D01*
X-12534540Y-17506100D01*
X-13043260Y-17506100D01*
X-13070838Y-17503384D01*
X-13091457Y-17497129D01*
X-13110453Y-17486976D01*
X-13127108Y-17473308D01*
X-13140776Y-17456653D01*
X-13150929Y-17437657D01*
X-13157184Y-17417038D01*
X-13159900Y-17389460D01*
X-13159900Y-16930740D01*
X-13157184Y-16903162D01*
X-13150929Y-16882543D01*
X-13140776Y-16863547D01*
X-13127108Y-16846892D01*
X-13110453Y-16833224D01*
X-13091457Y-16823071D01*
X-13070838Y-16816816D01*
X-13043260Y-16814100D01*
X-12534540Y-16814100D01*
X-12506962Y-16816816D01*
G37*
G36*
X14892138Y-15887716D02*
G01*
X14912757Y-15893971D01*
X14931753Y-15904124D01*
X14948408Y-15917792D01*
X14962076Y-15934447D01*
X14972229Y-15953443D01*
X14978484Y-15974062D01*
X14981200Y-16001640D01*
X14981200Y-16510360D01*
X14978484Y-16537938D01*
X14972229Y-16558557D01*
X14962076Y-16577553D01*
X14948408Y-16594208D01*
X14931753Y-16607876D01*
X14912757Y-16618029D01*
X14892138Y-16624284D01*
X14864560Y-16627000D01*
X14405840Y-16627000D01*
X14378262Y-16624284D01*
X14357643Y-16618029D01*
X14338647Y-16607876D01*
X14321992Y-16594208D01*
X14308324Y-16577553D01*
X14298171Y-16558557D01*
X14291916Y-16537938D01*
X14289200Y-16510360D01*
X14289200Y-16001640D01*
X14291916Y-15974062D01*
X14298171Y-15953443D01*
X14308324Y-15934447D01*
X14321992Y-15917792D01*
X14338647Y-15904124D01*
X14357643Y-15893971D01*
X14378262Y-15887716D01*
X14405840Y-15885000D01*
X14864560Y-15885000D01*
X14892138Y-15887716D01*
G37*
G36*
X13922138Y-15887716D02*
G01*
X13942757Y-15893971D01*
X13961753Y-15904124D01*
X13978408Y-15917792D01*
X13992076Y-15934447D01*
X14002229Y-15953443D01*
X14008484Y-15974062D01*
X14011200Y-16001640D01*
X14011200Y-16510360D01*
X14008484Y-16537938D01*
X14002229Y-16558557D01*
X13992076Y-16577553D01*
X13978408Y-16594208D01*
X13961753Y-16607876D01*
X13942757Y-16618029D01*
X13922138Y-16624284D01*
X13894560Y-16627000D01*
X13435840Y-16627000D01*
X13408262Y-16624284D01*
X13387643Y-16618029D01*
X13368647Y-16607876D01*
X13351992Y-16594208D01*
X13338324Y-16577553D01*
X13328171Y-16558557D01*
X13321916Y-16537938D01*
X13319200Y-16510360D01*
X13319200Y-16001640D01*
X13321916Y-15974062D01*
X13328171Y-15953443D01*
X13338324Y-15934447D01*
X13351992Y-15917792D01*
X13368647Y-15904124D01*
X13387643Y-15893971D01*
X13408262Y-15887716D01*
X13435840Y-15885000D01*
X13894560Y-15885000D01*
X13922138Y-15887716D01*
G37*
G36*
X-12506962Y-15846816D02*
G01*
X-12486343Y-15853071D01*
X-12467347Y-15863224D01*
X-12450692Y-15876892D01*
X-12437024Y-15893547D01*
X-12426871Y-15912543D01*
X-12420616Y-15933162D01*
X-12417900Y-15960740D01*
X-12417900Y-16419460D01*
X-12420616Y-16447038D01*
X-12426871Y-16467657D01*
X-12437024Y-16486653D01*
X-12450692Y-16503308D01*
X-12467347Y-16516976D01*
X-12486343Y-16527129D01*
X-12506962Y-16533384D01*
X-12534540Y-16536100D01*
X-13043260Y-16536100D01*
X-13070838Y-16533384D01*
X-13091457Y-16527129D01*
X-13110453Y-16516976D01*
X-13127108Y-16503308D01*
X-13140776Y-16486653D01*
X-13150929Y-16467657D01*
X-13157184Y-16447038D01*
X-13159900Y-16419460D01*
X-13159900Y-15960740D01*
X-13157184Y-15933162D01*
X-13150929Y-15912543D01*
X-13140776Y-15893547D01*
X-13127108Y-15876892D01*
X-13110453Y-15863224D01*
X-13091457Y-15853071D01*
X-13070838Y-15846816D01*
X-13043260Y-15844100D01*
X-12534540Y-15844100D01*
X-12506962Y-15846816D01*
G37*
G36*
X-10873062Y-15760716D02*
G01*
X-10852443Y-15766971D01*
X-10833447Y-15777124D01*
X-10816792Y-15790792D01*
X-10803124Y-15807447D01*
X-10792971Y-15826443D01*
X-10786716Y-15847062D01*
X-10784000Y-15874640D01*
X-10784000Y-16383360D01*
X-10786716Y-16410938D01*
X-10792971Y-16431557D01*
X-10803124Y-16450553D01*
X-10816792Y-16467208D01*
X-10833447Y-16480876D01*
X-10852443Y-16491029D01*
X-10873062Y-16497284D01*
X-10900640Y-16500000D01*
X-11359360Y-16500000D01*
X-11386938Y-16497284D01*
X-11407557Y-16491029D01*
X-11426553Y-16480876D01*
X-11443208Y-16467208D01*
X-11456876Y-16450553D01*
X-11467029Y-16431557D01*
X-11473284Y-16410938D01*
X-11476000Y-16383360D01*
X-11476000Y-15874640D01*
X-11473284Y-15847062D01*
X-11467029Y-15826443D01*
X-11456876Y-15807447D01*
X-11443208Y-15790792D01*
X-11426553Y-15777124D01*
X-11407557Y-15766971D01*
X-11386938Y-15760716D01*
X-11359360Y-15758000D01*
X-10900640Y-15758000D01*
X-10873062Y-15760716D01*
G37*
G36*
X-9903062Y-15760716D02*
G01*
X-9882443Y-15766971D01*
X-9863447Y-15777124D01*
X-9846792Y-15790792D01*
X-9833124Y-15807447D01*
X-9822971Y-15826443D01*
X-9816716Y-15847062D01*
X-9814000Y-15874640D01*
X-9814000Y-16383360D01*
X-9816716Y-16410938D01*
X-9822971Y-16431557D01*
X-9833124Y-16450553D01*
X-9846792Y-16467208D01*
X-9863447Y-16480876D01*
X-9882443Y-16491029D01*
X-9903062Y-16497284D01*
X-9930640Y-16500000D01*
X-10389360Y-16500000D01*
X-10416938Y-16497284D01*
X-10437557Y-16491029D01*
X-10456553Y-16480876D01*
X-10473208Y-16467208D01*
X-10486876Y-16450553D01*
X-10497029Y-16431557D01*
X-10503284Y-16410938D01*
X-10506000Y-16383360D01*
X-10506000Y-15874640D01*
X-10503284Y-15847062D01*
X-10497029Y-15826443D01*
X-10486876Y-15807447D01*
X-10473208Y-15790792D01*
X-10456553Y-15777124D01*
X-10437557Y-15766971D01*
X-10416938Y-15760716D01*
X-10389360Y-15758000D01*
X-9930640Y-15758000D01*
X-9903062Y-15760716D01*
G37*
G36*
X7770538Y-15633716D02*
G01*
X7791157Y-15639971D01*
X7810153Y-15650124D01*
X7826808Y-15663792D01*
X7840476Y-15680447D01*
X7850629Y-15699443D01*
X7856884Y-15720062D01*
X7859600Y-15747640D01*
X7859600Y-16256360D01*
X7856884Y-16283938D01*
X7850629Y-16304557D01*
X7840476Y-16323553D01*
X7826808Y-16340208D01*
X7810153Y-16353876D01*
X7791157Y-16364029D01*
X7770538Y-16370284D01*
X7742960Y-16373000D01*
X7284240Y-16373000D01*
X7256662Y-16370284D01*
X7236043Y-16364029D01*
X7217047Y-16353876D01*
X7200392Y-16340208D01*
X7186724Y-16323553D01*
X7176571Y-16304557D01*
X7170316Y-16283938D01*
X7167600Y-16256360D01*
X7167600Y-15747640D01*
X7170316Y-15720062D01*
X7176571Y-15699443D01*
X7186724Y-15680447D01*
X7200392Y-15663792D01*
X7217047Y-15650124D01*
X7236043Y-15639971D01*
X7256662Y-15633716D01*
X7284240Y-15631000D01*
X7742960Y-15631000D01*
X7770538Y-15633716D01*
G37*
G36*
X8740538Y-15633716D02*
G01*
X8761157Y-15639971D01*
X8780153Y-15650124D01*
X8796808Y-15663792D01*
X8810476Y-15680447D01*
X8820629Y-15699443D01*
X8826884Y-15720062D01*
X8829600Y-15747640D01*
X8829600Y-16256360D01*
X8826884Y-16283938D01*
X8820629Y-16304557D01*
X8810476Y-16323553D01*
X8796808Y-16340208D01*
X8780153Y-16353876D01*
X8761157Y-16364029D01*
X8740538Y-16370284D01*
X8712960Y-16373000D01*
X8254240Y-16373000D01*
X8226662Y-16370284D01*
X8206043Y-16364029D01*
X8187047Y-16353876D01*
X8170392Y-16340208D01*
X8156724Y-16323553D01*
X8146571Y-16304557D01*
X8140316Y-16283938D01*
X8137600Y-16256360D01*
X8137600Y-15747640D01*
X8140316Y-15720062D01*
X8146571Y-15699443D01*
X8156724Y-15680447D01*
X8170392Y-15663792D01*
X8187047Y-15650124D01*
X8206043Y-15639971D01*
X8226662Y-15633716D01*
X8254240Y-15631000D01*
X8712960Y-15631000D01*
X8740538Y-15633716D01*
G37*
G36*
X-14538962Y-14825316D02*
G01*
X-14518343Y-14831571D01*
X-14499347Y-14841724D01*
X-14482692Y-14855392D01*
X-14469024Y-14872047D01*
X-14458871Y-14891043D01*
X-14452616Y-14911662D01*
X-14449900Y-14939240D01*
X-14449900Y-15397960D01*
X-14452616Y-15425538D01*
X-14458871Y-15446157D01*
X-14469024Y-15465153D01*
X-14482692Y-15481808D01*
X-14499347Y-15495476D01*
X-14518343Y-15505629D01*
X-14538962Y-15511884D01*
X-14566540Y-15514600D01*
X-15075260Y-15514600D01*
X-15102838Y-15511884D01*
X-15123457Y-15505629D01*
X-15142453Y-15495476D01*
X-15159108Y-15481808D01*
X-15172776Y-15465153D01*
X-15182929Y-15446157D01*
X-15189184Y-15425538D01*
X-15191900Y-15397960D01*
X-15191900Y-14939240D01*
X-15189184Y-14911662D01*
X-15182929Y-14891043D01*
X-15172776Y-14872047D01*
X-15159108Y-14855392D01*
X-15142453Y-14841724D01*
X-15123457Y-14831571D01*
X-15102838Y-14825316D01*
X-15075260Y-14822600D01*
X-14566540Y-14822600D01*
X-14538962Y-14825316D01*
G37*
G36*
X-7590400Y-8748101D02*
G01*
X-7587998Y-8772487D01*
X-7580885Y-8795936D01*
X-7569334Y-8817547D01*
X-7553789Y-8836489D01*
X-7534847Y-8852034D01*
X-7513236Y-8863585D01*
X-7489787Y-8870698D01*
X-7465401Y-8873100D01*
X-6940400Y-8873100D01*
X-6940400Y-14825100D01*
X-7465401Y-14825100D01*
X-7489787Y-14827502D01*
X-7513236Y-14834615D01*
X-7534847Y-14846166D01*
X-7553789Y-14861711D01*
X-7569334Y-14880653D01*
X-7580885Y-14902264D01*
X-7587998Y-14925713D01*
X-7590400Y-14950099D01*
X-7590400Y-15475100D01*
X-13542400Y-15475100D01*
X-13542400Y-14950099D01*
X-13544802Y-14925713D01*
X-13551915Y-14902264D01*
X-13563466Y-14880653D01*
X-13579011Y-14861711D01*
X-13597953Y-14846166D01*
X-13619564Y-14834615D01*
X-13643013Y-14827502D01*
X-13667399Y-14825100D01*
X-14192400Y-14825100D01*
X-14192400Y-8873100D01*
X-13667399Y-8873100D01*
X-13643013Y-8870698D01*
X-13619564Y-8863585D01*
X-13597953Y-8852034D01*
X-13579011Y-8836489D01*
X-13563466Y-8817547D01*
X-13551915Y-8795936D01*
X-13544802Y-8772487D01*
X-13542400Y-8748101D01*
X-13542400Y-8223100D01*
X-7590400Y-8223100D01*
X-7590400Y-8748101D01*
G37*
G36*
X11813938Y-14236716D02*
G01*
X11834557Y-14242971D01*
X11853553Y-14253124D01*
X11870208Y-14266792D01*
X11883876Y-14283447D01*
X11894029Y-14302443D01*
X11900284Y-14323062D01*
X11903000Y-14350640D01*
X11903000Y-14859360D01*
X11900284Y-14886938D01*
X11894029Y-14907557D01*
X11883876Y-14926553D01*
X11870208Y-14943208D01*
X11853553Y-14956876D01*
X11834557Y-14967029D01*
X11813938Y-14973284D01*
X11786360Y-14976000D01*
X11327640Y-14976000D01*
X11300062Y-14973284D01*
X11279443Y-14967029D01*
X11260447Y-14956876D01*
X11243792Y-14943208D01*
X11230124Y-14926553D01*
X11219971Y-14907557D01*
X11213716Y-14886938D01*
X11211000Y-14859360D01*
X11211000Y-14350640D01*
X11213716Y-14323062D01*
X11219971Y-14302443D01*
X11230124Y-14283447D01*
X11243792Y-14266792D01*
X11260447Y-14253124D01*
X11279443Y-14242971D01*
X11300062Y-14236716D01*
X11327640Y-14234000D01*
X11786360Y-14234000D01*
X11813938Y-14236716D01*
G37*
G36*
X10843938Y-14236716D02*
G01*
X10864557Y-14242971D01*
X10883553Y-14253124D01*
X10900208Y-14266792D01*
X10913876Y-14283447D01*
X10924029Y-14302443D01*
X10930284Y-14323062D01*
X10933000Y-14350640D01*
X10933000Y-14859360D01*
X10930284Y-14886938D01*
X10924029Y-14907557D01*
X10913876Y-14926553D01*
X10900208Y-14943208D01*
X10883553Y-14956876D01*
X10864557Y-14967029D01*
X10843938Y-14973284D01*
X10816360Y-14976000D01*
X10357640Y-14976000D01*
X10330062Y-14973284D01*
X10309443Y-14967029D01*
X10290447Y-14956876D01*
X10273792Y-14943208D01*
X10260124Y-14926553D01*
X10249971Y-14907557D01*
X10243716Y-14886938D01*
X10241000Y-14859360D01*
X10241000Y-14350640D01*
X10243716Y-14323062D01*
X10249971Y-14302443D01*
X10260124Y-14283447D01*
X10273792Y-14266792D01*
X10290447Y-14253124D01*
X10309443Y-14242971D01*
X10330062Y-14236716D01*
X10357640Y-14234000D01*
X10816360Y-14234000D01*
X10843938Y-14236716D01*
G37*
G36*
X-14538962Y-13855316D02*
G01*
X-14518343Y-13861571D01*
X-14499347Y-13871724D01*
X-14482692Y-13885392D01*
X-14469024Y-13902047D01*
X-14458871Y-13921043D01*
X-14452616Y-13941662D01*
X-14449900Y-13969240D01*
X-14449900Y-14427960D01*
X-14452616Y-14455538D01*
X-14458871Y-14476157D01*
X-14469024Y-14495153D01*
X-14482692Y-14511808D01*
X-14499347Y-14525476D01*
X-14518343Y-14535629D01*
X-14538962Y-14541884D01*
X-14566540Y-14544600D01*
X-15075260Y-14544600D01*
X-15102838Y-14541884D01*
X-15123457Y-14535629D01*
X-15142453Y-14525476D01*
X-15159108Y-14511808D01*
X-15172776Y-14495153D01*
X-15182929Y-14476157D01*
X-15189184Y-14455538D01*
X-15191900Y-14427960D01*
X-15191900Y-13969240D01*
X-15189184Y-13941662D01*
X-15182929Y-13921043D01*
X-15172776Y-13902047D01*
X-15159108Y-13885392D01*
X-15142453Y-13871724D01*
X-15123457Y-13861571D01*
X-15102838Y-13855316D01*
X-15075260Y-13852600D01*
X-14566540Y-13852600D01*
X-14538962Y-13855316D01*
G37*
G36*
X-6031962Y-11861816D02*
G01*
X-6011343Y-11868071D01*
X-5992347Y-11878224D01*
X-5975692Y-11891892D01*
X-5962024Y-11908547D01*
X-5951871Y-11927543D01*
X-5945616Y-11948162D01*
X-5942900Y-11975740D01*
X-5942900Y-12484460D01*
X-5945616Y-12512038D01*
X-5951871Y-12532657D01*
X-5962024Y-12551653D01*
X-5975692Y-12568308D01*
X-5992347Y-12581976D01*
X-6011343Y-12592129D01*
X-6031962Y-12598384D01*
X-6059540Y-12601100D01*
X-6518260Y-12601100D01*
X-6545838Y-12598384D01*
X-6566457Y-12592129D01*
X-6585453Y-12581976D01*
X-6602108Y-12568308D01*
X-6615776Y-12551653D01*
X-6625929Y-12532657D01*
X-6632184Y-12512038D01*
X-6634900Y-12484460D01*
X-6634900Y-11975740D01*
X-6632184Y-11948162D01*
X-6625929Y-11927543D01*
X-6615776Y-11908547D01*
X-6602108Y-11891892D01*
X-6585453Y-11878224D01*
X-6566457Y-11868071D01*
X-6545838Y-11861816D01*
X-6518260Y-11859100D01*
X-6059540Y-11859100D01*
X-6031962Y-11861816D01*
G37*
G36*
X-5061962Y-11861816D02*
G01*
X-5041343Y-11868071D01*
X-5022347Y-11878224D01*
X-5005692Y-11891892D01*
X-4992024Y-11908547D01*
X-4981871Y-11927543D01*
X-4975616Y-11948162D01*
X-4972900Y-11975740D01*
X-4972900Y-12484460D01*
X-4975616Y-12512038D01*
X-4981871Y-12532657D01*
X-4992024Y-12551653D01*
X-5005692Y-12568308D01*
X-5022347Y-12581976D01*
X-5041343Y-12592129D01*
X-5061962Y-12598384D01*
X-5089540Y-12601100D01*
X-5548260Y-12601100D01*
X-5575838Y-12598384D01*
X-5596457Y-12592129D01*
X-5615453Y-12581976D01*
X-5632108Y-12568308D01*
X-5645776Y-12551653D01*
X-5655929Y-12532657D01*
X-5662184Y-12512038D01*
X-5664900Y-12484460D01*
X-5664900Y-11975740D01*
X-5662184Y-11948162D01*
X-5655929Y-11927543D01*
X-5645776Y-11908547D01*
X-5632108Y-11891892D01*
X-5615453Y-11878224D01*
X-5596457Y-11868071D01*
X-5575838Y-11861816D01*
X-5548260Y-11859100D01*
X-5089540Y-11859100D01*
X-5061962Y-11861816D01*
G37*
G36*
X-17650462Y-11061316D02*
G01*
X-17629843Y-11067571D01*
X-17610847Y-11077724D01*
X-17594192Y-11091392D01*
X-17580524Y-11108047D01*
X-17570371Y-11127043D01*
X-17564116Y-11147662D01*
X-17561400Y-11175240D01*
X-17561400Y-11633960D01*
X-17564116Y-11661538D01*
X-17570371Y-11682157D01*
X-17580524Y-11701153D01*
X-17594192Y-11717808D01*
X-17610847Y-11731476D01*
X-17629843Y-11741629D01*
X-17650462Y-11747884D01*
X-17678040Y-11750600D01*
X-18186760Y-11750600D01*
X-18214338Y-11747884D01*
X-18234957Y-11741629D01*
X-18253953Y-11731476D01*
X-18270608Y-11717808D01*
X-18284274Y-11701154D01*
X-18300167Y-11671423D01*
X-18313781Y-11651049D01*
X-18331109Y-11633722D01*
X-18351484Y-11620109D01*
X-18374123Y-11610732D01*
X-18398156Y-11605953D01*
X-18422660Y-11605953D01*
X-18446693Y-11610734D01*
X-18469332Y-11620112D01*
X-18489706Y-11633726D01*
X-18507033Y-11651054D01*
X-18520646Y-11671429D01*
X-18530022Y-11694066D01*
X-18535570Y-11712356D01*
X-18545724Y-11731353D01*
X-18559392Y-11748008D01*
X-18576047Y-11761676D01*
X-18595043Y-11771829D01*
X-18615662Y-11778084D01*
X-18643240Y-11780800D01*
X-19151960Y-11780800D01*
X-19179538Y-11778084D01*
X-19200157Y-11771829D01*
X-19219153Y-11761676D01*
X-19235808Y-11748008D01*
X-19249476Y-11731353D01*
X-19259630Y-11712356D01*
X-19260583Y-11709214D01*
X-19269960Y-11686575D01*
X-19283574Y-11666200D01*
X-19300901Y-11648873D01*
X-19321275Y-11635259D01*
X-19343914Y-11625882D01*
X-19367947Y-11621101D01*
X-19392451Y-11621101D01*
X-19416484Y-11625881D01*
X-19439123Y-11635258D01*
X-19459498Y-11648872D01*
X-19476825Y-11666199D01*
X-19490439Y-11686573D01*
X-19499817Y-11709214D01*
X-19500770Y-11712356D01*
X-19510924Y-11731353D01*
X-19524592Y-11748008D01*
X-19541247Y-11761676D01*
X-19560243Y-11771829D01*
X-19580862Y-11778084D01*
X-19608440Y-11780800D01*
X-20117160Y-11780800D01*
X-20144738Y-11778084D01*
X-20165357Y-11771829D01*
X-20184353Y-11761676D01*
X-20201008Y-11748008D01*
X-20214676Y-11731353D01*
X-20224830Y-11712356D01*
X-20226147Y-11708014D01*
X-20235524Y-11685375D01*
X-20249138Y-11665000D01*
X-20266465Y-11647673D01*
X-20286839Y-11634059D01*
X-20309478Y-11624682D01*
X-20333511Y-11619901D01*
X-20358015Y-11619901D01*
X-20382048Y-11624681D01*
X-20404687Y-11634058D01*
X-20425062Y-11647672D01*
X-20442389Y-11664999D01*
X-20456003Y-11685373D01*
X-20465381Y-11708014D01*
X-20465970Y-11709956D01*
X-20476124Y-11728953D01*
X-20489792Y-11745608D01*
X-20506447Y-11759276D01*
X-20525443Y-11769429D01*
X-20546062Y-11775684D01*
X-20573640Y-11778400D01*
X-21082360Y-11778400D01*
X-21109938Y-11775684D01*
X-21130557Y-11769429D01*
X-21149553Y-11759276D01*
X-21166208Y-11745608D01*
X-21179876Y-11728953D01*
X-21190029Y-11709957D01*
X-21196284Y-11689338D01*
X-21199000Y-11661760D01*
X-21199000Y-11203040D01*
X-21196284Y-11175462D01*
X-21190029Y-11154843D01*
X-21179876Y-11135847D01*
X-21166208Y-11119192D01*
X-21149553Y-11105524D01*
X-21130557Y-11095371D01*
X-21109938Y-11089116D01*
X-21082360Y-11086400D01*
X-20573640Y-11086400D01*
X-20546062Y-11089116D01*
X-20525443Y-11095371D01*
X-20506447Y-11105524D01*
X-20489792Y-11119192D01*
X-20476124Y-11135847D01*
X-20465970Y-11154844D01*
X-20464653Y-11159186D01*
X-20455276Y-11181825D01*
X-20441662Y-11202200D01*
X-20424335Y-11219527D01*
X-20403961Y-11233141D01*
X-20381322Y-11242518D01*
X-20357289Y-11247299D01*
X-20332785Y-11247299D01*
X-20308752Y-11242519D01*
X-20286113Y-11233142D01*
X-20265738Y-11219528D01*
X-20248411Y-11202201D01*
X-20234797Y-11181827D01*
X-20225419Y-11159186D01*
X-20224830Y-11157244D01*
X-20214676Y-11138247D01*
X-20201008Y-11121592D01*
X-20184353Y-11107924D01*
X-20165357Y-11097771D01*
X-20144738Y-11091516D01*
X-20117160Y-11088800D01*
X-19608440Y-11088800D01*
X-19580862Y-11091516D01*
X-19560243Y-11097771D01*
X-19541247Y-11107924D01*
X-19524592Y-11121592D01*
X-19510924Y-11138247D01*
X-19500770Y-11157244D01*
X-19499817Y-11160386D01*
X-19490440Y-11183025D01*
X-19476826Y-11203400D01*
X-19459499Y-11220727D01*
X-19439125Y-11234341D01*
X-19416486Y-11243718D01*
X-19392453Y-11248499D01*
X-19367949Y-11248499D01*
X-19343916Y-11243719D01*
X-19321277Y-11234342D01*
X-19300902Y-11220728D01*
X-19283575Y-11203401D01*
X-19269961Y-11183027D01*
X-19260583Y-11160386D01*
X-19259630Y-11157244D01*
X-19249476Y-11138247D01*
X-19235808Y-11121592D01*
X-19219153Y-11107924D01*
X-19200157Y-11097771D01*
X-19179538Y-11091516D01*
X-19151960Y-11088800D01*
X-18643240Y-11088800D01*
X-18615662Y-11091516D01*
X-18595043Y-11097771D01*
X-18576047Y-11107924D01*
X-18559392Y-11121592D01*
X-18545726Y-11138246D01*
X-18529833Y-11167977D01*
X-18516219Y-11188351D01*
X-18498891Y-11205678D01*
X-18478516Y-11219291D01*
X-18455877Y-11228668D01*
X-18431844Y-11233447D01*
X-18407340Y-11233447D01*
X-18383307Y-11228666D01*
X-18360668Y-11219288D01*
X-18340294Y-11205674D01*
X-18322967Y-11188346D01*
X-18309354Y-11167971D01*
X-18299978Y-11145334D01*
X-18294430Y-11127044D01*
X-18284276Y-11108047D01*
X-18270608Y-11091392D01*
X-18253953Y-11077724D01*
X-18234957Y-11067571D01*
X-18214338Y-11061316D01*
X-18186760Y-11058600D01*
X-17678040Y-11058600D01*
X-17650462Y-11061316D01*
G37*
G36*
X17979487Y-8348996D02*
G01*
X18216253Y-8447068D01*
X18216255Y-8447069D01*
X18429339Y-8589447D01*
X18610553Y-8770661D01*
X18731052Y-8951000D01*
X18752932Y-8983747D01*
X18851004Y-9220513D01*
X18901000Y-9471861D01*
X18901000Y-9728139D01*
X18851004Y-9979487D01*
X18760502Y-10197977D01*
X18752931Y-10216255D01*
X18610553Y-10429339D01*
X18429339Y-10610553D01*
X18216255Y-10752931D01*
X18216254Y-10752932D01*
X18216253Y-10752932D01*
X17979487Y-10851004D01*
X17728139Y-10901000D01*
X17471861Y-10901000D01*
X17220513Y-10851004D01*
X16983747Y-10752932D01*
X16983746Y-10752932D01*
X16983745Y-10752931D01*
X16770661Y-10610553D01*
X16589447Y-10429339D01*
X16447069Y-10216255D01*
X16439498Y-10197977D01*
X16348996Y-9979487D01*
X16299000Y-9728139D01*
X16299000Y-9471861D01*
X16348996Y-9220513D01*
X16447068Y-8983747D01*
X16468949Y-8951000D01*
X16589447Y-8770661D01*
X16770661Y-8589447D01*
X16983745Y-8447069D01*
X16983747Y-8447068D01*
X17220513Y-8348996D01*
X17471861Y-8299000D01*
X17728139Y-8299000D01*
X17979487Y-8348996D01*
G37*
G36*
X5979487Y-8348996D02*
G01*
X6216253Y-8447068D01*
X6216255Y-8447069D01*
X6429339Y-8589447D01*
X6610553Y-8770661D01*
X6731052Y-8951000D01*
X6752932Y-8983747D01*
X6851004Y-9220513D01*
X6901000Y-9471861D01*
X6901000Y-9728139D01*
X6851004Y-9979487D01*
X6760502Y-10197977D01*
X6752931Y-10216255D01*
X6610553Y-10429339D01*
X6429339Y-10610553D01*
X6216255Y-10752931D01*
X6216254Y-10752932D01*
X6216253Y-10752932D01*
X5979487Y-10851004D01*
X5728139Y-10901000D01*
X5471861Y-10901000D01*
X5220513Y-10851004D01*
X4983747Y-10752932D01*
X4983746Y-10752932D01*
X4983745Y-10752931D01*
X4770661Y-10610553D01*
X4589447Y-10429339D01*
X4447069Y-10216255D01*
X4439498Y-10197977D01*
X4348996Y-9979487D01*
X4299000Y-9728139D01*
X4299000Y-9471861D01*
X4348996Y-9220513D01*
X4447068Y-8983747D01*
X4468949Y-8951000D01*
X4589447Y-8770661D01*
X4770661Y-8589447D01*
X4983745Y-8447069D01*
X4983747Y-8447068D01*
X5220513Y-8348996D01*
X5471861Y-8299000D01*
X5728139Y-8299000D01*
X5979487Y-8348996D01*
G37*
G36*
X-17650462Y-10091316D02*
G01*
X-17629843Y-10097571D01*
X-17610847Y-10107724D01*
X-17594192Y-10121392D01*
X-17580524Y-10138047D01*
X-17570371Y-10157043D01*
X-17564116Y-10177662D01*
X-17561400Y-10205240D01*
X-17561400Y-10663960D01*
X-17564116Y-10691538D01*
X-17570371Y-10712157D01*
X-17580524Y-10731153D01*
X-17594192Y-10747808D01*
X-17610847Y-10761476D01*
X-17629843Y-10771629D01*
X-17650462Y-10777884D01*
X-17678040Y-10780600D01*
X-18186760Y-10780600D01*
X-18214338Y-10777884D01*
X-18234957Y-10771629D01*
X-18253953Y-10761476D01*
X-18270608Y-10747808D01*
X-18284274Y-10731154D01*
X-18300167Y-10701423D01*
X-18313781Y-10681049D01*
X-18331109Y-10663722D01*
X-18351484Y-10650109D01*
X-18374123Y-10640732D01*
X-18398156Y-10635953D01*
X-18422660Y-10635953D01*
X-18446693Y-10640734D01*
X-18469332Y-10650112D01*
X-18489706Y-10663726D01*
X-18507033Y-10681054D01*
X-18520646Y-10701429D01*
X-18530022Y-10724066D01*
X-18535570Y-10742356D01*
X-18545724Y-10761353D01*
X-18559392Y-10778008D01*
X-18576047Y-10791676D01*
X-18595043Y-10801829D01*
X-18615662Y-10808084D01*
X-18643240Y-10810800D01*
X-19151960Y-10810800D01*
X-19179538Y-10808084D01*
X-19200157Y-10801829D01*
X-19219153Y-10791676D01*
X-19235808Y-10778008D01*
X-19249476Y-10761353D01*
X-19259630Y-10742356D01*
X-19260583Y-10739214D01*
X-19269960Y-10716575D01*
X-19283574Y-10696200D01*
X-19300901Y-10678873D01*
X-19321275Y-10665259D01*
X-19343914Y-10655882D01*
X-19367947Y-10651101D01*
X-19392451Y-10651101D01*
X-19416484Y-10655881D01*
X-19439123Y-10665258D01*
X-19459498Y-10678872D01*
X-19476825Y-10696199D01*
X-19490439Y-10716573D01*
X-19499817Y-10739214D01*
X-19500770Y-10742356D01*
X-19510924Y-10761353D01*
X-19524592Y-10778008D01*
X-19541247Y-10791676D01*
X-19560243Y-10801829D01*
X-19580862Y-10808084D01*
X-19608440Y-10810800D01*
X-20117160Y-10810800D01*
X-20144738Y-10808084D01*
X-20165357Y-10801829D01*
X-20184353Y-10791676D01*
X-20201008Y-10778008D01*
X-20214676Y-10761353D01*
X-20224830Y-10742356D01*
X-20226147Y-10738014D01*
X-20235524Y-10715375D01*
X-20249138Y-10695000D01*
X-20266465Y-10677673D01*
X-20286839Y-10664059D01*
X-20309478Y-10654682D01*
X-20333511Y-10649901D01*
X-20358015Y-10649901D01*
X-20382048Y-10654681D01*
X-20404687Y-10664058D01*
X-20425062Y-10677672D01*
X-20442389Y-10694999D01*
X-20456003Y-10715373D01*
X-20465381Y-10738014D01*
X-20465970Y-10739956D01*
X-20476124Y-10758953D01*
X-20489792Y-10775608D01*
X-20506447Y-10789276D01*
X-20525443Y-10799429D01*
X-20546062Y-10805684D01*
X-20573640Y-10808400D01*
X-21082360Y-10808400D01*
X-21109938Y-10805684D01*
X-21130557Y-10799429D01*
X-21149553Y-10789276D01*
X-21166208Y-10775608D01*
X-21179876Y-10758953D01*
X-21190029Y-10739957D01*
X-21196284Y-10719338D01*
X-21199000Y-10691760D01*
X-21199000Y-10233040D01*
X-21196284Y-10205462D01*
X-21190029Y-10184843D01*
X-21179876Y-10165847D01*
X-21166208Y-10149192D01*
X-21149553Y-10135524D01*
X-21130557Y-10125371D01*
X-21109938Y-10119116D01*
X-21082360Y-10116400D01*
X-20573640Y-10116400D01*
X-20546062Y-10119116D01*
X-20525443Y-10125371D01*
X-20506447Y-10135524D01*
X-20489792Y-10149192D01*
X-20476124Y-10165847D01*
X-20465970Y-10184844D01*
X-20464653Y-10189186D01*
X-20455276Y-10211825D01*
X-20441662Y-10232200D01*
X-20424335Y-10249527D01*
X-20403961Y-10263141D01*
X-20381322Y-10272518D01*
X-20357289Y-10277299D01*
X-20332785Y-10277299D01*
X-20308752Y-10272519D01*
X-20286113Y-10263142D01*
X-20265738Y-10249528D01*
X-20248411Y-10232201D01*
X-20234797Y-10211827D01*
X-20225419Y-10189186D01*
X-20224830Y-10187244D01*
X-20214676Y-10168247D01*
X-20201008Y-10151592D01*
X-20184353Y-10137924D01*
X-20165357Y-10127771D01*
X-20144738Y-10121516D01*
X-20117160Y-10118800D01*
X-19608440Y-10118800D01*
X-19580862Y-10121516D01*
X-19560243Y-10127771D01*
X-19541247Y-10137924D01*
X-19524592Y-10151592D01*
X-19510924Y-10168247D01*
X-19500770Y-10187244D01*
X-19499817Y-10190386D01*
X-19490440Y-10213025D01*
X-19476826Y-10233400D01*
X-19459499Y-10250727D01*
X-19439125Y-10264341D01*
X-19416486Y-10273718D01*
X-19392453Y-10278499D01*
X-19367949Y-10278499D01*
X-19343916Y-10273719D01*
X-19321277Y-10264342D01*
X-19300902Y-10250728D01*
X-19283575Y-10233401D01*
X-19269961Y-10213027D01*
X-19260583Y-10190386D01*
X-19259630Y-10187244D01*
X-19249476Y-10168247D01*
X-19235808Y-10151592D01*
X-19219153Y-10137924D01*
X-19200157Y-10127771D01*
X-19179538Y-10121516D01*
X-19151960Y-10118800D01*
X-18643240Y-10118800D01*
X-18615662Y-10121516D01*
X-18595043Y-10127771D01*
X-18576047Y-10137924D01*
X-18559392Y-10151592D01*
X-18545726Y-10168246D01*
X-18529833Y-10197977D01*
X-18516219Y-10218351D01*
X-18498891Y-10235678D01*
X-18478516Y-10249291D01*
X-18455877Y-10258668D01*
X-18431844Y-10263447D01*
X-18407340Y-10263447D01*
X-18383307Y-10258666D01*
X-18360668Y-10249288D01*
X-18340294Y-10235674D01*
X-18322967Y-10218346D01*
X-18309354Y-10197971D01*
X-18299978Y-10175334D01*
X-18294430Y-10157044D01*
X-18284276Y-10138047D01*
X-18270608Y-10121392D01*
X-18253953Y-10107724D01*
X-18234957Y-10097571D01*
X-18214338Y-10091316D01*
X-18186760Y-10088600D01*
X-17678040Y-10088600D01*
X-17650462Y-10091316D01*
G37*
G36*
X-5038962Y-9194816D02*
G01*
X-5018343Y-9201071D01*
X-4999347Y-9211224D01*
X-4982692Y-9224892D01*
X-4969024Y-9241547D01*
X-4958871Y-9260543D01*
X-4952616Y-9281162D01*
X-4949900Y-9308740D01*
X-4949900Y-9817460D01*
X-4952616Y-9845038D01*
X-4958871Y-9865657D01*
X-4969024Y-9884653D01*
X-4982692Y-9901308D01*
X-4999347Y-9914976D01*
X-5018343Y-9925129D01*
X-5038962Y-9931384D01*
X-5066540Y-9934100D01*
X-5525260Y-9934100D01*
X-5552838Y-9931384D01*
X-5573457Y-9925129D01*
X-5592453Y-9914976D01*
X-5609108Y-9901308D01*
X-5622776Y-9884653D01*
X-5632929Y-9865657D01*
X-5639184Y-9845038D01*
X-5641900Y-9817460D01*
X-5641900Y-9308740D01*
X-5639184Y-9281162D01*
X-5632929Y-9260543D01*
X-5622776Y-9241547D01*
X-5609108Y-9224892D01*
X-5592453Y-9211224D01*
X-5573457Y-9201071D01*
X-5552838Y-9194816D01*
X-5525260Y-9192100D01*
X-5066540Y-9192100D01*
X-5038962Y-9194816D01*
G37*
G36*
X-6008962Y-9194816D02*
G01*
X-5988343Y-9201071D01*
X-5969347Y-9211224D01*
X-5952692Y-9224892D01*
X-5939024Y-9241547D01*
X-5928871Y-9260543D01*
X-5922616Y-9281162D01*
X-5919900Y-9308740D01*
X-5919900Y-9817460D01*
X-5922616Y-9845038D01*
X-5928871Y-9865657D01*
X-5939024Y-9884653D01*
X-5952692Y-9901308D01*
X-5969347Y-9914976D01*
X-5988343Y-9925129D01*
X-6008962Y-9931384D01*
X-6036540Y-9934100D01*
X-6495260Y-9934100D01*
X-6522838Y-9931384D01*
X-6543457Y-9925129D01*
X-6562453Y-9914976D01*
X-6579108Y-9901308D01*
X-6592776Y-9884653D01*
X-6602929Y-9865657D01*
X-6609184Y-9845038D01*
X-6611900Y-9817460D01*
X-6611900Y-9308740D01*
X-6609184Y-9281162D01*
X-6602929Y-9260543D01*
X-6592776Y-9241547D01*
X-6579108Y-9224892D01*
X-6562453Y-9211224D01*
X-6543457Y-9201071D01*
X-6522838Y-9194816D01*
X-6495260Y-9192100D01*
X-6036540Y-9192100D01*
X-6008962Y-9194816D01*
G37*
G36*
X-18496000Y-9500500D02*
G01*
X-19148000Y-9500500D01*
X-19148000Y-7898500D01*
X-18496000Y-7898500D01*
X-18496000Y-9500500D01*
G37*
G36*
X-21746000Y-9500500D02*
G01*
X-22398000Y-9500500D01*
X-22398000Y-7898500D01*
X-21746000Y-7898500D01*
X-21746000Y-9500500D01*
G37*
G36*
X9850721Y-7870174D02*
G01*
X9950995Y-7911709D01*
X9950996Y-7911710D01*
X10041242Y-7972010D01*
X10117990Y-8048758D01*
X10117991Y-8048760D01*
X10178291Y-8139005D01*
X10209516Y-8214389D01*
X10221067Y-8236000D01*
X10236612Y-8254941D01*
X10255554Y-8270487D01*
X10277165Y-8282038D01*
X10300614Y-8289151D01*
X10325000Y-8291553D01*
X10349386Y-8289151D01*
X10372835Y-8282038D01*
X10394446Y-8270487D01*
X10413387Y-8254942D01*
X10428933Y-8236000D01*
X10440484Y-8214389D01*
X10471709Y-8139005D01*
X10532009Y-8048760D01*
X10532010Y-8048758D01*
X10608758Y-7972010D01*
X10699004Y-7911710D01*
X10699005Y-7911709D01*
X10799279Y-7870174D01*
X10905730Y-7849000D01*
X11014270Y-7849000D01*
X11120721Y-7870174D01*
X11220995Y-7911709D01*
X11220996Y-7911710D01*
X11311242Y-7972010D01*
X11387990Y-8048758D01*
X11387991Y-8048760D01*
X11448291Y-8139005D01*
X11479516Y-8214389D01*
X11491067Y-8236000D01*
X11506612Y-8254941D01*
X11525554Y-8270487D01*
X11547165Y-8282038D01*
X11570614Y-8289151D01*
X11595000Y-8291553D01*
X11619386Y-8289151D01*
X11642835Y-8282038D01*
X11664446Y-8270487D01*
X11683387Y-8254942D01*
X11698933Y-8236000D01*
X11710484Y-8214389D01*
X11741709Y-8139005D01*
X11802009Y-8048760D01*
X11802010Y-8048758D01*
X11878758Y-7972010D01*
X11969004Y-7911710D01*
X11969005Y-7911709D01*
X12069279Y-7870174D01*
X12175730Y-7849000D01*
X12284270Y-7849000D01*
X12390721Y-7870174D01*
X12490995Y-7911709D01*
X12490996Y-7911710D01*
X12581242Y-7972010D01*
X12657990Y-8048758D01*
X12657991Y-8048760D01*
X12720068Y-8141664D01*
X12735614Y-8160606D01*
X12754556Y-8176151D01*
X12776167Y-8187702D01*
X12799615Y-8194815D01*
X12824002Y-8197217D01*
X12848388Y-8194815D01*
X12871837Y-8187702D01*
X12893447Y-8176151D01*
X12912389Y-8160605D01*
X12927934Y-8141663D01*
X12939485Y-8120052D01*
X12946598Y-8096604D01*
X12949000Y-8072218D01*
X12949000Y-7849000D01*
X14051000Y-7849000D01*
X14051000Y-8951000D01*
X12949000Y-8951000D01*
X12949000Y-8727782D01*
X12946598Y-8703396D01*
X12939485Y-8679947D01*
X12927934Y-8658336D01*
X12912389Y-8639394D01*
X12893447Y-8623849D01*
X12871836Y-8612298D01*
X12848387Y-8605185D01*
X12824001Y-8602783D01*
X12799615Y-8605185D01*
X12776166Y-8612298D01*
X12754555Y-8623849D01*
X12735613Y-8639394D01*
X12720068Y-8658336D01*
X12678988Y-8719816D01*
X12657990Y-8751242D01*
X12581242Y-8827990D01*
X12568522Y-8836489D01*
X12490995Y-8888291D01*
X12390721Y-8929826D01*
X12284270Y-8951000D01*
X12175730Y-8951000D01*
X12069279Y-8929826D01*
X11969005Y-8888291D01*
X11891478Y-8836489D01*
X11878758Y-8827990D01*
X11802010Y-8751242D01*
X11770041Y-8703396D01*
X11741709Y-8660995D01*
X11710484Y-8585611D01*
X11698933Y-8564000D01*
X11683388Y-8545059D01*
X11664446Y-8529513D01*
X11642835Y-8517962D01*
X11619386Y-8510849D01*
X11595000Y-8508447D01*
X11570614Y-8510849D01*
X11547165Y-8517962D01*
X11525554Y-8529513D01*
X11506613Y-8545058D01*
X11491067Y-8564000D01*
X11479516Y-8585611D01*
X11448291Y-8660995D01*
X11419959Y-8703396D01*
X11387990Y-8751242D01*
X11311242Y-8827990D01*
X11298522Y-8836489D01*
X11220995Y-8888291D01*
X11120721Y-8929826D01*
X11014270Y-8951000D01*
X10905730Y-8951000D01*
X10799279Y-8929826D01*
X10699005Y-8888291D01*
X10621478Y-8836489D01*
X10608758Y-8827990D01*
X10532010Y-8751242D01*
X10500041Y-8703396D01*
X10471709Y-8660995D01*
X10440484Y-8585611D01*
X10428933Y-8564000D01*
X10413388Y-8545059D01*
X10394446Y-8529513D01*
X10372835Y-8517962D01*
X10349386Y-8510849D01*
X10325000Y-8508447D01*
X10300614Y-8510849D01*
X10277165Y-8517962D01*
X10255554Y-8529513D01*
X10236613Y-8545058D01*
X10221067Y-8564000D01*
X10209516Y-8585611D01*
X10178291Y-8660995D01*
X10149959Y-8703396D01*
X10117990Y-8751242D01*
X10041242Y-8827990D01*
X10028522Y-8836489D01*
X9950995Y-8888291D01*
X9850721Y-8929826D01*
X9744270Y-8951000D01*
X9635730Y-8951000D01*
X9529279Y-8929826D01*
X9429005Y-8888291D01*
X9351478Y-8836489D01*
X9338758Y-8827990D01*
X9262010Y-8751242D01*
X9230041Y-8703396D01*
X9201709Y-8660995D01*
X9160174Y-8560721D01*
X9139000Y-8454270D01*
X9139000Y-8345730D01*
X9160174Y-8239279D01*
X9201709Y-8139005D01*
X9262009Y-8048760D01*
X9262010Y-8048758D01*
X9338758Y-7972010D01*
X9429004Y-7911710D01*
X9429005Y-7911709D01*
X9529279Y-7870174D01*
X9635730Y-7849000D01*
X9744270Y-7849000D01*
X9850721Y-7870174D01*
G37*
G36*
X-18496000Y-6960500D02*
G01*
X-19148000Y-6960500D01*
X-19148000Y-5358500D01*
X-18496000Y-5358500D01*
X-18496000Y-6960500D01*
G37*
G36*
X-21746000Y-6960500D02*
G01*
X-22398000Y-6960500D01*
X-22398000Y-5358500D01*
X-21746000Y-5358500D01*
X-21746000Y-6960500D01*
G37*
G36*
X-22424000Y3375999D02*
G01*
X-22421598Y3351613D01*
X-22414485Y3328164D01*
X-22402934Y3306553D01*
X-22387389Y3287611D01*
X-22368447Y3272066D01*
X-22346836Y3260515D01*
X-22323387Y3253402D01*
X-22299001Y3251000D01*
X-20024000Y3251000D01*
X-20024000Y-3251000D01*
X-22299001Y-3251000D01*
X-22323387Y-3253402D01*
X-22346836Y-3260515D01*
X-22368447Y-3272066D01*
X-22387389Y-3287611D01*
X-22402934Y-3306553D01*
X-22414485Y-3328164D01*
X-22421598Y-3351613D01*
X-22424000Y-3375999D01*
X-22424000Y-4148500D01*
X-24426000Y-4148500D01*
X-24426000Y-201500D01*
X-22424000Y-201500D01*
X-22424000Y-1549001D01*
X-22421598Y-1573387D01*
X-22414485Y-1596836D01*
X-22402934Y-1618447D01*
X-22387389Y-1637389D01*
X-22368447Y-1652934D01*
X-22346836Y-1664485D01*
X-22323387Y-1671598D01*
X-22299001Y-1674000D01*
X-21630999Y-1674000D01*
X-21606613Y-1671598D01*
X-21583164Y-1664485D01*
X-21561553Y-1652934D01*
X-21542611Y-1637389D01*
X-21527066Y-1618447D01*
X-21515515Y-1596836D01*
X-21508402Y-1573387D01*
X-21506000Y-1549001D01*
X-21506000Y1549001D01*
X-21508402Y1573387D01*
X-21515515Y1596836D01*
X-21527066Y1618447D01*
X-21542611Y1637389D01*
X-21561553Y1652934D01*
X-21583164Y1664485D01*
X-21606613Y1671598D01*
X-21630999Y1674000D01*
X-22299001Y1674000D01*
X-22323387Y1671598D01*
X-22346836Y1664485D01*
X-22368447Y1652934D01*
X-22387389Y1637389D01*
X-22402934Y1618447D01*
X-22414485Y1596836D01*
X-22421598Y1573387D01*
X-22424000Y1549001D01*
X-22424000Y201500D01*
X-24426000Y201500D01*
X-24426000Y4148500D01*
X-22424000Y4148500D01*
X-22424000Y3375999D01*
G37*
G36*
X-13736062Y-3378216D02*
G01*
X-13715443Y-3384471D01*
X-13696447Y-3394624D01*
X-13679792Y-3408292D01*
X-13666124Y-3424947D01*
X-13655971Y-3443943D01*
X-13649716Y-3464562D01*
X-13647000Y-3492140D01*
X-13647000Y-4000860D01*
X-13649716Y-4028438D01*
X-13655971Y-4049057D01*
X-13666124Y-4068053D01*
X-13679792Y-4084708D01*
X-13696447Y-4098376D01*
X-13715443Y-4108529D01*
X-13736062Y-4114784D01*
X-13763640Y-4117500D01*
X-14222360Y-4117500D01*
X-14249938Y-4114784D01*
X-14270557Y-4108529D01*
X-14289553Y-4098376D01*
X-14306208Y-4084708D01*
X-14319876Y-4068053D01*
X-14330029Y-4049057D01*
X-14336284Y-4028438D01*
X-14339000Y-4000860D01*
X-14339000Y-3492140D01*
X-14336284Y-3464562D01*
X-14330029Y-3443943D01*
X-14319876Y-3424947D01*
X-14306208Y-3408292D01*
X-14289553Y-3394624D01*
X-14270557Y-3384471D01*
X-14249938Y-3378216D01*
X-14222360Y-3375500D01*
X-13763640Y-3375500D01*
X-13736062Y-3378216D01*
G37*
G36*
X-14706062Y-3378216D02*
G01*
X-14685443Y-3384471D01*
X-14666447Y-3394624D01*
X-14649792Y-3408292D01*
X-14636124Y-3424947D01*
X-14625971Y-3443943D01*
X-14619716Y-3464562D01*
X-14617000Y-3492140D01*
X-14617000Y-4000860D01*
X-14619716Y-4028438D01*
X-14625971Y-4049057D01*
X-14636124Y-4068053D01*
X-14649792Y-4084708D01*
X-14666447Y-4098376D01*
X-14685443Y-4108529D01*
X-14706062Y-4114784D01*
X-14733640Y-4117500D01*
X-15192360Y-4117500D01*
X-15219938Y-4114784D01*
X-15240557Y-4108529D01*
X-15259553Y-4098376D01*
X-15276208Y-4084708D01*
X-15289876Y-4068053D01*
X-15300029Y-4049057D01*
X-15306284Y-4028438D01*
X-15309000Y-4000860D01*
X-15309000Y-3492140D01*
X-15306284Y-3464562D01*
X-15300029Y-3443943D01*
X-15289876Y-3424947D01*
X-15276208Y-3408292D01*
X-15259553Y-3394624D01*
X-15240557Y-3384471D01*
X-15219938Y-3378216D01*
X-15192360Y-3375500D01*
X-14733640Y-3375500D01*
X-14706062Y-3378216D01*
G37*
G36*
X-15593062Y-2531716D02*
G01*
X-15572443Y-2537971D01*
X-15553447Y-2548124D01*
X-15536792Y-2561792D01*
X-15523124Y-2578447D01*
X-15512971Y-2597443D01*
X-15506716Y-2618062D01*
X-15504000Y-2645640D01*
X-15504000Y-3104360D01*
X-15506716Y-3131938D01*
X-15512971Y-3152557D01*
X-15523124Y-3171553D01*
X-15536792Y-3188208D01*
X-15553447Y-3201876D01*
X-15572443Y-3212029D01*
X-15593062Y-3218284D01*
X-15620640Y-3221000D01*
X-16129360Y-3221000D01*
X-16156938Y-3218284D01*
X-16177557Y-3212029D01*
X-16196553Y-3201876D01*
X-16213208Y-3188208D01*
X-16226876Y-3171553D01*
X-16237029Y-3152557D01*
X-16243284Y-3131938D01*
X-16246000Y-3104360D01*
X-16246000Y-2645640D01*
X-16243284Y-2618062D01*
X-16237029Y-2597443D01*
X-16226876Y-2578447D01*
X-16213208Y-2561792D01*
X-16196553Y-2548124D01*
X-16177557Y-2537971D01*
X-16156938Y-2531716D01*
X-16129360Y-2529000D01*
X-15620640Y-2529000D01*
X-15593062Y-2531716D01*
G37*
G36*
X-13794645Y1764917D02*
G01*
X-13789971Y1763499D01*
X-13785670Y1761200D01*
X-13779298Y1755971D01*
X-13758924Y1742357D01*
X-13736285Y1732980D01*
X-13712251Y1728200D01*
X-13687747Y1728200D01*
X-13663714Y1732981D01*
X-13641075Y1742358D01*
X-13620702Y1755971D01*
X-13614330Y1761200D01*
X-13610029Y1763499D01*
X-13605355Y1764917D01*
X-13594359Y1766000D01*
X-13305641Y1766000D01*
X-13294645Y1764917D01*
X-13289971Y1763499D01*
X-13285670Y1761200D01*
X-13279298Y1755971D01*
X-13258924Y1742357D01*
X-13236285Y1732980D01*
X-13212251Y1728200D01*
X-13187747Y1728200D01*
X-13163714Y1732981D01*
X-13141075Y1742358D01*
X-13120702Y1755971D01*
X-13114330Y1761200D01*
X-13110029Y1763499D01*
X-13105355Y1764917D01*
X-13094359Y1766000D01*
X-12805641Y1766000D01*
X-12794645Y1764917D01*
X-12789971Y1763499D01*
X-12785670Y1761200D01*
X-12779298Y1755971D01*
X-12758924Y1742357D01*
X-12736285Y1732980D01*
X-12712251Y1728200D01*
X-12687747Y1728200D01*
X-12663714Y1732981D01*
X-12641075Y1742358D01*
X-12620702Y1755971D01*
X-12614330Y1761200D01*
X-12610029Y1763499D01*
X-12605355Y1764917D01*
X-12594359Y1766000D01*
X-12305641Y1766000D01*
X-12294645Y1764917D01*
X-12289971Y1763499D01*
X-12285670Y1761200D01*
X-12279298Y1755971D01*
X-12258924Y1742357D01*
X-12236285Y1732980D01*
X-12212251Y1728200D01*
X-12187747Y1728200D01*
X-12163714Y1732981D01*
X-12141075Y1742358D01*
X-12120702Y1755971D01*
X-12114330Y1761200D01*
X-12110029Y1763499D01*
X-12105355Y1764917D01*
X-12094359Y1766000D01*
X-11805641Y1766000D01*
X-11794645Y1764917D01*
X-11789971Y1763499D01*
X-11785670Y1761200D01*
X-11779298Y1755971D01*
X-11758924Y1742357D01*
X-11736285Y1732980D01*
X-11712251Y1728200D01*
X-11687747Y1728200D01*
X-11663714Y1732981D01*
X-11641075Y1742358D01*
X-11620702Y1755971D01*
X-11614330Y1761200D01*
X-11610029Y1763499D01*
X-11605355Y1764917D01*
X-11594359Y1766000D01*
X-11305641Y1766000D01*
X-11294645Y1764917D01*
X-11289971Y1763499D01*
X-11285669Y1761200D01*
X-11281896Y1758104D01*
X-11278800Y1754331D01*
X-11276501Y1750029D01*
X-11275083Y1745355D01*
X-11274000Y1734359D01*
X-11274000Y915999D01*
X-11271598Y891613D01*
X-11264485Y868164D01*
X-11252934Y846553D01*
X-11237389Y827611D01*
X-11218447Y812066D01*
X-11196836Y800515D01*
X-11173387Y793402D01*
X-11149001Y791000D01*
X-10330641Y791000D01*
X-10319645Y789917D01*
X-10314971Y788499D01*
X-10310669Y786200D01*
X-10306896Y783104D01*
X-10303800Y779331D01*
X-10301501Y775029D01*
X-10300083Y770355D01*
X-10299000Y759359D01*
X-10299000Y470641D01*
X-10300083Y459645D01*
X-10301501Y454971D01*
X-10303800Y450670D01*
X-10309029Y444298D01*
X-10322643Y423924D01*
X-10332020Y401285D01*
X-10336800Y377251D01*
X-10336800Y352747D01*
X-10332019Y328714D01*
X-10322642Y306075D01*
X-10309029Y285702D01*
X-10303800Y279330D01*
X-10301501Y275029D01*
X-10300083Y270355D01*
X-10299000Y259359D01*
X-10299000Y-29359D01*
X-10300083Y-40355D01*
X-10301501Y-45029D01*
X-10303800Y-49330D01*
X-10309029Y-55702D01*
X-10322643Y-76076D01*
X-10332020Y-98715D01*
X-10336800Y-122749D01*
X-10336800Y-147253D01*
X-10332019Y-171286D01*
X-10322642Y-193925D01*
X-10309029Y-214298D01*
X-10303800Y-220670D01*
X-10301501Y-224971D01*
X-10300083Y-229645D01*
X-10299000Y-240641D01*
X-10299000Y-529359D01*
X-10300083Y-540355D01*
X-10301501Y-545029D01*
X-10303800Y-549330D01*
X-10309029Y-555702D01*
X-10322643Y-576076D01*
X-10332020Y-598715D01*
X-10336800Y-622749D01*
X-10336800Y-647253D01*
X-10332019Y-671286D01*
X-10322642Y-693925D01*
X-10309029Y-714298D01*
X-10303800Y-720670D01*
X-10301501Y-724971D01*
X-10300083Y-729645D01*
X-10299000Y-740641D01*
X-10299000Y-1029359D01*
X-10300083Y-1040355D01*
X-10301501Y-1045029D01*
X-10303800Y-1049330D01*
X-10309029Y-1055702D01*
X-10322643Y-1076076D01*
X-10332020Y-1098715D01*
X-10336800Y-1122749D01*
X-10336800Y-1147253D01*
X-10332019Y-1171286D01*
X-10322642Y-1193925D01*
X-10309029Y-1214298D01*
X-10303800Y-1220670D01*
X-10301501Y-1224971D01*
X-10300083Y-1229645D01*
X-10299000Y-1240641D01*
X-10299000Y-1529359D01*
X-10300083Y-1540355D01*
X-10301501Y-1545029D01*
X-10303800Y-1549330D01*
X-10309029Y-1555702D01*
X-10322643Y-1576076D01*
X-10332020Y-1598715D01*
X-10336800Y-1622749D01*
X-10336800Y-1647253D01*
X-10332019Y-1671286D01*
X-10322642Y-1693925D01*
X-10309029Y-1714298D01*
X-10303800Y-1720670D01*
X-10301501Y-1724971D01*
X-10300083Y-1729645D01*
X-10299000Y-1740641D01*
X-10299000Y-2029359D01*
X-10300083Y-2040355D01*
X-10301501Y-2045029D01*
X-10303800Y-2049331D01*
X-10306896Y-2053104D01*
X-10310669Y-2056200D01*
X-10314971Y-2058499D01*
X-10319645Y-2059917D01*
X-10330641Y-2061000D01*
X-11149001Y-2061000D01*
X-11173387Y-2063402D01*
X-11196836Y-2070515D01*
X-11218447Y-2082066D01*
X-11237389Y-2097611D01*
X-11252934Y-2116553D01*
X-11264485Y-2138164D01*
X-11271598Y-2161613D01*
X-11274000Y-2185999D01*
X-11274000Y-3004359D01*
X-11275083Y-3015355D01*
X-11276501Y-3020029D01*
X-11278800Y-3024331D01*
X-11281896Y-3028104D01*
X-11285669Y-3031200D01*
X-11289971Y-3033499D01*
X-11294645Y-3034917D01*
X-11305641Y-3036000D01*
X-11594359Y-3036000D01*
X-11605355Y-3034917D01*
X-11610029Y-3033499D01*
X-11614330Y-3031200D01*
X-11620702Y-3025971D01*
X-11641076Y-3012357D01*
X-11663715Y-3002980D01*
X-11687749Y-2998200D01*
X-11712253Y-2998200D01*
X-11736286Y-3002981D01*
X-11758925Y-3012358D01*
X-11779298Y-3025971D01*
X-11785670Y-3031200D01*
X-11789971Y-3033499D01*
X-11794645Y-3034917D01*
X-11805641Y-3036000D01*
X-12094359Y-3036000D01*
X-12105355Y-3034917D01*
X-12110029Y-3033499D01*
X-12114330Y-3031200D01*
X-12120702Y-3025971D01*
X-12141076Y-3012357D01*
X-12163715Y-3002980D01*
X-12187749Y-2998200D01*
X-12212253Y-2998200D01*
X-12236286Y-3002981D01*
X-12258925Y-3012358D01*
X-12279298Y-3025971D01*
X-12285670Y-3031200D01*
X-12289971Y-3033499D01*
X-12294645Y-3034917D01*
X-12305641Y-3036000D01*
X-12594359Y-3036000D01*
X-12605355Y-3034917D01*
X-12610029Y-3033499D01*
X-12614330Y-3031200D01*
X-12620702Y-3025971D01*
X-12641076Y-3012357D01*
X-12663715Y-3002980D01*
X-12687749Y-2998200D01*
X-12712253Y-2998200D01*
X-12736286Y-3002981D01*
X-12758925Y-3012358D01*
X-12779298Y-3025971D01*
X-12785670Y-3031200D01*
X-12789971Y-3033499D01*
X-12794645Y-3034917D01*
X-12805641Y-3036000D01*
X-13094359Y-3036000D01*
X-13105355Y-3034917D01*
X-13110029Y-3033499D01*
X-13114330Y-3031200D01*
X-13120702Y-3025971D01*
X-13141076Y-3012357D01*
X-13163715Y-3002980D01*
X-13187749Y-2998200D01*
X-13212253Y-2998200D01*
X-13236286Y-3002981D01*
X-13258925Y-3012358D01*
X-13279298Y-3025971D01*
X-13285670Y-3031200D01*
X-13289971Y-3033499D01*
X-13294645Y-3034917D01*
X-13305641Y-3036000D01*
X-13594359Y-3036000D01*
X-13605355Y-3034917D01*
X-13610029Y-3033499D01*
X-13614330Y-3031200D01*
X-13620702Y-3025971D01*
X-13641076Y-3012357D01*
X-13663715Y-3002980D01*
X-13687749Y-2998200D01*
X-13712253Y-2998200D01*
X-13736286Y-3002981D01*
X-13758925Y-3012358D01*
X-13779298Y-3025971D01*
X-13785670Y-3031200D01*
X-13789971Y-3033499D01*
X-13794645Y-3034917D01*
X-13805641Y-3036000D01*
X-14094359Y-3036000D01*
X-14105355Y-3034917D01*
X-14110029Y-3033499D01*
X-14114331Y-3031200D01*
X-14118104Y-3028104D01*
X-14121200Y-3024331D01*
X-14123499Y-3020029D01*
X-14124917Y-3015355D01*
X-14126000Y-3004359D01*
X-14126000Y-2185999D01*
X-14128402Y-2161613D01*
X-14135515Y-2138164D01*
X-14147066Y-2116553D01*
X-14162611Y-2097611D01*
X-14181553Y-2082066D01*
X-14203164Y-2070515D01*
X-14226613Y-2063402D01*
X-14250999Y-2061000D01*
X-15069359Y-2061000D01*
X-15080355Y-2059917D01*
X-15085029Y-2058499D01*
X-15089331Y-2056200D01*
X-15093104Y-2053104D01*
X-15096200Y-2049331D01*
X-15098499Y-2045029D01*
X-15099917Y-2040355D01*
X-15101000Y-2029359D01*
X-15101000Y-1740641D01*
X-15099917Y-1729645D01*
X-15098499Y-1724971D01*
X-15096200Y-1720670D01*
X-15090971Y-1714298D01*
X-15077357Y-1693924D01*
X-15067980Y-1671285D01*
X-15063200Y-1647251D01*
X-15063200Y-1622747D01*
X-15067981Y-1598714D01*
X-15077358Y-1576075D01*
X-15090971Y-1555702D01*
X-15096200Y-1549330D01*
X-15098499Y-1545029D01*
X-15099917Y-1540355D01*
X-15101000Y-1529359D01*
X-15101000Y-1240641D01*
X-15099917Y-1229645D01*
X-15098499Y-1224971D01*
X-15096200Y-1220670D01*
X-15090971Y-1214298D01*
X-15077357Y-1193924D01*
X-15067980Y-1171285D01*
X-15063200Y-1147251D01*
X-15063200Y-1122747D01*
X-15067981Y-1098714D01*
X-15077358Y-1076075D01*
X-15090971Y-1055702D01*
X-15096200Y-1049330D01*
X-15098499Y-1045029D01*
X-15099917Y-1040355D01*
X-15101000Y-1029359D01*
X-15101000Y-740641D01*
X-15099917Y-729645D01*
X-15098499Y-724971D01*
X-15096200Y-720670D01*
X-15090971Y-714298D01*
X-15077357Y-693924D01*
X-15067980Y-671285D01*
X-15063200Y-647251D01*
X-15063200Y-622747D01*
X-15067981Y-598714D01*
X-15077358Y-576075D01*
X-15090971Y-555702D01*
X-15096200Y-549330D01*
X-15098499Y-545029D01*
X-15099917Y-540355D01*
X-15101000Y-529359D01*
X-15101000Y-240641D01*
X-15099917Y-229645D01*
X-15098499Y-224971D01*
X-15096200Y-220670D01*
X-15090971Y-214298D01*
X-15077357Y-193924D01*
X-15067980Y-171285D01*
X-15063200Y-147251D01*
X-15063200Y-122747D01*
X-15067981Y-98714D01*
X-15077358Y-76075D01*
X-15090971Y-55702D01*
X-15096200Y-49330D01*
X-15098499Y-45029D01*
X-15099917Y-40355D01*
X-15101000Y-29359D01*
X-15101000Y259359D01*
X-15099917Y270355D01*
X-15098499Y275029D01*
X-15096200Y279330D01*
X-15090971Y285702D01*
X-15077357Y306076D01*
X-15067980Y328715D01*
X-15063200Y352749D01*
X-15063200Y377253D01*
X-15067981Y401286D01*
X-15077358Y423925D01*
X-15090971Y444298D01*
X-15096200Y450670D01*
X-15098499Y454971D01*
X-15099917Y459645D01*
X-15101000Y470641D01*
X-15101000Y759359D01*
X-15099917Y770355D01*
X-15098499Y775029D01*
X-15096200Y779331D01*
X-15093104Y783104D01*
X-15089331Y786200D01*
X-15085029Y788499D01*
X-15080355Y789917D01*
X-15069359Y791000D01*
X-14250999Y791000D01*
X-14226613Y793402D01*
X-14203164Y800515D01*
X-14181553Y812066D01*
X-14162611Y827611D01*
X-14147066Y846553D01*
X-14135515Y868164D01*
X-14128402Y891613D01*
X-14126000Y915999D01*
X-14126000Y1734359D01*
X-14124917Y1745355D01*
X-14123499Y1750029D01*
X-14121200Y1754331D01*
X-14118104Y1758104D01*
X-14114331Y1761200D01*
X-14110029Y1763499D01*
X-14105355Y1764917D01*
X-14094359Y1766000D01*
X-13805641Y1766000D01*
X-13794645Y1764917D01*
G37*
G36*
X-15593062Y-1561716D02*
G01*
X-15572443Y-1567971D01*
X-15553447Y-1578124D01*
X-15536792Y-1591792D01*
X-15523124Y-1608447D01*
X-15512971Y-1627443D01*
X-15506716Y-1648062D01*
X-15504000Y-1675640D01*
X-15504000Y-2134360D01*
X-15506716Y-2161938D01*
X-15512971Y-2182557D01*
X-15523124Y-2201553D01*
X-15536792Y-2218208D01*
X-15553447Y-2231876D01*
X-15572443Y-2242029D01*
X-15593062Y-2248284D01*
X-15620640Y-2251000D01*
X-16129360Y-2251000D01*
X-16156938Y-2248284D01*
X-16177557Y-2242029D01*
X-16196553Y-2231876D01*
X-16213208Y-2218208D01*
X-16226876Y-2201553D01*
X-16237029Y-2182557D01*
X-16243284Y-2161938D01*
X-16246000Y-2134360D01*
X-16246000Y-1675640D01*
X-16243284Y-1648062D01*
X-16237029Y-1627443D01*
X-16226876Y-1608447D01*
X-16213208Y-1591792D01*
X-16196553Y-1578124D01*
X-16177557Y-1567971D01*
X-16156938Y-1561716D01*
X-16129360Y-1559000D01*
X-15620640Y-1559000D01*
X-15593062Y-1561716D01*
G37*
G36*
X-14784000Y3579000D02*
G01*
X-15686000Y3579000D01*
X-15686000Y4581000D01*
X-14784000Y4581000D01*
X-14784000Y3579000D01*
G37*
G36*
X-12884000Y3579000D02*
G01*
X-13786000Y3579000D01*
X-13786000Y4581000D01*
X-12884000Y4581000D01*
X-12884000Y3579000D01*
G37*
G36*
X-11024000Y3679000D02*
G01*
X-12026000Y3679000D01*
X-12026000Y4581000D01*
X-11024000Y4581000D01*
X-11024000Y3679000D01*
G37*
G36*
X-16355062Y4534284D02*
G01*
X-16334443Y4528029D01*
X-16315447Y4517876D01*
X-16298792Y4504208D01*
X-16285124Y4487553D01*
X-16274971Y4468557D01*
X-16268716Y4447938D01*
X-16266000Y4420360D01*
X-16266000Y3961640D01*
X-16268716Y3934062D01*
X-16274971Y3913443D01*
X-16285124Y3894447D01*
X-16298792Y3877792D01*
X-16315447Y3864124D01*
X-16334443Y3853971D01*
X-16355062Y3847716D01*
X-16382640Y3845000D01*
X-16891360Y3845000D01*
X-16918938Y3847716D01*
X-16939557Y3853971D01*
X-16958553Y3864124D01*
X-16975208Y3877792D01*
X-16988876Y3894447D01*
X-16999029Y3913443D01*
X-17005284Y3934062D01*
X-17008000Y3961640D01*
X-17008000Y4420360D01*
X-17005284Y4447938D01*
X-16999029Y4468557D01*
X-16988876Y4487553D01*
X-16975208Y4504208D01*
X-16958553Y4517876D01*
X-16939557Y4528029D01*
X-16918938Y4534284D01*
X-16891360Y4537000D01*
X-16382640Y4537000D01*
X-16355062Y4534284D01*
G37*
G36*
X-9024000Y4629000D02*
G01*
X-10026000Y4629000D01*
X-10026000Y5531000D01*
X-9024000Y5531000D01*
X-9024000Y4629000D01*
G37*
G36*
X-20842562Y5511784D02*
G01*
X-20821943Y5505529D01*
X-20802947Y5495376D01*
X-20786292Y5481708D01*
X-20772624Y5465053D01*
X-20762471Y5446057D01*
X-20756216Y5425438D01*
X-20753500Y5397860D01*
X-20753500Y4889140D01*
X-20756216Y4861562D01*
X-20762471Y4840943D01*
X-20772624Y4821947D01*
X-20786292Y4805292D01*
X-20802947Y4791624D01*
X-20821943Y4781471D01*
X-20842562Y4775216D01*
X-20870140Y4772500D01*
X-21328860Y4772500D01*
X-21356438Y4775216D01*
X-21377057Y4781471D01*
X-21396053Y4791624D01*
X-21412708Y4805292D01*
X-21426376Y4821947D01*
X-21436529Y4840943D01*
X-21442784Y4861562D01*
X-21445500Y4889140D01*
X-21445500Y5397860D01*
X-21442784Y5425438D01*
X-21436529Y5446057D01*
X-21426376Y5465053D01*
X-21412708Y5481708D01*
X-21396053Y5495376D01*
X-21377057Y5505529D01*
X-21356438Y5511784D01*
X-21328860Y5514500D01*
X-20870140Y5514500D01*
X-20842562Y5511784D01*
G37*
G36*
X-19872562Y5511784D02*
G01*
X-19851943Y5505529D01*
X-19832947Y5495376D01*
X-19816292Y5481708D01*
X-19802624Y5465053D01*
X-19792471Y5446057D01*
X-19786216Y5425438D01*
X-19783500Y5397860D01*
X-19783500Y4889140D01*
X-19786216Y4861562D01*
X-19792471Y4840943D01*
X-19802624Y4821947D01*
X-19816292Y4805292D01*
X-19832947Y4791624D01*
X-19851943Y4781471D01*
X-19872562Y4775216D01*
X-19900140Y4772500D01*
X-20358860Y4772500D01*
X-20386438Y4775216D01*
X-20407057Y4781471D01*
X-20426053Y4791624D01*
X-20442708Y4805292D01*
X-20456376Y4821947D01*
X-20466529Y4840943D01*
X-20472784Y4861562D01*
X-20475500Y4889140D01*
X-20475500Y5397860D01*
X-20472784Y5425438D01*
X-20466529Y5446057D01*
X-20456376Y5465053D01*
X-20442708Y5481708D01*
X-20426053Y5495376D01*
X-20407057Y5505529D01*
X-20386438Y5511784D01*
X-20358860Y5514500D01*
X-19900140Y5514500D01*
X-19872562Y5511784D01*
G37*
G36*
X-16355062Y5504284D02*
G01*
X-16334443Y5498029D01*
X-16315447Y5487876D01*
X-16298792Y5474208D01*
X-16285124Y5457553D01*
X-16274971Y5438557D01*
X-16268716Y5417938D01*
X-16266000Y5390360D01*
X-16266000Y4931640D01*
X-16268716Y4904062D01*
X-16274971Y4883443D01*
X-16285124Y4864447D01*
X-16298792Y4847792D01*
X-16315447Y4834124D01*
X-16334443Y4823971D01*
X-16355062Y4817716D01*
X-16382640Y4815000D01*
X-16891360Y4815000D01*
X-16918938Y4817716D01*
X-16939557Y4823971D01*
X-16958553Y4834124D01*
X-16975208Y4847792D01*
X-16988876Y4864447D01*
X-16999029Y4883443D01*
X-17005284Y4904062D01*
X-17008000Y4931640D01*
X-17008000Y5390360D01*
X-17005284Y5417938D01*
X-16999029Y5438557D01*
X-16988876Y5457553D01*
X-16975208Y5474208D01*
X-16958553Y5487876D01*
X-16939557Y5498029D01*
X-16918938Y5504284D01*
X-16891360Y5507000D01*
X-16382640Y5507000D01*
X-16355062Y5504284D01*
G37*
G36*
X-11024000Y5579000D02*
G01*
X-12026000Y5579000D01*
X-12026000Y6481000D01*
X-11024000Y6481000D01*
X-11024000Y5579000D01*
G37*
G36*
X-13834000Y5579000D02*
G01*
X-14736000Y5579000D01*
X-14736000Y6581000D01*
X-13834000Y6581000D01*
X-13834000Y5579000D01*
G37*
G36*
X-19624500Y5915500D02*
G01*
X-21426500Y5915500D01*
X-21426500Y6667500D01*
X-19624500Y6667500D01*
X-19624500Y5915500D01*
G37*
G36*
X-11513562Y7734284D02*
G01*
X-11492943Y7728029D01*
X-11473947Y7717876D01*
X-11457292Y7704208D01*
X-11443624Y7687553D01*
X-11433471Y7668557D01*
X-11427216Y7647938D01*
X-11424500Y7620360D01*
X-11424500Y7111640D01*
X-11427216Y7084062D01*
X-11433471Y7063443D01*
X-11443624Y7044447D01*
X-11457292Y7027792D01*
X-11473947Y7014124D01*
X-11492943Y7003971D01*
X-11513562Y6997716D01*
X-11541140Y6995000D01*
X-11999860Y6995000D01*
X-12027438Y6997716D01*
X-12048057Y7003971D01*
X-12067053Y7014124D01*
X-12083708Y7027792D01*
X-12097376Y7044447D01*
X-12107529Y7063443D01*
X-12113784Y7084062D01*
X-12116500Y7111640D01*
X-12116500Y7620360D01*
X-12113784Y7647938D01*
X-12107529Y7668557D01*
X-12097376Y7687553D01*
X-12083708Y7704208D01*
X-12067053Y7717876D01*
X-12048057Y7728029D01*
X-12027438Y7734284D01*
X-11999860Y7737000D01*
X-11541140Y7737000D01*
X-11513562Y7734284D01*
G37*
G36*
X-12483562Y7734284D02*
G01*
X-12462943Y7728029D01*
X-12443947Y7717876D01*
X-12427292Y7704208D01*
X-12413624Y7687553D01*
X-12403471Y7668557D01*
X-12397216Y7647938D01*
X-12394500Y7620360D01*
X-12394500Y7111640D01*
X-12397216Y7084062D01*
X-12403471Y7063443D01*
X-12413624Y7044447D01*
X-12427292Y7027792D01*
X-12443947Y7014124D01*
X-12462943Y7003971D01*
X-12483562Y6997716D01*
X-12511140Y6995000D01*
X-12969860Y6995000D01*
X-12997438Y6997716D01*
X-13018057Y7003971D01*
X-13037053Y7014124D01*
X-13053708Y7027792D01*
X-13067376Y7044447D01*
X-13077529Y7063443D01*
X-13083784Y7084062D01*
X-13086500Y7111640D01*
X-13086500Y7620360D01*
X-13083784Y7647938D01*
X-13077529Y7668557D01*
X-13067376Y7687553D01*
X-13053708Y7704208D01*
X-13037053Y7717876D01*
X-13018057Y7728029D01*
X-12997438Y7734284D01*
X-12969860Y7737000D01*
X-12511140Y7737000D01*
X-12483562Y7734284D01*
G37*
G36*
X-19624500Y7815500D02*
G01*
X-20126500Y7815500D01*
X-20126500Y8567500D01*
X-19624500Y8567500D01*
X-19624500Y7815500D01*
G37*
G36*
X-20924500Y7815500D02*
G01*
X-21426500Y7815500D01*
X-21426500Y8567500D01*
X-20924500Y8567500D01*
X-20924500Y7815500D01*
G37*
G36*
X-2312562Y8579784D02*
G01*
X-2291943Y8573529D01*
X-2272947Y8563376D01*
X-2256292Y8549708D01*
X-2242624Y8533053D01*
X-2232471Y8514057D01*
X-2226216Y8493438D01*
X-2223500Y8465860D01*
X-2223500Y7957140D01*
X-2226216Y7929562D01*
X-2232471Y7908943D01*
X-2242624Y7889947D01*
X-2256292Y7873292D01*
X-2272947Y7859624D01*
X-2291943Y7849471D01*
X-2312562Y7843216D01*
X-2340140Y7840500D01*
X-2798860Y7840500D01*
X-2826438Y7843216D01*
X-2847057Y7849471D01*
X-2866053Y7859624D01*
X-2882708Y7873292D01*
X-2896376Y7889947D01*
X-2906529Y7908943D01*
X-2912784Y7929562D01*
X-2915500Y7957140D01*
X-2915500Y8465860D01*
X-2912784Y8493438D01*
X-2906529Y8514057D01*
X-2896376Y8533053D01*
X-2882708Y8549708D01*
X-2866053Y8563376D01*
X-2847057Y8573529D01*
X-2826438Y8579784D01*
X-2798860Y8582500D01*
X-2340140Y8582500D01*
X-2312562Y8579784D01*
G37*
G36*
X-1342562Y8579784D02*
G01*
X-1321943Y8573529D01*
X-1302947Y8563376D01*
X-1286292Y8549708D01*
X-1272624Y8533053D01*
X-1262471Y8514057D01*
X-1256216Y8493438D01*
X-1253500Y8465860D01*
X-1253500Y7957140D01*
X-1256216Y7929562D01*
X-1262471Y7908943D01*
X-1272624Y7889947D01*
X-1286292Y7873292D01*
X-1302947Y7859624D01*
X-1321943Y7849471D01*
X-1342562Y7843216D01*
X-1370140Y7840500D01*
X-1828860Y7840500D01*
X-1856438Y7843216D01*
X-1877057Y7849471D01*
X-1896053Y7859624D01*
X-1912708Y7873292D01*
X-1926376Y7889947D01*
X-1936529Y7908943D01*
X-1942784Y7929562D01*
X-1945500Y7957140D01*
X-1945500Y8465860D01*
X-1942784Y8493438D01*
X-1936529Y8514057D01*
X-1926376Y8533053D01*
X-1912708Y8549708D01*
X-1896053Y8563376D01*
X-1877057Y8573529D01*
X-1856438Y8579784D01*
X-1828860Y8582500D01*
X-1370140Y8582500D01*
X-1342562Y8579784D01*
G37*
G36*
X501000Y10000999D02*
G01*
X503402Y9976613D01*
X510515Y9953164D01*
X522066Y9931553D01*
X537611Y9912611D01*
X556553Y9897066D01*
X578164Y9885515D01*
X601613Y9878402D01*
X625999Y9876000D01*
X976000Y9876000D01*
X976000Y8524000D01*
X625999Y8524000D01*
X601613Y8521598D01*
X578164Y8514485D01*
X556553Y8502934D01*
X537611Y8487389D01*
X522066Y8468447D01*
X510515Y8446836D01*
X503402Y8423387D01*
X501000Y8399001D01*
X501000Y8224000D01*
X-501000Y8224000D01*
X-501000Y8399001D01*
X-503402Y8423387D01*
X-510515Y8446836D01*
X-522066Y8468447D01*
X-537611Y8487389D01*
X-556553Y8502934D01*
X-578164Y8514485D01*
X-601613Y8521598D01*
X-625999Y8524000D01*
X-976000Y8524000D01*
X-976000Y9624001D01*
X-549000Y9624001D01*
X-549000Y8775999D01*
X-546598Y8751613D01*
X-539485Y8728164D01*
X-527934Y8706553D01*
X-512389Y8687611D01*
X-493447Y8672066D01*
X-471836Y8660515D01*
X-448387Y8653402D01*
X-424001Y8651000D01*
X424001Y8651000D01*
X448387Y8653402D01*
X471836Y8660515D01*
X493447Y8672066D01*
X512389Y8687611D01*
X527934Y8706553D01*
X539485Y8728164D01*
X546598Y8751613D01*
X549000Y8775999D01*
X549000Y9624001D01*
X546598Y9648387D01*
X539485Y9671836D01*
X527934Y9693447D01*
X512389Y9712389D01*
X493447Y9727934D01*
X471836Y9739485D01*
X448387Y9746598D01*
X424001Y9749000D01*
X-424001Y9749000D01*
X-448387Y9746598D01*
X-471836Y9739485D01*
X-493447Y9727934D01*
X-512389Y9712389D01*
X-527934Y9693447D01*
X-539485Y9671836D01*
X-546598Y9648387D01*
X-549000Y9624001D01*
X-976000Y9624001D01*
X-976000Y9876000D01*
X-625999Y9876000D01*
X-601613Y9878402D01*
X-578164Y9885515D01*
X-556553Y9897066D01*
X-537611Y9912611D01*
X-522066Y9931553D01*
X-510515Y9953164D01*
X-503402Y9976613D01*
X-501000Y10000999D01*
X-501000Y10176000D01*
X501000Y10176000D01*
X501000Y10000999D01*
G37*
G36*
X2010438Y8952284D02*
G01*
X2031057Y8946029D01*
X2050053Y8935876D01*
X2066708Y8922208D01*
X2080376Y8905553D01*
X2090529Y8886557D01*
X2096784Y8865938D01*
X2099500Y8838360D01*
X2099500Y8379640D01*
X2096784Y8352062D01*
X2090529Y8331443D01*
X2080376Y8312447D01*
X2066708Y8295792D01*
X2050053Y8282124D01*
X2031057Y8271971D01*
X2010438Y8265716D01*
X1982860Y8263000D01*
X1474140Y8263000D01*
X1446562Y8265716D01*
X1425943Y8271971D01*
X1406947Y8282124D01*
X1390292Y8295792D01*
X1376624Y8312447D01*
X1366471Y8331443D01*
X1360216Y8352062D01*
X1357500Y8379640D01*
X1357500Y8838360D01*
X1360216Y8865938D01*
X1366471Y8886557D01*
X1376624Y8905553D01*
X1390292Y8922208D01*
X1406947Y8935876D01*
X1425943Y8946029D01*
X1446562Y8952284D01*
X1474140Y8955000D01*
X1982860Y8955000D01*
X2010438Y8952284D01*
G37*
G36*
X-20022562Y9829784D02*
G01*
X-20001943Y9823529D01*
X-19982947Y9813376D01*
X-19966292Y9799708D01*
X-19952624Y9783053D01*
X-19942471Y9764057D01*
X-19936216Y9743438D01*
X-19933500Y9715860D01*
X-19933500Y9207140D01*
X-19936216Y9179562D01*
X-19942471Y9158943D01*
X-19952624Y9139947D01*
X-19966292Y9123292D01*
X-19982947Y9109624D01*
X-20001943Y9099471D01*
X-20022562Y9093216D01*
X-20050140Y9090500D01*
X-20508860Y9090500D01*
X-20536438Y9093216D01*
X-20557057Y9099471D01*
X-20576053Y9109624D01*
X-20592708Y9123292D01*
X-20606376Y9139947D01*
X-20616529Y9158943D01*
X-20622784Y9179562D01*
X-20625500Y9207140D01*
X-20625500Y9715860D01*
X-20622784Y9743438D01*
X-20616529Y9764057D01*
X-20606376Y9783053D01*
X-20592708Y9799708D01*
X-20576053Y9813376D01*
X-20557057Y9823529D01*
X-20536438Y9829784D01*
X-20508860Y9832500D01*
X-20050140Y9832500D01*
X-20022562Y9829784D01*
G37*
G36*
X-20992562Y9829784D02*
G01*
X-20971943Y9823529D01*
X-20952947Y9813376D01*
X-20936292Y9799708D01*
X-20922624Y9783053D01*
X-20912471Y9764057D01*
X-20906216Y9743438D01*
X-20903500Y9715860D01*
X-20903500Y9207140D01*
X-20906216Y9179562D01*
X-20912471Y9158943D01*
X-20922624Y9139947D01*
X-20936292Y9123292D01*
X-20952947Y9109624D01*
X-20971943Y9099471D01*
X-20992562Y9093216D01*
X-21020140Y9090500D01*
X-21478860Y9090500D01*
X-21506438Y9093216D01*
X-21527057Y9099471D01*
X-21546053Y9109624D01*
X-21562708Y9123292D01*
X-21576376Y9139947D01*
X-21586529Y9158943D01*
X-21592784Y9179562D01*
X-21595500Y9207140D01*
X-21595500Y9715860D01*
X-21592784Y9743438D01*
X-21586529Y9764057D01*
X-21576376Y9783053D01*
X-21562708Y9799708D01*
X-21546053Y9813376D01*
X-21527057Y9823529D01*
X-21506438Y9829784D01*
X-21478860Y9832500D01*
X-21020140Y9832500D01*
X-20992562Y9829784D01*
G37*
G36*
X2010438Y9922284D02*
G01*
X2031057Y9916029D01*
X2050053Y9905876D01*
X2066708Y9892208D01*
X2080376Y9875553D01*
X2090529Y9856557D01*
X2096784Y9835938D01*
X2099500Y9808360D01*
X2099500Y9349640D01*
X2096784Y9322062D01*
X2090529Y9301443D01*
X2080376Y9282447D01*
X2066708Y9265792D01*
X2050053Y9252124D01*
X2031057Y9241971D01*
X2010438Y9235716D01*
X1982860Y9233000D01*
X1474140Y9233000D01*
X1446562Y9235716D01*
X1425943Y9241971D01*
X1406947Y9252124D01*
X1390292Y9265792D01*
X1376624Y9282447D01*
X1366471Y9301443D01*
X1360216Y9322062D01*
X1357500Y9349640D01*
X1357500Y9808360D01*
X1360216Y9835938D01*
X1366471Y9856557D01*
X1376624Y9875553D01*
X1390292Y9892208D01*
X1406947Y9905876D01*
X1425943Y9916029D01*
X1446562Y9922284D01*
X1474140Y9925000D01*
X1982860Y9925000D01*
X2010438Y9922284D01*
G37*
G36*
X8351118Y13934080D02*
G01*
X8427888Y13910792D01*
X8473836Y13896854D01*
X8586925Y13836406D01*
X8686054Y13755054D01*
X8767406Y13655925D01*
X8827854Y13542836D01*
X8831275Y13531557D01*
X8865080Y13420118D01*
X8874500Y13324473D01*
X8874500Y12710527D01*
X8865080Y12614882D01*
X8837540Y12524096D01*
X8827854Y12492164D01*
X8767406Y12379075D01*
X8686054Y12279947D01*
X8586924Y12198594D01*
X8473835Y12138146D01*
X8441903Y12128460D01*
X8351117Y12100920D01*
X8223500Y12088351D01*
X8095882Y12100920D01*
X8005096Y12128460D01*
X7973164Y12138146D01*
X7860075Y12198594D01*
X7760947Y12279946D01*
X7679594Y12379076D01*
X7619146Y12492165D01*
X7609460Y12524097D01*
X7581920Y12614883D01*
X7572500Y12710528D01*
X7572500Y13324473D01*
X7581920Y13420118D01*
X7612585Y13521208D01*
X7619145Y13542833D01*
X7651457Y13603283D01*
X7679595Y13655926D01*
X7692993Y13672251D01*
X7760947Y13755054D01*
X7860076Y13836406D01*
X7973165Y13896854D01*
X8019113Y13910792D01*
X8095883Y13934080D01*
X8223500Y13946649D01*
X8351118Y13934080D01*
G37*
G36*
X10714742Y13939096D02*
G01*
X10751837Y13927843D01*
X10786015Y13909575D01*
X10815981Y13884981D01*
X10840575Y13855015D01*
X10858843Y13820837D01*
X10870096Y13783742D01*
X10874500Y13739026D01*
X10874500Y12295974D01*
X10870096Y12251258D01*
X10858843Y12214163D01*
X10840575Y12179985D01*
X10815981Y12150019D01*
X10786015Y12125425D01*
X10751837Y12107157D01*
X10714742Y12095904D01*
X10670026Y12091500D01*
X9776974Y12091500D01*
X9732258Y12095904D01*
X9695163Y12107157D01*
X9660985Y12125425D01*
X9631019Y12150019D01*
X9606425Y12179985D01*
X9588157Y12214163D01*
X9576904Y12251258D01*
X9572500Y12295974D01*
X9572500Y13739026D01*
X9576904Y13783742D01*
X9588157Y13820837D01*
X9606425Y13855015D01*
X9631019Y13884981D01*
X9660985Y13909575D01*
X9695163Y13927843D01*
X9732258Y13939096D01*
X9776974Y13943500D01*
X10670026Y13943500D01*
X10714742Y13939096D01*
G37*
G36*
X2694938Y13551284D02*
G01*
X2715557Y13545029D01*
X2734553Y13534876D01*
X2751208Y13521208D01*
X2764876Y13504553D01*
X2775029Y13485557D01*
X2781284Y13464938D01*
X2784000Y13437360D01*
X2784000Y12978640D01*
X2781284Y12951062D01*
X2775029Y12930443D01*
X2764876Y12911447D01*
X2751208Y12894792D01*
X2734553Y12881124D01*
X2715557Y12870971D01*
X2694938Y12864716D01*
X2667360Y12862000D01*
X2158640Y12862000D01*
X2131062Y12864716D01*
X2110443Y12870971D01*
X2091447Y12881124D01*
X2074792Y12894792D01*
X2061124Y12911447D01*
X2050971Y12930443D01*
X2044716Y12951062D01*
X2042000Y12978640D01*
X2042000Y13437360D01*
X2044716Y13464938D01*
X2050971Y13485557D01*
X2061124Y13504553D01*
X2074792Y13521208D01*
X2091447Y13534876D01*
X2110443Y13545029D01*
X2131062Y13551284D01*
X2158640Y13554000D01*
X2667360Y13554000D01*
X2694938Y13551284D01*
G37*
G36*
X-2004062Y13597284D02*
G01*
X-1983443Y13591029D01*
X-1964447Y13580876D01*
X-1947792Y13567208D01*
X-1934124Y13550553D01*
X-1923971Y13531557D01*
X-1917716Y13510938D01*
X-1915000Y13483360D01*
X-1915000Y13024640D01*
X-1917716Y12997062D01*
X-1923971Y12976443D01*
X-1934124Y12957447D01*
X-1947792Y12940792D01*
X-1964447Y12927124D01*
X-1983443Y12916971D01*
X-2004062Y12910716D01*
X-2031640Y12908000D01*
X-2540360Y12908000D01*
X-2567938Y12910716D01*
X-2588557Y12916971D01*
X-2607553Y12927124D01*
X-2624208Y12940792D01*
X-2637876Y12957447D01*
X-2648029Y12976443D01*
X-2654284Y12997062D01*
X-2657000Y13024640D01*
X-2657000Y13483360D01*
X-2654284Y13510938D01*
X-2648029Y13531557D01*
X-2637876Y13550553D01*
X-2624208Y13567208D01*
X-2607553Y13580876D01*
X-2588557Y13591029D01*
X-2567938Y13597284D01*
X-2540360Y13600000D01*
X-2031640Y13600000D01*
X-2004062Y13597284D01*
G37*
G36*
X-701000Y12942000D02*
G01*
X-1453000Y12942000D01*
X-1453000Y13444000D01*
X-701000Y13444000D01*
X-701000Y12942000D01*
G37*
G36*
X1199000Y12942000D02*
G01*
X447000Y12942000D01*
X447000Y14744000D01*
X1199000Y14744000D01*
X1199000Y12942000D01*
G37*
G36*
X2694938Y14521284D02*
G01*
X2715557Y14515029D01*
X2734553Y14504876D01*
X2751208Y14491208D01*
X2764876Y14474553D01*
X2775029Y14455557D01*
X2781284Y14434938D01*
X2784000Y14407360D01*
X2784000Y13948640D01*
X2781284Y13921062D01*
X2775029Y13900443D01*
X2764876Y13881447D01*
X2751208Y13864792D01*
X2734553Y13851124D01*
X2715557Y13840971D01*
X2694938Y13834716D01*
X2667360Y13832000D01*
X2158640Y13832000D01*
X2131062Y13834716D01*
X2110443Y13840971D01*
X2091447Y13851124D01*
X2074792Y13864792D01*
X2061124Y13881447D01*
X2050971Y13900443D01*
X2044716Y13921062D01*
X2042000Y13948640D01*
X2042000Y14407360D01*
X2044716Y14434938D01*
X2050971Y14455557D01*
X2061124Y14474553D01*
X2074792Y14491208D01*
X2091447Y14504876D01*
X2110443Y14515029D01*
X2131062Y14521284D01*
X2158640Y14524000D01*
X2667360Y14524000D01*
X2694938Y14521284D01*
G37*
G36*
X-2004062Y14567284D02*
G01*
X-1983443Y14561029D01*
X-1964447Y14550876D01*
X-1947792Y14537208D01*
X-1934124Y14520553D01*
X-1923971Y14501557D01*
X-1917716Y14480938D01*
X-1915000Y14453360D01*
X-1915000Y13994640D01*
X-1917716Y13967062D01*
X-1923971Y13946443D01*
X-1934124Y13927447D01*
X-1947792Y13910792D01*
X-1964447Y13897124D01*
X-1983443Y13886971D01*
X-2004062Y13880716D01*
X-2031640Y13878000D01*
X-2540360Y13878000D01*
X-2567938Y13880716D01*
X-2588557Y13886971D01*
X-2607553Y13897124D01*
X-2624208Y13910792D01*
X-2637876Y13927447D01*
X-2648029Y13946443D01*
X-2654284Y13967062D01*
X-2657000Y13994640D01*
X-2657000Y14453360D01*
X-2654284Y14480938D01*
X-2648029Y14501557D01*
X-2637876Y14520553D01*
X-2624208Y14537208D01*
X-2607553Y14550876D01*
X-2588557Y14561029D01*
X-2567938Y14567284D01*
X-2540360Y14570000D01*
X-2031640Y14570000D01*
X-2004062Y14567284D01*
G37*
G36*
X-701000Y14242000D02*
G01*
X-1453000Y14242000D01*
X-1453000Y14744000D01*
X-701000Y14744000D01*
X-701000Y14242000D01*
G37*
G36*
X379487Y21251004D02*
G01*
X616253Y21152932D01*
X616255Y21152931D01*
X829339Y21010553D01*
X1010553Y20829339D01*
X1152932Y20616253D01*
X1251004Y20379487D01*
X1301000Y20128139D01*
X1301000Y19871861D01*
X1251004Y19620513D01*
X1152932Y19383747D01*
X1152931Y19383745D01*
X1010553Y19170661D01*
X829339Y18989447D01*
X616255Y18847069D01*
X616254Y18847068D01*
X616253Y18847068D01*
X379487Y18748996D01*
X128139Y18699000D01*
X-128139Y18699000D01*
X-379487Y18748996D01*
X-616253Y18847068D01*
X-616254Y18847068D01*
X-616255Y18847069D01*
X-829339Y18989447D01*
X-1010553Y19170661D01*
X-1152931Y19383745D01*
X-1152932Y19383747D01*
X-1251004Y19620513D01*
X-1301000Y19871861D01*
X-1301000Y20128139D01*
X-1251004Y20379487D01*
X-1152932Y20616253D01*
X-1010553Y20829339D01*
X-829339Y21010553D01*
X-616255Y21152931D01*
X-616253Y21152932D01*
X-379487Y21251004D01*
X-128139Y21301000D01*
X128139Y21301000D01*
X379487Y21251004D01*
G37*
M02*
