G04 #@! TF.GenerationSoftware,KiCad,Pcbnew,5.1.5-52549c5~84~ubuntu18.04.1*
G04 #@! TF.CreationDate,2019-12-08T01:29:41-05:00*
G04 #@! TF.ProjectId,SwarmBot,53776172-6d42-46f7-942e-6b696361645f,rev?*
G04 #@! TF.SameCoordinates,Original*
G04 #@! TF.FileFunction,Legend,Top*
G04 #@! TF.FilePolarity,Positive*
%FSLAX46Y46*%
G04 Gerber Fmt 4.6, Leading zero omitted, Abs format (unit mm)*
G04 Created by KiCad (PCBNEW 5.1.5-52549c5~84~ubuntu18.04.1) date 2019-12-08 01:29:41*
%MOMM*%
%LPD*%
G04 APERTURE LIST*
%ADD10C,0.120000*%
%ADD11C,0.254000*%
%ADD12C,0.100000*%
%ADD13C,0.127000*%
%ADD14C,0.150000*%
%ADD15C,0.050000*%
G04 APERTURE END LIST*
D10*
X-7862800Y18245600D02*
X-6462800Y18245600D01*
X-6462800Y20565600D02*
X-8362800Y20565600D01*
X-4713200Y21039600D02*
X-3313200Y21039600D01*
X-3313200Y23359600D02*
X-5213200Y23359600D01*
X6160000Y11400000D02*
X6160000Y10200000D01*
X-7650000Y17200000D02*
X-7650000Y15460000D01*
X7650000Y17200000D02*
X-7650000Y17200000D01*
X7650000Y15460000D02*
X7650000Y17200000D01*
X-7650000Y11400000D02*
X-7650000Y12740000D01*
X-6160000Y11400000D02*
X-7650000Y11400000D01*
X7650000Y11400000D02*
X7650000Y12740000D01*
X6160000Y11400000D02*
X7650000Y11400000D01*
X-2651000Y-9066000D02*
X-3126000Y-9066000D01*
X1094000Y-13286000D02*
X1094000Y-12811000D01*
X619000Y-13286000D02*
X1094000Y-13286000D01*
X-3126000Y-13286000D02*
X-3126000Y-12811000D01*
X-2651000Y-13286000D02*
X-3126000Y-13286000D01*
X1094000Y-9066000D02*
X1094000Y-9541000D01*
X619000Y-9066000D02*
X1094000Y-9066000D01*
X1837000Y-14139000D02*
X1837000Y-13984000D01*
X1837000Y-15399000D02*
X1837000Y-15589000D01*
X-1583000Y-16849000D02*
X-1583000Y-17004000D01*
X-1583000Y-15399000D02*
X-1583000Y-15589000D01*
X1837000Y-16849000D02*
X1837000Y-17004000D01*
X-1583000Y-17004000D02*
X1837000Y-17004000D01*
X-1873000Y-13984000D02*
X1837000Y-13984000D01*
X22284000Y8721000D02*
X22284000Y8876000D01*
X22284000Y7461000D02*
X22284000Y7271000D01*
X18864000Y6011000D02*
X18864000Y5856000D01*
X18864000Y7461000D02*
X18864000Y7271000D01*
X22284000Y6011000D02*
X22284000Y5856000D01*
X18864000Y5856000D02*
X22284000Y5856000D01*
X18574000Y8876000D02*
X22284000Y8876000D01*
X-12514000Y17357000D02*
X-12514000Y17512000D01*
X-12514000Y16097000D02*
X-12514000Y15907000D01*
X-15934000Y14647000D02*
X-15934000Y14492000D01*
X-15934000Y16097000D02*
X-15934000Y15907000D01*
X-12514000Y14647000D02*
X-12514000Y14492000D01*
X-15934000Y14492000D02*
X-12514000Y14492000D01*
X-16224000Y17512000D02*
X-12514000Y17512000D01*
X10325000Y-1110000D02*
X10100000Y-1110000D01*
X10325000Y-710000D02*
X10325000Y-1110000D01*
X10325000Y1110000D02*
X10100000Y1110000D01*
X10325000Y710000D02*
X10325000Y1110000D01*
X8105000Y1110000D02*
X8330000Y1110000D01*
X8105000Y710000D02*
X8105000Y1110000D01*
D11*
X-6942280Y-12607900D02*
G75*
G03X-6942280Y-12607900I-37120J0D01*
G01*
D12*
G36*
X-9278620Y-7894320D02*
G01*
X-9659620Y-7894320D01*
X-9659620Y-7767320D01*
X-9278620Y-7767320D01*
X-9278620Y-7894320D01*
G37*
D13*
X-10663620Y-8627320D02*
X-9183620Y-8627320D01*
X-10663620Y-6927320D02*
X-10663620Y-8627320D01*
X-9183620Y-6927320D02*
X-10663620Y-6927320D01*
X-9183620Y-8627320D02*
X-9183620Y-6927320D01*
D10*
X-17337000Y9254000D02*
X-15937000Y9254000D01*
X-15937000Y11574000D02*
X-17837000Y11574000D01*
D14*
X9381000Y-18887600D02*
X9881000Y-18887600D01*
X9381000Y-15637600D02*
X9881000Y-15637600D01*
X12631000Y-15637600D02*
X12131000Y-15637600D01*
X12631000Y-18887600D02*
X12131000Y-18887600D01*
X9381000Y-15637600D02*
X9381000Y-16137600D01*
X12631000Y-15637600D02*
X12631000Y-16137600D01*
X9381000Y-18887600D02*
X9381000Y-18387600D01*
D10*
X-19365500Y6541500D02*
X-19365500Y7941500D01*
X-21685500Y7941500D02*
X-21685500Y6041500D01*
X-14335000Y1475000D02*
X-14810000Y1475000D01*
X-10590000Y-2745000D02*
X-10590000Y-2270000D01*
X-11065000Y-2745000D02*
X-10590000Y-2745000D01*
X-14810000Y-2745000D02*
X-14810000Y-2270000D01*
X-14335000Y-2745000D02*
X-14810000Y-2745000D01*
X-10590000Y1475000D02*
X-10590000Y1000000D01*
X-11065000Y1475000D02*
X-10590000Y1475000D01*
X-22028300Y-9699180D02*
X-22028300Y-9799180D01*
X-18788300Y-9699180D02*
X-18788300Y-9799180D01*
X-22028300Y-9799180D02*
X-18788300Y-9799180D01*
X-22028300Y-7559180D02*
X-22028300Y-7659180D01*
X-18788300Y-7559180D02*
X-18788300Y-7659180D01*
X-22028300Y-7559180D02*
X-18788300Y-7559180D01*
X-22029500Y-7128700D02*
X-22029500Y-7228700D01*
X-18789500Y-7128700D02*
X-18789500Y-7228700D01*
X-22029500Y-7228700D02*
X-18789500Y-7228700D01*
X-22029500Y-4988700D02*
X-22029500Y-5088700D01*
X-18789500Y-4988700D02*
X-18789500Y-5088700D01*
X-22029500Y-4988700D02*
X-18789500Y-4988700D01*
X-9765000Y3500000D02*
X-11225000Y3500000D01*
X-9765000Y6660000D02*
X-11925000Y6660000D01*
X-9765000Y6660000D02*
X-9765000Y5730000D01*
X-9765000Y3500000D02*
X-9765000Y4430000D01*
X-12705000Y5840000D02*
X-12705000Y4380000D01*
X-15865000Y5840000D02*
X-15865000Y3680000D01*
X-15865000Y5840000D02*
X-14935000Y5840000D01*
X-12705000Y5840000D02*
X-13635000Y5840000D01*
X16330000Y10907500D02*
X16330000Y12157500D01*
X15080000Y10907500D02*
X16330000Y10907500D01*
X12970000Y15317500D02*
X12970000Y14817500D01*
X12870000Y14817500D02*
X12870000Y15317500D01*
X13070000Y14817500D02*
X12870000Y14817500D01*
X13070000Y15317500D02*
X13070000Y14817500D01*
X9910000Y13817500D02*
X10520000Y13817500D01*
X9910000Y12517500D02*
X10520000Y12517500D01*
X16030000Y13817500D02*
X15420000Y13817500D01*
X16030000Y12517500D02*
X15420000Y12517500D01*
X12470000Y11817500D02*
X12470000Y11207500D01*
X10520000Y11817500D02*
X12470000Y11817500D01*
X10520000Y15317500D02*
X10520000Y11817500D01*
X15420000Y15317500D02*
X10520000Y15317500D01*
X15420000Y11817500D02*
X15420000Y15317500D01*
X13470000Y11817500D02*
X15420000Y11817500D01*
X13470000Y11207500D02*
X13470000Y11817500D01*
X14270000Y11107500D02*
X14570000Y11107500D01*
X14570000Y11007500D02*
X14570000Y11207500D01*
X14270000Y11007500D02*
X14570000Y11007500D01*
X14270000Y11207500D02*
X14270000Y11007500D01*
X9910000Y11207500D02*
X16030000Y11207500D01*
X9910000Y15927500D02*
X9910000Y11207500D01*
X16030000Y15927500D02*
X9910000Y15927500D01*
X16030000Y11207500D02*
X16030000Y15927500D01*
X-24825000Y3810000D02*
X-24565000Y3810000D01*
X-22285000Y3810000D02*
X-20515000Y3810000D01*
X-20515000Y3810000D02*
X-20515000Y3430000D01*
X-20515000Y-3810000D02*
X-22285000Y-3810000D01*
X-24565000Y-3810000D02*
X-24825000Y-3810000D01*
X-20515000Y-3810000D02*
X-20515000Y-3430000D01*
X14260000Y-7290000D02*
X14260000Y-8400000D01*
X13500000Y-7290000D02*
X14260000Y-7290000D01*
X12740000Y-8963471D02*
X12740000Y-9510000D01*
X12740000Y-7290000D02*
X12740000Y-7836529D01*
X12740000Y-9510000D02*
X8995000Y-9510000D01*
X12740000Y-7290000D02*
X8995000Y-7290000D01*
X8995000Y-8707530D02*
X8995000Y-9510000D01*
X8995000Y-7290000D02*
X8995000Y-8092470D01*
D14*
X-7924704Y21953219D02*
X-7924704Y21143695D01*
X-7877085Y21048457D01*
X-7829466Y21000838D01*
X-7734228Y20953219D01*
X-7543752Y20953219D01*
X-7448514Y21000838D01*
X-7400895Y21048457D01*
X-7353276Y21143695D01*
X-7353276Y21953219D01*
X-6972323Y21953219D02*
X-6305657Y21953219D01*
X-6734228Y20953219D01*
X-4775104Y24747219D02*
X-4775104Y23937695D01*
X-4727485Y23842457D01*
X-4679866Y23794838D01*
X-4584628Y23747219D01*
X-4394152Y23747219D01*
X-4298914Y23794838D01*
X-4251295Y23842457D01*
X-4203676Y23937695D01*
X-4203676Y24747219D01*
X-3298914Y24747219D02*
X-3489390Y24747219D01*
X-3584628Y24699600D01*
X-3632247Y24651980D01*
X-3727485Y24509123D01*
X-3775104Y24318647D01*
X-3775104Y23937695D01*
X-3727485Y23842457D01*
X-3679866Y23794838D01*
X-3584628Y23747219D01*
X-3394152Y23747219D01*
X-3298914Y23794838D01*
X-3251295Y23842457D01*
X-3203676Y23937695D01*
X-3203676Y24175790D01*
X-3251295Y24271028D01*
X-3298914Y24318647D01*
X-3394152Y24366266D01*
X-3584628Y24366266D01*
X-3679866Y24318647D01*
X-3727485Y24271028D01*
X-3775104Y24175790D01*
X-1044619Y-17510857D02*
X-1520809Y-17844190D01*
X-1044619Y-18082285D02*
X-2044619Y-18082285D01*
X-2044619Y-17701333D01*
X-1997000Y-17606095D01*
X-1949380Y-17558476D01*
X-1854142Y-17510857D01*
X-1711285Y-17510857D01*
X-1616047Y-17558476D01*
X-1568428Y-17606095D01*
X-1520809Y-17701333D01*
X-1520809Y-18082285D01*
X-1044619Y-16558476D02*
X-1044619Y-17129904D01*
X-1044619Y-16844190D02*
X-2044619Y-16844190D01*
X-1901761Y-16939428D01*
X-1806523Y-17034666D01*
X-1758904Y-17129904D01*
X-1044619Y-16082285D02*
X-1044619Y-15891809D01*
X-1092238Y-15796571D01*
X-1139857Y-15748952D01*
X-1282714Y-15653714D01*
X-1473190Y-15606095D01*
X-1854142Y-15606095D01*
X-1949380Y-15653714D01*
X-1997000Y-15701333D01*
X-2044619Y-15796571D01*
X-2044619Y-15987047D01*
X-1997000Y-16082285D01*
X-1949380Y-16129904D01*
X-1854142Y-16177523D01*
X-1616047Y-16177523D01*
X-1520809Y-16129904D01*
X-1473190Y-16082285D01*
X-1425571Y-15987047D01*
X-1425571Y-15796571D01*
X-1473190Y-15701333D01*
X-1520809Y-15653714D01*
X-1616047Y-15606095D01*
X19402380Y5430142D02*
X18926190Y5096809D01*
X19402380Y4858714D02*
X18402380Y4858714D01*
X18402380Y5239666D01*
X18450000Y5334904D01*
X18497619Y5382523D01*
X18592857Y5430142D01*
X18735714Y5430142D01*
X18830952Y5382523D01*
X18878571Y5334904D01*
X18926190Y5239666D01*
X18926190Y4858714D01*
X19402380Y6382523D02*
X19402380Y5811095D01*
X19402380Y6096809D02*
X18402380Y6096809D01*
X18545238Y6001571D01*
X18640476Y5906333D01*
X18688095Y5811095D01*
X18830952Y6953952D02*
X18783333Y6858714D01*
X18735714Y6811095D01*
X18640476Y6763476D01*
X18592857Y6763476D01*
X18497619Y6811095D01*
X18450000Y6858714D01*
X18402380Y6953952D01*
X18402380Y7144428D01*
X18450000Y7239666D01*
X18497619Y7287285D01*
X18592857Y7334904D01*
X18640476Y7334904D01*
X18735714Y7287285D01*
X18783333Y7239666D01*
X18830952Y7144428D01*
X18830952Y6953952D01*
X18878571Y6858714D01*
X18926190Y6811095D01*
X19021428Y6763476D01*
X19211904Y6763476D01*
X19307142Y6811095D01*
X19354761Y6858714D01*
X19402380Y6953952D01*
X19402380Y7144428D01*
X19354761Y7239666D01*
X19307142Y7287285D01*
X19211904Y7334904D01*
X19021428Y7334904D01*
X18926190Y7287285D01*
X18878571Y7239666D01*
X18830952Y7144428D01*
X-15395619Y14066142D02*
X-15871809Y13732809D01*
X-15395619Y13494714D02*
X-16395619Y13494714D01*
X-16395619Y13875666D01*
X-16348000Y13970904D01*
X-16300380Y14018523D01*
X-16205142Y14066142D01*
X-16062285Y14066142D01*
X-15967047Y14018523D01*
X-15919428Y13970904D01*
X-15871809Y13875666D01*
X-15871809Y13494714D01*
X-15395619Y15018523D02*
X-15395619Y14447095D01*
X-15395619Y14732809D02*
X-16395619Y14732809D01*
X-16252761Y14637571D01*
X-16157523Y14542333D01*
X-16109904Y14447095D01*
X-16395619Y15351857D02*
X-16395619Y16018523D01*
X-15395619Y15589952D01*
X2685980Y8593933D02*
X2209790Y8260600D01*
X2685980Y8022504D02*
X1685980Y8022504D01*
X1685980Y8403457D01*
X1733600Y8498695D01*
X1781219Y8546314D01*
X1876457Y8593933D01*
X2019314Y8593933D01*
X2114552Y8546314D01*
X2162171Y8498695D01*
X2209790Y8403457D01*
X2209790Y8022504D01*
X1781219Y8974885D02*
X1733600Y9022504D01*
X1685980Y9117742D01*
X1685980Y9355838D01*
X1733600Y9451076D01*
X1781219Y9498695D01*
X1876457Y9546314D01*
X1971695Y9546314D01*
X2114552Y9498695D01*
X2685980Y8927266D01*
X2685980Y9546314D01*
X1517580Y8570933D02*
X1041390Y8237600D01*
X1517580Y7999504D02*
X517580Y7999504D01*
X517580Y8380457D01*
X565200Y8475695D01*
X612819Y8523314D01*
X708057Y8570933D01*
X850914Y8570933D01*
X946152Y8523314D01*
X993771Y8475695D01*
X1041390Y8380457D01*
X1041390Y7999504D01*
X1517580Y9523314D02*
X1517580Y8951885D01*
X1517580Y9237600D02*
X517580Y9237600D01*
X660438Y9142361D01*
X755676Y9047123D01*
X803295Y8951885D01*
X-333333Y9547619D02*
X-333333Y8833333D01*
X-380952Y8690476D01*
X-476190Y8595238D01*
X-619047Y8547619D01*
X-714285Y8547619D01*
X571428Y9547619D02*
X380952Y9547619D01*
X285714Y9500000D01*
X238095Y9452380D01*
X142857Y9309523D01*
X95238Y9119047D01*
X95238Y8738095D01*
X142857Y8642857D01*
X190476Y8595238D01*
X285714Y8547619D01*
X476190Y8547619D01*
X571428Y8595238D01*
X619047Y8642857D01*
X666666Y8738095D01*
X666666Y8976190D01*
X619047Y9071428D01*
X571428Y9119047D01*
X476190Y9166666D01*
X285714Y9166666D01*
X190476Y9119047D01*
X142857Y9071428D01*
X95238Y8976190D01*
X-1992190Y-8308380D02*
X-1992190Y-7308380D01*
X-944571Y-8213142D02*
X-992190Y-8260761D01*
X-1135047Y-8308380D01*
X-1230285Y-8308380D01*
X-1373142Y-8260761D01*
X-1468380Y-8165523D01*
X-1516000Y-8070285D01*
X-1563619Y-7879809D01*
X-1563619Y-7736952D01*
X-1516000Y-7546476D01*
X-1468380Y-7451238D01*
X-1373142Y-7356000D01*
X-1230285Y-7308380D01*
X-1135047Y-7308380D01*
X-992190Y-7356000D01*
X-944571Y-7403619D01*
X-563619Y-7403619D02*
X-516000Y-7356000D01*
X-420761Y-7308380D01*
X-182666Y-7308380D01*
X-87428Y-7356000D01*
X-39809Y-7403619D01*
X7809Y-7498857D01*
X7809Y-7594095D01*
X-39809Y-7736952D01*
X-611238Y-8308380D01*
X7809Y-8308380D01*
X-611095Y-13446380D02*
X-611095Y-12446380D01*
X-373000Y-12446380D01*
X-230142Y-12494000D01*
X-134904Y-12589238D01*
X-87285Y-12684476D01*
X-39666Y-12874952D01*
X-39666Y-13017809D01*
X-87285Y-13208285D01*
X-134904Y-13303523D01*
X-230142Y-13398761D01*
X-373000Y-13446380D01*
X-611095Y-13446380D01*
X293666Y-12446380D02*
X912714Y-12446380D01*
X579380Y-12827333D01*
X722238Y-12827333D01*
X817476Y-12874952D01*
X865095Y-12922571D01*
X912714Y-13017809D01*
X912714Y-13255904D01*
X865095Y-13351142D01*
X817476Y-13398761D01*
X722238Y-13446380D01*
X436523Y-13446380D01*
X341285Y-13398761D01*
X293666Y-13351142D01*
X19835904Y9413619D02*
X19835904Y10413619D01*
X20074000Y10413619D01*
X20216857Y10366000D01*
X20312095Y10270761D01*
X20359714Y10175523D01*
X20407333Y9985047D01*
X20407333Y9842190D01*
X20359714Y9651714D01*
X20312095Y9556476D01*
X20216857Y9461238D01*
X20074000Y9413619D01*
X19835904Y9413619D01*
X20788285Y10318380D02*
X20835904Y10366000D01*
X20931142Y10413619D01*
X21169238Y10413619D01*
X21264476Y10366000D01*
X21312095Y10318380D01*
X21359714Y10223142D01*
X21359714Y10127904D01*
X21312095Y9985047D01*
X20740666Y9413619D01*
X21359714Y9413619D01*
X-14962095Y18049619D02*
X-14962095Y19049619D01*
X-14724000Y19049619D01*
X-14581142Y19002000D01*
X-14485904Y18906761D01*
X-14438285Y18811523D01*
X-14390666Y18621047D01*
X-14390666Y18478190D01*
X-14438285Y18287714D01*
X-14485904Y18192476D01*
X-14581142Y18097238D01*
X-14724000Y18049619D01*
X-14962095Y18049619D01*
X-13438285Y18049619D02*
X-14009714Y18049619D01*
X-13724000Y18049619D02*
X-13724000Y19049619D01*
X-13819238Y18906761D01*
X-13914476Y18811523D01*
X-14009714Y18763904D01*
X-2587657Y-12405457D02*
X-2540038Y-12453076D01*
X-2492419Y-12595933D01*
X-2492419Y-12691171D01*
X-2540038Y-12834028D01*
X-2635276Y-12929266D01*
X-2730514Y-12976885D01*
X-2920990Y-13024504D01*
X-3063847Y-13024504D01*
X-3254323Y-12976885D01*
X-3349561Y-12929266D01*
X-3444800Y-12834028D01*
X-3492419Y-12691171D01*
X-3492419Y-12595933D01*
X-3444800Y-12453076D01*
X-3397180Y-12405457D01*
X-3397180Y-12024504D02*
X-3444800Y-11976885D01*
X-3492419Y-11881647D01*
X-3492419Y-11643552D01*
X-3444800Y-11548314D01*
X-3397180Y-11500695D01*
X-3301942Y-11453076D01*
X-3206704Y-11453076D01*
X-3063847Y-11500695D01*
X-2492419Y-12072123D01*
X-2492419Y-11453076D01*
X-2492419Y-10500695D02*
X-2492419Y-11072123D01*
X-2492419Y-10786409D02*
X-3492419Y-10786409D01*
X-3349561Y-10881647D01*
X-3254323Y-10976885D01*
X-3206704Y-11072123D01*
X-3502057Y18203942D02*
X-3454438Y18156323D01*
X-3406819Y18013466D01*
X-3406819Y17918228D01*
X-3454438Y17775371D01*
X-3549676Y17680133D01*
X-3644914Y17632514D01*
X-3835390Y17584895D01*
X-3978247Y17584895D01*
X-4168723Y17632514D01*
X-4263961Y17680133D01*
X-4359200Y17775371D01*
X-4406819Y17918228D01*
X-4406819Y18013466D01*
X-4359200Y18156323D01*
X-4311580Y18203942D01*
X-4311580Y18584895D02*
X-4359200Y18632514D01*
X-4406819Y18727752D01*
X-4406819Y18965847D01*
X-4359200Y19061085D01*
X-4311580Y19108704D01*
X-4216342Y19156323D01*
X-4121104Y19156323D01*
X-3978247Y19108704D01*
X-3406819Y18537276D01*
X-3406819Y19156323D01*
X-4406819Y19775371D02*
X-4406819Y19870609D01*
X-4359200Y19965847D01*
X-4311580Y20013466D01*
X-4216342Y20061085D01*
X-4025866Y20108704D01*
X-3787771Y20108704D01*
X-3597295Y20061085D01*
X-3502057Y20013466D01*
X-3454438Y19965847D01*
X-3406819Y19870609D01*
X-3406819Y19775371D01*
X-3454438Y19680133D01*
X-3502057Y19632514D01*
X-3597295Y19584895D01*
X-3787771Y19537276D01*
X-4025866Y19537276D01*
X-4216342Y19584895D01*
X-4311580Y19632514D01*
X-4359200Y19680133D01*
X-4406819Y19775371D01*
X-4656057Y18843657D02*
X-4703676Y18796038D01*
X-4846533Y18748419D01*
X-4941771Y18748419D01*
X-5084628Y18796038D01*
X-5179866Y18891276D01*
X-5227485Y18986514D01*
X-5275104Y19176990D01*
X-5275104Y19319847D01*
X-5227485Y19510323D01*
X-5179866Y19605561D01*
X-5084628Y19700800D01*
X-4941771Y19748419D01*
X-4846533Y19748419D01*
X-4703676Y19700800D01*
X-4656057Y19653180D01*
X-3703676Y18748419D02*
X-4275104Y18748419D01*
X-3989390Y18748419D02*
X-3989390Y19748419D01*
X-4084628Y19605561D01*
X-4179866Y19510323D01*
X-4275104Y19462704D01*
X-3227485Y18748419D02*
X-3037009Y18748419D01*
X-2941771Y18796038D01*
X-2894152Y18843657D01*
X-2798914Y18986514D01*
X-2751295Y19176990D01*
X-2751295Y19557942D01*
X-2798914Y19653180D01*
X-2846533Y19700800D01*
X-2941771Y19748419D01*
X-3132247Y19748419D01*
X-3227485Y19700800D01*
X-3275104Y19653180D01*
X-3322723Y19557942D01*
X-3322723Y19319847D01*
X-3275104Y19224609D01*
X-3227485Y19176990D01*
X-3132247Y19129371D01*
X-2941771Y19129371D01*
X-2846533Y19176990D01*
X-2798914Y19224609D01*
X-2751295Y19319847D01*
X-7010457Y21274942D02*
X-6962838Y21227323D01*
X-6915219Y21084466D01*
X-6915219Y20989228D01*
X-6962838Y20846371D01*
X-7058076Y20751133D01*
X-7153314Y20703514D01*
X-7343790Y20655895D01*
X-7486647Y20655895D01*
X-7677123Y20703514D01*
X-7772361Y20751133D01*
X-7867600Y20846371D01*
X-7915219Y20989228D01*
X-7915219Y21084466D01*
X-7867600Y21227323D01*
X-7819980Y21274942D01*
X-6915219Y22227323D02*
X-6915219Y21655895D01*
X-6915219Y21941609D02*
X-7915219Y21941609D01*
X-7772361Y21846371D01*
X-7677123Y21751133D01*
X-7629504Y21655895D01*
X-7486647Y22798752D02*
X-7534266Y22703514D01*
X-7581885Y22655895D01*
X-7677123Y22608276D01*
X-7724742Y22608276D01*
X-7819980Y22655895D01*
X-7867600Y22703514D01*
X-7915219Y22798752D01*
X-7915219Y22989228D01*
X-7867600Y23084466D01*
X-7819980Y23132085D01*
X-7724742Y23179704D01*
X-7677123Y23179704D01*
X-7581885Y23132085D01*
X-7534266Y23084466D01*
X-7486647Y22989228D01*
X-7486647Y22798752D01*
X-7439028Y22703514D01*
X-7391409Y22655895D01*
X-7296171Y22608276D01*
X-7105695Y22608276D01*
X-7010457Y22655895D01*
X-6962838Y22703514D01*
X-6915219Y22798752D01*
X-6915219Y22989228D01*
X-6962838Y23084466D01*
X-7010457Y23132085D01*
X-7105695Y23179704D01*
X-7296171Y23179704D01*
X-7391409Y23132085D01*
X-7439028Y23084466D01*
X-7486647Y22989228D01*
X-10109257Y18855533D02*
X-10061638Y18807914D01*
X-10014019Y18665057D01*
X-10014019Y18569819D01*
X-10061638Y18426961D01*
X-10156876Y18331723D01*
X-10252114Y18284104D01*
X-10442590Y18236485D01*
X-10585447Y18236485D01*
X-10775923Y18284104D01*
X-10871161Y18331723D01*
X-10966400Y18426961D01*
X-11014019Y18569819D01*
X-11014019Y18665057D01*
X-10966400Y18807914D01*
X-10918780Y18855533D01*
X-10014019Y19807914D02*
X-10014019Y19236485D01*
X-10014019Y19522200D02*
X-11014019Y19522200D01*
X-10871161Y19426961D01*
X-10775923Y19331723D01*
X-10728304Y19236485D01*
X6867380Y-761904D02*
X7676904Y-761904D01*
X7772142Y-714285D01*
X7819761Y-666666D01*
X7867380Y-571428D01*
X7867380Y-380952D01*
X7819761Y-285714D01*
X7772142Y-238095D01*
X7676904Y-190476D01*
X6867380Y-190476D01*
X7200714Y714285D02*
X7867380Y714285D01*
X6819761Y476190D02*
X7534047Y238095D01*
X7534047Y857142D01*
X7355742Y-15284380D02*
X7022409Y-14808190D01*
X6784314Y-15284380D02*
X6784314Y-14284380D01*
X7165266Y-14284380D01*
X7260504Y-14332000D01*
X7308123Y-14379619D01*
X7355742Y-14474857D01*
X7355742Y-14617714D01*
X7308123Y-14712952D01*
X7260504Y-14760571D01*
X7165266Y-14808190D01*
X6784314Y-14808190D01*
X8308123Y-15284380D02*
X7736695Y-15284380D01*
X8022409Y-15284380D02*
X8022409Y-14284380D01*
X7927171Y-14427238D01*
X7831933Y-14522476D01*
X7736695Y-14570095D01*
X9165266Y-14284380D02*
X8974790Y-14284380D01*
X8879552Y-14332000D01*
X8831933Y-14379619D01*
X8736695Y-14522476D01*
X8689076Y-14712952D01*
X8689076Y-15093904D01*
X8736695Y-15189142D01*
X8784314Y-15236761D01*
X8879552Y-15284380D01*
X9070028Y-15284380D01*
X9165266Y-15236761D01*
X9212885Y-15189142D01*
X9260504Y-15093904D01*
X9260504Y-14855809D01*
X9212885Y-14760571D01*
X9165266Y-14712952D01*
X9070028Y-14665333D01*
X8879552Y-14665333D01*
X8784314Y-14712952D01*
X8736695Y-14760571D01*
X8689076Y-14855809D01*
X13507342Y-17878380D02*
X13174009Y-17402190D01*
X12935914Y-17878380D02*
X12935914Y-16878380D01*
X13316866Y-16878380D01*
X13412104Y-16926000D01*
X13459723Y-16973619D01*
X13507342Y-17068857D01*
X13507342Y-17211714D01*
X13459723Y-17306952D01*
X13412104Y-17354571D01*
X13316866Y-17402190D01*
X12935914Y-17402190D01*
X14459723Y-17878380D02*
X13888295Y-17878380D01*
X14174009Y-17878380D02*
X14174009Y-16878380D01*
X14078771Y-17021238D01*
X13983533Y-17116476D01*
X13888295Y-17164095D01*
X15364485Y-16878380D02*
X14888295Y-16878380D01*
X14840676Y-17354571D01*
X14888295Y-17306952D01*
X14983533Y-17259333D01*
X15221628Y-17259333D01*
X15316866Y-17306952D01*
X15364485Y-17354571D01*
X15412104Y-17449809D01*
X15412104Y-17687904D01*
X15364485Y-17783142D01*
X15316866Y-17830761D01*
X15221628Y-17878380D01*
X14983533Y-17878380D01*
X14888295Y-17830761D01*
X14840676Y-17783142D01*
X-8279199Y-8766966D02*
X-8279199Y-9243157D01*
X-9279199Y-9243157D01*
X-9183960Y-8481252D02*
X-9231580Y-8433633D01*
X-9279199Y-8338395D01*
X-9279199Y-8100300D01*
X-9231580Y-8005061D01*
X-9183960Y-7957442D01*
X-9088722Y-7909823D01*
X-8993484Y-7909823D01*
X-8850627Y-7957442D01*
X-8279199Y-8528871D01*
X-8279199Y-7909823D01*
D11*
X-9097876Y-17497661D02*
X-10367876Y-17497661D01*
X-9218828Y-16167185D02*
X-9158352Y-16227661D01*
X-9097876Y-16409090D01*
X-9097876Y-16530042D01*
X-9158352Y-16711471D01*
X-9279304Y-16832423D01*
X-9400257Y-16892900D01*
X-9642161Y-16953376D01*
X-9823590Y-16953376D01*
X-10065495Y-16892900D01*
X-10186447Y-16832423D01*
X-10307400Y-16711471D01*
X-10367876Y-16530042D01*
X-10367876Y-16409090D01*
X-10307400Y-16227661D01*
X-10246923Y-16167185D01*
X-9097876Y-14957661D02*
X-9097876Y-15683376D01*
X-9097876Y-15320519D02*
X-10367876Y-15320519D01*
X-10186447Y-15441471D01*
X-10065495Y-15562423D01*
X-10005019Y-15683376D01*
D15*
X-11152667Y-9818986D02*
X-10676477Y-9818986D01*
X-11247905Y-10104700D02*
X-10914572Y-9104700D01*
X-10581239Y-10104700D01*
X-10247905Y-10104700D02*
X-10247905Y-9104700D01*
X-9676477Y-10104700D01*
X-9676477Y-9104700D01*
X-9343143Y-9104700D02*
X-8771715Y-9104700D01*
X-9057429Y-10104700D02*
X-9057429Y-9104700D01*
X-7914572Y-10104700D02*
X-8486000Y-10104700D01*
X-8200286Y-10104700D02*
X-8200286Y-9104700D01*
X-8295524Y-9247558D01*
X-8390762Y-9342796D01*
X-8486000Y-9390415D01*
X-15505762Y-5259939D02*
X-15458143Y-5212320D01*
X-15362905Y-5164700D01*
X-15124810Y-5164700D01*
X-15029572Y-5212320D01*
X-14981953Y-5259939D01*
X-14934334Y-5355177D01*
X-14934334Y-5450415D01*
X-14981953Y-5593272D01*
X-15553381Y-6164700D01*
X-14934334Y-6164700D01*
X-14077191Y-5498034D02*
X-14077191Y-6164700D01*
X-14315286Y-5117081D02*
X-14553381Y-5831367D01*
X-13934334Y-5831367D01*
X-13077191Y-5164700D02*
X-13553381Y-5164700D01*
X-13601000Y-5640891D01*
X-13553381Y-5593272D01*
X-13458143Y-5545653D01*
X-13220048Y-5545653D01*
X-13124810Y-5593272D01*
X-13077191Y-5640891D01*
X-13029572Y-5736129D01*
X-13029572Y-5974224D01*
X-13077191Y-6069462D01*
X-13124810Y-6117081D01*
X-13220048Y-6164700D01*
X-13458143Y-6164700D01*
X-13553381Y-6117081D01*
X-13601000Y-6069462D01*
X-12410524Y-5164700D02*
X-12315286Y-5164700D01*
X-12220048Y-5212320D01*
X-12172429Y-5259939D01*
X-12124810Y-5355177D01*
X-12077191Y-5545653D01*
X-12077191Y-5783748D01*
X-12124810Y-5974224D01*
X-12172429Y-6069462D01*
X-12220048Y-6117081D01*
X-12315286Y-6164700D01*
X-12410524Y-6164700D01*
X-12505762Y-6117081D01*
X-12553381Y-6069462D01*
X-12601000Y-5974224D01*
X-12648620Y-5783748D01*
X-12648620Y-5545653D01*
X-12601000Y-5355177D01*
X-12553381Y-5259939D01*
X-12505762Y-5212320D01*
X-12410524Y-5164700D01*
X-11696239Y-5878986D02*
X-11220048Y-5878986D01*
X-11791477Y-6164700D02*
X-11458143Y-5164700D01*
X-11124810Y-6164700D01*
X-10934334Y-5164700D02*
X-10362905Y-5164700D01*
X-10648620Y-6164700D02*
X-10648620Y-5164700D01*
X-9505762Y-6164700D02*
X-10077191Y-6164700D01*
X-9791477Y-6164700D02*
X-9791477Y-5164700D01*
X-9886715Y-5307558D01*
X-9981953Y-5402796D01*
X-10077191Y-5450415D01*
X-8934334Y-5593272D02*
X-9029572Y-5545653D01*
X-9077191Y-5498034D01*
X-9124810Y-5402796D01*
X-9124810Y-5355177D01*
X-9077191Y-5259939D01*
X-9029572Y-5212320D01*
X-8934334Y-5164700D01*
X-8743858Y-5164700D01*
X-8648620Y-5212320D01*
X-8601000Y-5259939D01*
X-8553381Y-5355177D01*
X-8553381Y-5402796D01*
X-8601000Y-5498034D01*
X-8648620Y-5545653D01*
X-8743858Y-5593272D01*
X-8934334Y-5593272D01*
X-9029572Y-5640891D01*
X-9077191Y-5688510D01*
X-9124810Y-5783748D01*
X-9124810Y-5974224D01*
X-9077191Y-6069462D01*
X-9029572Y-6117081D01*
X-8934334Y-6164700D01*
X-8743858Y-6164700D01*
X-8648620Y-6117081D01*
X-8601000Y-6069462D01*
X-8553381Y-5974224D01*
X-8553381Y-5783748D01*
X-8601000Y-5688510D01*
X-8648620Y-5640891D01*
X-8743858Y-5593272D01*
X-7791477Y-5640891D02*
X-7648620Y-5688510D01*
X-7601000Y-5736129D01*
X-7553381Y-5831367D01*
X-7553381Y-5974224D01*
X-7601000Y-6069462D01*
X-7648620Y-6117081D01*
X-7743858Y-6164700D01*
X-8124810Y-6164700D01*
X-8124810Y-5164700D01*
X-7791477Y-5164700D01*
X-7696239Y-5212320D01*
X-7648620Y-5259939D01*
X-7601000Y-5355177D01*
X-7601000Y-5450415D01*
X-7648620Y-5545653D01*
X-7696239Y-5593272D01*
X-7791477Y-5640891D01*
X-8124810Y-5640891D01*
X-6601000Y-6164700D02*
X-7172429Y-6164700D01*
X-6886715Y-6164700D02*
X-6886715Y-5164700D01*
X-6981953Y-5307558D01*
X-7077191Y-5402796D01*
X-7172429Y-5450415D01*
X-5981953Y-5164700D02*
X-5886715Y-5164700D01*
X-5791477Y-5212320D01*
X-5743858Y-5259939D01*
X-5696239Y-5355177D01*
X-5648620Y-5545653D01*
X-5648620Y-5783748D01*
X-5696239Y-5974224D01*
X-5743858Y-6069462D01*
X-5791477Y-6117081D01*
X-5886715Y-6164700D01*
X-5981953Y-6164700D01*
X-6077191Y-6117081D01*
X-6124810Y-6069462D01*
X-6172429Y-5974224D01*
X-6220048Y-5783748D01*
X-6220048Y-5545653D01*
X-6172429Y-5355177D01*
X-6124810Y-5259939D01*
X-6077191Y-5212320D01*
X-5981953Y-5164700D01*
X-5029572Y-5164700D02*
X-4934334Y-5164700D01*
X-4839096Y-5212320D01*
X-4791477Y-5259939D01*
X-4743858Y-5355177D01*
X-4696239Y-5545653D01*
X-4696239Y-5783748D01*
X-4743858Y-5974224D01*
X-4791477Y-6069462D01*
X-4839096Y-6117081D01*
X-4934334Y-6164700D01*
X-5029572Y-6164700D01*
X-5124810Y-6117081D01*
X-5172429Y-6069462D01*
X-5220048Y-5974224D01*
X-5267667Y-5783748D01*
X-5267667Y-5545653D01*
X-5220048Y-5355177D01*
X-5172429Y-5259939D01*
X-5124810Y-5212320D01*
X-5029572Y-5164700D01*
X-4267667Y-5640891D02*
X-3934334Y-5640891D01*
X-3791477Y-6164700D02*
X-4267667Y-6164700D01*
X-4267667Y-5164700D01*
X-3791477Y-5164700D01*
D14*
X-17398904Y12961619D02*
X-17398904Y12152095D01*
X-17351285Y12056857D01*
X-17303666Y12009238D01*
X-17208428Y11961619D01*
X-17017952Y11961619D01*
X-16922714Y12009238D01*
X-16875095Y12056857D01*
X-16827476Y12152095D01*
X-16827476Y12961619D01*
X-15875095Y12961619D02*
X-16351285Y12961619D01*
X-16398904Y12485428D01*
X-16351285Y12533047D01*
X-16256047Y12580666D01*
X-16017952Y12580666D01*
X-15922714Y12533047D01*
X-15875095Y12485428D01*
X-15827476Y12390190D01*
X-15827476Y12152095D01*
X-15875095Y12056857D01*
X-15922714Y12009238D01*
X-16017952Y11961619D01*
X-16256047Y11961619D01*
X-16351285Y12009238D01*
X-16398904Y12056857D01*
X10244095Y-19564980D02*
X10244095Y-20374504D01*
X10291714Y-20469742D01*
X10339333Y-20517361D01*
X10434571Y-20564980D01*
X10625047Y-20564980D01*
X10720285Y-20517361D01*
X10767904Y-20469742D01*
X10815523Y-20374504D01*
X10815523Y-19564980D01*
X11196476Y-19564980D02*
X11815523Y-19564980D01*
X11482190Y-19945933D01*
X11625047Y-19945933D01*
X11720285Y-19993552D01*
X11767904Y-20041171D01*
X11815523Y-20136409D01*
X11815523Y-20374504D01*
X11767904Y-20469742D01*
X11720285Y-20517361D01*
X11625047Y-20564980D01*
X11339333Y-20564980D01*
X11244095Y-20517361D01*
X11196476Y-20469742D01*
X-23073119Y6479595D02*
X-22263595Y6479595D01*
X-22168357Y6527214D01*
X-22120738Y6574833D01*
X-22073119Y6670071D01*
X-22073119Y6860547D01*
X-22120738Y6955785D01*
X-22168357Y7003404D01*
X-22263595Y7051023D01*
X-23073119Y7051023D01*
X-22977880Y7479595D02*
X-23025500Y7527214D01*
X-23073119Y7622452D01*
X-23073119Y7860547D01*
X-23025500Y7955785D01*
X-22977880Y8003404D01*
X-22882642Y8051023D01*
X-22787404Y8051023D01*
X-22644547Y8003404D01*
X-22073119Y7431976D01*
X-22073119Y8051023D01*
X-13461904Y3212619D02*
X-13461904Y2403095D01*
X-13414285Y2307857D01*
X-13366666Y2260238D01*
X-13271428Y2212619D01*
X-13080952Y2212619D01*
X-12985714Y2260238D01*
X-12938095Y2307857D01*
X-12890476Y2403095D01*
X-12890476Y3212619D01*
X-11890476Y2212619D02*
X-12461904Y2212619D01*
X-12176190Y2212619D02*
X-12176190Y3212619D01*
X-12271428Y3069761D01*
X-12366666Y2974523D01*
X-12461904Y2926904D01*
X-21741633Y-7083941D02*
X-21598776Y-7131560D01*
X-21360680Y-7131560D01*
X-21265442Y-7083941D01*
X-21217823Y-7036322D01*
X-21170204Y-6941084D01*
X-21170204Y-6845846D01*
X-21217823Y-6750608D01*
X-21265442Y-6702989D01*
X-21360680Y-6655370D01*
X-21551157Y-6607751D01*
X-21646395Y-6560132D01*
X-21694014Y-6512513D01*
X-21741633Y-6417275D01*
X-21741633Y-6322037D01*
X-21694014Y-6226799D01*
X-21646395Y-6179180D01*
X-21551157Y-6131560D01*
X-21313061Y-6131560D01*
X-21170204Y-6179180D01*
X-20836871Y-6131560D02*
X-20598776Y-7131560D01*
X-20408300Y-6417275D01*
X-20217823Y-7131560D01*
X-19979728Y-6131560D01*
X-19646395Y-6226799D02*
X-19598776Y-6179180D01*
X-19503538Y-6131560D01*
X-19265442Y-6131560D01*
X-19170204Y-6179180D01*
X-19122585Y-6226799D01*
X-19074966Y-6322037D01*
X-19074966Y-6417275D01*
X-19122585Y-6560132D01*
X-19694014Y-7131560D01*
X-19074966Y-7131560D01*
X-21742833Y-4513461D02*
X-21599976Y-4561080D01*
X-21361880Y-4561080D01*
X-21266642Y-4513461D01*
X-21219023Y-4465842D01*
X-21171404Y-4370604D01*
X-21171404Y-4275366D01*
X-21219023Y-4180128D01*
X-21266642Y-4132509D01*
X-21361880Y-4084890D01*
X-21552357Y-4037271D01*
X-21647595Y-3989652D01*
X-21695214Y-3942033D01*
X-21742833Y-3846795D01*
X-21742833Y-3751557D01*
X-21695214Y-3656319D01*
X-21647595Y-3608700D01*
X-21552357Y-3561080D01*
X-21314261Y-3561080D01*
X-21171404Y-3608700D01*
X-20838071Y-3561080D02*
X-20599976Y-4561080D01*
X-20409500Y-3846795D01*
X-20219023Y-4561080D01*
X-19980928Y-3561080D01*
X-19076166Y-4561080D02*
X-19647595Y-4561080D01*
X-19361880Y-4561080D02*
X-19361880Y-3561080D01*
X-19457119Y-3703938D01*
X-19552357Y-3799176D01*
X-19647595Y-3846795D01*
X9928180Y-19512657D02*
X9451990Y-19845990D01*
X9928180Y-20084085D02*
X8928180Y-20084085D01*
X8928180Y-19703133D01*
X8975800Y-19607895D01*
X9023419Y-19560276D01*
X9118657Y-19512657D01*
X9261514Y-19512657D01*
X9356752Y-19560276D01*
X9404371Y-19607895D01*
X9451990Y-19703133D01*
X9451990Y-20084085D01*
X9928180Y-18560276D02*
X9928180Y-19131704D01*
X9928180Y-18845990D02*
X8928180Y-18845990D01*
X9071038Y-18941228D01*
X9166276Y-19036466D01*
X9213895Y-19131704D01*
X9261514Y-17703133D02*
X9928180Y-17703133D01*
X8880561Y-17941228D02*
X9594847Y-18179323D01*
X9594847Y-17560276D01*
X13938180Y-19360257D02*
X13461990Y-19693590D01*
X13938180Y-19931685D02*
X12938180Y-19931685D01*
X12938180Y-19550733D01*
X12985800Y-19455495D01*
X13033419Y-19407876D01*
X13128657Y-19360257D01*
X13271514Y-19360257D01*
X13366752Y-19407876D01*
X13414371Y-19455495D01*
X13461990Y-19550733D01*
X13461990Y-19931685D01*
X13938180Y-18407876D02*
X13938180Y-18979304D01*
X13938180Y-18693590D02*
X12938180Y-18693590D01*
X13081038Y-18788828D01*
X13176276Y-18884066D01*
X13223895Y-18979304D01*
X12938180Y-18074542D02*
X12938180Y-17455495D01*
X13319133Y-17788828D01*
X13319133Y-17645971D01*
X13366752Y-17550733D01*
X13414371Y-17503114D01*
X13509609Y-17455495D01*
X13747704Y-17455495D01*
X13842942Y-17503114D01*
X13890561Y-17550733D01*
X13938180Y-17645971D01*
X13938180Y-17931685D01*
X13890561Y-18026923D01*
X13842942Y-18074542D01*
X8988380Y-19517457D02*
X8512190Y-19850790D01*
X8988380Y-20088885D02*
X7988380Y-20088885D01*
X7988380Y-19707933D01*
X8036000Y-19612695D01*
X8083619Y-19565076D01*
X8178857Y-19517457D01*
X8321714Y-19517457D01*
X8416952Y-19565076D01*
X8464571Y-19612695D01*
X8512190Y-19707933D01*
X8512190Y-20088885D01*
X8988380Y-18565076D02*
X8988380Y-19136504D01*
X8988380Y-18850790D02*
X7988380Y-18850790D01*
X8131238Y-18946028D01*
X8226476Y-19041266D01*
X8274095Y-19136504D01*
X8083619Y-18184123D02*
X8036000Y-18136504D01*
X7988380Y-18041266D01*
X7988380Y-17803171D01*
X8036000Y-17707933D01*
X8083619Y-17660314D01*
X8178857Y-17612695D01*
X8274095Y-17612695D01*
X8416952Y-17660314D01*
X8988380Y-18231742D01*
X8988380Y-17612695D01*
X12947580Y-19718257D02*
X12471390Y-20051590D01*
X12947580Y-20289685D02*
X11947580Y-20289685D01*
X11947580Y-19908733D01*
X11995200Y-19813495D01*
X12042819Y-19765876D01*
X12138057Y-19718257D01*
X12280914Y-19718257D01*
X12376152Y-19765876D01*
X12423771Y-19813495D01*
X12471390Y-19908733D01*
X12471390Y-20289685D01*
X12947580Y-18765876D02*
X12947580Y-19337304D01*
X12947580Y-19051590D02*
X11947580Y-19051590D01*
X12090438Y-19146828D01*
X12185676Y-19242066D01*
X12233295Y-19337304D01*
X12947580Y-17813495D02*
X12947580Y-18384923D01*
X12947580Y-18099209D02*
X11947580Y-18099209D01*
X12090438Y-18194447D01*
X12185676Y-18289685D01*
X12233295Y-18384923D01*
X-15463757Y-18018080D02*
X-15797090Y-17541890D01*
X-16035185Y-18018080D02*
X-16035185Y-17018080D01*
X-15654233Y-17018080D01*
X-15558995Y-17065700D01*
X-15511376Y-17113319D01*
X-15463757Y-17208557D01*
X-15463757Y-17351414D01*
X-15511376Y-17446652D01*
X-15558995Y-17494271D01*
X-15654233Y-17541890D01*
X-16035185Y-17541890D01*
X-14511376Y-18018080D02*
X-15082804Y-18018080D01*
X-14797090Y-18018080D02*
X-14797090Y-17018080D01*
X-14892328Y-17160938D01*
X-14987566Y-17256176D01*
X-15082804Y-17303795D01*
X-13892328Y-17018080D02*
X-13797090Y-17018080D01*
X-13701852Y-17065700D01*
X-13654233Y-17113319D01*
X-13606614Y-17208557D01*
X-13558995Y-17399033D01*
X-13558995Y-17637128D01*
X-13606614Y-17827604D01*
X-13654233Y-17922842D01*
X-13701852Y-17970461D01*
X-13797090Y-18018080D01*
X-13892328Y-18018080D01*
X-13987566Y-17970461D01*
X-14035185Y-17922842D01*
X-14082804Y-17827604D01*
X-14130423Y-17637128D01*
X-14130423Y-17399033D01*
X-14082804Y-17208557D01*
X-14035185Y-17113319D01*
X-13987566Y-17065700D01*
X-13892328Y-17018080D01*
X5708580Y-19011066D02*
X5232390Y-19344400D01*
X5708580Y-19582495D02*
X4708580Y-19582495D01*
X4708580Y-19201542D01*
X4756200Y-19106304D01*
X4803819Y-19058685D01*
X4899057Y-19011066D01*
X5041914Y-19011066D01*
X5137152Y-19058685D01*
X5184771Y-19106304D01*
X5232390Y-19201542D01*
X5232390Y-19582495D01*
X5708580Y-18534876D02*
X5708580Y-18344400D01*
X5660961Y-18249161D01*
X5613342Y-18201542D01*
X5470485Y-18106304D01*
X5280009Y-18058685D01*
X4899057Y-18058685D01*
X4803819Y-18106304D01*
X4756200Y-18153923D01*
X4708580Y-18249161D01*
X4708580Y-18439638D01*
X4756200Y-18534876D01*
X4803819Y-18582495D01*
X4899057Y-18630114D01*
X5137152Y-18630114D01*
X5232390Y-18582495D01*
X5280009Y-18534876D01*
X5327628Y-18439638D01*
X5327628Y-18249161D01*
X5280009Y-18153923D01*
X5232390Y-18106304D01*
X5137152Y-18058685D01*
X6168980Y-19015866D02*
X5692790Y-19349200D01*
X6168980Y-19587295D02*
X5168980Y-19587295D01*
X5168980Y-19206342D01*
X5216600Y-19111104D01*
X5264219Y-19063485D01*
X5359457Y-19015866D01*
X5502314Y-19015866D01*
X5597552Y-19063485D01*
X5645171Y-19111104D01*
X5692790Y-19206342D01*
X5692790Y-19587295D01*
X5597552Y-18444438D02*
X5549933Y-18539676D01*
X5502314Y-18587295D01*
X5407076Y-18634914D01*
X5359457Y-18634914D01*
X5264219Y-18587295D01*
X5216600Y-18539676D01*
X5168980Y-18444438D01*
X5168980Y-18253961D01*
X5216600Y-18158723D01*
X5264219Y-18111104D01*
X5359457Y-18063485D01*
X5407076Y-18063485D01*
X5502314Y-18111104D01*
X5549933Y-18158723D01*
X5597552Y-18253961D01*
X5597552Y-18444438D01*
X5645171Y-18539676D01*
X5692790Y-18587295D01*
X5788028Y-18634914D01*
X5978504Y-18634914D01*
X6073742Y-18587295D01*
X6121361Y-18539676D01*
X6168980Y-18444438D01*
X6168980Y-18253961D01*
X6121361Y-18158723D01*
X6073742Y-18111104D01*
X5978504Y-18063485D01*
X5788028Y-18063485D01*
X5692790Y-18111104D01*
X5645171Y-18158723D01*
X5597552Y-18253961D01*
X-14756566Y-20507280D02*
X-15089900Y-20031090D01*
X-15327995Y-20507280D02*
X-15327995Y-19507280D01*
X-14947042Y-19507280D01*
X-14851804Y-19554900D01*
X-14804185Y-19602519D01*
X-14756566Y-19697757D01*
X-14756566Y-19840614D01*
X-14804185Y-19935852D01*
X-14851804Y-19983471D01*
X-14947042Y-20031090D01*
X-15327995Y-20031090D01*
X-14423233Y-19507280D02*
X-13756566Y-19507280D01*
X-14185138Y-20507280D01*
X-18489999Y-6676686D02*
X-18966189Y-7010020D01*
X-18489999Y-7248115D02*
X-19489999Y-7248115D01*
X-19489999Y-6867162D01*
X-19442380Y-6771924D01*
X-19394760Y-6724305D01*
X-19299522Y-6676686D01*
X-19156665Y-6676686D01*
X-19061427Y-6724305D01*
X-19013808Y-6771924D01*
X-18966189Y-6867162D01*
X-18966189Y-7248115D01*
X-19489999Y-5819543D02*
X-19489999Y-6010020D01*
X-19442380Y-6105258D01*
X-19394760Y-6152877D01*
X-19251903Y-6248115D01*
X-19061427Y-6295734D01*
X-18680475Y-6295734D01*
X-18585237Y-6248115D01*
X-18537618Y-6200496D01*
X-18489999Y-6105258D01*
X-18489999Y-5914781D01*
X-18537618Y-5819543D01*
X-18585237Y-5771924D01*
X-18680475Y-5724305D01*
X-18918570Y-5724305D01*
X-19013808Y-5771924D01*
X-19061427Y-5819543D01*
X-19109046Y-5914781D01*
X-19109046Y-6105258D01*
X-19061427Y-6200496D01*
X-19013808Y-6248115D01*
X-18918570Y-6295734D01*
X-15622339Y-6689246D02*
X-16098529Y-7022580D01*
X-15622339Y-7260675D02*
X-16622339Y-7260675D01*
X-16622339Y-6879722D01*
X-16574720Y-6784484D01*
X-16527100Y-6736865D01*
X-16431862Y-6689246D01*
X-16289005Y-6689246D01*
X-16193767Y-6736865D01*
X-16146148Y-6784484D01*
X-16098529Y-6879722D01*
X-16098529Y-7260675D01*
X-16622339Y-5784484D02*
X-16622339Y-6260675D01*
X-16146148Y-6308294D01*
X-16193767Y-6260675D01*
X-16241386Y-6165437D01*
X-16241386Y-5927341D01*
X-16193767Y-5832103D01*
X-16146148Y-5784484D01*
X-16050910Y-5736865D01*
X-15812815Y-5736865D01*
X-15717577Y-5784484D01*
X-15669958Y-5832103D01*
X-15622339Y-5927341D01*
X-15622339Y-6165437D01*
X-15669958Y-6260675D01*
X-15717577Y-6308294D01*
X-12422166Y8083619D02*
X-12755500Y8559809D01*
X-12993595Y8083619D02*
X-12993595Y9083619D01*
X-12612642Y9083619D01*
X-12517404Y9036000D01*
X-12469785Y8988380D01*
X-12422166Y8893142D01*
X-12422166Y8750285D01*
X-12469785Y8655047D01*
X-12517404Y8607428D01*
X-12612642Y8559809D01*
X-12993595Y8559809D01*
X-11565023Y8750285D02*
X-11565023Y8083619D01*
X-11803119Y9131238D02*
X-12041214Y8416952D01*
X-11422166Y8416952D01*
X-15014619Y4509333D02*
X-15490809Y4176000D01*
X-15014619Y3937904D02*
X-16014619Y3937904D01*
X-16014619Y4318857D01*
X-15967000Y4414095D01*
X-15919380Y4461714D01*
X-15824142Y4509333D01*
X-15681285Y4509333D01*
X-15586047Y4461714D01*
X-15538428Y4414095D01*
X-15490809Y4318857D01*
X-15490809Y3937904D01*
X-16014619Y4842666D02*
X-16014619Y5461714D01*
X-15633666Y5128380D01*
X-15633666Y5271238D01*
X-15586047Y5366476D01*
X-15538428Y5414095D01*
X-15443190Y5461714D01*
X-15205095Y5461714D01*
X-15109857Y5414095D01*
X-15062238Y5366476D01*
X-15014619Y5271238D01*
X-15014619Y4985523D01*
X-15062238Y4890285D01*
X-15109857Y4842666D01*
X-10620238Y7032380D02*
X-10715476Y7080000D01*
X-10810714Y7175238D01*
X-10953571Y7318095D01*
X-11048809Y7365714D01*
X-11144047Y7365714D01*
X-11096428Y7127619D02*
X-11191666Y7175238D01*
X-11286904Y7270476D01*
X-11334523Y7460952D01*
X-11334523Y7794285D01*
X-11286904Y7984761D01*
X-11191666Y8080000D01*
X-11096428Y8127619D01*
X-10905952Y8127619D01*
X-10810714Y8080000D01*
X-10715476Y7984761D01*
X-10667857Y7794285D01*
X-10667857Y7460952D01*
X-10715476Y7270476D01*
X-10810714Y7175238D01*
X-10905952Y7127619D01*
X-11096428Y7127619D01*
X-10286904Y8032380D02*
X-10239285Y8080000D01*
X-10144047Y8127619D01*
X-9905952Y8127619D01*
X-9810714Y8080000D01*
X-9763095Y8032380D01*
X-9715476Y7937142D01*
X-9715476Y7841904D01*
X-9763095Y7699047D01*
X-10334523Y7127619D01*
X-9715476Y7127619D01*
X-16237380Y4984761D02*
X-16285000Y4889523D01*
X-16380238Y4794285D01*
X-16523095Y4651428D01*
X-16570714Y4556190D01*
X-16570714Y4460952D01*
X-16332619Y4508571D02*
X-16380238Y4413333D01*
X-16475476Y4318095D01*
X-16665952Y4270476D01*
X-16999285Y4270476D01*
X-17189761Y4318095D01*
X-17285000Y4413333D01*
X-17332619Y4508571D01*
X-17332619Y4699047D01*
X-17285000Y4794285D01*
X-17189761Y4889523D01*
X-16999285Y4937142D01*
X-16665952Y4937142D01*
X-16475476Y4889523D01*
X-16380238Y4794285D01*
X-16332619Y4699047D01*
X-16332619Y4508571D01*
X-16332619Y5889523D02*
X-16332619Y5318095D01*
X-16332619Y5603809D02*
X-17332619Y5603809D01*
X-17189761Y5508571D01*
X-17094523Y5413333D01*
X-17046904Y5318095D01*
X-8193066Y-9594780D02*
X-8669257Y-9594780D01*
X-8669257Y-8594780D01*
X-7335923Y-9594780D02*
X-7907352Y-9594780D01*
X-7621638Y-9594780D02*
X-7621638Y-8594780D01*
X-7716876Y-8737638D01*
X-7812114Y-8832876D01*
X-7907352Y-8880495D01*
X12636666Y10665119D02*
X12636666Y9950833D01*
X12589047Y9807976D01*
X12493809Y9712738D01*
X12350952Y9665119D01*
X12255714Y9665119D01*
X13589047Y10665119D02*
X13112857Y10665119D01*
X13065238Y10188928D01*
X13112857Y10236547D01*
X13208095Y10284166D01*
X13446190Y10284166D01*
X13541428Y10236547D01*
X13589047Y10188928D01*
X13636666Y10093690D01*
X13636666Y9855595D01*
X13589047Y9760357D01*
X13541428Y9712738D01*
X13446190Y9665119D01*
X13208095Y9665119D01*
X13112857Y9712738D01*
X13065238Y9760357D01*
X-19472619Y-333333D02*
X-18758333Y-333333D01*
X-18615476Y-380952D01*
X-18520238Y-476190D01*
X-18472619Y-619047D01*
X-18472619Y-714285D01*
X-19139285Y571428D02*
X-18472619Y571428D01*
X-19520238Y333333D02*
X-18805952Y95238D01*
X-18805952Y714285D01*
X14647380Y-8733333D02*
X15361666Y-8733333D01*
X15504523Y-8780952D01*
X15599761Y-8876190D01*
X15647380Y-9019047D01*
X15647380Y-9114285D01*
X14647380Y-8352380D02*
X14647380Y-7733333D01*
X15028333Y-8066666D01*
X15028333Y-7923809D01*
X15075952Y-7828571D01*
X15123571Y-7780952D01*
X15218809Y-7733333D01*
X15456904Y-7733333D01*
X15552142Y-7780952D01*
X15599761Y-7828571D01*
X15647380Y-7923809D01*
X15647380Y-8209523D01*
X15599761Y-8304761D01*
X15552142Y-8352380D01*
X-1238095Y23047619D02*
X-1238095Y24047619D01*
X-1238095Y23571428D02*
X-666666Y23571428D01*
X-666666Y23047619D02*
X-666666Y24047619D01*
X333333Y23047619D02*
X-238095Y23047619D01*
X47619Y23047619D02*
X47619Y24047619D01*
X-47619Y23904761D01*
X-142857Y23809523D01*
X-238095Y23761904D01*
X952380Y24047619D02*
X1047619Y24047619D01*
X1142857Y24000000D01*
X1190476Y23952380D01*
X1238095Y23857142D01*
X1285714Y23666666D01*
X1285714Y23428571D01*
X1238095Y23238095D01*
X1190476Y23142857D01*
X1142857Y23095238D01*
X1047619Y23047619D01*
X952380Y23047619D01*
X857142Y23095238D01*
X809523Y23142857D01*
X761904Y23238095D01*
X714285Y23428571D01*
X714285Y23666666D01*
X761904Y23857142D01*
X809523Y23952380D01*
X857142Y24000000D01*
X952380Y24047619D01*
X-761904Y-16952380D02*
X-761904Y-15952380D01*
X-761904Y-16428571D02*
X-190476Y-16428571D01*
X-190476Y-16952380D02*
X-190476Y-15952380D01*
X333333Y-16952380D02*
X523809Y-16952380D01*
X619047Y-16904761D01*
X666666Y-16857142D01*
X761904Y-16714285D01*
X809523Y-16523809D01*
X809523Y-16142857D01*
X761904Y-16047619D01*
X714285Y-16000000D01*
X619047Y-15952380D01*
X428571Y-15952380D01*
X333333Y-16000000D01*
X285714Y-16047619D01*
X238095Y-16142857D01*
X238095Y-16380952D01*
X285714Y-16476190D01*
X333333Y-16523809D01*
X428571Y-16571428D01*
X619047Y-16571428D01*
X714285Y-16523809D01*
X761904Y-16476190D01*
X809523Y-16380952D01*
X16838095Y-6552380D02*
X16838095Y-5552380D01*
X16838095Y-6028571D02*
X17409523Y-6028571D01*
X17409523Y-6552380D02*
X17409523Y-5552380D01*
X17838095Y-5647619D02*
X17885714Y-5600000D01*
X17980952Y-5552380D01*
X18219047Y-5552380D01*
X18314285Y-5600000D01*
X18361904Y-5647619D01*
X18409523Y-5742857D01*
X18409523Y-5838095D01*
X18361904Y-5980952D01*
X17790476Y-6552380D01*
X18409523Y-6552380D01*
X4838095Y-6552380D02*
X4838095Y-5552380D01*
X4838095Y-6028571D02*
X5409523Y-6028571D01*
X5409523Y-6552380D02*
X5409523Y-5552380D01*
X6409523Y-6552380D02*
X5838095Y-6552380D01*
X6123809Y-6552380D02*
X6123809Y-5552380D01*
X6028571Y-5695238D01*
X5933333Y-5790476D01*
X5838095Y-5838095D01*
X10429142Y-13792142D02*
X10381523Y-13839761D01*
X10238666Y-13887380D01*
X10143428Y-13887380D01*
X10000571Y-13839761D01*
X9905333Y-13744523D01*
X9857714Y-13649285D01*
X9810095Y-13458809D01*
X9810095Y-13315952D01*
X9857714Y-13125476D01*
X9905333Y-13030238D01*
X10000571Y-12935000D01*
X10143428Y-12887380D01*
X10238666Y-12887380D01*
X10381523Y-12935000D01*
X10429142Y-12982619D01*
X11381523Y-13887380D02*
X10810095Y-13887380D01*
X11095809Y-13887380D02*
X11095809Y-12887380D01*
X11000571Y-13030238D01*
X10905333Y-13125476D01*
X10810095Y-13173095D01*
X11714857Y-12887380D02*
X12381523Y-12887380D01*
X11952952Y-13887380D01*
X-15307977Y-7163037D02*
X-15260358Y-7210656D01*
X-15212739Y-7353513D01*
X-15212739Y-7448751D01*
X-15260358Y-7591608D01*
X-15355596Y-7686846D01*
X-15450834Y-7734465D01*
X-15641310Y-7782084D01*
X-15784167Y-7782084D01*
X-15974643Y-7734465D01*
X-16069881Y-7686846D01*
X-16165120Y-7591608D01*
X-16212739Y-7448751D01*
X-16212739Y-7353513D01*
X-16165120Y-7210656D01*
X-16117500Y-7163037D01*
X-15212739Y-6210656D02*
X-15212739Y-6782084D01*
X-15212739Y-6496370D02*
X-16212739Y-6496370D01*
X-16069881Y-6591608D01*
X-15974643Y-6686846D01*
X-15927024Y-6782084D01*
X-16212739Y-5353513D02*
X-16212739Y-5543989D01*
X-16165120Y-5639227D01*
X-16117500Y-5686846D01*
X-15974643Y-5782084D01*
X-15784167Y-5829703D01*
X-15403215Y-5829703D01*
X-15307977Y-5782084D01*
X-15260358Y-5734465D01*
X-15212739Y-5639227D01*
X-15212739Y-5448751D01*
X-15260358Y-5353513D01*
X-15307977Y-5305894D01*
X-15403215Y-5258275D01*
X-15641310Y-5258275D01*
X-15736548Y-5305894D01*
X-15784167Y-5353513D01*
X-15831786Y-5448751D01*
X-15831786Y-5639227D01*
X-15784167Y-5734465D01*
X-15736548Y-5782084D01*
X-15641310Y-5829703D01*
X-12950857Y9875142D02*
X-12903238Y9827523D01*
X-12855619Y9684666D01*
X-12855619Y9589428D01*
X-12903238Y9446571D01*
X-12998476Y9351333D01*
X-13093714Y9303714D01*
X-13284190Y9256095D01*
X-13427047Y9256095D01*
X-13617523Y9303714D01*
X-13712761Y9351333D01*
X-13808000Y9446571D01*
X-13855619Y9589428D01*
X-13855619Y9684666D01*
X-13808000Y9827523D01*
X-13760380Y9875142D01*
X-12855619Y10827523D02*
X-12855619Y10256095D01*
X-12855619Y10541809D02*
X-13855619Y10541809D01*
X-13712761Y10446571D01*
X-13617523Y10351333D01*
X-13569904Y10256095D01*
X-13855619Y11732285D02*
X-13855619Y11256095D01*
X-13379428Y11208476D01*
X-13427047Y11256095D01*
X-13474666Y11351333D01*
X-13474666Y11589428D01*
X-13427047Y11684666D01*
X-13379428Y11732285D01*
X-13284190Y11779904D01*
X-13046095Y11779904D01*
X-12950857Y11732285D01*
X-12903238Y11684666D01*
X-12855619Y11589428D01*
X-12855619Y11351333D01*
X-12903238Y11256095D01*
X-12950857Y11208476D01*
X-17649857Y9921142D02*
X-17602238Y9873523D01*
X-17554619Y9730666D01*
X-17554619Y9635428D01*
X-17602238Y9492571D01*
X-17697476Y9397333D01*
X-17792714Y9349714D01*
X-17983190Y9302095D01*
X-18126047Y9302095D01*
X-18316523Y9349714D01*
X-18411761Y9397333D01*
X-18507000Y9492571D01*
X-18554619Y9635428D01*
X-18554619Y9730666D01*
X-18507000Y9873523D01*
X-18459380Y9921142D01*
X-17554619Y10873523D02*
X-17554619Y10302095D01*
X-17554619Y10587809D02*
X-18554619Y10587809D01*
X-18411761Y10492571D01*
X-18316523Y10397333D01*
X-18268904Y10302095D01*
X-18221285Y11730666D02*
X-17554619Y11730666D01*
X-18602238Y11492571D02*
X-17887952Y11254476D01*
X-17887952Y11873523D01*
X8678142Y201357D02*
X8630523Y153738D01*
X8487666Y106119D01*
X8392428Y106119D01*
X8249571Y153738D01*
X8154333Y248976D01*
X8106714Y344214D01*
X8059095Y534690D01*
X8059095Y677547D01*
X8106714Y868023D01*
X8154333Y963261D01*
X8249571Y1058500D01*
X8392428Y1106119D01*
X8487666Y1106119D01*
X8630523Y1058500D01*
X8678142Y1010880D01*
X9630523Y106119D02*
X9059095Y106119D01*
X9344809Y106119D02*
X9344809Y1106119D01*
X9249571Y963261D01*
X9154333Y868023D01*
X9059095Y820404D01*
X9963857Y1106119D02*
X10582904Y1106119D01*
X10249571Y725166D01*
X10392428Y725166D01*
X10487666Y677547D01*
X10535285Y629928D01*
X10582904Y534690D01*
X10582904Y296595D01*
X10535285Y201357D01*
X10487666Y153738D01*
X10392428Y106119D01*
X10106714Y106119D01*
X10011476Y153738D01*
X9963857Y201357D01*
X11730642Y-2727357D02*
X11778261Y-2774976D01*
X11825880Y-2917833D01*
X11825880Y-3013071D01*
X11778261Y-3155928D01*
X11683023Y-3251166D01*
X11587785Y-3298785D01*
X11397309Y-3346404D01*
X11254452Y-3346404D01*
X11063976Y-3298785D01*
X10968738Y-3251166D01*
X10873500Y-3155928D01*
X10825880Y-3013071D01*
X10825880Y-2917833D01*
X10873500Y-2774976D01*
X10921119Y-2727357D01*
X11825880Y-1774976D02*
X11825880Y-2346404D01*
X11825880Y-2060690D02*
X10825880Y-2060690D01*
X10968738Y-2155928D01*
X11063976Y-2251166D01*
X11111595Y-2346404D01*
X10921119Y-1394023D02*
X10873500Y-1346404D01*
X10825880Y-1251166D01*
X10825880Y-1013071D01*
X10873500Y-917833D01*
X10921119Y-870214D01*
X11016357Y-822595D01*
X11111595Y-822595D01*
X11254452Y-870214D01*
X11825880Y-1441642D01*
X11825880Y-822595D01*
X7203342Y-21847142D02*
X7155723Y-21894761D01*
X7012866Y-21942380D01*
X6917628Y-21942380D01*
X6774771Y-21894761D01*
X6679533Y-21799523D01*
X6631914Y-21704285D01*
X6584295Y-21513809D01*
X6584295Y-21370952D01*
X6631914Y-21180476D01*
X6679533Y-21085238D01*
X6774771Y-20990000D01*
X6917628Y-20942380D01*
X7012866Y-20942380D01*
X7155723Y-20990000D01*
X7203342Y-21037619D01*
X8155723Y-21942380D02*
X7584295Y-21942380D01*
X7870009Y-21942380D02*
X7870009Y-20942380D01*
X7774771Y-21085238D01*
X7679533Y-21180476D01*
X7584295Y-21228095D01*
X9108104Y-21942380D02*
X8536676Y-21942380D01*
X8822390Y-21942380D02*
X8822390Y-20942380D01*
X8727152Y-21085238D01*
X8631914Y-21180476D01*
X8536676Y-21228095D01*
X7013542Y-19489657D02*
X7061161Y-19537276D01*
X7108780Y-19680133D01*
X7108780Y-19775371D01*
X7061161Y-19918228D01*
X6965923Y-20013466D01*
X6870685Y-20061085D01*
X6680209Y-20108704D01*
X6537352Y-20108704D01*
X6346876Y-20061085D01*
X6251638Y-20013466D01*
X6156400Y-19918228D01*
X6108780Y-19775371D01*
X6108780Y-19680133D01*
X6156400Y-19537276D01*
X6204019Y-19489657D01*
X7108780Y-18537276D02*
X7108780Y-19108704D01*
X7108780Y-18822990D02*
X6108780Y-18822990D01*
X6251638Y-18918228D01*
X6346876Y-19013466D01*
X6394495Y-19108704D01*
X6108780Y-17918228D02*
X6108780Y-17822990D01*
X6156400Y-17727752D01*
X6204019Y-17680133D01*
X6299257Y-17632514D01*
X6489733Y-17584895D01*
X6727828Y-17584895D01*
X6918304Y-17632514D01*
X7013542Y-17680133D01*
X7061161Y-17727752D01*
X7108780Y-17822990D01*
X7108780Y-17918228D01*
X7061161Y-18013466D01*
X7013542Y-18061085D01*
X6918304Y-18108704D01*
X6727828Y-18156323D01*
X6489733Y-18156323D01*
X6299257Y-18108704D01*
X6204019Y-18061085D01*
X6156400Y-18013466D01*
X6108780Y-17918228D01*
X-14342777Y-6689246D02*
X-14295158Y-6736865D01*
X-14247539Y-6879722D01*
X-14247539Y-6974960D01*
X-14295158Y-7117818D01*
X-14390396Y-7213056D01*
X-14485634Y-7260675D01*
X-14676110Y-7308294D01*
X-14818967Y-7308294D01*
X-15009443Y-7260675D01*
X-15104681Y-7213056D01*
X-15199920Y-7117818D01*
X-15247539Y-6974960D01*
X-15247539Y-6879722D01*
X-15199920Y-6736865D01*
X-15152300Y-6689246D01*
X-14247539Y-6213056D02*
X-14247539Y-6022580D01*
X-14295158Y-5927341D01*
X-14342777Y-5879722D01*
X-14485634Y-5784484D01*
X-14676110Y-5736865D01*
X-15057062Y-5736865D01*
X-15152300Y-5784484D01*
X-15199920Y-5832103D01*
X-15247539Y-5927341D01*
X-15247539Y-6117818D01*
X-15199920Y-6213056D01*
X-15152300Y-6260675D01*
X-15057062Y-6308294D01*
X-14818967Y-6308294D01*
X-14723729Y-6260675D01*
X-14676110Y-6213056D01*
X-14628491Y-6117818D01*
X-14628491Y-5927341D01*
X-14676110Y-5832103D01*
X-14723729Y-5784484D01*
X-14818967Y-5736865D01*
X-20931166Y10274357D02*
X-20978785Y10226738D01*
X-21121642Y10179119D01*
X-21216880Y10179119D01*
X-21359738Y10226738D01*
X-21454976Y10321976D01*
X-21502595Y10417214D01*
X-21550214Y10607690D01*
X-21550214Y10750547D01*
X-21502595Y10941023D01*
X-21454976Y11036261D01*
X-21359738Y11131500D01*
X-21216880Y11179119D01*
X-21121642Y11179119D01*
X-20978785Y11131500D01*
X-20931166Y11083880D01*
X-20359738Y10750547D02*
X-20454976Y10798166D01*
X-20502595Y10845785D01*
X-20550214Y10941023D01*
X-20550214Y10988642D01*
X-20502595Y11083880D01*
X-20454976Y11131500D01*
X-20359738Y11179119D01*
X-20169261Y11179119D01*
X-20074023Y11131500D01*
X-20026404Y11083880D01*
X-19978785Y10988642D01*
X-19978785Y10941023D01*
X-20026404Y10845785D01*
X-20074023Y10798166D01*
X-20169261Y10750547D01*
X-20359738Y10750547D01*
X-20454976Y10702928D01*
X-20502595Y10655309D01*
X-20550214Y10560071D01*
X-20550214Y10369595D01*
X-20502595Y10274357D01*
X-20454976Y10226738D01*
X-20359738Y10179119D01*
X-20169261Y10179119D01*
X-20074023Y10226738D01*
X-20026404Y10274357D01*
X-19978785Y10369595D01*
X-19978785Y10560071D01*
X-20026404Y10655309D01*
X-20074023Y10702928D01*
X-20169261Y10750547D01*
X-20781166Y5956357D02*
X-20828785Y5908738D01*
X-20971642Y5861119D01*
X-21066880Y5861119D01*
X-21209738Y5908738D01*
X-21304976Y6003976D01*
X-21352595Y6099214D01*
X-21400214Y6289690D01*
X-21400214Y6432547D01*
X-21352595Y6623023D01*
X-21304976Y6718261D01*
X-21209738Y6813500D01*
X-21066880Y6861119D01*
X-20971642Y6861119D01*
X-20828785Y6813500D01*
X-20781166Y6765880D01*
X-20447833Y6861119D02*
X-19781166Y6861119D01*
X-20209738Y5861119D01*
X-14347857Y-2556666D02*
X-14300238Y-2604285D01*
X-14252619Y-2747142D01*
X-14252619Y-2842380D01*
X-14300238Y-2985238D01*
X-14395476Y-3080476D01*
X-14490714Y-3128095D01*
X-14681190Y-3175714D01*
X-14824047Y-3175714D01*
X-15014523Y-3128095D01*
X-15109761Y-3080476D01*
X-15205000Y-2985238D01*
X-15252619Y-2842380D01*
X-15252619Y-2747142D01*
X-15205000Y-2604285D01*
X-15157380Y-2556666D01*
X-15252619Y-1699523D02*
X-15252619Y-1890000D01*
X-15205000Y-1985238D01*
X-15157380Y-2032857D01*
X-15014523Y-2128095D01*
X-14824047Y-2175714D01*
X-14443095Y-2175714D01*
X-14347857Y-2128095D01*
X-14300238Y-2080476D01*
X-14252619Y-1985238D01*
X-14252619Y-1794761D01*
X-14300238Y-1699523D01*
X-14347857Y-1651904D01*
X-14443095Y-1604285D01*
X-14681190Y-1604285D01*
X-14776428Y-1651904D01*
X-14824047Y-1699523D01*
X-14871666Y-1794761D01*
X-14871666Y-1985238D01*
X-14824047Y-2080476D01*
X-14776428Y-2128095D01*
X-14681190Y-2175714D01*
X-14644666Y-5273642D02*
X-14692285Y-5321261D01*
X-14835142Y-5368880D01*
X-14930380Y-5368880D01*
X-15073238Y-5321261D01*
X-15168476Y-5226023D01*
X-15216095Y-5130785D01*
X-15263714Y-4940309D01*
X-15263714Y-4797452D01*
X-15216095Y-4606976D01*
X-15168476Y-4511738D01*
X-15073238Y-4416500D01*
X-14930380Y-4368880D01*
X-14835142Y-4368880D01*
X-14692285Y-4416500D01*
X-14644666Y-4464119D01*
X-13739904Y-4368880D02*
X-14216095Y-4368880D01*
X-14263714Y-4845071D01*
X-14216095Y-4797452D01*
X-14120857Y-4749833D01*
X-13882761Y-4749833D01*
X-13787523Y-4797452D01*
X-13739904Y-4845071D01*
X-13692285Y-4940309D01*
X-13692285Y-5178404D01*
X-13739904Y-5273642D01*
X-13787523Y-5321261D01*
X-13882761Y-5368880D01*
X-14120857Y-5368880D01*
X-14216095Y-5321261D01*
X-14263714Y-5273642D01*
X-6451657Y-14515266D02*
X-6404038Y-14562885D01*
X-6356419Y-14705742D01*
X-6356419Y-14800980D01*
X-6404038Y-14943838D01*
X-6499276Y-15039076D01*
X-6594514Y-15086695D01*
X-6784990Y-15134314D01*
X-6927847Y-15134314D01*
X-7118323Y-15086695D01*
X-7213561Y-15039076D01*
X-7308800Y-14943838D01*
X-7356419Y-14800980D01*
X-7356419Y-14705742D01*
X-7308800Y-14562885D01*
X-7261180Y-14515266D01*
X-7023085Y-13658123D02*
X-6356419Y-13658123D01*
X-7404038Y-13896219D02*
X-6689752Y-14134314D01*
X-6689752Y-13515266D01*
X-4060857Y-20232666D02*
X-4013238Y-20280285D01*
X-3965619Y-20423142D01*
X-3965619Y-20518380D01*
X-4013238Y-20661238D01*
X-4108476Y-20756476D01*
X-4203714Y-20804095D01*
X-4394190Y-20851714D01*
X-4537047Y-20851714D01*
X-4727523Y-20804095D01*
X-4822761Y-20756476D01*
X-4918000Y-20661238D01*
X-4965619Y-20518380D01*
X-4965619Y-20423142D01*
X-4918000Y-20280285D01*
X-4870380Y-20232666D01*
X-4965619Y-19899333D02*
X-4965619Y-19280285D01*
X-4584666Y-19613619D01*
X-4584666Y-19470761D01*
X-4537047Y-19375523D01*
X-4489428Y-19327904D01*
X-4394190Y-19280285D01*
X-4156095Y-19280285D01*
X-4060857Y-19327904D01*
X-4013238Y-19375523D01*
X-3965619Y-19470761D01*
X-3965619Y-19756476D01*
X-4013238Y-19851714D01*
X-4060857Y-19899333D01*
X-8394757Y-11939566D02*
X-8347138Y-11987185D01*
X-8299519Y-12130042D01*
X-8299519Y-12225280D01*
X-8347138Y-12368138D01*
X-8442376Y-12463376D01*
X-8537614Y-12510995D01*
X-8728090Y-12558614D01*
X-8870947Y-12558614D01*
X-9061423Y-12510995D01*
X-9156661Y-12463376D01*
X-9251900Y-12368138D01*
X-9299519Y-12225280D01*
X-9299519Y-12130042D01*
X-9251900Y-11987185D01*
X-9204280Y-11939566D01*
X-9204280Y-11558614D02*
X-9251900Y-11510995D01*
X-9299519Y-11415757D01*
X-9299519Y-11177661D01*
X-9251900Y-11082423D01*
X-9204280Y-11034804D01*
X-9109042Y-10987185D01*
X-9013804Y-10987185D01*
X-8870947Y-11034804D01*
X-8299519Y-11606233D01*
X-8299519Y-10987185D01*
M02*
