G04 #@! TF.GenerationSoftware,KiCad,Pcbnew,5.1.5-52549c5~84~ubuntu18.04.1*
G04 #@! TF.CreationDate,2019-12-19T20:37:04-05:00*
G04 #@! TF.ProjectId,SwarmBot,53776172-6d42-46f7-942e-6b696361645f,rev?*
G04 #@! TF.SameCoordinates,Original*
G04 #@! TF.FileFunction,Legend,Bot*
G04 #@! TF.FilePolarity,Positive*
%FSLAX46Y46*%
G04 Gerber Fmt 4.6, Leading zero omitted, Abs format (unit mm)*
G04 Created by KiCad (PCBNEW 5.1.5-52549c5~84~ubuntu18.04.1) date 2019-12-19 20:37:04*
%MOMM*%
%LPD*%
G04 APERTURE LIST*
%ADD10C,0.200000*%
%ADD11C,0.300000*%
%ADD12C,0.120000*%
G04 APERTURE END LIST*
D10*
X5076190Y10547619D02*
X5076190Y11547619D01*
X4504761Y10547619D02*
X4933333Y11119047D01*
X4504761Y11547619D02*
X5076190Y10976190D01*
X3695238Y10595238D02*
X3790476Y10547619D01*
X3980952Y10547619D01*
X4076190Y10595238D01*
X4123809Y10690476D01*
X4123809Y11071428D01*
X4076190Y11166666D01*
X3980952Y11214285D01*
X3790476Y11214285D01*
X3695238Y11166666D01*
X3647619Y11071428D01*
X3647619Y10976190D01*
X4123809Y10880952D01*
X3219047Y10547619D02*
X3219047Y11214285D01*
X3219047Y11547619D02*
X3266666Y11500000D01*
X3219047Y11452380D01*
X3171428Y11500000D01*
X3219047Y11547619D01*
X3219047Y11452380D01*
X2600000Y10547619D02*
X2695238Y10595238D01*
X2742857Y10642857D01*
X2790476Y10738095D01*
X2790476Y11023809D01*
X2742857Y11119047D01*
X2695238Y11166666D01*
X2600000Y11214285D01*
X2457142Y11214285D01*
X2361904Y11166666D01*
X2314285Y11119047D01*
X2266666Y11023809D01*
X2266666Y10738095D01*
X2314285Y10642857D01*
X2361904Y10595238D01*
X2457142Y10547619D01*
X2600000Y10547619D01*
X1838095Y11214285D02*
X1838095Y10547619D01*
X1838095Y11119047D02*
X1790476Y11166666D01*
X1695238Y11214285D01*
X1552380Y11214285D01*
X1457142Y11166666D01*
X1409523Y11071428D01*
X1409523Y10547619D01*
X-161904Y11071428D02*
X-304761Y11023809D01*
X-352380Y10976190D01*
X-399999Y10880952D01*
X-399999Y10738095D01*
X-352380Y10642857D01*
X-304761Y10595238D01*
X-209523Y10547619D01*
X171428Y10547619D01*
X171428Y11547619D01*
X-161904Y11547619D01*
X-257142Y11500000D01*
X-304761Y11452380D01*
X-352380Y11357142D01*
X-352380Y11261904D01*
X-304761Y11166666D01*
X-257142Y11119047D01*
X-161904Y11071428D01*
X171428Y11071428D01*
X-828571Y10547619D02*
X-828571Y11214285D01*
X-828571Y11547619D02*
X-780952Y11500000D01*
X-828571Y11452380D01*
X-876190Y11500000D01*
X-828571Y11547619D01*
X-828571Y11452380D01*
X-1257142Y10595238D02*
X-1352380Y10547619D01*
X-1542857Y10547619D01*
X-1638095Y10595238D01*
X-1685714Y10690476D01*
X-1685714Y10738095D01*
X-1638095Y10833333D01*
X-1542857Y10880952D01*
X-1399999Y10880952D01*
X-1304761Y10928571D01*
X-1257142Y11023809D01*
X-1257142Y11071428D01*
X-1304761Y11166666D01*
X-1399999Y11214285D01*
X-1542857Y11214285D01*
X-1638095Y11166666D01*
X-2257142Y10547619D02*
X-2161904Y10595238D01*
X-2114285Y10690476D01*
X-2114285Y11547619D01*
X-3066666Y10547619D02*
X-3066666Y11071428D01*
X-3019047Y11166666D01*
X-2923809Y11214285D01*
X-2733333Y11214285D01*
X-2638095Y11166666D01*
X-3066666Y10595238D02*
X-2971428Y10547619D01*
X-2733333Y10547619D01*
X-2638095Y10595238D01*
X-2590476Y10690476D01*
X-2590476Y10785714D01*
X-2638095Y10880952D01*
X-2733333Y10928571D01*
X-2971428Y10928571D01*
X-3066666Y10976190D01*
X-3542857Y11214285D02*
X-3542857Y10547619D01*
X-3542857Y11119047D02*
X-3590476Y11166666D01*
X-3685714Y11214285D01*
X-3828571Y11214285D01*
X-3923809Y11166666D01*
X-3971428Y11071428D01*
X-3971428Y10547619D01*
X-4876190Y10547619D02*
X-4876190Y11547619D01*
X-4876190Y10595238D02*
X-4780952Y10547619D01*
X-4590476Y10547619D01*
X-4495238Y10595238D01*
X-4447619Y10642857D01*
X-4399999Y10738095D01*
X-4399999Y11023809D01*
X-4447619Y11119047D01*
X-4495238Y11166666D01*
X-4590476Y11214285D01*
X-4780952Y11214285D01*
X-4876190Y11166666D01*
X1814285Y9752380D02*
X1766666Y9800000D01*
X1671428Y9847619D01*
X1433333Y9847619D01*
X1338095Y9800000D01*
X1290476Y9752380D01*
X1242857Y9657142D01*
X1242857Y9561904D01*
X1290476Y9419047D01*
X1861904Y8847619D01*
X1242857Y8847619D01*
X623809Y9847619D02*
X528571Y9847619D01*
X433333Y9800000D01*
X385714Y9752380D01*
X338095Y9657142D01*
X290476Y9466666D01*
X290476Y9228571D01*
X338095Y9038095D01*
X385714Y8942857D01*
X433333Y8895238D01*
X528571Y8847619D01*
X623809Y8847619D01*
X719047Y8895238D01*
X766666Y8942857D01*
X814285Y9038095D01*
X861904Y9228571D01*
X861904Y9466666D01*
X814285Y9657142D01*
X766666Y9752380D01*
X719047Y9800000D01*
X623809Y9847619D01*
X-661904Y8847619D02*
X-90476Y8847619D01*
X-376190Y8847619D02*
X-376190Y9847619D01*
X-280952Y9704761D01*
X-185714Y9609523D01*
X-90476Y9561904D01*
X-1138095Y8847619D02*
X-1328571Y8847619D01*
X-1423809Y8895238D01*
X-1471428Y8942857D01*
X-1566666Y9085714D01*
X-1614285Y9276190D01*
X-1614285Y9657142D01*
X-1566666Y9752380D01*
X-1519047Y9800000D01*
X-1423809Y9847619D01*
X-1233333Y9847619D01*
X-1138095Y9800000D01*
X-1090476Y9752380D01*
X-1042857Y9657142D01*
X-1042857Y9419047D01*
X-1090476Y9323809D01*
X-1138095Y9276190D01*
X-1233333Y9228571D01*
X-1423809Y9228571D01*
X-1519047Y9276190D01*
X-1566666Y9323809D01*
X-1614285Y9419047D01*
D11*
X5254285Y17462857D02*
X5039999Y17391428D01*
X4682857Y17391428D01*
X4539999Y17462857D01*
X4468571Y17534285D01*
X4397142Y17677142D01*
X4397142Y17820000D01*
X4468571Y17962857D01*
X4539999Y18034285D01*
X4682857Y18105714D01*
X4968571Y18177142D01*
X5111428Y18248571D01*
X5182857Y18320000D01*
X5254285Y18462857D01*
X5254285Y18605714D01*
X5182857Y18748571D01*
X5111428Y18820000D01*
X4968571Y18891428D01*
X4611428Y18891428D01*
X4397142Y18820000D01*
X3897142Y18391428D02*
X3611428Y17391428D01*
X3325714Y18105714D01*
X3039999Y17391428D01*
X2754285Y18391428D01*
X1539999Y17391428D02*
X1539999Y18177142D01*
X1611428Y18320000D01*
X1754285Y18391428D01*
X2039999Y18391428D01*
X2182857Y18320000D01*
X1539999Y17462857D02*
X1682857Y17391428D01*
X2039999Y17391428D01*
X2182857Y17462857D01*
X2254285Y17605714D01*
X2254285Y17748571D01*
X2182857Y17891428D01*
X2039999Y17962857D01*
X1682857Y17962857D01*
X1539999Y18034285D01*
X825714Y17391428D02*
X825714Y18391428D01*
X825714Y18105714D02*
X754285Y18248571D01*
X682857Y18320000D01*
X539999Y18391428D01*
X397142Y18391428D01*
X-102857Y17391428D02*
X-102857Y18391428D01*
X-102857Y18248571D02*
X-174285Y18320000D01*
X-317142Y18391428D01*
X-531428Y18391428D01*
X-674285Y18320000D01*
X-745714Y18177142D01*
X-745714Y17391428D01*
X-745714Y18177142D02*
X-817142Y18320000D01*
X-960000Y18391428D01*
X-1174285Y18391428D01*
X-1317142Y18320000D01*
X-1388571Y18177142D01*
X-1388571Y17391428D01*
X-2602857Y18177142D02*
X-2817142Y18105714D01*
X-2888571Y18034285D01*
X-2960000Y17891428D01*
X-2960000Y17677142D01*
X-2888571Y17534285D01*
X-2817142Y17462857D01*
X-2674285Y17391428D01*
X-2102857Y17391428D01*
X-2102857Y18891428D01*
X-2602857Y18891428D01*
X-2745714Y18820000D01*
X-2817142Y18748571D01*
X-2888571Y18605714D01*
X-2888571Y18462857D01*
X-2817142Y18320000D01*
X-2745714Y18248571D01*
X-2602857Y18177142D01*
X-2102857Y18177142D01*
X-3817142Y17391428D02*
X-3674285Y17462857D01*
X-3602857Y17534285D01*
X-3531428Y17677142D01*
X-3531428Y18105714D01*
X-3602857Y18248571D01*
X-3674285Y18320000D01*
X-3817142Y18391428D01*
X-4031428Y18391428D01*
X-4174285Y18320000D01*
X-4245714Y18248571D01*
X-4317142Y18105714D01*
X-4317142Y17677142D01*
X-4245714Y17534285D01*
X-4174285Y17462857D01*
X-4031428Y17391428D01*
X-3817142Y17391428D01*
X-4745714Y18391428D02*
X-5317142Y18391428D01*
X-4960000Y18891428D02*
X-4960000Y17605714D01*
X-5031428Y17462857D01*
X-5174285Y17391428D01*
X-5317142Y17391428D01*
X1254285Y16341428D02*
X754285Y14841428D01*
X254285Y16341428D01*
X-1031428Y14841428D02*
X-174285Y14841428D01*
X-602857Y14841428D02*
X-602857Y16341428D01*
X-460000Y16127142D01*
X-317142Y15984285D01*
X-174285Y15912857D01*
X5075714Y13791428D02*
X4218571Y13791428D01*
X4647142Y12291428D02*
X4647142Y13791428D01*
X3504285Y12291428D02*
X3647142Y12362857D01*
X3718571Y12434285D01*
X3790000Y12577142D01*
X3790000Y13005714D01*
X3718571Y13148571D01*
X3647142Y13220000D01*
X3504285Y13291428D01*
X3290000Y13291428D01*
X3147142Y13220000D01*
X3075714Y13148571D01*
X3004285Y13005714D01*
X3004285Y12577142D01*
X3075714Y12434285D01*
X3147142Y12362857D01*
X3290000Y12291428D01*
X3504285Y12291428D01*
X2361428Y13291428D02*
X2361428Y11791428D01*
X2361428Y13220000D02*
X2218571Y13291428D01*
X1932857Y13291428D01*
X1790000Y13220000D01*
X1718571Y13148571D01*
X1647142Y13005714D01*
X1647142Y12577142D01*
X1718571Y12434285D01*
X1790000Y12362857D01*
X1932857Y12291428D01*
X2218571Y12291428D01*
X2361428Y12362857D01*
X504285Y13077142D02*
X290000Y13005714D01*
X218571Y12934285D01*
X147142Y12791428D01*
X147142Y12577142D01*
X218571Y12434285D01*
X290000Y12362857D01*
X432857Y12291428D01*
X1004285Y12291428D01*
X1004285Y13791428D01*
X504285Y13791428D01*
X361428Y13720000D01*
X290000Y13648571D01*
X218571Y13505714D01*
X218571Y13362857D01*
X290000Y13220000D01*
X361428Y13148571D01*
X504285Y13077142D01*
X1004285Y13077142D01*
X-709999Y12291428D02*
X-567142Y12362857D01*
X-495714Y12434285D01*
X-424285Y12577142D01*
X-424285Y13005714D01*
X-495714Y13148571D01*
X-567142Y13220000D01*
X-709999Y13291428D01*
X-924285Y13291428D01*
X-1067142Y13220000D01*
X-1138571Y13148571D01*
X-1209999Y13005714D01*
X-1209999Y12577142D01*
X-1138571Y12434285D01*
X-1067142Y12362857D01*
X-924285Y12291428D01*
X-709999Y12291428D01*
X-2495714Y12291428D02*
X-2495714Y13077142D01*
X-2424285Y13220000D01*
X-2281428Y13291428D01*
X-1995714Y13291428D01*
X-1852857Y13220000D01*
X-2495714Y12362857D02*
X-2352857Y12291428D01*
X-1995714Y12291428D01*
X-1852857Y12362857D01*
X-1781428Y12505714D01*
X-1781428Y12648571D01*
X-1852857Y12791428D01*
X-1995714Y12862857D01*
X-2352857Y12862857D01*
X-2495714Y12934285D01*
X-3209999Y12291428D02*
X-3209999Y13291428D01*
X-3209999Y13005714D02*
X-3281428Y13148571D01*
X-3352857Y13220000D01*
X-3495714Y13291428D01*
X-3638571Y13291428D01*
X-4781428Y12291428D02*
X-4781428Y13791428D01*
X-4781428Y12362857D02*
X-4638571Y12291428D01*
X-4352857Y12291428D01*
X-4209999Y12362857D01*
X-4138571Y12434285D01*
X-4067142Y12577142D01*
X-4067142Y13005714D01*
X-4138571Y13148571D01*
X-4209999Y13220000D01*
X-4352857Y13291428D01*
X-4638571Y13291428D01*
X-4781428Y13220000D01*
D12*
X6270000Y11440000D02*
X6270000Y10230000D01*
X7790000Y10230000D02*
X11000000Y10230000D01*
X5600000Y10230000D02*
X6270000Y10230000D01*
X11000000Y10230000D02*
X11000000Y7570000D01*
X10330000Y7570000D02*
X11000000Y7570000D01*
X5600000Y7570000D02*
X8810000Y7570000D01*
X5600000Y10230000D02*
X5600000Y7570000D01*
X-12970000Y1330000D02*
X-9860000Y1330000D01*
X-18050000Y1330000D02*
X-14490000Y1330000D01*
X-15510000Y-1330000D02*
X-11950000Y-1330000D01*
X-10430000Y-1330000D02*
X-9860000Y-1330000D01*
X-20140000Y1330000D02*
X-19570000Y1330000D01*
X-19570000Y1330000D02*
X-19570000Y2850000D01*
X-20140000Y-1330000D02*
X-17030000Y-1330000D01*
X-9860000Y1330000D02*
X-9860000Y-1330000D01*
X-20140000Y1330000D02*
X-20140000Y-1330000D01*
X17030000Y1330000D02*
X20140000Y1330000D01*
X11950000Y1330000D02*
X15510000Y1330000D01*
X14490000Y-1330000D02*
X18050000Y-1330000D01*
X19570000Y-1330000D02*
X20140000Y-1330000D01*
X9860000Y1330000D02*
X10430000Y1330000D01*
X10430000Y1330000D02*
X10430000Y2850000D01*
X9860000Y-1330000D02*
X12970000Y-1330000D01*
X20140000Y1330000D02*
X20140000Y-1330000D01*
X9860000Y1330000D02*
X9860000Y-1330000D01*
M02*
