M48
; DRILL file {KiCad 5.1.5-52549c5~84~ubuntu18.04.1} date Tue 03 Dec 2019 09:10:05 PM EST
; FORMAT={-:-/ absolute / inch / decimal}
; #@! TF.CreationDate,2019-12-03T21:10:05-05:00
; #@! TF.GenerationSoftware,Kicad,Pcbnew,5.1.5-52549c5~84~ubuntu18.04.1
; #@! TF.FileFunction,Plated,1,2,PTH
FMAT,2
INCH
T1C0.0118
T2C0.0157
T3C0.0256
T4C0.0295
%
G90
G05
T1
X-0.95Y0.15
X-0.95Y0.08
X-0.95Y0.045
X-0.95Y0.02
X-0.95Y-0.02
X-0.95Y-0.045
X-0.945Y-0.085
X-0.945Y-0.15
X-0.905Y0.045
X-0.905Y0.02
X-0.9Y-0.085
X-0.9Y-0.145
X-0.895Y0.15
X-0.895Y0.08
X-0.895Y-0.02
X-0.895Y-0.045
X-0.869Y-0.284
X-0.869Y-0.304
X-0.865Y0.035
X-0.865Y0.015
X-0.865Y-0.005
X-0.86Y0.115
X-0.86Y0.08
X-0.86Y-0.08
X-0.86Y-0.115
X-0.8588Y0.0512
X-0.845Y-0.435
X-0.835Y0.175
X-0.835Y0.145
X-0.81Y0.32
X-0.81Y0.225
X-0.8Y0.115
X-0.8Y0.08
X-0.8Y-0.08
X-0.8Y-0.115
X-0.695Y-0.245
X-0.69Y-0.1375
X-0.68Y-0.45
X-0.6475Y-0.33
X-0.63Y0.005
X-0.6235Y-0.2132
X-0.6225Y-0.2775
X-0.6125Y-0.37
X-0.61Y-0.555
X-0.605Y-0.035
X-0.595Y-0.225
X-0.595Y-0.2775
X-0.585Y-0.11
X-0.5728Y-0.3941
X-0.572Y-0.4573
X-0.5675Y-0.4175
X-0.565Y0.21
X-0.56Y0.155
X-0.556Y-0.33
X-0.54Y-0.03
X-0.531Y-0.629
X-0.531Y-0.6465
X-0.531Y-0.664
X-0.531Y-0.6815
X-0.531Y-0.699
X-0.531Y-0.7165
X-0.531Y-0.734
X-0.531Y-0.7515
X-0.531Y-0.768
X-0.531Y-0.784
X-0.531Y-0.8015
X-0.5275Y-0.3075
X-0.525Y0.2
X-0.5135Y-0.814
X-0.5075Y-0.065
X-0.505Y0.1
X-0.5025Y0.0075
X-0.5025Y-0.305
X-0.4975Y-0.5475
X-0.496Y-0.814
X-0.496Y-0.8315
X-0.4925Y-0.425
X-0.48Y-0.226
X-0.4785Y-0.8365
X-0.476Y-0.634
X-0.476Y-0.6515
X-0.476Y-0.669
X-0.476Y-0.6865
X-0.475Y0.1
X-0.4672Y-0.1575
X-0.465Y0.19
X-0.461Y-0.8365
X-0.4585Y-0.6865
X-0.456Y-0.298
X-0.4435Y-0.8365
X-0.441Y-0.6915
X-0.441Y-0.709
X-0.431Y-0.724
X-0.426Y-0.8365
X-0.4135Y-0.724
X-0.4085Y-0.8365
X-0.4007Y-0.2768
X-0.4Y0.155
X-0.396Y-0.724
X-0.391Y-0.8365
X-0.385Y-0.2175
X-0.3785Y-0.724
X-0.3735Y-0.8365
X-0.37Y-0.65
X-0.365Y-0.625
X-0.3642Y-0.2683
X-0.361Y-0.724
X-0.356Y-0.8365
X-0.3435Y-0.724
X-0.34Y-0.1825
X-0.3385Y-0.8365
X-0.3325Y-0.5225
X-0.3275Y-0.395
X-0.326Y-0.724
X-0.321Y-0.8365
X-0.311Y-0.734
X-0.311Y-0.7515
X-0.311Y-0.769
X-0.311Y-0.7865
X-0.311Y-0.804
X-0.311Y-0.8215
X-0.294Y-0.614
X-0.256Y-0.594
X-0.25Y-0.43
X-0.2475Y-0.3475
X-0.234Y-0.41
X-0.205Y-0.505
X-0.115Y0.56
X-0.0905Y0.3458
X-0.0173Y0.3118
X0.0016Y0.3661
X0.06Y0.545
X0.0906Y0.373
X0.2331Y-0.7617
X0.2711Y-0.7617
X0.274Y-0.63
X0.29Y-0.78
X0.344Y-0.6698
X0.384Y-0.61
X0.408Y-0.654
X0.41Y-0.706
X0.458Y-0.654
X0.458Y-0.704
X0.482Y-0.614
X0.51Y-0.728
X0.5118Y0.1878
X0.5118Y0.1718
X0.5118Y0.1558
X0.5118Y0.1398
X0.5118Y0.1238
X0.5118Y0.1078
X0.518Y-0.6698
X0.542Y-0.69
X0.558Y-0.612
T2
X-0.3012Y0.2736
X-0.2894Y0.1276
T3
X0.3815Y-0.3307
X0.4315Y-0.3307
X0.4815Y-0.3307
X0.5315Y-0.3307
T4
X0.3238Y0.5125
X0.4025Y0.5125
T0
M30
