G04 #@! TF.GenerationSoftware,KiCad,Pcbnew,5.1.5-52549c5~84~ubuntu18.04.1*
G04 #@! TF.CreationDate,2020-03-30T14:39:39-04:00*
G04 #@! TF.ProjectId,SwarmBot,53776172-6d42-46f7-942e-6b696361645f,rev?*
G04 #@! TF.SameCoordinates,Original*
G04 #@! TF.FileFunction,Paste,Bot*
G04 #@! TF.FilePolarity,Positive*
%FSLAX46Y46*%
G04 Gerber Fmt 4.6, Leading zero omitted, Abs format (unit mm)*
G04 Created by KiCad (PCBNEW 5.1.5-52549c5~84~ubuntu18.04.1) date 2020-03-30 14:39:39*
%MOMM*%
%LPD*%
G04 APERTURE LIST*
%ADD10R,0.550000X0.300000*%
%ADD11C,0.100000*%
G04 APERTURE END LIST*
D10*
X7875000Y8350000D03*
X7875000Y9000000D03*
X7875000Y9650000D03*
X6125000Y9650000D03*
X6125000Y9000000D03*
X6125000Y8350000D03*
X-6125000Y8350000D03*
X-6125000Y9000000D03*
X-6125000Y9650000D03*
X-7875000Y9650000D03*
X-7875000Y9000000D03*
X-7875000Y8350000D03*
D11*
G36*
X7035478Y7609090D02*
G01*
X7049796Y7606966D01*
X7063837Y7603449D01*
X7077466Y7598572D01*
X7090551Y7592383D01*
X7102967Y7584942D01*
X7114593Y7576319D01*
X7125318Y7566598D01*
X7135039Y7555873D01*
X7143662Y7544247D01*
X7151103Y7531831D01*
X7157292Y7518746D01*
X7162169Y7505117D01*
X7165686Y7491076D01*
X7167810Y7476758D01*
X7168520Y7462300D01*
X7168520Y7117300D01*
X7167810Y7102842D01*
X7165686Y7088524D01*
X7162169Y7074483D01*
X7157292Y7060854D01*
X7151103Y7047769D01*
X7143662Y7035353D01*
X7135039Y7023727D01*
X7125318Y7013002D01*
X7114593Y7003281D01*
X7102967Y6994658D01*
X7090551Y6987217D01*
X7077466Y6981028D01*
X7063837Y6976151D01*
X7049796Y6972634D01*
X7035478Y6970510D01*
X7021020Y6969800D01*
X6726020Y6969800D01*
X6711562Y6970510D01*
X6697244Y6972634D01*
X6683203Y6976151D01*
X6669574Y6981028D01*
X6656489Y6987217D01*
X6644073Y6994658D01*
X6632447Y7003281D01*
X6621722Y7013002D01*
X6612001Y7023727D01*
X6603378Y7035353D01*
X6595937Y7047769D01*
X6589748Y7060854D01*
X6584871Y7074483D01*
X6581354Y7088524D01*
X6579230Y7102842D01*
X6578520Y7117300D01*
X6578520Y7462300D01*
X6579230Y7476758D01*
X6581354Y7491076D01*
X6584871Y7505117D01*
X6589748Y7518746D01*
X6595937Y7531831D01*
X6603378Y7544247D01*
X6612001Y7555873D01*
X6621722Y7566598D01*
X6632447Y7576319D01*
X6644073Y7584942D01*
X6656489Y7592383D01*
X6669574Y7598572D01*
X6683203Y7603449D01*
X6697244Y7606966D01*
X6711562Y7609090D01*
X6726020Y7609800D01*
X7021020Y7609800D01*
X7035478Y7609090D01*
G37*
G36*
X8005478Y7609090D02*
G01*
X8019796Y7606966D01*
X8033837Y7603449D01*
X8047466Y7598572D01*
X8060551Y7592383D01*
X8072967Y7584942D01*
X8084593Y7576319D01*
X8095318Y7566598D01*
X8105039Y7555873D01*
X8113662Y7544247D01*
X8121103Y7531831D01*
X8127292Y7518746D01*
X8132169Y7505117D01*
X8135686Y7491076D01*
X8137810Y7476758D01*
X8138520Y7462300D01*
X8138520Y7117300D01*
X8137810Y7102842D01*
X8135686Y7088524D01*
X8132169Y7074483D01*
X8127292Y7060854D01*
X8121103Y7047769D01*
X8113662Y7035353D01*
X8105039Y7023727D01*
X8095318Y7013002D01*
X8084593Y7003281D01*
X8072967Y6994658D01*
X8060551Y6987217D01*
X8047466Y6981028D01*
X8033837Y6976151D01*
X8019796Y6972634D01*
X8005478Y6970510D01*
X7991020Y6969800D01*
X7696020Y6969800D01*
X7681562Y6970510D01*
X7667244Y6972634D01*
X7653203Y6976151D01*
X7639574Y6981028D01*
X7626489Y6987217D01*
X7614073Y6994658D01*
X7602447Y7003281D01*
X7591722Y7013002D01*
X7582001Y7023727D01*
X7573378Y7035353D01*
X7565937Y7047769D01*
X7559748Y7060854D01*
X7554871Y7074483D01*
X7551354Y7088524D01*
X7549230Y7102842D01*
X7548520Y7117300D01*
X7548520Y7462300D01*
X7549230Y7476758D01*
X7551354Y7491076D01*
X7554871Y7505117D01*
X7559748Y7518746D01*
X7565937Y7531831D01*
X7573378Y7544247D01*
X7582001Y7555873D01*
X7591722Y7566598D01*
X7602447Y7576319D01*
X7614073Y7584942D01*
X7626489Y7592383D01*
X7639574Y7598572D01*
X7653203Y7603449D01*
X7667244Y7606966D01*
X7681562Y7609090D01*
X7696020Y7609800D01*
X7991020Y7609800D01*
X8005478Y7609090D01*
G37*
G36*
X-93042Y-9480710D02*
G01*
X-78724Y-9482834D01*
X-64683Y-9486351D01*
X-51054Y-9491228D01*
X-37969Y-9497417D01*
X-25553Y-9504858D01*
X-13927Y-9513481D01*
X-3202Y-9523202D01*
X6519Y-9533927D01*
X15142Y-9545553D01*
X22583Y-9557969D01*
X28772Y-9571054D01*
X33649Y-9584683D01*
X37166Y-9598724D01*
X39290Y-9613042D01*
X40000Y-9627500D01*
X40000Y-9972500D01*
X39290Y-9986958D01*
X37166Y-10001276D01*
X33649Y-10015317D01*
X28772Y-10028946D01*
X22583Y-10042031D01*
X15142Y-10054447D01*
X6519Y-10066073D01*
X-3202Y-10076798D01*
X-13927Y-10086519D01*
X-25553Y-10095142D01*
X-37969Y-10102583D01*
X-51054Y-10108772D01*
X-64683Y-10113649D01*
X-78724Y-10117166D01*
X-93042Y-10119290D01*
X-107500Y-10120000D01*
X-402500Y-10120000D01*
X-416958Y-10119290D01*
X-431276Y-10117166D01*
X-445317Y-10113649D01*
X-458946Y-10108772D01*
X-472031Y-10102583D01*
X-484447Y-10095142D01*
X-496073Y-10086519D01*
X-506798Y-10076798D01*
X-516519Y-10066073D01*
X-525142Y-10054447D01*
X-532583Y-10042031D01*
X-538772Y-10028946D01*
X-543649Y-10015317D01*
X-547166Y-10001276D01*
X-549290Y-9986958D01*
X-550000Y-9972500D01*
X-550000Y-9627500D01*
X-549290Y-9613042D01*
X-547166Y-9598724D01*
X-543649Y-9584683D01*
X-538772Y-9571054D01*
X-532583Y-9557969D01*
X-525142Y-9545553D01*
X-516519Y-9533927D01*
X-506798Y-9523202D01*
X-496073Y-9513481D01*
X-484447Y-9504858D01*
X-472031Y-9497417D01*
X-458946Y-9491228D01*
X-445317Y-9486351D01*
X-431276Y-9482834D01*
X-416958Y-9480710D01*
X-402500Y-9480000D01*
X-107500Y-9480000D01*
X-93042Y-9480710D01*
G37*
G36*
X876958Y-9480710D02*
G01*
X891276Y-9482834D01*
X905317Y-9486351D01*
X918946Y-9491228D01*
X932031Y-9497417D01*
X944447Y-9504858D01*
X956073Y-9513481D01*
X966798Y-9523202D01*
X976519Y-9533927D01*
X985142Y-9545553D01*
X992583Y-9557969D01*
X998772Y-9571054D01*
X1003649Y-9584683D01*
X1007166Y-9598724D01*
X1009290Y-9613042D01*
X1010000Y-9627500D01*
X1010000Y-9972500D01*
X1009290Y-9986958D01*
X1007166Y-10001276D01*
X1003649Y-10015317D01*
X998772Y-10028946D01*
X992583Y-10042031D01*
X985142Y-10054447D01*
X976519Y-10066073D01*
X966798Y-10076798D01*
X956073Y-10086519D01*
X944447Y-10095142D01*
X932031Y-10102583D01*
X918946Y-10108772D01*
X905317Y-10113649D01*
X891276Y-10117166D01*
X876958Y-10119290D01*
X862500Y-10120000D01*
X567500Y-10120000D01*
X553042Y-10119290D01*
X538724Y-10117166D01*
X524683Y-10113649D01*
X511054Y-10108772D01*
X497969Y-10102583D01*
X485553Y-10095142D01*
X473927Y-10086519D01*
X463202Y-10076798D01*
X453481Y-10066073D01*
X444858Y-10054447D01*
X437417Y-10042031D01*
X431228Y-10028946D01*
X426351Y-10015317D01*
X422834Y-10001276D01*
X420710Y-9986958D01*
X420000Y-9972500D01*
X420000Y-9627500D01*
X420710Y-9613042D01*
X422834Y-9598724D01*
X426351Y-9584683D01*
X431228Y-9571054D01*
X437417Y-9557969D01*
X444858Y-9545553D01*
X453481Y-9533927D01*
X463202Y-9523202D01*
X473927Y-9513481D01*
X485553Y-9504858D01*
X497969Y-9497417D01*
X511054Y-9491228D01*
X524683Y-9486351D01*
X538724Y-9482834D01*
X553042Y-9480710D01*
X567500Y-9480000D01*
X862500Y-9480000D01*
X876958Y-9480710D01*
G37*
G36*
X-3042Y-13980710D02*
G01*
X11276Y-13982834D01*
X25317Y-13986351D01*
X38946Y-13991228D01*
X52031Y-13997417D01*
X64447Y-14004858D01*
X76073Y-14013481D01*
X86798Y-14023202D01*
X96519Y-14033927D01*
X105142Y-14045553D01*
X112583Y-14057969D01*
X118772Y-14071054D01*
X123649Y-14084683D01*
X127166Y-14098724D01*
X129290Y-14113042D01*
X130000Y-14127500D01*
X130000Y-14472500D01*
X129290Y-14486958D01*
X127166Y-14501276D01*
X123649Y-14515317D01*
X118772Y-14528946D01*
X112583Y-14542031D01*
X105142Y-14554447D01*
X96519Y-14566073D01*
X86798Y-14576798D01*
X76073Y-14586519D01*
X64447Y-14595142D01*
X52031Y-14602583D01*
X38946Y-14608772D01*
X25317Y-14613649D01*
X11276Y-14617166D01*
X-3042Y-14619290D01*
X-17500Y-14620000D01*
X-312500Y-14620000D01*
X-326958Y-14619290D01*
X-341276Y-14617166D01*
X-355317Y-14613649D01*
X-368946Y-14608772D01*
X-382031Y-14602583D01*
X-394447Y-14595142D01*
X-406073Y-14586519D01*
X-416798Y-14576798D01*
X-426519Y-14566073D01*
X-435142Y-14554447D01*
X-442583Y-14542031D01*
X-448772Y-14528946D01*
X-453649Y-14515317D01*
X-457166Y-14501276D01*
X-459290Y-14486958D01*
X-460000Y-14472500D01*
X-460000Y-14127500D01*
X-459290Y-14113042D01*
X-457166Y-14098724D01*
X-453649Y-14084683D01*
X-448772Y-14071054D01*
X-442583Y-14057969D01*
X-435142Y-14045553D01*
X-426519Y-14033927D01*
X-416798Y-14023202D01*
X-406073Y-14013481D01*
X-394447Y-14004858D01*
X-382031Y-13997417D01*
X-368946Y-13991228D01*
X-355317Y-13986351D01*
X-341276Y-13982834D01*
X-326958Y-13980710D01*
X-312500Y-13980000D01*
X-17500Y-13980000D01*
X-3042Y-13980710D01*
G37*
G36*
X966958Y-13980710D02*
G01*
X981276Y-13982834D01*
X995317Y-13986351D01*
X1008946Y-13991228D01*
X1022031Y-13997417D01*
X1034447Y-14004858D01*
X1046073Y-14013481D01*
X1056798Y-14023202D01*
X1066519Y-14033927D01*
X1075142Y-14045553D01*
X1082583Y-14057969D01*
X1088772Y-14071054D01*
X1093649Y-14084683D01*
X1097166Y-14098724D01*
X1099290Y-14113042D01*
X1100000Y-14127500D01*
X1100000Y-14472500D01*
X1099290Y-14486958D01*
X1097166Y-14501276D01*
X1093649Y-14515317D01*
X1088772Y-14528946D01*
X1082583Y-14542031D01*
X1075142Y-14554447D01*
X1066519Y-14566073D01*
X1056798Y-14576798D01*
X1046073Y-14586519D01*
X1034447Y-14595142D01*
X1022031Y-14602583D01*
X1008946Y-14608772D01*
X995317Y-14613649D01*
X981276Y-14617166D01*
X966958Y-14619290D01*
X952500Y-14620000D01*
X657500Y-14620000D01*
X643042Y-14619290D01*
X628724Y-14617166D01*
X614683Y-14613649D01*
X601054Y-14608772D01*
X587969Y-14602583D01*
X575553Y-14595142D01*
X563927Y-14586519D01*
X553202Y-14576798D01*
X543481Y-14566073D01*
X534858Y-14554447D01*
X527417Y-14542031D01*
X521228Y-14528946D01*
X516351Y-14515317D01*
X512834Y-14501276D01*
X510710Y-14486958D01*
X510000Y-14472500D01*
X510000Y-14127500D01*
X510710Y-14113042D01*
X512834Y-14098724D01*
X516351Y-14084683D01*
X521228Y-14071054D01*
X527417Y-14057969D01*
X534858Y-14045553D01*
X543481Y-14033927D01*
X553202Y-14023202D01*
X563927Y-14013481D01*
X575553Y-14004858D01*
X587969Y-13997417D01*
X601054Y-13991228D01*
X614683Y-13986351D01*
X628724Y-13982834D01*
X643042Y-13980710D01*
X657500Y-13980000D01*
X952500Y-13980000D01*
X966958Y-13980710D01*
G37*
G36*
X1027691Y-10526053D02*
G01*
X1048926Y-10529203D01*
X1069750Y-10534419D01*
X1089962Y-10541651D01*
X1109368Y-10550830D01*
X1127781Y-10561866D01*
X1145024Y-10574654D01*
X1160930Y-10589070D01*
X1175346Y-10604976D01*
X1188134Y-10622219D01*
X1199170Y-10640632D01*
X1208349Y-10660038D01*
X1215581Y-10680250D01*
X1220797Y-10701074D01*
X1223947Y-10722309D01*
X1225000Y-10743750D01*
X1225000Y-11256250D01*
X1223947Y-11277691D01*
X1220797Y-11298926D01*
X1215581Y-11319750D01*
X1208349Y-11339962D01*
X1199170Y-11359368D01*
X1188134Y-11377781D01*
X1175346Y-11395024D01*
X1160930Y-11410930D01*
X1145024Y-11425346D01*
X1127781Y-11438134D01*
X1109368Y-11449170D01*
X1089962Y-11458349D01*
X1069750Y-11465581D01*
X1048926Y-11470797D01*
X1027691Y-11473947D01*
X1006250Y-11475000D01*
X568750Y-11475000D01*
X547309Y-11473947D01*
X526074Y-11470797D01*
X505250Y-11465581D01*
X485038Y-11458349D01*
X465632Y-11449170D01*
X447219Y-11438134D01*
X429976Y-11425346D01*
X414070Y-11410930D01*
X399654Y-11395024D01*
X386866Y-11377781D01*
X375830Y-11359368D01*
X366651Y-11339962D01*
X359419Y-11319750D01*
X354203Y-11298926D01*
X351053Y-11277691D01*
X350000Y-11256250D01*
X350000Y-10743750D01*
X351053Y-10722309D01*
X354203Y-10701074D01*
X359419Y-10680250D01*
X366651Y-10660038D01*
X375830Y-10640632D01*
X386866Y-10622219D01*
X399654Y-10604976D01*
X414070Y-10589070D01*
X429976Y-10574654D01*
X447219Y-10561866D01*
X465632Y-10550830D01*
X485038Y-10541651D01*
X505250Y-10534419D01*
X526074Y-10529203D01*
X547309Y-10526053D01*
X568750Y-10525000D01*
X1006250Y-10525000D01*
X1027691Y-10526053D01*
G37*
G36*
X-547309Y-10526053D02*
G01*
X-526074Y-10529203D01*
X-505250Y-10534419D01*
X-485038Y-10541651D01*
X-465632Y-10550830D01*
X-447219Y-10561866D01*
X-429976Y-10574654D01*
X-414070Y-10589070D01*
X-399654Y-10604976D01*
X-386866Y-10622219D01*
X-375830Y-10640632D01*
X-366651Y-10660038D01*
X-359419Y-10680250D01*
X-354203Y-10701074D01*
X-351053Y-10722309D01*
X-350000Y-10743750D01*
X-350000Y-11256250D01*
X-351053Y-11277691D01*
X-354203Y-11298926D01*
X-359419Y-11319750D01*
X-366651Y-11339962D01*
X-375830Y-11359368D01*
X-386866Y-11377781D01*
X-399654Y-11395024D01*
X-414070Y-11410930D01*
X-429976Y-11425346D01*
X-447219Y-11438134D01*
X-465632Y-11449170D01*
X-485038Y-11458349D01*
X-505250Y-11465581D01*
X-526074Y-11470797D01*
X-547309Y-11473947D01*
X-568750Y-11475000D01*
X-1006250Y-11475000D01*
X-1027691Y-11473947D01*
X-1048926Y-11470797D01*
X-1069750Y-11465581D01*
X-1089962Y-11458349D01*
X-1109368Y-11449170D01*
X-1127781Y-11438134D01*
X-1145024Y-11425346D01*
X-1160930Y-11410930D01*
X-1175346Y-11395024D01*
X-1188134Y-11377781D01*
X-1199170Y-11359368D01*
X-1208349Y-11339962D01*
X-1215581Y-11319750D01*
X-1220797Y-11298926D01*
X-1223947Y-11277691D01*
X-1225000Y-11256250D01*
X-1225000Y-10743750D01*
X-1223947Y-10722309D01*
X-1220797Y-10701074D01*
X-1215581Y-10680250D01*
X-1208349Y-10660038D01*
X-1199170Y-10640632D01*
X-1188134Y-10622219D01*
X-1175346Y-10604976D01*
X-1160930Y-10589070D01*
X-1145024Y-10574654D01*
X-1127781Y-10561866D01*
X-1109368Y-10550830D01*
X-1089962Y-10541651D01*
X-1069750Y-10534419D01*
X-1048926Y-10529203D01*
X-1027691Y-10526053D01*
X-1006250Y-10525000D01*
X-568750Y-10525000D01*
X-547309Y-10526053D01*
G37*
G36*
X1015191Y-12106053D02*
G01*
X1036426Y-12109203D01*
X1057250Y-12114419D01*
X1077462Y-12121651D01*
X1096868Y-12130830D01*
X1115281Y-12141866D01*
X1132524Y-12154654D01*
X1148430Y-12169070D01*
X1162846Y-12184976D01*
X1175634Y-12202219D01*
X1186670Y-12220632D01*
X1195849Y-12240038D01*
X1203081Y-12260250D01*
X1208297Y-12281074D01*
X1211447Y-12302309D01*
X1212500Y-12323750D01*
X1212500Y-12836250D01*
X1211447Y-12857691D01*
X1208297Y-12878926D01*
X1203081Y-12899750D01*
X1195849Y-12919962D01*
X1186670Y-12939368D01*
X1175634Y-12957781D01*
X1162846Y-12975024D01*
X1148430Y-12990930D01*
X1132524Y-13005346D01*
X1115281Y-13018134D01*
X1096868Y-13029170D01*
X1077462Y-13038349D01*
X1057250Y-13045581D01*
X1036426Y-13050797D01*
X1015191Y-13053947D01*
X993750Y-13055000D01*
X556250Y-13055000D01*
X534809Y-13053947D01*
X513574Y-13050797D01*
X492750Y-13045581D01*
X472538Y-13038349D01*
X453132Y-13029170D01*
X434719Y-13018134D01*
X417476Y-13005346D01*
X401570Y-12990930D01*
X387154Y-12975024D01*
X374366Y-12957781D01*
X363330Y-12939368D01*
X354151Y-12919962D01*
X346919Y-12899750D01*
X341703Y-12878926D01*
X338553Y-12857691D01*
X337500Y-12836250D01*
X337500Y-12323750D01*
X338553Y-12302309D01*
X341703Y-12281074D01*
X346919Y-12260250D01*
X354151Y-12240038D01*
X363330Y-12220632D01*
X374366Y-12202219D01*
X387154Y-12184976D01*
X401570Y-12169070D01*
X417476Y-12154654D01*
X434719Y-12141866D01*
X453132Y-12130830D01*
X472538Y-12121651D01*
X492750Y-12114419D01*
X513574Y-12109203D01*
X534809Y-12106053D01*
X556250Y-12105000D01*
X993750Y-12105000D01*
X1015191Y-12106053D01*
G37*
G36*
X-559809Y-12106053D02*
G01*
X-538574Y-12109203D01*
X-517750Y-12114419D01*
X-497538Y-12121651D01*
X-478132Y-12130830D01*
X-459719Y-12141866D01*
X-442476Y-12154654D01*
X-426570Y-12169070D01*
X-412154Y-12184976D01*
X-399366Y-12202219D01*
X-388330Y-12220632D01*
X-379151Y-12240038D01*
X-371919Y-12260250D01*
X-366703Y-12281074D01*
X-363553Y-12302309D01*
X-362500Y-12323750D01*
X-362500Y-12836250D01*
X-363553Y-12857691D01*
X-366703Y-12878926D01*
X-371919Y-12899750D01*
X-379151Y-12919962D01*
X-388330Y-12939368D01*
X-399366Y-12957781D01*
X-412154Y-12975024D01*
X-426570Y-12990930D01*
X-442476Y-13005346D01*
X-459719Y-13018134D01*
X-478132Y-13029170D01*
X-497538Y-13038349D01*
X-517750Y-13045581D01*
X-538574Y-13050797D01*
X-559809Y-13053947D01*
X-581250Y-13055000D01*
X-1018750Y-13055000D01*
X-1040191Y-13053947D01*
X-1061426Y-13050797D01*
X-1082250Y-13045581D01*
X-1102462Y-13038349D01*
X-1121868Y-13029170D01*
X-1140281Y-13018134D01*
X-1157524Y-13005346D01*
X-1173430Y-12990930D01*
X-1187846Y-12975024D01*
X-1200634Y-12957781D01*
X-1211670Y-12939368D01*
X-1220849Y-12919962D01*
X-1228081Y-12899750D01*
X-1233297Y-12878926D01*
X-1236447Y-12857691D01*
X-1237500Y-12836250D01*
X-1237500Y-12323750D01*
X-1236447Y-12302309D01*
X-1233297Y-12281074D01*
X-1228081Y-12260250D01*
X-1220849Y-12240038D01*
X-1211670Y-12220632D01*
X-1200634Y-12202219D01*
X-1187846Y-12184976D01*
X-1173430Y-12169070D01*
X-1157524Y-12154654D01*
X-1140281Y-12141866D01*
X-1121868Y-12130830D01*
X-1102462Y-12121651D01*
X-1082250Y-12114419D01*
X-1061426Y-12109203D01*
X-1040191Y-12106053D01*
X-1018750Y-12105000D01*
X-581250Y-12105000D01*
X-559809Y-12106053D01*
G37*
G36*
X-6909122Y7654810D02*
G01*
X-6894804Y7652686D01*
X-6880763Y7649169D01*
X-6867134Y7644292D01*
X-6854049Y7638103D01*
X-6841633Y7630662D01*
X-6830007Y7622039D01*
X-6819282Y7612318D01*
X-6809561Y7601593D01*
X-6800938Y7589967D01*
X-6793497Y7577551D01*
X-6787308Y7564466D01*
X-6782431Y7550837D01*
X-6778914Y7536796D01*
X-6776790Y7522478D01*
X-6776080Y7508020D01*
X-6776080Y7163020D01*
X-6776790Y7148562D01*
X-6778914Y7134244D01*
X-6782431Y7120203D01*
X-6787308Y7106574D01*
X-6793497Y7093489D01*
X-6800938Y7081073D01*
X-6809561Y7069447D01*
X-6819282Y7058722D01*
X-6830007Y7049001D01*
X-6841633Y7040378D01*
X-6854049Y7032937D01*
X-6867134Y7026748D01*
X-6880763Y7021871D01*
X-6894804Y7018354D01*
X-6909122Y7016230D01*
X-6923580Y7015520D01*
X-7218580Y7015520D01*
X-7233038Y7016230D01*
X-7247356Y7018354D01*
X-7261397Y7021871D01*
X-7275026Y7026748D01*
X-7288111Y7032937D01*
X-7300527Y7040378D01*
X-7312153Y7049001D01*
X-7322878Y7058722D01*
X-7332599Y7069447D01*
X-7341222Y7081073D01*
X-7348663Y7093489D01*
X-7354852Y7106574D01*
X-7359729Y7120203D01*
X-7363246Y7134244D01*
X-7365370Y7148562D01*
X-7366080Y7163020D01*
X-7366080Y7508020D01*
X-7365370Y7522478D01*
X-7363246Y7536796D01*
X-7359729Y7550837D01*
X-7354852Y7564466D01*
X-7348663Y7577551D01*
X-7341222Y7589967D01*
X-7332599Y7601593D01*
X-7322878Y7612318D01*
X-7312153Y7622039D01*
X-7300527Y7630662D01*
X-7288111Y7638103D01*
X-7275026Y7644292D01*
X-7261397Y7649169D01*
X-7247356Y7652686D01*
X-7233038Y7654810D01*
X-7218580Y7655520D01*
X-6923580Y7655520D01*
X-6909122Y7654810D01*
G37*
G36*
X-5939122Y7654810D02*
G01*
X-5924804Y7652686D01*
X-5910763Y7649169D01*
X-5897134Y7644292D01*
X-5884049Y7638103D01*
X-5871633Y7630662D01*
X-5860007Y7622039D01*
X-5849282Y7612318D01*
X-5839561Y7601593D01*
X-5830938Y7589967D01*
X-5823497Y7577551D01*
X-5817308Y7564466D01*
X-5812431Y7550837D01*
X-5808914Y7536796D01*
X-5806790Y7522478D01*
X-5806080Y7508020D01*
X-5806080Y7163020D01*
X-5806790Y7148562D01*
X-5808914Y7134244D01*
X-5812431Y7120203D01*
X-5817308Y7106574D01*
X-5823497Y7093489D01*
X-5830938Y7081073D01*
X-5839561Y7069447D01*
X-5849282Y7058722D01*
X-5860007Y7049001D01*
X-5871633Y7040378D01*
X-5884049Y7032937D01*
X-5897134Y7026748D01*
X-5910763Y7021871D01*
X-5924804Y7018354D01*
X-5939122Y7016230D01*
X-5953580Y7015520D01*
X-6248580Y7015520D01*
X-6263038Y7016230D01*
X-6277356Y7018354D01*
X-6291397Y7021871D01*
X-6305026Y7026748D01*
X-6318111Y7032937D01*
X-6330527Y7040378D01*
X-6342153Y7049001D01*
X-6352878Y7058722D01*
X-6362599Y7069447D01*
X-6371222Y7081073D01*
X-6378663Y7093489D01*
X-6384852Y7106574D01*
X-6389729Y7120203D01*
X-6393246Y7134244D01*
X-6395370Y7148562D01*
X-6396080Y7163020D01*
X-6396080Y7508020D01*
X-6395370Y7522478D01*
X-6393246Y7536796D01*
X-6389729Y7550837D01*
X-6384852Y7564466D01*
X-6378663Y7577551D01*
X-6371222Y7589967D01*
X-6362599Y7601593D01*
X-6352878Y7612318D01*
X-6342153Y7622039D01*
X-6330527Y7630662D01*
X-6318111Y7638103D01*
X-6305026Y7644292D01*
X-6291397Y7649169D01*
X-6277356Y7652686D01*
X-6263038Y7654810D01*
X-6248580Y7655520D01*
X-5953580Y7655520D01*
X-5939122Y7654810D01*
G37*
M02*
