G04 #@! TF.GenerationSoftware,KiCad,Pcbnew,5.1.5-52549c5~84~ubuntu18.04.1*
G04 #@! TF.CreationDate,2020-03-30T14:39:39-04:00*
G04 #@! TF.ProjectId,SwarmBot,53776172-6d42-46f7-942e-6b696361645f,rev?*
G04 #@! TF.SameCoordinates,Original*
G04 #@! TF.FileFunction,Copper,L2,Bot*
G04 #@! TF.FilePolarity,Positive*
%FSLAX46Y46*%
G04 Gerber Fmt 4.6, Leading zero omitted, Abs format (unit mm)*
G04 Created by KiCad (PCBNEW 5.1.5-52549c5~84~ubuntu18.04.1) date 2020-03-30 14:39:39*
%MOMM*%
%LPD*%
G04 APERTURE LIST*
%ADD10R,0.550000X0.300000*%
%ADD11C,0.100000*%
%ADD12O,1.000000X1.000000*%
%ADD13R,1.000000X1.000000*%
%ADD14C,0.400000*%
%ADD15C,0.200000*%
%ADD16C,0.250000*%
%ADD17C,0.254000*%
G04 APERTURE END LIST*
D10*
X7875000Y8350000D03*
X7875000Y9000000D03*
X7875000Y9650000D03*
X6125000Y9650000D03*
X6125000Y9000000D03*
X6125000Y8350000D03*
X-6125000Y8350000D03*
X-6125000Y9000000D03*
X-6125000Y9650000D03*
X-7875000Y9650000D03*
X-7875000Y9000000D03*
X-7875000Y8350000D03*
G04 #@! TA.AperFunction,SMDPad,CuDef*
D11*
G36*
X7035478Y7609090D02*
G01*
X7049796Y7606966D01*
X7063837Y7603449D01*
X7077466Y7598572D01*
X7090551Y7592383D01*
X7102967Y7584942D01*
X7114593Y7576319D01*
X7125318Y7566598D01*
X7135039Y7555873D01*
X7143662Y7544247D01*
X7151103Y7531831D01*
X7157292Y7518746D01*
X7162169Y7505117D01*
X7165686Y7491076D01*
X7167810Y7476758D01*
X7168520Y7462300D01*
X7168520Y7117300D01*
X7167810Y7102842D01*
X7165686Y7088524D01*
X7162169Y7074483D01*
X7157292Y7060854D01*
X7151103Y7047769D01*
X7143662Y7035353D01*
X7135039Y7023727D01*
X7125318Y7013002D01*
X7114593Y7003281D01*
X7102967Y6994658D01*
X7090551Y6987217D01*
X7077466Y6981028D01*
X7063837Y6976151D01*
X7049796Y6972634D01*
X7035478Y6970510D01*
X7021020Y6969800D01*
X6726020Y6969800D01*
X6711562Y6970510D01*
X6697244Y6972634D01*
X6683203Y6976151D01*
X6669574Y6981028D01*
X6656489Y6987217D01*
X6644073Y6994658D01*
X6632447Y7003281D01*
X6621722Y7013002D01*
X6612001Y7023727D01*
X6603378Y7035353D01*
X6595937Y7047769D01*
X6589748Y7060854D01*
X6584871Y7074483D01*
X6581354Y7088524D01*
X6579230Y7102842D01*
X6578520Y7117300D01*
X6578520Y7462300D01*
X6579230Y7476758D01*
X6581354Y7491076D01*
X6584871Y7505117D01*
X6589748Y7518746D01*
X6595937Y7531831D01*
X6603378Y7544247D01*
X6612001Y7555873D01*
X6621722Y7566598D01*
X6632447Y7576319D01*
X6644073Y7584942D01*
X6656489Y7592383D01*
X6669574Y7598572D01*
X6683203Y7603449D01*
X6697244Y7606966D01*
X6711562Y7609090D01*
X6726020Y7609800D01*
X7021020Y7609800D01*
X7035478Y7609090D01*
G37*
G04 #@! TD.AperFunction*
G04 #@! TA.AperFunction,SMDPad,CuDef*
G36*
X8005478Y7609090D02*
G01*
X8019796Y7606966D01*
X8033837Y7603449D01*
X8047466Y7598572D01*
X8060551Y7592383D01*
X8072967Y7584942D01*
X8084593Y7576319D01*
X8095318Y7566598D01*
X8105039Y7555873D01*
X8113662Y7544247D01*
X8121103Y7531831D01*
X8127292Y7518746D01*
X8132169Y7505117D01*
X8135686Y7491076D01*
X8137810Y7476758D01*
X8138520Y7462300D01*
X8138520Y7117300D01*
X8137810Y7102842D01*
X8135686Y7088524D01*
X8132169Y7074483D01*
X8127292Y7060854D01*
X8121103Y7047769D01*
X8113662Y7035353D01*
X8105039Y7023727D01*
X8095318Y7013002D01*
X8084593Y7003281D01*
X8072967Y6994658D01*
X8060551Y6987217D01*
X8047466Y6981028D01*
X8033837Y6976151D01*
X8019796Y6972634D01*
X8005478Y6970510D01*
X7991020Y6969800D01*
X7696020Y6969800D01*
X7681562Y6970510D01*
X7667244Y6972634D01*
X7653203Y6976151D01*
X7639574Y6981028D01*
X7626489Y6987217D01*
X7614073Y6994658D01*
X7602447Y7003281D01*
X7591722Y7013002D01*
X7582001Y7023727D01*
X7573378Y7035353D01*
X7565937Y7047769D01*
X7559748Y7060854D01*
X7554871Y7074483D01*
X7551354Y7088524D01*
X7549230Y7102842D01*
X7548520Y7117300D01*
X7548520Y7462300D01*
X7549230Y7476758D01*
X7551354Y7491076D01*
X7554871Y7505117D01*
X7559748Y7518746D01*
X7565937Y7531831D01*
X7573378Y7544247D01*
X7582001Y7555873D01*
X7591722Y7566598D01*
X7602447Y7576319D01*
X7614073Y7584942D01*
X7626489Y7592383D01*
X7639574Y7598572D01*
X7653203Y7603449D01*
X7667244Y7606966D01*
X7681562Y7609090D01*
X7696020Y7609800D01*
X7991020Y7609800D01*
X8005478Y7609090D01*
G37*
G04 #@! TD.AperFunction*
G04 #@! TA.AperFunction,SMDPad,CuDef*
G36*
X-93042Y-9480710D02*
G01*
X-78724Y-9482834D01*
X-64683Y-9486351D01*
X-51054Y-9491228D01*
X-37969Y-9497417D01*
X-25553Y-9504858D01*
X-13927Y-9513481D01*
X-3202Y-9523202D01*
X6519Y-9533927D01*
X15142Y-9545553D01*
X22583Y-9557969D01*
X28772Y-9571054D01*
X33649Y-9584683D01*
X37166Y-9598724D01*
X39290Y-9613042D01*
X40000Y-9627500D01*
X40000Y-9972500D01*
X39290Y-9986958D01*
X37166Y-10001276D01*
X33649Y-10015317D01*
X28772Y-10028946D01*
X22583Y-10042031D01*
X15142Y-10054447D01*
X6519Y-10066073D01*
X-3202Y-10076798D01*
X-13927Y-10086519D01*
X-25553Y-10095142D01*
X-37969Y-10102583D01*
X-51054Y-10108772D01*
X-64683Y-10113649D01*
X-78724Y-10117166D01*
X-93042Y-10119290D01*
X-107500Y-10120000D01*
X-402500Y-10120000D01*
X-416958Y-10119290D01*
X-431276Y-10117166D01*
X-445317Y-10113649D01*
X-458946Y-10108772D01*
X-472031Y-10102583D01*
X-484447Y-10095142D01*
X-496073Y-10086519D01*
X-506798Y-10076798D01*
X-516519Y-10066073D01*
X-525142Y-10054447D01*
X-532583Y-10042031D01*
X-538772Y-10028946D01*
X-543649Y-10015317D01*
X-547166Y-10001276D01*
X-549290Y-9986958D01*
X-550000Y-9972500D01*
X-550000Y-9627500D01*
X-549290Y-9613042D01*
X-547166Y-9598724D01*
X-543649Y-9584683D01*
X-538772Y-9571054D01*
X-532583Y-9557969D01*
X-525142Y-9545553D01*
X-516519Y-9533927D01*
X-506798Y-9523202D01*
X-496073Y-9513481D01*
X-484447Y-9504858D01*
X-472031Y-9497417D01*
X-458946Y-9491228D01*
X-445317Y-9486351D01*
X-431276Y-9482834D01*
X-416958Y-9480710D01*
X-402500Y-9480000D01*
X-107500Y-9480000D01*
X-93042Y-9480710D01*
G37*
G04 #@! TD.AperFunction*
G04 #@! TA.AperFunction,SMDPad,CuDef*
G36*
X876958Y-9480710D02*
G01*
X891276Y-9482834D01*
X905317Y-9486351D01*
X918946Y-9491228D01*
X932031Y-9497417D01*
X944447Y-9504858D01*
X956073Y-9513481D01*
X966798Y-9523202D01*
X976519Y-9533927D01*
X985142Y-9545553D01*
X992583Y-9557969D01*
X998772Y-9571054D01*
X1003649Y-9584683D01*
X1007166Y-9598724D01*
X1009290Y-9613042D01*
X1010000Y-9627500D01*
X1010000Y-9972500D01*
X1009290Y-9986958D01*
X1007166Y-10001276D01*
X1003649Y-10015317D01*
X998772Y-10028946D01*
X992583Y-10042031D01*
X985142Y-10054447D01*
X976519Y-10066073D01*
X966798Y-10076798D01*
X956073Y-10086519D01*
X944447Y-10095142D01*
X932031Y-10102583D01*
X918946Y-10108772D01*
X905317Y-10113649D01*
X891276Y-10117166D01*
X876958Y-10119290D01*
X862500Y-10120000D01*
X567500Y-10120000D01*
X553042Y-10119290D01*
X538724Y-10117166D01*
X524683Y-10113649D01*
X511054Y-10108772D01*
X497969Y-10102583D01*
X485553Y-10095142D01*
X473927Y-10086519D01*
X463202Y-10076798D01*
X453481Y-10066073D01*
X444858Y-10054447D01*
X437417Y-10042031D01*
X431228Y-10028946D01*
X426351Y-10015317D01*
X422834Y-10001276D01*
X420710Y-9986958D01*
X420000Y-9972500D01*
X420000Y-9627500D01*
X420710Y-9613042D01*
X422834Y-9598724D01*
X426351Y-9584683D01*
X431228Y-9571054D01*
X437417Y-9557969D01*
X444858Y-9545553D01*
X453481Y-9533927D01*
X463202Y-9523202D01*
X473927Y-9513481D01*
X485553Y-9504858D01*
X497969Y-9497417D01*
X511054Y-9491228D01*
X524683Y-9486351D01*
X538724Y-9482834D01*
X553042Y-9480710D01*
X567500Y-9480000D01*
X862500Y-9480000D01*
X876958Y-9480710D01*
G37*
G04 #@! TD.AperFunction*
G04 #@! TA.AperFunction,SMDPad,CuDef*
G36*
X-3042Y-13980710D02*
G01*
X11276Y-13982834D01*
X25317Y-13986351D01*
X38946Y-13991228D01*
X52031Y-13997417D01*
X64447Y-14004858D01*
X76073Y-14013481D01*
X86798Y-14023202D01*
X96519Y-14033927D01*
X105142Y-14045553D01*
X112583Y-14057969D01*
X118772Y-14071054D01*
X123649Y-14084683D01*
X127166Y-14098724D01*
X129290Y-14113042D01*
X130000Y-14127500D01*
X130000Y-14472500D01*
X129290Y-14486958D01*
X127166Y-14501276D01*
X123649Y-14515317D01*
X118772Y-14528946D01*
X112583Y-14542031D01*
X105142Y-14554447D01*
X96519Y-14566073D01*
X86798Y-14576798D01*
X76073Y-14586519D01*
X64447Y-14595142D01*
X52031Y-14602583D01*
X38946Y-14608772D01*
X25317Y-14613649D01*
X11276Y-14617166D01*
X-3042Y-14619290D01*
X-17500Y-14620000D01*
X-312500Y-14620000D01*
X-326958Y-14619290D01*
X-341276Y-14617166D01*
X-355317Y-14613649D01*
X-368946Y-14608772D01*
X-382031Y-14602583D01*
X-394447Y-14595142D01*
X-406073Y-14586519D01*
X-416798Y-14576798D01*
X-426519Y-14566073D01*
X-435142Y-14554447D01*
X-442583Y-14542031D01*
X-448772Y-14528946D01*
X-453649Y-14515317D01*
X-457166Y-14501276D01*
X-459290Y-14486958D01*
X-460000Y-14472500D01*
X-460000Y-14127500D01*
X-459290Y-14113042D01*
X-457166Y-14098724D01*
X-453649Y-14084683D01*
X-448772Y-14071054D01*
X-442583Y-14057969D01*
X-435142Y-14045553D01*
X-426519Y-14033927D01*
X-416798Y-14023202D01*
X-406073Y-14013481D01*
X-394447Y-14004858D01*
X-382031Y-13997417D01*
X-368946Y-13991228D01*
X-355317Y-13986351D01*
X-341276Y-13982834D01*
X-326958Y-13980710D01*
X-312500Y-13980000D01*
X-17500Y-13980000D01*
X-3042Y-13980710D01*
G37*
G04 #@! TD.AperFunction*
G04 #@! TA.AperFunction,SMDPad,CuDef*
G36*
X966958Y-13980710D02*
G01*
X981276Y-13982834D01*
X995317Y-13986351D01*
X1008946Y-13991228D01*
X1022031Y-13997417D01*
X1034447Y-14004858D01*
X1046073Y-14013481D01*
X1056798Y-14023202D01*
X1066519Y-14033927D01*
X1075142Y-14045553D01*
X1082583Y-14057969D01*
X1088772Y-14071054D01*
X1093649Y-14084683D01*
X1097166Y-14098724D01*
X1099290Y-14113042D01*
X1100000Y-14127500D01*
X1100000Y-14472500D01*
X1099290Y-14486958D01*
X1097166Y-14501276D01*
X1093649Y-14515317D01*
X1088772Y-14528946D01*
X1082583Y-14542031D01*
X1075142Y-14554447D01*
X1066519Y-14566073D01*
X1056798Y-14576798D01*
X1046073Y-14586519D01*
X1034447Y-14595142D01*
X1022031Y-14602583D01*
X1008946Y-14608772D01*
X995317Y-14613649D01*
X981276Y-14617166D01*
X966958Y-14619290D01*
X952500Y-14620000D01*
X657500Y-14620000D01*
X643042Y-14619290D01*
X628724Y-14617166D01*
X614683Y-14613649D01*
X601054Y-14608772D01*
X587969Y-14602583D01*
X575553Y-14595142D01*
X563927Y-14586519D01*
X553202Y-14576798D01*
X543481Y-14566073D01*
X534858Y-14554447D01*
X527417Y-14542031D01*
X521228Y-14528946D01*
X516351Y-14515317D01*
X512834Y-14501276D01*
X510710Y-14486958D01*
X510000Y-14472500D01*
X510000Y-14127500D01*
X510710Y-14113042D01*
X512834Y-14098724D01*
X516351Y-14084683D01*
X521228Y-14071054D01*
X527417Y-14057969D01*
X534858Y-14045553D01*
X543481Y-14033927D01*
X553202Y-14023202D01*
X563927Y-14013481D01*
X575553Y-14004858D01*
X587969Y-13997417D01*
X601054Y-13991228D01*
X614683Y-13986351D01*
X628724Y-13982834D01*
X643042Y-13980710D01*
X657500Y-13980000D01*
X952500Y-13980000D01*
X966958Y-13980710D01*
G37*
G04 #@! TD.AperFunction*
G04 #@! TA.AperFunction,SMDPad,CuDef*
G36*
X1027691Y-10526053D02*
G01*
X1048926Y-10529203D01*
X1069750Y-10534419D01*
X1089962Y-10541651D01*
X1109368Y-10550830D01*
X1127781Y-10561866D01*
X1145024Y-10574654D01*
X1160930Y-10589070D01*
X1175346Y-10604976D01*
X1188134Y-10622219D01*
X1199170Y-10640632D01*
X1208349Y-10660038D01*
X1215581Y-10680250D01*
X1220797Y-10701074D01*
X1223947Y-10722309D01*
X1225000Y-10743750D01*
X1225000Y-11256250D01*
X1223947Y-11277691D01*
X1220797Y-11298926D01*
X1215581Y-11319750D01*
X1208349Y-11339962D01*
X1199170Y-11359368D01*
X1188134Y-11377781D01*
X1175346Y-11395024D01*
X1160930Y-11410930D01*
X1145024Y-11425346D01*
X1127781Y-11438134D01*
X1109368Y-11449170D01*
X1089962Y-11458349D01*
X1069750Y-11465581D01*
X1048926Y-11470797D01*
X1027691Y-11473947D01*
X1006250Y-11475000D01*
X568750Y-11475000D01*
X547309Y-11473947D01*
X526074Y-11470797D01*
X505250Y-11465581D01*
X485038Y-11458349D01*
X465632Y-11449170D01*
X447219Y-11438134D01*
X429976Y-11425346D01*
X414070Y-11410930D01*
X399654Y-11395024D01*
X386866Y-11377781D01*
X375830Y-11359368D01*
X366651Y-11339962D01*
X359419Y-11319750D01*
X354203Y-11298926D01*
X351053Y-11277691D01*
X350000Y-11256250D01*
X350000Y-10743750D01*
X351053Y-10722309D01*
X354203Y-10701074D01*
X359419Y-10680250D01*
X366651Y-10660038D01*
X375830Y-10640632D01*
X386866Y-10622219D01*
X399654Y-10604976D01*
X414070Y-10589070D01*
X429976Y-10574654D01*
X447219Y-10561866D01*
X465632Y-10550830D01*
X485038Y-10541651D01*
X505250Y-10534419D01*
X526074Y-10529203D01*
X547309Y-10526053D01*
X568750Y-10525000D01*
X1006250Y-10525000D01*
X1027691Y-10526053D01*
G37*
G04 #@! TD.AperFunction*
G04 #@! TA.AperFunction,SMDPad,CuDef*
G36*
X-547309Y-10526053D02*
G01*
X-526074Y-10529203D01*
X-505250Y-10534419D01*
X-485038Y-10541651D01*
X-465632Y-10550830D01*
X-447219Y-10561866D01*
X-429976Y-10574654D01*
X-414070Y-10589070D01*
X-399654Y-10604976D01*
X-386866Y-10622219D01*
X-375830Y-10640632D01*
X-366651Y-10660038D01*
X-359419Y-10680250D01*
X-354203Y-10701074D01*
X-351053Y-10722309D01*
X-350000Y-10743750D01*
X-350000Y-11256250D01*
X-351053Y-11277691D01*
X-354203Y-11298926D01*
X-359419Y-11319750D01*
X-366651Y-11339962D01*
X-375830Y-11359368D01*
X-386866Y-11377781D01*
X-399654Y-11395024D01*
X-414070Y-11410930D01*
X-429976Y-11425346D01*
X-447219Y-11438134D01*
X-465632Y-11449170D01*
X-485038Y-11458349D01*
X-505250Y-11465581D01*
X-526074Y-11470797D01*
X-547309Y-11473947D01*
X-568750Y-11475000D01*
X-1006250Y-11475000D01*
X-1027691Y-11473947D01*
X-1048926Y-11470797D01*
X-1069750Y-11465581D01*
X-1089962Y-11458349D01*
X-1109368Y-11449170D01*
X-1127781Y-11438134D01*
X-1145024Y-11425346D01*
X-1160930Y-11410930D01*
X-1175346Y-11395024D01*
X-1188134Y-11377781D01*
X-1199170Y-11359368D01*
X-1208349Y-11339962D01*
X-1215581Y-11319750D01*
X-1220797Y-11298926D01*
X-1223947Y-11277691D01*
X-1225000Y-11256250D01*
X-1225000Y-10743750D01*
X-1223947Y-10722309D01*
X-1220797Y-10701074D01*
X-1215581Y-10680250D01*
X-1208349Y-10660038D01*
X-1199170Y-10640632D01*
X-1188134Y-10622219D01*
X-1175346Y-10604976D01*
X-1160930Y-10589070D01*
X-1145024Y-10574654D01*
X-1127781Y-10561866D01*
X-1109368Y-10550830D01*
X-1089962Y-10541651D01*
X-1069750Y-10534419D01*
X-1048926Y-10529203D01*
X-1027691Y-10526053D01*
X-1006250Y-10525000D01*
X-568750Y-10525000D01*
X-547309Y-10526053D01*
G37*
G04 #@! TD.AperFunction*
G04 #@! TA.AperFunction,SMDPad,CuDef*
G36*
X1015191Y-12106053D02*
G01*
X1036426Y-12109203D01*
X1057250Y-12114419D01*
X1077462Y-12121651D01*
X1096868Y-12130830D01*
X1115281Y-12141866D01*
X1132524Y-12154654D01*
X1148430Y-12169070D01*
X1162846Y-12184976D01*
X1175634Y-12202219D01*
X1186670Y-12220632D01*
X1195849Y-12240038D01*
X1203081Y-12260250D01*
X1208297Y-12281074D01*
X1211447Y-12302309D01*
X1212500Y-12323750D01*
X1212500Y-12836250D01*
X1211447Y-12857691D01*
X1208297Y-12878926D01*
X1203081Y-12899750D01*
X1195849Y-12919962D01*
X1186670Y-12939368D01*
X1175634Y-12957781D01*
X1162846Y-12975024D01*
X1148430Y-12990930D01*
X1132524Y-13005346D01*
X1115281Y-13018134D01*
X1096868Y-13029170D01*
X1077462Y-13038349D01*
X1057250Y-13045581D01*
X1036426Y-13050797D01*
X1015191Y-13053947D01*
X993750Y-13055000D01*
X556250Y-13055000D01*
X534809Y-13053947D01*
X513574Y-13050797D01*
X492750Y-13045581D01*
X472538Y-13038349D01*
X453132Y-13029170D01*
X434719Y-13018134D01*
X417476Y-13005346D01*
X401570Y-12990930D01*
X387154Y-12975024D01*
X374366Y-12957781D01*
X363330Y-12939368D01*
X354151Y-12919962D01*
X346919Y-12899750D01*
X341703Y-12878926D01*
X338553Y-12857691D01*
X337500Y-12836250D01*
X337500Y-12323750D01*
X338553Y-12302309D01*
X341703Y-12281074D01*
X346919Y-12260250D01*
X354151Y-12240038D01*
X363330Y-12220632D01*
X374366Y-12202219D01*
X387154Y-12184976D01*
X401570Y-12169070D01*
X417476Y-12154654D01*
X434719Y-12141866D01*
X453132Y-12130830D01*
X472538Y-12121651D01*
X492750Y-12114419D01*
X513574Y-12109203D01*
X534809Y-12106053D01*
X556250Y-12105000D01*
X993750Y-12105000D01*
X1015191Y-12106053D01*
G37*
G04 #@! TD.AperFunction*
G04 #@! TA.AperFunction,SMDPad,CuDef*
G36*
X-559809Y-12106053D02*
G01*
X-538574Y-12109203D01*
X-517750Y-12114419D01*
X-497538Y-12121651D01*
X-478132Y-12130830D01*
X-459719Y-12141866D01*
X-442476Y-12154654D01*
X-426570Y-12169070D01*
X-412154Y-12184976D01*
X-399366Y-12202219D01*
X-388330Y-12220632D01*
X-379151Y-12240038D01*
X-371919Y-12260250D01*
X-366703Y-12281074D01*
X-363553Y-12302309D01*
X-362500Y-12323750D01*
X-362500Y-12836250D01*
X-363553Y-12857691D01*
X-366703Y-12878926D01*
X-371919Y-12899750D01*
X-379151Y-12919962D01*
X-388330Y-12939368D01*
X-399366Y-12957781D01*
X-412154Y-12975024D01*
X-426570Y-12990930D01*
X-442476Y-13005346D01*
X-459719Y-13018134D01*
X-478132Y-13029170D01*
X-497538Y-13038349D01*
X-517750Y-13045581D01*
X-538574Y-13050797D01*
X-559809Y-13053947D01*
X-581250Y-13055000D01*
X-1018750Y-13055000D01*
X-1040191Y-13053947D01*
X-1061426Y-13050797D01*
X-1082250Y-13045581D01*
X-1102462Y-13038349D01*
X-1121868Y-13029170D01*
X-1140281Y-13018134D01*
X-1157524Y-13005346D01*
X-1173430Y-12990930D01*
X-1187846Y-12975024D01*
X-1200634Y-12957781D01*
X-1211670Y-12939368D01*
X-1220849Y-12919962D01*
X-1228081Y-12899750D01*
X-1233297Y-12878926D01*
X-1236447Y-12857691D01*
X-1237500Y-12836250D01*
X-1237500Y-12323750D01*
X-1236447Y-12302309D01*
X-1233297Y-12281074D01*
X-1228081Y-12260250D01*
X-1220849Y-12240038D01*
X-1211670Y-12220632D01*
X-1200634Y-12202219D01*
X-1187846Y-12184976D01*
X-1173430Y-12169070D01*
X-1157524Y-12154654D01*
X-1140281Y-12141866D01*
X-1121868Y-12130830D01*
X-1102462Y-12121651D01*
X-1082250Y-12114419D01*
X-1061426Y-12109203D01*
X-1040191Y-12106053D01*
X-1018750Y-12105000D01*
X-581250Y-12105000D01*
X-559809Y-12106053D01*
G37*
G04 #@! TD.AperFunction*
G04 #@! TA.AperFunction,SMDPad,CuDef*
G36*
X-6909122Y7654810D02*
G01*
X-6894804Y7652686D01*
X-6880763Y7649169D01*
X-6867134Y7644292D01*
X-6854049Y7638103D01*
X-6841633Y7630662D01*
X-6830007Y7622039D01*
X-6819282Y7612318D01*
X-6809561Y7601593D01*
X-6800938Y7589967D01*
X-6793497Y7577551D01*
X-6787308Y7564466D01*
X-6782431Y7550837D01*
X-6778914Y7536796D01*
X-6776790Y7522478D01*
X-6776080Y7508020D01*
X-6776080Y7163020D01*
X-6776790Y7148562D01*
X-6778914Y7134244D01*
X-6782431Y7120203D01*
X-6787308Y7106574D01*
X-6793497Y7093489D01*
X-6800938Y7081073D01*
X-6809561Y7069447D01*
X-6819282Y7058722D01*
X-6830007Y7049001D01*
X-6841633Y7040378D01*
X-6854049Y7032937D01*
X-6867134Y7026748D01*
X-6880763Y7021871D01*
X-6894804Y7018354D01*
X-6909122Y7016230D01*
X-6923580Y7015520D01*
X-7218580Y7015520D01*
X-7233038Y7016230D01*
X-7247356Y7018354D01*
X-7261397Y7021871D01*
X-7275026Y7026748D01*
X-7288111Y7032937D01*
X-7300527Y7040378D01*
X-7312153Y7049001D01*
X-7322878Y7058722D01*
X-7332599Y7069447D01*
X-7341222Y7081073D01*
X-7348663Y7093489D01*
X-7354852Y7106574D01*
X-7359729Y7120203D01*
X-7363246Y7134244D01*
X-7365370Y7148562D01*
X-7366080Y7163020D01*
X-7366080Y7508020D01*
X-7365370Y7522478D01*
X-7363246Y7536796D01*
X-7359729Y7550837D01*
X-7354852Y7564466D01*
X-7348663Y7577551D01*
X-7341222Y7589967D01*
X-7332599Y7601593D01*
X-7322878Y7612318D01*
X-7312153Y7622039D01*
X-7300527Y7630662D01*
X-7288111Y7638103D01*
X-7275026Y7644292D01*
X-7261397Y7649169D01*
X-7247356Y7652686D01*
X-7233038Y7654810D01*
X-7218580Y7655520D01*
X-6923580Y7655520D01*
X-6909122Y7654810D01*
G37*
G04 #@! TD.AperFunction*
G04 #@! TA.AperFunction,SMDPad,CuDef*
G36*
X-5939122Y7654810D02*
G01*
X-5924804Y7652686D01*
X-5910763Y7649169D01*
X-5897134Y7644292D01*
X-5884049Y7638103D01*
X-5871633Y7630662D01*
X-5860007Y7622039D01*
X-5849282Y7612318D01*
X-5839561Y7601593D01*
X-5830938Y7589967D01*
X-5823497Y7577551D01*
X-5817308Y7564466D01*
X-5812431Y7550837D01*
X-5808914Y7536796D01*
X-5806790Y7522478D01*
X-5806080Y7508020D01*
X-5806080Y7163020D01*
X-5806790Y7148562D01*
X-5808914Y7134244D01*
X-5812431Y7120203D01*
X-5817308Y7106574D01*
X-5823497Y7093489D01*
X-5830938Y7081073D01*
X-5839561Y7069447D01*
X-5849282Y7058722D01*
X-5860007Y7049001D01*
X-5871633Y7040378D01*
X-5884049Y7032937D01*
X-5897134Y7026748D01*
X-5910763Y7021871D01*
X-5924804Y7018354D01*
X-5939122Y7016230D01*
X-5953580Y7015520D01*
X-6248580Y7015520D01*
X-6263038Y7016230D01*
X-6277356Y7018354D01*
X-6291397Y7021871D01*
X-6305026Y7026748D01*
X-6318111Y7032937D01*
X-6330527Y7040378D01*
X-6342153Y7049001D01*
X-6352878Y7058722D01*
X-6362599Y7069447D01*
X-6371222Y7081073D01*
X-6378663Y7093489D01*
X-6384852Y7106574D01*
X-6389729Y7120203D01*
X-6393246Y7134244D01*
X-6395370Y7148562D01*
X-6396080Y7163020D01*
X-6396080Y7508020D01*
X-6395370Y7522478D01*
X-6393246Y7536796D01*
X-6389729Y7550837D01*
X-6384852Y7564466D01*
X-6378663Y7577551D01*
X-6371222Y7589967D01*
X-6362599Y7601593D01*
X-6352878Y7612318D01*
X-6342153Y7622039D01*
X-6330527Y7630662D01*
X-6318111Y7638103D01*
X-6305026Y7644292D01*
X-6291397Y7649169D01*
X-6277356Y7652686D01*
X-6263038Y7654810D01*
X-6248580Y7655520D01*
X-5953580Y7655520D01*
X-5939122Y7654810D01*
G37*
G04 #@! TD.AperFunction*
D12*
X7322200Y-9245600D03*
X7322200Y-10515600D03*
X7322200Y-11785600D03*
X7322200Y-13055600D03*
X7322200Y-14325600D03*
X7322200Y-15595600D03*
X7322200Y-16865600D03*
D13*
X7322200Y-18135600D03*
D14*
X7327900Y15913100D03*
X9258300Y17843500D03*
X7327900Y17881600D03*
X3048000Y-13081000D03*
X1778000Y-11823700D03*
X13370560Y13553440D03*
X-8417560Y8346440D03*
X-9799320Y11887200D03*
X-8696960Y14300200D03*
X-9121100Y14297700D03*
X-9552900Y14297700D03*
X-5857240Y14625320D03*
X-4111480Y9000000D03*
X-4614400Y9000000D03*
X-5127480Y9000000D03*
X-11188700Y1168400D03*
X-11190000Y709900D03*
X-11190000Y240000D03*
X-11190000Y-242600D03*
X2540000Y-8737600D03*
X4483100Y-10325100D03*
X-812800Y-13944600D03*
X1803400Y-13068300D03*
X3048000Y-11811000D03*
X2413000Y-12446000D03*
X4838700Y-14871700D03*
X10121900Y-12687300D03*
X16675100Y-14287500D03*
X14643100Y-12407900D03*
X11264900Y-20116800D03*
X12052300Y-20231100D03*
X18846800Y1066800D03*
X18845500Y138400D03*
X18845500Y-344200D03*
X18845500Y608300D03*
X9258300Y15925800D03*
X8280400Y16878300D03*
X12547600Y-16281400D03*
X13182600Y-16916400D03*
X13182600Y-15646400D03*
X11938000Y-16903700D03*
X11912600Y-15659100D03*
X-2286000Y-9537700D03*
X5994400Y-11201400D03*
X5461000Y-11201400D03*
X5143500Y-11518900D03*
X4978400Y-11988800D03*
X4633740Y-12355340D03*
X-965200Y-15189200D03*
X-508000Y-15189200D03*
X-63500Y-15189200D03*
X419100Y-15189200D03*
X876300Y-15189200D03*
X8686800Y-16268700D03*
X9079040Y-16041560D03*
X9510840Y-16041560D03*
X9942640Y-16041560D03*
X10374440Y-16041560D03*
X8483600Y-19989800D03*
X8483600Y-19519900D03*
X8483600Y-20916900D03*
X8486801Y-20472400D03*
X8483600Y-19075400D03*
X-4927600Y16840200D03*
X-4927600Y17312640D03*
X-4927600Y17764760D03*
X-4937760Y18242280D03*
X-12842240Y18216880D03*
X2717800Y-16002000D03*
X355600Y-16433800D03*
X3568700Y-13982700D03*
X2908300Y-15214600D03*
X13652500Y-17818100D03*
X15138400Y-15011400D03*
X11315700Y-14770100D03*
X11772900Y-13398500D03*
X11391900Y-17780000D03*
X11391900Y-19050000D03*
X-5481320Y7320280D03*
X8300720Y9652000D03*
X7858760Y7955280D03*
X8483600Y8961120D03*
X8902700Y8559800D03*
X6959523Y13851876D03*
X6832600Y9011920D03*
X-6642100Y10782300D03*
X-4495800Y11366500D03*
X12700Y-10515600D03*
X11811000Y11938000D03*
X6413500Y-7658100D03*
X11379200Y10871200D03*
X-2025599Y-11801648D03*
X5473700Y15659100D03*
X5676900Y16154400D03*
X9994900Y-2806700D03*
X14312900Y-17792700D03*
X15722600Y17233900D03*
X14960600Y-18415000D03*
X15786100Y17805400D03*
D15*
X-7875000Y8350000D02*
X-8414000Y8350000D01*
X-8414000Y8350000D02*
X-8417560Y8346440D01*
D16*
X5461000Y-11201400D02*
X5143500Y-11518900D01*
X5994400Y-11201400D02*
X5461000Y-11201400D01*
X5143500Y-11823700D02*
X4978400Y-11988800D01*
X5143500Y-11518900D02*
X5143500Y-11823700D01*
X4978400Y-12010680D02*
X4633740Y-12355340D01*
X4978400Y-11988800D02*
X4978400Y-12010680D01*
X4433741Y-12555339D02*
X4297561Y-12555339D01*
X4633740Y-12355340D02*
X4433741Y-12555339D01*
X4297561Y-12555339D02*
X2768600Y-14084300D01*
X2768600Y-14084300D02*
X2374900Y-14084300D01*
X2374900Y-14084300D02*
X1270000Y-15189200D01*
X1270000Y-15189200D02*
X876300Y-15189200D01*
X-508000Y-15189200D02*
X-965200Y-15189200D01*
X-63500Y-15189200D02*
X-508000Y-15189200D01*
X419100Y-15189200D02*
X-63500Y-15189200D01*
X876300Y-15189200D02*
X419100Y-15189200D01*
X10374440Y-16041560D02*
X9079040Y-16041560D01*
X8913940Y-16041560D02*
X8686800Y-16268700D01*
X9079040Y-16041560D02*
X8913940Y-16041560D01*
X8486801Y-20151699D02*
X8486801Y-20151699D01*
X8486801Y-19719899D02*
X8486801Y-20151699D01*
X8486801Y-20151699D02*
X8486801Y-20545399D01*
X8486801Y-20913699D02*
X8483600Y-20916900D01*
X8486801Y-20545399D02*
X8486801Y-20913699D01*
X8486801Y-19275399D02*
X8486801Y-19719899D01*
X8686800Y-16268700D02*
X8486801Y-16468699D01*
X8486801Y-16468699D02*
X8486801Y-19275399D01*
D15*
X2717800Y-16002000D02*
X2286000Y-16433800D01*
X2286000Y-16433800D02*
X355600Y-16433800D01*
X3568700Y-13982700D02*
X3568700Y-14554200D01*
X3568700Y-14554200D02*
X2908300Y-15214600D01*
X13652500Y-17818100D02*
X15138400Y-16332200D01*
X15138400Y-16332200D02*
X15138400Y-15011400D01*
X11315700Y-14770100D02*
X11315700Y-13855700D01*
X11315700Y-13855700D02*
X11772900Y-13398500D01*
X11391900Y-17780000D02*
X11391900Y-19050000D01*
X-6101080Y8326080D02*
X-6125000Y8350000D01*
X-6101080Y7335520D02*
X-6101080Y8326080D01*
X-6101080Y7335520D02*
X-5496560Y7335520D01*
X-5496560Y7335520D02*
X-5481320Y7320280D01*
X7875000Y9650000D02*
X8298720Y9650000D01*
X8298720Y9650000D02*
X8300720Y9652000D01*
X7875000Y8350000D02*
X7875000Y7971520D01*
X7875000Y7971520D02*
X7858760Y7955280D01*
X7843520Y7940040D02*
X7858760Y7955280D01*
X7843520Y7289800D02*
X7843520Y7940040D01*
X7875000Y9000000D02*
X8444720Y9000000D01*
X8444720Y9000000D02*
X8483600Y8961120D01*
X8902700Y10020300D02*
X8902700Y8842642D01*
X8902700Y8842642D02*
X8902700Y8559800D01*
X6959523Y11963477D02*
X6959523Y13569034D01*
X8902700Y10020300D02*
X6959523Y11963477D01*
X6959523Y13569034D02*
X6959523Y13851876D01*
X-4762500Y11950700D02*
X6972300Y11950700D01*
X-6769100Y9944100D02*
X-4762500Y11950700D01*
X6972300Y11950700D02*
X8902700Y10020300D01*
X-6769100Y9169100D02*
X-6769100Y9944100D01*
X-6125000Y9000000D02*
X-6600000Y9000000D01*
X-6600000Y9000000D02*
X-6769100Y9169100D01*
X6125000Y9000000D02*
X6820680Y9000000D01*
X6820680Y9000000D02*
X6832600Y9011920D01*
X-7108811Y10315589D02*
X-6642100Y10782300D01*
X-7108811Y9291189D02*
X-7108811Y10315589D01*
X-7875000Y9000000D02*
X-7400000Y9000000D01*
X-7400000Y9000000D02*
X-7108811Y9291189D01*
X3517900Y11366500D02*
X-4212958Y11366500D01*
X6832600Y9011920D02*
X5872480Y9011920D01*
X-4212958Y11366500D02*
X-4495800Y11366500D01*
X5872480Y9011920D02*
X3517900Y11366500D01*
X805000Y-12610000D02*
X775000Y-12580000D01*
X805000Y-14300000D02*
X805000Y-12610000D01*
X715000Y-10927500D02*
X787500Y-11000000D01*
X715000Y-9800000D02*
X715000Y-10927500D01*
X-165000Y-13980000D02*
X12700Y-13802300D01*
X-165000Y-14300000D02*
X-165000Y-13980000D01*
X12700Y-13802300D02*
X12700Y-10515600D01*
X12010999Y-2060601D02*
X12010999Y11738001D01*
X12010999Y11738001D02*
X11811000Y11938000D01*
X6413500Y-7658100D02*
X12010999Y-2060601D01*
X11379200Y-2032000D02*
X11379200Y10588358D01*
X11379200Y10588358D02*
X11379200Y10871200D01*
X1585289Y-7959711D02*
X5451489Y-7959711D01*
X-255000Y-9800000D02*
X1585289Y-7959711D01*
X5451489Y-7959711D02*
X11379200Y-2032000D01*
X9626600Y-2514600D02*
X4508500Y-7632700D01*
X9626600Y12153900D02*
X9626600Y-2514600D01*
X5473700Y15659100D02*
X6121400Y15659100D01*
X-2025599Y-11518806D02*
X-2025599Y-11801648D01*
X-142738Y-8140700D02*
X-2025599Y-10023561D01*
X6121400Y15659100D02*
X9626600Y12153900D01*
X-2025599Y-10023561D02*
X-2025599Y-11518806D01*
X4508500Y-7632700D02*
X1290583Y-7632700D01*
X1290583Y-7632700D02*
X782583Y-8140700D01*
X782583Y-8140700D02*
X-142738Y-8140700D01*
X9994900Y12255500D02*
X6096000Y16154400D01*
X5959742Y16154400D02*
X5676900Y16154400D01*
X6096000Y16154400D02*
X5959742Y16154400D01*
X9994900Y-2806700D02*
X9994900Y12255500D01*
X15722600Y17233900D02*
X19646900Y13309600D01*
X19646900Y13309600D02*
X19646900Y-13487400D01*
X15341600Y-17792700D02*
X14312900Y-17792700D01*
X19646900Y-13487400D02*
X15341600Y-17792700D01*
X19973911Y-13684531D02*
X19973911Y13617589D01*
X15243442Y-18415000D02*
X19973911Y-13684531D01*
X14960600Y-18415000D02*
X15243442Y-18415000D01*
X19973911Y13617589D02*
X15986099Y17605401D01*
X15986099Y17605401D02*
X15786100Y17805400D01*
D17*
G36*
X1466155Y24550674D02*
G01*
X3387850Y24359960D01*
X5288667Y24019059D01*
X7156884Y23530070D01*
X8980962Y22896015D01*
X10749677Y22120797D01*
X12452128Y21209189D01*
X14077790Y20166830D01*
X15616660Y19000134D01*
X17059252Y17716294D01*
X18396667Y16323230D01*
X19623290Y14826318D01*
X20093997Y14178444D01*
X20093997Y14177740D01*
X16356668Y17915068D01*
X16344772Y17974871D01*
X16300975Y18080607D01*
X16237392Y18175766D01*
X16156466Y18256692D01*
X16061307Y18320275D01*
X15955571Y18364072D01*
X15843323Y18386400D01*
X15728877Y18386400D01*
X15616629Y18364072D01*
X15510893Y18320275D01*
X15415734Y18256692D01*
X15334808Y18175766D01*
X15271225Y18080607D01*
X15227428Y17974871D01*
X15205100Y17862623D01*
X15205100Y17748177D01*
X15227428Y17635929D01*
X15252316Y17575843D01*
X15207725Y17509107D01*
X15163928Y17403371D01*
X15141600Y17291123D01*
X15141600Y17176677D01*
X15163928Y17064429D01*
X15207725Y16958693D01*
X15271308Y16863534D01*
X15352234Y16782608D01*
X15447393Y16719025D01*
X15553129Y16675228D01*
X15612932Y16663332D01*
X19165900Y13110363D01*
X19165901Y-13288162D01*
X15142364Y-17311700D01*
X14839137Y-17311700D01*
X15461812Y-16689025D01*
X15480164Y-16673964D01*
X15540272Y-16600722D01*
X15584936Y-16517161D01*
X15610223Y-16433800D01*
X15612440Y-16426493D01*
X15621727Y-16332200D01*
X15619400Y-16308574D01*
X15619400Y-15337305D01*
X15653275Y-15286607D01*
X15697072Y-15180871D01*
X15719400Y-15068623D01*
X15719400Y-14954177D01*
X15697072Y-14841929D01*
X15653275Y-14736193D01*
X15589692Y-14641034D01*
X15508766Y-14560108D01*
X15413607Y-14496525D01*
X15307871Y-14452728D01*
X15195623Y-14430400D01*
X15081177Y-14430400D01*
X14968929Y-14452728D01*
X14863193Y-14496525D01*
X14768034Y-14560108D01*
X14687108Y-14641034D01*
X14623525Y-14736193D01*
X14579728Y-14841929D01*
X14557400Y-14954177D01*
X14557400Y-15068623D01*
X14579728Y-15180871D01*
X14623525Y-15286607D01*
X14657401Y-15337306D01*
X14657400Y-16132963D01*
X13542832Y-17247532D01*
X13483029Y-17259428D01*
X13377293Y-17303225D01*
X13282134Y-17366808D01*
X13201208Y-17447734D01*
X13137625Y-17542893D01*
X13093828Y-17648629D01*
X13071500Y-17760877D01*
X13071500Y-17875323D01*
X13093828Y-17987571D01*
X13137625Y-18093307D01*
X13201208Y-18188466D01*
X13282134Y-18269392D01*
X13377293Y-18332975D01*
X13483029Y-18376772D01*
X13595277Y-18399100D01*
X13709723Y-18399100D01*
X13821971Y-18376772D01*
X13927707Y-18332975D01*
X14001707Y-18283530D01*
X14037693Y-18307575D01*
X14143429Y-18351372D01*
X14255677Y-18373700D01*
X14370123Y-18373700D01*
X14379600Y-18371815D01*
X14379600Y-18472223D01*
X14401928Y-18584471D01*
X14445725Y-18690207D01*
X14509308Y-18785366D01*
X14590234Y-18866292D01*
X14685393Y-18929875D01*
X14791129Y-18973672D01*
X14903377Y-18996000D01*
X15017823Y-18996000D01*
X15130071Y-18973672D01*
X15235807Y-18929875D01*
X15289865Y-18893755D01*
X15337734Y-18889040D01*
X15428403Y-18861536D01*
X15511964Y-18816872D01*
X15585206Y-18756764D01*
X15600272Y-18738406D01*
X19872093Y-14466586D01*
X18999340Y-15617628D01*
X17715438Y-17060142D01*
X16322305Y-18397487D01*
X14828530Y-19621415D01*
X13243349Y-20724355D01*
X11576509Y-21699530D01*
X9838301Y-22540919D01*
X8039415Y-23243343D01*
X6190995Y-23802453D01*
X4304381Y-24214820D01*
X2391249Y-24477890D01*
X463351Y-24590048D01*
X-1467381Y-24550601D01*
X-3389077Y-24359789D01*
X-5289865Y-24018795D01*
X-7158067Y-23529710D01*
X-8982122Y-22895559D01*
X-10750786Y-22120257D01*
X-12453186Y-21208567D01*
X-14078791Y-20166131D01*
X-14509757Y-19839360D01*
X-1630300Y-19839360D01*
X-1630300Y-20160640D01*
X-1567622Y-20475745D01*
X-1444674Y-20772568D01*
X-1266181Y-21039702D01*
X-1039002Y-21266881D01*
X-771868Y-21445374D01*
X-475045Y-21568322D01*
X-159940Y-21631000D01*
X161340Y-21631000D01*
X476445Y-21568322D01*
X773268Y-21445374D01*
X1040402Y-21266881D01*
X1267581Y-21039702D01*
X1446074Y-20772568D01*
X1569022Y-20475745D01*
X1631700Y-20160640D01*
X1631700Y-19839360D01*
X1569022Y-19524255D01*
X1446074Y-19227432D01*
X1267581Y-18960298D01*
X1040402Y-18733119D01*
X773268Y-18554626D01*
X476445Y-18431678D01*
X161340Y-18369000D01*
X-159940Y-18369000D01*
X-475045Y-18431678D01*
X-771868Y-18554626D01*
X-1039002Y-18733119D01*
X-1266181Y-18960298D01*
X-1444674Y-19227432D01*
X-1567622Y-19524255D01*
X-1630300Y-19839360D01*
X-14509757Y-19839360D01*
X-15617628Y-18999340D01*
X-17060142Y-17715438D01*
X-18397487Y-16322305D01*
X-19624042Y-14825322D01*
X-20094001Y-14178445D01*
X-20094001Y-5839360D01*
X-15730300Y-5839360D01*
X-15730300Y-6160640D01*
X-15667622Y-6475745D01*
X-15544674Y-6772568D01*
X-15366181Y-7039702D01*
X-15139002Y-7266881D01*
X-14871868Y-7445374D01*
X-14575045Y-7568322D01*
X-14259940Y-7631000D01*
X-13938660Y-7631000D01*
X-13623555Y-7568322D01*
X-13326732Y-7445374D01*
X-13059598Y-7266881D01*
X-12832419Y-7039702D01*
X-12653926Y-6772568D01*
X-12530978Y-6475745D01*
X-12468300Y-6160640D01*
X-12468300Y-5839360D01*
X-12530978Y-5524255D01*
X-12653926Y-5227432D01*
X-12832419Y-4960298D01*
X-13059598Y-4733119D01*
X-13326732Y-4554626D01*
X-13623555Y-4431678D01*
X-13938660Y-4369000D01*
X-14259940Y-4369000D01*
X-14575045Y-4431678D01*
X-14871868Y-4554626D01*
X-15139002Y-4733119D01*
X-15366181Y-4960298D01*
X-15544674Y-5227432D01*
X-15667622Y-5524255D01*
X-15730300Y-5839360D01*
X-20094001Y-5839360D01*
X-20094000Y6160640D01*
X-15730300Y6160640D01*
X-15730300Y5839360D01*
X-15667622Y5524255D01*
X-15544674Y5227432D01*
X-15366181Y4960298D01*
X-15139002Y4733119D01*
X-14871868Y4554626D01*
X-14575045Y4431678D01*
X-14259940Y4369000D01*
X-13938660Y4369000D01*
X-13623555Y4431678D01*
X-13326732Y4554626D01*
X-13059598Y4733119D01*
X-12832419Y4960298D01*
X-12653926Y5227432D01*
X-12530978Y5524255D01*
X-12468300Y5839360D01*
X-12468300Y6160640D01*
X-12530978Y6475745D01*
X-12653926Y6772568D01*
X-12832419Y7039702D01*
X-13059598Y7266881D01*
X-13326732Y7445374D01*
X-13623555Y7568322D01*
X-13938660Y7631000D01*
X-14259940Y7631000D01*
X-14575045Y7568322D01*
X-14871868Y7445374D01*
X-15139002Y7266881D01*
X-15366181Y7039702D01*
X-15544674Y6772568D01*
X-15667622Y6475745D01*
X-15730300Y6160640D01*
X-20094000Y6160640D01*
X-20094000Y9800000D01*
X-8532843Y9800000D01*
X-8532843Y9500000D01*
X-8525487Y9425311D01*
X-8503701Y9353492D01*
X-8488471Y9325000D01*
X-8503701Y9296508D01*
X-8525487Y9224689D01*
X-8532843Y9150000D01*
X-8532843Y8850000D01*
X-8525487Y8775311D01*
X-8503701Y8703492D01*
X-8468322Y8637304D01*
X-8420711Y8579289D01*
X-8362696Y8531678D01*
X-8296508Y8496299D01*
X-8224689Y8474513D01*
X-8150000Y8467157D01*
X-7600000Y8467157D01*
X-7525311Y8474513D01*
X-7453492Y8496299D01*
X-7412983Y8517952D01*
X-7400000Y8516673D01*
X-7376374Y8519000D01*
X-7305708Y8525960D01*
X-7215039Y8553464D01*
X-7131478Y8598128D01*
X-7058236Y8658236D01*
X-7043170Y8676594D01*
X-7000000Y8719764D01*
X-6956834Y8676599D01*
X-6941764Y8658236D01*
X-6868522Y8598128D01*
X-6798364Y8560628D01*
X-6784961Y8553464D01*
X-6777792Y8551289D01*
X-6782843Y8500000D01*
X-6782843Y8200000D01*
X-6775487Y8125311D01*
X-6753701Y8053492D01*
X-6718322Y7987304D01*
X-6670711Y7929289D01*
X-6618966Y7886823D01*
X-6623589Y7883029D01*
X-6689544Y7802663D01*
X-6738553Y7710973D01*
X-6768733Y7611485D01*
X-6778923Y7508020D01*
X-6778923Y7163020D01*
X-6768733Y7059555D01*
X-6738553Y6960067D01*
X-6689544Y6868377D01*
X-6623589Y6788011D01*
X-6543223Y6722056D01*
X-6451533Y6673047D01*
X-6352045Y6642867D01*
X-6248580Y6632677D01*
X-5953580Y6632677D01*
X-5850115Y6642867D01*
X-5750627Y6673047D01*
X-5658937Y6722056D01*
X-5618556Y6755196D01*
X-5538543Y6739280D01*
X-5424097Y6739280D01*
X-5311849Y6761608D01*
X-5206113Y6805405D01*
X-5110954Y6868988D01*
X-5030028Y6949914D01*
X-4966445Y7045073D01*
X-4922648Y7150809D01*
X-4900320Y7263057D01*
X-4900320Y7377503D01*
X-4922648Y7489751D01*
X-4966445Y7595487D01*
X-5030028Y7690646D01*
X-5110954Y7771572D01*
X-5206113Y7835155D01*
X-5311849Y7878952D01*
X-5424097Y7901280D01*
X-5538543Y7901280D01*
X-5588662Y7891310D01*
X-5607114Y7906454D01*
X-5579289Y7929289D01*
X-5531678Y7987304D01*
X-5496299Y8053492D01*
X-5474513Y8125311D01*
X-5467157Y8200000D01*
X-5467157Y8500000D01*
X-5474513Y8574689D01*
X-5496299Y8646508D01*
X-5511529Y8675000D01*
X-5496299Y8703492D01*
X-5474513Y8775311D01*
X-5467157Y8850000D01*
X-5467157Y9150000D01*
X-5474513Y9224689D01*
X-5496299Y9296508D01*
X-5531678Y9362696D01*
X-5579289Y9420711D01*
X-5637304Y9468322D01*
X-5703492Y9503701D01*
X-5775311Y9525487D01*
X-5850000Y9532843D01*
X-6288100Y9532843D01*
X-6288100Y9744864D01*
X-4983036Y11049928D01*
X-4947092Y10996134D01*
X-4866166Y10915208D01*
X-4771007Y10851625D01*
X-4665271Y10807828D01*
X-4553023Y10785500D01*
X-4438577Y10785500D01*
X-4326329Y10807828D01*
X-4220593Y10851625D01*
X-4169895Y10885500D01*
X3318664Y10885500D01*
X5494395Y8709768D01*
X5496299Y8703492D01*
X5531678Y8637304D01*
X5579289Y8579289D01*
X5637304Y8531678D01*
X5703492Y8496299D01*
X5775311Y8474513D01*
X5850000Y8467157D01*
X6400000Y8467157D01*
X6474689Y8474513D01*
X6546508Y8496299D01*
X6553176Y8499863D01*
X6557393Y8497045D01*
X6663129Y8453248D01*
X6775377Y8430920D01*
X6889823Y8430920D01*
X7002071Y8453248D01*
X7107807Y8497045D01*
X7202966Y8560628D01*
X7227773Y8585435D01*
X7224513Y8574689D01*
X7217157Y8500000D01*
X7217157Y8200000D01*
X7224513Y8125311D01*
X7246299Y8053492D01*
X7277760Y7994634D01*
X7277760Y7898057D01*
X7295924Y7806741D01*
X7255056Y7756943D01*
X7206047Y7665253D01*
X7175867Y7565765D01*
X7165677Y7462300D01*
X7165677Y7117300D01*
X7175867Y7013835D01*
X7206047Y6914347D01*
X7255056Y6822657D01*
X7321011Y6742291D01*
X7401377Y6676336D01*
X7493067Y6627327D01*
X7592555Y6597147D01*
X7696020Y6586957D01*
X7991020Y6586957D01*
X8094485Y6597147D01*
X8193973Y6627327D01*
X8285663Y6676336D01*
X8366029Y6742291D01*
X8431984Y6822657D01*
X8480993Y6914347D01*
X8511173Y7013835D01*
X8521363Y7117300D01*
X8521363Y7462300D01*
X8511173Y7565765D01*
X8480993Y7665253D01*
X8431984Y7756943D01*
X8414367Y7778409D01*
X8417432Y7785809D01*
X8439760Y7898057D01*
X8439760Y7952501D01*
X8468322Y7987304D01*
X8503701Y8053492D01*
X8523170Y8117672D01*
X8532334Y8108508D01*
X8627493Y8044925D01*
X8733229Y8001128D01*
X8845477Y7978800D01*
X8959923Y7978800D01*
X9072171Y8001128D01*
X9145600Y8031543D01*
X9145601Y-2315362D01*
X4309264Y-7151700D01*
X3321585Y-7151700D01*
X3463379Y-7094167D01*
X3471653Y-7090090D01*
X3480288Y-7086855D01*
X3516088Y-7068191D01*
X4451191Y-6519900D01*
X4458782Y-6514676D01*
X4466867Y-6510225D01*
X4499578Y-6486602D01*
X4499599Y-6486587D01*
X4499605Y-6486581D01*
X5345755Y-5809053D01*
X5352520Y-5802781D01*
X5359870Y-5797215D01*
X5388847Y-5769101D01*
X6128336Y-4976515D01*
X6134123Y-4969334D01*
X6140595Y-4962763D01*
X6165209Y-4930760D01*
X6782537Y-4039726D01*
X6787225Y-4031788D01*
X6792682Y-4024350D01*
X6812418Y-3989129D01*
X6812419Y-3989128D01*
X6812421Y-3989122D01*
X7294654Y-3018312D01*
X7298145Y-3009786D01*
X7302474Y-3001632D01*
X7316919Y-2963930D01*
X7653961Y-1933670D01*
X7656186Y-1924724D01*
X7659291Y-1916035D01*
X7668142Y-1876643D01*
X7852929Y-808519D01*
X7853839Y-799349D01*
X7855658Y-790299D01*
X7858730Y-750042D01*
X7887390Y333570D01*
X7886966Y342774D01*
X7887460Y351991D01*
X7884689Y392269D01*
X7756624Y1468669D01*
X7754874Y1477724D01*
X7754033Y1486908D01*
X7745477Y1526365D01*
X7463368Y2573003D01*
X7460329Y2581711D01*
X7458171Y2590677D01*
X7444009Y2628485D01*
X7013766Y3623436D01*
X7009505Y3631608D01*
X7006073Y3640175D01*
X6986601Y3675542D01*
X6417236Y4597964D01*
X6411841Y4605434D01*
X6407208Y4613416D01*
X6382834Y4645603D01*
X5686277Y5476172D01*
X5679859Y5482787D01*
X5674122Y5490016D01*
X5645357Y5518346D01*
X4836198Y6239662D01*
X4828891Y6245282D01*
X4822172Y6251606D01*
X4789619Y6275488D01*
X3884808Y6872442D01*
X3876765Y6876949D01*
X3869206Y6882235D01*
X3833546Y6901167D01*
X2852039Y7361255D01*
X2843424Y7364556D01*
X2835186Y7368693D01*
X2797166Y7382280D01*
X2048456Y7608544D01*
X2051134Y9722473D01*
X2053124Y9742680D01*
X2049165Y9782877D01*
X2045385Y9821762D01*
X2045311Y9822008D01*
X2045285Y9822270D01*
X2033598Y9860798D01*
X2022267Y9898323D01*
X2022146Y9898550D01*
X2022070Y9898801D01*
X2003079Y9934331D01*
X1984656Y9968903D01*
X1984494Y9969101D01*
X1984370Y9969333D01*
X1958890Y10000380D01*
X1933999Y10030788D01*
X1933800Y10030952D01*
X1933634Y10031154D01*
X1902560Y10056656D01*
X1872242Y10081602D01*
X1872017Y10081723D01*
X1871813Y10081890D01*
X1836159Y10100947D01*
X1801758Y10119391D01*
X1801514Y10119465D01*
X1801281Y10119590D01*
X1762489Y10131357D01*
X1725256Y10142703D01*
X1725003Y10142728D01*
X1724750Y10142805D01*
X1684535Y10146766D01*
X1645676Y10150643D01*
X1625483Y10148680D01*
X-1642999Y10148680D01*
X-1662939Y10150644D01*
X-1682880Y10148680D01*
X-1742529Y10142805D01*
X-1819060Y10119590D01*
X-1889592Y10081890D01*
X-1951413Y10031154D01*
X-2002149Y9969333D01*
X-2039849Y9898801D01*
X-2063064Y9822270D01*
X-2070903Y9742680D01*
X-2068939Y9722739D01*
X-2068938Y7619235D01*
X-2079450Y7616598D01*
X-2082799Y7615495D01*
X-2116091Y7605547D01*
X-3138002Y7243973D01*
X-3146445Y7240278D01*
X-3155226Y7237436D01*
X-3191836Y7220414D01*
X-4150846Y6715108D01*
X-4158672Y6710230D01*
X-4166945Y6706153D01*
X-4200714Y6684025D01*
X-5076736Y6045572D01*
X-5083770Y6039620D01*
X-5091375Y6034387D01*
X-5121596Y6007615D01*
X-5896278Y5249391D01*
X-5902386Y5242478D01*
X-5909148Y5236209D01*
X-5935189Y5205356D01*
X-6592301Y4343243D01*
X-6597343Y4335528D01*
X-6603133Y4328343D01*
X-6624447Y4294054D01*
X-7150226Y3346112D01*
X-7154101Y3337750D01*
X-7158794Y3329804D01*
X-7174934Y3292797D01*
X-7558365Y2278885D01*
X-7560994Y2270046D01*
X-7564489Y2261510D01*
X-7575118Y2222561D01*
X-7808168Y1163919D01*
X-7809493Y1154798D01*
X-7811720Y1145843D01*
X-7816615Y1105767D01*
X-7894402Y24569D01*
X-7894396Y15358D01*
X-7895308Y6170D01*
X-7894366Y-34193D01*
X-7815262Y-1115293D01*
X-7813925Y-1124419D01*
X-7813501Y-1133631D01*
X-7806743Y-1173435D01*
X-7572403Y-2231793D01*
X-7569764Y-2240625D01*
X-7568014Y-2249685D01*
X-7555581Y-2288097D01*
X-7170915Y-3301540D01*
X-7167029Y-3309898D01*
X-7163989Y-3318611D01*
X-7146141Y-3354826D01*
X-6619208Y-4302126D01*
X-6614154Y-4309839D01*
X-6609890Y-4318018D01*
X-6587001Y-4351277D01*
X-5928838Y-5212587D01*
X-5922728Y-5219485D01*
X-5917324Y-5226968D01*
X-5889874Y-5256575D01*
X-5114269Y-6013855D01*
X-5107224Y-6019801D01*
X-5100800Y-6026422D01*
X-5069363Y-6051756D01*
X-4192564Y-6689141D01*
X-4184739Y-6694005D01*
X-4177422Y-6699633D01*
X-4142657Y-6720163D01*
X-3183031Y-7224300D01*
X-3174585Y-7227984D01*
X-3166533Y-7232496D01*
X-3129169Y-7247793D01*
X-2106819Y-7608121D01*
X-2097923Y-7610549D01*
X-2089310Y-7613849D01*
X-2050130Y-7623592D01*
X-986472Y-7832564D01*
X-977326Y-7833681D01*
X-968321Y-7835705D01*
X-928144Y-7839690D01*
X-541001Y-7858727D01*
X-2349005Y-9666731D01*
X-2367363Y-9681797D01*
X-2427471Y-9755039D01*
X-2472135Y-9838601D01*
X-2489029Y-9894292D01*
X-2499639Y-9929269D01*
X-2508926Y-10023561D01*
X-2506599Y-10047188D01*
X-2506598Y-11475742D01*
X-2540474Y-11526441D01*
X-2584271Y-11632177D01*
X-2606599Y-11744425D01*
X-2606599Y-11858871D01*
X-2584271Y-11971119D01*
X-2540474Y-12076855D01*
X-2476891Y-12172014D01*
X-2395965Y-12252940D01*
X-2300806Y-12316523D01*
X-2195070Y-12360320D01*
X-2082822Y-12382648D01*
X-1968376Y-12382648D01*
X-1856128Y-12360320D01*
X-1750392Y-12316523D01*
X-1655233Y-12252940D01*
X-1574307Y-12172014D01*
X-1510724Y-12076855D01*
X-1466927Y-11971119D01*
X-1444599Y-11858871D01*
X-1444599Y-11744425D01*
X-1466927Y-11632177D01*
X-1510724Y-11526441D01*
X-1544599Y-11475743D01*
X-1544599Y-10222797D01*
X-931045Y-9609243D01*
X-932843Y-9627500D01*
X-932843Y-9972500D01*
X-922653Y-10075965D01*
X-892473Y-10175453D01*
X-843464Y-10267143D01*
X-777509Y-10347509D01*
X-697143Y-10413464D01*
X-605453Y-10462473D01*
X-568300Y-10473743D01*
X-568300Y-10572823D01*
X-545972Y-10685071D01*
X-502175Y-10790807D01*
X-468299Y-10841506D01*
X-468300Y-13603064D01*
X-488411Y-13623175D01*
X-500297Y-13632929D01*
X-515453Y-13637527D01*
X-607143Y-13686536D01*
X-687509Y-13752491D01*
X-753464Y-13832857D01*
X-802473Y-13924547D01*
X-832653Y-14024035D01*
X-842843Y-14127500D01*
X-842843Y-14472500D01*
X-832653Y-14575965D01*
X-817409Y-14626215D01*
X-907977Y-14608200D01*
X-1022423Y-14608200D01*
X-1134671Y-14630528D01*
X-1240407Y-14674325D01*
X-1335566Y-14737908D01*
X-1416492Y-14818834D01*
X-1480075Y-14913993D01*
X-1523872Y-15019729D01*
X-1546200Y-15131977D01*
X-1546200Y-15246423D01*
X-1523872Y-15358671D01*
X-1480075Y-15464407D01*
X-1416492Y-15559566D01*
X-1335566Y-15640492D01*
X-1240407Y-15704075D01*
X-1134671Y-15747872D01*
X-1022423Y-15770200D01*
X-907977Y-15770200D01*
X-795729Y-15747872D01*
X-736600Y-15723380D01*
X-677471Y-15747872D01*
X-565223Y-15770200D01*
X-450777Y-15770200D01*
X-338529Y-15747872D01*
X-285750Y-15726010D01*
X-232971Y-15747872D01*
X-120723Y-15770200D01*
X-6277Y-15770200D01*
X105971Y-15747872D01*
X177800Y-15718120D01*
X249629Y-15747872D01*
X361877Y-15770200D01*
X476323Y-15770200D01*
X588571Y-15747872D01*
X647700Y-15723380D01*
X706829Y-15747872D01*
X819077Y-15770200D01*
X933523Y-15770200D01*
X1045771Y-15747872D01*
X1151507Y-15704075D01*
X1164789Y-15695200D01*
X1245154Y-15695200D01*
X1270000Y-15697647D01*
X1294846Y-15695200D01*
X1294854Y-15695200D01*
X1369193Y-15687878D01*
X1464575Y-15658945D01*
X1552479Y-15611959D01*
X1629527Y-15548727D01*
X1645376Y-15529415D01*
X2584492Y-14590300D01*
X2743754Y-14590300D01*
X2768600Y-14592747D01*
X2793446Y-14590300D01*
X2793454Y-14590300D01*
X2858800Y-14583864D01*
X2798632Y-14644032D01*
X2738829Y-14655928D01*
X2633093Y-14699725D01*
X2537934Y-14763308D01*
X2457008Y-14844234D01*
X2393425Y-14939393D01*
X2349628Y-15045129D01*
X2327300Y-15157377D01*
X2327300Y-15271823D01*
X2349628Y-15384071D01*
X2393425Y-15489807D01*
X2407362Y-15510665D01*
X2347434Y-15550708D01*
X2266508Y-15631634D01*
X2202925Y-15726793D01*
X2159128Y-15832529D01*
X2147232Y-15892331D01*
X2086764Y-15952800D01*
X681505Y-15952800D01*
X630807Y-15918925D01*
X525071Y-15875128D01*
X412823Y-15852800D01*
X298377Y-15852800D01*
X186129Y-15875128D01*
X80393Y-15918925D01*
X-14766Y-15982508D01*
X-95692Y-16063434D01*
X-159275Y-16158593D01*
X-203072Y-16264329D01*
X-225400Y-16376577D01*
X-225400Y-16491023D01*
X-203072Y-16603271D01*
X-159275Y-16709007D01*
X-95692Y-16804166D01*
X-14766Y-16885092D01*
X80393Y-16948675D01*
X186129Y-16992472D01*
X298377Y-17014800D01*
X412823Y-17014800D01*
X525071Y-16992472D01*
X630807Y-16948675D01*
X681505Y-16914800D01*
X2262374Y-16914800D01*
X2286000Y-16917127D01*
X2309626Y-16914800D01*
X2380292Y-16907840D01*
X2470961Y-16880336D01*
X2554522Y-16835672D01*
X2627764Y-16775564D01*
X2642830Y-16757207D01*
X2827469Y-16572568D01*
X2887271Y-16560672D01*
X2993007Y-16516875D01*
X3088166Y-16453292D01*
X3169092Y-16372366D01*
X3232675Y-16277207D01*
X3276472Y-16171471D01*
X3298800Y-16059223D01*
X3298800Y-15944777D01*
X3276472Y-15832529D01*
X3232675Y-15726793D01*
X3218738Y-15705935D01*
X3278666Y-15665892D01*
X3359592Y-15584966D01*
X3423175Y-15489807D01*
X3466972Y-15384071D01*
X3478868Y-15324268D01*
X3892106Y-14911030D01*
X3910464Y-14895964D01*
X3970572Y-14822722D01*
X3998627Y-14770235D01*
X4015236Y-14739162D01*
X4042740Y-14648493D01*
X4052027Y-14554200D01*
X4049700Y-14530574D01*
X4049700Y-14308605D01*
X4083575Y-14257907D01*
X4127372Y-14152171D01*
X4149700Y-14039923D01*
X4149700Y-13925477D01*
X4127372Y-13813229D01*
X4083575Y-13707493D01*
X4019992Y-13612334D01*
X3988075Y-13580417D01*
X4512458Y-13056034D01*
X4532934Y-13054017D01*
X4628316Y-13025084D01*
X4716220Y-12978098D01*
X4791461Y-12916349D01*
X4803211Y-12914012D01*
X4908947Y-12870215D01*
X5004106Y-12806632D01*
X5085032Y-12725706D01*
X5148615Y-12630547D01*
X5190306Y-12529895D01*
X5253607Y-12503675D01*
X5348766Y-12440092D01*
X5429692Y-12359166D01*
X5493275Y-12264007D01*
X5537072Y-12158271D01*
X5541411Y-12136456D01*
X5566259Y-12106179D01*
X5613245Y-12018275D01*
X5642178Y-11922892D01*
X5645490Y-11889266D01*
X5651948Y-11823700D01*
X5650233Y-11806292D01*
X5658375Y-11794107D01*
X5681171Y-11739071D01*
X5727700Y-11719799D01*
X5824929Y-11760072D01*
X5937177Y-11782400D01*
X6051623Y-11782400D01*
X6163871Y-11760072D01*
X6269607Y-11716275D01*
X6364766Y-11652692D01*
X6445692Y-11571766D01*
X6475931Y-11526511D01*
X6475056Y-11528622D01*
X6441200Y-11698829D01*
X6441200Y-11872371D01*
X6475056Y-12042578D01*
X6541468Y-12202910D01*
X6637882Y-12347205D01*
X6711277Y-12420600D01*
X6637882Y-12493995D01*
X6541468Y-12638290D01*
X6475056Y-12798622D01*
X6441200Y-12968829D01*
X6441200Y-13142371D01*
X6475056Y-13312578D01*
X6541468Y-13472910D01*
X6637882Y-13617205D01*
X6711277Y-13690600D01*
X6637882Y-13763995D01*
X6541468Y-13908290D01*
X6475056Y-14068622D01*
X6441200Y-14238829D01*
X6441200Y-14412371D01*
X6475056Y-14582578D01*
X6541468Y-14742910D01*
X6637882Y-14887205D01*
X6711277Y-14960600D01*
X6637882Y-15033995D01*
X6541468Y-15178290D01*
X6475056Y-15338622D01*
X6441200Y-15508829D01*
X6441200Y-15682371D01*
X6475056Y-15852578D01*
X6541468Y-16012910D01*
X6637882Y-16157205D01*
X6711277Y-16230600D01*
X6637882Y-16303995D01*
X6541468Y-16448290D01*
X6475056Y-16608622D01*
X6441200Y-16778829D01*
X6441200Y-16952371D01*
X6475056Y-17122578D01*
X6541468Y-17282910D01*
X6580394Y-17341168D01*
X6551489Y-17364889D01*
X6503878Y-17422904D01*
X6468499Y-17489092D01*
X6446713Y-17560911D01*
X6439357Y-17635600D01*
X6439357Y-18635600D01*
X6446713Y-18710289D01*
X6468499Y-18782108D01*
X6503878Y-18848296D01*
X6551489Y-18906311D01*
X6609504Y-18953922D01*
X6675692Y-18989301D01*
X6747511Y-19011087D01*
X6822200Y-19018443D01*
X7822200Y-19018443D01*
X7896889Y-19011087D01*
X7904468Y-19008788D01*
X7902600Y-19018177D01*
X7902600Y-19132623D01*
X7924928Y-19244871D01*
X7946790Y-19297650D01*
X7924928Y-19350429D01*
X7902600Y-19462677D01*
X7902600Y-19577123D01*
X7924928Y-19689371D01*
X7952050Y-19754850D01*
X7924928Y-19820329D01*
X7902600Y-19932577D01*
X7902600Y-20047023D01*
X7924928Y-20159271D01*
X7956281Y-20234964D01*
X7928129Y-20302929D01*
X7905801Y-20415177D01*
X7905801Y-20529623D01*
X7928129Y-20641871D01*
X7948390Y-20690786D01*
X7924928Y-20747429D01*
X7902600Y-20859677D01*
X7902600Y-20974123D01*
X7924928Y-21086371D01*
X7968725Y-21192107D01*
X8032308Y-21287266D01*
X8113234Y-21368192D01*
X8208393Y-21431775D01*
X8314129Y-21475572D01*
X8426377Y-21497900D01*
X8540823Y-21497900D01*
X8653071Y-21475572D01*
X8758807Y-21431775D01*
X8853966Y-21368192D01*
X8934892Y-21287266D01*
X8998475Y-21192107D01*
X9042272Y-21086371D01*
X9064600Y-20974123D01*
X9064600Y-20859677D01*
X9042272Y-20747429D01*
X9022011Y-20698514D01*
X9045473Y-20641871D01*
X9067801Y-20529623D01*
X9067801Y-20415177D01*
X9045473Y-20302929D01*
X9014120Y-20227236D01*
X9042272Y-20159271D01*
X9064600Y-20047023D01*
X9064600Y-19932577D01*
X9042272Y-19820329D01*
X9015150Y-19754850D01*
X9042272Y-19689371D01*
X9064600Y-19577123D01*
X9064600Y-19462677D01*
X9042272Y-19350429D01*
X9020410Y-19297650D01*
X9042272Y-19244871D01*
X9064600Y-19132623D01*
X9064600Y-19018177D01*
X9042272Y-18905929D01*
X8998475Y-18800193D01*
X8992801Y-18791701D01*
X8992801Y-17722777D01*
X10810900Y-17722777D01*
X10810900Y-17837223D01*
X10833228Y-17949471D01*
X10877025Y-18055207D01*
X10910900Y-18105905D01*
X10910901Y-18724094D01*
X10877025Y-18774793D01*
X10833228Y-18880529D01*
X10810900Y-18992777D01*
X10810900Y-19107223D01*
X10833228Y-19219471D01*
X10877025Y-19325207D01*
X10940608Y-19420366D01*
X11021534Y-19501292D01*
X11116693Y-19564875D01*
X11222429Y-19608672D01*
X11334677Y-19631000D01*
X11449123Y-19631000D01*
X11561371Y-19608672D01*
X11667107Y-19564875D01*
X11762266Y-19501292D01*
X11843192Y-19420366D01*
X11906775Y-19325207D01*
X11950572Y-19219471D01*
X11972900Y-19107223D01*
X11972900Y-18992777D01*
X11950572Y-18880529D01*
X11906775Y-18774793D01*
X11872900Y-18724095D01*
X11872900Y-18105905D01*
X11906775Y-18055207D01*
X11950572Y-17949471D01*
X11972900Y-17837223D01*
X11972900Y-17722777D01*
X11950572Y-17610529D01*
X11906775Y-17504793D01*
X11843192Y-17409634D01*
X11762266Y-17328708D01*
X11667107Y-17265125D01*
X11561371Y-17221328D01*
X11449123Y-17199000D01*
X11334677Y-17199000D01*
X11222429Y-17221328D01*
X11116693Y-17265125D01*
X11021534Y-17328708D01*
X10940608Y-17409634D01*
X10877025Y-17504793D01*
X10833228Y-17610529D01*
X10810900Y-17722777D01*
X8992801Y-17722777D01*
X8992801Y-16762999D01*
X9057166Y-16719992D01*
X9138092Y-16639066D01*
X9151092Y-16619610D01*
X9248511Y-16600232D01*
X9294940Y-16581001D01*
X9341369Y-16600232D01*
X9453617Y-16622560D01*
X9568063Y-16622560D01*
X9680311Y-16600232D01*
X9726740Y-16581001D01*
X9773169Y-16600232D01*
X9885417Y-16622560D01*
X9999863Y-16622560D01*
X10112111Y-16600232D01*
X10158540Y-16581001D01*
X10204969Y-16600232D01*
X10317217Y-16622560D01*
X10431663Y-16622560D01*
X10543911Y-16600232D01*
X10649647Y-16556435D01*
X10744806Y-16492852D01*
X10825732Y-16411926D01*
X10889315Y-16316767D01*
X10933112Y-16211031D01*
X10955440Y-16098783D01*
X10955440Y-15984337D01*
X10933112Y-15872089D01*
X10889315Y-15766353D01*
X10825732Y-15671194D01*
X10744806Y-15590268D01*
X10649647Y-15526685D01*
X10543911Y-15482888D01*
X10431663Y-15460560D01*
X10317217Y-15460560D01*
X10204969Y-15482888D01*
X10158540Y-15502119D01*
X10112111Y-15482888D01*
X9999863Y-15460560D01*
X9885417Y-15460560D01*
X9773169Y-15482888D01*
X9726740Y-15502119D01*
X9680311Y-15482888D01*
X9568063Y-15460560D01*
X9453617Y-15460560D01*
X9341369Y-15482888D01*
X9294940Y-15502119D01*
X9248511Y-15482888D01*
X9136263Y-15460560D01*
X9021817Y-15460560D01*
X8909569Y-15482888D01*
X8803833Y-15526685D01*
X8750364Y-15562412D01*
X8719365Y-15571815D01*
X8631461Y-15618801D01*
X8554413Y-15682033D01*
X8538564Y-15701345D01*
X8532998Y-15706911D01*
X8517329Y-15710028D01*
X8411593Y-15753825D01*
X8316434Y-15817408D01*
X8235508Y-15898334D01*
X8171925Y-15993493D01*
X8128128Y-16099229D01*
X8125791Y-16110979D01*
X8064042Y-16186220D01*
X8017056Y-16274125D01*
X8007534Y-16305516D01*
X8006518Y-16303995D01*
X7933123Y-16230600D01*
X8006518Y-16157205D01*
X8102932Y-16012910D01*
X8169344Y-15852578D01*
X8203200Y-15682371D01*
X8203200Y-15508829D01*
X8169344Y-15338622D01*
X8102932Y-15178290D01*
X8006518Y-15033995D01*
X7933123Y-14960600D01*
X8006518Y-14887205D01*
X8102932Y-14742910D01*
X8115372Y-14712877D01*
X10734700Y-14712877D01*
X10734700Y-14827323D01*
X10757028Y-14939571D01*
X10800825Y-15045307D01*
X10864408Y-15140466D01*
X10945334Y-15221392D01*
X11040493Y-15284975D01*
X11146229Y-15328772D01*
X11258477Y-15351100D01*
X11372923Y-15351100D01*
X11485171Y-15328772D01*
X11590907Y-15284975D01*
X11686066Y-15221392D01*
X11766992Y-15140466D01*
X11830575Y-15045307D01*
X11874372Y-14939571D01*
X11896700Y-14827323D01*
X11896700Y-14712877D01*
X11874372Y-14600629D01*
X11830575Y-14494893D01*
X11796700Y-14444195D01*
X11796700Y-14054936D01*
X11882569Y-13969068D01*
X11942371Y-13957172D01*
X12048107Y-13913375D01*
X12143266Y-13849792D01*
X12224192Y-13768866D01*
X12287775Y-13673707D01*
X12331572Y-13567971D01*
X12353900Y-13455723D01*
X12353900Y-13341277D01*
X12331572Y-13229029D01*
X12287775Y-13123293D01*
X12224192Y-13028134D01*
X12143266Y-12947208D01*
X12048107Y-12883625D01*
X11942371Y-12839828D01*
X11830123Y-12817500D01*
X11715677Y-12817500D01*
X11603429Y-12839828D01*
X11497693Y-12883625D01*
X11402534Y-12947208D01*
X11321608Y-13028134D01*
X11258025Y-13123293D01*
X11214228Y-13229029D01*
X11202332Y-13288831D01*
X10992289Y-13498875D01*
X10973937Y-13513936D01*
X10958876Y-13532288D01*
X10913829Y-13587178D01*
X10869165Y-13670739D01*
X10841660Y-13761408D01*
X10832373Y-13855700D01*
X10834701Y-13879336D01*
X10834700Y-14444195D01*
X10800825Y-14494893D01*
X10757028Y-14600629D01*
X10734700Y-14712877D01*
X8115372Y-14712877D01*
X8169344Y-14582578D01*
X8203200Y-14412371D01*
X8203200Y-14238829D01*
X8169344Y-14068622D01*
X8102932Y-13908290D01*
X8006518Y-13763995D01*
X7933123Y-13690600D01*
X8006518Y-13617205D01*
X8102932Y-13472910D01*
X8169344Y-13312578D01*
X8203200Y-13142371D01*
X8203200Y-12968829D01*
X8169344Y-12798622D01*
X8102932Y-12638290D01*
X8006518Y-12493995D01*
X7933123Y-12420600D01*
X8006518Y-12347205D01*
X8102932Y-12202910D01*
X8169344Y-12042578D01*
X8203200Y-11872371D01*
X8203200Y-11698829D01*
X8169344Y-11528622D01*
X8102932Y-11368290D01*
X8006518Y-11223995D01*
X7933123Y-11150600D01*
X8006518Y-11077205D01*
X8102932Y-10932910D01*
X8169344Y-10772578D01*
X8203200Y-10602371D01*
X8203200Y-10428829D01*
X8169344Y-10258622D01*
X8102932Y-10098290D01*
X8006518Y-9953995D01*
X7933123Y-9880600D01*
X8006518Y-9807205D01*
X8102932Y-9662910D01*
X8169344Y-9502578D01*
X8203200Y-9332371D01*
X8203200Y-9158829D01*
X8169344Y-8988622D01*
X8102932Y-8828290D01*
X8006518Y-8683995D01*
X7883805Y-8561282D01*
X7739510Y-8464868D01*
X7579178Y-8398456D01*
X7408971Y-8364600D01*
X7235429Y-8364600D01*
X7065222Y-8398456D01*
X6904890Y-8464868D01*
X6760595Y-8561282D01*
X6637882Y-8683995D01*
X6541468Y-8828290D01*
X6475056Y-8988622D01*
X6441200Y-9158829D01*
X6441200Y-9332371D01*
X6475056Y-9502578D01*
X6541468Y-9662910D01*
X6637882Y-9807205D01*
X6711277Y-9880600D01*
X6637882Y-9953995D01*
X6541468Y-10098290D01*
X6475056Y-10258622D01*
X6441200Y-10428829D01*
X6441200Y-10602371D01*
X6475056Y-10772578D01*
X6541468Y-10932910D01*
X6637882Y-11077205D01*
X6711277Y-11150600D01*
X6637882Y-11223995D01*
X6558722Y-11342467D01*
X6575400Y-11258623D01*
X6575400Y-11144177D01*
X6553072Y-11031929D01*
X6509275Y-10926193D01*
X6445692Y-10831034D01*
X6364766Y-10750108D01*
X6269607Y-10686525D01*
X6163871Y-10642728D01*
X6051623Y-10620400D01*
X5937177Y-10620400D01*
X5824929Y-10642728D01*
X5727700Y-10683001D01*
X5630471Y-10642728D01*
X5518223Y-10620400D01*
X5403777Y-10620400D01*
X5291529Y-10642728D01*
X5185793Y-10686525D01*
X5090634Y-10750108D01*
X5009708Y-10831034D01*
X4946125Y-10926193D01*
X4923329Y-10981229D01*
X4868293Y-11004025D01*
X4773134Y-11067608D01*
X4692208Y-11148534D01*
X4628625Y-11243693D01*
X4584828Y-11349429D01*
X4562500Y-11461677D01*
X4562500Y-11576123D01*
X4563648Y-11581894D01*
X4527108Y-11618434D01*
X4463525Y-11713593D01*
X4421834Y-11814245D01*
X4358533Y-11840465D01*
X4263374Y-11904048D01*
X4182448Y-11984974D01*
X4118865Y-12080133D01*
X4118560Y-12080870D01*
X4102986Y-12085594D01*
X4015082Y-12132580D01*
X3938034Y-12195812D01*
X3922190Y-12215118D01*
X2559009Y-13578300D01*
X2399754Y-13578300D01*
X2374900Y-13575852D01*
X2350046Y-13578300D01*
X2275707Y-13585622D01*
X2180325Y-13614555D01*
X2092421Y-13661541D01*
X2015373Y-13724773D01*
X1999529Y-13744079D01*
X1482843Y-14260765D01*
X1482843Y-14127500D01*
X1472653Y-14024035D01*
X1442473Y-13924547D01*
X1393464Y-13832857D01*
X1327509Y-13752491D01*
X1286000Y-13718425D01*
X1286000Y-13358893D01*
X1327977Y-13336456D01*
X1419140Y-13261640D01*
X1493956Y-13170477D01*
X1549549Y-13066470D01*
X1583784Y-12953615D01*
X1595343Y-12836250D01*
X1595343Y-12323750D01*
X1583784Y-12206385D01*
X1549549Y-12093530D01*
X1493956Y-11989523D01*
X1419140Y-11898360D01*
X1327977Y-11823544D01*
X1271471Y-11793341D01*
X1340477Y-11756456D01*
X1431640Y-11681640D01*
X1506456Y-11590477D01*
X1562049Y-11486470D01*
X1596284Y-11373615D01*
X1607843Y-11256250D01*
X1607843Y-10743750D01*
X1596284Y-10626385D01*
X1562049Y-10513530D01*
X1506456Y-10409523D01*
X1431640Y-10318360D01*
X1340477Y-10243544D01*
X1321500Y-10233400D01*
X1352473Y-10175453D01*
X1382653Y-10075965D01*
X1392843Y-9972500D01*
X1392843Y-9627500D01*
X1382653Y-9524035D01*
X1352473Y-9424547D01*
X1303464Y-9332857D01*
X1237509Y-9252491D01*
X1157143Y-9186536D01*
X1079957Y-9145280D01*
X1784526Y-8440711D01*
X5427863Y-8440711D01*
X5451489Y-8443038D01*
X5475115Y-8440711D01*
X5545781Y-8433751D01*
X5636450Y-8406247D01*
X5720011Y-8361583D01*
X5793253Y-8301475D01*
X5808319Y-8283117D01*
X6012589Y-8078847D01*
X6043134Y-8109392D01*
X6138293Y-8172975D01*
X6244029Y-8216772D01*
X6356277Y-8239100D01*
X6470723Y-8239100D01*
X6582971Y-8216772D01*
X6688707Y-8172975D01*
X6783866Y-8109392D01*
X6864792Y-8028466D01*
X6928375Y-7933307D01*
X6972172Y-7827571D01*
X6984068Y-7767768D01*
X8912476Y-5839360D01*
X12469700Y-5839360D01*
X12469700Y-6160640D01*
X12532378Y-6475745D01*
X12655326Y-6772568D01*
X12833819Y-7039702D01*
X13060998Y-7266881D01*
X13328132Y-7445374D01*
X13624955Y-7568322D01*
X13940060Y-7631000D01*
X14261340Y-7631000D01*
X14576445Y-7568322D01*
X14873268Y-7445374D01*
X15140402Y-7266881D01*
X15367581Y-7039702D01*
X15546074Y-6772568D01*
X15669022Y-6475745D01*
X15731700Y-6160640D01*
X15731700Y-5839360D01*
X15669022Y-5524255D01*
X15546074Y-5227432D01*
X15367581Y-4960298D01*
X15140402Y-4733119D01*
X14873268Y-4554626D01*
X14576445Y-4431678D01*
X14261340Y-4369000D01*
X13940060Y-4369000D01*
X13624955Y-4431678D01*
X13328132Y-4554626D01*
X13060998Y-4733119D01*
X12833819Y-4960298D01*
X12655326Y-5227432D01*
X12532378Y-5524255D01*
X12469700Y-5839360D01*
X8912476Y-5839360D01*
X12334411Y-2417426D01*
X12352763Y-2402365D01*
X12412871Y-2329123D01*
X12457535Y-2245562D01*
X12479596Y-2172837D01*
X12485039Y-2154894D01*
X12494326Y-2060602D01*
X12491999Y-2036975D01*
X12491999Y5727255D01*
X12532378Y5524255D01*
X12655326Y5227432D01*
X12833819Y4960298D01*
X13060998Y4733119D01*
X13328132Y4554626D01*
X13624955Y4431678D01*
X13940060Y4369000D01*
X14261340Y4369000D01*
X14576445Y4431678D01*
X14873268Y4554626D01*
X15140402Y4733119D01*
X15367581Y4960298D01*
X15546074Y5227432D01*
X15669022Y5524255D01*
X15731700Y5839360D01*
X15731700Y6160640D01*
X15669022Y6475745D01*
X15546074Y6772568D01*
X15367581Y7039702D01*
X15140402Y7266881D01*
X14873268Y7445374D01*
X14576445Y7568322D01*
X14261340Y7631000D01*
X13940060Y7631000D01*
X13624955Y7568322D01*
X13328132Y7445374D01*
X13060998Y7266881D01*
X12833819Y7039702D01*
X12655326Y6772568D01*
X12532378Y6475745D01*
X12491999Y6272745D01*
X12491999Y11714378D01*
X12494326Y11738002D01*
X12491335Y11768371D01*
X12485039Y11832293D01*
X12457535Y11922962D01*
X12412871Y12006523D01*
X12382356Y12043706D01*
X12369672Y12107471D01*
X12325875Y12213207D01*
X12262292Y12308366D01*
X12181366Y12389292D01*
X12086207Y12452875D01*
X11980471Y12496672D01*
X11868223Y12519000D01*
X11753777Y12519000D01*
X11641529Y12496672D01*
X11535793Y12452875D01*
X11440634Y12389292D01*
X11359708Y12308366D01*
X11296125Y12213207D01*
X11252328Y12107471D01*
X11230000Y11995223D01*
X11230000Y11880777D01*
X11252328Y11768529D01*
X11296125Y11662793D01*
X11359708Y11567634D01*
X11440634Y11486708D01*
X11515956Y11436380D01*
X11436423Y11452200D01*
X11321977Y11452200D01*
X11209729Y11429872D01*
X11103993Y11386075D01*
X11008834Y11322492D01*
X10927908Y11241566D01*
X10864325Y11146407D01*
X10820528Y11040671D01*
X10798200Y10928423D01*
X10798200Y10813977D01*
X10820528Y10701729D01*
X10864325Y10595993D01*
X10898201Y10545294D01*
X10898200Y-1832763D01*
X10475900Y-2255063D01*
X10475900Y12231877D01*
X10478227Y12255501D01*
X10473020Y12308366D01*
X10468940Y12349792D01*
X10441436Y12440461D01*
X10396772Y12524022D01*
X10336664Y12597264D01*
X10318312Y12612325D01*
X6452830Y16477806D01*
X6437764Y16496164D01*
X6364522Y16556272D01*
X6280961Y16600936D01*
X6190292Y16628440D01*
X6119626Y16635400D01*
X6096000Y16637727D01*
X6072374Y16635400D01*
X6002805Y16635400D01*
X5952107Y16669275D01*
X5846371Y16713072D01*
X5734123Y16735400D01*
X5619677Y16735400D01*
X5507429Y16713072D01*
X5401693Y16669275D01*
X5306534Y16605692D01*
X5225608Y16524766D01*
X5162025Y16429607D01*
X5118228Y16323871D01*
X5095900Y16211623D01*
X5095900Y16102958D01*
X5022408Y16029466D01*
X4958825Y15934307D01*
X4915028Y15828571D01*
X4892700Y15716323D01*
X4892700Y15601877D01*
X4915028Y15489629D01*
X4958825Y15383893D01*
X5022408Y15288734D01*
X5103334Y15207808D01*
X5198493Y15144225D01*
X5304229Y15100428D01*
X5416477Y15078100D01*
X5530923Y15078100D01*
X5643171Y15100428D01*
X5748907Y15144225D01*
X5799605Y15178100D01*
X5922164Y15178100D01*
X6719103Y14381160D01*
X6684316Y14366751D01*
X6589157Y14303168D01*
X6508231Y14222242D01*
X6444648Y14127083D01*
X6400851Y14021347D01*
X6378523Y13909099D01*
X6378523Y13794653D01*
X6400851Y13682405D01*
X6444648Y13576669D01*
X6478524Y13525970D01*
X6478523Y12431700D01*
X-4738874Y12431700D01*
X-4762500Y12434027D01*
X-4856793Y12424740D01*
X-4884297Y12416396D01*
X-4947461Y12397236D01*
X-5031022Y12352572D01*
X-5104264Y12292464D01*
X-5119325Y12274112D01*
X-6215789Y11177647D01*
X-6271734Y11233592D01*
X-6366893Y11297175D01*
X-6472629Y11340972D01*
X-6584877Y11363300D01*
X-6699323Y11363300D01*
X-6811571Y11340972D01*
X-6917307Y11297175D01*
X-7012466Y11233592D01*
X-7093392Y11152666D01*
X-7156975Y11057507D01*
X-7200772Y10951771D01*
X-7212668Y10891969D01*
X-7432222Y10672414D01*
X-7450574Y10657353D01*
X-7465635Y10639001D01*
X-7510682Y10584111D01*
X-7555346Y10500550D01*
X-7582851Y10409881D01*
X-7592138Y10315589D01*
X-7589810Y10291953D01*
X-7589810Y10181839D01*
X-7600000Y10182843D01*
X-8150000Y10182843D01*
X-8224689Y10175487D01*
X-8296508Y10153701D01*
X-8362696Y10118322D01*
X-8420711Y10070711D01*
X-8468322Y10012696D01*
X-8503701Y9946508D01*
X-8525487Y9874689D01*
X-8532843Y9800000D01*
X-20094000Y9800000D01*
X-20093998Y14173855D01*
X-19000134Y15616660D01*
X-17716294Y17059252D01*
X-16323230Y18396667D01*
X-15855300Y18780105D01*
X-15855300Y16510000D01*
X-15847979Y16435671D01*
X-15826298Y16364198D01*
X-15791090Y16298328D01*
X-15743708Y16240592D01*
X-15685972Y16193210D01*
X-15620102Y16158002D01*
X-15548629Y16136321D01*
X-15474300Y16129000D01*
X-2774300Y16129000D01*
X-2699971Y16136321D01*
X-2628498Y16158002D01*
X-2562628Y16193210D01*
X-2504892Y16240592D01*
X-2457510Y16298328D01*
X-2422302Y16364198D01*
X-2400621Y16435671D01*
X-2393300Y16510000D01*
X-2393300Y20160640D01*
X-1631000Y20160640D01*
X-1631000Y19839360D01*
X-1568322Y19524255D01*
X-1445374Y19227432D01*
X-1266881Y18960298D01*
X-1039702Y18733119D01*
X-772568Y18554626D01*
X-475745Y18431678D01*
X-160640Y18369000D01*
X160640Y18369000D01*
X475745Y18431678D01*
X772568Y18554626D01*
X1039702Y18733119D01*
X1266881Y18960298D01*
X1445374Y19227432D01*
X1568322Y19524255D01*
X1631000Y19839360D01*
X1631000Y20160640D01*
X1568322Y20475745D01*
X1445374Y20772568D01*
X1266881Y21039702D01*
X1039702Y21266881D01*
X772568Y21445374D01*
X475745Y21568322D01*
X160640Y21631000D01*
X-160640Y21631000D01*
X-475745Y21568322D01*
X-772568Y21445374D01*
X-1039702Y21266881D01*
X-1266881Y21039702D01*
X-1445374Y20772568D01*
X-1568322Y20475745D01*
X-1631000Y20160640D01*
X-2393300Y20160640D01*
X-2393300Y24477658D01*
X-2392474Y24477771D01*
X-464593Y24590025D01*
X1466155Y24550674D01*
G37*
X1466155Y24550674D02*
X3387850Y24359960D01*
X5288667Y24019059D01*
X7156884Y23530070D01*
X8980962Y22896015D01*
X10749677Y22120797D01*
X12452128Y21209189D01*
X14077790Y20166830D01*
X15616660Y19000134D01*
X17059252Y17716294D01*
X18396667Y16323230D01*
X19623290Y14826318D01*
X20093997Y14178444D01*
X20093997Y14177740D01*
X16356668Y17915068D01*
X16344772Y17974871D01*
X16300975Y18080607D01*
X16237392Y18175766D01*
X16156466Y18256692D01*
X16061307Y18320275D01*
X15955571Y18364072D01*
X15843323Y18386400D01*
X15728877Y18386400D01*
X15616629Y18364072D01*
X15510893Y18320275D01*
X15415734Y18256692D01*
X15334808Y18175766D01*
X15271225Y18080607D01*
X15227428Y17974871D01*
X15205100Y17862623D01*
X15205100Y17748177D01*
X15227428Y17635929D01*
X15252316Y17575843D01*
X15207725Y17509107D01*
X15163928Y17403371D01*
X15141600Y17291123D01*
X15141600Y17176677D01*
X15163928Y17064429D01*
X15207725Y16958693D01*
X15271308Y16863534D01*
X15352234Y16782608D01*
X15447393Y16719025D01*
X15553129Y16675228D01*
X15612932Y16663332D01*
X19165900Y13110363D01*
X19165901Y-13288162D01*
X15142364Y-17311700D01*
X14839137Y-17311700D01*
X15461812Y-16689025D01*
X15480164Y-16673964D01*
X15540272Y-16600722D01*
X15584936Y-16517161D01*
X15610223Y-16433800D01*
X15612440Y-16426493D01*
X15621727Y-16332200D01*
X15619400Y-16308574D01*
X15619400Y-15337305D01*
X15653275Y-15286607D01*
X15697072Y-15180871D01*
X15719400Y-15068623D01*
X15719400Y-14954177D01*
X15697072Y-14841929D01*
X15653275Y-14736193D01*
X15589692Y-14641034D01*
X15508766Y-14560108D01*
X15413607Y-14496525D01*
X15307871Y-14452728D01*
X15195623Y-14430400D01*
X15081177Y-14430400D01*
X14968929Y-14452728D01*
X14863193Y-14496525D01*
X14768034Y-14560108D01*
X14687108Y-14641034D01*
X14623525Y-14736193D01*
X14579728Y-14841929D01*
X14557400Y-14954177D01*
X14557400Y-15068623D01*
X14579728Y-15180871D01*
X14623525Y-15286607D01*
X14657401Y-15337306D01*
X14657400Y-16132963D01*
X13542832Y-17247532D01*
X13483029Y-17259428D01*
X13377293Y-17303225D01*
X13282134Y-17366808D01*
X13201208Y-17447734D01*
X13137625Y-17542893D01*
X13093828Y-17648629D01*
X13071500Y-17760877D01*
X13071500Y-17875323D01*
X13093828Y-17987571D01*
X13137625Y-18093307D01*
X13201208Y-18188466D01*
X13282134Y-18269392D01*
X13377293Y-18332975D01*
X13483029Y-18376772D01*
X13595277Y-18399100D01*
X13709723Y-18399100D01*
X13821971Y-18376772D01*
X13927707Y-18332975D01*
X14001707Y-18283530D01*
X14037693Y-18307575D01*
X14143429Y-18351372D01*
X14255677Y-18373700D01*
X14370123Y-18373700D01*
X14379600Y-18371815D01*
X14379600Y-18472223D01*
X14401928Y-18584471D01*
X14445725Y-18690207D01*
X14509308Y-18785366D01*
X14590234Y-18866292D01*
X14685393Y-18929875D01*
X14791129Y-18973672D01*
X14903377Y-18996000D01*
X15017823Y-18996000D01*
X15130071Y-18973672D01*
X15235807Y-18929875D01*
X15289865Y-18893755D01*
X15337734Y-18889040D01*
X15428403Y-18861536D01*
X15511964Y-18816872D01*
X15585206Y-18756764D01*
X15600272Y-18738406D01*
X19872093Y-14466586D01*
X18999340Y-15617628D01*
X17715438Y-17060142D01*
X16322305Y-18397487D01*
X14828530Y-19621415D01*
X13243349Y-20724355D01*
X11576509Y-21699530D01*
X9838301Y-22540919D01*
X8039415Y-23243343D01*
X6190995Y-23802453D01*
X4304381Y-24214820D01*
X2391249Y-24477890D01*
X463351Y-24590048D01*
X-1467381Y-24550601D01*
X-3389077Y-24359789D01*
X-5289865Y-24018795D01*
X-7158067Y-23529710D01*
X-8982122Y-22895559D01*
X-10750786Y-22120257D01*
X-12453186Y-21208567D01*
X-14078791Y-20166131D01*
X-14509757Y-19839360D01*
X-1630300Y-19839360D01*
X-1630300Y-20160640D01*
X-1567622Y-20475745D01*
X-1444674Y-20772568D01*
X-1266181Y-21039702D01*
X-1039002Y-21266881D01*
X-771868Y-21445374D01*
X-475045Y-21568322D01*
X-159940Y-21631000D01*
X161340Y-21631000D01*
X476445Y-21568322D01*
X773268Y-21445374D01*
X1040402Y-21266881D01*
X1267581Y-21039702D01*
X1446074Y-20772568D01*
X1569022Y-20475745D01*
X1631700Y-20160640D01*
X1631700Y-19839360D01*
X1569022Y-19524255D01*
X1446074Y-19227432D01*
X1267581Y-18960298D01*
X1040402Y-18733119D01*
X773268Y-18554626D01*
X476445Y-18431678D01*
X161340Y-18369000D01*
X-159940Y-18369000D01*
X-475045Y-18431678D01*
X-771868Y-18554626D01*
X-1039002Y-18733119D01*
X-1266181Y-18960298D01*
X-1444674Y-19227432D01*
X-1567622Y-19524255D01*
X-1630300Y-19839360D01*
X-14509757Y-19839360D01*
X-15617628Y-18999340D01*
X-17060142Y-17715438D01*
X-18397487Y-16322305D01*
X-19624042Y-14825322D01*
X-20094001Y-14178445D01*
X-20094001Y-5839360D01*
X-15730300Y-5839360D01*
X-15730300Y-6160640D01*
X-15667622Y-6475745D01*
X-15544674Y-6772568D01*
X-15366181Y-7039702D01*
X-15139002Y-7266881D01*
X-14871868Y-7445374D01*
X-14575045Y-7568322D01*
X-14259940Y-7631000D01*
X-13938660Y-7631000D01*
X-13623555Y-7568322D01*
X-13326732Y-7445374D01*
X-13059598Y-7266881D01*
X-12832419Y-7039702D01*
X-12653926Y-6772568D01*
X-12530978Y-6475745D01*
X-12468300Y-6160640D01*
X-12468300Y-5839360D01*
X-12530978Y-5524255D01*
X-12653926Y-5227432D01*
X-12832419Y-4960298D01*
X-13059598Y-4733119D01*
X-13326732Y-4554626D01*
X-13623555Y-4431678D01*
X-13938660Y-4369000D01*
X-14259940Y-4369000D01*
X-14575045Y-4431678D01*
X-14871868Y-4554626D01*
X-15139002Y-4733119D01*
X-15366181Y-4960298D01*
X-15544674Y-5227432D01*
X-15667622Y-5524255D01*
X-15730300Y-5839360D01*
X-20094001Y-5839360D01*
X-20094000Y6160640D01*
X-15730300Y6160640D01*
X-15730300Y5839360D01*
X-15667622Y5524255D01*
X-15544674Y5227432D01*
X-15366181Y4960298D01*
X-15139002Y4733119D01*
X-14871868Y4554626D01*
X-14575045Y4431678D01*
X-14259940Y4369000D01*
X-13938660Y4369000D01*
X-13623555Y4431678D01*
X-13326732Y4554626D01*
X-13059598Y4733119D01*
X-12832419Y4960298D01*
X-12653926Y5227432D01*
X-12530978Y5524255D01*
X-12468300Y5839360D01*
X-12468300Y6160640D01*
X-12530978Y6475745D01*
X-12653926Y6772568D01*
X-12832419Y7039702D01*
X-13059598Y7266881D01*
X-13326732Y7445374D01*
X-13623555Y7568322D01*
X-13938660Y7631000D01*
X-14259940Y7631000D01*
X-14575045Y7568322D01*
X-14871868Y7445374D01*
X-15139002Y7266881D01*
X-15366181Y7039702D01*
X-15544674Y6772568D01*
X-15667622Y6475745D01*
X-15730300Y6160640D01*
X-20094000Y6160640D01*
X-20094000Y9800000D01*
X-8532843Y9800000D01*
X-8532843Y9500000D01*
X-8525487Y9425311D01*
X-8503701Y9353492D01*
X-8488471Y9325000D01*
X-8503701Y9296508D01*
X-8525487Y9224689D01*
X-8532843Y9150000D01*
X-8532843Y8850000D01*
X-8525487Y8775311D01*
X-8503701Y8703492D01*
X-8468322Y8637304D01*
X-8420711Y8579289D01*
X-8362696Y8531678D01*
X-8296508Y8496299D01*
X-8224689Y8474513D01*
X-8150000Y8467157D01*
X-7600000Y8467157D01*
X-7525311Y8474513D01*
X-7453492Y8496299D01*
X-7412983Y8517952D01*
X-7400000Y8516673D01*
X-7376374Y8519000D01*
X-7305708Y8525960D01*
X-7215039Y8553464D01*
X-7131478Y8598128D01*
X-7058236Y8658236D01*
X-7043170Y8676594D01*
X-7000000Y8719764D01*
X-6956834Y8676599D01*
X-6941764Y8658236D01*
X-6868522Y8598128D01*
X-6798364Y8560628D01*
X-6784961Y8553464D01*
X-6777792Y8551289D01*
X-6782843Y8500000D01*
X-6782843Y8200000D01*
X-6775487Y8125311D01*
X-6753701Y8053492D01*
X-6718322Y7987304D01*
X-6670711Y7929289D01*
X-6618966Y7886823D01*
X-6623589Y7883029D01*
X-6689544Y7802663D01*
X-6738553Y7710973D01*
X-6768733Y7611485D01*
X-6778923Y7508020D01*
X-6778923Y7163020D01*
X-6768733Y7059555D01*
X-6738553Y6960067D01*
X-6689544Y6868377D01*
X-6623589Y6788011D01*
X-6543223Y6722056D01*
X-6451533Y6673047D01*
X-6352045Y6642867D01*
X-6248580Y6632677D01*
X-5953580Y6632677D01*
X-5850115Y6642867D01*
X-5750627Y6673047D01*
X-5658937Y6722056D01*
X-5618556Y6755196D01*
X-5538543Y6739280D01*
X-5424097Y6739280D01*
X-5311849Y6761608D01*
X-5206113Y6805405D01*
X-5110954Y6868988D01*
X-5030028Y6949914D01*
X-4966445Y7045073D01*
X-4922648Y7150809D01*
X-4900320Y7263057D01*
X-4900320Y7377503D01*
X-4922648Y7489751D01*
X-4966445Y7595487D01*
X-5030028Y7690646D01*
X-5110954Y7771572D01*
X-5206113Y7835155D01*
X-5311849Y7878952D01*
X-5424097Y7901280D01*
X-5538543Y7901280D01*
X-5588662Y7891310D01*
X-5607114Y7906454D01*
X-5579289Y7929289D01*
X-5531678Y7987304D01*
X-5496299Y8053492D01*
X-5474513Y8125311D01*
X-5467157Y8200000D01*
X-5467157Y8500000D01*
X-5474513Y8574689D01*
X-5496299Y8646508D01*
X-5511529Y8675000D01*
X-5496299Y8703492D01*
X-5474513Y8775311D01*
X-5467157Y8850000D01*
X-5467157Y9150000D01*
X-5474513Y9224689D01*
X-5496299Y9296508D01*
X-5531678Y9362696D01*
X-5579289Y9420711D01*
X-5637304Y9468322D01*
X-5703492Y9503701D01*
X-5775311Y9525487D01*
X-5850000Y9532843D01*
X-6288100Y9532843D01*
X-6288100Y9744864D01*
X-4983036Y11049928D01*
X-4947092Y10996134D01*
X-4866166Y10915208D01*
X-4771007Y10851625D01*
X-4665271Y10807828D01*
X-4553023Y10785500D01*
X-4438577Y10785500D01*
X-4326329Y10807828D01*
X-4220593Y10851625D01*
X-4169895Y10885500D01*
X3318664Y10885500D01*
X5494395Y8709768D01*
X5496299Y8703492D01*
X5531678Y8637304D01*
X5579289Y8579289D01*
X5637304Y8531678D01*
X5703492Y8496299D01*
X5775311Y8474513D01*
X5850000Y8467157D01*
X6400000Y8467157D01*
X6474689Y8474513D01*
X6546508Y8496299D01*
X6553176Y8499863D01*
X6557393Y8497045D01*
X6663129Y8453248D01*
X6775377Y8430920D01*
X6889823Y8430920D01*
X7002071Y8453248D01*
X7107807Y8497045D01*
X7202966Y8560628D01*
X7227773Y8585435D01*
X7224513Y8574689D01*
X7217157Y8500000D01*
X7217157Y8200000D01*
X7224513Y8125311D01*
X7246299Y8053492D01*
X7277760Y7994634D01*
X7277760Y7898057D01*
X7295924Y7806741D01*
X7255056Y7756943D01*
X7206047Y7665253D01*
X7175867Y7565765D01*
X7165677Y7462300D01*
X7165677Y7117300D01*
X7175867Y7013835D01*
X7206047Y6914347D01*
X7255056Y6822657D01*
X7321011Y6742291D01*
X7401377Y6676336D01*
X7493067Y6627327D01*
X7592555Y6597147D01*
X7696020Y6586957D01*
X7991020Y6586957D01*
X8094485Y6597147D01*
X8193973Y6627327D01*
X8285663Y6676336D01*
X8366029Y6742291D01*
X8431984Y6822657D01*
X8480993Y6914347D01*
X8511173Y7013835D01*
X8521363Y7117300D01*
X8521363Y7462300D01*
X8511173Y7565765D01*
X8480993Y7665253D01*
X8431984Y7756943D01*
X8414367Y7778409D01*
X8417432Y7785809D01*
X8439760Y7898057D01*
X8439760Y7952501D01*
X8468322Y7987304D01*
X8503701Y8053492D01*
X8523170Y8117672D01*
X8532334Y8108508D01*
X8627493Y8044925D01*
X8733229Y8001128D01*
X8845477Y7978800D01*
X8959923Y7978800D01*
X9072171Y8001128D01*
X9145600Y8031543D01*
X9145601Y-2315362D01*
X4309264Y-7151700D01*
X3321585Y-7151700D01*
X3463379Y-7094167D01*
X3471653Y-7090090D01*
X3480288Y-7086855D01*
X3516088Y-7068191D01*
X4451191Y-6519900D01*
X4458782Y-6514676D01*
X4466867Y-6510225D01*
X4499578Y-6486602D01*
X4499599Y-6486587D01*
X4499605Y-6486581D01*
X5345755Y-5809053D01*
X5352520Y-5802781D01*
X5359870Y-5797215D01*
X5388847Y-5769101D01*
X6128336Y-4976515D01*
X6134123Y-4969334D01*
X6140595Y-4962763D01*
X6165209Y-4930760D01*
X6782537Y-4039726D01*
X6787225Y-4031788D01*
X6792682Y-4024350D01*
X6812418Y-3989129D01*
X6812419Y-3989128D01*
X6812421Y-3989122D01*
X7294654Y-3018312D01*
X7298145Y-3009786D01*
X7302474Y-3001632D01*
X7316919Y-2963930D01*
X7653961Y-1933670D01*
X7656186Y-1924724D01*
X7659291Y-1916035D01*
X7668142Y-1876643D01*
X7852929Y-808519D01*
X7853839Y-799349D01*
X7855658Y-790299D01*
X7858730Y-750042D01*
X7887390Y333570D01*
X7886966Y342774D01*
X7887460Y351991D01*
X7884689Y392269D01*
X7756624Y1468669D01*
X7754874Y1477724D01*
X7754033Y1486908D01*
X7745477Y1526365D01*
X7463368Y2573003D01*
X7460329Y2581711D01*
X7458171Y2590677D01*
X7444009Y2628485D01*
X7013766Y3623436D01*
X7009505Y3631608D01*
X7006073Y3640175D01*
X6986601Y3675542D01*
X6417236Y4597964D01*
X6411841Y4605434D01*
X6407208Y4613416D01*
X6382834Y4645603D01*
X5686277Y5476172D01*
X5679859Y5482787D01*
X5674122Y5490016D01*
X5645357Y5518346D01*
X4836198Y6239662D01*
X4828891Y6245282D01*
X4822172Y6251606D01*
X4789619Y6275488D01*
X3884808Y6872442D01*
X3876765Y6876949D01*
X3869206Y6882235D01*
X3833546Y6901167D01*
X2852039Y7361255D01*
X2843424Y7364556D01*
X2835186Y7368693D01*
X2797166Y7382280D01*
X2048456Y7608544D01*
X2051134Y9722473D01*
X2053124Y9742680D01*
X2049165Y9782877D01*
X2045385Y9821762D01*
X2045311Y9822008D01*
X2045285Y9822270D01*
X2033598Y9860798D01*
X2022267Y9898323D01*
X2022146Y9898550D01*
X2022070Y9898801D01*
X2003079Y9934331D01*
X1984656Y9968903D01*
X1984494Y9969101D01*
X1984370Y9969333D01*
X1958890Y10000380D01*
X1933999Y10030788D01*
X1933800Y10030952D01*
X1933634Y10031154D01*
X1902560Y10056656D01*
X1872242Y10081602D01*
X1872017Y10081723D01*
X1871813Y10081890D01*
X1836159Y10100947D01*
X1801758Y10119391D01*
X1801514Y10119465D01*
X1801281Y10119590D01*
X1762489Y10131357D01*
X1725256Y10142703D01*
X1725003Y10142728D01*
X1724750Y10142805D01*
X1684535Y10146766D01*
X1645676Y10150643D01*
X1625483Y10148680D01*
X-1642999Y10148680D01*
X-1662939Y10150644D01*
X-1682880Y10148680D01*
X-1742529Y10142805D01*
X-1819060Y10119590D01*
X-1889592Y10081890D01*
X-1951413Y10031154D01*
X-2002149Y9969333D01*
X-2039849Y9898801D01*
X-2063064Y9822270D01*
X-2070903Y9742680D01*
X-2068939Y9722739D01*
X-2068938Y7619235D01*
X-2079450Y7616598D01*
X-2082799Y7615495D01*
X-2116091Y7605547D01*
X-3138002Y7243973D01*
X-3146445Y7240278D01*
X-3155226Y7237436D01*
X-3191836Y7220414D01*
X-4150846Y6715108D01*
X-4158672Y6710230D01*
X-4166945Y6706153D01*
X-4200714Y6684025D01*
X-5076736Y6045572D01*
X-5083770Y6039620D01*
X-5091375Y6034387D01*
X-5121596Y6007615D01*
X-5896278Y5249391D01*
X-5902386Y5242478D01*
X-5909148Y5236209D01*
X-5935189Y5205356D01*
X-6592301Y4343243D01*
X-6597343Y4335528D01*
X-6603133Y4328343D01*
X-6624447Y4294054D01*
X-7150226Y3346112D01*
X-7154101Y3337750D01*
X-7158794Y3329804D01*
X-7174934Y3292797D01*
X-7558365Y2278885D01*
X-7560994Y2270046D01*
X-7564489Y2261510D01*
X-7575118Y2222561D01*
X-7808168Y1163919D01*
X-7809493Y1154798D01*
X-7811720Y1145843D01*
X-7816615Y1105767D01*
X-7894402Y24569D01*
X-7894396Y15358D01*
X-7895308Y6170D01*
X-7894366Y-34193D01*
X-7815262Y-1115293D01*
X-7813925Y-1124419D01*
X-7813501Y-1133631D01*
X-7806743Y-1173435D01*
X-7572403Y-2231793D01*
X-7569764Y-2240625D01*
X-7568014Y-2249685D01*
X-7555581Y-2288097D01*
X-7170915Y-3301540D01*
X-7167029Y-3309898D01*
X-7163989Y-3318611D01*
X-7146141Y-3354826D01*
X-6619208Y-4302126D01*
X-6614154Y-4309839D01*
X-6609890Y-4318018D01*
X-6587001Y-4351277D01*
X-5928838Y-5212587D01*
X-5922728Y-5219485D01*
X-5917324Y-5226968D01*
X-5889874Y-5256575D01*
X-5114269Y-6013855D01*
X-5107224Y-6019801D01*
X-5100800Y-6026422D01*
X-5069363Y-6051756D01*
X-4192564Y-6689141D01*
X-4184739Y-6694005D01*
X-4177422Y-6699633D01*
X-4142657Y-6720163D01*
X-3183031Y-7224300D01*
X-3174585Y-7227984D01*
X-3166533Y-7232496D01*
X-3129169Y-7247793D01*
X-2106819Y-7608121D01*
X-2097923Y-7610549D01*
X-2089310Y-7613849D01*
X-2050130Y-7623592D01*
X-986472Y-7832564D01*
X-977326Y-7833681D01*
X-968321Y-7835705D01*
X-928144Y-7839690D01*
X-541001Y-7858727D01*
X-2349005Y-9666731D01*
X-2367363Y-9681797D01*
X-2427471Y-9755039D01*
X-2472135Y-9838601D01*
X-2489029Y-9894292D01*
X-2499639Y-9929269D01*
X-2508926Y-10023561D01*
X-2506599Y-10047188D01*
X-2506598Y-11475742D01*
X-2540474Y-11526441D01*
X-2584271Y-11632177D01*
X-2606599Y-11744425D01*
X-2606599Y-11858871D01*
X-2584271Y-11971119D01*
X-2540474Y-12076855D01*
X-2476891Y-12172014D01*
X-2395965Y-12252940D01*
X-2300806Y-12316523D01*
X-2195070Y-12360320D01*
X-2082822Y-12382648D01*
X-1968376Y-12382648D01*
X-1856128Y-12360320D01*
X-1750392Y-12316523D01*
X-1655233Y-12252940D01*
X-1574307Y-12172014D01*
X-1510724Y-12076855D01*
X-1466927Y-11971119D01*
X-1444599Y-11858871D01*
X-1444599Y-11744425D01*
X-1466927Y-11632177D01*
X-1510724Y-11526441D01*
X-1544599Y-11475743D01*
X-1544599Y-10222797D01*
X-931045Y-9609243D01*
X-932843Y-9627500D01*
X-932843Y-9972500D01*
X-922653Y-10075965D01*
X-892473Y-10175453D01*
X-843464Y-10267143D01*
X-777509Y-10347509D01*
X-697143Y-10413464D01*
X-605453Y-10462473D01*
X-568300Y-10473743D01*
X-568300Y-10572823D01*
X-545972Y-10685071D01*
X-502175Y-10790807D01*
X-468299Y-10841506D01*
X-468300Y-13603064D01*
X-488411Y-13623175D01*
X-500297Y-13632929D01*
X-515453Y-13637527D01*
X-607143Y-13686536D01*
X-687509Y-13752491D01*
X-753464Y-13832857D01*
X-802473Y-13924547D01*
X-832653Y-14024035D01*
X-842843Y-14127500D01*
X-842843Y-14472500D01*
X-832653Y-14575965D01*
X-817409Y-14626215D01*
X-907977Y-14608200D01*
X-1022423Y-14608200D01*
X-1134671Y-14630528D01*
X-1240407Y-14674325D01*
X-1335566Y-14737908D01*
X-1416492Y-14818834D01*
X-1480075Y-14913993D01*
X-1523872Y-15019729D01*
X-1546200Y-15131977D01*
X-1546200Y-15246423D01*
X-1523872Y-15358671D01*
X-1480075Y-15464407D01*
X-1416492Y-15559566D01*
X-1335566Y-15640492D01*
X-1240407Y-15704075D01*
X-1134671Y-15747872D01*
X-1022423Y-15770200D01*
X-907977Y-15770200D01*
X-795729Y-15747872D01*
X-736600Y-15723380D01*
X-677471Y-15747872D01*
X-565223Y-15770200D01*
X-450777Y-15770200D01*
X-338529Y-15747872D01*
X-285750Y-15726010D01*
X-232971Y-15747872D01*
X-120723Y-15770200D01*
X-6277Y-15770200D01*
X105971Y-15747872D01*
X177800Y-15718120D01*
X249629Y-15747872D01*
X361877Y-15770200D01*
X476323Y-15770200D01*
X588571Y-15747872D01*
X647700Y-15723380D01*
X706829Y-15747872D01*
X819077Y-15770200D01*
X933523Y-15770200D01*
X1045771Y-15747872D01*
X1151507Y-15704075D01*
X1164789Y-15695200D01*
X1245154Y-15695200D01*
X1270000Y-15697647D01*
X1294846Y-15695200D01*
X1294854Y-15695200D01*
X1369193Y-15687878D01*
X1464575Y-15658945D01*
X1552479Y-15611959D01*
X1629527Y-15548727D01*
X1645376Y-15529415D01*
X2584492Y-14590300D01*
X2743754Y-14590300D01*
X2768600Y-14592747D01*
X2793446Y-14590300D01*
X2793454Y-14590300D01*
X2858800Y-14583864D01*
X2798632Y-14644032D01*
X2738829Y-14655928D01*
X2633093Y-14699725D01*
X2537934Y-14763308D01*
X2457008Y-14844234D01*
X2393425Y-14939393D01*
X2349628Y-15045129D01*
X2327300Y-15157377D01*
X2327300Y-15271823D01*
X2349628Y-15384071D01*
X2393425Y-15489807D01*
X2407362Y-15510665D01*
X2347434Y-15550708D01*
X2266508Y-15631634D01*
X2202925Y-15726793D01*
X2159128Y-15832529D01*
X2147232Y-15892331D01*
X2086764Y-15952800D01*
X681505Y-15952800D01*
X630807Y-15918925D01*
X525071Y-15875128D01*
X412823Y-15852800D01*
X298377Y-15852800D01*
X186129Y-15875128D01*
X80393Y-15918925D01*
X-14766Y-15982508D01*
X-95692Y-16063434D01*
X-159275Y-16158593D01*
X-203072Y-16264329D01*
X-225400Y-16376577D01*
X-225400Y-16491023D01*
X-203072Y-16603271D01*
X-159275Y-16709007D01*
X-95692Y-16804166D01*
X-14766Y-16885092D01*
X80393Y-16948675D01*
X186129Y-16992472D01*
X298377Y-17014800D01*
X412823Y-17014800D01*
X525071Y-16992472D01*
X630807Y-16948675D01*
X681505Y-16914800D01*
X2262374Y-16914800D01*
X2286000Y-16917127D01*
X2309626Y-16914800D01*
X2380292Y-16907840D01*
X2470961Y-16880336D01*
X2554522Y-16835672D01*
X2627764Y-16775564D01*
X2642830Y-16757207D01*
X2827469Y-16572568D01*
X2887271Y-16560672D01*
X2993007Y-16516875D01*
X3088166Y-16453292D01*
X3169092Y-16372366D01*
X3232675Y-16277207D01*
X3276472Y-16171471D01*
X3298800Y-16059223D01*
X3298800Y-15944777D01*
X3276472Y-15832529D01*
X3232675Y-15726793D01*
X3218738Y-15705935D01*
X3278666Y-15665892D01*
X3359592Y-15584966D01*
X3423175Y-15489807D01*
X3466972Y-15384071D01*
X3478868Y-15324268D01*
X3892106Y-14911030D01*
X3910464Y-14895964D01*
X3970572Y-14822722D01*
X3998627Y-14770235D01*
X4015236Y-14739162D01*
X4042740Y-14648493D01*
X4052027Y-14554200D01*
X4049700Y-14530574D01*
X4049700Y-14308605D01*
X4083575Y-14257907D01*
X4127372Y-14152171D01*
X4149700Y-14039923D01*
X4149700Y-13925477D01*
X4127372Y-13813229D01*
X4083575Y-13707493D01*
X4019992Y-13612334D01*
X3988075Y-13580417D01*
X4512458Y-13056034D01*
X4532934Y-13054017D01*
X4628316Y-13025084D01*
X4716220Y-12978098D01*
X4791461Y-12916349D01*
X4803211Y-12914012D01*
X4908947Y-12870215D01*
X5004106Y-12806632D01*
X5085032Y-12725706D01*
X5148615Y-12630547D01*
X5190306Y-12529895D01*
X5253607Y-12503675D01*
X5348766Y-12440092D01*
X5429692Y-12359166D01*
X5493275Y-12264007D01*
X5537072Y-12158271D01*
X5541411Y-12136456D01*
X5566259Y-12106179D01*
X5613245Y-12018275D01*
X5642178Y-11922892D01*
X5645490Y-11889266D01*
X5651948Y-11823700D01*
X5650233Y-11806292D01*
X5658375Y-11794107D01*
X5681171Y-11739071D01*
X5727700Y-11719799D01*
X5824929Y-11760072D01*
X5937177Y-11782400D01*
X6051623Y-11782400D01*
X6163871Y-11760072D01*
X6269607Y-11716275D01*
X6364766Y-11652692D01*
X6445692Y-11571766D01*
X6475931Y-11526511D01*
X6475056Y-11528622D01*
X6441200Y-11698829D01*
X6441200Y-11872371D01*
X6475056Y-12042578D01*
X6541468Y-12202910D01*
X6637882Y-12347205D01*
X6711277Y-12420600D01*
X6637882Y-12493995D01*
X6541468Y-12638290D01*
X6475056Y-12798622D01*
X6441200Y-12968829D01*
X6441200Y-13142371D01*
X6475056Y-13312578D01*
X6541468Y-13472910D01*
X6637882Y-13617205D01*
X6711277Y-13690600D01*
X6637882Y-13763995D01*
X6541468Y-13908290D01*
X6475056Y-14068622D01*
X6441200Y-14238829D01*
X6441200Y-14412371D01*
X6475056Y-14582578D01*
X6541468Y-14742910D01*
X6637882Y-14887205D01*
X6711277Y-14960600D01*
X6637882Y-15033995D01*
X6541468Y-15178290D01*
X6475056Y-15338622D01*
X6441200Y-15508829D01*
X6441200Y-15682371D01*
X6475056Y-15852578D01*
X6541468Y-16012910D01*
X6637882Y-16157205D01*
X6711277Y-16230600D01*
X6637882Y-16303995D01*
X6541468Y-16448290D01*
X6475056Y-16608622D01*
X6441200Y-16778829D01*
X6441200Y-16952371D01*
X6475056Y-17122578D01*
X6541468Y-17282910D01*
X6580394Y-17341168D01*
X6551489Y-17364889D01*
X6503878Y-17422904D01*
X6468499Y-17489092D01*
X6446713Y-17560911D01*
X6439357Y-17635600D01*
X6439357Y-18635600D01*
X6446713Y-18710289D01*
X6468499Y-18782108D01*
X6503878Y-18848296D01*
X6551489Y-18906311D01*
X6609504Y-18953922D01*
X6675692Y-18989301D01*
X6747511Y-19011087D01*
X6822200Y-19018443D01*
X7822200Y-19018443D01*
X7896889Y-19011087D01*
X7904468Y-19008788D01*
X7902600Y-19018177D01*
X7902600Y-19132623D01*
X7924928Y-19244871D01*
X7946790Y-19297650D01*
X7924928Y-19350429D01*
X7902600Y-19462677D01*
X7902600Y-19577123D01*
X7924928Y-19689371D01*
X7952050Y-19754850D01*
X7924928Y-19820329D01*
X7902600Y-19932577D01*
X7902600Y-20047023D01*
X7924928Y-20159271D01*
X7956281Y-20234964D01*
X7928129Y-20302929D01*
X7905801Y-20415177D01*
X7905801Y-20529623D01*
X7928129Y-20641871D01*
X7948390Y-20690786D01*
X7924928Y-20747429D01*
X7902600Y-20859677D01*
X7902600Y-20974123D01*
X7924928Y-21086371D01*
X7968725Y-21192107D01*
X8032308Y-21287266D01*
X8113234Y-21368192D01*
X8208393Y-21431775D01*
X8314129Y-21475572D01*
X8426377Y-21497900D01*
X8540823Y-21497900D01*
X8653071Y-21475572D01*
X8758807Y-21431775D01*
X8853966Y-21368192D01*
X8934892Y-21287266D01*
X8998475Y-21192107D01*
X9042272Y-21086371D01*
X9064600Y-20974123D01*
X9064600Y-20859677D01*
X9042272Y-20747429D01*
X9022011Y-20698514D01*
X9045473Y-20641871D01*
X9067801Y-20529623D01*
X9067801Y-20415177D01*
X9045473Y-20302929D01*
X9014120Y-20227236D01*
X9042272Y-20159271D01*
X9064600Y-20047023D01*
X9064600Y-19932577D01*
X9042272Y-19820329D01*
X9015150Y-19754850D01*
X9042272Y-19689371D01*
X9064600Y-19577123D01*
X9064600Y-19462677D01*
X9042272Y-19350429D01*
X9020410Y-19297650D01*
X9042272Y-19244871D01*
X9064600Y-19132623D01*
X9064600Y-19018177D01*
X9042272Y-18905929D01*
X8998475Y-18800193D01*
X8992801Y-18791701D01*
X8992801Y-17722777D01*
X10810900Y-17722777D01*
X10810900Y-17837223D01*
X10833228Y-17949471D01*
X10877025Y-18055207D01*
X10910900Y-18105905D01*
X10910901Y-18724094D01*
X10877025Y-18774793D01*
X10833228Y-18880529D01*
X10810900Y-18992777D01*
X10810900Y-19107223D01*
X10833228Y-19219471D01*
X10877025Y-19325207D01*
X10940608Y-19420366D01*
X11021534Y-19501292D01*
X11116693Y-19564875D01*
X11222429Y-19608672D01*
X11334677Y-19631000D01*
X11449123Y-19631000D01*
X11561371Y-19608672D01*
X11667107Y-19564875D01*
X11762266Y-19501292D01*
X11843192Y-19420366D01*
X11906775Y-19325207D01*
X11950572Y-19219471D01*
X11972900Y-19107223D01*
X11972900Y-18992777D01*
X11950572Y-18880529D01*
X11906775Y-18774793D01*
X11872900Y-18724095D01*
X11872900Y-18105905D01*
X11906775Y-18055207D01*
X11950572Y-17949471D01*
X11972900Y-17837223D01*
X11972900Y-17722777D01*
X11950572Y-17610529D01*
X11906775Y-17504793D01*
X11843192Y-17409634D01*
X11762266Y-17328708D01*
X11667107Y-17265125D01*
X11561371Y-17221328D01*
X11449123Y-17199000D01*
X11334677Y-17199000D01*
X11222429Y-17221328D01*
X11116693Y-17265125D01*
X11021534Y-17328708D01*
X10940608Y-17409634D01*
X10877025Y-17504793D01*
X10833228Y-17610529D01*
X10810900Y-17722777D01*
X8992801Y-17722777D01*
X8992801Y-16762999D01*
X9057166Y-16719992D01*
X9138092Y-16639066D01*
X9151092Y-16619610D01*
X9248511Y-16600232D01*
X9294940Y-16581001D01*
X9341369Y-16600232D01*
X9453617Y-16622560D01*
X9568063Y-16622560D01*
X9680311Y-16600232D01*
X9726740Y-16581001D01*
X9773169Y-16600232D01*
X9885417Y-16622560D01*
X9999863Y-16622560D01*
X10112111Y-16600232D01*
X10158540Y-16581001D01*
X10204969Y-16600232D01*
X10317217Y-16622560D01*
X10431663Y-16622560D01*
X10543911Y-16600232D01*
X10649647Y-16556435D01*
X10744806Y-16492852D01*
X10825732Y-16411926D01*
X10889315Y-16316767D01*
X10933112Y-16211031D01*
X10955440Y-16098783D01*
X10955440Y-15984337D01*
X10933112Y-15872089D01*
X10889315Y-15766353D01*
X10825732Y-15671194D01*
X10744806Y-15590268D01*
X10649647Y-15526685D01*
X10543911Y-15482888D01*
X10431663Y-15460560D01*
X10317217Y-15460560D01*
X10204969Y-15482888D01*
X10158540Y-15502119D01*
X10112111Y-15482888D01*
X9999863Y-15460560D01*
X9885417Y-15460560D01*
X9773169Y-15482888D01*
X9726740Y-15502119D01*
X9680311Y-15482888D01*
X9568063Y-15460560D01*
X9453617Y-15460560D01*
X9341369Y-15482888D01*
X9294940Y-15502119D01*
X9248511Y-15482888D01*
X9136263Y-15460560D01*
X9021817Y-15460560D01*
X8909569Y-15482888D01*
X8803833Y-15526685D01*
X8750364Y-15562412D01*
X8719365Y-15571815D01*
X8631461Y-15618801D01*
X8554413Y-15682033D01*
X8538564Y-15701345D01*
X8532998Y-15706911D01*
X8517329Y-15710028D01*
X8411593Y-15753825D01*
X8316434Y-15817408D01*
X8235508Y-15898334D01*
X8171925Y-15993493D01*
X8128128Y-16099229D01*
X8125791Y-16110979D01*
X8064042Y-16186220D01*
X8017056Y-16274125D01*
X8007534Y-16305516D01*
X8006518Y-16303995D01*
X7933123Y-16230600D01*
X8006518Y-16157205D01*
X8102932Y-16012910D01*
X8169344Y-15852578D01*
X8203200Y-15682371D01*
X8203200Y-15508829D01*
X8169344Y-15338622D01*
X8102932Y-15178290D01*
X8006518Y-15033995D01*
X7933123Y-14960600D01*
X8006518Y-14887205D01*
X8102932Y-14742910D01*
X8115372Y-14712877D01*
X10734700Y-14712877D01*
X10734700Y-14827323D01*
X10757028Y-14939571D01*
X10800825Y-15045307D01*
X10864408Y-15140466D01*
X10945334Y-15221392D01*
X11040493Y-15284975D01*
X11146229Y-15328772D01*
X11258477Y-15351100D01*
X11372923Y-15351100D01*
X11485171Y-15328772D01*
X11590907Y-15284975D01*
X11686066Y-15221392D01*
X11766992Y-15140466D01*
X11830575Y-15045307D01*
X11874372Y-14939571D01*
X11896700Y-14827323D01*
X11896700Y-14712877D01*
X11874372Y-14600629D01*
X11830575Y-14494893D01*
X11796700Y-14444195D01*
X11796700Y-14054936D01*
X11882569Y-13969068D01*
X11942371Y-13957172D01*
X12048107Y-13913375D01*
X12143266Y-13849792D01*
X12224192Y-13768866D01*
X12287775Y-13673707D01*
X12331572Y-13567971D01*
X12353900Y-13455723D01*
X12353900Y-13341277D01*
X12331572Y-13229029D01*
X12287775Y-13123293D01*
X12224192Y-13028134D01*
X12143266Y-12947208D01*
X12048107Y-12883625D01*
X11942371Y-12839828D01*
X11830123Y-12817500D01*
X11715677Y-12817500D01*
X11603429Y-12839828D01*
X11497693Y-12883625D01*
X11402534Y-12947208D01*
X11321608Y-13028134D01*
X11258025Y-13123293D01*
X11214228Y-13229029D01*
X11202332Y-13288831D01*
X10992289Y-13498875D01*
X10973937Y-13513936D01*
X10958876Y-13532288D01*
X10913829Y-13587178D01*
X10869165Y-13670739D01*
X10841660Y-13761408D01*
X10832373Y-13855700D01*
X10834701Y-13879336D01*
X10834700Y-14444195D01*
X10800825Y-14494893D01*
X10757028Y-14600629D01*
X10734700Y-14712877D01*
X8115372Y-14712877D01*
X8169344Y-14582578D01*
X8203200Y-14412371D01*
X8203200Y-14238829D01*
X8169344Y-14068622D01*
X8102932Y-13908290D01*
X8006518Y-13763995D01*
X7933123Y-13690600D01*
X8006518Y-13617205D01*
X8102932Y-13472910D01*
X8169344Y-13312578D01*
X8203200Y-13142371D01*
X8203200Y-12968829D01*
X8169344Y-12798622D01*
X8102932Y-12638290D01*
X8006518Y-12493995D01*
X7933123Y-12420600D01*
X8006518Y-12347205D01*
X8102932Y-12202910D01*
X8169344Y-12042578D01*
X8203200Y-11872371D01*
X8203200Y-11698829D01*
X8169344Y-11528622D01*
X8102932Y-11368290D01*
X8006518Y-11223995D01*
X7933123Y-11150600D01*
X8006518Y-11077205D01*
X8102932Y-10932910D01*
X8169344Y-10772578D01*
X8203200Y-10602371D01*
X8203200Y-10428829D01*
X8169344Y-10258622D01*
X8102932Y-10098290D01*
X8006518Y-9953995D01*
X7933123Y-9880600D01*
X8006518Y-9807205D01*
X8102932Y-9662910D01*
X8169344Y-9502578D01*
X8203200Y-9332371D01*
X8203200Y-9158829D01*
X8169344Y-8988622D01*
X8102932Y-8828290D01*
X8006518Y-8683995D01*
X7883805Y-8561282D01*
X7739510Y-8464868D01*
X7579178Y-8398456D01*
X7408971Y-8364600D01*
X7235429Y-8364600D01*
X7065222Y-8398456D01*
X6904890Y-8464868D01*
X6760595Y-8561282D01*
X6637882Y-8683995D01*
X6541468Y-8828290D01*
X6475056Y-8988622D01*
X6441200Y-9158829D01*
X6441200Y-9332371D01*
X6475056Y-9502578D01*
X6541468Y-9662910D01*
X6637882Y-9807205D01*
X6711277Y-9880600D01*
X6637882Y-9953995D01*
X6541468Y-10098290D01*
X6475056Y-10258622D01*
X6441200Y-10428829D01*
X6441200Y-10602371D01*
X6475056Y-10772578D01*
X6541468Y-10932910D01*
X6637882Y-11077205D01*
X6711277Y-11150600D01*
X6637882Y-11223995D01*
X6558722Y-11342467D01*
X6575400Y-11258623D01*
X6575400Y-11144177D01*
X6553072Y-11031929D01*
X6509275Y-10926193D01*
X6445692Y-10831034D01*
X6364766Y-10750108D01*
X6269607Y-10686525D01*
X6163871Y-10642728D01*
X6051623Y-10620400D01*
X5937177Y-10620400D01*
X5824929Y-10642728D01*
X5727700Y-10683001D01*
X5630471Y-10642728D01*
X5518223Y-10620400D01*
X5403777Y-10620400D01*
X5291529Y-10642728D01*
X5185793Y-10686525D01*
X5090634Y-10750108D01*
X5009708Y-10831034D01*
X4946125Y-10926193D01*
X4923329Y-10981229D01*
X4868293Y-11004025D01*
X4773134Y-11067608D01*
X4692208Y-11148534D01*
X4628625Y-11243693D01*
X4584828Y-11349429D01*
X4562500Y-11461677D01*
X4562500Y-11576123D01*
X4563648Y-11581894D01*
X4527108Y-11618434D01*
X4463525Y-11713593D01*
X4421834Y-11814245D01*
X4358533Y-11840465D01*
X4263374Y-11904048D01*
X4182448Y-11984974D01*
X4118865Y-12080133D01*
X4118560Y-12080870D01*
X4102986Y-12085594D01*
X4015082Y-12132580D01*
X3938034Y-12195812D01*
X3922190Y-12215118D01*
X2559009Y-13578300D01*
X2399754Y-13578300D01*
X2374900Y-13575852D01*
X2350046Y-13578300D01*
X2275707Y-13585622D01*
X2180325Y-13614555D01*
X2092421Y-13661541D01*
X2015373Y-13724773D01*
X1999529Y-13744079D01*
X1482843Y-14260765D01*
X1482843Y-14127500D01*
X1472653Y-14024035D01*
X1442473Y-13924547D01*
X1393464Y-13832857D01*
X1327509Y-13752491D01*
X1286000Y-13718425D01*
X1286000Y-13358893D01*
X1327977Y-13336456D01*
X1419140Y-13261640D01*
X1493956Y-13170477D01*
X1549549Y-13066470D01*
X1583784Y-12953615D01*
X1595343Y-12836250D01*
X1595343Y-12323750D01*
X1583784Y-12206385D01*
X1549549Y-12093530D01*
X1493956Y-11989523D01*
X1419140Y-11898360D01*
X1327977Y-11823544D01*
X1271471Y-11793341D01*
X1340477Y-11756456D01*
X1431640Y-11681640D01*
X1506456Y-11590477D01*
X1562049Y-11486470D01*
X1596284Y-11373615D01*
X1607843Y-11256250D01*
X1607843Y-10743750D01*
X1596284Y-10626385D01*
X1562049Y-10513530D01*
X1506456Y-10409523D01*
X1431640Y-10318360D01*
X1340477Y-10243544D01*
X1321500Y-10233400D01*
X1352473Y-10175453D01*
X1382653Y-10075965D01*
X1392843Y-9972500D01*
X1392843Y-9627500D01*
X1382653Y-9524035D01*
X1352473Y-9424547D01*
X1303464Y-9332857D01*
X1237509Y-9252491D01*
X1157143Y-9186536D01*
X1079957Y-9145280D01*
X1784526Y-8440711D01*
X5427863Y-8440711D01*
X5451489Y-8443038D01*
X5475115Y-8440711D01*
X5545781Y-8433751D01*
X5636450Y-8406247D01*
X5720011Y-8361583D01*
X5793253Y-8301475D01*
X5808319Y-8283117D01*
X6012589Y-8078847D01*
X6043134Y-8109392D01*
X6138293Y-8172975D01*
X6244029Y-8216772D01*
X6356277Y-8239100D01*
X6470723Y-8239100D01*
X6582971Y-8216772D01*
X6688707Y-8172975D01*
X6783866Y-8109392D01*
X6864792Y-8028466D01*
X6928375Y-7933307D01*
X6972172Y-7827571D01*
X6984068Y-7767768D01*
X8912476Y-5839360D01*
X12469700Y-5839360D01*
X12469700Y-6160640D01*
X12532378Y-6475745D01*
X12655326Y-6772568D01*
X12833819Y-7039702D01*
X13060998Y-7266881D01*
X13328132Y-7445374D01*
X13624955Y-7568322D01*
X13940060Y-7631000D01*
X14261340Y-7631000D01*
X14576445Y-7568322D01*
X14873268Y-7445374D01*
X15140402Y-7266881D01*
X15367581Y-7039702D01*
X15546074Y-6772568D01*
X15669022Y-6475745D01*
X15731700Y-6160640D01*
X15731700Y-5839360D01*
X15669022Y-5524255D01*
X15546074Y-5227432D01*
X15367581Y-4960298D01*
X15140402Y-4733119D01*
X14873268Y-4554626D01*
X14576445Y-4431678D01*
X14261340Y-4369000D01*
X13940060Y-4369000D01*
X13624955Y-4431678D01*
X13328132Y-4554626D01*
X13060998Y-4733119D01*
X12833819Y-4960298D01*
X12655326Y-5227432D01*
X12532378Y-5524255D01*
X12469700Y-5839360D01*
X8912476Y-5839360D01*
X12334411Y-2417426D01*
X12352763Y-2402365D01*
X12412871Y-2329123D01*
X12457535Y-2245562D01*
X12479596Y-2172837D01*
X12485039Y-2154894D01*
X12494326Y-2060602D01*
X12491999Y-2036975D01*
X12491999Y5727255D01*
X12532378Y5524255D01*
X12655326Y5227432D01*
X12833819Y4960298D01*
X13060998Y4733119D01*
X13328132Y4554626D01*
X13624955Y4431678D01*
X13940060Y4369000D01*
X14261340Y4369000D01*
X14576445Y4431678D01*
X14873268Y4554626D01*
X15140402Y4733119D01*
X15367581Y4960298D01*
X15546074Y5227432D01*
X15669022Y5524255D01*
X15731700Y5839360D01*
X15731700Y6160640D01*
X15669022Y6475745D01*
X15546074Y6772568D01*
X15367581Y7039702D01*
X15140402Y7266881D01*
X14873268Y7445374D01*
X14576445Y7568322D01*
X14261340Y7631000D01*
X13940060Y7631000D01*
X13624955Y7568322D01*
X13328132Y7445374D01*
X13060998Y7266881D01*
X12833819Y7039702D01*
X12655326Y6772568D01*
X12532378Y6475745D01*
X12491999Y6272745D01*
X12491999Y11714378D01*
X12494326Y11738002D01*
X12491335Y11768371D01*
X12485039Y11832293D01*
X12457535Y11922962D01*
X12412871Y12006523D01*
X12382356Y12043706D01*
X12369672Y12107471D01*
X12325875Y12213207D01*
X12262292Y12308366D01*
X12181366Y12389292D01*
X12086207Y12452875D01*
X11980471Y12496672D01*
X11868223Y12519000D01*
X11753777Y12519000D01*
X11641529Y12496672D01*
X11535793Y12452875D01*
X11440634Y12389292D01*
X11359708Y12308366D01*
X11296125Y12213207D01*
X11252328Y12107471D01*
X11230000Y11995223D01*
X11230000Y11880777D01*
X11252328Y11768529D01*
X11296125Y11662793D01*
X11359708Y11567634D01*
X11440634Y11486708D01*
X11515956Y11436380D01*
X11436423Y11452200D01*
X11321977Y11452200D01*
X11209729Y11429872D01*
X11103993Y11386075D01*
X11008834Y11322492D01*
X10927908Y11241566D01*
X10864325Y11146407D01*
X10820528Y11040671D01*
X10798200Y10928423D01*
X10798200Y10813977D01*
X10820528Y10701729D01*
X10864325Y10595993D01*
X10898201Y10545294D01*
X10898200Y-1832763D01*
X10475900Y-2255063D01*
X10475900Y12231877D01*
X10478227Y12255501D01*
X10473020Y12308366D01*
X10468940Y12349792D01*
X10441436Y12440461D01*
X10396772Y12524022D01*
X10336664Y12597264D01*
X10318312Y12612325D01*
X6452830Y16477806D01*
X6437764Y16496164D01*
X6364522Y16556272D01*
X6280961Y16600936D01*
X6190292Y16628440D01*
X6119626Y16635400D01*
X6096000Y16637727D01*
X6072374Y16635400D01*
X6002805Y16635400D01*
X5952107Y16669275D01*
X5846371Y16713072D01*
X5734123Y16735400D01*
X5619677Y16735400D01*
X5507429Y16713072D01*
X5401693Y16669275D01*
X5306534Y16605692D01*
X5225608Y16524766D01*
X5162025Y16429607D01*
X5118228Y16323871D01*
X5095900Y16211623D01*
X5095900Y16102958D01*
X5022408Y16029466D01*
X4958825Y15934307D01*
X4915028Y15828571D01*
X4892700Y15716323D01*
X4892700Y15601877D01*
X4915028Y15489629D01*
X4958825Y15383893D01*
X5022408Y15288734D01*
X5103334Y15207808D01*
X5198493Y15144225D01*
X5304229Y15100428D01*
X5416477Y15078100D01*
X5530923Y15078100D01*
X5643171Y15100428D01*
X5748907Y15144225D01*
X5799605Y15178100D01*
X5922164Y15178100D01*
X6719103Y14381160D01*
X6684316Y14366751D01*
X6589157Y14303168D01*
X6508231Y14222242D01*
X6444648Y14127083D01*
X6400851Y14021347D01*
X6378523Y13909099D01*
X6378523Y13794653D01*
X6400851Y13682405D01*
X6444648Y13576669D01*
X6478524Y13525970D01*
X6478523Y12431700D01*
X-4738874Y12431700D01*
X-4762500Y12434027D01*
X-4856793Y12424740D01*
X-4884297Y12416396D01*
X-4947461Y12397236D01*
X-5031022Y12352572D01*
X-5104264Y12292464D01*
X-5119325Y12274112D01*
X-6215789Y11177647D01*
X-6271734Y11233592D01*
X-6366893Y11297175D01*
X-6472629Y11340972D01*
X-6584877Y11363300D01*
X-6699323Y11363300D01*
X-6811571Y11340972D01*
X-6917307Y11297175D01*
X-7012466Y11233592D01*
X-7093392Y11152666D01*
X-7156975Y11057507D01*
X-7200772Y10951771D01*
X-7212668Y10891969D01*
X-7432222Y10672414D01*
X-7450574Y10657353D01*
X-7465635Y10639001D01*
X-7510682Y10584111D01*
X-7555346Y10500550D01*
X-7582851Y10409881D01*
X-7592138Y10315589D01*
X-7589810Y10291953D01*
X-7589810Y10181839D01*
X-7600000Y10182843D01*
X-8150000Y10182843D01*
X-8224689Y10175487D01*
X-8296508Y10153701D01*
X-8362696Y10118322D01*
X-8420711Y10070711D01*
X-8468322Y10012696D01*
X-8503701Y9946508D01*
X-8525487Y9874689D01*
X-8532843Y9800000D01*
X-20094000Y9800000D01*
X-20093998Y14173855D01*
X-19000134Y15616660D01*
X-17716294Y17059252D01*
X-16323230Y18396667D01*
X-15855300Y18780105D01*
X-15855300Y16510000D01*
X-15847979Y16435671D01*
X-15826298Y16364198D01*
X-15791090Y16298328D01*
X-15743708Y16240592D01*
X-15685972Y16193210D01*
X-15620102Y16158002D01*
X-15548629Y16136321D01*
X-15474300Y16129000D01*
X-2774300Y16129000D01*
X-2699971Y16136321D01*
X-2628498Y16158002D01*
X-2562628Y16193210D01*
X-2504892Y16240592D01*
X-2457510Y16298328D01*
X-2422302Y16364198D01*
X-2400621Y16435671D01*
X-2393300Y16510000D01*
X-2393300Y20160640D01*
X-1631000Y20160640D01*
X-1631000Y19839360D01*
X-1568322Y19524255D01*
X-1445374Y19227432D01*
X-1266881Y18960298D01*
X-1039702Y18733119D01*
X-772568Y18554626D01*
X-475745Y18431678D01*
X-160640Y18369000D01*
X160640Y18369000D01*
X475745Y18431678D01*
X772568Y18554626D01*
X1039702Y18733119D01*
X1266881Y18960298D01*
X1445374Y19227432D01*
X1568322Y19524255D01*
X1631000Y19839360D01*
X1631000Y20160640D01*
X1568322Y20475745D01*
X1445374Y20772568D01*
X1266881Y21039702D01*
X1039702Y21266881D01*
X772568Y21445374D01*
X475745Y21568322D01*
X160640Y21631000D01*
X-160640Y21631000D01*
X-475745Y21568322D01*
X-772568Y21445374D01*
X-1039702Y21266881D01*
X-1266881Y21039702D01*
X-1445374Y20772568D01*
X-1568322Y20475745D01*
X-1631000Y20160640D01*
X-2393300Y20160640D01*
X-2393300Y24477658D01*
X-2392474Y24477771D01*
X-464593Y24590025D01*
X1466155Y24550674D01*
G36*
X-2901300Y16637000D02*
G01*
X-15347300Y16637000D01*
X-15347300Y19360572D01*
X-14906167Y19722052D01*
X-13312830Y20830787D01*
X-11637426Y21811085D01*
X-9890268Y22656914D01*
X-8082146Y23363050D01*
X-6224180Y23925149D01*
X-4327854Y24339738D01*
X-2901300Y24535973D01*
X-2901300Y16637000D01*
G37*
X-2901300Y16637000D02*
X-15347300Y16637000D01*
X-15347300Y19360572D01*
X-14906167Y19722052D01*
X-13312830Y20830787D01*
X-11637426Y21811085D01*
X-9890268Y22656914D01*
X-8082146Y23363050D01*
X-6224180Y23925149D01*
X-4327854Y24339738D01*
X-2901300Y24535973D01*
X-2901300Y16637000D01*
G36*
X3405364Y24485846D02*
G01*
X5315990Y24143186D01*
X7193865Y23651668D01*
X9027381Y23014333D01*
X10805229Y22235112D01*
X12516469Y21318798D01*
X14150544Y20271044D01*
X15259700Y19430137D01*
X15259700Y12827000D01*
X9924032Y12827000D01*
X6358612Y16392418D01*
X6347526Y16405926D01*
X6293623Y16450164D01*
X6232125Y16483035D01*
X6165396Y16503277D01*
X6113382Y16508400D01*
X6113374Y16508400D01*
X6096000Y16510111D01*
X6078626Y16508400D01*
X5964280Y16508400D01*
X5891950Y16556730D01*
X5809327Y16590953D01*
X5721615Y16608400D01*
X5632185Y16608400D01*
X5544473Y16590953D01*
X5461850Y16556730D01*
X5387492Y16507045D01*
X5324255Y16443808D01*
X5274570Y16369450D01*
X5240347Y16286827D01*
X5222900Y16199115D01*
X5222900Y16109685D01*
X5235567Y16046006D01*
X5184292Y16011745D01*
X5121055Y15948508D01*
X5071370Y15874150D01*
X5037147Y15791527D01*
X5019700Y15703815D01*
X5019700Y15614385D01*
X5037147Y15526673D01*
X5071370Y15444050D01*
X5121055Y15369692D01*
X5184292Y15306455D01*
X5258650Y15256770D01*
X5341273Y15222547D01*
X5428985Y15205100D01*
X5518415Y15205100D01*
X5606127Y15222547D01*
X5688750Y15256770D01*
X5761080Y15305100D01*
X5974770Y15305100D01*
X6973993Y14305876D01*
X6914808Y14305876D01*
X6827096Y14288429D01*
X6744473Y14254206D01*
X6670115Y14204521D01*
X6606878Y14141284D01*
X6557193Y14066926D01*
X6522970Y13984303D01*
X6505523Y13896591D01*
X6505523Y13807161D01*
X6522970Y13719449D01*
X6557193Y13636826D01*
X6605523Y13564496D01*
X6605523Y13551653D01*
X6605524Y13551643D01*
X6605524Y12827000D01*
X2813700Y12827000D01*
X2813700Y24544564D01*
X3405364Y24485846D01*
G37*
X3405364Y24485846D02*
X5315990Y24143186D01*
X7193865Y23651668D01*
X9027381Y23014333D01*
X10805229Y22235112D01*
X12516469Y21318798D01*
X14150544Y20271044D01*
X15259700Y19430137D01*
X15259700Y12827000D01*
X9924032Y12827000D01*
X6358612Y16392418D01*
X6347526Y16405926D01*
X6293623Y16450164D01*
X6232125Y16483035D01*
X6165396Y16503277D01*
X6113382Y16508400D01*
X6113374Y16508400D01*
X6096000Y16510111D01*
X6078626Y16508400D01*
X5964280Y16508400D01*
X5891950Y16556730D01*
X5809327Y16590953D01*
X5721615Y16608400D01*
X5632185Y16608400D01*
X5544473Y16590953D01*
X5461850Y16556730D01*
X5387492Y16507045D01*
X5324255Y16443808D01*
X5274570Y16369450D01*
X5240347Y16286827D01*
X5222900Y16199115D01*
X5222900Y16109685D01*
X5235567Y16046006D01*
X5184292Y16011745D01*
X5121055Y15948508D01*
X5071370Y15874150D01*
X5037147Y15791527D01*
X5019700Y15703815D01*
X5019700Y15614385D01*
X5037147Y15526673D01*
X5071370Y15444050D01*
X5121055Y15369692D01*
X5184292Y15306455D01*
X5258650Y15256770D01*
X5341273Y15222547D01*
X5428985Y15205100D01*
X5518415Y15205100D01*
X5606127Y15222547D01*
X5688750Y15256770D01*
X5761080Y15305100D01*
X5974770Y15305100D01*
X6973993Y14305876D01*
X6914808Y14305876D01*
X6827096Y14288429D01*
X6744473Y14254206D01*
X6670115Y14204521D01*
X6606878Y14141284D01*
X6557193Y14066926D01*
X6522970Y13984303D01*
X6505523Y13896591D01*
X6505523Y13807161D01*
X6522970Y13719449D01*
X6557193Y13636826D01*
X6605523Y13564496D01*
X6605523Y13551653D01*
X6605524Y13551643D01*
X6605524Y12827000D01*
X2813700Y12827000D01*
X2813700Y24544564D01*
X3405364Y24485846D01*
M02*
