M48
; DRILL file {KiCad 5.1.5-52549c5~84~ubuntu18.04.1} date Mon 30 Mar 2020 02:39:41 PM EDT
; FORMAT={-:-/ absolute / inch / decimal}
; #@! TF.CreationDate,2020-03-30T14:39:41-04:00
; #@! TF.GenerationSoftware,Kicad,Pcbnew,5.1.5-52549c5~84~ubuntu18.04.1
; #@! TF.FileFunction,Plated,1,2,PTH
FMAT,2
INCH
T1C0.0118
T2C0.0256
%
G90
G05
T1
X-0.5056Y0.7172
X-0.4406Y0.0279
X-0.4406Y0.0094
X-0.4406Y-0.0096
X-0.4405Y0.046
X-0.3858Y0.468
X-0.3761Y0.5629
X-0.3591Y0.5629
X-0.3424Y0.563
X-0.3314Y0.3286
X-0.2615Y0.4245
X-0.2306Y0.5758
X-0.2158Y0.2882
X-0.2019Y0.3543
X-0.1944Y0.7182
X-0.194Y0.6994
X-0.194Y0.6816
X-0.194Y0.663
X-0.1817Y0.3543
X-0.177Y0.4475
X-0.1619Y0.3543
X-0.09Y-0.3755
X-0.0797Y-0.4646
X-0.038Y-0.598
X-0.032Y-0.549
X-0.02Y-0.598
X-0.0025Y-0.598
X0.0005Y-0.414
X0.014Y-0.647
X0.0165Y-0.598
X0.0345Y-0.598
X0.07Y-0.4655
X0.071Y-0.5145
X0.095Y-0.49
X0.1Y-0.344
X0.107Y-0.63
X0.1145Y-0.599
X0.12Y-0.465
X0.12Y-0.515
X0.1405Y-0.5505
X0.1765Y-0.4065
X0.1824Y-0.4864
X0.1905Y-0.5855
X0.196Y-0.472
X0.2025Y-0.4535
X0.215Y-0.441
X0.2155Y0.6165
X0.2235Y0.636
X0.236Y-0.441
X0.2525Y-0.3015
X0.269Y0.3548
X0.274Y0.5453
X0.2885Y0.704
X0.2885Y0.6265
X0.3094Y0.3132
X0.326Y0.6645
X0.3268Y0.38
X0.334Y0.3528
X0.334Y-0.751
X0.334Y-0.7685
X0.334Y-0.787
X0.334Y-0.8235
X0.3341Y-0.806
X0.342Y-0.6405
X0.3505Y0.337
X0.3574Y-0.6316
X0.3645Y0.7025
X0.3645Y0.627
X0.3744Y-0.6316
X0.3914Y-0.6316
X0.3935Y-0.1105
X0.3985Y-0.4995
X0.4084Y-0.6316
X0.4435Y-0.792
X0.4455Y-0.5815
X0.448Y0.428
X0.4485Y-0.7
X0.4485Y-0.75
X0.4635Y-0.5275
X0.465Y0.47
X0.469Y-0.6165
X0.47Y-0.6655
X0.4745Y-0.7965
X0.494Y-0.641
X0.519Y-0.616
X0.519Y-0.666
X0.5264Y0.5336
X0.5375Y-0.7015
X0.5635Y-0.7005
X0.5765Y-0.4885
X0.589Y-0.725
X0.596Y-0.591
X0.619Y0.6785
X0.6215Y0.701
X0.6565Y-0.5625
X0.7419Y0.0239
X0.7419Y0.0054
X0.7419Y-0.0136
X0.742Y0.042
T2
X0.2883Y-0.364
X0.2883Y-0.414
X0.2883Y-0.464
X0.2883Y-0.514
X0.2883Y-0.564
X0.2883Y-0.614
X0.2883Y-0.664
X0.2883Y-0.714
T0
M30
