G04 #@! TF.GenerationSoftware,KiCad,Pcbnew,5.1.5-52549c5~84~ubuntu18.04.1*
G04 #@! TF.CreationDate,2020-03-30T14:39:39-04:00*
G04 #@! TF.ProjectId,SwarmBot,53776172-6d42-46f7-942e-6b696361645f,rev?*
G04 #@! TF.SameCoordinates,Original*
G04 #@! TF.FileFunction,Soldermask,Bot*
G04 #@! TF.FilePolarity,Negative*
%FSLAX46Y46*%
G04 Gerber Fmt 4.6, Leading zero omitted, Abs format (unit mm)*
G04 Created by KiCad (PCBNEW 5.1.5-52549c5~84~ubuntu18.04.1) date 2020-03-30 14:39:39*
%MOMM*%
%LPD*%
G04 APERTURE LIST*
%ADD10C,0.100000*%
G04 APERTURE END LIST*
D10*
G36*
X380187Y-18748996D02*
G01*
X616953Y-18847068D01*
X616955Y-18847069D01*
X830039Y-18989447D01*
X1011253Y-19170661D01*
X1153632Y-19383747D01*
X1251704Y-19620513D01*
X1301700Y-19871861D01*
X1301700Y-20128139D01*
X1251704Y-20379487D01*
X1153632Y-20616253D01*
X1153631Y-20616255D01*
X1011253Y-20829339D01*
X830039Y-21010553D01*
X616955Y-21152931D01*
X616954Y-21152932D01*
X616953Y-21152932D01*
X380187Y-21251004D01*
X128839Y-21301000D01*
X-127439Y-21301000D01*
X-378787Y-21251004D01*
X-615553Y-21152932D01*
X-615554Y-21152932D01*
X-615555Y-21152931D01*
X-828639Y-21010553D01*
X-1009853Y-20829339D01*
X-1152231Y-20616255D01*
X-1152232Y-20616253D01*
X-1250304Y-20379487D01*
X-1300300Y-20128139D01*
X-1300300Y-19871861D01*
X-1250304Y-19620513D01*
X-1152232Y-19383747D01*
X-1009853Y-19170661D01*
X-828639Y-18989447D01*
X-615555Y-18847069D01*
X-615553Y-18847068D01*
X-378787Y-18748996D01*
X-127439Y-18699000D01*
X128839Y-18699000D01*
X380187Y-18748996D01*
G37*
G36*
X7482921Y-8715774D02*
G01*
X7583195Y-8757309D01*
X7583196Y-8757310D01*
X7673442Y-8817610D01*
X7750190Y-8894358D01*
X7750191Y-8894360D01*
X7810491Y-8984605D01*
X7852026Y-9084879D01*
X7873200Y-9191330D01*
X7873200Y-9299870D01*
X7852026Y-9406321D01*
X7810491Y-9506595D01*
X7810490Y-9506596D01*
X7750190Y-9596842D01*
X7673442Y-9673590D01*
X7628012Y-9703945D01*
X7583195Y-9733891D01*
X7507811Y-9765116D01*
X7486200Y-9776667D01*
X7467259Y-9792212D01*
X7451713Y-9811154D01*
X7440162Y-9832765D01*
X7433049Y-9856214D01*
X7430647Y-9880600D01*
X7433049Y-9904986D01*
X7440162Y-9928435D01*
X7451713Y-9950046D01*
X7467258Y-9968987D01*
X7486200Y-9984533D01*
X7507811Y-9996084D01*
X7583195Y-10027309D01*
X7628012Y-10057255D01*
X7673442Y-10087610D01*
X7750190Y-10164358D01*
X7750191Y-10164360D01*
X7810491Y-10254605D01*
X7852026Y-10354879D01*
X7873200Y-10461330D01*
X7873200Y-10569870D01*
X7852026Y-10676321D01*
X7810491Y-10776595D01*
X7810490Y-10776596D01*
X7750190Y-10866842D01*
X7673442Y-10943590D01*
X7628012Y-10973945D01*
X7583195Y-11003891D01*
X7507811Y-11035116D01*
X7486200Y-11046667D01*
X7467259Y-11062212D01*
X7451713Y-11081154D01*
X7440162Y-11102765D01*
X7433049Y-11126214D01*
X7430647Y-11150600D01*
X7433049Y-11174986D01*
X7440162Y-11198435D01*
X7451713Y-11220046D01*
X7467258Y-11238987D01*
X7486200Y-11254533D01*
X7507811Y-11266084D01*
X7583195Y-11297309D01*
X7583196Y-11297310D01*
X7673442Y-11357610D01*
X7750190Y-11434358D01*
X7750191Y-11434360D01*
X7810491Y-11524605D01*
X7852026Y-11624879D01*
X7873200Y-11731330D01*
X7873200Y-11839870D01*
X7852026Y-11946321D01*
X7810491Y-12046595D01*
X7802407Y-12058693D01*
X7750190Y-12136842D01*
X7673442Y-12213590D01*
X7631088Y-12241890D01*
X7583195Y-12273891D01*
X7507811Y-12305116D01*
X7486200Y-12316667D01*
X7467259Y-12332212D01*
X7451713Y-12351154D01*
X7440162Y-12372765D01*
X7433049Y-12396214D01*
X7430647Y-12420600D01*
X7433049Y-12444986D01*
X7440162Y-12468435D01*
X7451713Y-12490046D01*
X7467258Y-12508987D01*
X7486200Y-12524533D01*
X7507811Y-12536084D01*
X7583195Y-12567309D01*
X7583196Y-12567310D01*
X7673442Y-12627610D01*
X7750190Y-12704358D01*
X7750191Y-12704360D01*
X7810491Y-12794605D01*
X7852026Y-12894879D01*
X7873200Y-13001330D01*
X7873200Y-13109870D01*
X7852026Y-13216321D01*
X7810491Y-13316595D01*
X7810490Y-13316596D01*
X7750190Y-13406842D01*
X7673442Y-13483590D01*
X7628012Y-13513945D01*
X7583195Y-13543891D01*
X7507811Y-13575116D01*
X7486200Y-13586667D01*
X7467259Y-13602212D01*
X7451713Y-13621154D01*
X7440162Y-13642765D01*
X7433049Y-13666214D01*
X7430647Y-13690600D01*
X7433049Y-13714986D01*
X7440162Y-13738435D01*
X7451713Y-13760046D01*
X7467258Y-13778987D01*
X7486200Y-13794533D01*
X7507811Y-13806084D01*
X7583195Y-13837309D01*
X7583196Y-13837310D01*
X7673442Y-13897610D01*
X7750190Y-13974358D01*
X7750191Y-13974360D01*
X7810491Y-14064605D01*
X7852026Y-14164879D01*
X7873200Y-14271330D01*
X7873200Y-14379870D01*
X7852026Y-14486321D01*
X7810491Y-14586595D01*
X7787133Y-14621553D01*
X7750190Y-14676842D01*
X7673442Y-14753590D01*
X7628012Y-14783945D01*
X7583195Y-14813891D01*
X7507811Y-14845116D01*
X7486200Y-14856667D01*
X7467259Y-14872212D01*
X7451713Y-14891154D01*
X7440162Y-14912765D01*
X7433049Y-14936214D01*
X7430647Y-14960600D01*
X7433049Y-14984986D01*
X7440162Y-15008435D01*
X7451713Y-15030046D01*
X7467258Y-15048987D01*
X7486200Y-15064533D01*
X7507811Y-15076084D01*
X7583195Y-15107309D01*
X7583196Y-15107310D01*
X7673442Y-15167610D01*
X7750190Y-15244358D01*
X7750191Y-15244360D01*
X7810491Y-15334605D01*
X7852026Y-15434879D01*
X7873200Y-15541330D01*
X7873200Y-15649870D01*
X7852026Y-15756321D01*
X7810491Y-15856595D01*
X7810490Y-15856596D01*
X7750190Y-15946842D01*
X7673442Y-16023590D01*
X7628012Y-16053945D01*
X7583195Y-16083891D01*
X7507811Y-16115116D01*
X7486200Y-16126667D01*
X7467259Y-16142212D01*
X7451713Y-16161154D01*
X7440162Y-16182765D01*
X7433049Y-16206214D01*
X7430647Y-16230600D01*
X7433049Y-16254986D01*
X7440162Y-16278435D01*
X7451713Y-16300046D01*
X7467258Y-16318987D01*
X7486200Y-16334533D01*
X7507811Y-16346084D01*
X7583195Y-16377309D01*
X7583196Y-16377310D01*
X7673442Y-16437610D01*
X7750190Y-16514358D01*
X7750191Y-16514360D01*
X7810491Y-16604605D01*
X7852026Y-16704879D01*
X7873200Y-16811330D01*
X7873200Y-16919870D01*
X7852026Y-17026321D01*
X7810491Y-17126595D01*
X7810490Y-17126596D01*
X7750190Y-17216842D01*
X7673442Y-17293590D01*
X7642016Y-17314588D01*
X7580536Y-17355668D01*
X7561594Y-17371214D01*
X7546049Y-17390156D01*
X7534498Y-17411767D01*
X7527385Y-17435215D01*
X7524983Y-17459602D01*
X7527385Y-17483988D01*
X7534498Y-17507437D01*
X7546049Y-17529047D01*
X7561595Y-17547989D01*
X7580537Y-17563534D01*
X7602148Y-17575085D01*
X7625596Y-17582198D01*
X7649982Y-17584600D01*
X7873200Y-17584600D01*
X7873200Y-18686600D01*
X6771200Y-18686600D01*
X6771200Y-17584600D01*
X6994418Y-17584600D01*
X7018804Y-17582198D01*
X7042253Y-17575085D01*
X7063864Y-17563534D01*
X7082806Y-17547989D01*
X7098351Y-17529047D01*
X7109902Y-17507436D01*
X7117015Y-17483987D01*
X7119417Y-17459601D01*
X7117015Y-17435215D01*
X7109902Y-17411766D01*
X7098351Y-17390155D01*
X7082806Y-17371213D01*
X7063864Y-17355668D01*
X7002384Y-17314588D01*
X6970958Y-17293590D01*
X6894210Y-17216842D01*
X6833910Y-17126596D01*
X6833909Y-17126595D01*
X6792374Y-17026321D01*
X6771200Y-16919870D01*
X6771200Y-16811330D01*
X6792374Y-16704879D01*
X6833909Y-16604605D01*
X6894209Y-16514360D01*
X6894210Y-16514358D01*
X6970958Y-16437610D01*
X7061204Y-16377310D01*
X7061205Y-16377309D01*
X7136589Y-16346084D01*
X7158200Y-16334533D01*
X7177141Y-16318988D01*
X7192687Y-16300046D01*
X7204238Y-16278435D01*
X7211351Y-16254986D01*
X7213753Y-16230600D01*
X7211351Y-16206214D01*
X7204238Y-16182765D01*
X7192687Y-16161154D01*
X7177142Y-16142213D01*
X7158200Y-16126667D01*
X7136589Y-16115116D01*
X7061205Y-16083891D01*
X7016388Y-16053945D01*
X6970958Y-16023590D01*
X6894210Y-15946842D01*
X6833910Y-15856596D01*
X6833909Y-15856595D01*
X6792374Y-15756321D01*
X6771200Y-15649870D01*
X6771200Y-15541330D01*
X6792374Y-15434879D01*
X6833909Y-15334605D01*
X6894209Y-15244360D01*
X6894210Y-15244358D01*
X6970958Y-15167610D01*
X7061204Y-15107310D01*
X7061205Y-15107309D01*
X7136589Y-15076084D01*
X7158200Y-15064533D01*
X7177141Y-15048988D01*
X7192687Y-15030046D01*
X7204238Y-15008435D01*
X7211351Y-14984986D01*
X7213753Y-14960600D01*
X7211351Y-14936214D01*
X7204238Y-14912765D01*
X7192687Y-14891154D01*
X7177142Y-14872213D01*
X7158200Y-14856667D01*
X7136589Y-14845116D01*
X7061205Y-14813891D01*
X7016388Y-14783945D01*
X6970958Y-14753590D01*
X6894210Y-14676842D01*
X6857267Y-14621553D01*
X6833909Y-14586595D01*
X6792374Y-14486321D01*
X6771200Y-14379870D01*
X6771200Y-14271330D01*
X6792374Y-14164879D01*
X6833909Y-14064605D01*
X6894209Y-13974360D01*
X6894210Y-13974358D01*
X6970958Y-13897610D01*
X7061204Y-13837310D01*
X7061205Y-13837309D01*
X7136589Y-13806084D01*
X7158200Y-13794533D01*
X7177141Y-13778988D01*
X7192687Y-13760046D01*
X7204238Y-13738435D01*
X7211351Y-13714986D01*
X7213753Y-13690600D01*
X7211351Y-13666214D01*
X7204238Y-13642765D01*
X7192687Y-13621154D01*
X7177142Y-13602213D01*
X7158200Y-13586667D01*
X7136589Y-13575116D01*
X7061205Y-13543891D01*
X7016388Y-13513945D01*
X6970958Y-13483590D01*
X6894210Y-13406842D01*
X6833910Y-13316596D01*
X6833909Y-13316595D01*
X6792374Y-13216321D01*
X6771200Y-13109870D01*
X6771200Y-13001330D01*
X6792374Y-12894879D01*
X6833909Y-12794605D01*
X6894209Y-12704360D01*
X6894210Y-12704358D01*
X6970958Y-12627610D01*
X7061204Y-12567310D01*
X7061205Y-12567309D01*
X7136589Y-12536084D01*
X7158200Y-12524533D01*
X7177141Y-12508988D01*
X7192687Y-12490046D01*
X7204238Y-12468435D01*
X7211351Y-12444986D01*
X7213753Y-12420600D01*
X7211351Y-12396214D01*
X7204238Y-12372765D01*
X7192687Y-12351154D01*
X7177142Y-12332213D01*
X7158200Y-12316667D01*
X7136589Y-12305116D01*
X7061205Y-12273891D01*
X7013312Y-12241890D01*
X6970958Y-12213590D01*
X6894210Y-12136842D01*
X6841993Y-12058693D01*
X6833909Y-12046595D01*
X6792374Y-11946321D01*
X6771200Y-11839870D01*
X6771200Y-11731330D01*
X6792374Y-11624879D01*
X6833909Y-11524605D01*
X6894209Y-11434360D01*
X6894210Y-11434358D01*
X6970958Y-11357610D01*
X7061204Y-11297310D01*
X7061205Y-11297309D01*
X7136589Y-11266084D01*
X7158200Y-11254533D01*
X7177141Y-11238988D01*
X7192687Y-11220046D01*
X7204238Y-11198435D01*
X7211351Y-11174986D01*
X7213753Y-11150600D01*
X7211351Y-11126214D01*
X7204238Y-11102765D01*
X7192687Y-11081154D01*
X7177142Y-11062213D01*
X7158200Y-11046667D01*
X7136589Y-11035116D01*
X7061205Y-11003891D01*
X7016388Y-10973945D01*
X6970958Y-10943590D01*
X6894210Y-10866842D01*
X6833910Y-10776596D01*
X6833909Y-10776595D01*
X6792374Y-10676321D01*
X6771200Y-10569870D01*
X6771200Y-10461330D01*
X6792374Y-10354879D01*
X6833909Y-10254605D01*
X6894209Y-10164360D01*
X6894210Y-10164358D01*
X6970958Y-10087610D01*
X7016388Y-10057255D01*
X7061205Y-10027309D01*
X7136589Y-9996084D01*
X7158200Y-9984533D01*
X7177141Y-9968988D01*
X7192687Y-9950046D01*
X7204238Y-9928435D01*
X7211351Y-9904986D01*
X7213753Y-9880600D01*
X7211351Y-9856214D01*
X7204238Y-9832765D01*
X7192687Y-9811154D01*
X7177142Y-9792213D01*
X7158200Y-9776667D01*
X7136589Y-9765116D01*
X7061205Y-9733891D01*
X7016388Y-9703945D01*
X6970958Y-9673590D01*
X6894210Y-9596842D01*
X6833910Y-9506596D01*
X6833909Y-9506595D01*
X6792374Y-9406321D01*
X6771200Y-9299870D01*
X6771200Y-9191330D01*
X6792374Y-9084879D01*
X6833909Y-8984605D01*
X6894209Y-8894360D01*
X6894210Y-8894358D01*
X6970958Y-8817610D01*
X7061204Y-8757310D01*
X7061205Y-8757309D01*
X7161479Y-8715774D01*
X7267930Y-8694600D01*
X7376470Y-8694600D01*
X7482921Y-8715774D01*
G37*
G36*
X1061938Y-13931716D02*
G01*
X1082557Y-13937971D01*
X1101553Y-13948124D01*
X1118208Y-13961792D01*
X1131876Y-13978447D01*
X1142029Y-13997443D01*
X1148284Y-14018062D01*
X1151000Y-14045640D01*
X1151000Y-14554360D01*
X1148284Y-14581938D01*
X1142029Y-14602557D01*
X1131876Y-14621553D01*
X1118208Y-14638208D01*
X1101553Y-14651876D01*
X1082557Y-14662029D01*
X1061938Y-14668284D01*
X1034360Y-14671000D01*
X575640Y-14671000D01*
X548062Y-14668284D01*
X527443Y-14662029D01*
X508447Y-14651876D01*
X491792Y-14638208D01*
X478124Y-14621553D01*
X467971Y-14602557D01*
X461716Y-14581938D01*
X459000Y-14554360D01*
X459000Y-14045640D01*
X461716Y-14018062D01*
X467971Y-13997443D01*
X478124Y-13978447D01*
X491792Y-13961792D01*
X508447Y-13948124D01*
X527443Y-13937971D01*
X548062Y-13931716D01*
X575640Y-13929000D01*
X1034360Y-13929000D01*
X1061938Y-13931716D01*
G37*
G36*
X91938Y-13931716D02*
G01*
X112557Y-13937971D01*
X131553Y-13948124D01*
X148208Y-13961792D01*
X161876Y-13978447D01*
X172029Y-13997443D01*
X178284Y-14018062D01*
X181000Y-14045640D01*
X181000Y-14554360D01*
X178284Y-14581938D01*
X172029Y-14602557D01*
X161876Y-14621553D01*
X148208Y-14638208D01*
X131553Y-14651876D01*
X112557Y-14662029D01*
X91938Y-14668284D01*
X64360Y-14671000D01*
X-394360Y-14671000D01*
X-421938Y-14668284D01*
X-442557Y-14662029D01*
X-461553Y-14651876D01*
X-478208Y-14638208D01*
X-491876Y-14621553D01*
X-502029Y-14602557D01*
X-508284Y-14581938D01*
X-511000Y-14554360D01*
X-511000Y-14045640D01*
X-508284Y-14018062D01*
X-502029Y-13997443D01*
X-491876Y-13978447D01*
X-478208Y-13961792D01*
X-461553Y-13948124D01*
X-442557Y-13937971D01*
X-421938Y-13931716D01*
X-394360Y-13929000D01*
X64360Y-13929000D01*
X91938Y-13931716D01*
G37*
G36*
X1117091Y-12058085D02*
G01*
X1151069Y-12068393D01*
X1182390Y-12085134D01*
X1209839Y-12107661D01*
X1232366Y-12135110D01*
X1249107Y-12166431D01*
X1259415Y-12200409D01*
X1263500Y-12241890D01*
X1263500Y-12918110D01*
X1259415Y-12959591D01*
X1249107Y-12993569D01*
X1232366Y-13024890D01*
X1209839Y-13052339D01*
X1182390Y-13074866D01*
X1151069Y-13091607D01*
X1117091Y-13101915D01*
X1075610Y-13106000D01*
X474390Y-13106000D01*
X432909Y-13101915D01*
X398931Y-13091607D01*
X367610Y-13074866D01*
X340161Y-13052339D01*
X317634Y-13024890D01*
X300893Y-12993569D01*
X290585Y-12959591D01*
X286500Y-12918110D01*
X286500Y-12241890D01*
X290585Y-12200409D01*
X300893Y-12166431D01*
X317634Y-12135110D01*
X340161Y-12107661D01*
X367610Y-12085134D01*
X398931Y-12068393D01*
X432909Y-12058085D01*
X474390Y-12054000D01*
X1075610Y-12054000D01*
X1117091Y-12058085D01*
G37*
G36*
X-457909Y-12058085D02*
G01*
X-423931Y-12068393D01*
X-392610Y-12085134D01*
X-365161Y-12107661D01*
X-342634Y-12135110D01*
X-325893Y-12166431D01*
X-315585Y-12200409D01*
X-311500Y-12241890D01*
X-311500Y-12918110D01*
X-315585Y-12959591D01*
X-325893Y-12993569D01*
X-342634Y-13024890D01*
X-365161Y-13052339D01*
X-392610Y-13074866D01*
X-423931Y-13091607D01*
X-457909Y-13101915D01*
X-499390Y-13106000D01*
X-1100610Y-13106000D01*
X-1142091Y-13101915D01*
X-1176069Y-13091607D01*
X-1207390Y-13074866D01*
X-1234839Y-13052339D01*
X-1257366Y-13024890D01*
X-1274107Y-12993569D01*
X-1284415Y-12959591D01*
X-1288500Y-12918110D01*
X-1288500Y-12241890D01*
X-1284415Y-12200409D01*
X-1274107Y-12166431D01*
X-1257366Y-12135110D01*
X-1234839Y-12107661D01*
X-1207390Y-12085134D01*
X-1176069Y-12068393D01*
X-1142091Y-12058085D01*
X-1100610Y-12054000D01*
X-499390Y-12054000D01*
X-457909Y-12058085D01*
G37*
G36*
X1129591Y-10478085D02*
G01*
X1163569Y-10488393D01*
X1194890Y-10505134D01*
X1222339Y-10527661D01*
X1244866Y-10555110D01*
X1261607Y-10586431D01*
X1271915Y-10620409D01*
X1276000Y-10661890D01*
X1276000Y-11338110D01*
X1271915Y-11379591D01*
X1261607Y-11413569D01*
X1244866Y-11444890D01*
X1222339Y-11472339D01*
X1194890Y-11494866D01*
X1163569Y-11511607D01*
X1129591Y-11521915D01*
X1088110Y-11526000D01*
X486890Y-11526000D01*
X445409Y-11521915D01*
X411431Y-11511607D01*
X380110Y-11494866D01*
X352661Y-11472339D01*
X330134Y-11444890D01*
X313393Y-11413569D01*
X303085Y-11379591D01*
X299000Y-11338110D01*
X299000Y-10661890D01*
X303085Y-10620409D01*
X313393Y-10586431D01*
X330134Y-10555110D01*
X352661Y-10527661D01*
X380110Y-10505134D01*
X411431Y-10488393D01*
X445409Y-10478085D01*
X486890Y-10474000D01*
X1088110Y-10474000D01*
X1129591Y-10478085D01*
G37*
G36*
X-445409Y-10478085D02*
G01*
X-411431Y-10488393D01*
X-380110Y-10505134D01*
X-352661Y-10527661D01*
X-330134Y-10555110D01*
X-313393Y-10586431D01*
X-303085Y-10620409D01*
X-299000Y-10661890D01*
X-299000Y-11338110D01*
X-303085Y-11379591D01*
X-313393Y-11413569D01*
X-330134Y-11444890D01*
X-352661Y-11472339D01*
X-380110Y-11494866D01*
X-411431Y-11511607D01*
X-445409Y-11521915D01*
X-486890Y-11526000D01*
X-1088110Y-11526000D01*
X-1129591Y-11521915D01*
X-1163569Y-11511607D01*
X-1194890Y-11494866D01*
X-1222339Y-11472339D01*
X-1244866Y-11444890D01*
X-1261607Y-11413569D01*
X-1271915Y-11379591D01*
X-1276000Y-11338110D01*
X-1276000Y-10661890D01*
X-1271915Y-10620409D01*
X-1261607Y-10586431D01*
X-1244866Y-10555110D01*
X-1222339Y-10527661D01*
X-1194890Y-10505134D01*
X-1163569Y-10488393D01*
X-1129591Y-10478085D01*
X-1088110Y-10474000D01*
X-486890Y-10474000D01*
X-445409Y-10478085D01*
G37*
G36*
X971938Y-9431716D02*
G01*
X992557Y-9437971D01*
X1011553Y-9448124D01*
X1028208Y-9461792D01*
X1041876Y-9478447D01*
X1052029Y-9497443D01*
X1058284Y-9518062D01*
X1061000Y-9545640D01*
X1061000Y-10054360D01*
X1058284Y-10081938D01*
X1052029Y-10102557D01*
X1041876Y-10121553D01*
X1028208Y-10138208D01*
X1011553Y-10151876D01*
X992557Y-10162029D01*
X971938Y-10168284D01*
X944360Y-10171000D01*
X485640Y-10171000D01*
X458062Y-10168284D01*
X437443Y-10162029D01*
X418447Y-10151876D01*
X401792Y-10138208D01*
X388124Y-10121553D01*
X377971Y-10102557D01*
X371716Y-10081938D01*
X369000Y-10054360D01*
X369000Y-9545640D01*
X371716Y-9518062D01*
X377971Y-9497443D01*
X388124Y-9478447D01*
X401792Y-9461792D01*
X418447Y-9448124D01*
X437443Y-9437971D01*
X458062Y-9431716D01*
X485640Y-9429000D01*
X944360Y-9429000D01*
X971938Y-9431716D01*
G37*
G36*
X1938Y-9431716D02*
G01*
X22557Y-9437971D01*
X41553Y-9448124D01*
X58208Y-9461792D01*
X71876Y-9478447D01*
X82029Y-9497443D01*
X88284Y-9518062D01*
X91000Y-9545640D01*
X91000Y-10054360D01*
X88284Y-10081938D01*
X82029Y-10102557D01*
X71876Y-10121553D01*
X58208Y-10138208D01*
X41553Y-10151876D01*
X22557Y-10162029D01*
X1938Y-10168284D01*
X-25640Y-10171000D01*
X-484360Y-10171000D01*
X-511938Y-10168284D01*
X-532557Y-10162029D01*
X-551553Y-10151876D01*
X-568208Y-10138208D01*
X-581876Y-10121553D01*
X-592029Y-10102557D01*
X-598284Y-10081938D01*
X-601000Y-10054360D01*
X-601000Y-9545640D01*
X-598284Y-9518062D01*
X-592029Y-9497443D01*
X-581876Y-9478447D01*
X-568208Y-9461792D01*
X-551553Y-9448124D01*
X-532557Y-9437971D01*
X-511938Y-9431716D01*
X-484360Y-9429000D01*
X-25640Y-9429000D01*
X1938Y-9431716D01*
G37*
G36*
X-13719813Y-4748996D02*
G01*
X-13483047Y-4847068D01*
X-13483045Y-4847069D01*
X-13269961Y-4989447D01*
X-13088747Y-5170661D01*
X-12946368Y-5383747D01*
X-12848296Y-5620513D01*
X-12798300Y-5871861D01*
X-12798300Y-6128139D01*
X-12848296Y-6379487D01*
X-12946368Y-6616253D01*
X-12946369Y-6616255D01*
X-13088747Y-6829339D01*
X-13269961Y-7010553D01*
X-13483045Y-7152931D01*
X-13483046Y-7152932D01*
X-13483047Y-7152932D01*
X-13719813Y-7251004D01*
X-13971161Y-7301000D01*
X-14227439Y-7301000D01*
X-14478787Y-7251004D01*
X-14715553Y-7152932D01*
X-14715554Y-7152932D01*
X-14715555Y-7152931D01*
X-14928639Y-7010553D01*
X-15109853Y-6829339D01*
X-15252231Y-6616255D01*
X-15252232Y-6616253D01*
X-15350304Y-6379487D01*
X-15400300Y-6128139D01*
X-15400300Y-5871861D01*
X-15350304Y-5620513D01*
X-15252232Y-5383747D01*
X-15109853Y-5170661D01*
X-14928639Y-4989447D01*
X-14715555Y-4847069D01*
X-14715553Y-4847068D01*
X-14478787Y-4748996D01*
X-14227439Y-4699000D01*
X-13971161Y-4699000D01*
X-13719813Y-4748996D01*
G37*
G36*
X14480187Y-4748996D02*
G01*
X14716953Y-4847068D01*
X14716955Y-4847069D01*
X14930039Y-4989447D01*
X15111253Y-5170661D01*
X15253632Y-5383747D01*
X15351704Y-5620513D01*
X15401700Y-5871861D01*
X15401700Y-6128139D01*
X15351704Y-6379487D01*
X15253632Y-6616253D01*
X15253631Y-6616255D01*
X15111253Y-6829339D01*
X14930039Y-7010553D01*
X14716955Y-7152931D01*
X14716954Y-7152932D01*
X14716953Y-7152932D01*
X14480187Y-7251004D01*
X14228839Y-7301000D01*
X13972561Y-7301000D01*
X13721213Y-7251004D01*
X13484447Y-7152932D01*
X13484446Y-7152932D01*
X13484445Y-7152931D01*
X13271361Y-7010553D01*
X13090147Y-6829339D01*
X12947769Y-6616255D01*
X12947768Y-6616253D01*
X12849696Y-6379487D01*
X12799700Y-6128139D01*
X12799700Y-5871861D01*
X12849696Y-5620513D01*
X12947768Y-5383747D01*
X13090147Y-5170661D01*
X13271361Y-4989447D01*
X13484445Y-4847069D01*
X13484447Y-4847068D01*
X13721213Y-4748996D01*
X13972561Y-4699000D01*
X14228839Y-4699000D01*
X14480187Y-4748996D01*
G37*
G36*
X-13719813Y7251004D02*
G01*
X-13483047Y7152932D01*
X-13483045Y7152931D01*
X-13276902Y7015191D01*
X-13269961Y7010553D01*
X-13088747Y6829339D01*
X-12946368Y6616253D01*
X-12848296Y6379487D01*
X-12798300Y6128139D01*
X-12798300Y5871861D01*
X-12848296Y5620513D01*
X-12946368Y5383747D01*
X-12946369Y5383745D01*
X-13088747Y5170661D01*
X-13269961Y4989447D01*
X-13483045Y4847069D01*
X-13483046Y4847068D01*
X-13483047Y4847068D01*
X-13719813Y4748996D01*
X-13971161Y4699000D01*
X-14227439Y4699000D01*
X-14478787Y4748996D01*
X-14715553Y4847068D01*
X-14715554Y4847068D01*
X-14715555Y4847069D01*
X-14928639Y4989447D01*
X-15109853Y5170661D01*
X-15252231Y5383745D01*
X-15252232Y5383747D01*
X-15350304Y5620513D01*
X-15400300Y5871861D01*
X-15400300Y6128139D01*
X-15350304Y6379487D01*
X-15252232Y6616253D01*
X-15109853Y6829339D01*
X-14928639Y7010553D01*
X-14921698Y7015191D01*
X-14715555Y7152931D01*
X-14715553Y7152932D01*
X-14478787Y7251004D01*
X-14227439Y7301000D01*
X-13971161Y7301000D01*
X-13719813Y7251004D01*
G37*
G36*
X14480187Y7251004D02*
G01*
X14716953Y7152932D01*
X14716955Y7152931D01*
X14923098Y7015191D01*
X14930039Y7010553D01*
X15111253Y6829339D01*
X15253632Y6616253D01*
X15351704Y6379487D01*
X15401700Y6128139D01*
X15401700Y5871861D01*
X15351704Y5620513D01*
X15253632Y5383747D01*
X15253631Y5383745D01*
X15111253Y5170661D01*
X14930039Y4989447D01*
X14716955Y4847069D01*
X14716954Y4847068D01*
X14716953Y4847068D01*
X14480187Y4748996D01*
X14228839Y4699000D01*
X13972561Y4699000D01*
X13721213Y4748996D01*
X13484447Y4847068D01*
X13484446Y4847068D01*
X13484445Y4847069D01*
X13271361Y4989447D01*
X13090147Y5170661D01*
X12947769Y5383745D01*
X12947768Y5383747D01*
X12849696Y5620513D01*
X12799700Y5871861D01*
X12799700Y6128139D01*
X12849696Y6379487D01*
X12947768Y6616253D01*
X13090147Y6829339D01*
X13271361Y7010553D01*
X13278302Y7015191D01*
X13484445Y7152931D01*
X13484447Y7152932D01*
X13721213Y7251004D01*
X13972561Y7301000D01*
X14228839Y7301000D01*
X14480187Y7251004D01*
G37*
G36*
X8100458Y7658084D02*
G01*
X8121077Y7651829D01*
X8140073Y7641676D01*
X8156728Y7628008D01*
X8170396Y7611353D01*
X8180549Y7592357D01*
X8186804Y7571738D01*
X8189520Y7544160D01*
X8189520Y7035440D01*
X8186804Y7007862D01*
X8180549Y6987243D01*
X8170396Y6968247D01*
X8156728Y6951592D01*
X8140073Y6937924D01*
X8121077Y6927771D01*
X8100458Y6921516D01*
X8072880Y6918800D01*
X7614160Y6918800D01*
X7586582Y6921516D01*
X7565963Y6927771D01*
X7546967Y6937924D01*
X7530312Y6951592D01*
X7516644Y6968247D01*
X7506491Y6987243D01*
X7500236Y7007862D01*
X7497520Y7035440D01*
X7497520Y7544160D01*
X7500236Y7571738D01*
X7506491Y7592357D01*
X7516644Y7611353D01*
X7530312Y7628008D01*
X7546967Y7641676D01*
X7565963Y7651829D01*
X7586582Y7658084D01*
X7614160Y7660800D01*
X8072880Y7660800D01*
X8100458Y7658084D01*
G37*
G36*
X7130458Y7658084D02*
G01*
X7151077Y7651829D01*
X7170073Y7641676D01*
X7186728Y7628008D01*
X7200396Y7611353D01*
X7210549Y7592357D01*
X7216804Y7571738D01*
X7219520Y7544160D01*
X7219520Y7035440D01*
X7216804Y7007862D01*
X7210549Y6987243D01*
X7200396Y6968247D01*
X7186728Y6951592D01*
X7170073Y6937924D01*
X7151077Y6927771D01*
X7130458Y6921516D01*
X7102880Y6918800D01*
X6644160Y6918800D01*
X6616582Y6921516D01*
X6595963Y6927771D01*
X6576967Y6937924D01*
X6560312Y6951592D01*
X6546644Y6968247D01*
X6536491Y6987243D01*
X6530236Y7007862D01*
X6527520Y7035440D01*
X6527520Y7544160D01*
X6530236Y7571738D01*
X6536491Y7592357D01*
X6546644Y7611353D01*
X6560312Y7628008D01*
X6576967Y7641676D01*
X6595963Y7651829D01*
X6616582Y7658084D01*
X6644160Y7660800D01*
X7102880Y7660800D01*
X7130458Y7658084D01*
G37*
G36*
X-5844142Y7703804D02*
G01*
X-5823523Y7697549D01*
X-5804527Y7687396D01*
X-5787872Y7673728D01*
X-5774204Y7657073D01*
X-5764051Y7638077D01*
X-5757796Y7617458D01*
X-5755080Y7589880D01*
X-5755080Y7081160D01*
X-5757796Y7053582D01*
X-5764051Y7032963D01*
X-5774204Y7013967D01*
X-5787872Y6997312D01*
X-5804527Y6983644D01*
X-5823523Y6973491D01*
X-5844142Y6967236D01*
X-5871720Y6964520D01*
X-6330440Y6964520D01*
X-6358018Y6967236D01*
X-6378637Y6973491D01*
X-6397633Y6983644D01*
X-6414288Y6997312D01*
X-6427956Y7013967D01*
X-6438109Y7032963D01*
X-6444364Y7053582D01*
X-6447080Y7081160D01*
X-6447080Y7589880D01*
X-6444364Y7617458D01*
X-6438109Y7638077D01*
X-6427956Y7657073D01*
X-6414288Y7673728D01*
X-6397633Y7687396D01*
X-6378637Y7697549D01*
X-6358018Y7703804D01*
X-6330440Y7706520D01*
X-5871720Y7706520D01*
X-5844142Y7703804D01*
G37*
G36*
X-6814142Y7703804D02*
G01*
X-6793523Y7697549D01*
X-6774527Y7687396D01*
X-6757872Y7673728D01*
X-6744204Y7657073D01*
X-6734051Y7638077D01*
X-6727796Y7617458D01*
X-6725080Y7589880D01*
X-6725080Y7081160D01*
X-6727796Y7053582D01*
X-6734051Y7032963D01*
X-6744204Y7013967D01*
X-6757872Y6997312D01*
X-6774527Y6983644D01*
X-6793523Y6973491D01*
X-6814142Y6967236D01*
X-6841720Y6964520D01*
X-7300440Y6964520D01*
X-7328018Y6967236D01*
X-7348637Y6973491D01*
X-7367633Y6983644D01*
X-7384288Y6997312D01*
X-7397956Y7013967D01*
X-7408109Y7032963D01*
X-7414364Y7053582D01*
X-7417080Y7081160D01*
X-7417080Y7589880D01*
X-7414364Y7617458D01*
X-7408109Y7638077D01*
X-7397956Y7657073D01*
X-7384288Y7673728D01*
X-7367633Y7687396D01*
X-7348637Y7697549D01*
X-7328018Y7703804D01*
X-7300440Y7706520D01*
X-6841720Y7706520D01*
X-6814142Y7703804D01*
G37*
G36*
X8201000Y8149000D02*
G01*
X7549000Y8149000D01*
X7549000Y9851000D01*
X8201000Y9851000D01*
X8201000Y8149000D01*
G37*
G36*
X-7549000Y8149000D02*
G01*
X-8201000Y8149000D01*
X-8201000Y9851000D01*
X-7549000Y9851000D01*
X-7549000Y8149000D01*
G37*
G36*
X-5799000Y8149000D02*
G01*
X-6451000Y8149000D01*
X-6451000Y9851000D01*
X-5799000Y9851000D01*
X-5799000Y8149000D01*
G37*
G36*
X6451000Y8149000D02*
G01*
X5799000Y8149000D01*
X5799000Y9851000D01*
X6451000Y9851000D01*
X6451000Y8149000D01*
G37*
G36*
X-2774300Y17780000D02*
G01*
X-15474300Y17780000D01*
X-15474300Y26035000D01*
X-2774300Y26035000D01*
X-2774300Y17780000D01*
G37*
G36*
X15386700Y17780000D02*
G01*
X2686700Y17780000D01*
X2686700Y26035000D01*
X15386700Y26035000D01*
X15386700Y17780000D01*
G37*
G36*
X379487Y21251004D02*
G01*
X616253Y21152932D01*
X616255Y21152931D01*
X829339Y21010553D01*
X1010553Y20829339D01*
X1152932Y20616253D01*
X1251004Y20379487D01*
X1301000Y20128139D01*
X1301000Y19871861D01*
X1251004Y19620513D01*
X1152932Y19383747D01*
X1152931Y19383745D01*
X1010553Y19170661D01*
X829339Y18989447D01*
X616255Y18847069D01*
X616254Y18847068D01*
X616253Y18847068D01*
X379487Y18748996D01*
X128139Y18699000D01*
X-128139Y18699000D01*
X-379487Y18748996D01*
X-616253Y18847068D01*
X-616254Y18847068D01*
X-616255Y18847069D01*
X-829339Y18989447D01*
X-1010553Y19170661D01*
X-1152931Y19383745D01*
X-1152932Y19383747D01*
X-1251004Y19620513D01*
X-1301000Y19871861D01*
X-1301000Y20128139D01*
X-1251004Y20379487D01*
X-1152932Y20616253D01*
X-1010553Y20829339D01*
X-829339Y21010553D01*
X-616255Y21152931D01*
X-616253Y21152932D01*
X-379487Y21251004D01*
X-128139Y21301000D01*
X128139Y21301000D01*
X379487Y21251004D01*
G37*
M02*
