G04 #@! TF.GenerationSoftware,KiCad,Pcbnew,5.1.5-52549c5~84~ubuntu18.04.1*
G04 #@! TF.CreationDate,2019-12-19T20:38:57-05:00*
G04 #@! TF.ProjectId,SwarmBot,53776172-6d42-46f7-942e-6b696361645f,rev?*
G04 #@! TF.SameCoordinates,Original*
G04 #@! TF.FileFunction,Paste,Top*
G04 #@! TF.FilePolarity,Positive*
%FSLAX46Y46*%
G04 Gerber Fmt 4.6, Leading zero omitted, Abs format (unit mm)*
G04 Created by KiCad (PCBNEW 5.1.5-52549c5~84~ubuntu18.04.1) date 2019-12-19 20:38:57*
%MOMM*%
%LPD*%
G04 APERTURE LIST*
%ADD10R,1.000000X2.510000*%
%ADD11C,0.100000*%
%ADD12R,0.650000X0.400000*%
%ADD13R,1.000000X1.900000*%
%ADD14R,1.060000X0.650000*%
G04 APERTURE END LIST*
D10*
X9570000Y10555000D03*
X7030000Y7245000D03*
D11*
G36*
X14366226Y-15416861D02*
G01*
X14372293Y-15417761D01*
X14378243Y-15419251D01*
X14384018Y-15421318D01*
X14389562Y-15423940D01*
X14394823Y-15427093D01*
X14399750Y-15430747D01*
X14404294Y-15434866D01*
X14408413Y-15439410D01*
X14412067Y-15444337D01*
X14415220Y-15449598D01*
X14417842Y-15455142D01*
X14419909Y-15460917D01*
X14421399Y-15466867D01*
X14422299Y-15472934D01*
X14422600Y-15479060D01*
X14422600Y-15604060D01*
X14422299Y-15610186D01*
X14421399Y-15616253D01*
X14419909Y-15622203D01*
X14417842Y-15627978D01*
X14415220Y-15633522D01*
X14412067Y-15638783D01*
X14408413Y-15643710D01*
X14404294Y-15648254D01*
X14399750Y-15652373D01*
X14394823Y-15656027D01*
X14389562Y-15659180D01*
X14384018Y-15661802D01*
X14378243Y-15663869D01*
X14372293Y-15665359D01*
X14366226Y-15666259D01*
X14360100Y-15666560D01*
X13710100Y-15666560D01*
X13703974Y-15666259D01*
X13697907Y-15665359D01*
X13691957Y-15663869D01*
X13686182Y-15661802D01*
X13680638Y-15659180D01*
X13675377Y-15656027D01*
X13670450Y-15652373D01*
X13665906Y-15648254D01*
X13661787Y-15643710D01*
X13658133Y-15638783D01*
X13654980Y-15633522D01*
X13652358Y-15627978D01*
X13650291Y-15622203D01*
X13648801Y-15616253D01*
X13647901Y-15610186D01*
X13647600Y-15604060D01*
X13647600Y-15479060D01*
X13647901Y-15472934D01*
X13648801Y-15466867D01*
X13650291Y-15460917D01*
X13652358Y-15455142D01*
X13654980Y-15449598D01*
X13658133Y-15444337D01*
X13661787Y-15439410D01*
X13665906Y-15434866D01*
X13670450Y-15430747D01*
X13675377Y-15427093D01*
X13680638Y-15423940D01*
X13686182Y-15421318D01*
X13691957Y-15419251D01*
X13697907Y-15417761D01*
X13703974Y-15416861D01*
X13710100Y-15416560D01*
X14360100Y-15416560D01*
X14366226Y-15416861D01*
G37*
G36*
X14366226Y-15916861D02*
G01*
X14372293Y-15917761D01*
X14378243Y-15919251D01*
X14384018Y-15921318D01*
X14389562Y-15923940D01*
X14394823Y-15927093D01*
X14399750Y-15930747D01*
X14404294Y-15934866D01*
X14408413Y-15939410D01*
X14412067Y-15944337D01*
X14415220Y-15949598D01*
X14417842Y-15955142D01*
X14419909Y-15960917D01*
X14421399Y-15966867D01*
X14422299Y-15972934D01*
X14422600Y-15979060D01*
X14422600Y-16104060D01*
X14422299Y-16110186D01*
X14421399Y-16116253D01*
X14419909Y-16122203D01*
X14417842Y-16127978D01*
X14415220Y-16133522D01*
X14412067Y-16138783D01*
X14408413Y-16143710D01*
X14404294Y-16148254D01*
X14399750Y-16152373D01*
X14394823Y-16156027D01*
X14389562Y-16159180D01*
X14384018Y-16161802D01*
X14378243Y-16163869D01*
X14372293Y-16165359D01*
X14366226Y-16166259D01*
X14360100Y-16166560D01*
X13710100Y-16166560D01*
X13703974Y-16166259D01*
X13697907Y-16165359D01*
X13691957Y-16163869D01*
X13686182Y-16161802D01*
X13680638Y-16159180D01*
X13675377Y-16156027D01*
X13670450Y-16152373D01*
X13665906Y-16148254D01*
X13661787Y-16143710D01*
X13658133Y-16138783D01*
X13654980Y-16133522D01*
X13652358Y-16127978D01*
X13650291Y-16122203D01*
X13648801Y-16116253D01*
X13647901Y-16110186D01*
X13647600Y-16104060D01*
X13647600Y-15979060D01*
X13647901Y-15972934D01*
X13648801Y-15966867D01*
X13650291Y-15960917D01*
X13652358Y-15955142D01*
X13654980Y-15949598D01*
X13658133Y-15944337D01*
X13661787Y-15939410D01*
X13665906Y-15934866D01*
X13670450Y-15930747D01*
X13675377Y-15927093D01*
X13680638Y-15923940D01*
X13686182Y-15921318D01*
X13691957Y-15919251D01*
X13697907Y-15917761D01*
X13703974Y-15916861D01*
X13710100Y-15916560D01*
X14360100Y-15916560D01*
X14366226Y-15916861D01*
G37*
G36*
X14366226Y-16416861D02*
G01*
X14372293Y-16417761D01*
X14378243Y-16419251D01*
X14384018Y-16421318D01*
X14389562Y-16423940D01*
X14394823Y-16427093D01*
X14399750Y-16430747D01*
X14404294Y-16434866D01*
X14408413Y-16439410D01*
X14412067Y-16444337D01*
X14415220Y-16449598D01*
X14417842Y-16455142D01*
X14419909Y-16460917D01*
X14421399Y-16466867D01*
X14422299Y-16472934D01*
X14422600Y-16479060D01*
X14422600Y-16604060D01*
X14422299Y-16610186D01*
X14421399Y-16616253D01*
X14419909Y-16622203D01*
X14417842Y-16627978D01*
X14415220Y-16633522D01*
X14412067Y-16638783D01*
X14408413Y-16643710D01*
X14404294Y-16648254D01*
X14399750Y-16652373D01*
X14394823Y-16656027D01*
X14389562Y-16659180D01*
X14384018Y-16661802D01*
X14378243Y-16663869D01*
X14372293Y-16665359D01*
X14366226Y-16666259D01*
X14360100Y-16666560D01*
X13710100Y-16666560D01*
X13703974Y-16666259D01*
X13697907Y-16665359D01*
X13691957Y-16663869D01*
X13686182Y-16661802D01*
X13680638Y-16659180D01*
X13675377Y-16656027D01*
X13670450Y-16652373D01*
X13665906Y-16648254D01*
X13661787Y-16643710D01*
X13658133Y-16638783D01*
X13654980Y-16633522D01*
X13652358Y-16627978D01*
X13650291Y-16622203D01*
X13648801Y-16616253D01*
X13647901Y-16610186D01*
X13647600Y-16604060D01*
X13647600Y-16479060D01*
X13647901Y-16472934D01*
X13648801Y-16466867D01*
X13650291Y-16460917D01*
X13652358Y-16455142D01*
X13654980Y-16449598D01*
X13658133Y-16444337D01*
X13661787Y-16439410D01*
X13665906Y-16434866D01*
X13670450Y-16430747D01*
X13675377Y-16427093D01*
X13680638Y-16423940D01*
X13686182Y-16421318D01*
X13691957Y-16419251D01*
X13697907Y-16417761D01*
X13703974Y-16416861D01*
X13710100Y-16416560D01*
X14360100Y-16416560D01*
X14366226Y-16416861D01*
G37*
G36*
X14366226Y-16916861D02*
G01*
X14372293Y-16917761D01*
X14378243Y-16919251D01*
X14384018Y-16921318D01*
X14389562Y-16923940D01*
X14394823Y-16927093D01*
X14399750Y-16930747D01*
X14404294Y-16934866D01*
X14408413Y-16939410D01*
X14412067Y-16944337D01*
X14415220Y-16949598D01*
X14417842Y-16955142D01*
X14419909Y-16960917D01*
X14421399Y-16966867D01*
X14422299Y-16972934D01*
X14422600Y-16979060D01*
X14422600Y-17104060D01*
X14422299Y-17110186D01*
X14421399Y-17116253D01*
X14419909Y-17122203D01*
X14417842Y-17127978D01*
X14415220Y-17133522D01*
X14412067Y-17138783D01*
X14408413Y-17143710D01*
X14404294Y-17148254D01*
X14399750Y-17152373D01*
X14394823Y-17156027D01*
X14389562Y-17159180D01*
X14384018Y-17161802D01*
X14378243Y-17163869D01*
X14372293Y-17165359D01*
X14366226Y-17166259D01*
X14360100Y-17166560D01*
X13710100Y-17166560D01*
X13703974Y-17166259D01*
X13697907Y-17165359D01*
X13691957Y-17163869D01*
X13686182Y-17161802D01*
X13680638Y-17159180D01*
X13675377Y-17156027D01*
X13670450Y-17152373D01*
X13665906Y-17148254D01*
X13661787Y-17143710D01*
X13658133Y-17138783D01*
X13654980Y-17133522D01*
X13652358Y-17127978D01*
X13650291Y-17122203D01*
X13648801Y-17116253D01*
X13647901Y-17110186D01*
X13647600Y-17104060D01*
X13647600Y-16979060D01*
X13647901Y-16972934D01*
X13648801Y-16966867D01*
X13650291Y-16960917D01*
X13652358Y-16955142D01*
X13654980Y-16949598D01*
X13658133Y-16944337D01*
X13661787Y-16939410D01*
X13665906Y-16934866D01*
X13670450Y-16930747D01*
X13675377Y-16927093D01*
X13680638Y-16923940D01*
X13686182Y-16921318D01*
X13691957Y-16919251D01*
X13697907Y-16917761D01*
X13703974Y-16916861D01*
X13710100Y-16916560D01*
X14360100Y-16916560D01*
X14366226Y-16916861D01*
G37*
G36*
X13366226Y-17391861D02*
G01*
X13372293Y-17392761D01*
X13378243Y-17394251D01*
X13384018Y-17396318D01*
X13389562Y-17398940D01*
X13394823Y-17402093D01*
X13399750Y-17405747D01*
X13404294Y-17409866D01*
X13408413Y-17414410D01*
X13412067Y-17419337D01*
X13415220Y-17424598D01*
X13417842Y-17430142D01*
X13419909Y-17435917D01*
X13421399Y-17441867D01*
X13422299Y-17447934D01*
X13422600Y-17454060D01*
X13422600Y-18104060D01*
X13422299Y-18110186D01*
X13421399Y-18116253D01*
X13419909Y-18122203D01*
X13417842Y-18127978D01*
X13415220Y-18133522D01*
X13412067Y-18138783D01*
X13408413Y-18143710D01*
X13404294Y-18148254D01*
X13399750Y-18152373D01*
X13394823Y-18156027D01*
X13389562Y-18159180D01*
X13384018Y-18161802D01*
X13378243Y-18163869D01*
X13372293Y-18165359D01*
X13366226Y-18166259D01*
X13360100Y-18166560D01*
X13235100Y-18166560D01*
X13228974Y-18166259D01*
X13222907Y-18165359D01*
X13216957Y-18163869D01*
X13211182Y-18161802D01*
X13205638Y-18159180D01*
X13200377Y-18156027D01*
X13195450Y-18152373D01*
X13190906Y-18148254D01*
X13186787Y-18143710D01*
X13183133Y-18138783D01*
X13179980Y-18133522D01*
X13177358Y-18127978D01*
X13175291Y-18122203D01*
X13173801Y-18116253D01*
X13172901Y-18110186D01*
X13172600Y-18104060D01*
X13172600Y-17454060D01*
X13172901Y-17447934D01*
X13173801Y-17441867D01*
X13175291Y-17435917D01*
X13177358Y-17430142D01*
X13179980Y-17424598D01*
X13183133Y-17419337D01*
X13186787Y-17414410D01*
X13190906Y-17409866D01*
X13195450Y-17405747D01*
X13200377Y-17402093D01*
X13205638Y-17398940D01*
X13211182Y-17396318D01*
X13216957Y-17394251D01*
X13222907Y-17392761D01*
X13228974Y-17391861D01*
X13235100Y-17391560D01*
X13360100Y-17391560D01*
X13366226Y-17391861D01*
G37*
G36*
X12866226Y-17391861D02*
G01*
X12872293Y-17392761D01*
X12878243Y-17394251D01*
X12884018Y-17396318D01*
X12889562Y-17398940D01*
X12894823Y-17402093D01*
X12899750Y-17405747D01*
X12904294Y-17409866D01*
X12908413Y-17414410D01*
X12912067Y-17419337D01*
X12915220Y-17424598D01*
X12917842Y-17430142D01*
X12919909Y-17435917D01*
X12921399Y-17441867D01*
X12922299Y-17447934D01*
X12922600Y-17454060D01*
X12922600Y-18104060D01*
X12922299Y-18110186D01*
X12921399Y-18116253D01*
X12919909Y-18122203D01*
X12917842Y-18127978D01*
X12915220Y-18133522D01*
X12912067Y-18138783D01*
X12908413Y-18143710D01*
X12904294Y-18148254D01*
X12899750Y-18152373D01*
X12894823Y-18156027D01*
X12889562Y-18159180D01*
X12884018Y-18161802D01*
X12878243Y-18163869D01*
X12872293Y-18165359D01*
X12866226Y-18166259D01*
X12860100Y-18166560D01*
X12735100Y-18166560D01*
X12728974Y-18166259D01*
X12722907Y-18165359D01*
X12716957Y-18163869D01*
X12711182Y-18161802D01*
X12705638Y-18159180D01*
X12700377Y-18156027D01*
X12695450Y-18152373D01*
X12690906Y-18148254D01*
X12686787Y-18143710D01*
X12683133Y-18138783D01*
X12679980Y-18133522D01*
X12677358Y-18127978D01*
X12675291Y-18122203D01*
X12673801Y-18116253D01*
X12672901Y-18110186D01*
X12672600Y-18104060D01*
X12672600Y-17454060D01*
X12672901Y-17447934D01*
X12673801Y-17441867D01*
X12675291Y-17435917D01*
X12677358Y-17430142D01*
X12679980Y-17424598D01*
X12683133Y-17419337D01*
X12686787Y-17414410D01*
X12690906Y-17409866D01*
X12695450Y-17405747D01*
X12700377Y-17402093D01*
X12705638Y-17398940D01*
X12711182Y-17396318D01*
X12716957Y-17394251D01*
X12722907Y-17392761D01*
X12728974Y-17391861D01*
X12735100Y-17391560D01*
X12860100Y-17391560D01*
X12866226Y-17391861D01*
G37*
G36*
X12366226Y-17391861D02*
G01*
X12372293Y-17392761D01*
X12378243Y-17394251D01*
X12384018Y-17396318D01*
X12389562Y-17398940D01*
X12394823Y-17402093D01*
X12399750Y-17405747D01*
X12404294Y-17409866D01*
X12408413Y-17414410D01*
X12412067Y-17419337D01*
X12415220Y-17424598D01*
X12417842Y-17430142D01*
X12419909Y-17435917D01*
X12421399Y-17441867D01*
X12422299Y-17447934D01*
X12422600Y-17454060D01*
X12422600Y-18104060D01*
X12422299Y-18110186D01*
X12421399Y-18116253D01*
X12419909Y-18122203D01*
X12417842Y-18127978D01*
X12415220Y-18133522D01*
X12412067Y-18138783D01*
X12408413Y-18143710D01*
X12404294Y-18148254D01*
X12399750Y-18152373D01*
X12394823Y-18156027D01*
X12389562Y-18159180D01*
X12384018Y-18161802D01*
X12378243Y-18163869D01*
X12372293Y-18165359D01*
X12366226Y-18166259D01*
X12360100Y-18166560D01*
X12235100Y-18166560D01*
X12228974Y-18166259D01*
X12222907Y-18165359D01*
X12216957Y-18163869D01*
X12211182Y-18161802D01*
X12205638Y-18159180D01*
X12200377Y-18156027D01*
X12195450Y-18152373D01*
X12190906Y-18148254D01*
X12186787Y-18143710D01*
X12183133Y-18138783D01*
X12179980Y-18133522D01*
X12177358Y-18127978D01*
X12175291Y-18122203D01*
X12173801Y-18116253D01*
X12172901Y-18110186D01*
X12172600Y-18104060D01*
X12172600Y-17454060D01*
X12172901Y-17447934D01*
X12173801Y-17441867D01*
X12175291Y-17435917D01*
X12177358Y-17430142D01*
X12179980Y-17424598D01*
X12183133Y-17419337D01*
X12186787Y-17414410D01*
X12190906Y-17409866D01*
X12195450Y-17405747D01*
X12200377Y-17402093D01*
X12205638Y-17398940D01*
X12211182Y-17396318D01*
X12216957Y-17394251D01*
X12222907Y-17392761D01*
X12228974Y-17391861D01*
X12235100Y-17391560D01*
X12360100Y-17391560D01*
X12366226Y-17391861D01*
G37*
G36*
X11866226Y-17391861D02*
G01*
X11872293Y-17392761D01*
X11878243Y-17394251D01*
X11884018Y-17396318D01*
X11889562Y-17398940D01*
X11894823Y-17402093D01*
X11899750Y-17405747D01*
X11904294Y-17409866D01*
X11908413Y-17414410D01*
X11912067Y-17419337D01*
X11915220Y-17424598D01*
X11917842Y-17430142D01*
X11919909Y-17435917D01*
X11921399Y-17441867D01*
X11922299Y-17447934D01*
X11922600Y-17454060D01*
X11922600Y-18104060D01*
X11922299Y-18110186D01*
X11921399Y-18116253D01*
X11919909Y-18122203D01*
X11917842Y-18127978D01*
X11915220Y-18133522D01*
X11912067Y-18138783D01*
X11908413Y-18143710D01*
X11904294Y-18148254D01*
X11899750Y-18152373D01*
X11894823Y-18156027D01*
X11889562Y-18159180D01*
X11884018Y-18161802D01*
X11878243Y-18163869D01*
X11872293Y-18165359D01*
X11866226Y-18166259D01*
X11860100Y-18166560D01*
X11735100Y-18166560D01*
X11728974Y-18166259D01*
X11722907Y-18165359D01*
X11716957Y-18163869D01*
X11711182Y-18161802D01*
X11705638Y-18159180D01*
X11700377Y-18156027D01*
X11695450Y-18152373D01*
X11690906Y-18148254D01*
X11686787Y-18143710D01*
X11683133Y-18138783D01*
X11679980Y-18133522D01*
X11677358Y-18127978D01*
X11675291Y-18122203D01*
X11673801Y-18116253D01*
X11672901Y-18110186D01*
X11672600Y-18104060D01*
X11672600Y-17454060D01*
X11672901Y-17447934D01*
X11673801Y-17441867D01*
X11675291Y-17435917D01*
X11677358Y-17430142D01*
X11679980Y-17424598D01*
X11683133Y-17419337D01*
X11686787Y-17414410D01*
X11690906Y-17409866D01*
X11695450Y-17405747D01*
X11700377Y-17402093D01*
X11705638Y-17398940D01*
X11711182Y-17396318D01*
X11716957Y-17394251D01*
X11722907Y-17392761D01*
X11728974Y-17391861D01*
X11735100Y-17391560D01*
X11860100Y-17391560D01*
X11866226Y-17391861D01*
G37*
G36*
X11391226Y-16916861D02*
G01*
X11397293Y-16917761D01*
X11403243Y-16919251D01*
X11409018Y-16921318D01*
X11414562Y-16923940D01*
X11419823Y-16927093D01*
X11424750Y-16930747D01*
X11429294Y-16934866D01*
X11433413Y-16939410D01*
X11437067Y-16944337D01*
X11440220Y-16949598D01*
X11442842Y-16955142D01*
X11444909Y-16960917D01*
X11446399Y-16966867D01*
X11447299Y-16972934D01*
X11447600Y-16979060D01*
X11447600Y-17104060D01*
X11447299Y-17110186D01*
X11446399Y-17116253D01*
X11444909Y-17122203D01*
X11442842Y-17127978D01*
X11440220Y-17133522D01*
X11437067Y-17138783D01*
X11433413Y-17143710D01*
X11429294Y-17148254D01*
X11424750Y-17152373D01*
X11419823Y-17156027D01*
X11414562Y-17159180D01*
X11409018Y-17161802D01*
X11403243Y-17163869D01*
X11397293Y-17165359D01*
X11391226Y-17166259D01*
X11385100Y-17166560D01*
X10735100Y-17166560D01*
X10728974Y-17166259D01*
X10722907Y-17165359D01*
X10716957Y-17163869D01*
X10711182Y-17161802D01*
X10705638Y-17159180D01*
X10700377Y-17156027D01*
X10695450Y-17152373D01*
X10690906Y-17148254D01*
X10686787Y-17143710D01*
X10683133Y-17138783D01*
X10679980Y-17133522D01*
X10677358Y-17127978D01*
X10675291Y-17122203D01*
X10673801Y-17116253D01*
X10672901Y-17110186D01*
X10672600Y-17104060D01*
X10672600Y-16979060D01*
X10672901Y-16972934D01*
X10673801Y-16966867D01*
X10675291Y-16960917D01*
X10677358Y-16955142D01*
X10679980Y-16949598D01*
X10683133Y-16944337D01*
X10686787Y-16939410D01*
X10690906Y-16934866D01*
X10695450Y-16930747D01*
X10700377Y-16927093D01*
X10705638Y-16923940D01*
X10711182Y-16921318D01*
X10716957Y-16919251D01*
X10722907Y-16917761D01*
X10728974Y-16916861D01*
X10735100Y-16916560D01*
X11385100Y-16916560D01*
X11391226Y-16916861D01*
G37*
G36*
X11391226Y-16416861D02*
G01*
X11397293Y-16417761D01*
X11403243Y-16419251D01*
X11409018Y-16421318D01*
X11414562Y-16423940D01*
X11419823Y-16427093D01*
X11424750Y-16430747D01*
X11429294Y-16434866D01*
X11433413Y-16439410D01*
X11437067Y-16444337D01*
X11440220Y-16449598D01*
X11442842Y-16455142D01*
X11444909Y-16460917D01*
X11446399Y-16466867D01*
X11447299Y-16472934D01*
X11447600Y-16479060D01*
X11447600Y-16604060D01*
X11447299Y-16610186D01*
X11446399Y-16616253D01*
X11444909Y-16622203D01*
X11442842Y-16627978D01*
X11440220Y-16633522D01*
X11437067Y-16638783D01*
X11433413Y-16643710D01*
X11429294Y-16648254D01*
X11424750Y-16652373D01*
X11419823Y-16656027D01*
X11414562Y-16659180D01*
X11409018Y-16661802D01*
X11403243Y-16663869D01*
X11397293Y-16665359D01*
X11391226Y-16666259D01*
X11385100Y-16666560D01*
X10735100Y-16666560D01*
X10728974Y-16666259D01*
X10722907Y-16665359D01*
X10716957Y-16663869D01*
X10711182Y-16661802D01*
X10705638Y-16659180D01*
X10700377Y-16656027D01*
X10695450Y-16652373D01*
X10690906Y-16648254D01*
X10686787Y-16643710D01*
X10683133Y-16638783D01*
X10679980Y-16633522D01*
X10677358Y-16627978D01*
X10675291Y-16622203D01*
X10673801Y-16616253D01*
X10672901Y-16610186D01*
X10672600Y-16604060D01*
X10672600Y-16479060D01*
X10672901Y-16472934D01*
X10673801Y-16466867D01*
X10675291Y-16460917D01*
X10677358Y-16455142D01*
X10679980Y-16449598D01*
X10683133Y-16444337D01*
X10686787Y-16439410D01*
X10690906Y-16434866D01*
X10695450Y-16430747D01*
X10700377Y-16427093D01*
X10705638Y-16423940D01*
X10711182Y-16421318D01*
X10716957Y-16419251D01*
X10722907Y-16417761D01*
X10728974Y-16416861D01*
X10735100Y-16416560D01*
X11385100Y-16416560D01*
X11391226Y-16416861D01*
G37*
G36*
X11391226Y-15916861D02*
G01*
X11397293Y-15917761D01*
X11403243Y-15919251D01*
X11409018Y-15921318D01*
X11414562Y-15923940D01*
X11419823Y-15927093D01*
X11424750Y-15930747D01*
X11429294Y-15934866D01*
X11433413Y-15939410D01*
X11437067Y-15944337D01*
X11440220Y-15949598D01*
X11442842Y-15955142D01*
X11444909Y-15960917D01*
X11446399Y-15966867D01*
X11447299Y-15972934D01*
X11447600Y-15979060D01*
X11447600Y-16104060D01*
X11447299Y-16110186D01*
X11446399Y-16116253D01*
X11444909Y-16122203D01*
X11442842Y-16127978D01*
X11440220Y-16133522D01*
X11437067Y-16138783D01*
X11433413Y-16143710D01*
X11429294Y-16148254D01*
X11424750Y-16152373D01*
X11419823Y-16156027D01*
X11414562Y-16159180D01*
X11409018Y-16161802D01*
X11403243Y-16163869D01*
X11397293Y-16165359D01*
X11391226Y-16166259D01*
X11385100Y-16166560D01*
X10735100Y-16166560D01*
X10728974Y-16166259D01*
X10722907Y-16165359D01*
X10716957Y-16163869D01*
X10711182Y-16161802D01*
X10705638Y-16159180D01*
X10700377Y-16156027D01*
X10695450Y-16152373D01*
X10690906Y-16148254D01*
X10686787Y-16143710D01*
X10683133Y-16138783D01*
X10679980Y-16133522D01*
X10677358Y-16127978D01*
X10675291Y-16122203D01*
X10673801Y-16116253D01*
X10672901Y-16110186D01*
X10672600Y-16104060D01*
X10672600Y-15979060D01*
X10672901Y-15972934D01*
X10673801Y-15966867D01*
X10675291Y-15960917D01*
X10677358Y-15955142D01*
X10679980Y-15949598D01*
X10683133Y-15944337D01*
X10686787Y-15939410D01*
X10690906Y-15934866D01*
X10695450Y-15930747D01*
X10700377Y-15927093D01*
X10705638Y-15923940D01*
X10711182Y-15921318D01*
X10716957Y-15919251D01*
X10722907Y-15917761D01*
X10728974Y-15916861D01*
X10735100Y-15916560D01*
X11385100Y-15916560D01*
X11391226Y-15916861D01*
G37*
G36*
X11391226Y-15416861D02*
G01*
X11397293Y-15417761D01*
X11403243Y-15419251D01*
X11409018Y-15421318D01*
X11414562Y-15423940D01*
X11419823Y-15427093D01*
X11424750Y-15430747D01*
X11429294Y-15434866D01*
X11433413Y-15439410D01*
X11437067Y-15444337D01*
X11440220Y-15449598D01*
X11442842Y-15455142D01*
X11444909Y-15460917D01*
X11446399Y-15466867D01*
X11447299Y-15472934D01*
X11447600Y-15479060D01*
X11447600Y-15604060D01*
X11447299Y-15610186D01*
X11446399Y-15616253D01*
X11444909Y-15622203D01*
X11442842Y-15627978D01*
X11440220Y-15633522D01*
X11437067Y-15638783D01*
X11433413Y-15643710D01*
X11429294Y-15648254D01*
X11424750Y-15652373D01*
X11419823Y-15656027D01*
X11414562Y-15659180D01*
X11409018Y-15661802D01*
X11403243Y-15663869D01*
X11397293Y-15665359D01*
X11391226Y-15666259D01*
X11385100Y-15666560D01*
X10735100Y-15666560D01*
X10728974Y-15666259D01*
X10722907Y-15665359D01*
X10716957Y-15663869D01*
X10711182Y-15661802D01*
X10705638Y-15659180D01*
X10700377Y-15656027D01*
X10695450Y-15652373D01*
X10690906Y-15648254D01*
X10686787Y-15643710D01*
X10683133Y-15638783D01*
X10679980Y-15633522D01*
X10677358Y-15627978D01*
X10675291Y-15622203D01*
X10673801Y-15616253D01*
X10672901Y-15610186D01*
X10672600Y-15604060D01*
X10672600Y-15479060D01*
X10672901Y-15472934D01*
X10673801Y-15466867D01*
X10675291Y-15460917D01*
X10677358Y-15455142D01*
X10679980Y-15449598D01*
X10683133Y-15444337D01*
X10686787Y-15439410D01*
X10690906Y-15434866D01*
X10695450Y-15430747D01*
X10700377Y-15427093D01*
X10705638Y-15423940D01*
X10711182Y-15421318D01*
X10716957Y-15419251D01*
X10722907Y-15417761D01*
X10728974Y-15416861D01*
X10735100Y-15416560D01*
X11385100Y-15416560D01*
X11391226Y-15416861D01*
G37*
G36*
X11866226Y-14416861D02*
G01*
X11872293Y-14417761D01*
X11878243Y-14419251D01*
X11884018Y-14421318D01*
X11889562Y-14423940D01*
X11894823Y-14427093D01*
X11899750Y-14430747D01*
X11904294Y-14434866D01*
X11908413Y-14439410D01*
X11912067Y-14444337D01*
X11915220Y-14449598D01*
X11917842Y-14455142D01*
X11919909Y-14460917D01*
X11921399Y-14466867D01*
X11922299Y-14472934D01*
X11922600Y-14479060D01*
X11922600Y-15129060D01*
X11922299Y-15135186D01*
X11921399Y-15141253D01*
X11919909Y-15147203D01*
X11917842Y-15152978D01*
X11915220Y-15158522D01*
X11912067Y-15163783D01*
X11908413Y-15168710D01*
X11904294Y-15173254D01*
X11899750Y-15177373D01*
X11894823Y-15181027D01*
X11889562Y-15184180D01*
X11884018Y-15186802D01*
X11878243Y-15188869D01*
X11872293Y-15190359D01*
X11866226Y-15191259D01*
X11860100Y-15191560D01*
X11735100Y-15191560D01*
X11728974Y-15191259D01*
X11722907Y-15190359D01*
X11716957Y-15188869D01*
X11711182Y-15186802D01*
X11705638Y-15184180D01*
X11700377Y-15181027D01*
X11695450Y-15177373D01*
X11690906Y-15173254D01*
X11686787Y-15168710D01*
X11683133Y-15163783D01*
X11679980Y-15158522D01*
X11677358Y-15152978D01*
X11675291Y-15147203D01*
X11673801Y-15141253D01*
X11672901Y-15135186D01*
X11672600Y-15129060D01*
X11672600Y-14479060D01*
X11672901Y-14472934D01*
X11673801Y-14466867D01*
X11675291Y-14460917D01*
X11677358Y-14455142D01*
X11679980Y-14449598D01*
X11683133Y-14444337D01*
X11686787Y-14439410D01*
X11690906Y-14434866D01*
X11695450Y-14430747D01*
X11700377Y-14427093D01*
X11705638Y-14423940D01*
X11711182Y-14421318D01*
X11716957Y-14419251D01*
X11722907Y-14417761D01*
X11728974Y-14416861D01*
X11735100Y-14416560D01*
X11860100Y-14416560D01*
X11866226Y-14416861D01*
G37*
G36*
X12366226Y-14416861D02*
G01*
X12372293Y-14417761D01*
X12378243Y-14419251D01*
X12384018Y-14421318D01*
X12389562Y-14423940D01*
X12394823Y-14427093D01*
X12399750Y-14430747D01*
X12404294Y-14434866D01*
X12408413Y-14439410D01*
X12412067Y-14444337D01*
X12415220Y-14449598D01*
X12417842Y-14455142D01*
X12419909Y-14460917D01*
X12421399Y-14466867D01*
X12422299Y-14472934D01*
X12422600Y-14479060D01*
X12422600Y-15129060D01*
X12422299Y-15135186D01*
X12421399Y-15141253D01*
X12419909Y-15147203D01*
X12417842Y-15152978D01*
X12415220Y-15158522D01*
X12412067Y-15163783D01*
X12408413Y-15168710D01*
X12404294Y-15173254D01*
X12399750Y-15177373D01*
X12394823Y-15181027D01*
X12389562Y-15184180D01*
X12384018Y-15186802D01*
X12378243Y-15188869D01*
X12372293Y-15190359D01*
X12366226Y-15191259D01*
X12360100Y-15191560D01*
X12235100Y-15191560D01*
X12228974Y-15191259D01*
X12222907Y-15190359D01*
X12216957Y-15188869D01*
X12211182Y-15186802D01*
X12205638Y-15184180D01*
X12200377Y-15181027D01*
X12195450Y-15177373D01*
X12190906Y-15173254D01*
X12186787Y-15168710D01*
X12183133Y-15163783D01*
X12179980Y-15158522D01*
X12177358Y-15152978D01*
X12175291Y-15147203D01*
X12173801Y-15141253D01*
X12172901Y-15135186D01*
X12172600Y-15129060D01*
X12172600Y-14479060D01*
X12172901Y-14472934D01*
X12173801Y-14466867D01*
X12175291Y-14460917D01*
X12177358Y-14455142D01*
X12179980Y-14449598D01*
X12183133Y-14444337D01*
X12186787Y-14439410D01*
X12190906Y-14434866D01*
X12195450Y-14430747D01*
X12200377Y-14427093D01*
X12205638Y-14423940D01*
X12211182Y-14421318D01*
X12216957Y-14419251D01*
X12222907Y-14417761D01*
X12228974Y-14416861D01*
X12235100Y-14416560D01*
X12360100Y-14416560D01*
X12366226Y-14416861D01*
G37*
G36*
X12866226Y-14416861D02*
G01*
X12872293Y-14417761D01*
X12878243Y-14419251D01*
X12884018Y-14421318D01*
X12889562Y-14423940D01*
X12894823Y-14427093D01*
X12899750Y-14430747D01*
X12904294Y-14434866D01*
X12908413Y-14439410D01*
X12912067Y-14444337D01*
X12915220Y-14449598D01*
X12917842Y-14455142D01*
X12919909Y-14460917D01*
X12921399Y-14466867D01*
X12922299Y-14472934D01*
X12922600Y-14479060D01*
X12922600Y-15129060D01*
X12922299Y-15135186D01*
X12921399Y-15141253D01*
X12919909Y-15147203D01*
X12917842Y-15152978D01*
X12915220Y-15158522D01*
X12912067Y-15163783D01*
X12908413Y-15168710D01*
X12904294Y-15173254D01*
X12899750Y-15177373D01*
X12894823Y-15181027D01*
X12889562Y-15184180D01*
X12884018Y-15186802D01*
X12878243Y-15188869D01*
X12872293Y-15190359D01*
X12866226Y-15191259D01*
X12860100Y-15191560D01*
X12735100Y-15191560D01*
X12728974Y-15191259D01*
X12722907Y-15190359D01*
X12716957Y-15188869D01*
X12711182Y-15186802D01*
X12705638Y-15184180D01*
X12700377Y-15181027D01*
X12695450Y-15177373D01*
X12690906Y-15173254D01*
X12686787Y-15168710D01*
X12683133Y-15163783D01*
X12679980Y-15158522D01*
X12677358Y-15152978D01*
X12675291Y-15147203D01*
X12673801Y-15141253D01*
X12672901Y-15135186D01*
X12672600Y-15129060D01*
X12672600Y-14479060D01*
X12672901Y-14472934D01*
X12673801Y-14466867D01*
X12675291Y-14460917D01*
X12677358Y-14455142D01*
X12679980Y-14449598D01*
X12683133Y-14444337D01*
X12686787Y-14439410D01*
X12690906Y-14434866D01*
X12695450Y-14430747D01*
X12700377Y-14427093D01*
X12705638Y-14423940D01*
X12711182Y-14421318D01*
X12716957Y-14419251D01*
X12722907Y-14417761D01*
X12728974Y-14416861D01*
X12735100Y-14416560D01*
X12860100Y-14416560D01*
X12866226Y-14416861D01*
G37*
G36*
X13366226Y-14416861D02*
G01*
X13372293Y-14417761D01*
X13378243Y-14419251D01*
X13384018Y-14421318D01*
X13389562Y-14423940D01*
X13394823Y-14427093D01*
X13399750Y-14430747D01*
X13404294Y-14434866D01*
X13408413Y-14439410D01*
X13412067Y-14444337D01*
X13415220Y-14449598D01*
X13417842Y-14455142D01*
X13419909Y-14460917D01*
X13421399Y-14466867D01*
X13422299Y-14472934D01*
X13422600Y-14479060D01*
X13422600Y-15129060D01*
X13422299Y-15135186D01*
X13421399Y-15141253D01*
X13419909Y-15147203D01*
X13417842Y-15152978D01*
X13415220Y-15158522D01*
X13412067Y-15163783D01*
X13408413Y-15168710D01*
X13404294Y-15173254D01*
X13399750Y-15177373D01*
X13394823Y-15181027D01*
X13389562Y-15184180D01*
X13384018Y-15186802D01*
X13378243Y-15188869D01*
X13372293Y-15190359D01*
X13366226Y-15191259D01*
X13360100Y-15191560D01*
X13235100Y-15191560D01*
X13228974Y-15191259D01*
X13222907Y-15190359D01*
X13216957Y-15188869D01*
X13211182Y-15186802D01*
X13205638Y-15184180D01*
X13200377Y-15181027D01*
X13195450Y-15177373D01*
X13190906Y-15173254D01*
X13186787Y-15168710D01*
X13183133Y-15163783D01*
X13179980Y-15158522D01*
X13177358Y-15152978D01*
X13175291Y-15147203D01*
X13173801Y-15141253D01*
X13172901Y-15135186D01*
X13172600Y-15129060D01*
X13172600Y-14479060D01*
X13172901Y-14472934D01*
X13173801Y-14466867D01*
X13175291Y-14460917D01*
X13177358Y-14455142D01*
X13179980Y-14449598D01*
X13183133Y-14444337D01*
X13186787Y-14439410D01*
X13190906Y-14434866D01*
X13195450Y-14430747D01*
X13200377Y-14427093D01*
X13205638Y-14423940D01*
X13211182Y-14421318D01*
X13216957Y-14419251D01*
X13222907Y-14417761D01*
X13228974Y-14416861D01*
X13235100Y-14416560D01*
X13360100Y-14416560D01*
X13366226Y-14416861D01*
G37*
G36*
X12297988Y-16377439D02*
G01*
X12315704Y-16380067D01*
X12333077Y-16384418D01*
X12349940Y-16390452D01*
X12366130Y-16398109D01*
X12381492Y-16407317D01*
X12395877Y-16417986D01*
X12409147Y-16430013D01*
X12421174Y-16443283D01*
X12431843Y-16457668D01*
X12441051Y-16473030D01*
X12448708Y-16489220D01*
X12454742Y-16506083D01*
X12459093Y-16523456D01*
X12461721Y-16541172D01*
X12462600Y-16559060D01*
X12462600Y-16924060D01*
X12461721Y-16941948D01*
X12459093Y-16959664D01*
X12454742Y-16977037D01*
X12448708Y-16993900D01*
X12441051Y-17010090D01*
X12431843Y-17025452D01*
X12421174Y-17039837D01*
X12409147Y-17053107D01*
X12395877Y-17065134D01*
X12381492Y-17075803D01*
X12366130Y-17085011D01*
X12349940Y-17092668D01*
X12333077Y-17098702D01*
X12315704Y-17103053D01*
X12297988Y-17105681D01*
X12280100Y-17106560D01*
X11915100Y-17106560D01*
X11897212Y-17105681D01*
X11879496Y-17103053D01*
X11862123Y-17098702D01*
X11845260Y-17092668D01*
X11829070Y-17085011D01*
X11813708Y-17075803D01*
X11799323Y-17065134D01*
X11786053Y-17053107D01*
X11774026Y-17039837D01*
X11763357Y-17025452D01*
X11754149Y-17010090D01*
X11746492Y-16993900D01*
X11740458Y-16977037D01*
X11736107Y-16959664D01*
X11733479Y-16941948D01*
X11732600Y-16924060D01*
X11732600Y-16559060D01*
X11733479Y-16541172D01*
X11736107Y-16523456D01*
X11740458Y-16506083D01*
X11746492Y-16489220D01*
X11754149Y-16473030D01*
X11763357Y-16457668D01*
X11774026Y-16443283D01*
X11786053Y-16430013D01*
X11799323Y-16417986D01*
X11813708Y-16407317D01*
X11829070Y-16398109D01*
X11845260Y-16390452D01*
X11862123Y-16384418D01*
X11879496Y-16380067D01*
X11897212Y-16377439D01*
X11915100Y-16376560D01*
X12280100Y-16376560D01*
X12297988Y-16377439D01*
G37*
G36*
X13197988Y-16377439D02*
G01*
X13215704Y-16380067D01*
X13233077Y-16384418D01*
X13249940Y-16390452D01*
X13266130Y-16398109D01*
X13281492Y-16407317D01*
X13295877Y-16417986D01*
X13309147Y-16430013D01*
X13321174Y-16443283D01*
X13331843Y-16457668D01*
X13341051Y-16473030D01*
X13348708Y-16489220D01*
X13354742Y-16506083D01*
X13359093Y-16523456D01*
X13361721Y-16541172D01*
X13362600Y-16559060D01*
X13362600Y-16924060D01*
X13361721Y-16941948D01*
X13359093Y-16959664D01*
X13354742Y-16977037D01*
X13348708Y-16993900D01*
X13341051Y-17010090D01*
X13331843Y-17025452D01*
X13321174Y-17039837D01*
X13309147Y-17053107D01*
X13295877Y-17065134D01*
X13281492Y-17075803D01*
X13266130Y-17085011D01*
X13249940Y-17092668D01*
X13233077Y-17098702D01*
X13215704Y-17103053D01*
X13197988Y-17105681D01*
X13180100Y-17106560D01*
X12815100Y-17106560D01*
X12797212Y-17105681D01*
X12779496Y-17103053D01*
X12762123Y-17098702D01*
X12745260Y-17092668D01*
X12729070Y-17085011D01*
X12713708Y-17075803D01*
X12699323Y-17065134D01*
X12686053Y-17053107D01*
X12674026Y-17039837D01*
X12663357Y-17025452D01*
X12654149Y-17010090D01*
X12646492Y-16993900D01*
X12640458Y-16977037D01*
X12636107Y-16959664D01*
X12633479Y-16941948D01*
X12632600Y-16924060D01*
X12632600Y-16559060D01*
X12633479Y-16541172D01*
X12636107Y-16523456D01*
X12640458Y-16506083D01*
X12646492Y-16489220D01*
X12654149Y-16473030D01*
X12663357Y-16457668D01*
X12674026Y-16443283D01*
X12686053Y-16430013D01*
X12699323Y-16417986D01*
X12713708Y-16407317D01*
X12729070Y-16398109D01*
X12745260Y-16390452D01*
X12762123Y-16384418D01*
X12779496Y-16380067D01*
X12797212Y-16377439D01*
X12815100Y-16376560D01*
X13180100Y-16376560D01*
X13197988Y-16377439D01*
G37*
G36*
X12297988Y-15477439D02*
G01*
X12315704Y-15480067D01*
X12333077Y-15484418D01*
X12349940Y-15490452D01*
X12366130Y-15498109D01*
X12381492Y-15507317D01*
X12395877Y-15517986D01*
X12409147Y-15530013D01*
X12421174Y-15543283D01*
X12431843Y-15557668D01*
X12441051Y-15573030D01*
X12448708Y-15589220D01*
X12454742Y-15606083D01*
X12459093Y-15623456D01*
X12461721Y-15641172D01*
X12462600Y-15659060D01*
X12462600Y-16024060D01*
X12461721Y-16041948D01*
X12459093Y-16059664D01*
X12454742Y-16077037D01*
X12448708Y-16093900D01*
X12441051Y-16110090D01*
X12431843Y-16125452D01*
X12421174Y-16139837D01*
X12409147Y-16153107D01*
X12395877Y-16165134D01*
X12381492Y-16175803D01*
X12366130Y-16185011D01*
X12349940Y-16192668D01*
X12333077Y-16198702D01*
X12315704Y-16203053D01*
X12297988Y-16205681D01*
X12280100Y-16206560D01*
X11915100Y-16206560D01*
X11897212Y-16205681D01*
X11879496Y-16203053D01*
X11862123Y-16198702D01*
X11845260Y-16192668D01*
X11829070Y-16185011D01*
X11813708Y-16175803D01*
X11799323Y-16165134D01*
X11786053Y-16153107D01*
X11774026Y-16139837D01*
X11763357Y-16125452D01*
X11754149Y-16110090D01*
X11746492Y-16093900D01*
X11740458Y-16077037D01*
X11736107Y-16059664D01*
X11733479Y-16041948D01*
X11732600Y-16024060D01*
X11732600Y-15659060D01*
X11733479Y-15641172D01*
X11736107Y-15623456D01*
X11740458Y-15606083D01*
X11746492Y-15589220D01*
X11754149Y-15573030D01*
X11763357Y-15557668D01*
X11774026Y-15543283D01*
X11786053Y-15530013D01*
X11799323Y-15517986D01*
X11813708Y-15507317D01*
X11829070Y-15498109D01*
X11845260Y-15490452D01*
X11862123Y-15484418D01*
X11879496Y-15480067D01*
X11897212Y-15477439D01*
X11915100Y-15476560D01*
X12280100Y-15476560D01*
X12297988Y-15477439D01*
G37*
G36*
X13197988Y-15477439D02*
G01*
X13215704Y-15480067D01*
X13233077Y-15484418D01*
X13249940Y-15490452D01*
X13266130Y-15498109D01*
X13281492Y-15507317D01*
X13295877Y-15517986D01*
X13309147Y-15530013D01*
X13321174Y-15543283D01*
X13331843Y-15557668D01*
X13341051Y-15573030D01*
X13348708Y-15589220D01*
X13354742Y-15606083D01*
X13359093Y-15623456D01*
X13361721Y-15641172D01*
X13362600Y-15659060D01*
X13362600Y-16024060D01*
X13361721Y-16041948D01*
X13359093Y-16059664D01*
X13354742Y-16077037D01*
X13348708Y-16093900D01*
X13341051Y-16110090D01*
X13331843Y-16125452D01*
X13321174Y-16139837D01*
X13309147Y-16153107D01*
X13295877Y-16165134D01*
X13281492Y-16175803D01*
X13266130Y-16185011D01*
X13249940Y-16192668D01*
X13233077Y-16198702D01*
X13215704Y-16203053D01*
X13197988Y-16205681D01*
X13180100Y-16206560D01*
X12815100Y-16206560D01*
X12797212Y-16205681D01*
X12779496Y-16203053D01*
X12762123Y-16198702D01*
X12745260Y-16192668D01*
X12729070Y-16185011D01*
X12713708Y-16175803D01*
X12699323Y-16165134D01*
X12686053Y-16153107D01*
X12674026Y-16139837D01*
X12663357Y-16125452D01*
X12654149Y-16110090D01*
X12646492Y-16093900D01*
X12640458Y-16077037D01*
X12636107Y-16059664D01*
X12633479Y-16041948D01*
X12632600Y-16024060D01*
X12632600Y-15659060D01*
X12633479Y-15641172D01*
X12636107Y-15623456D01*
X12640458Y-15606083D01*
X12646492Y-15589220D01*
X12654149Y-15573030D01*
X12663357Y-15557668D01*
X12674026Y-15543283D01*
X12686053Y-15530013D01*
X12699323Y-15517986D01*
X12713708Y-15507317D01*
X12729070Y-15498109D01*
X12745260Y-15490452D01*
X12762123Y-15484418D01*
X12779496Y-15480067D01*
X12797212Y-15477439D01*
X12815100Y-15476560D01*
X13180100Y-15476560D01*
X13197988Y-15477439D01*
G37*
G36*
X1271866Y-13061141D02*
G01*
X1277933Y-13062041D01*
X1283883Y-13063531D01*
X1289658Y-13065598D01*
X1295202Y-13068220D01*
X1300463Y-13071373D01*
X1305390Y-13075027D01*
X1309934Y-13079146D01*
X1314053Y-13083690D01*
X1317707Y-13088617D01*
X1320860Y-13093878D01*
X1323482Y-13099422D01*
X1325549Y-13105197D01*
X1327039Y-13111147D01*
X1327939Y-13117214D01*
X1328240Y-13123340D01*
X1328240Y-13248340D01*
X1327939Y-13254466D01*
X1327039Y-13260533D01*
X1325549Y-13266483D01*
X1323482Y-13272258D01*
X1320860Y-13277802D01*
X1317707Y-13283063D01*
X1314053Y-13287990D01*
X1309934Y-13292534D01*
X1305390Y-13296653D01*
X1300463Y-13300307D01*
X1295202Y-13303460D01*
X1289658Y-13306082D01*
X1283883Y-13308149D01*
X1277933Y-13309639D01*
X1271866Y-13310539D01*
X1265740Y-13310840D01*
X615740Y-13310840D01*
X609614Y-13310539D01*
X603547Y-13309639D01*
X597597Y-13308149D01*
X591822Y-13306082D01*
X586278Y-13303460D01*
X581017Y-13300307D01*
X576090Y-13296653D01*
X571546Y-13292534D01*
X567427Y-13287990D01*
X563773Y-13283063D01*
X560620Y-13277802D01*
X557998Y-13272258D01*
X555931Y-13266483D01*
X554441Y-13260533D01*
X553541Y-13254466D01*
X553240Y-13248340D01*
X553240Y-13123340D01*
X553541Y-13117214D01*
X554441Y-13111147D01*
X555931Y-13105197D01*
X557998Y-13099422D01*
X560620Y-13093878D01*
X563773Y-13088617D01*
X567427Y-13083690D01*
X571546Y-13079146D01*
X576090Y-13075027D01*
X581017Y-13071373D01*
X586278Y-13068220D01*
X591822Y-13065598D01*
X597597Y-13063531D01*
X603547Y-13062041D01*
X609614Y-13061141D01*
X615740Y-13060840D01*
X1265740Y-13060840D01*
X1271866Y-13061141D01*
G37*
G36*
X1271866Y-12561141D02*
G01*
X1277933Y-12562041D01*
X1283883Y-12563531D01*
X1289658Y-12565598D01*
X1295202Y-12568220D01*
X1300463Y-12571373D01*
X1305390Y-12575027D01*
X1309934Y-12579146D01*
X1314053Y-12583690D01*
X1317707Y-12588617D01*
X1320860Y-12593878D01*
X1323482Y-12599422D01*
X1325549Y-12605197D01*
X1327039Y-12611147D01*
X1327939Y-12617214D01*
X1328240Y-12623340D01*
X1328240Y-12748340D01*
X1327939Y-12754466D01*
X1327039Y-12760533D01*
X1325549Y-12766483D01*
X1323482Y-12772258D01*
X1320860Y-12777802D01*
X1317707Y-12783063D01*
X1314053Y-12787990D01*
X1309934Y-12792534D01*
X1305390Y-12796653D01*
X1300463Y-12800307D01*
X1295202Y-12803460D01*
X1289658Y-12806082D01*
X1283883Y-12808149D01*
X1277933Y-12809639D01*
X1271866Y-12810539D01*
X1265740Y-12810840D01*
X615740Y-12810840D01*
X609614Y-12810539D01*
X603547Y-12809639D01*
X597597Y-12808149D01*
X591822Y-12806082D01*
X586278Y-12803460D01*
X581017Y-12800307D01*
X576090Y-12796653D01*
X571546Y-12792534D01*
X567427Y-12787990D01*
X563773Y-12783063D01*
X560620Y-12777802D01*
X557998Y-12772258D01*
X555931Y-12766483D01*
X554441Y-12760533D01*
X553541Y-12754466D01*
X553240Y-12748340D01*
X553240Y-12623340D01*
X553541Y-12617214D01*
X554441Y-12611147D01*
X555931Y-12605197D01*
X557998Y-12599422D01*
X560620Y-12593878D01*
X563773Y-12588617D01*
X567427Y-12583690D01*
X571546Y-12579146D01*
X576090Y-12575027D01*
X581017Y-12571373D01*
X586278Y-12568220D01*
X591822Y-12565598D01*
X597597Y-12563531D01*
X603547Y-12562041D01*
X609614Y-12561141D01*
X615740Y-12560840D01*
X1265740Y-12560840D01*
X1271866Y-12561141D01*
G37*
G36*
X1271866Y-12061141D02*
G01*
X1277933Y-12062041D01*
X1283883Y-12063531D01*
X1289658Y-12065598D01*
X1295202Y-12068220D01*
X1300463Y-12071373D01*
X1305390Y-12075027D01*
X1309934Y-12079146D01*
X1314053Y-12083690D01*
X1317707Y-12088617D01*
X1320860Y-12093878D01*
X1323482Y-12099422D01*
X1325549Y-12105197D01*
X1327039Y-12111147D01*
X1327939Y-12117214D01*
X1328240Y-12123340D01*
X1328240Y-12248340D01*
X1327939Y-12254466D01*
X1327039Y-12260533D01*
X1325549Y-12266483D01*
X1323482Y-12272258D01*
X1320860Y-12277802D01*
X1317707Y-12283063D01*
X1314053Y-12287990D01*
X1309934Y-12292534D01*
X1305390Y-12296653D01*
X1300463Y-12300307D01*
X1295202Y-12303460D01*
X1289658Y-12306082D01*
X1283883Y-12308149D01*
X1277933Y-12309639D01*
X1271866Y-12310539D01*
X1265740Y-12310840D01*
X615740Y-12310840D01*
X609614Y-12310539D01*
X603547Y-12309639D01*
X597597Y-12308149D01*
X591822Y-12306082D01*
X586278Y-12303460D01*
X581017Y-12300307D01*
X576090Y-12296653D01*
X571546Y-12292534D01*
X567427Y-12287990D01*
X563773Y-12283063D01*
X560620Y-12277802D01*
X557998Y-12272258D01*
X555931Y-12266483D01*
X554441Y-12260533D01*
X553541Y-12254466D01*
X553240Y-12248340D01*
X553240Y-12123340D01*
X553541Y-12117214D01*
X554441Y-12111147D01*
X555931Y-12105197D01*
X557998Y-12099422D01*
X560620Y-12093878D01*
X563773Y-12088617D01*
X567427Y-12083690D01*
X571546Y-12079146D01*
X576090Y-12075027D01*
X581017Y-12071373D01*
X586278Y-12068220D01*
X591822Y-12065598D01*
X597597Y-12063531D01*
X603547Y-12062041D01*
X609614Y-12061141D01*
X615740Y-12060840D01*
X1265740Y-12060840D01*
X1271866Y-12061141D01*
G37*
G36*
X1271866Y-11561141D02*
G01*
X1277933Y-11562041D01*
X1283883Y-11563531D01*
X1289658Y-11565598D01*
X1295202Y-11568220D01*
X1300463Y-11571373D01*
X1305390Y-11575027D01*
X1309934Y-11579146D01*
X1314053Y-11583690D01*
X1317707Y-11588617D01*
X1320860Y-11593878D01*
X1323482Y-11599422D01*
X1325549Y-11605197D01*
X1327039Y-11611147D01*
X1327939Y-11617214D01*
X1328240Y-11623340D01*
X1328240Y-11748340D01*
X1327939Y-11754466D01*
X1327039Y-11760533D01*
X1325549Y-11766483D01*
X1323482Y-11772258D01*
X1320860Y-11777802D01*
X1317707Y-11783063D01*
X1314053Y-11787990D01*
X1309934Y-11792534D01*
X1305390Y-11796653D01*
X1300463Y-11800307D01*
X1295202Y-11803460D01*
X1289658Y-11806082D01*
X1283883Y-11808149D01*
X1277933Y-11809639D01*
X1271866Y-11810539D01*
X1265740Y-11810840D01*
X615740Y-11810840D01*
X609614Y-11810539D01*
X603547Y-11809639D01*
X597597Y-11808149D01*
X591822Y-11806082D01*
X586278Y-11803460D01*
X581017Y-11800307D01*
X576090Y-11796653D01*
X571546Y-11792534D01*
X567427Y-11787990D01*
X563773Y-11783063D01*
X560620Y-11777802D01*
X557998Y-11772258D01*
X555931Y-11766483D01*
X554441Y-11760533D01*
X553541Y-11754466D01*
X553240Y-11748340D01*
X553240Y-11623340D01*
X553541Y-11617214D01*
X554441Y-11611147D01*
X555931Y-11605197D01*
X557998Y-11599422D01*
X560620Y-11593878D01*
X563773Y-11588617D01*
X567427Y-11583690D01*
X571546Y-11579146D01*
X576090Y-11575027D01*
X581017Y-11571373D01*
X586278Y-11568220D01*
X591822Y-11565598D01*
X597597Y-11563531D01*
X603547Y-11562041D01*
X609614Y-11561141D01*
X615740Y-11560840D01*
X1265740Y-11560840D01*
X1271866Y-11561141D01*
G37*
G36*
X1746866Y-10561141D02*
G01*
X1752933Y-10562041D01*
X1758883Y-10563531D01*
X1764658Y-10565598D01*
X1770202Y-10568220D01*
X1775463Y-10571373D01*
X1780390Y-10575027D01*
X1784934Y-10579146D01*
X1789053Y-10583690D01*
X1792707Y-10588617D01*
X1795860Y-10593878D01*
X1798482Y-10599422D01*
X1800549Y-10605197D01*
X1802039Y-10611147D01*
X1802939Y-10617214D01*
X1803240Y-10623340D01*
X1803240Y-11273340D01*
X1802939Y-11279466D01*
X1802039Y-11285533D01*
X1800549Y-11291483D01*
X1798482Y-11297258D01*
X1795860Y-11302802D01*
X1792707Y-11308063D01*
X1789053Y-11312990D01*
X1784934Y-11317534D01*
X1780390Y-11321653D01*
X1775463Y-11325307D01*
X1770202Y-11328460D01*
X1764658Y-11331082D01*
X1758883Y-11333149D01*
X1752933Y-11334639D01*
X1746866Y-11335539D01*
X1740740Y-11335840D01*
X1615740Y-11335840D01*
X1609614Y-11335539D01*
X1603547Y-11334639D01*
X1597597Y-11333149D01*
X1591822Y-11331082D01*
X1586278Y-11328460D01*
X1581017Y-11325307D01*
X1576090Y-11321653D01*
X1571546Y-11317534D01*
X1567427Y-11312990D01*
X1563773Y-11308063D01*
X1560620Y-11302802D01*
X1557998Y-11297258D01*
X1555931Y-11291483D01*
X1554441Y-11285533D01*
X1553541Y-11279466D01*
X1553240Y-11273340D01*
X1553240Y-10623340D01*
X1553541Y-10617214D01*
X1554441Y-10611147D01*
X1555931Y-10605197D01*
X1557998Y-10599422D01*
X1560620Y-10593878D01*
X1563773Y-10588617D01*
X1567427Y-10583690D01*
X1571546Y-10579146D01*
X1576090Y-10575027D01*
X1581017Y-10571373D01*
X1586278Y-10568220D01*
X1591822Y-10565598D01*
X1597597Y-10563531D01*
X1603547Y-10562041D01*
X1609614Y-10561141D01*
X1615740Y-10560840D01*
X1740740Y-10560840D01*
X1746866Y-10561141D01*
G37*
G36*
X2246866Y-10561141D02*
G01*
X2252933Y-10562041D01*
X2258883Y-10563531D01*
X2264658Y-10565598D01*
X2270202Y-10568220D01*
X2275463Y-10571373D01*
X2280390Y-10575027D01*
X2284934Y-10579146D01*
X2289053Y-10583690D01*
X2292707Y-10588617D01*
X2295860Y-10593878D01*
X2298482Y-10599422D01*
X2300549Y-10605197D01*
X2302039Y-10611147D01*
X2302939Y-10617214D01*
X2303240Y-10623340D01*
X2303240Y-11273340D01*
X2302939Y-11279466D01*
X2302039Y-11285533D01*
X2300549Y-11291483D01*
X2298482Y-11297258D01*
X2295860Y-11302802D01*
X2292707Y-11308063D01*
X2289053Y-11312990D01*
X2284934Y-11317534D01*
X2280390Y-11321653D01*
X2275463Y-11325307D01*
X2270202Y-11328460D01*
X2264658Y-11331082D01*
X2258883Y-11333149D01*
X2252933Y-11334639D01*
X2246866Y-11335539D01*
X2240740Y-11335840D01*
X2115740Y-11335840D01*
X2109614Y-11335539D01*
X2103547Y-11334639D01*
X2097597Y-11333149D01*
X2091822Y-11331082D01*
X2086278Y-11328460D01*
X2081017Y-11325307D01*
X2076090Y-11321653D01*
X2071546Y-11317534D01*
X2067427Y-11312990D01*
X2063773Y-11308063D01*
X2060620Y-11302802D01*
X2057998Y-11297258D01*
X2055931Y-11291483D01*
X2054441Y-11285533D01*
X2053541Y-11279466D01*
X2053240Y-11273340D01*
X2053240Y-10623340D01*
X2053541Y-10617214D01*
X2054441Y-10611147D01*
X2055931Y-10605197D01*
X2057998Y-10599422D01*
X2060620Y-10593878D01*
X2063773Y-10588617D01*
X2067427Y-10583690D01*
X2071546Y-10579146D01*
X2076090Y-10575027D01*
X2081017Y-10571373D01*
X2086278Y-10568220D01*
X2091822Y-10565598D01*
X2097597Y-10563531D01*
X2103547Y-10562041D01*
X2109614Y-10561141D01*
X2115740Y-10560840D01*
X2240740Y-10560840D01*
X2246866Y-10561141D01*
G37*
G36*
X2746866Y-10561141D02*
G01*
X2752933Y-10562041D01*
X2758883Y-10563531D01*
X2764658Y-10565598D01*
X2770202Y-10568220D01*
X2775463Y-10571373D01*
X2780390Y-10575027D01*
X2784934Y-10579146D01*
X2789053Y-10583690D01*
X2792707Y-10588617D01*
X2795860Y-10593878D01*
X2798482Y-10599422D01*
X2800549Y-10605197D01*
X2802039Y-10611147D01*
X2802939Y-10617214D01*
X2803240Y-10623340D01*
X2803240Y-11273340D01*
X2802939Y-11279466D01*
X2802039Y-11285533D01*
X2800549Y-11291483D01*
X2798482Y-11297258D01*
X2795860Y-11302802D01*
X2792707Y-11308063D01*
X2789053Y-11312990D01*
X2784934Y-11317534D01*
X2780390Y-11321653D01*
X2775463Y-11325307D01*
X2770202Y-11328460D01*
X2764658Y-11331082D01*
X2758883Y-11333149D01*
X2752933Y-11334639D01*
X2746866Y-11335539D01*
X2740740Y-11335840D01*
X2615740Y-11335840D01*
X2609614Y-11335539D01*
X2603547Y-11334639D01*
X2597597Y-11333149D01*
X2591822Y-11331082D01*
X2586278Y-11328460D01*
X2581017Y-11325307D01*
X2576090Y-11321653D01*
X2571546Y-11317534D01*
X2567427Y-11312990D01*
X2563773Y-11308063D01*
X2560620Y-11302802D01*
X2557998Y-11297258D01*
X2555931Y-11291483D01*
X2554441Y-11285533D01*
X2553541Y-11279466D01*
X2553240Y-11273340D01*
X2553240Y-10623340D01*
X2553541Y-10617214D01*
X2554441Y-10611147D01*
X2555931Y-10605197D01*
X2557998Y-10599422D01*
X2560620Y-10593878D01*
X2563773Y-10588617D01*
X2567427Y-10583690D01*
X2571546Y-10579146D01*
X2576090Y-10575027D01*
X2581017Y-10571373D01*
X2586278Y-10568220D01*
X2591822Y-10565598D01*
X2597597Y-10563531D01*
X2603547Y-10562041D01*
X2609614Y-10561141D01*
X2615740Y-10560840D01*
X2740740Y-10560840D01*
X2746866Y-10561141D01*
G37*
G36*
X3246866Y-10561141D02*
G01*
X3252933Y-10562041D01*
X3258883Y-10563531D01*
X3264658Y-10565598D01*
X3270202Y-10568220D01*
X3275463Y-10571373D01*
X3280390Y-10575027D01*
X3284934Y-10579146D01*
X3289053Y-10583690D01*
X3292707Y-10588617D01*
X3295860Y-10593878D01*
X3298482Y-10599422D01*
X3300549Y-10605197D01*
X3302039Y-10611147D01*
X3302939Y-10617214D01*
X3303240Y-10623340D01*
X3303240Y-11273340D01*
X3302939Y-11279466D01*
X3302039Y-11285533D01*
X3300549Y-11291483D01*
X3298482Y-11297258D01*
X3295860Y-11302802D01*
X3292707Y-11308063D01*
X3289053Y-11312990D01*
X3284934Y-11317534D01*
X3280390Y-11321653D01*
X3275463Y-11325307D01*
X3270202Y-11328460D01*
X3264658Y-11331082D01*
X3258883Y-11333149D01*
X3252933Y-11334639D01*
X3246866Y-11335539D01*
X3240740Y-11335840D01*
X3115740Y-11335840D01*
X3109614Y-11335539D01*
X3103547Y-11334639D01*
X3097597Y-11333149D01*
X3091822Y-11331082D01*
X3086278Y-11328460D01*
X3081017Y-11325307D01*
X3076090Y-11321653D01*
X3071546Y-11317534D01*
X3067427Y-11312990D01*
X3063773Y-11308063D01*
X3060620Y-11302802D01*
X3057998Y-11297258D01*
X3055931Y-11291483D01*
X3054441Y-11285533D01*
X3053541Y-11279466D01*
X3053240Y-11273340D01*
X3053240Y-10623340D01*
X3053541Y-10617214D01*
X3054441Y-10611147D01*
X3055931Y-10605197D01*
X3057998Y-10599422D01*
X3060620Y-10593878D01*
X3063773Y-10588617D01*
X3067427Y-10583690D01*
X3071546Y-10579146D01*
X3076090Y-10575027D01*
X3081017Y-10571373D01*
X3086278Y-10568220D01*
X3091822Y-10565598D01*
X3097597Y-10563531D01*
X3103547Y-10562041D01*
X3109614Y-10561141D01*
X3115740Y-10560840D01*
X3240740Y-10560840D01*
X3246866Y-10561141D01*
G37*
G36*
X4246866Y-11561141D02*
G01*
X4252933Y-11562041D01*
X4258883Y-11563531D01*
X4264658Y-11565598D01*
X4270202Y-11568220D01*
X4275463Y-11571373D01*
X4280390Y-11575027D01*
X4284934Y-11579146D01*
X4289053Y-11583690D01*
X4292707Y-11588617D01*
X4295860Y-11593878D01*
X4298482Y-11599422D01*
X4300549Y-11605197D01*
X4302039Y-11611147D01*
X4302939Y-11617214D01*
X4303240Y-11623340D01*
X4303240Y-11748340D01*
X4302939Y-11754466D01*
X4302039Y-11760533D01*
X4300549Y-11766483D01*
X4298482Y-11772258D01*
X4295860Y-11777802D01*
X4292707Y-11783063D01*
X4289053Y-11787990D01*
X4284934Y-11792534D01*
X4280390Y-11796653D01*
X4275463Y-11800307D01*
X4270202Y-11803460D01*
X4264658Y-11806082D01*
X4258883Y-11808149D01*
X4252933Y-11809639D01*
X4246866Y-11810539D01*
X4240740Y-11810840D01*
X3590740Y-11810840D01*
X3584614Y-11810539D01*
X3578547Y-11809639D01*
X3572597Y-11808149D01*
X3566822Y-11806082D01*
X3561278Y-11803460D01*
X3556017Y-11800307D01*
X3551090Y-11796653D01*
X3546546Y-11792534D01*
X3542427Y-11787990D01*
X3538773Y-11783063D01*
X3535620Y-11777802D01*
X3532998Y-11772258D01*
X3530931Y-11766483D01*
X3529441Y-11760533D01*
X3528541Y-11754466D01*
X3528240Y-11748340D01*
X3528240Y-11623340D01*
X3528541Y-11617214D01*
X3529441Y-11611147D01*
X3530931Y-11605197D01*
X3532998Y-11599422D01*
X3535620Y-11593878D01*
X3538773Y-11588617D01*
X3542427Y-11583690D01*
X3546546Y-11579146D01*
X3551090Y-11575027D01*
X3556017Y-11571373D01*
X3561278Y-11568220D01*
X3566822Y-11565598D01*
X3572597Y-11563531D01*
X3578547Y-11562041D01*
X3584614Y-11561141D01*
X3590740Y-11560840D01*
X4240740Y-11560840D01*
X4246866Y-11561141D01*
G37*
G36*
X4246866Y-12061141D02*
G01*
X4252933Y-12062041D01*
X4258883Y-12063531D01*
X4264658Y-12065598D01*
X4270202Y-12068220D01*
X4275463Y-12071373D01*
X4280390Y-12075027D01*
X4284934Y-12079146D01*
X4289053Y-12083690D01*
X4292707Y-12088617D01*
X4295860Y-12093878D01*
X4298482Y-12099422D01*
X4300549Y-12105197D01*
X4302039Y-12111147D01*
X4302939Y-12117214D01*
X4303240Y-12123340D01*
X4303240Y-12248340D01*
X4302939Y-12254466D01*
X4302039Y-12260533D01*
X4300549Y-12266483D01*
X4298482Y-12272258D01*
X4295860Y-12277802D01*
X4292707Y-12283063D01*
X4289053Y-12287990D01*
X4284934Y-12292534D01*
X4280390Y-12296653D01*
X4275463Y-12300307D01*
X4270202Y-12303460D01*
X4264658Y-12306082D01*
X4258883Y-12308149D01*
X4252933Y-12309639D01*
X4246866Y-12310539D01*
X4240740Y-12310840D01*
X3590740Y-12310840D01*
X3584614Y-12310539D01*
X3578547Y-12309639D01*
X3572597Y-12308149D01*
X3566822Y-12306082D01*
X3561278Y-12303460D01*
X3556017Y-12300307D01*
X3551090Y-12296653D01*
X3546546Y-12292534D01*
X3542427Y-12287990D01*
X3538773Y-12283063D01*
X3535620Y-12277802D01*
X3532998Y-12272258D01*
X3530931Y-12266483D01*
X3529441Y-12260533D01*
X3528541Y-12254466D01*
X3528240Y-12248340D01*
X3528240Y-12123340D01*
X3528541Y-12117214D01*
X3529441Y-12111147D01*
X3530931Y-12105197D01*
X3532998Y-12099422D01*
X3535620Y-12093878D01*
X3538773Y-12088617D01*
X3542427Y-12083690D01*
X3546546Y-12079146D01*
X3551090Y-12075027D01*
X3556017Y-12071373D01*
X3561278Y-12068220D01*
X3566822Y-12065598D01*
X3572597Y-12063531D01*
X3578547Y-12062041D01*
X3584614Y-12061141D01*
X3590740Y-12060840D01*
X4240740Y-12060840D01*
X4246866Y-12061141D01*
G37*
G36*
X4246866Y-12561141D02*
G01*
X4252933Y-12562041D01*
X4258883Y-12563531D01*
X4264658Y-12565598D01*
X4270202Y-12568220D01*
X4275463Y-12571373D01*
X4280390Y-12575027D01*
X4284934Y-12579146D01*
X4289053Y-12583690D01*
X4292707Y-12588617D01*
X4295860Y-12593878D01*
X4298482Y-12599422D01*
X4300549Y-12605197D01*
X4302039Y-12611147D01*
X4302939Y-12617214D01*
X4303240Y-12623340D01*
X4303240Y-12748340D01*
X4302939Y-12754466D01*
X4302039Y-12760533D01*
X4300549Y-12766483D01*
X4298482Y-12772258D01*
X4295860Y-12777802D01*
X4292707Y-12783063D01*
X4289053Y-12787990D01*
X4284934Y-12792534D01*
X4280390Y-12796653D01*
X4275463Y-12800307D01*
X4270202Y-12803460D01*
X4264658Y-12806082D01*
X4258883Y-12808149D01*
X4252933Y-12809639D01*
X4246866Y-12810539D01*
X4240740Y-12810840D01*
X3590740Y-12810840D01*
X3584614Y-12810539D01*
X3578547Y-12809639D01*
X3572597Y-12808149D01*
X3566822Y-12806082D01*
X3561278Y-12803460D01*
X3556017Y-12800307D01*
X3551090Y-12796653D01*
X3546546Y-12792534D01*
X3542427Y-12787990D01*
X3538773Y-12783063D01*
X3535620Y-12777802D01*
X3532998Y-12772258D01*
X3530931Y-12766483D01*
X3529441Y-12760533D01*
X3528541Y-12754466D01*
X3528240Y-12748340D01*
X3528240Y-12623340D01*
X3528541Y-12617214D01*
X3529441Y-12611147D01*
X3530931Y-12605197D01*
X3532998Y-12599422D01*
X3535620Y-12593878D01*
X3538773Y-12588617D01*
X3542427Y-12583690D01*
X3546546Y-12579146D01*
X3551090Y-12575027D01*
X3556017Y-12571373D01*
X3561278Y-12568220D01*
X3566822Y-12565598D01*
X3572597Y-12563531D01*
X3578547Y-12562041D01*
X3584614Y-12561141D01*
X3590740Y-12560840D01*
X4240740Y-12560840D01*
X4246866Y-12561141D01*
G37*
G36*
X4246866Y-13061141D02*
G01*
X4252933Y-13062041D01*
X4258883Y-13063531D01*
X4264658Y-13065598D01*
X4270202Y-13068220D01*
X4275463Y-13071373D01*
X4280390Y-13075027D01*
X4284934Y-13079146D01*
X4289053Y-13083690D01*
X4292707Y-13088617D01*
X4295860Y-13093878D01*
X4298482Y-13099422D01*
X4300549Y-13105197D01*
X4302039Y-13111147D01*
X4302939Y-13117214D01*
X4303240Y-13123340D01*
X4303240Y-13248340D01*
X4302939Y-13254466D01*
X4302039Y-13260533D01*
X4300549Y-13266483D01*
X4298482Y-13272258D01*
X4295860Y-13277802D01*
X4292707Y-13283063D01*
X4289053Y-13287990D01*
X4284934Y-13292534D01*
X4280390Y-13296653D01*
X4275463Y-13300307D01*
X4270202Y-13303460D01*
X4264658Y-13306082D01*
X4258883Y-13308149D01*
X4252933Y-13309639D01*
X4246866Y-13310539D01*
X4240740Y-13310840D01*
X3590740Y-13310840D01*
X3584614Y-13310539D01*
X3578547Y-13309639D01*
X3572597Y-13308149D01*
X3566822Y-13306082D01*
X3561278Y-13303460D01*
X3556017Y-13300307D01*
X3551090Y-13296653D01*
X3546546Y-13292534D01*
X3542427Y-13287990D01*
X3538773Y-13283063D01*
X3535620Y-13277802D01*
X3532998Y-13272258D01*
X3530931Y-13266483D01*
X3529441Y-13260533D01*
X3528541Y-13254466D01*
X3528240Y-13248340D01*
X3528240Y-13123340D01*
X3528541Y-13117214D01*
X3529441Y-13111147D01*
X3530931Y-13105197D01*
X3532998Y-13099422D01*
X3535620Y-13093878D01*
X3538773Y-13088617D01*
X3542427Y-13083690D01*
X3546546Y-13079146D01*
X3551090Y-13075027D01*
X3556017Y-13071373D01*
X3561278Y-13068220D01*
X3566822Y-13065598D01*
X3572597Y-13063531D01*
X3578547Y-13062041D01*
X3584614Y-13061141D01*
X3590740Y-13060840D01*
X4240740Y-13060840D01*
X4246866Y-13061141D01*
G37*
G36*
X3246866Y-13536141D02*
G01*
X3252933Y-13537041D01*
X3258883Y-13538531D01*
X3264658Y-13540598D01*
X3270202Y-13543220D01*
X3275463Y-13546373D01*
X3280390Y-13550027D01*
X3284934Y-13554146D01*
X3289053Y-13558690D01*
X3292707Y-13563617D01*
X3295860Y-13568878D01*
X3298482Y-13574422D01*
X3300549Y-13580197D01*
X3302039Y-13586147D01*
X3302939Y-13592214D01*
X3303240Y-13598340D01*
X3303240Y-14248340D01*
X3302939Y-14254466D01*
X3302039Y-14260533D01*
X3300549Y-14266483D01*
X3298482Y-14272258D01*
X3295860Y-14277802D01*
X3292707Y-14283063D01*
X3289053Y-14287990D01*
X3284934Y-14292534D01*
X3280390Y-14296653D01*
X3275463Y-14300307D01*
X3270202Y-14303460D01*
X3264658Y-14306082D01*
X3258883Y-14308149D01*
X3252933Y-14309639D01*
X3246866Y-14310539D01*
X3240740Y-14310840D01*
X3115740Y-14310840D01*
X3109614Y-14310539D01*
X3103547Y-14309639D01*
X3097597Y-14308149D01*
X3091822Y-14306082D01*
X3086278Y-14303460D01*
X3081017Y-14300307D01*
X3076090Y-14296653D01*
X3071546Y-14292534D01*
X3067427Y-14287990D01*
X3063773Y-14283063D01*
X3060620Y-14277802D01*
X3057998Y-14272258D01*
X3055931Y-14266483D01*
X3054441Y-14260533D01*
X3053541Y-14254466D01*
X3053240Y-14248340D01*
X3053240Y-13598340D01*
X3053541Y-13592214D01*
X3054441Y-13586147D01*
X3055931Y-13580197D01*
X3057998Y-13574422D01*
X3060620Y-13568878D01*
X3063773Y-13563617D01*
X3067427Y-13558690D01*
X3071546Y-13554146D01*
X3076090Y-13550027D01*
X3081017Y-13546373D01*
X3086278Y-13543220D01*
X3091822Y-13540598D01*
X3097597Y-13538531D01*
X3103547Y-13537041D01*
X3109614Y-13536141D01*
X3115740Y-13535840D01*
X3240740Y-13535840D01*
X3246866Y-13536141D01*
G37*
G36*
X2746866Y-13536141D02*
G01*
X2752933Y-13537041D01*
X2758883Y-13538531D01*
X2764658Y-13540598D01*
X2770202Y-13543220D01*
X2775463Y-13546373D01*
X2780390Y-13550027D01*
X2784934Y-13554146D01*
X2789053Y-13558690D01*
X2792707Y-13563617D01*
X2795860Y-13568878D01*
X2798482Y-13574422D01*
X2800549Y-13580197D01*
X2802039Y-13586147D01*
X2802939Y-13592214D01*
X2803240Y-13598340D01*
X2803240Y-14248340D01*
X2802939Y-14254466D01*
X2802039Y-14260533D01*
X2800549Y-14266483D01*
X2798482Y-14272258D01*
X2795860Y-14277802D01*
X2792707Y-14283063D01*
X2789053Y-14287990D01*
X2784934Y-14292534D01*
X2780390Y-14296653D01*
X2775463Y-14300307D01*
X2770202Y-14303460D01*
X2764658Y-14306082D01*
X2758883Y-14308149D01*
X2752933Y-14309639D01*
X2746866Y-14310539D01*
X2740740Y-14310840D01*
X2615740Y-14310840D01*
X2609614Y-14310539D01*
X2603547Y-14309639D01*
X2597597Y-14308149D01*
X2591822Y-14306082D01*
X2586278Y-14303460D01*
X2581017Y-14300307D01*
X2576090Y-14296653D01*
X2571546Y-14292534D01*
X2567427Y-14287990D01*
X2563773Y-14283063D01*
X2560620Y-14277802D01*
X2557998Y-14272258D01*
X2555931Y-14266483D01*
X2554441Y-14260533D01*
X2553541Y-14254466D01*
X2553240Y-14248340D01*
X2553240Y-13598340D01*
X2553541Y-13592214D01*
X2554441Y-13586147D01*
X2555931Y-13580197D01*
X2557998Y-13574422D01*
X2560620Y-13568878D01*
X2563773Y-13563617D01*
X2567427Y-13558690D01*
X2571546Y-13554146D01*
X2576090Y-13550027D01*
X2581017Y-13546373D01*
X2586278Y-13543220D01*
X2591822Y-13540598D01*
X2597597Y-13538531D01*
X2603547Y-13537041D01*
X2609614Y-13536141D01*
X2615740Y-13535840D01*
X2740740Y-13535840D01*
X2746866Y-13536141D01*
G37*
G36*
X2246866Y-13536141D02*
G01*
X2252933Y-13537041D01*
X2258883Y-13538531D01*
X2264658Y-13540598D01*
X2270202Y-13543220D01*
X2275463Y-13546373D01*
X2280390Y-13550027D01*
X2284934Y-13554146D01*
X2289053Y-13558690D01*
X2292707Y-13563617D01*
X2295860Y-13568878D01*
X2298482Y-13574422D01*
X2300549Y-13580197D01*
X2302039Y-13586147D01*
X2302939Y-13592214D01*
X2303240Y-13598340D01*
X2303240Y-14248340D01*
X2302939Y-14254466D01*
X2302039Y-14260533D01*
X2300549Y-14266483D01*
X2298482Y-14272258D01*
X2295860Y-14277802D01*
X2292707Y-14283063D01*
X2289053Y-14287990D01*
X2284934Y-14292534D01*
X2280390Y-14296653D01*
X2275463Y-14300307D01*
X2270202Y-14303460D01*
X2264658Y-14306082D01*
X2258883Y-14308149D01*
X2252933Y-14309639D01*
X2246866Y-14310539D01*
X2240740Y-14310840D01*
X2115740Y-14310840D01*
X2109614Y-14310539D01*
X2103547Y-14309639D01*
X2097597Y-14308149D01*
X2091822Y-14306082D01*
X2086278Y-14303460D01*
X2081017Y-14300307D01*
X2076090Y-14296653D01*
X2071546Y-14292534D01*
X2067427Y-14287990D01*
X2063773Y-14283063D01*
X2060620Y-14277802D01*
X2057998Y-14272258D01*
X2055931Y-14266483D01*
X2054441Y-14260533D01*
X2053541Y-14254466D01*
X2053240Y-14248340D01*
X2053240Y-13598340D01*
X2053541Y-13592214D01*
X2054441Y-13586147D01*
X2055931Y-13580197D01*
X2057998Y-13574422D01*
X2060620Y-13568878D01*
X2063773Y-13563617D01*
X2067427Y-13558690D01*
X2071546Y-13554146D01*
X2076090Y-13550027D01*
X2081017Y-13546373D01*
X2086278Y-13543220D01*
X2091822Y-13540598D01*
X2097597Y-13538531D01*
X2103547Y-13537041D01*
X2109614Y-13536141D01*
X2115740Y-13535840D01*
X2240740Y-13535840D01*
X2246866Y-13536141D01*
G37*
G36*
X1746866Y-13536141D02*
G01*
X1752933Y-13537041D01*
X1758883Y-13538531D01*
X1764658Y-13540598D01*
X1770202Y-13543220D01*
X1775463Y-13546373D01*
X1780390Y-13550027D01*
X1784934Y-13554146D01*
X1789053Y-13558690D01*
X1792707Y-13563617D01*
X1795860Y-13568878D01*
X1798482Y-13574422D01*
X1800549Y-13580197D01*
X1802039Y-13586147D01*
X1802939Y-13592214D01*
X1803240Y-13598340D01*
X1803240Y-14248340D01*
X1802939Y-14254466D01*
X1802039Y-14260533D01*
X1800549Y-14266483D01*
X1798482Y-14272258D01*
X1795860Y-14277802D01*
X1792707Y-14283063D01*
X1789053Y-14287990D01*
X1784934Y-14292534D01*
X1780390Y-14296653D01*
X1775463Y-14300307D01*
X1770202Y-14303460D01*
X1764658Y-14306082D01*
X1758883Y-14308149D01*
X1752933Y-14309639D01*
X1746866Y-14310539D01*
X1740740Y-14310840D01*
X1615740Y-14310840D01*
X1609614Y-14310539D01*
X1603547Y-14309639D01*
X1597597Y-14308149D01*
X1591822Y-14306082D01*
X1586278Y-14303460D01*
X1581017Y-14300307D01*
X1576090Y-14296653D01*
X1571546Y-14292534D01*
X1567427Y-14287990D01*
X1563773Y-14283063D01*
X1560620Y-14277802D01*
X1557998Y-14272258D01*
X1555931Y-14266483D01*
X1554441Y-14260533D01*
X1553541Y-14254466D01*
X1553240Y-14248340D01*
X1553240Y-13598340D01*
X1553541Y-13592214D01*
X1554441Y-13586147D01*
X1555931Y-13580197D01*
X1557998Y-13574422D01*
X1560620Y-13568878D01*
X1563773Y-13563617D01*
X1567427Y-13558690D01*
X1571546Y-13554146D01*
X1576090Y-13550027D01*
X1581017Y-13546373D01*
X1586278Y-13543220D01*
X1591822Y-13540598D01*
X1597597Y-13538531D01*
X1603547Y-13537041D01*
X1609614Y-13536141D01*
X1615740Y-13535840D01*
X1740740Y-13535840D01*
X1746866Y-13536141D01*
G37*
G36*
X3078628Y-11621719D02*
G01*
X3096344Y-11624347D01*
X3113717Y-11628698D01*
X3130580Y-11634732D01*
X3146770Y-11642389D01*
X3162132Y-11651597D01*
X3176517Y-11662266D01*
X3189787Y-11674293D01*
X3201814Y-11687563D01*
X3212483Y-11701948D01*
X3221691Y-11717310D01*
X3229348Y-11733500D01*
X3235382Y-11750363D01*
X3239733Y-11767736D01*
X3242361Y-11785452D01*
X3243240Y-11803340D01*
X3243240Y-12168340D01*
X3242361Y-12186228D01*
X3239733Y-12203944D01*
X3235382Y-12221317D01*
X3229348Y-12238180D01*
X3221691Y-12254370D01*
X3212483Y-12269732D01*
X3201814Y-12284117D01*
X3189787Y-12297387D01*
X3176517Y-12309414D01*
X3162132Y-12320083D01*
X3146770Y-12329291D01*
X3130580Y-12336948D01*
X3113717Y-12342982D01*
X3096344Y-12347333D01*
X3078628Y-12349961D01*
X3060740Y-12350840D01*
X2695740Y-12350840D01*
X2677852Y-12349961D01*
X2660136Y-12347333D01*
X2642763Y-12342982D01*
X2625900Y-12336948D01*
X2609710Y-12329291D01*
X2594348Y-12320083D01*
X2579963Y-12309414D01*
X2566693Y-12297387D01*
X2554666Y-12284117D01*
X2543997Y-12269732D01*
X2534789Y-12254370D01*
X2527132Y-12238180D01*
X2521098Y-12221317D01*
X2516747Y-12203944D01*
X2514119Y-12186228D01*
X2513240Y-12168340D01*
X2513240Y-11803340D01*
X2514119Y-11785452D01*
X2516747Y-11767736D01*
X2521098Y-11750363D01*
X2527132Y-11733500D01*
X2534789Y-11717310D01*
X2543997Y-11701948D01*
X2554666Y-11687563D01*
X2566693Y-11674293D01*
X2579963Y-11662266D01*
X2594348Y-11651597D01*
X2609710Y-11642389D01*
X2625900Y-11634732D01*
X2642763Y-11628698D01*
X2660136Y-11624347D01*
X2677852Y-11621719D01*
X2695740Y-11620840D01*
X3060740Y-11620840D01*
X3078628Y-11621719D01*
G37*
G36*
X2178628Y-11621719D02*
G01*
X2196344Y-11624347D01*
X2213717Y-11628698D01*
X2230580Y-11634732D01*
X2246770Y-11642389D01*
X2262132Y-11651597D01*
X2276517Y-11662266D01*
X2289787Y-11674293D01*
X2301814Y-11687563D01*
X2312483Y-11701948D01*
X2321691Y-11717310D01*
X2329348Y-11733500D01*
X2335382Y-11750363D01*
X2339733Y-11767736D01*
X2342361Y-11785452D01*
X2343240Y-11803340D01*
X2343240Y-12168340D01*
X2342361Y-12186228D01*
X2339733Y-12203944D01*
X2335382Y-12221317D01*
X2329348Y-12238180D01*
X2321691Y-12254370D01*
X2312483Y-12269732D01*
X2301814Y-12284117D01*
X2289787Y-12297387D01*
X2276517Y-12309414D01*
X2262132Y-12320083D01*
X2246770Y-12329291D01*
X2230580Y-12336948D01*
X2213717Y-12342982D01*
X2196344Y-12347333D01*
X2178628Y-12349961D01*
X2160740Y-12350840D01*
X1795740Y-12350840D01*
X1777852Y-12349961D01*
X1760136Y-12347333D01*
X1742763Y-12342982D01*
X1725900Y-12336948D01*
X1709710Y-12329291D01*
X1694348Y-12320083D01*
X1679963Y-12309414D01*
X1666693Y-12297387D01*
X1654666Y-12284117D01*
X1643997Y-12269732D01*
X1634789Y-12254370D01*
X1627132Y-12238180D01*
X1621098Y-12221317D01*
X1616747Y-12203944D01*
X1614119Y-12186228D01*
X1613240Y-12168340D01*
X1613240Y-11803340D01*
X1614119Y-11785452D01*
X1616747Y-11767736D01*
X1621098Y-11750363D01*
X1627132Y-11733500D01*
X1634789Y-11717310D01*
X1643997Y-11701948D01*
X1654666Y-11687563D01*
X1666693Y-11674293D01*
X1679963Y-11662266D01*
X1694348Y-11651597D01*
X1709710Y-11642389D01*
X1725900Y-11634732D01*
X1742763Y-11628698D01*
X1760136Y-11624347D01*
X1777852Y-11621719D01*
X1795740Y-11620840D01*
X2160740Y-11620840D01*
X2178628Y-11621719D01*
G37*
G36*
X3078628Y-12521719D02*
G01*
X3096344Y-12524347D01*
X3113717Y-12528698D01*
X3130580Y-12534732D01*
X3146770Y-12542389D01*
X3162132Y-12551597D01*
X3176517Y-12562266D01*
X3189787Y-12574293D01*
X3201814Y-12587563D01*
X3212483Y-12601948D01*
X3221691Y-12617310D01*
X3229348Y-12633500D01*
X3235382Y-12650363D01*
X3239733Y-12667736D01*
X3242361Y-12685452D01*
X3243240Y-12703340D01*
X3243240Y-13068340D01*
X3242361Y-13086228D01*
X3239733Y-13103944D01*
X3235382Y-13121317D01*
X3229348Y-13138180D01*
X3221691Y-13154370D01*
X3212483Y-13169732D01*
X3201814Y-13184117D01*
X3189787Y-13197387D01*
X3176517Y-13209414D01*
X3162132Y-13220083D01*
X3146770Y-13229291D01*
X3130580Y-13236948D01*
X3113717Y-13242982D01*
X3096344Y-13247333D01*
X3078628Y-13249961D01*
X3060740Y-13250840D01*
X2695740Y-13250840D01*
X2677852Y-13249961D01*
X2660136Y-13247333D01*
X2642763Y-13242982D01*
X2625900Y-13236948D01*
X2609710Y-13229291D01*
X2594348Y-13220083D01*
X2579963Y-13209414D01*
X2566693Y-13197387D01*
X2554666Y-13184117D01*
X2543997Y-13169732D01*
X2534789Y-13154370D01*
X2527132Y-13138180D01*
X2521098Y-13121317D01*
X2516747Y-13103944D01*
X2514119Y-13086228D01*
X2513240Y-13068340D01*
X2513240Y-12703340D01*
X2514119Y-12685452D01*
X2516747Y-12667736D01*
X2521098Y-12650363D01*
X2527132Y-12633500D01*
X2534789Y-12617310D01*
X2543997Y-12601948D01*
X2554666Y-12587563D01*
X2566693Y-12574293D01*
X2579963Y-12562266D01*
X2594348Y-12551597D01*
X2609710Y-12542389D01*
X2625900Y-12534732D01*
X2642763Y-12528698D01*
X2660136Y-12524347D01*
X2677852Y-12521719D01*
X2695740Y-12520840D01*
X3060740Y-12520840D01*
X3078628Y-12521719D01*
G37*
G36*
X2178628Y-12521719D02*
G01*
X2196344Y-12524347D01*
X2213717Y-12528698D01*
X2230580Y-12534732D01*
X2246770Y-12542389D01*
X2262132Y-12551597D01*
X2276517Y-12562266D01*
X2289787Y-12574293D01*
X2301814Y-12587563D01*
X2312483Y-12601948D01*
X2321691Y-12617310D01*
X2329348Y-12633500D01*
X2335382Y-12650363D01*
X2339733Y-12667736D01*
X2342361Y-12685452D01*
X2343240Y-12703340D01*
X2343240Y-13068340D01*
X2342361Y-13086228D01*
X2339733Y-13103944D01*
X2335382Y-13121317D01*
X2329348Y-13138180D01*
X2321691Y-13154370D01*
X2312483Y-13169732D01*
X2301814Y-13184117D01*
X2289787Y-13197387D01*
X2276517Y-13209414D01*
X2262132Y-13220083D01*
X2246770Y-13229291D01*
X2230580Y-13236948D01*
X2213717Y-13242982D01*
X2196344Y-13247333D01*
X2178628Y-13249961D01*
X2160740Y-13250840D01*
X1795740Y-13250840D01*
X1777852Y-13249961D01*
X1760136Y-13247333D01*
X1742763Y-13242982D01*
X1725900Y-13236948D01*
X1709710Y-13229291D01*
X1694348Y-13220083D01*
X1679963Y-13209414D01*
X1666693Y-13197387D01*
X1654666Y-13184117D01*
X1643997Y-13169732D01*
X1634789Y-13154370D01*
X1627132Y-13138180D01*
X1621098Y-13121317D01*
X1616747Y-13103944D01*
X1614119Y-13086228D01*
X1613240Y-13068340D01*
X1613240Y-12703340D01*
X1614119Y-12685452D01*
X1616747Y-12667736D01*
X1621098Y-12650363D01*
X1627132Y-12633500D01*
X1634789Y-12617310D01*
X1643997Y-12601948D01*
X1654666Y-12587563D01*
X1666693Y-12574293D01*
X1679963Y-12562266D01*
X1694348Y-12551597D01*
X1709710Y-12542389D01*
X1725900Y-12534732D01*
X1742763Y-12528698D01*
X1760136Y-12524347D01*
X1777852Y-12521719D01*
X1795740Y-12520840D01*
X2160740Y-12520840D01*
X2178628Y-12521719D01*
G37*
G36*
X11624978Y-18672290D02*
G01*
X11639296Y-18674414D01*
X11653337Y-18677931D01*
X11666966Y-18682808D01*
X11680051Y-18688997D01*
X11692467Y-18696438D01*
X11704093Y-18705061D01*
X11714818Y-18714782D01*
X11724539Y-18725507D01*
X11733162Y-18737133D01*
X11740603Y-18749549D01*
X11746792Y-18762634D01*
X11751669Y-18776263D01*
X11755186Y-18790304D01*
X11757310Y-18804622D01*
X11758020Y-18819080D01*
X11758020Y-19164080D01*
X11757310Y-19178538D01*
X11755186Y-19192856D01*
X11751669Y-19206897D01*
X11746792Y-19220526D01*
X11740603Y-19233611D01*
X11733162Y-19246027D01*
X11724539Y-19257653D01*
X11714818Y-19268378D01*
X11704093Y-19278099D01*
X11692467Y-19286722D01*
X11680051Y-19294163D01*
X11666966Y-19300352D01*
X11653337Y-19305229D01*
X11639296Y-19308746D01*
X11624978Y-19310870D01*
X11610520Y-19311580D01*
X11315520Y-19311580D01*
X11301062Y-19310870D01*
X11286744Y-19308746D01*
X11272703Y-19305229D01*
X11259074Y-19300352D01*
X11245989Y-19294163D01*
X11233573Y-19286722D01*
X11221947Y-19278099D01*
X11211222Y-19268378D01*
X11201501Y-19257653D01*
X11192878Y-19246027D01*
X11185437Y-19233611D01*
X11179248Y-19220526D01*
X11174371Y-19206897D01*
X11170854Y-19192856D01*
X11168730Y-19178538D01*
X11168020Y-19164080D01*
X11168020Y-18819080D01*
X11168730Y-18804622D01*
X11170854Y-18790304D01*
X11174371Y-18776263D01*
X11179248Y-18762634D01*
X11185437Y-18749549D01*
X11192878Y-18737133D01*
X11201501Y-18725507D01*
X11211222Y-18714782D01*
X11221947Y-18705061D01*
X11233573Y-18696438D01*
X11245989Y-18688997D01*
X11259074Y-18682808D01*
X11272703Y-18677931D01*
X11286744Y-18674414D01*
X11301062Y-18672290D01*
X11315520Y-18671580D01*
X11610520Y-18671580D01*
X11624978Y-18672290D01*
G37*
G36*
X10654978Y-18672290D02*
G01*
X10669296Y-18674414D01*
X10683337Y-18677931D01*
X10696966Y-18682808D01*
X10710051Y-18688997D01*
X10722467Y-18696438D01*
X10734093Y-18705061D01*
X10744818Y-18714782D01*
X10754539Y-18725507D01*
X10763162Y-18737133D01*
X10770603Y-18749549D01*
X10776792Y-18762634D01*
X10781669Y-18776263D01*
X10785186Y-18790304D01*
X10787310Y-18804622D01*
X10788020Y-18819080D01*
X10788020Y-19164080D01*
X10787310Y-19178538D01*
X10785186Y-19192856D01*
X10781669Y-19206897D01*
X10776792Y-19220526D01*
X10770603Y-19233611D01*
X10763162Y-19246027D01*
X10754539Y-19257653D01*
X10744818Y-19268378D01*
X10734093Y-19278099D01*
X10722467Y-19286722D01*
X10710051Y-19294163D01*
X10696966Y-19300352D01*
X10683337Y-19305229D01*
X10669296Y-19308746D01*
X10654978Y-19310870D01*
X10640520Y-19311580D01*
X10345520Y-19311580D01*
X10331062Y-19310870D01*
X10316744Y-19308746D01*
X10302703Y-19305229D01*
X10289074Y-19300352D01*
X10275989Y-19294163D01*
X10263573Y-19286722D01*
X10251947Y-19278099D01*
X10241222Y-19268378D01*
X10231501Y-19257653D01*
X10222878Y-19246027D01*
X10215437Y-19233611D01*
X10209248Y-19220526D01*
X10204371Y-19206897D01*
X10200854Y-19192856D01*
X10198730Y-19178538D01*
X10198020Y-19164080D01*
X10198020Y-18819080D01*
X10198730Y-18804622D01*
X10200854Y-18790304D01*
X10204371Y-18776263D01*
X10209248Y-18762634D01*
X10215437Y-18749549D01*
X10222878Y-18737133D01*
X10231501Y-18725507D01*
X10241222Y-18714782D01*
X10251947Y-18705061D01*
X10263573Y-18696438D01*
X10275989Y-18688997D01*
X10289074Y-18682808D01*
X10302703Y-18677931D01*
X10316744Y-18674414D01*
X10331062Y-18672290D01*
X10345520Y-18671580D01*
X10640520Y-18671580D01*
X10654978Y-18672290D01*
G37*
G36*
X11787398Y-13325590D02*
G01*
X11801716Y-13327714D01*
X11815757Y-13331231D01*
X11829386Y-13336108D01*
X11842471Y-13342297D01*
X11854887Y-13349738D01*
X11866513Y-13358361D01*
X11877238Y-13368082D01*
X11886959Y-13378807D01*
X11895582Y-13390433D01*
X11903023Y-13402849D01*
X11909212Y-13415934D01*
X11914089Y-13429563D01*
X11917606Y-13443604D01*
X11919730Y-13457922D01*
X11920440Y-13472380D01*
X11920440Y-13817380D01*
X11919730Y-13831838D01*
X11917606Y-13846156D01*
X11914089Y-13860197D01*
X11909212Y-13873826D01*
X11903023Y-13886911D01*
X11895582Y-13899327D01*
X11886959Y-13910953D01*
X11877238Y-13921678D01*
X11866513Y-13931399D01*
X11854887Y-13940022D01*
X11842471Y-13947463D01*
X11829386Y-13953652D01*
X11815757Y-13958529D01*
X11801716Y-13962046D01*
X11787398Y-13964170D01*
X11772940Y-13964880D01*
X11477940Y-13964880D01*
X11463482Y-13964170D01*
X11449164Y-13962046D01*
X11435123Y-13958529D01*
X11421494Y-13953652D01*
X11408409Y-13947463D01*
X11395993Y-13940022D01*
X11384367Y-13931399D01*
X11373642Y-13921678D01*
X11363921Y-13910953D01*
X11355298Y-13899327D01*
X11347857Y-13886911D01*
X11341668Y-13873826D01*
X11336791Y-13860197D01*
X11333274Y-13846156D01*
X11331150Y-13831838D01*
X11330440Y-13817380D01*
X11330440Y-13472380D01*
X11331150Y-13457922D01*
X11333274Y-13443604D01*
X11336791Y-13429563D01*
X11341668Y-13415934D01*
X11347857Y-13402849D01*
X11355298Y-13390433D01*
X11363921Y-13378807D01*
X11373642Y-13368082D01*
X11384367Y-13358361D01*
X11395993Y-13349738D01*
X11408409Y-13342297D01*
X11421494Y-13336108D01*
X11435123Y-13331231D01*
X11449164Y-13327714D01*
X11463482Y-13325590D01*
X11477940Y-13324880D01*
X11772940Y-13324880D01*
X11787398Y-13325590D01*
G37*
G36*
X10817398Y-13325590D02*
G01*
X10831716Y-13327714D01*
X10845757Y-13331231D01*
X10859386Y-13336108D01*
X10872471Y-13342297D01*
X10884887Y-13349738D01*
X10896513Y-13358361D01*
X10907238Y-13368082D01*
X10916959Y-13378807D01*
X10925582Y-13390433D01*
X10933023Y-13402849D01*
X10939212Y-13415934D01*
X10944089Y-13429563D01*
X10947606Y-13443604D01*
X10949730Y-13457922D01*
X10950440Y-13472380D01*
X10950440Y-13817380D01*
X10949730Y-13831838D01*
X10947606Y-13846156D01*
X10944089Y-13860197D01*
X10939212Y-13873826D01*
X10933023Y-13886911D01*
X10925582Y-13899327D01*
X10916959Y-13910953D01*
X10907238Y-13921678D01*
X10896513Y-13931399D01*
X10884887Y-13940022D01*
X10872471Y-13947463D01*
X10859386Y-13953652D01*
X10845757Y-13958529D01*
X10831716Y-13962046D01*
X10817398Y-13964170D01*
X10802940Y-13964880D01*
X10507940Y-13964880D01*
X10493482Y-13964170D01*
X10479164Y-13962046D01*
X10465123Y-13958529D01*
X10451494Y-13953652D01*
X10438409Y-13947463D01*
X10425993Y-13940022D01*
X10414367Y-13931399D01*
X10403642Y-13921678D01*
X10393921Y-13910953D01*
X10385298Y-13899327D01*
X10377857Y-13886911D01*
X10371668Y-13873826D01*
X10366791Y-13860197D01*
X10363274Y-13846156D01*
X10361150Y-13831838D01*
X10360440Y-13817380D01*
X10360440Y-13472380D01*
X10361150Y-13457922D01*
X10363274Y-13443604D01*
X10366791Y-13429563D01*
X10371668Y-13415934D01*
X10377857Y-13402849D01*
X10385298Y-13390433D01*
X10393921Y-13378807D01*
X10403642Y-13368082D01*
X10414367Y-13358361D01*
X10425993Y-13349738D01*
X10438409Y-13342297D01*
X10451494Y-13336108D01*
X10465123Y-13331231D01*
X10479164Y-13327714D01*
X10493482Y-13325590D01*
X10507940Y-13324880D01*
X10802940Y-13324880D01*
X10817398Y-13325590D01*
G37*
G36*
X16275578Y-13048730D02*
G01*
X16289896Y-13050854D01*
X16303937Y-13054371D01*
X16317566Y-13059248D01*
X16330651Y-13065437D01*
X16343067Y-13072878D01*
X16354693Y-13081501D01*
X16365418Y-13091222D01*
X16375139Y-13101947D01*
X16383762Y-13113573D01*
X16391203Y-13125989D01*
X16397392Y-13139074D01*
X16402269Y-13152703D01*
X16405786Y-13166744D01*
X16407910Y-13181062D01*
X16408620Y-13195520D01*
X16408620Y-13540520D01*
X16407910Y-13554978D01*
X16405786Y-13569296D01*
X16402269Y-13583337D01*
X16397392Y-13596966D01*
X16391203Y-13610051D01*
X16383762Y-13622467D01*
X16375139Y-13634093D01*
X16365418Y-13644818D01*
X16354693Y-13654539D01*
X16343067Y-13663162D01*
X16330651Y-13670603D01*
X16317566Y-13676792D01*
X16303937Y-13681669D01*
X16289896Y-13685186D01*
X16275578Y-13687310D01*
X16261120Y-13688020D01*
X15966120Y-13688020D01*
X15951662Y-13687310D01*
X15937344Y-13685186D01*
X15923303Y-13681669D01*
X15909674Y-13676792D01*
X15896589Y-13670603D01*
X15884173Y-13663162D01*
X15872547Y-13654539D01*
X15861822Y-13644818D01*
X15852101Y-13634093D01*
X15843478Y-13622467D01*
X15836037Y-13610051D01*
X15829848Y-13596966D01*
X15824971Y-13583337D01*
X15821454Y-13569296D01*
X15819330Y-13554978D01*
X15818620Y-13540520D01*
X15818620Y-13195520D01*
X15819330Y-13181062D01*
X15821454Y-13166744D01*
X15824971Y-13152703D01*
X15829848Y-13139074D01*
X15836037Y-13125989D01*
X15843478Y-13113573D01*
X15852101Y-13101947D01*
X15861822Y-13091222D01*
X15872547Y-13081501D01*
X15884173Y-13072878D01*
X15896589Y-13065437D01*
X15909674Y-13059248D01*
X15923303Y-13054371D01*
X15937344Y-13050854D01*
X15951662Y-13048730D01*
X15966120Y-13048020D01*
X16261120Y-13048020D01*
X16275578Y-13048730D01*
G37*
G36*
X15305578Y-13048730D02*
G01*
X15319896Y-13050854D01*
X15333937Y-13054371D01*
X15347566Y-13059248D01*
X15360651Y-13065437D01*
X15373067Y-13072878D01*
X15384693Y-13081501D01*
X15395418Y-13091222D01*
X15405139Y-13101947D01*
X15413762Y-13113573D01*
X15421203Y-13125989D01*
X15427392Y-13139074D01*
X15432269Y-13152703D01*
X15435786Y-13166744D01*
X15437910Y-13181062D01*
X15438620Y-13195520D01*
X15438620Y-13540520D01*
X15437910Y-13554978D01*
X15435786Y-13569296D01*
X15432269Y-13583337D01*
X15427392Y-13596966D01*
X15421203Y-13610051D01*
X15413762Y-13622467D01*
X15405139Y-13634093D01*
X15395418Y-13644818D01*
X15384693Y-13654539D01*
X15373067Y-13663162D01*
X15360651Y-13670603D01*
X15347566Y-13676792D01*
X15333937Y-13681669D01*
X15319896Y-13685186D01*
X15305578Y-13687310D01*
X15291120Y-13688020D01*
X14996120Y-13688020D01*
X14981662Y-13687310D01*
X14967344Y-13685186D01*
X14953303Y-13681669D01*
X14939674Y-13676792D01*
X14926589Y-13670603D01*
X14914173Y-13663162D01*
X14902547Y-13654539D01*
X14891822Y-13644818D01*
X14882101Y-13634093D01*
X14873478Y-13622467D01*
X14866037Y-13610051D01*
X14859848Y-13596966D01*
X14854971Y-13583337D01*
X14851454Y-13569296D01*
X14849330Y-13554978D01*
X14848620Y-13540520D01*
X14848620Y-13195520D01*
X14849330Y-13181062D01*
X14851454Y-13166744D01*
X14854971Y-13152703D01*
X14859848Y-13139074D01*
X14866037Y-13125989D01*
X14873478Y-13113573D01*
X14882101Y-13101947D01*
X14891822Y-13091222D01*
X14902547Y-13081501D01*
X14914173Y-13072878D01*
X14926589Y-13065437D01*
X14939674Y-13059248D01*
X14953303Y-13054371D01*
X14967344Y-13050854D01*
X14981662Y-13048730D01*
X14996120Y-13048020D01*
X15291120Y-13048020D01*
X15305578Y-13048730D01*
G37*
G36*
X13062338Y-11997170D02*
G01*
X13076656Y-11999294D01*
X13090697Y-12002811D01*
X13104326Y-12007688D01*
X13117411Y-12013877D01*
X13129827Y-12021318D01*
X13141453Y-12029941D01*
X13152178Y-12039662D01*
X13161899Y-12050387D01*
X13170522Y-12062013D01*
X13177963Y-12074429D01*
X13184152Y-12087514D01*
X13189029Y-12101143D01*
X13192546Y-12115184D01*
X13194670Y-12129502D01*
X13195380Y-12143960D01*
X13195380Y-12488960D01*
X13194670Y-12503418D01*
X13192546Y-12517736D01*
X13189029Y-12531777D01*
X13184152Y-12545406D01*
X13177963Y-12558491D01*
X13170522Y-12570907D01*
X13161899Y-12582533D01*
X13152178Y-12593258D01*
X13141453Y-12602979D01*
X13129827Y-12611602D01*
X13117411Y-12619043D01*
X13104326Y-12625232D01*
X13090697Y-12630109D01*
X13076656Y-12633626D01*
X13062338Y-12635750D01*
X13047880Y-12636460D01*
X12752880Y-12636460D01*
X12738422Y-12635750D01*
X12724104Y-12633626D01*
X12710063Y-12630109D01*
X12696434Y-12625232D01*
X12683349Y-12619043D01*
X12670933Y-12611602D01*
X12659307Y-12602979D01*
X12648582Y-12593258D01*
X12638861Y-12582533D01*
X12630238Y-12570907D01*
X12622797Y-12558491D01*
X12616608Y-12545406D01*
X12611731Y-12531777D01*
X12608214Y-12517736D01*
X12606090Y-12503418D01*
X12605380Y-12488960D01*
X12605380Y-12143960D01*
X12606090Y-12129502D01*
X12608214Y-12115184D01*
X12611731Y-12101143D01*
X12616608Y-12087514D01*
X12622797Y-12074429D01*
X12630238Y-12062013D01*
X12638861Y-12050387D01*
X12648582Y-12039662D01*
X12659307Y-12029941D01*
X12670933Y-12021318D01*
X12683349Y-12013877D01*
X12696434Y-12007688D01*
X12710063Y-12002811D01*
X12724104Y-11999294D01*
X12738422Y-11997170D01*
X12752880Y-11996460D01*
X13047880Y-11996460D01*
X13062338Y-11997170D01*
G37*
G36*
X12092338Y-11997170D02*
G01*
X12106656Y-11999294D01*
X12120697Y-12002811D01*
X12134326Y-12007688D01*
X12147411Y-12013877D01*
X12159827Y-12021318D01*
X12171453Y-12029941D01*
X12182178Y-12039662D01*
X12191899Y-12050387D01*
X12200522Y-12062013D01*
X12207963Y-12074429D01*
X12214152Y-12087514D01*
X12219029Y-12101143D01*
X12222546Y-12115184D01*
X12224670Y-12129502D01*
X12225380Y-12143960D01*
X12225380Y-12488960D01*
X12224670Y-12503418D01*
X12222546Y-12517736D01*
X12219029Y-12531777D01*
X12214152Y-12545406D01*
X12207963Y-12558491D01*
X12200522Y-12570907D01*
X12191899Y-12582533D01*
X12182178Y-12593258D01*
X12171453Y-12602979D01*
X12159827Y-12611602D01*
X12147411Y-12619043D01*
X12134326Y-12625232D01*
X12120697Y-12630109D01*
X12106656Y-12633626D01*
X12092338Y-12635750D01*
X12077880Y-12636460D01*
X11782880Y-12636460D01*
X11768422Y-12635750D01*
X11754104Y-12633626D01*
X11740063Y-12630109D01*
X11726434Y-12625232D01*
X11713349Y-12619043D01*
X11700933Y-12611602D01*
X11689307Y-12602979D01*
X11678582Y-12593258D01*
X11668861Y-12582533D01*
X11660238Y-12570907D01*
X11652797Y-12558491D01*
X11646608Y-12545406D01*
X11641731Y-12531777D01*
X11638214Y-12517736D01*
X11636090Y-12503418D01*
X11635380Y-12488960D01*
X11635380Y-12143960D01*
X11636090Y-12129502D01*
X11638214Y-12115184D01*
X11641731Y-12101143D01*
X11646608Y-12087514D01*
X11652797Y-12074429D01*
X11660238Y-12062013D01*
X11668861Y-12050387D01*
X11678582Y-12039662D01*
X11689307Y-12029941D01*
X11700933Y-12021318D01*
X11713349Y-12013877D01*
X11726434Y-12007688D01*
X11740063Y-12002811D01*
X11754104Y-11999294D01*
X11768422Y-11997170D01*
X11782880Y-11996460D01*
X12077880Y-11996460D01*
X12092338Y-11997170D01*
G37*
G36*
X16288418Y-14011390D02*
G01*
X16302736Y-14013514D01*
X16316777Y-14017031D01*
X16330406Y-14021908D01*
X16343491Y-14028097D01*
X16355907Y-14035538D01*
X16367533Y-14044161D01*
X16378258Y-14053882D01*
X16387979Y-14064607D01*
X16396602Y-14076233D01*
X16404043Y-14088649D01*
X16410232Y-14101734D01*
X16415109Y-14115363D01*
X16418626Y-14129404D01*
X16420750Y-14143722D01*
X16421460Y-14158180D01*
X16421460Y-14503180D01*
X16420750Y-14517638D01*
X16418626Y-14531956D01*
X16415109Y-14545997D01*
X16410232Y-14559626D01*
X16404043Y-14572711D01*
X16396602Y-14585127D01*
X16387979Y-14596753D01*
X16378258Y-14607478D01*
X16367533Y-14617199D01*
X16355907Y-14625822D01*
X16343491Y-14633263D01*
X16330406Y-14639452D01*
X16316777Y-14644329D01*
X16302736Y-14647846D01*
X16288418Y-14649970D01*
X16273960Y-14650680D01*
X15978960Y-14650680D01*
X15964502Y-14649970D01*
X15950184Y-14647846D01*
X15936143Y-14644329D01*
X15922514Y-14639452D01*
X15909429Y-14633263D01*
X15897013Y-14625822D01*
X15885387Y-14617199D01*
X15874662Y-14607478D01*
X15864941Y-14596753D01*
X15856318Y-14585127D01*
X15848877Y-14572711D01*
X15842688Y-14559626D01*
X15837811Y-14545997D01*
X15834294Y-14531956D01*
X15832170Y-14517638D01*
X15831460Y-14503180D01*
X15831460Y-14158180D01*
X15832170Y-14143722D01*
X15834294Y-14129404D01*
X15837811Y-14115363D01*
X15842688Y-14101734D01*
X15848877Y-14088649D01*
X15856318Y-14076233D01*
X15864941Y-14064607D01*
X15874662Y-14053882D01*
X15885387Y-14044161D01*
X15897013Y-14035538D01*
X15909429Y-14028097D01*
X15922514Y-14021908D01*
X15936143Y-14017031D01*
X15950184Y-14013514D01*
X15964502Y-14011390D01*
X15978960Y-14010680D01*
X16273960Y-14010680D01*
X16288418Y-14011390D01*
G37*
G36*
X15318418Y-14011390D02*
G01*
X15332736Y-14013514D01*
X15346777Y-14017031D01*
X15360406Y-14021908D01*
X15373491Y-14028097D01*
X15385907Y-14035538D01*
X15397533Y-14044161D01*
X15408258Y-14053882D01*
X15417979Y-14064607D01*
X15426602Y-14076233D01*
X15434043Y-14088649D01*
X15440232Y-14101734D01*
X15445109Y-14115363D01*
X15448626Y-14129404D01*
X15450750Y-14143722D01*
X15451460Y-14158180D01*
X15451460Y-14503180D01*
X15450750Y-14517638D01*
X15448626Y-14531956D01*
X15445109Y-14545997D01*
X15440232Y-14559626D01*
X15434043Y-14572711D01*
X15426602Y-14585127D01*
X15417979Y-14596753D01*
X15408258Y-14607478D01*
X15397533Y-14617199D01*
X15385907Y-14625822D01*
X15373491Y-14633263D01*
X15360406Y-14639452D01*
X15346777Y-14644329D01*
X15332736Y-14647846D01*
X15318418Y-14649970D01*
X15303960Y-14650680D01*
X15008960Y-14650680D01*
X14994502Y-14649970D01*
X14980184Y-14647846D01*
X14966143Y-14644329D01*
X14952514Y-14639452D01*
X14939429Y-14633263D01*
X14927013Y-14625822D01*
X14915387Y-14617199D01*
X14904662Y-14607478D01*
X14894941Y-14596753D01*
X14886318Y-14585127D01*
X14878877Y-14572711D01*
X14872688Y-14559626D01*
X14867811Y-14545997D01*
X14864294Y-14531956D01*
X14862170Y-14517638D01*
X14861460Y-14503180D01*
X14861460Y-14158180D01*
X14862170Y-14143722D01*
X14864294Y-14129404D01*
X14867811Y-14115363D01*
X14872688Y-14101734D01*
X14878877Y-14088649D01*
X14886318Y-14076233D01*
X14894941Y-14064607D01*
X14904662Y-14053882D01*
X14915387Y-14044161D01*
X14927013Y-14035538D01*
X14939429Y-14028097D01*
X14952514Y-14021908D01*
X14966143Y-14017031D01*
X14980184Y-14013514D01*
X14994502Y-14011390D01*
X15008960Y-14010680D01*
X15303960Y-14010680D01*
X15318418Y-14011390D01*
G37*
G36*
X13992538Y-10986250D02*
G01*
X14006856Y-10988374D01*
X14020897Y-10991891D01*
X14034526Y-10996768D01*
X14047611Y-11002957D01*
X14060027Y-11010398D01*
X14071653Y-11019021D01*
X14082378Y-11028742D01*
X14092099Y-11039467D01*
X14100722Y-11051093D01*
X14108163Y-11063509D01*
X14114352Y-11076594D01*
X14119229Y-11090223D01*
X14122746Y-11104264D01*
X14124870Y-11118582D01*
X14125580Y-11133040D01*
X14125580Y-11478040D01*
X14124870Y-11492498D01*
X14122746Y-11506816D01*
X14119229Y-11520857D01*
X14114352Y-11534486D01*
X14108163Y-11547571D01*
X14100722Y-11559987D01*
X14092099Y-11571613D01*
X14082378Y-11582338D01*
X14071653Y-11592059D01*
X14060027Y-11600682D01*
X14047611Y-11608123D01*
X14034526Y-11614312D01*
X14020897Y-11619189D01*
X14006856Y-11622706D01*
X13992538Y-11624830D01*
X13978080Y-11625540D01*
X13683080Y-11625540D01*
X13668622Y-11624830D01*
X13654304Y-11622706D01*
X13640263Y-11619189D01*
X13626634Y-11614312D01*
X13613549Y-11608123D01*
X13601133Y-11600682D01*
X13589507Y-11592059D01*
X13578782Y-11582338D01*
X13569061Y-11571613D01*
X13560438Y-11559987D01*
X13552997Y-11547571D01*
X13546808Y-11534486D01*
X13541931Y-11520857D01*
X13538414Y-11506816D01*
X13536290Y-11492498D01*
X13535580Y-11478040D01*
X13535580Y-11133040D01*
X13536290Y-11118582D01*
X13538414Y-11104264D01*
X13541931Y-11090223D01*
X13546808Y-11076594D01*
X13552997Y-11063509D01*
X13560438Y-11051093D01*
X13569061Y-11039467D01*
X13578782Y-11028742D01*
X13589507Y-11019021D01*
X13601133Y-11010398D01*
X13613549Y-11002957D01*
X13626634Y-10996768D01*
X13640263Y-10991891D01*
X13654304Y-10988374D01*
X13668622Y-10986250D01*
X13683080Y-10985540D01*
X13978080Y-10985540D01*
X13992538Y-10986250D01*
G37*
G36*
X14962538Y-10986250D02*
G01*
X14976856Y-10988374D01*
X14990897Y-10991891D01*
X15004526Y-10996768D01*
X15017611Y-11002957D01*
X15030027Y-11010398D01*
X15041653Y-11019021D01*
X15052378Y-11028742D01*
X15062099Y-11039467D01*
X15070722Y-11051093D01*
X15078163Y-11063509D01*
X15084352Y-11076594D01*
X15089229Y-11090223D01*
X15092746Y-11104264D01*
X15094870Y-11118582D01*
X15095580Y-11133040D01*
X15095580Y-11478040D01*
X15094870Y-11492498D01*
X15092746Y-11506816D01*
X15089229Y-11520857D01*
X15084352Y-11534486D01*
X15078163Y-11547571D01*
X15070722Y-11559987D01*
X15062099Y-11571613D01*
X15052378Y-11582338D01*
X15041653Y-11592059D01*
X15030027Y-11600682D01*
X15017611Y-11608123D01*
X15004526Y-11614312D01*
X14990897Y-11619189D01*
X14976856Y-11622706D01*
X14962538Y-11624830D01*
X14948080Y-11625540D01*
X14653080Y-11625540D01*
X14638622Y-11624830D01*
X14624304Y-11622706D01*
X14610263Y-11619189D01*
X14596634Y-11614312D01*
X14583549Y-11608123D01*
X14571133Y-11600682D01*
X14559507Y-11592059D01*
X14548782Y-11582338D01*
X14539061Y-11571613D01*
X14530438Y-11559987D01*
X14522997Y-11547571D01*
X14516808Y-11534486D01*
X14511931Y-11520857D01*
X14508414Y-11506816D01*
X14506290Y-11492498D01*
X14505580Y-11478040D01*
X14505580Y-11133040D01*
X14506290Y-11118582D01*
X14508414Y-11104264D01*
X14511931Y-11090223D01*
X14516808Y-11076594D01*
X14522997Y-11063509D01*
X14530438Y-11051093D01*
X14539061Y-11039467D01*
X14548782Y-11028742D01*
X14559507Y-11019021D01*
X14571133Y-11010398D01*
X14583549Y-11002957D01*
X14596634Y-10996768D01*
X14610263Y-10991891D01*
X14624304Y-10988374D01*
X14638622Y-10986250D01*
X14653080Y-10985540D01*
X14948080Y-10985540D01*
X14962538Y-10986250D01*
G37*
G36*
X13689598Y-18979370D02*
G01*
X13703916Y-18981494D01*
X13717957Y-18985011D01*
X13731586Y-18989888D01*
X13744671Y-18996077D01*
X13757087Y-19003518D01*
X13768713Y-19012141D01*
X13779438Y-19021862D01*
X13789159Y-19032587D01*
X13797782Y-19044213D01*
X13805223Y-19056629D01*
X13811412Y-19069714D01*
X13816289Y-19083343D01*
X13819806Y-19097384D01*
X13821930Y-19111702D01*
X13822640Y-19126160D01*
X13822640Y-19421160D01*
X13821930Y-19435618D01*
X13819806Y-19449936D01*
X13816289Y-19463977D01*
X13811412Y-19477606D01*
X13805223Y-19490691D01*
X13797782Y-19503107D01*
X13789159Y-19514733D01*
X13779438Y-19525458D01*
X13768713Y-19535179D01*
X13757087Y-19543802D01*
X13744671Y-19551243D01*
X13731586Y-19557432D01*
X13717957Y-19562309D01*
X13703916Y-19565826D01*
X13689598Y-19567950D01*
X13675140Y-19568660D01*
X13330140Y-19568660D01*
X13315682Y-19567950D01*
X13301364Y-19565826D01*
X13287323Y-19562309D01*
X13273694Y-19557432D01*
X13260609Y-19551243D01*
X13248193Y-19543802D01*
X13236567Y-19535179D01*
X13225842Y-19525458D01*
X13216121Y-19514733D01*
X13207498Y-19503107D01*
X13200057Y-19490691D01*
X13193868Y-19477606D01*
X13188991Y-19463977D01*
X13185474Y-19449936D01*
X13183350Y-19435618D01*
X13182640Y-19421160D01*
X13182640Y-19126160D01*
X13183350Y-19111702D01*
X13185474Y-19097384D01*
X13188991Y-19083343D01*
X13193868Y-19069714D01*
X13200057Y-19056629D01*
X13207498Y-19044213D01*
X13216121Y-19032587D01*
X13225842Y-19021862D01*
X13236567Y-19012141D01*
X13248193Y-19003518D01*
X13260609Y-18996077D01*
X13273694Y-18989888D01*
X13287323Y-18985011D01*
X13301364Y-18981494D01*
X13315682Y-18979370D01*
X13330140Y-18978660D01*
X13675140Y-18978660D01*
X13689598Y-18979370D01*
G37*
G36*
X13689598Y-19949370D02*
G01*
X13703916Y-19951494D01*
X13717957Y-19955011D01*
X13731586Y-19959888D01*
X13744671Y-19966077D01*
X13757087Y-19973518D01*
X13768713Y-19982141D01*
X13779438Y-19991862D01*
X13789159Y-20002587D01*
X13797782Y-20014213D01*
X13805223Y-20026629D01*
X13811412Y-20039714D01*
X13816289Y-20053343D01*
X13819806Y-20067384D01*
X13821930Y-20081702D01*
X13822640Y-20096160D01*
X13822640Y-20391160D01*
X13821930Y-20405618D01*
X13819806Y-20419936D01*
X13816289Y-20433977D01*
X13811412Y-20447606D01*
X13805223Y-20460691D01*
X13797782Y-20473107D01*
X13789159Y-20484733D01*
X13779438Y-20495458D01*
X13768713Y-20505179D01*
X13757087Y-20513802D01*
X13744671Y-20521243D01*
X13731586Y-20527432D01*
X13717957Y-20532309D01*
X13703916Y-20535826D01*
X13689598Y-20537950D01*
X13675140Y-20538660D01*
X13330140Y-20538660D01*
X13315682Y-20537950D01*
X13301364Y-20535826D01*
X13287323Y-20532309D01*
X13273694Y-20527432D01*
X13260609Y-20521243D01*
X13248193Y-20513802D01*
X13236567Y-20505179D01*
X13225842Y-20495458D01*
X13216121Y-20484733D01*
X13207498Y-20473107D01*
X13200057Y-20460691D01*
X13193868Y-20447606D01*
X13188991Y-20433977D01*
X13185474Y-20419936D01*
X13183350Y-20405618D01*
X13182640Y-20391160D01*
X13182640Y-20096160D01*
X13183350Y-20081702D01*
X13185474Y-20067384D01*
X13188991Y-20053343D01*
X13193868Y-20039714D01*
X13200057Y-20026629D01*
X13207498Y-20014213D01*
X13216121Y-20002587D01*
X13225842Y-19991862D01*
X13236567Y-19982141D01*
X13248193Y-19973518D01*
X13260609Y-19966077D01*
X13273694Y-19959888D01*
X13287323Y-19955011D01*
X13301364Y-19951494D01*
X13315682Y-19949370D01*
X13330140Y-19948660D01*
X13675140Y-19948660D01*
X13689598Y-19949370D01*
G37*
G36*
X15625478Y-18611330D02*
G01*
X15639796Y-18613454D01*
X15653837Y-18616971D01*
X15667466Y-18621848D01*
X15680551Y-18628037D01*
X15692967Y-18635478D01*
X15704593Y-18644101D01*
X15715318Y-18653822D01*
X15725039Y-18664547D01*
X15733662Y-18676173D01*
X15741103Y-18688589D01*
X15747292Y-18701674D01*
X15752169Y-18715303D01*
X15755686Y-18729344D01*
X15757810Y-18743662D01*
X15758520Y-18758120D01*
X15758520Y-19103120D01*
X15757810Y-19117578D01*
X15755686Y-19131896D01*
X15752169Y-19145937D01*
X15747292Y-19159566D01*
X15741103Y-19172651D01*
X15733662Y-19185067D01*
X15725039Y-19196693D01*
X15715318Y-19207418D01*
X15704593Y-19217139D01*
X15692967Y-19225762D01*
X15680551Y-19233203D01*
X15667466Y-19239392D01*
X15653837Y-19244269D01*
X15639796Y-19247786D01*
X15625478Y-19249910D01*
X15611020Y-19250620D01*
X15316020Y-19250620D01*
X15301562Y-19249910D01*
X15287244Y-19247786D01*
X15273203Y-19244269D01*
X15259574Y-19239392D01*
X15246489Y-19233203D01*
X15234073Y-19225762D01*
X15222447Y-19217139D01*
X15211722Y-19207418D01*
X15202001Y-19196693D01*
X15193378Y-19185067D01*
X15185937Y-19172651D01*
X15179748Y-19159566D01*
X15174871Y-19145937D01*
X15171354Y-19131896D01*
X15169230Y-19117578D01*
X15168520Y-19103120D01*
X15168520Y-18758120D01*
X15169230Y-18743662D01*
X15171354Y-18729344D01*
X15174871Y-18715303D01*
X15179748Y-18701674D01*
X15185937Y-18688589D01*
X15193378Y-18676173D01*
X15202001Y-18664547D01*
X15211722Y-18653822D01*
X15222447Y-18644101D01*
X15234073Y-18635478D01*
X15246489Y-18628037D01*
X15259574Y-18621848D01*
X15273203Y-18616971D01*
X15287244Y-18613454D01*
X15301562Y-18611330D01*
X15316020Y-18610620D01*
X15611020Y-18610620D01*
X15625478Y-18611330D01*
G37*
G36*
X14655478Y-18611330D02*
G01*
X14669796Y-18613454D01*
X14683837Y-18616971D01*
X14697466Y-18621848D01*
X14710551Y-18628037D01*
X14722967Y-18635478D01*
X14734593Y-18644101D01*
X14745318Y-18653822D01*
X14755039Y-18664547D01*
X14763662Y-18676173D01*
X14771103Y-18688589D01*
X14777292Y-18701674D01*
X14782169Y-18715303D01*
X14785686Y-18729344D01*
X14787810Y-18743662D01*
X14788520Y-18758120D01*
X14788520Y-19103120D01*
X14787810Y-19117578D01*
X14785686Y-19131896D01*
X14782169Y-19145937D01*
X14777292Y-19159566D01*
X14771103Y-19172651D01*
X14763662Y-19185067D01*
X14755039Y-19196693D01*
X14745318Y-19207418D01*
X14734593Y-19217139D01*
X14722967Y-19225762D01*
X14710551Y-19233203D01*
X14697466Y-19239392D01*
X14683837Y-19244269D01*
X14669796Y-19247786D01*
X14655478Y-19249910D01*
X14641020Y-19250620D01*
X14346020Y-19250620D01*
X14331562Y-19249910D01*
X14317244Y-19247786D01*
X14303203Y-19244269D01*
X14289574Y-19239392D01*
X14276489Y-19233203D01*
X14264073Y-19225762D01*
X14252447Y-19217139D01*
X14241722Y-19207418D01*
X14232001Y-19196693D01*
X14223378Y-19185067D01*
X14215937Y-19172651D01*
X14209748Y-19159566D01*
X14204871Y-19145937D01*
X14201354Y-19131896D01*
X14199230Y-19117578D01*
X14198520Y-19103120D01*
X14198520Y-18758120D01*
X14199230Y-18743662D01*
X14201354Y-18729344D01*
X14204871Y-18715303D01*
X14209748Y-18701674D01*
X14215937Y-18688589D01*
X14223378Y-18676173D01*
X14232001Y-18664547D01*
X14241722Y-18653822D01*
X14252447Y-18644101D01*
X14264073Y-18635478D01*
X14276489Y-18628037D01*
X14289574Y-18621848D01*
X14303203Y-18616971D01*
X14317244Y-18613454D01*
X14331562Y-18611330D01*
X14346020Y-18610620D01*
X14641020Y-18610620D01*
X14655478Y-18611330D01*
G37*
G36*
X3692558Y-9436850D02*
G01*
X3706876Y-9438974D01*
X3720917Y-9442491D01*
X3734546Y-9447368D01*
X3747631Y-9453557D01*
X3760047Y-9460998D01*
X3771673Y-9469621D01*
X3782398Y-9479342D01*
X3792119Y-9490067D01*
X3800742Y-9501693D01*
X3808183Y-9514109D01*
X3814372Y-9527194D01*
X3819249Y-9540823D01*
X3822766Y-9554864D01*
X3824890Y-9569182D01*
X3825600Y-9583640D01*
X3825600Y-9928640D01*
X3824890Y-9943098D01*
X3822766Y-9957416D01*
X3819249Y-9971457D01*
X3814372Y-9985086D01*
X3808183Y-9998171D01*
X3800742Y-10010587D01*
X3792119Y-10022213D01*
X3782398Y-10032938D01*
X3771673Y-10042659D01*
X3760047Y-10051282D01*
X3747631Y-10058723D01*
X3734546Y-10064912D01*
X3720917Y-10069789D01*
X3706876Y-10073306D01*
X3692558Y-10075430D01*
X3678100Y-10076140D01*
X3383100Y-10076140D01*
X3368642Y-10075430D01*
X3354324Y-10073306D01*
X3340283Y-10069789D01*
X3326654Y-10064912D01*
X3313569Y-10058723D01*
X3301153Y-10051282D01*
X3289527Y-10042659D01*
X3278802Y-10032938D01*
X3269081Y-10022213D01*
X3260458Y-10010587D01*
X3253017Y-9998171D01*
X3246828Y-9985086D01*
X3241951Y-9971457D01*
X3238434Y-9957416D01*
X3236310Y-9943098D01*
X3235600Y-9928640D01*
X3235600Y-9583640D01*
X3236310Y-9569182D01*
X3238434Y-9554864D01*
X3241951Y-9540823D01*
X3246828Y-9527194D01*
X3253017Y-9514109D01*
X3260458Y-9501693D01*
X3269081Y-9490067D01*
X3278802Y-9479342D01*
X3289527Y-9469621D01*
X3301153Y-9460998D01*
X3313569Y-9453557D01*
X3326654Y-9447368D01*
X3340283Y-9442491D01*
X3354324Y-9438974D01*
X3368642Y-9436850D01*
X3383100Y-9436140D01*
X3678100Y-9436140D01*
X3692558Y-9436850D01*
G37*
G36*
X4662558Y-9436850D02*
G01*
X4676876Y-9438974D01*
X4690917Y-9442491D01*
X4704546Y-9447368D01*
X4717631Y-9453557D01*
X4730047Y-9460998D01*
X4741673Y-9469621D01*
X4752398Y-9479342D01*
X4762119Y-9490067D01*
X4770742Y-9501693D01*
X4778183Y-9514109D01*
X4784372Y-9527194D01*
X4789249Y-9540823D01*
X4792766Y-9554864D01*
X4794890Y-9569182D01*
X4795600Y-9583640D01*
X4795600Y-9928640D01*
X4794890Y-9943098D01*
X4792766Y-9957416D01*
X4789249Y-9971457D01*
X4784372Y-9985086D01*
X4778183Y-9998171D01*
X4770742Y-10010587D01*
X4762119Y-10022213D01*
X4752398Y-10032938D01*
X4741673Y-10042659D01*
X4730047Y-10051282D01*
X4717631Y-10058723D01*
X4704546Y-10064912D01*
X4690917Y-10069789D01*
X4676876Y-10073306D01*
X4662558Y-10075430D01*
X4648100Y-10076140D01*
X4353100Y-10076140D01*
X4338642Y-10075430D01*
X4324324Y-10073306D01*
X4310283Y-10069789D01*
X4296654Y-10064912D01*
X4283569Y-10058723D01*
X4271153Y-10051282D01*
X4259527Y-10042659D01*
X4248802Y-10032938D01*
X4239081Y-10022213D01*
X4230458Y-10010587D01*
X4223017Y-9998171D01*
X4216828Y-9985086D01*
X4211951Y-9971457D01*
X4208434Y-9957416D01*
X4206310Y-9943098D01*
X4205600Y-9928640D01*
X4205600Y-9583640D01*
X4206310Y-9569182D01*
X4208434Y-9554864D01*
X4211951Y-9540823D01*
X4216828Y-9527194D01*
X4223017Y-9514109D01*
X4230458Y-9501693D01*
X4239081Y-9490067D01*
X4248802Y-9479342D01*
X4259527Y-9469621D01*
X4271153Y-9460998D01*
X4283569Y-9453557D01*
X4296654Y-9447368D01*
X4310283Y-9442491D01*
X4324324Y-9438974D01*
X4338642Y-9436850D01*
X4353100Y-9436140D01*
X4648100Y-9436140D01*
X4662558Y-9436850D01*
G37*
G36*
X3705398Y-14765770D02*
G01*
X3719716Y-14767894D01*
X3733757Y-14771411D01*
X3747386Y-14776288D01*
X3760471Y-14782477D01*
X3772887Y-14789918D01*
X3784513Y-14798541D01*
X3795238Y-14808262D01*
X3804959Y-14818987D01*
X3813582Y-14830613D01*
X3821023Y-14843029D01*
X3827212Y-14856114D01*
X3832089Y-14869743D01*
X3835606Y-14883784D01*
X3837730Y-14898102D01*
X3838440Y-14912560D01*
X3838440Y-15257560D01*
X3837730Y-15272018D01*
X3835606Y-15286336D01*
X3832089Y-15300377D01*
X3827212Y-15314006D01*
X3821023Y-15327091D01*
X3813582Y-15339507D01*
X3804959Y-15351133D01*
X3795238Y-15361858D01*
X3784513Y-15371579D01*
X3772887Y-15380202D01*
X3760471Y-15387643D01*
X3747386Y-15393832D01*
X3733757Y-15398709D01*
X3719716Y-15402226D01*
X3705398Y-15404350D01*
X3690940Y-15405060D01*
X3395940Y-15405060D01*
X3381482Y-15404350D01*
X3367164Y-15402226D01*
X3353123Y-15398709D01*
X3339494Y-15393832D01*
X3326409Y-15387643D01*
X3313993Y-15380202D01*
X3302367Y-15371579D01*
X3291642Y-15361858D01*
X3281921Y-15351133D01*
X3273298Y-15339507D01*
X3265857Y-15327091D01*
X3259668Y-15314006D01*
X3254791Y-15300377D01*
X3251274Y-15286336D01*
X3249150Y-15272018D01*
X3248440Y-15257560D01*
X3248440Y-14912560D01*
X3249150Y-14898102D01*
X3251274Y-14883784D01*
X3254791Y-14869743D01*
X3259668Y-14856114D01*
X3265857Y-14843029D01*
X3273298Y-14830613D01*
X3281921Y-14818987D01*
X3291642Y-14808262D01*
X3302367Y-14798541D01*
X3313993Y-14789918D01*
X3326409Y-14782477D01*
X3339494Y-14776288D01*
X3353123Y-14771411D01*
X3367164Y-14767894D01*
X3381482Y-14765770D01*
X3395940Y-14765060D01*
X3690940Y-14765060D01*
X3705398Y-14765770D01*
G37*
G36*
X4675398Y-14765770D02*
G01*
X4689716Y-14767894D01*
X4703757Y-14771411D01*
X4717386Y-14776288D01*
X4730471Y-14782477D01*
X4742887Y-14789918D01*
X4754513Y-14798541D01*
X4765238Y-14808262D01*
X4774959Y-14818987D01*
X4783582Y-14830613D01*
X4791023Y-14843029D01*
X4797212Y-14856114D01*
X4802089Y-14869743D01*
X4805606Y-14883784D01*
X4807730Y-14898102D01*
X4808440Y-14912560D01*
X4808440Y-15257560D01*
X4807730Y-15272018D01*
X4805606Y-15286336D01*
X4802089Y-15300377D01*
X4797212Y-15314006D01*
X4791023Y-15327091D01*
X4783582Y-15339507D01*
X4774959Y-15351133D01*
X4765238Y-15361858D01*
X4754513Y-15371579D01*
X4742887Y-15380202D01*
X4730471Y-15387643D01*
X4717386Y-15393832D01*
X4703757Y-15398709D01*
X4689716Y-15402226D01*
X4675398Y-15404350D01*
X4660940Y-15405060D01*
X4365940Y-15405060D01*
X4351482Y-15404350D01*
X4337164Y-15402226D01*
X4323123Y-15398709D01*
X4309494Y-15393832D01*
X4296409Y-15387643D01*
X4283993Y-15380202D01*
X4272367Y-15371579D01*
X4261642Y-15361858D01*
X4251921Y-15351133D01*
X4243298Y-15339507D01*
X4235857Y-15327091D01*
X4229668Y-15314006D01*
X4224791Y-15300377D01*
X4221274Y-15286336D01*
X4219150Y-15272018D01*
X4218440Y-15257560D01*
X4218440Y-14912560D01*
X4219150Y-14898102D01*
X4221274Y-14883784D01*
X4224791Y-14869743D01*
X4229668Y-14856114D01*
X4235857Y-14843029D01*
X4243298Y-14830613D01*
X4251921Y-14818987D01*
X4261642Y-14808262D01*
X4272367Y-14798541D01*
X4283993Y-14789918D01*
X4296409Y-14782477D01*
X4309494Y-14776288D01*
X4323123Y-14771411D01*
X4337164Y-14767894D01*
X4351482Y-14765770D01*
X4365940Y-14765060D01*
X4660940Y-14765060D01*
X4675398Y-14765770D01*
G37*
G36*
X-1514302Y-10836390D02*
G01*
X-1499984Y-10838514D01*
X-1485943Y-10842031D01*
X-1472314Y-10846908D01*
X-1459229Y-10853097D01*
X-1446813Y-10860538D01*
X-1435187Y-10869161D01*
X-1424462Y-10878882D01*
X-1414741Y-10889607D01*
X-1406118Y-10901233D01*
X-1398677Y-10913649D01*
X-1392488Y-10926734D01*
X-1387611Y-10940363D01*
X-1384094Y-10954404D01*
X-1381970Y-10968722D01*
X-1381260Y-10983180D01*
X-1381260Y-11328180D01*
X-1381970Y-11342638D01*
X-1384094Y-11356956D01*
X-1387611Y-11370997D01*
X-1392488Y-11384626D01*
X-1398677Y-11397711D01*
X-1406118Y-11410127D01*
X-1414741Y-11421753D01*
X-1424462Y-11432478D01*
X-1435187Y-11442199D01*
X-1446813Y-11450822D01*
X-1459229Y-11458263D01*
X-1472314Y-11464452D01*
X-1485943Y-11469329D01*
X-1499984Y-11472846D01*
X-1514302Y-11474970D01*
X-1528760Y-11475680D01*
X-1823760Y-11475680D01*
X-1838218Y-11474970D01*
X-1852536Y-11472846D01*
X-1866577Y-11469329D01*
X-1880206Y-11464452D01*
X-1893291Y-11458263D01*
X-1905707Y-11450822D01*
X-1917333Y-11442199D01*
X-1928058Y-11432478D01*
X-1937779Y-11421753D01*
X-1946402Y-11410127D01*
X-1953843Y-11397711D01*
X-1960032Y-11384626D01*
X-1964909Y-11370997D01*
X-1968426Y-11356956D01*
X-1970550Y-11342638D01*
X-1971260Y-11328180D01*
X-1971260Y-10983180D01*
X-1970550Y-10968722D01*
X-1968426Y-10954404D01*
X-1964909Y-10940363D01*
X-1960032Y-10926734D01*
X-1953843Y-10913649D01*
X-1946402Y-10901233D01*
X-1937779Y-10889607D01*
X-1928058Y-10878882D01*
X-1917333Y-10869161D01*
X-1905707Y-10860538D01*
X-1893291Y-10853097D01*
X-1880206Y-10846908D01*
X-1866577Y-10842031D01*
X-1852536Y-10838514D01*
X-1838218Y-10836390D01*
X-1823760Y-10835680D01*
X-1528760Y-10835680D01*
X-1514302Y-10836390D01*
G37*
G36*
X-544302Y-10836390D02*
G01*
X-529984Y-10838514D01*
X-515943Y-10842031D01*
X-502314Y-10846908D01*
X-489229Y-10853097D01*
X-476813Y-10860538D01*
X-465187Y-10869161D01*
X-454462Y-10878882D01*
X-444741Y-10889607D01*
X-436118Y-10901233D01*
X-428677Y-10913649D01*
X-422488Y-10926734D01*
X-417611Y-10940363D01*
X-414094Y-10954404D01*
X-411970Y-10968722D01*
X-411260Y-10983180D01*
X-411260Y-11328180D01*
X-411970Y-11342638D01*
X-414094Y-11356956D01*
X-417611Y-11370997D01*
X-422488Y-11384626D01*
X-428677Y-11397711D01*
X-436118Y-11410127D01*
X-444741Y-11421753D01*
X-454462Y-11432478D01*
X-465187Y-11442199D01*
X-476813Y-11450822D01*
X-489229Y-11458263D01*
X-502314Y-11464452D01*
X-515943Y-11469329D01*
X-529984Y-11472846D01*
X-544302Y-11474970D01*
X-558760Y-11475680D01*
X-853760Y-11475680D01*
X-868218Y-11474970D01*
X-882536Y-11472846D01*
X-896577Y-11469329D01*
X-910206Y-11464452D01*
X-923291Y-11458263D01*
X-935707Y-11450822D01*
X-947333Y-11442199D01*
X-958058Y-11432478D01*
X-967779Y-11421753D01*
X-976402Y-11410127D01*
X-983843Y-11397711D01*
X-990032Y-11384626D01*
X-994909Y-11370997D01*
X-998426Y-11356956D01*
X-1000550Y-11342638D01*
X-1001260Y-11328180D01*
X-1001260Y-10983180D01*
X-1000550Y-10968722D01*
X-998426Y-10954404D01*
X-994909Y-10940363D01*
X-990032Y-10926734D01*
X-983843Y-10913649D01*
X-976402Y-10901233D01*
X-967779Y-10889607D01*
X-958058Y-10878882D01*
X-947333Y-10869161D01*
X-935707Y-10860538D01*
X-923291Y-10853097D01*
X-910206Y-10846908D01*
X-896577Y-10842031D01*
X-882536Y-10838514D01*
X-868218Y-10836390D01*
X-853760Y-10835680D01*
X-558760Y-10835680D01*
X-544302Y-10836390D01*
G37*
G36*
X2307858Y-15695290D02*
G01*
X2322176Y-15697414D01*
X2336217Y-15700931D01*
X2349846Y-15705808D01*
X2362931Y-15711997D01*
X2375347Y-15719438D01*
X2386973Y-15728061D01*
X2397698Y-15737782D01*
X2407419Y-15748507D01*
X2416042Y-15760133D01*
X2423483Y-15772549D01*
X2429672Y-15785634D01*
X2434549Y-15799263D01*
X2438066Y-15813304D01*
X2440190Y-15827622D01*
X2440900Y-15842080D01*
X2440900Y-16137080D01*
X2440190Y-16151538D01*
X2438066Y-16165856D01*
X2434549Y-16179897D01*
X2429672Y-16193526D01*
X2423483Y-16206611D01*
X2416042Y-16219027D01*
X2407419Y-16230653D01*
X2397698Y-16241378D01*
X2386973Y-16251099D01*
X2375347Y-16259722D01*
X2362931Y-16267163D01*
X2349846Y-16273352D01*
X2336217Y-16278229D01*
X2322176Y-16281746D01*
X2307858Y-16283870D01*
X2293400Y-16284580D01*
X1948400Y-16284580D01*
X1933942Y-16283870D01*
X1919624Y-16281746D01*
X1905583Y-16278229D01*
X1891954Y-16273352D01*
X1878869Y-16267163D01*
X1866453Y-16259722D01*
X1854827Y-16251099D01*
X1844102Y-16241378D01*
X1834381Y-16230653D01*
X1825758Y-16219027D01*
X1818317Y-16206611D01*
X1812128Y-16193526D01*
X1807251Y-16179897D01*
X1803734Y-16165856D01*
X1801610Y-16151538D01*
X1800900Y-16137080D01*
X1800900Y-15842080D01*
X1801610Y-15827622D01*
X1803734Y-15813304D01*
X1807251Y-15799263D01*
X1812128Y-15785634D01*
X1818317Y-15772549D01*
X1825758Y-15760133D01*
X1834381Y-15748507D01*
X1844102Y-15737782D01*
X1854827Y-15728061D01*
X1866453Y-15719438D01*
X1878869Y-15711997D01*
X1891954Y-15705808D01*
X1905583Y-15700931D01*
X1919624Y-15697414D01*
X1933942Y-15695290D01*
X1948400Y-15694580D01*
X2293400Y-15694580D01*
X2307858Y-15695290D01*
G37*
G36*
X2307858Y-16665290D02*
G01*
X2322176Y-16667414D01*
X2336217Y-16670931D01*
X2349846Y-16675808D01*
X2362931Y-16681997D01*
X2375347Y-16689438D01*
X2386973Y-16698061D01*
X2397698Y-16707782D01*
X2407419Y-16718507D01*
X2416042Y-16730133D01*
X2423483Y-16742549D01*
X2429672Y-16755634D01*
X2434549Y-16769263D01*
X2438066Y-16783304D01*
X2440190Y-16797622D01*
X2440900Y-16812080D01*
X2440900Y-17107080D01*
X2440190Y-17121538D01*
X2438066Y-17135856D01*
X2434549Y-17149897D01*
X2429672Y-17163526D01*
X2423483Y-17176611D01*
X2416042Y-17189027D01*
X2407419Y-17200653D01*
X2397698Y-17211378D01*
X2386973Y-17221099D01*
X2375347Y-17229722D01*
X2362931Y-17237163D01*
X2349846Y-17243352D01*
X2336217Y-17248229D01*
X2322176Y-17251746D01*
X2307858Y-17253870D01*
X2293400Y-17254580D01*
X1948400Y-17254580D01*
X1933942Y-17253870D01*
X1919624Y-17251746D01*
X1905583Y-17248229D01*
X1891954Y-17243352D01*
X1878869Y-17237163D01*
X1866453Y-17229722D01*
X1854827Y-17221099D01*
X1844102Y-17211378D01*
X1834381Y-17200653D01*
X1825758Y-17189027D01*
X1818317Y-17176611D01*
X1812128Y-17163526D01*
X1807251Y-17149897D01*
X1803734Y-17135856D01*
X1801610Y-17121538D01*
X1800900Y-17107080D01*
X1800900Y-16812080D01*
X1801610Y-16797622D01*
X1803734Y-16783304D01*
X1807251Y-16769263D01*
X1812128Y-16755634D01*
X1818317Y-16742549D01*
X1825758Y-16730133D01*
X1834381Y-16718507D01*
X1844102Y-16707782D01*
X1854827Y-16698061D01*
X1866453Y-16689438D01*
X1878869Y-16681997D01*
X1891954Y-16675808D01*
X1905583Y-16670931D01*
X1919624Y-16667414D01*
X1933942Y-16665290D01*
X1948400Y-16664580D01*
X2293400Y-16664580D01*
X2307858Y-16665290D01*
G37*
G36*
X-1519382Y-9899130D02*
G01*
X-1505064Y-9901254D01*
X-1491023Y-9904771D01*
X-1477394Y-9909648D01*
X-1464309Y-9915837D01*
X-1451893Y-9923278D01*
X-1440267Y-9931901D01*
X-1429542Y-9941622D01*
X-1419821Y-9952347D01*
X-1411198Y-9963973D01*
X-1403757Y-9976389D01*
X-1397568Y-9989474D01*
X-1392691Y-10003103D01*
X-1389174Y-10017144D01*
X-1387050Y-10031462D01*
X-1386340Y-10045920D01*
X-1386340Y-10390920D01*
X-1387050Y-10405378D01*
X-1389174Y-10419696D01*
X-1392691Y-10433737D01*
X-1397568Y-10447366D01*
X-1403757Y-10460451D01*
X-1411198Y-10472867D01*
X-1419821Y-10484493D01*
X-1429542Y-10495218D01*
X-1440267Y-10504939D01*
X-1451893Y-10513562D01*
X-1464309Y-10521003D01*
X-1477394Y-10527192D01*
X-1491023Y-10532069D01*
X-1505064Y-10535586D01*
X-1519382Y-10537710D01*
X-1533840Y-10538420D01*
X-1828840Y-10538420D01*
X-1843298Y-10537710D01*
X-1857616Y-10535586D01*
X-1871657Y-10532069D01*
X-1885286Y-10527192D01*
X-1898371Y-10521003D01*
X-1910787Y-10513562D01*
X-1922413Y-10504939D01*
X-1933138Y-10495218D01*
X-1942859Y-10484493D01*
X-1951482Y-10472867D01*
X-1958923Y-10460451D01*
X-1965112Y-10447366D01*
X-1969989Y-10433737D01*
X-1973506Y-10419696D01*
X-1975630Y-10405378D01*
X-1976340Y-10390920D01*
X-1976340Y-10045920D01*
X-1975630Y-10031462D01*
X-1973506Y-10017144D01*
X-1969989Y-10003103D01*
X-1965112Y-9989474D01*
X-1958923Y-9976389D01*
X-1951482Y-9963973D01*
X-1942859Y-9952347D01*
X-1933138Y-9941622D01*
X-1922413Y-9931901D01*
X-1910787Y-9923278D01*
X-1898371Y-9915837D01*
X-1885286Y-9909648D01*
X-1871657Y-9904771D01*
X-1857616Y-9901254D01*
X-1843298Y-9899130D01*
X-1828840Y-9898420D01*
X-1533840Y-9898420D01*
X-1519382Y-9899130D01*
G37*
G36*
X-549382Y-9899130D02*
G01*
X-535064Y-9901254D01*
X-521023Y-9904771D01*
X-507394Y-9909648D01*
X-494309Y-9915837D01*
X-481893Y-9923278D01*
X-470267Y-9931901D01*
X-459542Y-9941622D01*
X-449821Y-9952347D01*
X-441198Y-9963973D01*
X-433757Y-9976389D01*
X-427568Y-9989474D01*
X-422691Y-10003103D01*
X-419174Y-10017144D01*
X-417050Y-10031462D01*
X-416340Y-10045920D01*
X-416340Y-10390920D01*
X-417050Y-10405378D01*
X-419174Y-10419696D01*
X-422691Y-10433737D01*
X-427568Y-10447366D01*
X-433757Y-10460451D01*
X-441198Y-10472867D01*
X-449821Y-10484493D01*
X-459542Y-10495218D01*
X-470267Y-10504939D01*
X-481893Y-10513562D01*
X-494309Y-10521003D01*
X-507394Y-10527192D01*
X-521023Y-10532069D01*
X-535064Y-10535586D01*
X-549382Y-10537710D01*
X-563840Y-10538420D01*
X-858840Y-10538420D01*
X-873298Y-10537710D01*
X-887616Y-10535586D01*
X-901657Y-10532069D01*
X-915286Y-10527192D01*
X-928371Y-10521003D01*
X-940787Y-10513562D01*
X-952413Y-10504939D01*
X-963138Y-10495218D01*
X-972859Y-10484493D01*
X-981482Y-10472867D01*
X-988923Y-10460451D01*
X-995112Y-10447366D01*
X-999989Y-10433737D01*
X-1003506Y-10419696D01*
X-1005630Y-10405378D01*
X-1006340Y-10390920D01*
X-1006340Y-10045920D01*
X-1005630Y-10031462D01*
X-1003506Y-10017144D01*
X-999989Y-10003103D01*
X-995112Y-9989474D01*
X-988923Y-9976389D01*
X-981482Y-9963973D01*
X-972859Y-9952347D01*
X-963138Y-9941622D01*
X-952413Y-9931901D01*
X-940787Y-9923278D01*
X-928371Y-9915837D01*
X-915286Y-9909648D01*
X-901657Y-9904771D01*
X-887616Y-9901254D01*
X-873298Y-9899130D01*
X-858840Y-9898420D01*
X-563840Y-9898420D01*
X-549382Y-9899130D01*
G37*
G36*
X1347738Y-15710250D02*
G01*
X1362056Y-15712374D01*
X1376097Y-15715891D01*
X1389726Y-15720768D01*
X1402811Y-15726957D01*
X1415227Y-15734398D01*
X1426853Y-15743021D01*
X1437578Y-15752742D01*
X1447299Y-15763467D01*
X1455922Y-15775093D01*
X1463363Y-15787509D01*
X1469552Y-15800594D01*
X1474429Y-15814223D01*
X1477946Y-15828264D01*
X1480070Y-15842582D01*
X1480780Y-15857040D01*
X1480780Y-16152040D01*
X1480070Y-16166498D01*
X1477946Y-16180816D01*
X1474429Y-16194857D01*
X1469552Y-16208486D01*
X1463363Y-16221571D01*
X1455922Y-16233987D01*
X1447299Y-16245613D01*
X1437578Y-16256338D01*
X1426853Y-16266059D01*
X1415227Y-16274682D01*
X1402811Y-16282123D01*
X1389726Y-16288312D01*
X1376097Y-16293189D01*
X1362056Y-16296706D01*
X1347738Y-16298830D01*
X1333280Y-16299540D01*
X988280Y-16299540D01*
X973822Y-16298830D01*
X959504Y-16296706D01*
X945463Y-16293189D01*
X931834Y-16288312D01*
X918749Y-16282123D01*
X906333Y-16274682D01*
X894707Y-16266059D01*
X883982Y-16256338D01*
X874261Y-16245613D01*
X865638Y-16233987D01*
X858197Y-16221571D01*
X852008Y-16208486D01*
X847131Y-16194857D01*
X843614Y-16180816D01*
X841490Y-16166498D01*
X840780Y-16152040D01*
X840780Y-15857040D01*
X841490Y-15842582D01*
X843614Y-15828264D01*
X847131Y-15814223D01*
X852008Y-15800594D01*
X858197Y-15787509D01*
X865638Y-15775093D01*
X874261Y-15763467D01*
X883982Y-15752742D01*
X894707Y-15743021D01*
X906333Y-15734398D01*
X918749Y-15726957D01*
X931834Y-15720768D01*
X945463Y-15715891D01*
X959504Y-15712374D01*
X973822Y-15710250D01*
X988280Y-15709540D01*
X1333280Y-15709540D01*
X1347738Y-15710250D01*
G37*
G36*
X1347738Y-16680250D02*
G01*
X1362056Y-16682374D01*
X1376097Y-16685891D01*
X1389726Y-16690768D01*
X1402811Y-16696957D01*
X1415227Y-16704398D01*
X1426853Y-16713021D01*
X1437578Y-16722742D01*
X1447299Y-16733467D01*
X1455922Y-16745093D01*
X1463363Y-16757509D01*
X1469552Y-16770594D01*
X1474429Y-16784223D01*
X1477946Y-16798264D01*
X1480070Y-16812582D01*
X1480780Y-16827040D01*
X1480780Y-17122040D01*
X1480070Y-17136498D01*
X1477946Y-17150816D01*
X1474429Y-17164857D01*
X1469552Y-17178486D01*
X1463363Y-17191571D01*
X1455922Y-17203987D01*
X1447299Y-17215613D01*
X1437578Y-17226338D01*
X1426853Y-17236059D01*
X1415227Y-17244682D01*
X1402811Y-17252123D01*
X1389726Y-17258312D01*
X1376097Y-17263189D01*
X1362056Y-17266706D01*
X1347738Y-17268830D01*
X1333280Y-17269540D01*
X988280Y-17269540D01*
X973822Y-17268830D01*
X959504Y-17266706D01*
X945463Y-17263189D01*
X931834Y-17258312D01*
X918749Y-17252123D01*
X906333Y-17244682D01*
X894707Y-17236059D01*
X883982Y-17226338D01*
X874261Y-17215613D01*
X865638Y-17203987D01*
X858197Y-17191571D01*
X852008Y-17178486D01*
X847131Y-17164857D01*
X843614Y-17150816D01*
X841490Y-17136498D01*
X840780Y-17122040D01*
X840780Y-16827040D01*
X841490Y-16812582D01*
X843614Y-16798264D01*
X847131Y-16784223D01*
X852008Y-16770594D01*
X858197Y-16757509D01*
X865638Y-16745093D01*
X874261Y-16733467D01*
X883982Y-16722742D01*
X894707Y-16713021D01*
X906333Y-16704398D01*
X918749Y-16696957D01*
X931834Y-16690768D01*
X945463Y-16685891D01*
X959504Y-16682374D01*
X973822Y-16680250D01*
X988280Y-16679540D01*
X1333280Y-16679540D01*
X1347738Y-16680250D01*
G37*
G36*
X2369998Y-9018070D02*
G01*
X2384316Y-9020194D01*
X2398357Y-9023711D01*
X2411986Y-9028588D01*
X2425071Y-9034777D01*
X2437487Y-9042218D01*
X2449113Y-9050841D01*
X2459838Y-9060562D01*
X2469559Y-9071287D01*
X2478182Y-9082913D01*
X2485623Y-9095329D01*
X2491812Y-9108414D01*
X2496689Y-9122043D01*
X2500206Y-9136084D01*
X2502330Y-9150402D01*
X2503040Y-9164860D01*
X2503040Y-9459860D01*
X2502330Y-9474318D01*
X2500206Y-9488636D01*
X2496689Y-9502677D01*
X2491812Y-9516306D01*
X2485623Y-9529391D01*
X2478182Y-9541807D01*
X2469559Y-9553433D01*
X2459838Y-9564158D01*
X2449113Y-9573879D01*
X2437487Y-9582502D01*
X2425071Y-9589943D01*
X2411986Y-9596132D01*
X2398357Y-9601009D01*
X2384316Y-9604526D01*
X2369998Y-9606650D01*
X2355540Y-9607360D01*
X2010540Y-9607360D01*
X1996082Y-9606650D01*
X1981764Y-9604526D01*
X1967723Y-9601009D01*
X1954094Y-9596132D01*
X1941009Y-9589943D01*
X1928593Y-9582502D01*
X1916967Y-9573879D01*
X1906242Y-9564158D01*
X1896521Y-9553433D01*
X1887898Y-9541807D01*
X1880457Y-9529391D01*
X1874268Y-9516306D01*
X1869391Y-9502677D01*
X1865874Y-9488636D01*
X1863750Y-9474318D01*
X1863040Y-9459860D01*
X1863040Y-9164860D01*
X1863750Y-9150402D01*
X1865874Y-9136084D01*
X1869391Y-9122043D01*
X1874268Y-9108414D01*
X1880457Y-9095329D01*
X1887898Y-9082913D01*
X1896521Y-9071287D01*
X1906242Y-9060562D01*
X1916967Y-9050841D01*
X1928593Y-9042218D01*
X1941009Y-9034777D01*
X1954094Y-9028588D01*
X1967723Y-9023711D01*
X1981764Y-9020194D01*
X1996082Y-9018070D01*
X2010540Y-9017360D01*
X2355540Y-9017360D01*
X2369998Y-9018070D01*
G37*
G36*
X2369998Y-8048070D02*
G01*
X2384316Y-8050194D01*
X2398357Y-8053711D01*
X2411986Y-8058588D01*
X2425071Y-8064777D01*
X2437487Y-8072218D01*
X2449113Y-8080841D01*
X2459838Y-8090562D01*
X2469559Y-8101287D01*
X2478182Y-8112913D01*
X2485623Y-8125329D01*
X2491812Y-8138414D01*
X2496689Y-8152043D01*
X2500206Y-8166084D01*
X2502330Y-8180402D01*
X2503040Y-8194860D01*
X2503040Y-8489860D01*
X2502330Y-8504318D01*
X2500206Y-8518636D01*
X2496689Y-8532677D01*
X2491812Y-8546306D01*
X2485623Y-8559391D01*
X2478182Y-8571807D01*
X2469559Y-8583433D01*
X2459838Y-8594158D01*
X2449113Y-8603879D01*
X2437487Y-8612502D01*
X2425071Y-8619943D01*
X2411986Y-8626132D01*
X2398357Y-8631009D01*
X2384316Y-8634526D01*
X2369998Y-8636650D01*
X2355540Y-8637360D01*
X2010540Y-8637360D01*
X1996082Y-8636650D01*
X1981764Y-8634526D01*
X1967723Y-8631009D01*
X1954094Y-8626132D01*
X1941009Y-8619943D01*
X1928593Y-8612502D01*
X1916967Y-8603879D01*
X1906242Y-8594158D01*
X1896521Y-8583433D01*
X1887898Y-8571807D01*
X1880457Y-8559391D01*
X1874268Y-8546306D01*
X1869391Y-8532677D01*
X1865874Y-8518636D01*
X1863750Y-8504318D01*
X1863040Y-8489860D01*
X1863040Y-8194860D01*
X1863750Y-8180402D01*
X1865874Y-8166084D01*
X1869391Y-8152043D01*
X1874268Y-8138414D01*
X1880457Y-8125329D01*
X1887898Y-8112913D01*
X1896521Y-8101287D01*
X1906242Y-8090562D01*
X1916967Y-8080841D01*
X1928593Y-8072218D01*
X1941009Y-8064777D01*
X1954094Y-8058588D01*
X1967723Y-8053711D01*
X1981764Y-8050194D01*
X1996082Y-8048070D01*
X2010540Y-8047360D01*
X2355540Y-8047360D01*
X2369998Y-8048070D01*
G37*
G36*
X481598Y-8054690D02*
G01*
X495916Y-8056814D01*
X509957Y-8060331D01*
X523586Y-8065208D01*
X536671Y-8071397D01*
X549087Y-8078838D01*
X560713Y-8087461D01*
X571438Y-8097182D01*
X581159Y-8107907D01*
X589782Y-8119533D01*
X597223Y-8131949D01*
X603412Y-8145034D01*
X608289Y-8158663D01*
X611806Y-8172704D01*
X613930Y-8187022D01*
X614640Y-8201480D01*
X614640Y-8496480D01*
X613930Y-8510938D01*
X611806Y-8525256D01*
X608289Y-8539297D01*
X603412Y-8552926D01*
X597223Y-8566011D01*
X589782Y-8578427D01*
X581159Y-8590053D01*
X571438Y-8600778D01*
X560713Y-8610499D01*
X549087Y-8619122D01*
X536671Y-8626563D01*
X523586Y-8632752D01*
X509957Y-8637629D01*
X495916Y-8641146D01*
X481598Y-8643270D01*
X467140Y-8643980D01*
X122140Y-8643980D01*
X107682Y-8643270D01*
X93364Y-8641146D01*
X79323Y-8637629D01*
X65694Y-8632752D01*
X52609Y-8626563D01*
X40193Y-8619122D01*
X28567Y-8610499D01*
X17842Y-8600778D01*
X8121Y-8590053D01*
X-502Y-8578427D01*
X-7943Y-8566011D01*
X-14132Y-8552926D01*
X-19009Y-8539297D01*
X-22526Y-8525256D01*
X-24650Y-8510938D01*
X-25360Y-8496480D01*
X-25360Y-8201480D01*
X-24650Y-8187022D01*
X-22526Y-8172704D01*
X-19009Y-8158663D01*
X-14132Y-8145034D01*
X-7943Y-8131949D01*
X-502Y-8119533D01*
X8121Y-8107907D01*
X17842Y-8097182D01*
X28567Y-8087461D01*
X40193Y-8078838D01*
X52609Y-8071397D01*
X65694Y-8065208D01*
X79323Y-8060331D01*
X93364Y-8056814D01*
X107682Y-8054690D01*
X122140Y-8053980D01*
X467140Y-8053980D01*
X481598Y-8054690D01*
G37*
G36*
X481598Y-9024690D02*
G01*
X495916Y-9026814D01*
X509957Y-9030331D01*
X523586Y-9035208D01*
X536671Y-9041397D01*
X549087Y-9048838D01*
X560713Y-9057461D01*
X571438Y-9067182D01*
X581159Y-9077907D01*
X589782Y-9089533D01*
X597223Y-9101949D01*
X603412Y-9115034D01*
X608289Y-9128663D01*
X611806Y-9142704D01*
X613930Y-9157022D01*
X614640Y-9171480D01*
X614640Y-9466480D01*
X613930Y-9480938D01*
X611806Y-9495256D01*
X608289Y-9509297D01*
X603412Y-9522926D01*
X597223Y-9536011D01*
X589782Y-9548427D01*
X581159Y-9560053D01*
X571438Y-9570778D01*
X560713Y-9580499D01*
X549087Y-9589122D01*
X536671Y-9596563D01*
X523586Y-9602752D01*
X509957Y-9607629D01*
X495916Y-9611146D01*
X481598Y-9613270D01*
X467140Y-9613980D01*
X122140Y-9613980D01*
X107682Y-9613270D01*
X93364Y-9611146D01*
X79323Y-9607629D01*
X65694Y-9602752D01*
X52609Y-9596563D01*
X40193Y-9589122D01*
X28567Y-9580499D01*
X17842Y-9570778D01*
X8121Y-9560053D01*
X-502Y-9548427D01*
X-7943Y-9536011D01*
X-14132Y-9522926D01*
X-19009Y-9509297D01*
X-22526Y-9495256D01*
X-24650Y-9480938D01*
X-25360Y-9466480D01*
X-25360Y-9171480D01*
X-24650Y-9157022D01*
X-22526Y-9142704D01*
X-19009Y-9128663D01*
X-14132Y-9115034D01*
X-7943Y-9101949D01*
X-502Y-9089533D01*
X8121Y-9077907D01*
X17842Y-9067182D01*
X28567Y-9057461D01*
X40193Y-9048838D01*
X52609Y-9041397D01*
X65694Y-9035208D01*
X79323Y-9030331D01*
X93364Y-9026814D01*
X107682Y-9024690D01*
X122140Y-9023980D01*
X467140Y-9023980D01*
X481598Y-9024690D01*
G37*
G36*
X15411718Y-16703250D02*
G01*
X15426036Y-16705374D01*
X15440077Y-16708891D01*
X15453706Y-16713768D01*
X15466791Y-16719957D01*
X15479207Y-16727398D01*
X15490833Y-16736021D01*
X15501558Y-16745742D01*
X15511279Y-16756467D01*
X15519902Y-16768093D01*
X15527343Y-16780509D01*
X15533532Y-16793594D01*
X15538409Y-16807223D01*
X15541926Y-16821264D01*
X15544050Y-16835582D01*
X15544760Y-16850040D01*
X15544760Y-17145040D01*
X15544050Y-17159498D01*
X15541926Y-17173816D01*
X15538409Y-17187857D01*
X15533532Y-17201486D01*
X15527343Y-17214571D01*
X15519902Y-17226987D01*
X15511279Y-17238613D01*
X15501558Y-17249338D01*
X15490833Y-17259059D01*
X15479207Y-17267682D01*
X15466791Y-17275123D01*
X15453706Y-17281312D01*
X15440077Y-17286189D01*
X15426036Y-17289706D01*
X15411718Y-17291830D01*
X15397260Y-17292540D01*
X15052260Y-17292540D01*
X15037802Y-17291830D01*
X15023484Y-17289706D01*
X15009443Y-17286189D01*
X14995814Y-17281312D01*
X14982729Y-17275123D01*
X14970313Y-17267682D01*
X14958687Y-17259059D01*
X14947962Y-17249338D01*
X14938241Y-17238613D01*
X14929618Y-17226987D01*
X14922177Y-17214571D01*
X14915988Y-17201486D01*
X14911111Y-17187857D01*
X14907594Y-17173816D01*
X14905470Y-17159498D01*
X14904760Y-17145040D01*
X14904760Y-16850040D01*
X14905470Y-16835582D01*
X14907594Y-16821264D01*
X14911111Y-16807223D01*
X14915988Y-16793594D01*
X14922177Y-16780509D01*
X14929618Y-16768093D01*
X14938241Y-16756467D01*
X14947962Y-16745742D01*
X14958687Y-16736021D01*
X14970313Y-16727398D01*
X14982729Y-16719957D01*
X14995814Y-16713768D01*
X15009443Y-16708891D01*
X15023484Y-16705374D01*
X15037802Y-16703250D01*
X15052260Y-16702540D01*
X15397260Y-16702540D01*
X15411718Y-16703250D01*
G37*
G36*
X15411718Y-15733250D02*
G01*
X15426036Y-15735374D01*
X15440077Y-15738891D01*
X15453706Y-15743768D01*
X15466791Y-15749957D01*
X15479207Y-15757398D01*
X15490833Y-15766021D01*
X15501558Y-15775742D01*
X15511279Y-15786467D01*
X15519902Y-15798093D01*
X15527343Y-15810509D01*
X15533532Y-15823594D01*
X15538409Y-15837223D01*
X15541926Y-15851264D01*
X15544050Y-15865582D01*
X15544760Y-15880040D01*
X15544760Y-16175040D01*
X15544050Y-16189498D01*
X15541926Y-16203816D01*
X15538409Y-16217857D01*
X15533532Y-16231486D01*
X15527343Y-16244571D01*
X15519902Y-16256987D01*
X15511279Y-16268613D01*
X15501558Y-16279338D01*
X15490833Y-16289059D01*
X15479207Y-16297682D01*
X15466791Y-16305123D01*
X15453706Y-16311312D01*
X15440077Y-16316189D01*
X15426036Y-16319706D01*
X15411718Y-16321830D01*
X15397260Y-16322540D01*
X15052260Y-16322540D01*
X15037802Y-16321830D01*
X15023484Y-16319706D01*
X15009443Y-16316189D01*
X14995814Y-16311312D01*
X14982729Y-16305123D01*
X14970313Y-16297682D01*
X14958687Y-16289059D01*
X14947962Y-16279338D01*
X14938241Y-16268613D01*
X14929618Y-16256987D01*
X14922177Y-16244571D01*
X14915988Y-16231486D01*
X14911111Y-16217857D01*
X14907594Y-16203816D01*
X14905470Y-16189498D01*
X14904760Y-16175040D01*
X14904760Y-15880040D01*
X14905470Y-15865582D01*
X14907594Y-15851264D01*
X14911111Y-15837223D01*
X14915988Y-15823594D01*
X14922177Y-15810509D01*
X14929618Y-15798093D01*
X14938241Y-15786467D01*
X14947962Y-15775742D01*
X14958687Y-15766021D01*
X14970313Y-15757398D01*
X14982729Y-15749957D01*
X14995814Y-15743768D01*
X15009443Y-15738891D01*
X15023484Y-15735374D01*
X15037802Y-15733250D01*
X15052260Y-15732540D01*
X15397260Y-15732540D01*
X15411718Y-15733250D01*
G37*
G36*
X15313058Y-12096230D02*
G01*
X15327376Y-12098354D01*
X15341417Y-12101871D01*
X15355046Y-12106748D01*
X15368131Y-12112937D01*
X15380547Y-12120378D01*
X15392173Y-12129001D01*
X15402898Y-12138722D01*
X15412619Y-12149447D01*
X15421242Y-12161073D01*
X15428683Y-12173489D01*
X15434872Y-12186574D01*
X15439749Y-12200203D01*
X15443266Y-12214244D01*
X15445390Y-12228562D01*
X15446100Y-12243020D01*
X15446100Y-12588020D01*
X15445390Y-12602478D01*
X15443266Y-12616796D01*
X15439749Y-12630837D01*
X15434872Y-12644466D01*
X15428683Y-12657551D01*
X15421242Y-12669967D01*
X15412619Y-12681593D01*
X15402898Y-12692318D01*
X15392173Y-12702039D01*
X15380547Y-12710662D01*
X15368131Y-12718103D01*
X15355046Y-12724292D01*
X15341417Y-12729169D01*
X15327376Y-12732686D01*
X15313058Y-12734810D01*
X15298600Y-12735520D01*
X15003600Y-12735520D01*
X14989142Y-12734810D01*
X14974824Y-12732686D01*
X14960783Y-12729169D01*
X14947154Y-12724292D01*
X14934069Y-12718103D01*
X14921653Y-12710662D01*
X14910027Y-12702039D01*
X14899302Y-12692318D01*
X14889581Y-12681593D01*
X14880958Y-12669967D01*
X14873517Y-12657551D01*
X14867328Y-12644466D01*
X14862451Y-12630837D01*
X14858934Y-12616796D01*
X14856810Y-12602478D01*
X14856100Y-12588020D01*
X14856100Y-12243020D01*
X14856810Y-12228562D01*
X14858934Y-12214244D01*
X14862451Y-12200203D01*
X14867328Y-12186574D01*
X14873517Y-12173489D01*
X14880958Y-12161073D01*
X14889581Y-12149447D01*
X14899302Y-12138722D01*
X14910027Y-12129001D01*
X14921653Y-12120378D01*
X14934069Y-12112937D01*
X14947154Y-12106748D01*
X14960783Y-12101871D01*
X14974824Y-12098354D01*
X14989142Y-12096230D01*
X15003600Y-12095520D01*
X15298600Y-12095520D01*
X15313058Y-12096230D01*
G37*
G36*
X16283058Y-12096230D02*
G01*
X16297376Y-12098354D01*
X16311417Y-12101871D01*
X16325046Y-12106748D01*
X16338131Y-12112937D01*
X16350547Y-12120378D01*
X16362173Y-12129001D01*
X16372898Y-12138722D01*
X16382619Y-12149447D01*
X16391242Y-12161073D01*
X16398683Y-12173489D01*
X16404872Y-12186574D01*
X16409749Y-12200203D01*
X16413266Y-12214244D01*
X16415390Y-12228562D01*
X16416100Y-12243020D01*
X16416100Y-12588020D01*
X16415390Y-12602478D01*
X16413266Y-12616796D01*
X16409749Y-12630837D01*
X16404872Y-12644466D01*
X16398683Y-12657551D01*
X16391242Y-12669967D01*
X16382619Y-12681593D01*
X16372898Y-12692318D01*
X16362173Y-12702039D01*
X16350547Y-12710662D01*
X16338131Y-12718103D01*
X16325046Y-12724292D01*
X16311417Y-12729169D01*
X16297376Y-12732686D01*
X16283058Y-12734810D01*
X16268600Y-12735520D01*
X15973600Y-12735520D01*
X15959142Y-12734810D01*
X15944824Y-12732686D01*
X15930783Y-12729169D01*
X15917154Y-12724292D01*
X15904069Y-12718103D01*
X15891653Y-12710662D01*
X15880027Y-12702039D01*
X15869302Y-12692318D01*
X15859581Y-12681593D01*
X15850958Y-12669967D01*
X15843517Y-12657551D01*
X15837328Y-12644466D01*
X15832451Y-12630837D01*
X15828934Y-12616796D01*
X15826810Y-12602478D01*
X15826100Y-12588020D01*
X15826100Y-12243020D01*
X15826810Y-12228562D01*
X15828934Y-12214244D01*
X15832451Y-12200203D01*
X15837328Y-12186574D01*
X15843517Y-12173489D01*
X15850958Y-12161073D01*
X15859581Y-12149447D01*
X15869302Y-12138722D01*
X15880027Y-12129001D01*
X15891653Y-12120378D01*
X15904069Y-12112937D01*
X15917154Y-12106748D01*
X15930783Y-12101871D01*
X15944824Y-12098354D01*
X15959142Y-12096230D01*
X15973600Y-12095520D01*
X16268600Y-12095520D01*
X16283058Y-12096230D01*
G37*
G36*
X12749798Y-19949230D02*
G01*
X12764116Y-19951354D01*
X12778157Y-19954871D01*
X12791786Y-19959748D01*
X12804871Y-19965937D01*
X12817287Y-19973378D01*
X12828913Y-19982001D01*
X12839638Y-19991722D01*
X12849359Y-20002447D01*
X12857982Y-20014073D01*
X12865423Y-20026489D01*
X12871612Y-20039574D01*
X12876489Y-20053203D01*
X12880006Y-20067244D01*
X12882130Y-20081562D01*
X12882840Y-20096020D01*
X12882840Y-20391020D01*
X12882130Y-20405478D01*
X12880006Y-20419796D01*
X12876489Y-20433837D01*
X12871612Y-20447466D01*
X12865423Y-20460551D01*
X12857982Y-20472967D01*
X12849359Y-20484593D01*
X12839638Y-20495318D01*
X12828913Y-20505039D01*
X12817287Y-20513662D01*
X12804871Y-20521103D01*
X12791786Y-20527292D01*
X12778157Y-20532169D01*
X12764116Y-20535686D01*
X12749798Y-20537810D01*
X12735340Y-20538520D01*
X12390340Y-20538520D01*
X12375882Y-20537810D01*
X12361564Y-20535686D01*
X12347523Y-20532169D01*
X12333894Y-20527292D01*
X12320809Y-20521103D01*
X12308393Y-20513662D01*
X12296767Y-20505039D01*
X12286042Y-20495318D01*
X12276321Y-20484593D01*
X12267698Y-20472967D01*
X12260257Y-20460551D01*
X12254068Y-20447466D01*
X12249191Y-20433837D01*
X12245674Y-20419796D01*
X12243550Y-20405478D01*
X12242840Y-20391020D01*
X12242840Y-20096020D01*
X12243550Y-20081562D01*
X12245674Y-20067244D01*
X12249191Y-20053203D01*
X12254068Y-20039574D01*
X12260257Y-20026489D01*
X12267698Y-20014073D01*
X12276321Y-20002447D01*
X12286042Y-19991722D01*
X12296767Y-19982001D01*
X12308393Y-19973378D01*
X12320809Y-19965937D01*
X12333894Y-19959748D01*
X12347523Y-19954871D01*
X12361564Y-19951354D01*
X12375882Y-19949230D01*
X12390340Y-19948520D01*
X12735340Y-19948520D01*
X12749798Y-19949230D01*
G37*
G36*
X12749798Y-18979230D02*
G01*
X12764116Y-18981354D01*
X12778157Y-18984871D01*
X12791786Y-18989748D01*
X12804871Y-18995937D01*
X12817287Y-19003378D01*
X12828913Y-19012001D01*
X12839638Y-19021722D01*
X12849359Y-19032447D01*
X12857982Y-19044073D01*
X12865423Y-19056489D01*
X12871612Y-19069574D01*
X12876489Y-19083203D01*
X12880006Y-19097244D01*
X12882130Y-19111562D01*
X12882840Y-19126020D01*
X12882840Y-19421020D01*
X12882130Y-19435478D01*
X12880006Y-19449796D01*
X12876489Y-19463837D01*
X12871612Y-19477466D01*
X12865423Y-19490551D01*
X12857982Y-19502967D01*
X12849359Y-19514593D01*
X12839638Y-19525318D01*
X12828913Y-19535039D01*
X12817287Y-19543662D01*
X12804871Y-19551103D01*
X12791786Y-19557292D01*
X12778157Y-19562169D01*
X12764116Y-19565686D01*
X12749798Y-19567810D01*
X12735340Y-19568520D01*
X12390340Y-19568520D01*
X12375882Y-19567810D01*
X12361564Y-19565686D01*
X12347523Y-19562169D01*
X12333894Y-19557292D01*
X12320809Y-19551103D01*
X12308393Y-19543662D01*
X12296767Y-19535039D01*
X12286042Y-19525318D01*
X12276321Y-19514593D01*
X12267698Y-19502967D01*
X12260257Y-19490551D01*
X12254068Y-19477466D01*
X12249191Y-19463837D01*
X12245674Y-19449796D01*
X12243550Y-19435478D01*
X12242840Y-19421020D01*
X12242840Y-19126020D01*
X12243550Y-19111562D01*
X12245674Y-19097244D01*
X12249191Y-19083203D01*
X12254068Y-19069574D01*
X12260257Y-19056489D01*
X12267698Y-19044073D01*
X12276321Y-19032447D01*
X12286042Y-19021722D01*
X12296767Y-19012001D01*
X12308393Y-19003378D01*
X12320809Y-18995937D01*
X12333894Y-18989748D01*
X12347523Y-18984871D01*
X12361564Y-18981354D01*
X12375882Y-18979230D01*
X12390340Y-18978520D01*
X12735340Y-18978520D01*
X12749798Y-18979230D01*
G37*
G36*
X-54342Y-11890230D02*
G01*
X-40024Y-11892354D01*
X-25983Y-11895871D01*
X-12354Y-11900748D01*
X731Y-11906937D01*
X13147Y-11914378D01*
X24773Y-11923001D01*
X35498Y-11932722D01*
X45219Y-11943447D01*
X53842Y-11955073D01*
X61283Y-11967489D01*
X67472Y-11980574D01*
X72349Y-11994203D01*
X75866Y-12008244D01*
X77990Y-12022562D01*
X78700Y-12037020D01*
X78700Y-12332020D01*
X77990Y-12346478D01*
X75866Y-12360796D01*
X72349Y-12374837D01*
X67472Y-12388466D01*
X61283Y-12401551D01*
X53842Y-12413967D01*
X45219Y-12425593D01*
X35498Y-12436318D01*
X24773Y-12446039D01*
X13147Y-12454662D01*
X731Y-12462103D01*
X-12354Y-12468292D01*
X-25983Y-12473169D01*
X-40024Y-12476686D01*
X-54342Y-12478810D01*
X-68800Y-12479520D01*
X-413800Y-12479520D01*
X-428258Y-12478810D01*
X-442576Y-12476686D01*
X-456617Y-12473169D01*
X-470246Y-12468292D01*
X-483331Y-12462103D01*
X-495747Y-12454662D01*
X-507373Y-12446039D01*
X-518098Y-12436318D01*
X-527819Y-12425593D01*
X-536442Y-12413967D01*
X-543883Y-12401551D01*
X-550072Y-12388466D01*
X-554949Y-12374837D01*
X-558466Y-12360796D01*
X-560590Y-12346478D01*
X-561300Y-12332020D01*
X-561300Y-12037020D01*
X-560590Y-12022562D01*
X-558466Y-12008244D01*
X-554949Y-11994203D01*
X-550072Y-11980574D01*
X-543883Y-11967489D01*
X-536442Y-11955073D01*
X-527819Y-11943447D01*
X-518098Y-11932722D01*
X-507373Y-11923001D01*
X-495747Y-11914378D01*
X-483331Y-11906937D01*
X-470246Y-11900748D01*
X-456617Y-11895871D01*
X-442576Y-11892354D01*
X-428258Y-11890230D01*
X-413800Y-11889520D01*
X-68800Y-11889520D01*
X-54342Y-11890230D01*
G37*
G36*
X-54342Y-12860230D02*
G01*
X-40024Y-12862354D01*
X-25983Y-12865871D01*
X-12354Y-12870748D01*
X731Y-12876937D01*
X13147Y-12884378D01*
X24773Y-12893001D01*
X35498Y-12902722D01*
X45219Y-12913447D01*
X53842Y-12925073D01*
X61283Y-12937489D01*
X67472Y-12950574D01*
X72349Y-12964203D01*
X75866Y-12978244D01*
X77990Y-12992562D01*
X78700Y-13007020D01*
X78700Y-13302020D01*
X77990Y-13316478D01*
X75866Y-13330796D01*
X72349Y-13344837D01*
X67472Y-13358466D01*
X61283Y-13371551D01*
X53842Y-13383967D01*
X45219Y-13395593D01*
X35498Y-13406318D01*
X24773Y-13416039D01*
X13147Y-13424662D01*
X731Y-13432103D01*
X-12354Y-13438292D01*
X-25983Y-13443169D01*
X-40024Y-13446686D01*
X-54342Y-13448810D01*
X-68800Y-13449520D01*
X-413800Y-13449520D01*
X-428258Y-13448810D01*
X-442576Y-13446686D01*
X-456617Y-13443169D01*
X-470246Y-13438292D01*
X-483331Y-13432103D01*
X-495747Y-13424662D01*
X-507373Y-13416039D01*
X-518098Y-13406318D01*
X-527819Y-13395593D01*
X-536442Y-13383967D01*
X-543883Y-13371551D01*
X-550072Y-13358466D01*
X-554949Y-13344837D01*
X-558466Y-13330796D01*
X-560590Y-13316478D01*
X-561300Y-13302020D01*
X-561300Y-13007020D01*
X-560590Y-12992562D01*
X-558466Y-12978244D01*
X-554949Y-12964203D01*
X-550072Y-12950574D01*
X-543883Y-12937489D01*
X-536442Y-12925073D01*
X-527819Y-12913447D01*
X-518098Y-12902722D01*
X-507373Y-12893001D01*
X-495747Y-12884378D01*
X-483331Y-12876937D01*
X-470246Y-12870748D01*
X-456617Y-12865871D01*
X-442576Y-12862354D01*
X-428258Y-12860230D01*
X-413800Y-12859520D01*
X-68800Y-12859520D01*
X-54342Y-12860230D01*
G37*
G36*
X-2449562Y-9911430D02*
G01*
X-2435244Y-9913554D01*
X-2421203Y-9917071D01*
X-2407574Y-9921948D01*
X-2394489Y-9928137D01*
X-2382073Y-9935578D01*
X-2370447Y-9944201D01*
X-2359722Y-9953922D01*
X-2350001Y-9964647D01*
X-2341378Y-9976273D01*
X-2333937Y-9988689D01*
X-2327748Y-10001774D01*
X-2322871Y-10015403D01*
X-2319354Y-10029444D01*
X-2317230Y-10043762D01*
X-2316520Y-10058220D01*
X-2316520Y-10353220D01*
X-2317230Y-10367678D01*
X-2319354Y-10381996D01*
X-2322871Y-10396037D01*
X-2327748Y-10409666D01*
X-2333937Y-10422751D01*
X-2341378Y-10435167D01*
X-2350001Y-10446793D01*
X-2359722Y-10457518D01*
X-2370447Y-10467239D01*
X-2382073Y-10475862D01*
X-2394489Y-10483303D01*
X-2407574Y-10489492D01*
X-2421203Y-10494369D01*
X-2435244Y-10497886D01*
X-2449562Y-10500010D01*
X-2464020Y-10500720D01*
X-2809020Y-10500720D01*
X-2823478Y-10500010D01*
X-2837796Y-10497886D01*
X-2851837Y-10494369D01*
X-2865466Y-10489492D01*
X-2878551Y-10483303D01*
X-2890967Y-10475862D01*
X-2902593Y-10467239D01*
X-2913318Y-10457518D01*
X-2923039Y-10446793D01*
X-2931662Y-10435167D01*
X-2939103Y-10422751D01*
X-2945292Y-10409666D01*
X-2950169Y-10396037D01*
X-2953686Y-10381996D01*
X-2955810Y-10367678D01*
X-2956520Y-10353220D01*
X-2956520Y-10058220D01*
X-2955810Y-10043762D01*
X-2953686Y-10029444D01*
X-2950169Y-10015403D01*
X-2945292Y-10001774D01*
X-2939103Y-9988689D01*
X-2931662Y-9976273D01*
X-2923039Y-9964647D01*
X-2913318Y-9953922D01*
X-2902593Y-9944201D01*
X-2890967Y-9935578D01*
X-2878551Y-9928137D01*
X-2865466Y-9921948D01*
X-2851837Y-9917071D01*
X-2837796Y-9913554D01*
X-2823478Y-9911430D01*
X-2809020Y-9910720D01*
X-2464020Y-9910720D01*
X-2449562Y-9911430D01*
G37*
G36*
X-2449562Y-10881430D02*
G01*
X-2435244Y-10883554D01*
X-2421203Y-10887071D01*
X-2407574Y-10891948D01*
X-2394489Y-10898137D01*
X-2382073Y-10905578D01*
X-2370447Y-10914201D01*
X-2359722Y-10923922D01*
X-2350001Y-10934647D01*
X-2341378Y-10946273D01*
X-2333937Y-10958689D01*
X-2327748Y-10971774D01*
X-2322871Y-10985403D01*
X-2319354Y-10999444D01*
X-2317230Y-11013762D01*
X-2316520Y-11028220D01*
X-2316520Y-11323220D01*
X-2317230Y-11337678D01*
X-2319354Y-11351996D01*
X-2322871Y-11366037D01*
X-2327748Y-11379666D01*
X-2333937Y-11392751D01*
X-2341378Y-11405167D01*
X-2350001Y-11416793D01*
X-2359722Y-11427518D01*
X-2370447Y-11437239D01*
X-2382073Y-11445862D01*
X-2394489Y-11453303D01*
X-2407574Y-11459492D01*
X-2421203Y-11464369D01*
X-2435244Y-11467886D01*
X-2449562Y-11470010D01*
X-2464020Y-11470720D01*
X-2809020Y-11470720D01*
X-2823478Y-11470010D01*
X-2837796Y-11467886D01*
X-2851837Y-11464369D01*
X-2865466Y-11459492D01*
X-2878551Y-11453303D01*
X-2890967Y-11445862D01*
X-2902593Y-11437239D01*
X-2913318Y-11427518D01*
X-2923039Y-11416793D01*
X-2931662Y-11405167D01*
X-2939103Y-11392751D01*
X-2945292Y-11379666D01*
X-2950169Y-11366037D01*
X-2953686Y-11351996D01*
X-2955810Y-11337678D01*
X-2956520Y-11323220D01*
X-2956520Y-11028220D01*
X-2955810Y-11013762D01*
X-2953686Y-10999444D01*
X-2950169Y-10985403D01*
X-2945292Y-10971774D01*
X-2939103Y-10958689D01*
X-2931662Y-10946273D01*
X-2923039Y-10934647D01*
X-2913318Y-10923922D01*
X-2902593Y-10914201D01*
X-2890967Y-10905578D01*
X-2878551Y-10898137D01*
X-2865466Y-10891948D01*
X-2851837Y-10887071D01*
X-2837796Y-10883554D01*
X-2823478Y-10881430D01*
X-2809020Y-10880720D01*
X-2464020Y-10880720D01*
X-2449562Y-10881430D01*
G37*
G36*
X1431558Y-8042270D02*
G01*
X1445876Y-8044394D01*
X1459917Y-8047911D01*
X1473546Y-8052788D01*
X1486631Y-8058977D01*
X1499047Y-8066418D01*
X1510673Y-8075041D01*
X1521398Y-8084762D01*
X1531119Y-8095487D01*
X1539742Y-8107113D01*
X1547183Y-8119529D01*
X1553372Y-8132614D01*
X1558249Y-8146243D01*
X1561766Y-8160284D01*
X1563890Y-8174602D01*
X1564600Y-8189060D01*
X1564600Y-8484060D01*
X1563890Y-8498518D01*
X1561766Y-8512836D01*
X1558249Y-8526877D01*
X1553372Y-8540506D01*
X1547183Y-8553591D01*
X1539742Y-8566007D01*
X1531119Y-8577633D01*
X1521398Y-8588358D01*
X1510673Y-8598079D01*
X1499047Y-8606702D01*
X1486631Y-8614143D01*
X1473546Y-8620332D01*
X1459917Y-8625209D01*
X1445876Y-8628726D01*
X1431558Y-8630850D01*
X1417100Y-8631560D01*
X1072100Y-8631560D01*
X1057642Y-8630850D01*
X1043324Y-8628726D01*
X1029283Y-8625209D01*
X1015654Y-8620332D01*
X1002569Y-8614143D01*
X990153Y-8606702D01*
X978527Y-8598079D01*
X967802Y-8588358D01*
X958081Y-8577633D01*
X949458Y-8566007D01*
X942017Y-8553591D01*
X935828Y-8540506D01*
X930951Y-8526877D01*
X927434Y-8512836D01*
X925310Y-8498518D01*
X924600Y-8484060D01*
X924600Y-8189060D01*
X925310Y-8174602D01*
X927434Y-8160284D01*
X930951Y-8146243D01*
X935828Y-8132614D01*
X942017Y-8119529D01*
X949458Y-8107113D01*
X958081Y-8095487D01*
X967802Y-8084762D01*
X978527Y-8075041D01*
X990153Y-8066418D01*
X1002569Y-8058977D01*
X1015654Y-8052788D01*
X1029283Y-8047911D01*
X1043324Y-8044394D01*
X1057642Y-8042270D01*
X1072100Y-8041560D01*
X1417100Y-8041560D01*
X1431558Y-8042270D01*
G37*
G36*
X1431558Y-9012270D02*
G01*
X1445876Y-9014394D01*
X1459917Y-9017911D01*
X1473546Y-9022788D01*
X1486631Y-9028977D01*
X1499047Y-9036418D01*
X1510673Y-9045041D01*
X1521398Y-9054762D01*
X1531119Y-9065487D01*
X1539742Y-9077113D01*
X1547183Y-9089529D01*
X1553372Y-9102614D01*
X1558249Y-9116243D01*
X1561766Y-9130284D01*
X1563890Y-9144602D01*
X1564600Y-9159060D01*
X1564600Y-9454060D01*
X1563890Y-9468518D01*
X1561766Y-9482836D01*
X1558249Y-9496877D01*
X1553372Y-9510506D01*
X1547183Y-9523591D01*
X1539742Y-9536007D01*
X1531119Y-9547633D01*
X1521398Y-9558358D01*
X1510673Y-9568079D01*
X1499047Y-9576702D01*
X1486631Y-9584143D01*
X1473546Y-9590332D01*
X1459917Y-9595209D01*
X1445876Y-9598726D01*
X1431558Y-9600850D01*
X1417100Y-9601560D01*
X1072100Y-9601560D01*
X1057642Y-9600850D01*
X1043324Y-9598726D01*
X1029283Y-9595209D01*
X1015654Y-9590332D01*
X1002569Y-9584143D01*
X990153Y-9576702D01*
X978527Y-9568079D01*
X967802Y-9558358D01*
X958081Y-9547633D01*
X949458Y-9536007D01*
X942017Y-9523591D01*
X935828Y-9510506D01*
X930951Y-9496877D01*
X927434Y-9482836D01*
X925310Y-9468518D01*
X924600Y-9454060D01*
X924600Y-9159060D01*
X925310Y-9144602D01*
X927434Y-9130284D01*
X930951Y-9116243D01*
X935828Y-9102614D01*
X942017Y-9089529D01*
X949458Y-9077113D01*
X958081Y-9065487D01*
X967802Y-9054762D01*
X978527Y-9045041D01*
X990153Y-9036418D01*
X1002569Y-9028977D01*
X1015654Y-9022788D01*
X1029283Y-9017911D01*
X1043324Y-9014394D01*
X1057642Y-9012270D01*
X1072100Y-9011560D01*
X1417100Y-9011560D01*
X1431558Y-9012270D01*
G37*
G36*
X-3054082Y8752630D02*
G01*
X-3039764Y8750506D01*
X-3025723Y8746989D01*
X-3012094Y8742112D01*
X-2999009Y8735923D01*
X-2986593Y8728482D01*
X-2974967Y8719859D01*
X-2964242Y8710138D01*
X-2954521Y8699413D01*
X-2945898Y8687787D01*
X-2938457Y8675371D01*
X-2932268Y8662286D01*
X-2927391Y8648657D01*
X-2923874Y8634616D01*
X-2921750Y8620298D01*
X-2921040Y8605840D01*
X-2921040Y8310840D01*
X-2921750Y8296382D01*
X-2923874Y8282064D01*
X-2927391Y8268023D01*
X-2932268Y8254394D01*
X-2938457Y8241309D01*
X-2945898Y8228893D01*
X-2954521Y8217267D01*
X-2964242Y8206542D01*
X-2974967Y8196821D01*
X-2986593Y8188198D01*
X-2999009Y8180757D01*
X-3012094Y8174568D01*
X-3025723Y8169691D01*
X-3039764Y8166174D01*
X-3054082Y8164050D01*
X-3068540Y8163340D01*
X-3413540Y8163340D01*
X-3427998Y8164050D01*
X-3442316Y8166174D01*
X-3456357Y8169691D01*
X-3469986Y8174568D01*
X-3483071Y8180757D01*
X-3495487Y8188198D01*
X-3507113Y8196821D01*
X-3517838Y8206542D01*
X-3527559Y8217267D01*
X-3536182Y8228893D01*
X-3543623Y8241309D01*
X-3549812Y8254394D01*
X-3554689Y8268023D01*
X-3558206Y8282064D01*
X-3560330Y8296382D01*
X-3561040Y8310840D01*
X-3561040Y8605840D01*
X-3560330Y8620298D01*
X-3558206Y8634616D01*
X-3554689Y8648657D01*
X-3549812Y8662286D01*
X-3543623Y8675371D01*
X-3536182Y8687787D01*
X-3527559Y8699413D01*
X-3517838Y8710138D01*
X-3507113Y8719859D01*
X-3495487Y8728482D01*
X-3483071Y8735923D01*
X-3469986Y8742112D01*
X-3456357Y8746989D01*
X-3442316Y8750506D01*
X-3427998Y8752630D01*
X-3413540Y8753340D01*
X-3068540Y8753340D01*
X-3054082Y8752630D01*
G37*
G36*
X-3054082Y9722630D02*
G01*
X-3039764Y9720506D01*
X-3025723Y9716989D01*
X-3012094Y9712112D01*
X-2999009Y9705923D01*
X-2986593Y9698482D01*
X-2974967Y9689859D01*
X-2964242Y9680138D01*
X-2954521Y9669413D01*
X-2945898Y9657787D01*
X-2938457Y9645371D01*
X-2932268Y9632286D01*
X-2927391Y9618657D01*
X-2923874Y9604616D01*
X-2921750Y9590298D01*
X-2921040Y9575840D01*
X-2921040Y9280840D01*
X-2921750Y9266382D01*
X-2923874Y9252064D01*
X-2927391Y9238023D01*
X-2932268Y9224394D01*
X-2938457Y9211309D01*
X-2945898Y9198893D01*
X-2954521Y9187267D01*
X-2964242Y9176542D01*
X-2974967Y9166821D01*
X-2986593Y9158198D01*
X-2999009Y9150757D01*
X-3012094Y9144568D01*
X-3025723Y9139691D01*
X-3039764Y9136174D01*
X-3054082Y9134050D01*
X-3068540Y9133340D01*
X-3413540Y9133340D01*
X-3427998Y9134050D01*
X-3442316Y9136174D01*
X-3456357Y9139691D01*
X-3469986Y9144568D01*
X-3483071Y9150757D01*
X-3495487Y9158198D01*
X-3507113Y9166821D01*
X-3517838Y9176542D01*
X-3527559Y9187267D01*
X-3536182Y9198893D01*
X-3543623Y9211309D01*
X-3549812Y9224394D01*
X-3554689Y9238023D01*
X-3558206Y9252064D01*
X-3560330Y9266382D01*
X-3561040Y9280840D01*
X-3561040Y9575840D01*
X-3560330Y9590298D01*
X-3558206Y9604616D01*
X-3554689Y9618657D01*
X-3549812Y9632286D01*
X-3543623Y9645371D01*
X-3536182Y9657787D01*
X-3527559Y9669413D01*
X-3517838Y9680138D01*
X-3507113Y9689859D01*
X-3495487Y9698482D01*
X-3483071Y9705923D01*
X-3469986Y9712112D01*
X-3456357Y9716989D01*
X-3442316Y9720506D01*
X-3427998Y9722630D01*
X-3413540Y9723340D01*
X-3068540Y9723340D01*
X-3054082Y9722630D01*
G37*
G36*
X-7344142Y8933110D02*
G01*
X-7329824Y8930986D01*
X-7315783Y8927469D01*
X-7302154Y8922592D01*
X-7289069Y8916403D01*
X-7276653Y8908962D01*
X-7265027Y8900339D01*
X-7254302Y8890618D01*
X-7244581Y8879893D01*
X-7235958Y8868267D01*
X-7228517Y8855851D01*
X-7222328Y8842766D01*
X-7217451Y8829137D01*
X-7213934Y8815096D01*
X-7211810Y8800778D01*
X-7211100Y8786320D01*
X-7211100Y8491320D01*
X-7211810Y8476862D01*
X-7213934Y8462544D01*
X-7217451Y8448503D01*
X-7222328Y8434874D01*
X-7228517Y8421789D01*
X-7235958Y8409373D01*
X-7244581Y8397747D01*
X-7254302Y8387022D01*
X-7265027Y8377301D01*
X-7276653Y8368678D01*
X-7289069Y8361237D01*
X-7302154Y8355048D01*
X-7315783Y8350171D01*
X-7329824Y8346654D01*
X-7344142Y8344530D01*
X-7358600Y8343820D01*
X-7703600Y8343820D01*
X-7718058Y8344530D01*
X-7732376Y8346654D01*
X-7746417Y8350171D01*
X-7760046Y8355048D01*
X-7773131Y8361237D01*
X-7785547Y8368678D01*
X-7797173Y8377301D01*
X-7807898Y8387022D01*
X-7817619Y8397747D01*
X-7826242Y8409373D01*
X-7833683Y8421789D01*
X-7839872Y8434874D01*
X-7844749Y8448503D01*
X-7848266Y8462544D01*
X-7850390Y8476862D01*
X-7851100Y8491320D01*
X-7851100Y8786320D01*
X-7850390Y8800778D01*
X-7848266Y8815096D01*
X-7844749Y8829137D01*
X-7839872Y8842766D01*
X-7833683Y8855851D01*
X-7826242Y8868267D01*
X-7817619Y8879893D01*
X-7807898Y8890618D01*
X-7797173Y8900339D01*
X-7785547Y8908962D01*
X-7773131Y8916403D01*
X-7760046Y8922592D01*
X-7746417Y8927469D01*
X-7732376Y8930986D01*
X-7718058Y8933110D01*
X-7703600Y8933820D01*
X-7358600Y8933820D01*
X-7344142Y8933110D01*
G37*
G36*
X-7344142Y9903110D02*
G01*
X-7329824Y9900986D01*
X-7315783Y9897469D01*
X-7302154Y9892592D01*
X-7289069Y9886403D01*
X-7276653Y9878962D01*
X-7265027Y9870339D01*
X-7254302Y9860618D01*
X-7244581Y9849893D01*
X-7235958Y9838267D01*
X-7228517Y9825851D01*
X-7222328Y9812766D01*
X-7217451Y9799137D01*
X-7213934Y9785096D01*
X-7211810Y9770778D01*
X-7211100Y9756320D01*
X-7211100Y9461320D01*
X-7211810Y9446862D01*
X-7213934Y9432544D01*
X-7217451Y9418503D01*
X-7222328Y9404874D01*
X-7228517Y9391789D01*
X-7235958Y9379373D01*
X-7244581Y9367747D01*
X-7254302Y9357022D01*
X-7265027Y9347301D01*
X-7276653Y9338678D01*
X-7289069Y9331237D01*
X-7302154Y9325048D01*
X-7315783Y9320171D01*
X-7329824Y9316654D01*
X-7344142Y9314530D01*
X-7358600Y9313820D01*
X-7703600Y9313820D01*
X-7718058Y9314530D01*
X-7732376Y9316654D01*
X-7746417Y9320171D01*
X-7760046Y9325048D01*
X-7773131Y9331237D01*
X-7785547Y9338678D01*
X-7797173Y9347301D01*
X-7807898Y9357022D01*
X-7817619Y9367747D01*
X-7826242Y9379373D01*
X-7833683Y9391789D01*
X-7839872Y9404874D01*
X-7844749Y9418503D01*
X-7848266Y9432544D01*
X-7850390Y9446862D01*
X-7851100Y9461320D01*
X-7851100Y9756320D01*
X-7850390Y9770778D01*
X-7848266Y9785096D01*
X-7844749Y9799137D01*
X-7839872Y9812766D01*
X-7833683Y9825851D01*
X-7826242Y9838267D01*
X-7817619Y9849893D01*
X-7807898Y9860618D01*
X-7797173Y9870339D01*
X-7785547Y9878962D01*
X-7773131Y9886403D01*
X-7760046Y9892592D01*
X-7746417Y9897469D01*
X-7732376Y9900986D01*
X-7718058Y9903110D01*
X-7703600Y9903820D01*
X-7358600Y9903820D01*
X-7344142Y9903110D01*
G37*
D12*
X-4444960Y9552700D03*
X-4444960Y8252700D03*
X-6344960Y8902700D03*
X-6344960Y8252700D03*
X-6344960Y9552700D03*
D13*
X-18810000Y-1650000D03*
X-13730000Y-1650000D03*
X-16270000Y1650000D03*
X-11190000Y1650000D03*
X11190000Y-1650000D03*
X16270000Y-1650000D03*
X13730000Y1650000D03*
X18810000Y1650000D03*
D14*
X-8207000Y15247700D03*
X-8207000Y13347700D03*
X-10407000Y13347700D03*
X-10407000Y14297700D03*
X-10407000Y15247700D03*
D11*
G36*
X-12655642Y15597390D02*
G01*
X-12641324Y15595266D01*
X-12627283Y15591749D01*
X-12613654Y15586872D01*
X-12600569Y15580683D01*
X-12588153Y15573242D01*
X-12576527Y15564619D01*
X-12565802Y15554898D01*
X-12556081Y15544173D01*
X-12547458Y15532547D01*
X-12540017Y15520131D01*
X-12533828Y15507046D01*
X-12528951Y15493417D01*
X-12525434Y15479376D01*
X-12523310Y15465058D01*
X-12522600Y15450600D01*
X-12522600Y15105600D01*
X-12523310Y15091142D01*
X-12525434Y15076824D01*
X-12528951Y15062783D01*
X-12533828Y15049154D01*
X-12540017Y15036069D01*
X-12547458Y15023653D01*
X-12556081Y15012027D01*
X-12565802Y15001302D01*
X-12576527Y14991581D01*
X-12588153Y14982958D01*
X-12600569Y14975517D01*
X-12613654Y14969328D01*
X-12627283Y14964451D01*
X-12641324Y14960934D01*
X-12655642Y14958810D01*
X-12670100Y14958100D01*
X-12965100Y14958100D01*
X-12979558Y14958810D01*
X-12993876Y14960934D01*
X-13007917Y14964451D01*
X-13021546Y14969328D01*
X-13034631Y14975517D01*
X-13047047Y14982958D01*
X-13058673Y14991581D01*
X-13069398Y15001302D01*
X-13079119Y15012027D01*
X-13087742Y15023653D01*
X-13095183Y15036069D01*
X-13101372Y15049154D01*
X-13106249Y15062783D01*
X-13109766Y15076824D01*
X-13111890Y15091142D01*
X-13112600Y15105600D01*
X-13112600Y15450600D01*
X-13111890Y15465058D01*
X-13109766Y15479376D01*
X-13106249Y15493417D01*
X-13101372Y15507046D01*
X-13095183Y15520131D01*
X-13087742Y15532547D01*
X-13079119Y15544173D01*
X-13069398Y15554898D01*
X-13058673Y15564619D01*
X-13047047Y15573242D01*
X-13034631Y15580683D01*
X-13021546Y15586872D01*
X-13007917Y15591749D01*
X-12993876Y15595266D01*
X-12979558Y15597390D01*
X-12965100Y15598100D01*
X-12670100Y15598100D01*
X-12655642Y15597390D01*
G37*
G36*
X-13625642Y15597390D02*
G01*
X-13611324Y15595266D01*
X-13597283Y15591749D01*
X-13583654Y15586872D01*
X-13570569Y15580683D01*
X-13558153Y15573242D01*
X-13546527Y15564619D01*
X-13535802Y15554898D01*
X-13526081Y15544173D01*
X-13517458Y15532547D01*
X-13510017Y15520131D01*
X-13503828Y15507046D01*
X-13498951Y15493417D01*
X-13495434Y15479376D01*
X-13493310Y15465058D01*
X-13492600Y15450600D01*
X-13492600Y15105600D01*
X-13493310Y15091142D01*
X-13495434Y15076824D01*
X-13498951Y15062783D01*
X-13503828Y15049154D01*
X-13510017Y15036069D01*
X-13517458Y15023653D01*
X-13526081Y15012027D01*
X-13535802Y15001302D01*
X-13546527Y14991581D01*
X-13558153Y14982958D01*
X-13570569Y14975517D01*
X-13583654Y14969328D01*
X-13597283Y14964451D01*
X-13611324Y14960934D01*
X-13625642Y14958810D01*
X-13640100Y14958100D01*
X-13935100Y14958100D01*
X-13949558Y14958810D01*
X-13963876Y14960934D01*
X-13977917Y14964451D01*
X-13991546Y14969328D01*
X-14004631Y14975517D01*
X-14017047Y14982958D01*
X-14028673Y14991581D01*
X-14039398Y15001302D01*
X-14049119Y15012027D01*
X-14057742Y15023653D01*
X-14065183Y15036069D01*
X-14071372Y15049154D01*
X-14076249Y15062783D01*
X-14079766Y15076824D01*
X-14081890Y15091142D01*
X-14082600Y15105600D01*
X-14082600Y15450600D01*
X-14081890Y15465058D01*
X-14079766Y15479376D01*
X-14076249Y15493417D01*
X-14071372Y15507046D01*
X-14065183Y15520131D01*
X-14057742Y15532547D01*
X-14049119Y15544173D01*
X-14039398Y15554898D01*
X-14028673Y15564619D01*
X-14017047Y15573242D01*
X-14004631Y15580683D01*
X-13991546Y15586872D01*
X-13977917Y15591749D01*
X-13963876Y15595266D01*
X-13949558Y15597390D01*
X-13935100Y15598100D01*
X-13640100Y15598100D01*
X-13625642Y15597390D01*
G37*
G36*
X-5688742Y15579290D02*
G01*
X-5674424Y15577166D01*
X-5660383Y15573649D01*
X-5646754Y15568772D01*
X-5633669Y15562583D01*
X-5621253Y15555142D01*
X-5609627Y15546519D01*
X-5598902Y15536798D01*
X-5589181Y15526073D01*
X-5580558Y15514447D01*
X-5573117Y15502031D01*
X-5566928Y15488946D01*
X-5562051Y15475317D01*
X-5558534Y15461276D01*
X-5556410Y15446958D01*
X-5555700Y15432500D01*
X-5555700Y15087500D01*
X-5556410Y15073042D01*
X-5558534Y15058724D01*
X-5562051Y15044683D01*
X-5566928Y15031054D01*
X-5573117Y15017969D01*
X-5580558Y15005553D01*
X-5589181Y14993927D01*
X-5598902Y14983202D01*
X-5609627Y14973481D01*
X-5621253Y14964858D01*
X-5633669Y14957417D01*
X-5646754Y14951228D01*
X-5660383Y14946351D01*
X-5674424Y14942834D01*
X-5688742Y14940710D01*
X-5703200Y14940000D01*
X-5998200Y14940000D01*
X-6012658Y14940710D01*
X-6026976Y14942834D01*
X-6041017Y14946351D01*
X-6054646Y14951228D01*
X-6067731Y14957417D01*
X-6080147Y14964858D01*
X-6091773Y14973481D01*
X-6102498Y14983202D01*
X-6112219Y14993927D01*
X-6120842Y15005553D01*
X-6128283Y15017969D01*
X-6134472Y15031054D01*
X-6139349Y15044683D01*
X-6142866Y15058724D01*
X-6144990Y15073042D01*
X-6145700Y15087500D01*
X-6145700Y15432500D01*
X-6144990Y15446958D01*
X-6142866Y15461276D01*
X-6139349Y15475317D01*
X-6134472Y15488946D01*
X-6128283Y15502031D01*
X-6120842Y15514447D01*
X-6112219Y15526073D01*
X-6102498Y15536798D01*
X-6091773Y15546519D01*
X-6080147Y15555142D01*
X-6067731Y15562583D01*
X-6054646Y15568772D01*
X-6041017Y15573649D01*
X-6026976Y15577166D01*
X-6012658Y15579290D01*
X-5998200Y15580000D01*
X-5703200Y15580000D01*
X-5688742Y15579290D01*
G37*
G36*
X-6658742Y15579290D02*
G01*
X-6644424Y15577166D01*
X-6630383Y15573649D01*
X-6616754Y15568772D01*
X-6603669Y15562583D01*
X-6591253Y15555142D01*
X-6579627Y15546519D01*
X-6568902Y15536798D01*
X-6559181Y15526073D01*
X-6550558Y15514447D01*
X-6543117Y15502031D01*
X-6536928Y15488946D01*
X-6532051Y15475317D01*
X-6528534Y15461276D01*
X-6526410Y15446958D01*
X-6525700Y15432500D01*
X-6525700Y15087500D01*
X-6526410Y15073042D01*
X-6528534Y15058724D01*
X-6532051Y15044683D01*
X-6536928Y15031054D01*
X-6543117Y15017969D01*
X-6550558Y15005553D01*
X-6559181Y14993927D01*
X-6568902Y14983202D01*
X-6579627Y14973481D01*
X-6591253Y14964858D01*
X-6603669Y14957417D01*
X-6616754Y14951228D01*
X-6630383Y14946351D01*
X-6644424Y14942834D01*
X-6658742Y14940710D01*
X-6673200Y14940000D01*
X-6968200Y14940000D01*
X-6982658Y14940710D01*
X-6996976Y14942834D01*
X-7011017Y14946351D01*
X-7024646Y14951228D01*
X-7037731Y14957417D01*
X-7050147Y14964858D01*
X-7061773Y14973481D01*
X-7072498Y14983202D01*
X-7082219Y14993927D01*
X-7090842Y15005553D01*
X-7098283Y15017969D01*
X-7104472Y15031054D01*
X-7109349Y15044683D01*
X-7112866Y15058724D01*
X-7114990Y15073042D01*
X-7115700Y15087500D01*
X-7115700Y15432500D01*
X-7114990Y15446958D01*
X-7112866Y15461276D01*
X-7109349Y15475317D01*
X-7104472Y15488946D01*
X-7098283Y15502031D01*
X-7090842Y15514447D01*
X-7082219Y15526073D01*
X-7072498Y15536798D01*
X-7061773Y15546519D01*
X-7050147Y15555142D01*
X-7037731Y15562583D01*
X-7024646Y15568772D01*
X-7011017Y15573649D01*
X-6996976Y15577166D01*
X-6982658Y15579290D01*
X-6968200Y15580000D01*
X-6673200Y15580000D01*
X-6658742Y15579290D01*
G37*
G36*
X-13507509Y18610247D02*
G01*
X-13486274Y18607097D01*
X-13465450Y18601881D01*
X-13445238Y18594649D01*
X-13425832Y18585470D01*
X-13407419Y18574434D01*
X-13390176Y18561646D01*
X-13374270Y18547230D01*
X-13359854Y18531324D01*
X-13347066Y18514081D01*
X-13336030Y18495668D01*
X-13326851Y18476262D01*
X-13319619Y18456050D01*
X-13314403Y18435226D01*
X-13311253Y18413991D01*
X-13310200Y18392550D01*
X-13310200Y17955050D01*
X-13311253Y17933609D01*
X-13314403Y17912374D01*
X-13319619Y17891550D01*
X-13326851Y17871338D01*
X-13336030Y17851932D01*
X-13347066Y17833519D01*
X-13359854Y17816276D01*
X-13374270Y17800370D01*
X-13390176Y17785954D01*
X-13407419Y17773166D01*
X-13425832Y17762130D01*
X-13445238Y17752951D01*
X-13465450Y17745719D01*
X-13486274Y17740503D01*
X-13507509Y17737353D01*
X-13528950Y17736300D01*
X-14041450Y17736300D01*
X-14062891Y17737353D01*
X-14084126Y17740503D01*
X-14104950Y17745719D01*
X-14125162Y17752951D01*
X-14144568Y17762130D01*
X-14162981Y17773166D01*
X-14180224Y17785954D01*
X-14196130Y17800370D01*
X-14210546Y17816276D01*
X-14223334Y17833519D01*
X-14234370Y17851932D01*
X-14243549Y17871338D01*
X-14250781Y17891550D01*
X-14255997Y17912374D01*
X-14259147Y17933609D01*
X-14260200Y17955050D01*
X-14260200Y18392550D01*
X-14259147Y18413991D01*
X-14255997Y18435226D01*
X-14250781Y18456050D01*
X-14243549Y18476262D01*
X-14234370Y18495668D01*
X-14223334Y18514081D01*
X-14210546Y18531324D01*
X-14196130Y18547230D01*
X-14180224Y18561646D01*
X-14162981Y18574434D01*
X-14144568Y18585470D01*
X-14125162Y18594649D01*
X-14104950Y18601881D01*
X-14084126Y18607097D01*
X-14062891Y18610247D01*
X-14041450Y18611300D01*
X-13528950Y18611300D01*
X-13507509Y18610247D01*
G37*
G36*
X-13507509Y17035247D02*
G01*
X-13486274Y17032097D01*
X-13465450Y17026881D01*
X-13445238Y17019649D01*
X-13425832Y17010470D01*
X-13407419Y16999434D01*
X-13390176Y16986646D01*
X-13374270Y16972230D01*
X-13359854Y16956324D01*
X-13347066Y16939081D01*
X-13336030Y16920668D01*
X-13326851Y16901262D01*
X-13319619Y16881050D01*
X-13314403Y16860226D01*
X-13311253Y16838991D01*
X-13310200Y16817550D01*
X-13310200Y16380050D01*
X-13311253Y16358609D01*
X-13314403Y16337374D01*
X-13319619Y16316550D01*
X-13326851Y16296338D01*
X-13336030Y16276932D01*
X-13347066Y16258519D01*
X-13359854Y16241276D01*
X-13374270Y16225370D01*
X-13390176Y16210954D01*
X-13407419Y16198166D01*
X-13425832Y16187130D01*
X-13445238Y16177951D01*
X-13465450Y16170719D01*
X-13486274Y16165503D01*
X-13507509Y16162353D01*
X-13528950Y16161300D01*
X-14041450Y16161300D01*
X-14062891Y16162353D01*
X-14084126Y16165503D01*
X-14104950Y16170719D01*
X-14125162Y16177951D01*
X-14144568Y16187130D01*
X-14162981Y16198166D01*
X-14180224Y16210954D01*
X-14196130Y16225370D01*
X-14210546Y16241276D01*
X-14223334Y16258519D01*
X-14234370Y16276932D01*
X-14243549Y16296338D01*
X-14250781Y16316550D01*
X-14255997Y16337374D01*
X-14259147Y16358609D01*
X-14260200Y16380050D01*
X-14260200Y16817550D01*
X-14259147Y16838991D01*
X-14255997Y16860226D01*
X-14250781Y16881050D01*
X-14243549Y16901262D01*
X-14234370Y16920668D01*
X-14223334Y16939081D01*
X-14210546Y16956324D01*
X-14196130Y16972230D01*
X-14180224Y16986646D01*
X-14162981Y16999434D01*
X-14144568Y17010470D01*
X-14125162Y17019649D01*
X-14104950Y17026881D01*
X-14084126Y17032097D01*
X-14062891Y17035247D01*
X-14041450Y17036300D01*
X-13528950Y17036300D01*
X-13507509Y17035247D01*
G37*
G36*
X-11705942Y13436390D02*
G01*
X-11691624Y13434266D01*
X-11677583Y13430749D01*
X-11663954Y13425872D01*
X-11650869Y13419683D01*
X-11638453Y13412242D01*
X-11626827Y13403619D01*
X-11616102Y13393898D01*
X-11606381Y13383173D01*
X-11597758Y13371547D01*
X-11590317Y13359131D01*
X-11584128Y13346046D01*
X-11579251Y13332417D01*
X-11575734Y13318376D01*
X-11573610Y13304058D01*
X-11572900Y13289600D01*
X-11572900Y12994600D01*
X-11573610Y12980142D01*
X-11575734Y12965824D01*
X-11579251Y12951783D01*
X-11584128Y12938154D01*
X-11590317Y12925069D01*
X-11597758Y12912653D01*
X-11606381Y12901027D01*
X-11616102Y12890302D01*
X-11626827Y12880581D01*
X-11638453Y12871958D01*
X-11650869Y12864517D01*
X-11663954Y12858328D01*
X-11677583Y12853451D01*
X-11691624Y12849934D01*
X-11705942Y12847810D01*
X-11720400Y12847100D01*
X-12065400Y12847100D01*
X-12079858Y12847810D01*
X-12094176Y12849934D01*
X-12108217Y12853451D01*
X-12121846Y12858328D01*
X-12134931Y12864517D01*
X-12147347Y12871958D01*
X-12158973Y12880581D01*
X-12169698Y12890302D01*
X-12179419Y12901027D01*
X-12188042Y12912653D01*
X-12195483Y12925069D01*
X-12201672Y12938154D01*
X-12206549Y12951783D01*
X-12210066Y12965824D01*
X-12212190Y12980142D01*
X-12212900Y12994600D01*
X-12212900Y13289600D01*
X-12212190Y13304058D01*
X-12210066Y13318376D01*
X-12206549Y13332417D01*
X-12201672Y13346046D01*
X-12195483Y13359131D01*
X-12188042Y13371547D01*
X-12179419Y13383173D01*
X-12169698Y13393898D01*
X-12158973Y13403619D01*
X-12147347Y13412242D01*
X-12134931Y13419683D01*
X-12121846Y13425872D01*
X-12108217Y13430749D01*
X-12094176Y13434266D01*
X-12079858Y13436390D01*
X-12065400Y13437100D01*
X-11720400Y13437100D01*
X-11705942Y13436390D01*
G37*
G36*
X-11705942Y14406390D02*
G01*
X-11691624Y14404266D01*
X-11677583Y14400749D01*
X-11663954Y14395872D01*
X-11650869Y14389683D01*
X-11638453Y14382242D01*
X-11626827Y14373619D01*
X-11616102Y14363898D01*
X-11606381Y14353173D01*
X-11597758Y14341547D01*
X-11590317Y14329131D01*
X-11584128Y14316046D01*
X-11579251Y14302417D01*
X-11575734Y14288376D01*
X-11573610Y14274058D01*
X-11572900Y14259600D01*
X-11572900Y13964600D01*
X-11573610Y13950142D01*
X-11575734Y13935824D01*
X-11579251Y13921783D01*
X-11584128Y13908154D01*
X-11590317Y13895069D01*
X-11597758Y13882653D01*
X-11606381Y13871027D01*
X-11616102Y13860302D01*
X-11626827Y13850581D01*
X-11638453Y13841958D01*
X-11650869Y13834517D01*
X-11663954Y13828328D01*
X-11677583Y13823451D01*
X-11691624Y13819934D01*
X-11705942Y13817810D01*
X-11720400Y13817100D01*
X-12065400Y13817100D01*
X-12079858Y13817810D01*
X-12094176Y13819934D01*
X-12108217Y13823451D01*
X-12121846Y13828328D01*
X-12134931Y13834517D01*
X-12147347Y13841958D01*
X-12158973Y13850581D01*
X-12169698Y13860302D01*
X-12179419Y13871027D01*
X-12188042Y13882653D01*
X-12195483Y13895069D01*
X-12201672Y13908154D01*
X-12206549Y13921783D01*
X-12210066Y13935824D01*
X-12212190Y13950142D01*
X-12212900Y13964600D01*
X-12212900Y14259600D01*
X-12212190Y14274058D01*
X-12210066Y14288376D01*
X-12206549Y14302417D01*
X-12201672Y14316046D01*
X-12195483Y14329131D01*
X-12188042Y14341547D01*
X-12179419Y14353173D01*
X-12169698Y14363898D01*
X-12158973Y14373619D01*
X-12147347Y14382242D01*
X-12134931Y14389683D01*
X-12121846Y14395872D01*
X-12108217Y14400749D01*
X-12094176Y14404266D01*
X-12079858Y14406390D01*
X-12065400Y14407100D01*
X-11720400Y14407100D01*
X-11705942Y14406390D01*
G37*
G36*
X-9104442Y12206490D02*
G01*
X-9090124Y12204366D01*
X-9076083Y12200849D01*
X-9062454Y12195972D01*
X-9049369Y12189783D01*
X-9036953Y12182342D01*
X-9025327Y12173719D01*
X-9014602Y12163998D01*
X-9004881Y12153273D01*
X-8996258Y12141647D01*
X-8988817Y12129231D01*
X-8982628Y12116146D01*
X-8977751Y12102517D01*
X-8974234Y12088476D01*
X-8972110Y12074158D01*
X-8971400Y12059700D01*
X-8971400Y11714700D01*
X-8972110Y11700242D01*
X-8974234Y11685924D01*
X-8977751Y11671883D01*
X-8982628Y11658254D01*
X-8988817Y11645169D01*
X-8996258Y11632753D01*
X-9004881Y11621127D01*
X-9014602Y11610402D01*
X-9025327Y11600681D01*
X-9036953Y11592058D01*
X-9049369Y11584617D01*
X-9062454Y11578428D01*
X-9076083Y11573551D01*
X-9090124Y11570034D01*
X-9104442Y11567910D01*
X-9118900Y11567200D01*
X-9413900Y11567200D01*
X-9428358Y11567910D01*
X-9442676Y11570034D01*
X-9456717Y11573551D01*
X-9470346Y11578428D01*
X-9483431Y11584617D01*
X-9495847Y11592058D01*
X-9507473Y11600681D01*
X-9518198Y11610402D01*
X-9527919Y11621127D01*
X-9536542Y11632753D01*
X-9543983Y11645169D01*
X-9550172Y11658254D01*
X-9555049Y11671883D01*
X-9558566Y11685924D01*
X-9560690Y11700242D01*
X-9561400Y11714700D01*
X-9561400Y12059700D01*
X-9560690Y12074158D01*
X-9558566Y12088476D01*
X-9555049Y12102517D01*
X-9550172Y12116146D01*
X-9543983Y12129231D01*
X-9536542Y12141647D01*
X-9527919Y12153273D01*
X-9518198Y12163998D01*
X-9507473Y12173719D01*
X-9495847Y12182342D01*
X-9483431Y12189783D01*
X-9470346Y12195972D01*
X-9456717Y12200849D01*
X-9442676Y12204366D01*
X-9428358Y12206490D01*
X-9413900Y12207200D01*
X-9118900Y12207200D01*
X-9104442Y12206490D01*
G37*
G36*
X-8134442Y12206490D02*
G01*
X-8120124Y12204366D01*
X-8106083Y12200849D01*
X-8092454Y12195972D01*
X-8079369Y12189783D01*
X-8066953Y12182342D01*
X-8055327Y12173719D01*
X-8044602Y12163998D01*
X-8034881Y12153273D01*
X-8026258Y12141647D01*
X-8018817Y12129231D01*
X-8012628Y12116146D01*
X-8007751Y12102517D01*
X-8004234Y12088476D01*
X-8002110Y12074158D01*
X-8001400Y12059700D01*
X-8001400Y11714700D01*
X-8002110Y11700242D01*
X-8004234Y11685924D01*
X-8007751Y11671883D01*
X-8012628Y11658254D01*
X-8018817Y11645169D01*
X-8026258Y11632753D01*
X-8034881Y11621127D01*
X-8044602Y11610402D01*
X-8055327Y11600681D01*
X-8066953Y11592058D01*
X-8079369Y11584617D01*
X-8092454Y11578428D01*
X-8106083Y11573551D01*
X-8120124Y11570034D01*
X-8134442Y11567910D01*
X-8148900Y11567200D01*
X-8443900Y11567200D01*
X-8458358Y11567910D01*
X-8472676Y11570034D01*
X-8486717Y11573551D01*
X-8500346Y11578428D01*
X-8513431Y11584617D01*
X-8525847Y11592058D01*
X-8537473Y11600681D01*
X-8548198Y11610402D01*
X-8557919Y11621127D01*
X-8566542Y11632753D01*
X-8573983Y11645169D01*
X-8580172Y11658254D01*
X-8585049Y11671883D01*
X-8588566Y11685924D01*
X-8590690Y11700242D01*
X-8591400Y11714700D01*
X-8591400Y12059700D01*
X-8590690Y12074158D01*
X-8588566Y12088476D01*
X-8585049Y12102517D01*
X-8580172Y12116146D01*
X-8573983Y12129231D01*
X-8566542Y12141647D01*
X-8557919Y12153273D01*
X-8548198Y12163998D01*
X-8537473Y12173719D01*
X-8525847Y12182342D01*
X-8513431Y12189783D01*
X-8500346Y12195972D01*
X-8486717Y12200849D01*
X-8472676Y12204366D01*
X-8458358Y12206490D01*
X-8443900Y12207200D01*
X-8148900Y12207200D01*
X-8134442Y12206490D01*
G37*
M02*
