G04 #@! TF.GenerationSoftware,KiCad,Pcbnew,5.1.5-52549c5~84~ubuntu18.04.1*
G04 #@! TF.CreationDate,2019-12-03T21:09:54-05:00*
G04 #@! TF.ProjectId,SwarmBot,53776172-6d42-46f7-942e-6b696361645f,rev?*
G04 #@! TF.SameCoordinates,Original*
G04 #@! TF.FileFunction,Paste,Top*
G04 #@! TF.FilePolarity,Positive*
%FSLAX46Y46*%
G04 Gerber Fmt 4.6, Leading zero omitted, Abs format (unit mm)*
G04 Created by KiCad (PCBNEW 5.1.5-52549c5~84~ubuntu18.04.1) date 2019-12-03 21:09:54*
%MOMM*%
%LPD*%
G04 APERTURE LIST*
%ADD10R,0.850000X2.350000*%
%ADD11R,0.730000X0.730000*%
%ADD12O,0.750000X0.300000*%
%ADD13O,0.300000X0.750000*%
%ADD14C,0.100000*%
%ADD15R,1.060000X0.650000*%
G04 APERTURE END LIST*
D10*
X13000000Y-1175000D03*
X17000000Y-1175000D03*
X15000000Y1175000D03*
X19000000Y1175000D03*
X-19000000Y-1175000D03*
X-15000000Y-1175000D03*
X-17000000Y1175000D03*
X-13000000Y1175000D03*
D11*
X2019160Y-12896120D03*
X2019160Y-11996120D03*
X2919160Y-11996120D03*
X2919160Y-12896120D03*
D12*
X994160Y-13196120D03*
X994160Y-12696120D03*
X994160Y-12196120D03*
X994160Y-11696120D03*
D13*
X1719160Y-10971120D03*
X2219160Y-10971120D03*
X2719160Y-10971120D03*
X3219160Y-10971120D03*
D12*
X3944160Y-11696120D03*
X3944160Y-12196120D03*
X3944160Y-12696120D03*
X3944160Y-13196120D03*
D13*
X3219160Y-13921120D03*
X2719160Y-13921120D03*
X2219160Y-13921120D03*
X1719160Y-13921120D03*
D11*
X13184880Y-13485360D03*
X13184880Y-14385360D03*
X12284880Y-14385360D03*
X12284880Y-13485360D03*
D12*
X14209880Y-13185360D03*
X14209880Y-13685360D03*
X14209880Y-14185360D03*
X14209880Y-14685360D03*
D13*
X13484880Y-15410360D03*
X12984880Y-15410360D03*
X12484880Y-15410360D03*
X11984880Y-15410360D03*
D12*
X11259880Y-14685360D03*
X11259880Y-14185360D03*
X11259880Y-13685360D03*
X11259880Y-13185360D03*
D13*
X11984880Y-12460360D03*
X12484880Y-12460360D03*
X12984880Y-12460360D03*
X13484880Y-12460360D03*
D14*
G36*
X3741958Y-9500710D02*
G01*
X3756276Y-9502834D01*
X3770317Y-9506351D01*
X3783946Y-9511228D01*
X3797031Y-9517417D01*
X3809447Y-9524858D01*
X3821073Y-9533481D01*
X3831798Y-9543202D01*
X3841519Y-9553927D01*
X3850142Y-9565553D01*
X3857583Y-9577969D01*
X3863772Y-9591054D01*
X3868649Y-9604683D01*
X3872166Y-9618724D01*
X3874290Y-9633042D01*
X3875000Y-9647500D01*
X3875000Y-9992500D01*
X3874290Y-10006958D01*
X3872166Y-10021276D01*
X3868649Y-10035317D01*
X3863772Y-10048946D01*
X3857583Y-10062031D01*
X3850142Y-10074447D01*
X3841519Y-10086073D01*
X3831798Y-10096798D01*
X3821073Y-10106519D01*
X3809447Y-10115142D01*
X3797031Y-10122583D01*
X3783946Y-10128772D01*
X3770317Y-10133649D01*
X3756276Y-10137166D01*
X3741958Y-10139290D01*
X3727500Y-10140000D01*
X3432500Y-10140000D01*
X3418042Y-10139290D01*
X3403724Y-10137166D01*
X3389683Y-10133649D01*
X3376054Y-10128772D01*
X3362969Y-10122583D01*
X3350553Y-10115142D01*
X3338927Y-10106519D01*
X3328202Y-10096798D01*
X3318481Y-10086073D01*
X3309858Y-10074447D01*
X3302417Y-10062031D01*
X3296228Y-10048946D01*
X3291351Y-10035317D01*
X3287834Y-10021276D01*
X3285710Y-10006958D01*
X3285000Y-9992500D01*
X3285000Y-9647500D01*
X3285710Y-9633042D01*
X3287834Y-9618724D01*
X3291351Y-9604683D01*
X3296228Y-9591054D01*
X3302417Y-9577969D01*
X3309858Y-9565553D01*
X3318481Y-9553927D01*
X3328202Y-9543202D01*
X3338927Y-9533481D01*
X3350553Y-9524858D01*
X3362969Y-9517417D01*
X3376054Y-9511228D01*
X3389683Y-9506351D01*
X3403724Y-9502834D01*
X3418042Y-9500710D01*
X3432500Y-9500000D01*
X3727500Y-9500000D01*
X3741958Y-9500710D01*
G37*
G36*
X4711958Y-9500710D02*
G01*
X4726276Y-9502834D01*
X4740317Y-9506351D01*
X4753946Y-9511228D01*
X4767031Y-9517417D01*
X4779447Y-9524858D01*
X4791073Y-9533481D01*
X4801798Y-9543202D01*
X4811519Y-9553927D01*
X4820142Y-9565553D01*
X4827583Y-9577969D01*
X4833772Y-9591054D01*
X4838649Y-9604683D01*
X4842166Y-9618724D01*
X4844290Y-9633042D01*
X4845000Y-9647500D01*
X4845000Y-9992500D01*
X4844290Y-10006958D01*
X4842166Y-10021276D01*
X4838649Y-10035317D01*
X4833772Y-10048946D01*
X4827583Y-10062031D01*
X4820142Y-10074447D01*
X4811519Y-10086073D01*
X4801798Y-10096798D01*
X4791073Y-10106519D01*
X4779447Y-10115142D01*
X4767031Y-10122583D01*
X4753946Y-10128772D01*
X4740317Y-10133649D01*
X4726276Y-10137166D01*
X4711958Y-10139290D01*
X4697500Y-10140000D01*
X4402500Y-10140000D01*
X4388042Y-10139290D01*
X4373724Y-10137166D01*
X4359683Y-10133649D01*
X4346054Y-10128772D01*
X4332969Y-10122583D01*
X4320553Y-10115142D01*
X4308927Y-10106519D01*
X4298202Y-10096798D01*
X4288481Y-10086073D01*
X4279858Y-10074447D01*
X4272417Y-10062031D01*
X4266228Y-10048946D01*
X4261351Y-10035317D01*
X4257834Y-10021276D01*
X4255710Y-10006958D01*
X4255000Y-9992500D01*
X4255000Y-9647500D01*
X4255710Y-9633042D01*
X4257834Y-9618724D01*
X4261351Y-9604683D01*
X4266228Y-9591054D01*
X4272417Y-9577969D01*
X4279858Y-9565553D01*
X4288481Y-9553927D01*
X4298202Y-9543202D01*
X4308927Y-9533481D01*
X4320553Y-9524858D01*
X4332969Y-9517417D01*
X4346054Y-9511228D01*
X4359683Y-9506351D01*
X4373724Y-9502834D01*
X4388042Y-9500710D01*
X4402500Y-9500000D01*
X4697500Y-9500000D01*
X4711958Y-9500710D01*
G37*
G36*
X3726958Y-14770710D02*
G01*
X3741276Y-14772834D01*
X3755317Y-14776351D01*
X3768946Y-14781228D01*
X3782031Y-14787417D01*
X3794447Y-14794858D01*
X3806073Y-14803481D01*
X3816798Y-14813202D01*
X3826519Y-14823927D01*
X3835142Y-14835553D01*
X3842583Y-14847969D01*
X3848772Y-14861054D01*
X3853649Y-14874683D01*
X3857166Y-14888724D01*
X3859290Y-14903042D01*
X3860000Y-14917500D01*
X3860000Y-15262500D01*
X3859290Y-15276958D01*
X3857166Y-15291276D01*
X3853649Y-15305317D01*
X3848772Y-15318946D01*
X3842583Y-15332031D01*
X3835142Y-15344447D01*
X3826519Y-15356073D01*
X3816798Y-15366798D01*
X3806073Y-15376519D01*
X3794447Y-15385142D01*
X3782031Y-15392583D01*
X3768946Y-15398772D01*
X3755317Y-15403649D01*
X3741276Y-15407166D01*
X3726958Y-15409290D01*
X3712500Y-15410000D01*
X3417500Y-15410000D01*
X3403042Y-15409290D01*
X3388724Y-15407166D01*
X3374683Y-15403649D01*
X3361054Y-15398772D01*
X3347969Y-15392583D01*
X3335553Y-15385142D01*
X3323927Y-15376519D01*
X3313202Y-15366798D01*
X3303481Y-15356073D01*
X3294858Y-15344447D01*
X3287417Y-15332031D01*
X3281228Y-15318946D01*
X3276351Y-15305317D01*
X3272834Y-15291276D01*
X3270710Y-15276958D01*
X3270000Y-15262500D01*
X3270000Y-14917500D01*
X3270710Y-14903042D01*
X3272834Y-14888724D01*
X3276351Y-14874683D01*
X3281228Y-14861054D01*
X3287417Y-14847969D01*
X3294858Y-14835553D01*
X3303481Y-14823927D01*
X3313202Y-14813202D01*
X3323927Y-14803481D01*
X3335553Y-14794858D01*
X3347969Y-14787417D01*
X3361054Y-14781228D01*
X3374683Y-14776351D01*
X3388724Y-14772834D01*
X3403042Y-14770710D01*
X3417500Y-14770000D01*
X3712500Y-14770000D01*
X3726958Y-14770710D01*
G37*
G36*
X4696958Y-14770710D02*
G01*
X4711276Y-14772834D01*
X4725317Y-14776351D01*
X4738946Y-14781228D01*
X4752031Y-14787417D01*
X4764447Y-14794858D01*
X4776073Y-14803481D01*
X4786798Y-14813202D01*
X4796519Y-14823927D01*
X4805142Y-14835553D01*
X4812583Y-14847969D01*
X4818772Y-14861054D01*
X4823649Y-14874683D01*
X4827166Y-14888724D01*
X4829290Y-14903042D01*
X4830000Y-14917500D01*
X4830000Y-15262500D01*
X4829290Y-15276958D01*
X4827166Y-15291276D01*
X4823649Y-15305317D01*
X4818772Y-15318946D01*
X4812583Y-15332031D01*
X4805142Y-15344447D01*
X4796519Y-15356073D01*
X4786798Y-15366798D01*
X4776073Y-15376519D01*
X4764447Y-15385142D01*
X4752031Y-15392583D01*
X4738946Y-15398772D01*
X4725317Y-15403649D01*
X4711276Y-15407166D01*
X4696958Y-15409290D01*
X4682500Y-15410000D01*
X4387500Y-15410000D01*
X4373042Y-15409290D01*
X4358724Y-15407166D01*
X4344683Y-15403649D01*
X4331054Y-15398772D01*
X4317969Y-15392583D01*
X4305553Y-15385142D01*
X4293927Y-15376519D01*
X4283202Y-15366798D01*
X4273481Y-15356073D01*
X4264858Y-15344447D01*
X4257417Y-15332031D01*
X4251228Y-15318946D01*
X4246351Y-15305317D01*
X4242834Y-15291276D01*
X4240710Y-15276958D01*
X4240000Y-15262500D01*
X4240000Y-14917500D01*
X4240710Y-14903042D01*
X4242834Y-14888724D01*
X4246351Y-14874683D01*
X4251228Y-14861054D01*
X4257417Y-14847969D01*
X4264858Y-14835553D01*
X4273481Y-14823927D01*
X4283202Y-14813202D01*
X4293927Y-14803481D01*
X4305553Y-14794858D01*
X4317969Y-14787417D01*
X4331054Y-14781228D01*
X4344683Y-14776351D01*
X4358724Y-14772834D01*
X4373042Y-14770710D01*
X4387500Y-14770000D01*
X4682500Y-14770000D01*
X4696958Y-14770710D01*
G37*
G36*
X486958Y-8225710D02*
G01*
X501276Y-8227834D01*
X515317Y-8231351D01*
X528946Y-8236228D01*
X542031Y-8242417D01*
X554447Y-8249858D01*
X566073Y-8258481D01*
X576798Y-8268202D01*
X586519Y-8278927D01*
X595142Y-8290553D01*
X602583Y-8302969D01*
X608772Y-8316054D01*
X613649Y-8329683D01*
X617166Y-8343724D01*
X619290Y-8358042D01*
X620000Y-8372500D01*
X620000Y-8667500D01*
X619290Y-8681958D01*
X617166Y-8696276D01*
X613649Y-8710317D01*
X608772Y-8723946D01*
X602583Y-8737031D01*
X595142Y-8749447D01*
X586519Y-8761073D01*
X576798Y-8771798D01*
X566073Y-8781519D01*
X554447Y-8790142D01*
X542031Y-8797583D01*
X528946Y-8803772D01*
X515317Y-8808649D01*
X501276Y-8812166D01*
X486958Y-8814290D01*
X472500Y-8815000D01*
X127500Y-8815000D01*
X113042Y-8814290D01*
X98724Y-8812166D01*
X84683Y-8808649D01*
X71054Y-8803772D01*
X57969Y-8797583D01*
X45553Y-8790142D01*
X33927Y-8781519D01*
X23202Y-8771798D01*
X13481Y-8761073D01*
X4858Y-8749447D01*
X-2583Y-8737031D01*
X-8772Y-8723946D01*
X-13649Y-8710317D01*
X-17166Y-8696276D01*
X-19290Y-8681958D01*
X-20000Y-8667500D01*
X-20000Y-8372500D01*
X-19290Y-8358042D01*
X-17166Y-8343724D01*
X-13649Y-8329683D01*
X-8772Y-8316054D01*
X-2583Y-8302969D01*
X4858Y-8290553D01*
X13481Y-8278927D01*
X23202Y-8268202D01*
X33927Y-8258481D01*
X45553Y-8249858D01*
X57969Y-8242417D01*
X71054Y-8236228D01*
X84683Y-8231351D01*
X98724Y-8227834D01*
X113042Y-8225710D01*
X127500Y-8225000D01*
X472500Y-8225000D01*
X486958Y-8225710D01*
G37*
G36*
X486958Y-9195710D02*
G01*
X501276Y-9197834D01*
X515317Y-9201351D01*
X528946Y-9206228D01*
X542031Y-9212417D01*
X554447Y-9219858D01*
X566073Y-9228481D01*
X576798Y-9238202D01*
X586519Y-9248927D01*
X595142Y-9260553D01*
X602583Y-9272969D01*
X608772Y-9286054D01*
X613649Y-9299683D01*
X617166Y-9313724D01*
X619290Y-9328042D01*
X620000Y-9342500D01*
X620000Y-9637500D01*
X619290Y-9651958D01*
X617166Y-9666276D01*
X613649Y-9680317D01*
X608772Y-9693946D01*
X602583Y-9707031D01*
X595142Y-9719447D01*
X586519Y-9731073D01*
X576798Y-9741798D01*
X566073Y-9751519D01*
X554447Y-9760142D01*
X542031Y-9767583D01*
X528946Y-9773772D01*
X515317Y-9778649D01*
X501276Y-9782166D01*
X486958Y-9784290D01*
X472500Y-9785000D01*
X127500Y-9785000D01*
X113042Y-9784290D01*
X98724Y-9782166D01*
X84683Y-9778649D01*
X71054Y-9773772D01*
X57969Y-9767583D01*
X45553Y-9760142D01*
X33927Y-9751519D01*
X23202Y-9741798D01*
X13481Y-9731073D01*
X4858Y-9719447D01*
X-2583Y-9707031D01*
X-8772Y-9693946D01*
X-13649Y-9680317D01*
X-17166Y-9666276D01*
X-19290Y-9651958D01*
X-20000Y-9637500D01*
X-20000Y-9342500D01*
X-19290Y-9328042D01*
X-17166Y-9313724D01*
X-13649Y-9299683D01*
X-8772Y-9286054D01*
X-2583Y-9272969D01*
X4858Y-9260553D01*
X13481Y-9248927D01*
X23202Y-9238202D01*
X33927Y-9228481D01*
X45553Y-9219858D01*
X57969Y-9212417D01*
X71054Y-9206228D01*
X84683Y-9201351D01*
X98724Y-9197834D01*
X113042Y-9195710D01*
X127500Y-9195000D01*
X472500Y-9195000D01*
X486958Y-9195710D01*
G37*
G36*
X2376298Y-14983510D02*
G01*
X2390616Y-14985634D01*
X2404657Y-14989151D01*
X2418286Y-14994028D01*
X2431371Y-15000217D01*
X2443787Y-15007658D01*
X2455413Y-15016281D01*
X2466138Y-15026002D01*
X2475859Y-15036727D01*
X2484482Y-15048353D01*
X2491923Y-15060769D01*
X2498112Y-15073854D01*
X2502989Y-15087483D01*
X2506506Y-15101524D01*
X2508630Y-15115842D01*
X2509340Y-15130300D01*
X2509340Y-15425300D01*
X2508630Y-15439758D01*
X2506506Y-15454076D01*
X2502989Y-15468117D01*
X2498112Y-15481746D01*
X2491923Y-15494831D01*
X2484482Y-15507247D01*
X2475859Y-15518873D01*
X2466138Y-15529598D01*
X2455413Y-15539319D01*
X2443787Y-15547942D01*
X2431371Y-15555383D01*
X2418286Y-15561572D01*
X2404657Y-15566449D01*
X2390616Y-15569966D01*
X2376298Y-15572090D01*
X2361840Y-15572800D01*
X2016840Y-15572800D01*
X2002382Y-15572090D01*
X1988064Y-15569966D01*
X1974023Y-15566449D01*
X1960394Y-15561572D01*
X1947309Y-15555383D01*
X1934893Y-15547942D01*
X1923267Y-15539319D01*
X1912542Y-15529598D01*
X1902821Y-15518873D01*
X1894198Y-15507247D01*
X1886757Y-15494831D01*
X1880568Y-15481746D01*
X1875691Y-15468117D01*
X1872174Y-15454076D01*
X1870050Y-15439758D01*
X1869340Y-15425300D01*
X1869340Y-15130300D01*
X1870050Y-15115842D01*
X1872174Y-15101524D01*
X1875691Y-15087483D01*
X1880568Y-15073854D01*
X1886757Y-15060769D01*
X1894198Y-15048353D01*
X1902821Y-15036727D01*
X1912542Y-15026002D01*
X1923267Y-15016281D01*
X1934893Y-15007658D01*
X1947309Y-15000217D01*
X1960394Y-14994028D01*
X1974023Y-14989151D01*
X1988064Y-14985634D01*
X2002382Y-14983510D01*
X2016840Y-14982800D01*
X2361840Y-14982800D01*
X2376298Y-14983510D01*
G37*
G36*
X2376298Y-15953510D02*
G01*
X2390616Y-15955634D01*
X2404657Y-15959151D01*
X2418286Y-15964028D01*
X2431371Y-15970217D01*
X2443787Y-15977658D01*
X2455413Y-15986281D01*
X2466138Y-15996002D01*
X2475859Y-16006727D01*
X2484482Y-16018353D01*
X2491923Y-16030769D01*
X2498112Y-16043854D01*
X2502989Y-16057483D01*
X2506506Y-16071524D01*
X2508630Y-16085842D01*
X2509340Y-16100300D01*
X2509340Y-16395300D01*
X2508630Y-16409758D01*
X2506506Y-16424076D01*
X2502989Y-16438117D01*
X2498112Y-16451746D01*
X2491923Y-16464831D01*
X2484482Y-16477247D01*
X2475859Y-16488873D01*
X2466138Y-16499598D01*
X2455413Y-16509319D01*
X2443787Y-16517942D01*
X2431371Y-16525383D01*
X2418286Y-16531572D01*
X2404657Y-16536449D01*
X2390616Y-16539966D01*
X2376298Y-16542090D01*
X2361840Y-16542800D01*
X2016840Y-16542800D01*
X2002382Y-16542090D01*
X1988064Y-16539966D01*
X1974023Y-16536449D01*
X1960394Y-16531572D01*
X1947309Y-16525383D01*
X1934893Y-16517942D01*
X1923267Y-16509319D01*
X1912542Y-16499598D01*
X1902821Y-16488873D01*
X1894198Y-16477247D01*
X1886757Y-16464831D01*
X1880568Y-16451746D01*
X1875691Y-16438117D01*
X1872174Y-16424076D01*
X1870050Y-16409758D01*
X1869340Y-16395300D01*
X1869340Y-16100300D01*
X1870050Y-16085842D01*
X1872174Y-16071524D01*
X1875691Y-16057483D01*
X1880568Y-16043854D01*
X1886757Y-16030769D01*
X1894198Y-16018353D01*
X1902821Y-16006727D01*
X1912542Y-15996002D01*
X1923267Y-15986281D01*
X1934893Y-15977658D01*
X1947309Y-15970217D01*
X1960394Y-15964028D01*
X1974023Y-15959151D01*
X1988064Y-15955634D01*
X2002382Y-15953510D01*
X2016840Y-15952800D01*
X2361840Y-15952800D01*
X2376298Y-15953510D01*
G37*
G36*
X1426958Y-8220710D02*
G01*
X1441276Y-8222834D01*
X1455317Y-8226351D01*
X1468946Y-8231228D01*
X1482031Y-8237417D01*
X1494447Y-8244858D01*
X1506073Y-8253481D01*
X1516798Y-8263202D01*
X1526519Y-8273927D01*
X1535142Y-8285553D01*
X1542583Y-8297969D01*
X1548772Y-8311054D01*
X1553649Y-8324683D01*
X1557166Y-8338724D01*
X1559290Y-8353042D01*
X1560000Y-8367500D01*
X1560000Y-8662500D01*
X1559290Y-8676958D01*
X1557166Y-8691276D01*
X1553649Y-8705317D01*
X1548772Y-8718946D01*
X1542583Y-8732031D01*
X1535142Y-8744447D01*
X1526519Y-8756073D01*
X1516798Y-8766798D01*
X1506073Y-8776519D01*
X1494447Y-8785142D01*
X1482031Y-8792583D01*
X1468946Y-8798772D01*
X1455317Y-8803649D01*
X1441276Y-8807166D01*
X1426958Y-8809290D01*
X1412500Y-8810000D01*
X1067500Y-8810000D01*
X1053042Y-8809290D01*
X1038724Y-8807166D01*
X1024683Y-8803649D01*
X1011054Y-8798772D01*
X997969Y-8792583D01*
X985553Y-8785142D01*
X973927Y-8776519D01*
X963202Y-8766798D01*
X953481Y-8756073D01*
X944858Y-8744447D01*
X937417Y-8732031D01*
X931228Y-8718946D01*
X926351Y-8705317D01*
X922834Y-8691276D01*
X920710Y-8676958D01*
X920000Y-8662500D01*
X920000Y-8367500D01*
X920710Y-8353042D01*
X922834Y-8338724D01*
X926351Y-8324683D01*
X931228Y-8311054D01*
X937417Y-8297969D01*
X944858Y-8285553D01*
X953481Y-8273927D01*
X963202Y-8263202D01*
X973927Y-8253481D01*
X985553Y-8244858D01*
X997969Y-8237417D01*
X1011054Y-8231228D01*
X1024683Y-8226351D01*
X1038724Y-8222834D01*
X1053042Y-8220710D01*
X1067500Y-8220000D01*
X1412500Y-8220000D01*
X1426958Y-8220710D01*
G37*
G36*
X1426958Y-9190710D02*
G01*
X1441276Y-9192834D01*
X1455317Y-9196351D01*
X1468946Y-9201228D01*
X1482031Y-9207417D01*
X1494447Y-9214858D01*
X1506073Y-9223481D01*
X1516798Y-9233202D01*
X1526519Y-9243927D01*
X1535142Y-9255553D01*
X1542583Y-9267969D01*
X1548772Y-9281054D01*
X1553649Y-9294683D01*
X1557166Y-9308724D01*
X1559290Y-9323042D01*
X1560000Y-9337500D01*
X1560000Y-9632500D01*
X1559290Y-9646958D01*
X1557166Y-9661276D01*
X1553649Y-9675317D01*
X1548772Y-9688946D01*
X1542583Y-9702031D01*
X1535142Y-9714447D01*
X1526519Y-9726073D01*
X1516798Y-9736798D01*
X1506073Y-9746519D01*
X1494447Y-9755142D01*
X1482031Y-9762583D01*
X1468946Y-9768772D01*
X1455317Y-9773649D01*
X1441276Y-9777166D01*
X1426958Y-9779290D01*
X1412500Y-9780000D01*
X1067500Y-9780000D01*
X1053042Y-9779290D01*
X1038724Y-9777166D01*
X1024683Y-9773649D01*
X1011054Y-9768772D01*
X997969Y-9762583D01*
X985553Y-9755142D01*
X973927Y-9746519D01*
X963202Y-9736798D01*
X953481Y-9726073D01*
X944858Y-9714447D01*
X937417Y-9702031D01*
X931228Y-9688946D01*
X926351Y-9675317D01*
X922834Y-9661276D01*
X920710Y-9646958D01*
X920000Y-9632500D01*
X920000Y-9337500D01*
X920710Y-9323042D01*
X922834Y-9308724D01*
X926351Y-9294683D01*
X931228Y-9281054D01*
X937417Y-9267969D01*
X944858Y-9255553D01*
X953481Y-9243927D01*
X963202Y-9233202D01*
X973927Y-9223481D01*
X985553Y-9214858D01*
X997969Y-9207417D01*
X1011054Y-9201228D01*
X1024683Y-9196351D01*
X1038724Y-9192834D01*
X1053042Y-9190710D01*
X1067500Y-9190000D01*
X1412500Y-9190000D01*
X1426958Y-9190710D01*
G37*
G36*
X1436958Y-14975710D02*
G01*
X1451276Y-14977834D01*
X1465317Y-14981351D01*
X1478946Y-14986228D01*
X1492031Y-14992417D01*
X1504447Y-14999858D01*
X1516073Y-15008481D01*
X1526798Y-15018202D01*
X1536519Y-15028927D01*
X1545142Y-15040553D01*
X1552583Y-15052969D01*
X1558772Y-15066054D01*
X1563649Y-15079683D01*
X1567166Y-15093724D01*
X1569290Y-15108042D01*
X1570000Y-15122500D01*
X1570000Y-15417500D01*
X1569290Y-15431958D01*
X1567166Y-15446276D01*
X1563649Y-15460317D01*
X1558772Y-15473946D01*
X1552583Y-15487031D01*
X1545142Y-15499447D01*
X1536519Y-15511073D01*
X1526798Y-15521798D01*
X1516073Y-15531519D01*
X1504447Y-15540142D01*
X1492031Y-15547583D01*
X1478946Y-15553772D01*
X1465317Y-15558649D01*
X1451276Y-15562166D01*
X1436958Y-15564290D01*
X1422500Y-15565000D01*
X1077500Y-15565000D01*
X1063042Y-15564290D01*
X1048724Y-15562166D01*
X1034683Y-15558649D01*
X1021054Y-15553772D01*
X1007969Y-15547583D01*
X995553Y-15540142D01*
X983927Y-15531519D01*
X973202Y-15521798D01*
X963481Y-15511073D01*
X954858Y-15499447D01*
X947417Y-15487031D01*
X941228Y-15473946D01*
X936351Y-15460317D01*
X932834Y-15446276D01*
X930710Y-15431958D01*
X930000Y-15417500D01*
X930000Y-15122500D01*
X930710Y-15108042D01*
X932834Y-15093724D01*
X936351Y-15079683D01*
X941228Y-15066054D01*
X947417Y-15052969D01*
X954858Y-15040553D01*
X963481Y-15028927D01*
X973202Y-15018202D01*
X983927Y-15008481D01*
X995553Y-14999858D01*
X1007969Y-14992417D01*
X1021054Y-14986228D01*
X1034683Y-14981351D01*
X1048724Y-14977834D01*
X1063042Y-14975710D01*
X1077500Y-14975000D01*
X1422500Y-14975000D01*
X1436958Y-14975710D01*
G37*
G36*
X1436958Y-15945710D02*
G01*
X1451276Y-15947834D01*
X1465317Y-15951351D01*
X1478946Y-15956228D01*
X1492031Y-15962417D01*
X1504447Y-15969858D01*
X1516073Y-15978481D01*
X1526798Y-15988202D01*
X1536519Y-15998927D01*
X1545142Y-16010553D01*
X1552583Y-16022969D01*
X1558772Y-16036054D01*
X1563649Y-16049683D01*
X1567166Y-16063724D01*
X1569290Y-16078042D01*
X1570000Y-16092500D01*
X1570000Y-16387500D01*
X1569290Y-16401958D01*
X1567166Y-16416276D01*
X1563649Y-16430317D01*
X1558772Y-16443946D01*
X1552583Y-16457031D01*
X1545142Y-16469447D01*
X1536519Y-16481073D01*
X1526798Y-16491798D01*
X1516073Y-16501519D01*
X1504447Y-16510142D01*
X1492031Y-16517583D01*
X1478946Y-16523772D01*
X1465317Y-16528649D01*
X1451276Y-16532166D01*
X1436958Y-16534290D01*
X1422500Y-16535000D01*
X1077500Y-16535000D01*
X1063042Y-16534290D01*
X1048724Y-16532166D01*
X1034683Y-16528649D01*
X1021054Y-16523772D01*
X1007969Y-16517583D01*
X995553Y-16510142D01*
X983927Y-16501519D01*
X973202Y-16491798D01*
X963481Y-16481073D01*
X954858Y-16469447D01*
X947417Y-16457031D01*
X941228Y-16443946D01*
X936351Y-16430317D01*
X932834Y-16416276D01*
X930710Y-16401958D01*
X930000Y-16387500D01*
X930000Y-16092500D01*
X930710Y-16078042D01*
X932834Y-16063724D01*
X936351Y-16049683D01*
X941228Y-16036054D01*
X947417Y-16022969D01*
X954858Y-16010553D01*
X963481Y-15998927D01*
X973202Y-15988202D01*
X983927Y-15978481D01*
X995553Y-15969858D01*
X1007969Y-15962417D01*
X1021054Y-15956228D01*
X1034683Y-15951351D01*
X1048724Y-15947834D01*
X1063042Y-15945710D01*
X1077500Y-15945000D01*
X1422500Y-15945000D01*
X1436958Y-15945710D01*
G37*
G36*
X2386958Y-9185710D02*
G01*
X2401276Y-9187834D01*
X2415317Y-9191351D01*
X2428946Y-9196228D01*
X2442031Y-9202417D01*
X2454447Y-9209858D01*
X2466073Y-9218481D01*
X2476798Y-9228202D01*
X2486519Y-9238927D01*
X2495142Y-9250553D01*
X2502583Y-9262969D01*
X2508772Y-9276054D01*
X2513649Y-9289683D01*
X2517166Y-9303724D01*
X2519290Y-9318042D01*
X2520000Y-9332500D01*
X2520000Y-9627500D01*
X2519290Y-9641958D01*
X2517166Y-9656276D01*
X2513649Y-9670317D01*
X2508772Y-9683946D01*
X2502583Y-9697031D01*
X2495142Y-9709447D01*
X2486519Y-9721073D01*
X2476798Y-9731798D01*
X2466073Y-9741519D01*
X2454447Y-9750142D01*
X2442031Y-9757583D01*
X2428946Y-9763772D01*
X2415317Y-9768649D01*
X2401276Y-9772166D01*
X2386958Y-9774290D01*
X2372500Y-9775000D01*
X2027500Y-9775000D01*
X2013042Y-9774290D01*
X1998724Y-9772166D01*
X1984683Y-9768649D01*
X1971054Y-9763772D01*
X1957969Y-9757583D01*
X1945553Y-9750142D01*
X1933927Y-9741519D01*
X1923202Y-9731798D01*
X1913481Y-9721073D01*
X1904858Y-9709447D01*
X1897417Y-9697031D01*
X1891228Y-9683946D01*
X1886351Y-9670317D01*
X1882834Y-9656276D01*
X1880710Y-9641958D01*
X1880000Y-9627500D01*
X1880000Y-9332500D01*
X1880710Y-9318042D01*
X1882834Y-9303724D01*
X1886351Y-9289683D01*
X1891228Y-9276054D01*
X1897417Y-9262969D01*
X1904858Y-9250553D01*
X1913481Y-9238927D01*
X1923202Y-9228202D01*
X1933927Y-9218481D01*
X1945553Y-9209858D01*
X1957969Y-9202417D01*
X1971054Y-9196228D01*
X1984683Y-9191351D01*
X1998724Y-9187834D01*
X2013042Y-9185710D01*
X2027500Y-9185000D01*
X2372500Y-9185000D01*
X2386958Y-9185710D01*
G37*
G36*
X2386958Y-8215710D02*
G01*
X2401276Y-8217834D01*
X2415317Y-8221351D01*
X2428946Y-8226228D01*
X2442031Y-8232417D01*
X2454447Y-8239858D01*
X2466073Y-8248481D01*
X2476798Y-8258202D01*
X2486519Y-8268927D01*
X2495142Y-8280553D01*
X2502583Y-8292969D01*
X2508772Y-8306054D01*
X2513649Y-8319683D01*
X2517166Y-8333724D01*
X2519290Y-8348042D01*
X2520000Y-8362500D01*
X2520000Y-8657500D01*
X2519290Y-8671958D01*
X2517166Y-8686276D01*
X2513649Y-8700317D01*
X2508772Y-8713946D01*
X2502583Y-8727031D01*
X2495142Y-8739447D01*
X2486519Y-8751073D01*
X2476798Y-8761798D01*
X2466073Y-8771519D01*
X2454447Y-8780142D01*
X2442031Y-8787583D01*
X2428946Y-8793772D01*
X2415317Y-8798649D01*
X2401276Y-8802166D01*
X2386958Y-8804290D01*
X2372500Y-8805000D01*
X2027500Y-8805000D01*
X2013042Y-8804290D01*
X1998724Y-8802166D01*
X1984683Y-8798649D01*
X1971054Y-8793772D01*
X1957969Y-8787583D01*
X1945553Y-8780142D01*
X1933927Y-8771519D01*
X1923202Y-8761798D01*
X1913481Y-8751073D01*
X1904858Y-8739447D01*
X1897417Y-8727031D01*
X1891228Y-8713946D01*
X1886351Y-8700317D01*
X1882834Y-8686276D01*
X1880710Y-8671958D01*
X1880000Y-8657500D01*
X1880000Y-8362500D01*
X1880710Y-8348042D01*
X1882834Y-8333724D01*
X1886351Y-8319683D01*
X1891228Y-8306054D01*
X1897417Y-8292969D01*
X1904858Y-8280553D01*
X1913481Y-8268927D01*
X1923202Y-8258202D01*
X1933927Y-8248481D01*
X1945553Y-8239858D01*
X1957969Y-8232417D01*
X1971054Y-8226228D01*
X1984683Y-8221351D01*
X1998724Y-8217834D01*
X2013042Y-8215710D01*
X2027500Y-8215000D01*
X2372500Y-8215000D01*
X2386958Y-8215710D01*
G37*
G36*
X6958Y-11385710D02*
G01*
X21276Y-11387834D01*
X35317Y-11391351D01*
X48946Y-11396228D01*
X62031Y-11402417D01*
X74447Y-11409858D01*
X86073Y-11418481D01*
X96798Y-11428202D01*
X106519Y-11438927D01*
X115142Y-11450553D01*
X122583Y-11462969D01*
X128772Y-11476054D01*
X133649Y-11489683D01*
X137166Y-11503724D01*
X139290Y-11518042D01*
X140000Y-11532500D01*
X140000Y-11827500D01*
X139290Y-11841958D01*
X137166Y-11856276D01*
X133649Y-11870317D01*
X128772Y-11883946D01*
X122583Y-11897031D01*
X115142Y-11909447D01*
X106519Y-11921073D01*
X96798Y-11931798D01*
X86073Y-11941519D01*
X74447Y-11950142D01*
X62031Y-11957583D01*
X48946Y-11963772D01*
X35317Y-11968649D01*
X21276Y-11972166D01*
X6958Y-11974290D01*
X-7500Y-11975000D01*
X-352500Y-11975000D01*
X-366958Y-11974290D01*
X-381276Y-11972166D01*
X-395317Y-11968649D01*
X-408946Y-11963772D01*
X-422031Y-11957583D01*
X-434447Y-11950142D01*
X-446073Y-11941519D01*
X-456798Y-11931798D01*
X-466519Y-11921073D01*
X-475142Y-11909447D01*
X-482583Y-11897031D01*
X-488772Y-11883946D01*
X-493649Y-11870317D01*
X-497166Y-11856276D01*
X-499290Y-11841958D01*
X-500000Y-11827500D01*
X-500000Y-11532500D01*
X-499290Y-11518042D01*
X-497166Y-11503724D01*
X-493649Y-11489683D01*
X-488772Y-11476054D01*
X-482583Y-11462969D01*
X-475142Y-11450553D01*
X-466519Y-11438927D01*
X-456798Y-11428202D01*
X-446073Y-11418481D01*
X-434447Y-11409858D01*
X-422031Y-11402417D01*
X-408946Y-11396228D01*
X-395317Y-11391351D01*
X-381276Y-11387834D01*
X-366958Y-11385710D01*
X-352500Y-11385000D01*
X-7500Y-11385000D01*
X6958Y-11385710D01*
G37*
G36*
X6958Y-10415710D02*
G01*
X21276Y-10417834D01*
X35317Y-10421351D01*
X48946Y-10426228D01*
X62031Y-10432417D01*
X74447Y-10439858D01*
X86073Y-10448481D01*
X96798Y-10458202D01*
X106519Y-10468927D01*
X115142Y-10480553D01*
X122583Y-10492969D01*
X128772Y-10506054D01*
X133649Y-10519683D01*
X137166Y-10533724D01*
X139290Y-10548042D01*
X140000Y-10562500D01*
X140000Y-10857500D01*
X139290Y-10871958D01*
X137166Y-10886276D01*
X133649Y-10900317D01*
X128772Y-10913946D01*
X122583Y-10927031D01*
X115142Y-10939447D01*
X106519Y-10951073D01*
X96798Y-10961798D01*
X86073Y-10971519D01*
X74447Y-10980142D01*
X62031Y-10987583D01*
X48946Y-10993772D01*
X35317Y-10998649D01*
X21276Y-11002166D01*
X6958Y-11004290D01*
X-7500Y-11005000D01*
X-352500Y-11005000D01*
X-366958Y-11004290D01*
X-381276Y-11002166D01*
X-395317Y-10998649D01*
X-408946Y-10993772D01*
X-422031Y-10987583D01*
X-434447Y-10980142D01*
X-446073Y-10971519D01*
X-456798Y-10961798D01*
X-466519Y-10951073D01*
X-475142Y-10939447D01*
X-482583Y-10927031D01*
X-488772Y-10913946D01*
X-493649Y-10900317D01*
X-497166Y-10886276D01*
X-499290Y-10871958D01*
X-500000Y-10857500D01*
X-500000Y-10562500D01*
X-499290Y-10548042D01*
X-497166Y-10533724D01*
X-493649Y-10519683D01*
X-488772Y-10506054D01*
X-482583Y-10492969D01*
X-475142Y-10480553D01*
X-466519Y-10468927D01*
X-456798Y-10458202D01*
X-446073Y-10448481D01*
X-434447Y-10439858D01*
X-422031Y-10432417D01*
X-408946Y-10426228D01*
X-395317Y-10421351D01*
X-381276Y-10417834D01*
X-366958Y-10415710D01*
X-352500Y-10415000D01*
X-7500Y-10415000D01*
X6958Y-10415710D01*
G37*
G36*
X11815198Y-16236430D02*
G01*
X11829516Y-16238554D01*
X11843557Y-16242071D01*
X11857186Y-16246948D01*
X11870271Y-16253137D01*
X11882687Y-16260578D01*
X11894313Y-16269201D01*
X11905038Y-16278922D01*
X11914759Y-16289647D01*
X11923382Y-16301273D01*
X11930823Y-16313689D01*
X11937012Y-16326774D01*
X11941889Y-16340403D01*
X11945406Y-16354444D01*
X11947530Y-16368762D01*
X11948240Y-16383220D01*
X11948240Y-16728220D01*
X11947530Y-16742678D01*
X11945406Y-16756996D01*
X11941889Y-16771037D01*
X11937012Y-16784666D01*
X11930823Y-16797751D01*
X11923382Y-16810167D01*
X11914759Y-16821793D01*
X11905038Y-16832518D01*
X11894313Y-16842239D01*
X11882687Y-16850862D01*
X11870271Y-16858303D01*
X11857186Y-16864492D01*
X11843557Y-16869369D01*
X11829516Y-16872886D01*
X11815198Y-16875010D01*
X11800740Y-16875720D01*
X11505740Y-16875720D01*
X11491282Y-16875010D01*
X11476964Y-16872886D01*
X11462923Y-16869369D01*
X11449294Y-16864492D01*
X11436209Y-16858303D01*
X11423793Y-16850862D01*
X11412167Y-16842239D01*
X11401442Y-16832518D01*
X11391721Y-16821793D01*
X11383098Y-16810167D01*
X11375657Y-16797751D01*
X11369468Y-16784666D01*
X11364591Y-16771037D01*
X11361074Y-16756996D01*
X11358950Y-16742678D01*
X11358240Y-16728220D01*
X11358240Y-16383220D01*
X11358950Y-16368762D01*
X11361074Y-16354444D01*
X11364591Y-16340403D01*
X11369468Y-16326774D01*
X11375657Y-16313689D01*
X11383098Y-16301273D01*
X11391721Y-16289647D01*
X11401442Y-16278922D01*
X11412167Y-16269201D01*
X11423793Y-16260578D01*
X11436209Y-16253137D01*
X11449294Y-16246948D01*
X11462923Y-16242071D01*
X11476964Y-16238554D01*
X11491282Y-16236430D01*
X11505740Y-16235720D01*
X11800740Y-16235720D01*
X11815198Y-16236430D01*
G37*
G36*
X10845198Y-16236430D02*
G01*
X10859516Y-16238554D01*
X10873557Y-16242071D01*
X10887186Y-16246948D01*
X10900271Y-16253137D01*
X10912687Y-16260578D01*
X10924313Y-16269201D01*
X10935038Y-16278922D01*
X10944759Y-16289647D01*
X10953382Y-16301273D01*
X10960823Y-16313689D01*
X10967012Y-16326774D01*
X10971889Y-16340403D01*
X10975406Y-16354444D01*
X10977530Y-16368762D01*
X10978240Y-16383220D01*
X10978240Y-16728220D01*
X10977530Y-16742678D01*
X10975406Y-16756996D01*
X10971889Y-16771037D01*
X10967012Y-16784666D01*
X10960823Y-16797751D01*
X10953382Y-16810167D01*
X10944759Y-16821793D01*
X10935038Y-16832518D01*
X10924313Y-16842239D01*
X10912687Y-16850862D01*
X10900271Y-16858303D01*
X10887186Y-16864492D01*
X10873557Y-16869369D01*
X10859516Y-16872886D01*
X10845198Y-16875010D01*
X10830740Y-16875720D01*
X10535740Y-16875720D01*
X10521282Y-16875010D01*
X10506964Y-16872886D01*
X10492923Y-16869369D01*
X10479294Y-16864492D01*
X10466209Y-16858303D01*
X10453793Y-16850862D01*
X10442167Y-16842239D01*
X10431442Y-16832518D01*
X10421721Y-16821793D01*
X10413098Y-16810167D01*
X10405657Y-16797751D01*
X10399468Y-16784666D01*
X10394591Y-16771037D01*
X10391074Y-16756996D01*
X10388950Y-16742678D01*
X10388240Y-16728220D01*
X10388240Y-16383220D01*
X10388950Y-16368762D01*
X10391074Y-16354444D01*
X10394591Y-16340403D01*
X10399468Y-16326774D01*
X10405657Y-16313689D01*
X10413098Y-16301273D01*
X10421721Y-16289647D01*
X10431442Y-16278922D01*
X10442167Y-16269201D01*
X10453793Y-16260578D01*
X10466209Y-16253137D01*
X10479294Y-16246948D01*
X10492923Y-16242071D01*
X10506964Y-16238554D01*
X10521282Y-16236430D01*
X10535740Y-16235720D01*
X10830740Y-16235720D01*
X10845198Y-16236430D01*
G37*
G36*
X11947558Y-10988790D02*
G01*
X11961876Y-10990914D01*
X11975917Y-10994431D01*
X11989546Y-10999308D01*
X12002631Y-11005497D01*
X12015047Y-11012938D01*
X12026673Y-11021561D01*
X12037398Y-11031282D01*
X12047119Y-11042007D01*
X12055742Y-11053633D01*
X12063183Y-11066049D01*
X12069372Y-11079134D01*
X12074249Y-11092763D01*
X12077766Y-11106804D01*
X12079890Y-11121122D01*
X12080600Y-11135580D01*
X12080600Y-11480580D01*
X12079890Y-11495038D01*
X12077766Y-11509356D01*
X12074249Y-11523397D01*
X12069372Y-11537026D01*
X12063183Y-11550111D01*
X12055742Y-11562527D01*
X12047119Y-11574153D01*
X12037398Y-11584878D01*
X12026673Y-11594599D01*
X12015047Y-11603222D01*
X12002631Y-11610663D01*
X11989546Y-11616852D01*
X11975917Y-11621729D01*
X11961876Y-11625246D01*
X11947558Y-11627370D01*
X11933100Y-11628080D01*
X11638100Y-11628080D01*
X11623642Y-11627370D01*
X11609324Y-11625246D01*
X11595283Y-11621729D01*
X11581654Y-11616852D01*
X11568569Y-11610663D01*
X11556153Y-11603222D01*
X11544527Y-11594599D01*
X11533802Y-11584878D01*
X11524081Y-11574153D01*
X11515458Y-11562527D01*
X11508017Y-11550111D01*
X11501828Y-11537026D01*
X11496951Y-11523397D01*
X11493434Y-11509356D01*
X11491310Y-11495038D01*
X11490600Y-11480580D01*
X11490600Y-11135580D01*
X11491310Y-11121122D01*
X11493434Y-11106804D01*
X11496951Y-11092763D01*
X11501828Y-11079134D01*
X11508017Y-11066049D01*
X11515458Y-11053633D01*
X11524081Y-11042007D01*
X11533802Y-11031282D01*
X11544527Y-11021561D01*
X11556153Y-11012938D01*
X11568569Y-11005497D01*
X11581654Y-10999308D01*
X11595283Y-10994431D01*
X11609324Y-10990914D01*
X11623642Y-10988790D01*
X11638100Y-10988080D01*
X11933100Y-10988080D01*
X11947558Y-10988790D01*
G37*
G36*
X10977558Y-10988790D02*
G01*
X10991876Y-10990914D01*
X11005917Y-10994431D01*
X11019546Y-10999308D01*
X11032631Y-11005497D01*
X11045047Y-11012938D01*
X11056673Y-11021561D01*
X11067398Y-11031282D01*
X11077119Y-11042007D01*
X11085742Y-11053633D01*
X11093183Y-11066049D01*
X11099372Y-11079134D01*
X11104249Y-11092763D01*
X11107766Y-11106804D01*
X11109890Y-11121122D01*
X11110600Y-11135580D01*
X11110600Y-11480580D01*
X11109890Y-11495038D01*
X11107766Y-11509356D01*
X11104249Y-11523397D01*
X11099372Y-11537026D01*
X11093183Y-11550111D01*
X11085742Y-11562527D01*
X11077119Y-11574153D01*
X11067398Y-11584878D01*
X11056673Y-11594599D01*
X11045047Y-11603222D01*
X11032631Y-11610663D01*
X11019546Y-11616852D01*
X11005917Y-11621729D01*
X10991876Y-11625246D01*
X10977558Y-11627370D01*
X10963100Y-11628080D01*
X10668100Y-11628080D01*
X10653642Y-11627370D01*
X10639324Y-11625246D01*
X10625283Y-11621729D01*
X10611654Y-11616852D01*
X10598569Y-11610663D01*
X10586153Y-11603222D01*
X10574527Y-11594599D01*
X10563802Y-11584878D01*
X10554081Y-11574153D01*
X10545458Y-11562527D01*
X10538017Y-11550111D01*
X10531828Y-11537026D01*
X10526951Y-11523397D01*
X10523434Y-11509356D01*
X10521310Y-11495038D01*
X10520600Y-11480580D01*
X10520600Y-11135580D01*
X10521310Y-11121122D01*
X10523434Y-11106804D01*
X10526951Y-11092763D01*
X10531828Y-11079134D01*
X10538017Y-11066049D01*
X10545458Y-11053633D01*
X10554081Y-11042007D01*
X10563802Y-11031282D01*
X10574527Y-11021561D01*
X10586153Y-11012938D01*
X10598569Y-11005497D01*
X10611654Y-10999308D01*
X10625283Y-10994431D01*
X10639324Y-10990914D01*
X10653642Y-10988790D01*
X10668100Y-10988080D01*
X10963100Y-10988080D01*
X10977558Y-10988790D01*
G37*
G36*
X15056118Y-17215470D02*
G01*
X15070436Y-17217594D01*
X15084477Y-17221111D01*
X15098106Y-17225988D01*
X15111191Y-17232177D01*
X15123607Y-17239618D01*
X15135233Y-17248241D01*
X15145958Y-17257962D01*
X15155679Y-17268687D01*
X15164302Y-17280313D01*
X15171743Y-17292729D01*
X15177932Y-17305814D01*
X15182809Y-17319443D01*
X15186326Y-17333484D01*
X15188450Y-17347802D01*
X15189160Y-17362260D01*
X15189160Y-17657260D01*
X15188450Y-17671718D01*
X15186326Y-17686036D01*
X15182809Y-17700077D01*
X15177932Y-17713706D01*
X15171743Y-17726791D01*
X15164302Y-17739207D01*
X15155679Y-17750833D01*
X15145958Y-17761558D01*
X15135233Y-17771279D01*
X15123607Y-17779902D01*
X15111191Y-17787343D01*
X15098106Y-17793532D01*
X15084477Y-17798409D01*
X15070436Y-17801926D01*
X15056118Y-17804050D01*
X15041660Y-17804760D01*
X14696660Y-17804760D01*
X14682202Y-17804050D01*
X14667884Y-17801926D01*
X14653843Y-17798409D01*
X14640214Y-17793532D01*
X14627129Y-17787343D01*
X14614713Y-17779902D01*
X14603087Y-17771279D01*
X14592362Y-17761558D01*
X14582641Y-17750833D01*
X14574018Y-17739207D01*
X14566577Y-17726791D01*
X14560388Y-17713706D01*
X14555511Y-17700077D01*
X14551994Y-17686036D01*
X14549870Y-17671718D01*
X14549160Y-17657260D01*
X14549160Y-17362260D01*
X14549870Y-17347802D01*
X14551994Y-17333484D01*
X14555511Y-17319443D01*
X14560388Y-17305814D01*
X14566577Y-17292729D01*
X14574018Y-17280313D01*
X14582641Y-17268687D01*
X14592362Y-17257962D01*
X14603087Y-17248241D01*
X14614713Y-17239618D01*
X14627129Y-17232177D01*
X14640214Y-17225988D01*
X14653843Y-17221111D01*
X14667884Y-17217594D01*
X14682202Y-17215470D01*
X14696660Y-17214760D01*
X15041660Y-17214760D01*
X15056118Y-17215470D01*
G37*
G36*
X15056118Y-16245470D02*
G01*
X15070436Y-16247594D01*
X15084477Y-16251111D01*
X15098106Y-16255988D01*
X15111191Y-16262177D01*
X15123607Y-16269618D01*
X15135233Y-16278241D01*
X15145958Y-16287962D01*
X15155679Y-16298687D01*
X15164302Y-16310313D01*
X15171743Y-16322729D01*
X15177932Y-16335814D01*
X15182809Y-16349443D01*
X15186326Y-16363484D01*
X15188450Y-16377802D01*
X15189160Y-16392260D01*
X15189160Y-16687260D01*
X15188450Y-16701718D01*
X15186326Y-16716036D01*
X15182809Y-16730077D01*
X15177932Y-16743706D01*
X15171743Y-16756791D01*
X15164302Y-16769207D01*
X15155679Y-16780833D01*
X15145958Y-16791558D01*
X15135233Y-16801279D01*
X15123607Y-16809902D01*
X15111191Y-16817343D01*
X15098106Y-16823532D01*
X15084477Y-16828409D01*
X15070436Y-16831926D01*
X15056118Y-16834050D01*
X15041660Y-16834760D01*
X14696660Y-16834760D01*
X14682202Y-16834050D01*
X14667884Y-16831926D01*
X14653843Y-16828409D01*
X14640214Y-16823532D01*
X14627129Y-16817343D01*
X14614713Y-16809902D01*
X14603087Y-16801279D01*
X14592362Y-16791558D01*
X14582641Y-16780833D01*
X14574018Y-16769207D01*
X14566577Y-16756791D01*
X14560388Y-16743706D01*
X14555511Y-16730077D01*
X14551994Y-16716036D01*
X14549870Y-16701718D01*
X14549160Y-16687260D01*
X14549160Y-16392260D01*
X14549870Y-16377802D01*
X14551994Y-16363484D01*
X14555511Y-16349443D01*
X14560388Y-16335814D01*
X14566577Y-16322729D01*
X14574018Y-16310313D01*
X14582641Y-16298687D01*
X14592362Y-16287962D01*
X14603087Y-16278241D01*
X14614713Y-16269618D01*
X14627129Y-16262177D01*
X14640214Y-16255988D01*
X14653843Y-16251111D01*
X14667884Y-16247594D01*
X14682202Y-16245470D01*
X14696660Y-16244760D01*
X15041660Y-16244760D01*
X15056118Y-16245470D01*
G37*
G36*
X13125718Y-10535990D02*
G01*
X13140036Y-10538114D01*
X13154077Y-10541631D01*
X13167706Y-10546508D01*
X13180791Y-10552697D01*
X13193207Y-10560138D01*
X13204833Y-10568761D01*
X13215558Y-10578482D01*
X13225279Y-10589207D01*
X13233902Y-10600833D01*
X13241343Y-10613249D01*
X13247532Y-10626334D01*
X13252409Y-10639963D01*
X13255926Y-10654004D01*
X13258050Y-10668322D01*
X13258760Y-10682780D01*
X13258760Y-10977780D01*
X13258050Y-10992238D01*
X13255926Y-11006556D01*
X13252409Y-11020597D01*
X13247532Y-11034226D01*
X13241343Y-11047311D01*
X13233902Y-11059727D01*
X13225279Y-11071353D01*
X13215558Y-11082078D01*
X13204833Y-11091799D01*
X13193207Y-11100422D01*
X13180791Y-11107863D01*
X13167706Y-11114052D01*
X13154077Y-11118929D01*
X13140036Y-11122446D01*
X13125718Y-11124570D01*
X13111260Y-11125280D01*
X12766260Y-11125280D01*
X12751802Y-11124570D01*
X12737484Y-11122446D01*
X12723443Y-11118929D01*
X12709814Y-11114052D01*
X12696729Y-11107863D01*
X12684313Y-11100422D01*
X12672687Y-11091799D01*
X12661962Y-11082078D01*
X12652241Y-11071353D01*
X12643618Y-11059727D01*
X12636177Y-11047311D01*
X12629988Y-11034226D01*
X12625111Y-11020597D01*
X12621594Y-11006556D01*
X12619470Y-10992238D01*
X12618760Y-10977780D01*
X12618760Y-10682780D01*
X12619470Y-10668322D01*
X12621594Y-10654004D01*
X12625111Y-10639963D01*
X12629988Y-10626334D01*
X12636177Y-10613249D01*
X12643618Y-10600833D01*
X12652241Y-10589207D01*
X12661962Y-10578482D01*
X12672687Y-10568761D01*
X12684313Y-10560138D01*
X12696729Y-10552697D01*
X12709814Y-10546508D01*
X12723443Y-10541631D01*
X12737484Y-10538114D01*
X12751802Y-10535990D01*
X12766260Y-10535280D01*
X13111260Y-10535280D01*
X13125718Y-10535990D01*
G37*
G36*
X13125718Y-9565990D02*
G01*
X13140036Y-9568114D01*
X13154077Y-9571631D01*
X13167706Y-9576508D01*
X13180791Y-9582697D01*
X13193207Y-9590138D01*
X13204833Y-9598761D01*
X13215558Y-9608482D01*
X13225279Y-9619207D01*
X13233902Y-9630833D01*
X13241343Y-9643249D01*
X13247532Y-9656334D01*
X13252409Y-9669963D01*
X13255926Y-9684004D01*
X13258050Y-9698322D01*
X13258760Y-9712780D01*
X13258760Y-10007780D01*
X13258050Y-10022238D01*
X13255926Y-10036556D01*
X13252409Y-10050597D01*
X13247532Y-10064226D01*
X13241343Y-10077311D01*
X13233902Y-10089727D01*
X13225279Y-10101353D01*
X13215558Y-10112078D01*
X13204833Y-10121799D01*
X13193207Y-10130422D01*
X13180791Y-10137863D01*
X13167706Y-10144052D01*
X13154077Y-10148929D01*
X13140036Y-10152446D01*
X13125718Y-10154570D01*
X13111260Y-10155280D01*
X12766260Y-10155280D01*
X12751802Y-10154570D01*
X12737484Y-10152446D01*
X12723443Y-10148929D01*
X12709814Y-10144052D01*
X12696729Y-10137863D01*
X12684313Y-10130422D01*
X12672687Y-10121799D01*
X12661962Y-10112078D01*
X12652241Y-10101353D01*
X12643618Y-10089727D01*
X12636177Y-10077311D01*
X12629988Y-10064226D01*
X12625111Y-10050597D01*
X12621594Y-10036556D01*
X12619470Y-10022238D01*
X12618760Y-10007780D01*
X12618760Y-9712780D01*
X12619470Y-9698322D01*
X12621594Y-9684004D01*
X12625111Y-9669963D01*
X12629988Y-9656334D01*
X12636177Y-9643249D01*
X12643618Y-9630833D01*
X12652241Y-9619207D01*
X12661962Y-9608482D01*
X12672687Y-9598761D01*
X12684313Y-9590138D01*
X12696729Y-9582697D01*
X12709814Y-9576508D01*
X12723443Y-9571631D01*
X12737484Y-9568114D01*
X12751802Y-9565990D01*
X12766260Y-9565280D01*
X13111260Y-9565280D01*
X13125718Y-9565990D01*
G37*
G36*
X14111238Y-17216470D02*
G01*
X14125556Y-17218594D01*
X14139597Y-17222111D01*
X14153226Y-17226988D01*
X14166311Y-17233177D01*
X14178727Y-17240618D01*
X14190353Y-17249241D01*
X14201078Y-17258962D01*
X14210799Y-17269687D01*
X14219422Y-17281313D01*
X14226863Y-17293729D01*
X14233052Y-17306814D01*
X14237929Y-17320443D01*
X14241446Y-17334484D01*
X14243570Y-17348802D01*
X14244280Y-17363260D01*
X14244280Y-17658260D01*
X14243570Y-17672718D01*
X14241446Y-17687036D01*
X14237929Y-17701077D01*
X14233052Y-17714706D01*
X14226863Y-17727791D01*
X14219422Y-17740207D01*
X14210799Y-17751833D01*
X14201078Y-17762558D01*
X14190353Y-17772279D01*
X14178727Y-17780902D01*
X14166311Y-17788343D01*
X14153226Y-17794532D01*
X14139597Y-17799409D01*
X14125556Y-17802926D01*
X14111238Y-17805050D01*
X14096780Y-17805760D01*
X13751780Y-17805760D01*
X13737322Y-17805050D01*
X13723004Y-17802926D01*
X13708963Y-17799409D01*
X13695334Y-17794532D01*
X13682249Y-17788343D01*
X13669833Y-17780902D01*
X13658207Y-17772279D01*
X13647482Y-17762558D01*
X13637761Y-17751833D01*
X13629138Y-17740207D01*
X13621697Y-17727791D01*
X13615508Y-17714706D01*
X13610631Y-17701077D01*
X13607114Y-17687036D01*
X13604990Y-17672718D01*
X13604280Y-17658260D01*
X13604280Y-17363260D01*
X13604990Y-17348802D01*
X13607114Y-17334484D01*
X13610631Y-17320443D01*
X13615508Y-17306814D01*
X13621697Y-17293729D01*
X13629138Y-17281313D01*
X13637761Y-17269687D01*
X13647482Y-17258962D01*
X13658207Y-17249241D01*
X13669833Y-17240618D01*
X13682249Y-17233177D01*
X13695334Y-17226988D01*
X13708963Y-17222111D01*
X13723004Y-17218594D01*
X13737322Y-17216470D01*
X13751780Y-17215760D01*
X14096780Y-17215760D01*
X14111238Y-17216470D01*
G37*
G36*
X14111238Y-16246470D02*
G01*
X14125556Y-16248594D01*
X14139597Y-16252111D01*
X14153226Y-16256988D01*
X14166311Y-16263177D01*
X14178727Y-16270618D01*
X14190353Y-16279241D01*
X14201078Y-16288962D01*
X14210799Y-16299687D01*
X14219422Y-16311313D01*
X14226863Y-16323729D01*
X14233052Y-16336814D01*
X14237929Y-16350443D01*
X14241446Y-16364484D01*
X14243570Y-16378802D01*
X14244280Y-16393260D01*
X14244280Y-16688260D01*
X14243570Y-16702718D01*
X14241446Y-16717036D01*
X14237929Y-16731077D01*
X14233052Y-16744706D01*
X14226863Y-16757791D01*
X14219422Y-16770207D01*
X14210799Y-16781833D01*
X14201078Y-16792558D01*
X14190353Y-16802279D01*
X14178727Y-16810902D01*
X14166311Y-16818343D01*
X14153226Y-16824532D01*
X14139597Y-16829409D01*
X14125556Y-16832926D01*
X14111238Y-16835050D01*
X14096780Y-16835760D01*
X13751780Y-16835760D01*
X13737322Y-16835050D01*
X13723004Y-16832926D01*
X13708963Y-16829409D01*
X13695334Y-16824532D01*
X13682249Y-16818343D01*
X13669833Y-16810902D01*
X13658207Y-16802279D01*
X13647482Y-16792558D01*
X13637761Y-16781833D01*
X13629138Y-16770207D01*
X13621697Y-16757791D01*
X13615508Y-16744706D01*
X13610631Y-16731077D01*
X13607114Y-16717036D01*
X13604990Y-16702718D01*
X13604280Y-16688260D01*
X13604280Y-16393260D01*
X13604990Y-16378802D01*
X13607114Y-16364484D01*
X13610631Y-16350443D01*
X13615508Y-16336814D01*
X13621697Y-16323729D01*
X13629138Y-16311313D01*
X13637761Y-16299687D01*
X13647482Y-16288962D01*
X13658207Y-16279241D01*
X13669833Y-16270618D01*
X13682249Y-16263177D01*
X13695334Y-16256988D01*
X13708963Y-16252111D01*
X13723004Y-16248594D01*
X13737322Y-16246470D01*
X13751780Y-16245760D01*
X14096780Y-16245760D01*
X14111238Y-16246470D01*
G37*
G36*
X14090918Y-10535990D02*
G01*
X14105236Y-10538114D01*
X14119277Y-10541631D01*
X14132906Y-10546508D01*
X14145991Y-10552697D01*
X14158407Y-10560138D01*
X14170033Y-10568761D01*
X14180758Y-10578482D01*
X14190479Y-10589207D01*
X14199102Y-10600833D01*
X14206543Y-10613249D01*
X14212732Y-10626334D01*
X14217609Y-10639963D01*
X14221126Y-10654004D01*
X14223250Y-10668322D01*
X14223960Y-10682780D01*
X14223960Y-10977780D01*
X14223250Y-10992238D01*
X14221126Y-11006556D01*
X14217609Y-11020597D01*
X14212732Y-11034226D01*
X14206543Y-11047311D01*
X14199102Y-11059727D01*
X14190479Y-11071353D01*
X14180758Y-11082078D01*
X14170033Y-11091799D01*
X14158407Y-11100422D01*
X14145991Y-11107863D01*
X14132906Y-11114052D01*
X14119277Y-11118929D01*
X14105236Y-11122446D01*
X14090918Y-11124570D01*
X14076460Y-11125280D01*
X13731460Y-11125280D01*
X13717002Y-11124570D01*
X13702684Y-11122446D01*
X13688643Y-11118929D01*
X13675014Y-11114052D01*
X13661929Y-11107863D01*
X13649513Y-11100422D01*
X13637887Y-11091799D01*
X13627162Y-11082078D01*
X13617441Y-11071353D01*
X13608818Y-11059727D01*
X13601377Y-11047311D01*
X13595188Y-11034226D01*
X13590311Y-11020597D01*
X13586794Y-11006556D01*
X13584670Y-10992238D01*
X13583960Y-10977780D01*
X13583960Y-10682780D01*
X13584670Y-10668322D01*
X13586794Y-10654004D01*
X13590311Y-10639963D01*
X13595188Y-10626334D01*
X13601377Y-10613249D01*
X13608818Y-10600833D01*
X13617441Y-10589207D01*
X13627162Y-10578482D01*
X13637887Y-10568761D01*
X13649513Y-10560138D01*
X13661929Y-10552697D01*
X13675014Y-10546508D01*
X13688643Y-10541631D01*
X13702684Y-10538114D01*
X13717002Y-10535990D01*
X13731460Y-10535280D01*
X14076460Y-10535280D01*
X14090918Y-10535990D01*
G37*
G36*
X14090918Y-9565990D02*
G01*
X14105236Y-9568114D01*
X14119277Y-9571631D01*
X14132906Y-9576508D01*
X14145991Y-9582697D01*
X14158407Y-9590138D01*
X14170033Y-9598761D01*
X14180758Y-9608482D01*
X14190479Y-9619207D01*
X14199102Y-9630833D01*
X14206543Y-9643249D01*
X14212732Y-9656334D01*
X14217609Y-9669963D01*
X14221126Y-9684004D01*
X14223250Y-9698322D01*
X14223960Y-9712780D01*
X14223960Y-10007780D01*
X14223250Y-10022238D01*
X14221126Y-10036556D01*
X14217609Y-10050597D01*
X14212732Y-10064226D01*
X14206543Y-10077311D01*
X14199102Y-10089727D01*
X14190479Y-10101353D01*
X14180758Y-10112078D01*
X14170033Y-10121799D01*
X14158407Y-10130422D01*
X14145991Y-10137863D01*
X14132906Y-10144052D01*
X14119277Y-10148929D01*
X14105236Y-10152446D01*
X14090918Y-10154570D01*
X14076460Y-10155280D01*
X13731460Y-10155280D01*
X13717002Y-10154570D01*
X13702684Y-10152446D01*
X13688643Y-10148929D01*
X13675014Y-10144052D01*
X13661929Y-10137863D01*
X13649513Y-10130422D01*
X13637887Y-10121799D01*
X13627162Y-10112078D01*
X13617441Y-10101353D01*
X13608818Y-10089727D01*
X13601377Y-10077311D01*
X13595188Y-10064226D01*
X13590311Y-10050597D01*
X13586794Y-10036556D01*
X13584670Y-10022238D01*
X13583960Y-10007780D01*
X13583960Y-9712780D01*
X13584670Y-9698322D01*
X13586794Y-9684004D01*
X13590311Y-9669963D01*
X13595188Y-9656334D01*
X13601377Y-9643249D01*
X13608818Y-9630833D01*
X13617441Y-9619207D01*
X13627162Y-9608482D01*
X13637887Y-9598761D01*
X13649513Y-9590138D01*
X13661929Y-9582697D01*
X13675014Y-9576508D01*
X13688643Y-9571631D01*
X13702684Y-9568114D01*
X13717002Y-9565990D01*
X13731460Y-9565280D01*
X14076460Y-9565280D01*
X14090918Y-9565990D01*
G37*
G36*
X17022478Y-15819870D02*
G01*
X17036796Y-15821994D01*
X17050837Y-15825511D01*
X17064466Y-15830388D01*
X17077551Y-15836577D01*
X17089967Y-15844018D01*
X17101593Y-15852641D01*
X17112318Y-15862362D01*
X17122039Y-15873087D01*
X17130662Y-15884713D01*
X17138103Y-15897129D01*
X17144292Y-15910214D01*
X17149169Y-15923843D01*
X17152686Y-15937884D01*
X17154810Y-15952202D01*
X17155520Y-15966660D01*
X17155520Y-16311660D01*
X17154810Y-16326118D01*
X17152686Y-16340436D01*
X17149169Y-16354477D01*
X17144292Y-16368106D01*
X17138103Y-16381191D01*
X17130662Y-16393607D01*
X17122039Y-16405233D01*
X17112318Y-16415958D01*
X17101593Y-16425679D01*
X17089967Y-16434302D01*
X17077551Y-16441743D01*
X17064466Y-16447932D01*
X17050837Y-16452809D01*
X17036796Y-16456326D01*
X17022478Y-16458450D01*
X17008020Y-16459160D01*
X16713020Y-16459160D01*
X16698562Y-16458450D01*
X16684244Y-16456326D01*
X16670203Y-16452809D01*
X16656574Y-16447932D01*
X16643489Y-16441743D01*
X16631073Y-16434302D01*
X16619447Y-16425679D01*
X16608722Y-16415958D01*
X16599001Y-16405233D01*
X16590378Y-16393607D01*
X16582937Y-16381191D01*
X16576748Y-16368106D01*
X16571871Y-16354477D01*
X16568354Y-16340436D01*
X16566230Y-16326118D01*
X16565520Y-16311660D01*
X16565520Y-15966660D01*
X16566230Y-15952202D01*
X16568354Y-15937884D01*
X16571871Y-15923843D01*
X16576748Y-15910214D01*
X16582937Y-15897129D01*
X16590378Y-15884713D01*
X16599001Y-15873087D01*
X16608722Y-15862362D01*
X16619447Y-15852641D01*
X16631073Y-15844018D01*
X16643489Y-15836577D01*
X16656574Y-15830388D01*
X16670203Y-15825511D01*
X16684244Y-15821994D01*
X16698562Y-15819870D01*
X16713020Y-15819160D01*
X17008020Y-15819160D01*
X17022478Y-15819870D01*
G37*
G36*
X17992478Y-15819870D02*
G01*
X18006796Y-15821994D01*
X18020837Y-15825511D01*
X18034466Y-15830388D01*
X18047551Y-15836577D01*
X18059967Y-15844018D01*
X18071593Y-15852641D01*
X18082318Y-15862362D01*
X18092039Y-15873087D01*
X18100662Y-15884713D01*
X18108103Y-15897129D01*
X18114292Y-15910214D01*
X18119169Y-15923843D01*
X18122686Y-15937884D01*
X18124810Y-15952202D01*
X18125520Y-15966660D01*
X18125520Y-16311660D01*
X18124810Y-16326118D01*
X18122686Y-16340436D01*
X18119169Y-16354477D01*
X18114292Y-16368106D01*
X18108103Y-16381191D01*
X18100662Y-16393607D01*
X18092039Y-16405233D01*
X18082318Y-16415958D01*
X18071593Y-16425679D01*
X18059967Y-16434302D01*
X18047551Y-16441743D01*
X18034466Y-16447932D01*
X18020837Y-16452809D01*
X18006796Y-16456326D01*
X17992478Y-16458450D01*
X17978020Y-16459160D01*
X17683020Y-16459160D01*
X17668562Y-16458450D01*
X17654244Y-16456326D01*
X17640203Y-16452809D01*
X17626574Y-16447932D01*
X17613489Y-16441743D01*
X17601073Y-16434302D01*
X17589447Y-16425679D01*
X17578722Y-16415958D01*
X17569001Y-16405233D01*
X17560378Y-16393607D01*
X17552937Y-16381191D01*
X17546748Y-16368106D01*
X17541871Y-16354477D01*
X17538354Y-16340436D01*
X17536230Y-16326118D01*
X17535520Y-16311660D01*
X17535520Y-15966660D01*
X17536230Y-15952202D01*
X17538354Y-15937884D01*
X17541871Y-15923843D01*
X17546748Y-15910214D01*
X17552937Y-15897129D01*
X17560378Y-15884713D01*
X17569001Y-15873087D01*
X17578722Y-15862362D01*
X17589447Y-15852641D01*
X17601073Y-15844018D01*
X17613489Y-15836577D01*
X17626574Y-15830388D01*
X17640203Y-15825511D01*
X17654244Y-15821994D01*
X17668562Y-15819870D01*
X17683020Y-15819160D01*
X17978020Y-15819160D01*
X17992478Y-15819870D01*
G37*
G36*
X17967358Y-13925030D02*
G01*
X17981676Y-13927154D01*
X17995717Y-13930671D01*
X18009346Y-13935548D01*
X18022431Y-13941737D01*
X18034847Y-13949178D01*
X18046473Y-13957801D01*
X18057198Y-13967522D01*
X18066919Y-13978247D01*
X18075542Y-13989873D01*
X18082983Y-14002289D01*
X18089172Y-14015374D01*
X18094049Y-14029003D01*
X18097566Y-14043044D01*
X18099690Y-14057362D01*
X18100400Y-14071820D01*
X18100400Y-14416820D01*
X18099690Y-14431278D01*
X18097566Y-14445596D01*
X18094049Y-14459637D01*
X18089172Y-14473266D01*
X18082983Y-14486351D01*
X18075542Y-14498767D01*
X18066919Y-14510393D01*
X18057198Y-14521118D01*
X18046473Y-14530839D01*
X18034847Y-14539462D01*
X18022431Y-14546903D01*
X18009346Y-14553092D01*
X17995717Y-14557969D01*
X17981676Y-14561486D01*
X17967358Y-14563610D01*
X17952900Y-14564320D01*
X17657900Y-14564320D01*
X17643442Y-14563610D01*
X17629124Y-14561486D01*
X17615083Y-14557969D01*
X17601454Y-14553092D01*
X17588369Y-14546903D01*
X17575953Y-14539462D01*
X17564327Y-14530839D01*
X17553602Y-14521118D01*
X17543881Y-14510393D01*
X17535258Y-14498767D01*
X17527817Y-14486351D01*
X17521628Y-14473266D01*
X17516751Y-14459637D01*
X17513234Y-14445596D01*
X17511110Y-14431278D01*
X17510400Y-14416820D01*
X17510400Y-14071820D01*
X17511110Y-14057362D01*
X17513234Y-14043044D01*
X17516751Y-14029003D01*
X17521628Y-14015374D01*
X17527817Y-14002289D01*
X17535258Y-13989873D01*
X17543881Y-13978247D01*
X17553602Y-13967522D01*
X17564327Y-13957801D01*
X17575953Y-13949178D01*
X17588369Y-13941737D01*
X17601454Y-13935548D01*
X17615083Y-13930671D01*
X17629124Y-13927154D01*
X17643442Y-13925030D01*
X17657900Y-13924320D01*
X17952900Y-13924320D01*
X17967358Y-13925030D01*
G37*
G36*
X16997358Y-13925030D02*
G01*
X17011676Y-13927154D01*
X17025717Y-13930671D01*
X17039346Y-13935548D01*
X17052431Y-13941737D01*
X17064847Y-13949178D01*
X17076473Y-13957801D01*
X17087198Y-13967522D01*
X17096919Y-13978247D01*
X17105542Y-13989873D01*
X17112983Y-14002289D01*
X17119172Y-14015374D01*
X17124049Y-14029003D01*
X17127566Y-14043044D01*
X17129690Y-14057362D01*
X17130400Y-14071820D01*
X17130400Y-14416820D01*
X17129690Y-14431278D01*
X17127566Y-14445596D01*
X17124049Y-14459637D01*
X17119172Y-14473266D01*
X17112983Y-14486351D01*
X17105542Y-14498767D01*
X17096919Y-14510393D01*
X17087198Y-14521118D01*
X17076473Y-14530839D01*
X17064847Y-14539462D01*
X17052431Y-14546903D01*
X17039346Y-14553092D01*
X17025717Y-14557969D01*
X17011676Y-14561486D01*
X16997358Y-14563610D01*
X16982900Y-14564320D01*
X16687900Y-14564320D01*
X16673442Y-14563610D01*
X16659124Y-14561486D01*
X16645083Y-14557969D01*
X16631454Y-14553092D01*
X16618369Y-14546903D01*
X16605953Y-14539462D01*
X16594327Y-14530839D01*
X16583602Y-14521118D01*
X16573881Y-14510393D01*
X16565258Y-14498767D01*
X16557817Y-14486351D01*
X16551628Y-14473266D01*
X16546751Y-14459637D01*
X16543234Y-14445596D01*
X16541110Y-14431278D01*
X16540400Y-14416820D01*
X16540400Y-14071820D01*
X16541110Y-14057362D01*
X16543234Y-14043044D01*
X16546751Y-14029003D01*
X16551628Y-14015374D01*
X16557817Y-14002289D01*
X16565258Y-13989873D01*
X16573881Y-13978247D01*
X16583602Y-13967522D01*
X16594327Y-13957801D01*
X16605953Y-13949178D01*
X16618369Y-13941737D01*
X16631454Y-13935548D01*
X16645083Y-13930671D01*
X16659124Y-13927154D01*
X16673442Y-13925030D01*
X16687900Y-13924320D01*
X16982900Y-13924320D01*
X16997358Y-13925030D01*
G37*
G36*
X6958Y-12280710D02*
G01*
X21276Y-12282834D01*
X35317Y-12286351D01*
X48946Y-12291228D01*
X62031Y-12297417D01*
X74447Y-12304858D01*
X86073Y-12313481D01*
X96798Y-12323202D01*
X106519Y-12333927D01*
X115142Y-12345553D01*
X122583Y-12357969D01*
X128772Y-12371054D01*
X133649Y-12384683D01*
X137166Y-12398724D01*
X139290Y-12413042D01*
X140000Y-12427500D01*
X140000Y-12772500D01*
X139290Y-12786958D01*
X137166Y-12801276D01*
X133649Y-12815317D01*
X128772Y-12828946D01*
X122583Y-12842031D01*
X115142Y-12854447D01*
X106519Y-12866073D01*
X96798Y-12876798D01*
X86073Y-12886519D01*
X74447Y-12895142D01*
X62031Y-12902583D01*
X48946Y-12908772D01*
X35317Y-12913649D01*
X21276Y-12917166D01*
X6958Y-12919290D01*
X-7500Y-12920000D01*
X-302500Y-12920000D01*
X-316958Y-12919290D01*
X-331276Y-12917166D01*
X-345317Y-12913649D01*
X-358946Y-12908772D01*
X-372031Y-12902583D01*
X-384447Y-12895142D01*
X-396073Y-12886519D01*
X-406798Y-12876798D01*
X-416519Y-12866073D01*
X-425142Y-12854447D01*
X-432583Y-12842031D01*
X-438772Y-12828946D01*
X-443649Y-12815317D01*
X-447166Y-12801276D01*
X-449290Y-12786958D01*
X-450000Y-12772500D01*
X-450000Y-12427500D01*
X-449290Y-12413042D01*
X-447166Y-12398724D01*
X-443649Y-12384683D01*
X-438772Y-12371054D01*
X-432583Y-12357969D01*
X-425142Y-12345553D01*
X-416519Y-12333927D01*
X-406798Y-12323202D01*
X-396073Y-12313481D01*
X-384447Y-12304858D01*
X-372031Y-12297417D01*
X-358946Y-12291228D01*
X-345317Y-12286351D01*
X-331276Y-12282834D01*
X-316958Y-12280710D01*
X-302500Y-12280000D01*
X-7500Y-12280000D01*
X6958Y-12280710D01*
G37*
G36*
X-963042Y-12280710D02*
G01*
X-948724Y-12282834D01*
X-934683Y-12286351D01*
X-921054Y-12291228D01*
X-907969Y-12297417D01*
X-895553Y-12304858D01*
X-883927Y-12313481D01*
X-873202Y-12323202D01*
X-863481Y-12333927D01*
X-854858Y-12345553D01*
X-847417Y-12357969D01*
X-841228Y-12371054D01*
X-836351Y-12384683D01*
X-832834Y-12398724D01*
X-830710Y-12413042D01*
X-830000Y-12427500D01*
X-830000Y-12772500D01*
X-830710Y-12786958D01*
X-832834Y-12801276D01*
X-836351Y-12815317D01*
X-841228Y-12828946D01*
X-847417Y-12842031D01*
X-854858Y-12854447D01*
X-863481Y-12866073D01*
X-873202Y-12876798D01*
X-883927Y-12886519D01*
X-895553Y-12895142D01*
X-907969Y-12902583D01*
X-921054Y-12908772D01*
X-934683Y-12913649D01*
X-948724Y-12917166D01*
X-963042Y-12919290D01*
X-977500Y-12920000D01*
X-1272500Y-12920000D01*
X-1286958Y-12919290D01*
X-1301276Y-12917166D01*
X-1315317Y-12913649D01*
X-1328946Y-12908772D01*
X-1342031Y-12902583D01*
X-1354447Y-12895142D01*
X-1366073Y-12886519D01*
X-1376798Y-12876798D01*
X-1386519Y-12866073D01*
X-1395142Y-12854447D01*
X-1402583Y-12842031D01*
X-1408772Y-12828946D01*
X-1413649Y-12815317D01*
X-1417166Y-12801276D01*
X-1419290Y-12786958D01*
X-1420000Y-12772500D01*
X-1420000Y-12427500D01*
X-1419290Y-12413042D01*
X-1417166Y-12398724D01*
X-1413649Y-12384683D01*
X-1408772Y-12371054D01*
X-1402583Y-12357969D01*
X-1395142Y-12345553D01*
X-1386519Y-12333927D01*
X-1376798Y-12323202D01*
X-1366073Y-12313481D01*
X-1354447Y-12304858D01*
X-1342031Y-12297417D01*
X-1328946Y-12291228D01*
X-1315317Y-12286351D01*
X-1301276Y-12282834D01*
X-1286958Y-12280710D01*
X-1272500Y-12280000D01*
X-977500Y-12280000D01*
X-963042Y-12280710D01*
G37*
G36*
X-453042Y-9200710D02*
G01*
X-438724Y-9202834D01*
X-424683Y-9206351D01*
X-411054Y-9211228D01*
X-397969Y-9217417D01*
X-385553Y-9224858D01*
X-373927Y-9233481D01*
X-363202Y-9243202D01*
X-353481Y-9253927D01*
X-344858Y-9265553D01*
X-337417Y-9277969D01*
X-331228Y-9291054D01*
X-326351Y-9304683D01*
X-322834Y-9318724D01*
X-320710Y-9333042D01*
X-320000Y-9347500D01*
X-320000Y-9642500D01*
X-320710Y-9656958D01*
X-322834Y-9671276D01*
X-326351Y-9685317D01*
X-331228Y-9698946D01*
X-337417Y-9712031D01*
X-344858Y-9724447D01*
X-353481Y-9736073D01*
X-363202Y-9746798D01*
X-373927Y-9756519D01*
X-385553Y-9765142D01*
X-397969Y-9772583D01*
X-411054Y-9778772D01*
X-424683Y-9783649D01*
X-438724Y-9787166D01*
X-453042Y-9789290D01*
X-467500Y-9790000D01*
X-812500Y-9790000D01*
X-826958Y-9789290D01*
X-841276Y-9787166D01*
X-855317Y-9783649D01*
X-868946Y-9778772D01*
X-882031Y-9772583D01*
X-894447Y-9765142D01*
X-906073Y-9756519D01*
X-916798Y-9746798D01*
X-926519Y-9736073D01*
X-935142Y-9724447D01*
X-942583Y-9712031D01*
X-948772Y-9698946D01*
X-953649Y-9685317D01*
X-957166Y-9671276D01*
X-959290Y-9656958D01*
X-960000Y-9642500D01*
X-960000Y-9347500D01*
X-959290Y-9333042D01*
X-957166Y-9318724D01*
X-953649Y-9304683D01*
X-948772Y-9291054D01*
X-942583Y-9277969D01*
X-935142Y-9265553D01*
X-926519Y-9253927D01*
X-916798Y-9243202D01*
X-906073Y-9233481D01*
X-894447Y-9224858D01*
X-882031Y-9217417D01*
X-868946Y-9211228D01*
X-855317Y-9206351D01*
X-841276Y-9202834D01*
X-826958Y-9200710D01*
X-812500Y-9200000D01*
X-467500Y-9200000D01*
X-453042Y-9200710D01*
G37*
G36*
X-453042Y-8230710D02*
G01*
X-438724Y-8232834D01*
X-424683Y-8236351D01*
X-411054Y-8241228D01*
X-397969Y-8247417D01*
X-385553Y-8254858D01*
X-373927Y-8263481D01*
X-363202Y-8273202D01*
X-353481Y-8283927D01*
X-344858Y-8295553D01*
X-337417Y-8307969D01*
X-331228Y-8321054D01*
X-326351Y-8334683D01*
X-322834Y-8348724D01*
X-320710Y-8363042D01*
X-320000Y-8377500D01*
X-320000Y-8672500D01*
X-320710Y-8686958D01*
X-322834Y-8701276D01*
X-326351Y-8715317D01*
X-331228Y-8728946D01*
X-337417Y-8742031D01*
X-344858Y-8754447D01*
X-353481Y-8766073D01*
X-363202Y-8776798D01*
X-373927Y-8786519D01*
X-385553Y-8795142D01*
X-397969Y-8802583D01*
X-411054Y-8808772D01*
X-424683Y-8813649D01*
X-438724Y-8817166D01*
X-453042Y-8819290D01*
X-467500Y-8820000D01*
X-812500Y-8820000D01*
X-826958Y-8819290D01*
X-841276Y-8817166D01*
X-855317Y-8813649D01*
X-868946Y-8808772D01*
X-882031Y-8802583D01*
X-894447Y-8795142D01*
X-906073Y-8786519D01*
X-916798Y-8776798D01*
X-926519Y-8766073D01*
X-935142Y-8754447D01*
X-942583Y-8742031D01*
X-948772Y-8728946D01*
X-953649Y-8715317D01*
X-957166Y-8701276D01*
X-959290Y-8686958D01*
X-960000Y-8672500D01*
X-960000Y-8377500D01*
X-959290Y-8363042D01*
X-957166Y-8348724D01*
X-953649Y-8334683D01*
X-948772Y-8321054D01*
X-942583Y-8307969D01*
X-935142Y-8295553D01*
X-926519Y-8283927D01*
X-916798Y-8273202D01*
X-906073Y-8263481D01*
X-894447Y-8254858D01*
X-882031Y-8247417D01*
X-868946Y-8241228D01*
X-855317Y-8236351D01*
X-841276Y-8232834D01*
X-826958Y-8230710D01*
X-812500Y-8230000D01*
X-467500Y-8230000D01*
X-453042Y-8230710D01*
G37*
G36*
X-933042Y-11385710D02*
G01*
X-918724Y-11387834D01*
X-904683Y-11391351D01*
X-891054Y-11396228D01*
X-877969Y-11402417D01*
X-865553Y-11409858D01*
X-853927Y-11418481D01*
X-843202Y-11428202D01*
X-833481Y-11438927D01*
X-824858Y-11450553D01*
X-817417Y-11462969D01*
X-811228Y-11476054D01*
X-806351Y-11489683D01*
X-802834Y-11503724D01*
X-800710Y-11518042D01*
X-800000Y-11532500D01*
X-800000Y-11827500D01*
X-800710Y-11841958D01*
X-802834Y-11856276D01*
X-806351Y-11870317D01*
X-811228Y-11883946D01*
X-817417Y-11897031D01*
X-824858Y-11909447D01*
X-833481Y-11921073D01*
X-843202Y-11931798D01*
X-853927Y-11941519D01*
X-865553Y-11950142D01*
X-877969Y-11957583D01*
X-891054Y-11963772D01*
X-904683Y-11968649D01*
X-918724Y-11972166D01*
X-933042Y-11974290D01*
X-947500Y-11975000D01*
X-1292500Y-11975000D01*
X-1306958Y-11974290D01*
X-1321276Y-11972166D01*
X-1335317Y-11968649D01*
X-1348946Y-11963772D01*
X-1362031Y-11957583D01*
X-1374447Y-11950142D01*
X-1386073Y-11941519D01*
X-1396798Y-11931798D01*
X-1406519Y-11921073D01*
X-1415142Y-11909447D01*
X-1422583Y-11897031D01*
X-1428772Y-11883946D01*
X-1433649Y-11870317D01*
X-1437166Y-11856276D01*
X-1439290Y-11841958D01*
X-1440000Y-11827500D01*
X-1440000Y-11532500D01*
X-1439290Y-11518042D01*
X-1437166Y-11503724D01*
X-1433649Y-11489683D01*
X-1428772Y-11476054D01*
X-1422583Y-11462969D01*
X-1415142Y-11450553D01*
X-1406519Y-11438927D01*
X-1396798Y-11428202D01*
X-1386073Y-11418481D01*
X-1374447Y-11409858D01*
X-1362031Y-11402417D01*
X-1348946Y-11396228D01*
X-1335317Y-11391351D01*
X-1321276Y-11387834D01*
X-1306958Y-11385710D01*
X-1292500Y-11385000D01*
X-947500Y-11385000D01*
X-933042Y-11385710D01*
G37*
G36*
X-933042Y-10415710D02*
G01*
X-918724Y-10417834D01*
X-904683Y-10421351D01*
X-891054Y-10426228D01*
X-877969Y-10432417D01*
X-865553Y-10439858D01*
X-853927Y-10448481D01*
X-843202Y-10458202D01*
X-833481Y-10468927D01*
X-824858Y-10480553D01*
X-817417Y-10492969D01*
X-811228Y-10506054D01*
X-806351Y-10519683D01*
X-802834Y-10533724D01*
X-800710Y-10548042D01*
X-800000Y-10562500D01*
X-800000Y-10857500D01*
X-800710Y-10871958D01*
X-802834Y-10886276D01*
X-806351Y-10900317D01*
X-811228Y-10913946D01*
X-817417Y-10927031D01*
X-824858Y-10939447D01*
X-833481Y-10951073D01*
X-843202Y-10961798D01*
X-853927Y-10971519D01*
X-865553Y-10980142D01*
X-877969Y-10987583D01*
X-891054Y-10993772D01*
X-904683Y-10998649D01*
X-918724Y-11002166D01*
X-933042Y-11004290D01*
X-947500Y-11005000D01*
X-1292500Y-11005000D01*
X-1306958Y-11004290D01*
X-1321276Y-11002166D01*
X-1335317Y-10998649D01*
X-1348946Y-10993772D01*
X-1362031Y-10987583D01*
X-1374447Y-10980142D01*
X-1386073Y-10971519D01*
X-1396798Y-10961798D01*
X-1406519Y-10951073D01*
X-1415142Y-10939447D01*
X-1422583Y-10927031D01*
X-1428772Y-10913946D01*
X-1433649Y-10900317D01*
X-1437166Y-10886276D01*
X-1439290Y-10871958D01*
X-1440000Y-10857500D01*
X-1440000Y-10562500D01*
X-1439290Y-10548042D01*
X-1437166Y-10533724D01*
X-1433649Y-10519683D01*
X-1428772Y-10506054D01*
X-1422583Y-10492969D01*
X-1415142Y-10480553D01*
X-1406519Y-10468927D01*
X-1396798Y-10458202D01*
X-1386073Y-10448481D01*
X-1374447Y-10439858D01*
X-1362031Y-10432417D01*
X-1348946Y-10426228D01*
X-1335317Y-10421351D01*
X-1321276Y-10417834D01*
X-1306958Y-10415710D01*
X-1292500Y-10415000D01*
X-947500Y-10415000D01*
X-933042Y-10415710D01*
G37*
G36*
X10108198Y-13137230D02*
G01*
X10122516Y-13139354D01*
X10136557Y-13142871D01*
X10150186Y-13147748D01*
X10163271Y-13153937D01*
X10175687Y-13161378D01*
X10187313Y-13170001D01*
X10198038Y-13179722D01*
X10207759Y-13190447D01*
X10216382Y-13202073D01*
X10223823Y-13214489D01*
X10230012Y-13227574D01*
X10234889Y-13241203D01*
X10238406Y-13255244D01*
X10240530Y-13269562D01*
X10241240Y-13284020D01*
X10241240Y-13579020D01*
X10240530Y-13593478D01*
X10238406Y-13607796D01*
X10234889Y-13621837D01*
X10230012Y-13635466D01*
X10223823Y-13648551D01*
X10216382Y-13660967D01*
X10207759Y-13672593D01*
X10198038Y-13683318D01*
X10187313Y-13693039D01*
X10175687Y-13701662D01*
X10163271Y-13709103D01*
X10150186Y-13715292D01*
X10136557Y-13720169D01*
X10122516Y-13723686D01*
X10108198Y-13725810D01*
X10093740Y-13726520D01*
X9748740Y-13726520D01*
X9734282Y-13725810D01*
X9719964Y-13723686D01*
X9705923Y-13720169D01*
X9692294Y-13715292D01*
X9679209Y-13709103D01*
X9666793Y-13701662D01*
X9655167Y-13693039D01*
X9644442Y-13683318D01*
X9634721Y-13672593D01*
X9626098Y-13660967D01*
X9618657Y-13648551D01*
X9612468Y-13635466D01*
X9607591Y-13621837D01*
X9604074Y-13607796D01*
X9601950Y-13593478D01*
X9601240Y-13579020D01*
X9601240Y-13284020D01*
X9601950Y-13269562D01*
X9604074Y-13255244D01*
X9607591Y-13241203D01*
X9612468Y-13227574D01*
X9618657Y-13214489D01*
X9626098Y-13202073D01*
X9634721Y-13190447D01*
X9644442Y-13179722D01*
X9655167Y-13170001D01*
X9666793Y-13161378D01*
X9679209Y-13153937D01*
X9692294Y-13147748D01*
X9705923Y-13142871D01*
X9719964Y-13139354D01*
X9734282Y-13137230D01*
X9748740Y-13136520D01*
X10093740Y-13136520D01*
X10108198Y-13137230D01*
G37*
G36*
X10108198Y-14107230D02*
G01*
X10122516Y-14109354D01*
X10136557Y-14112871D01*
X10150186Y-14117748D01*
X10163271Y-14123937D01*
X10175687Y-14131378D01*
X10187313Y-14140001D01*
X10198038Y-14149722D01*
X10207759Y-14160447D01*
X10216382Y-14172073D01*
X10223823Y-14184489D01*
X10230012Y-14197574D01*
X10234889Y-14211203D01*
X10238406Y-14225244D01*
X10240530Y-14239562D01*
X10241240Y-14254020D01*
X10241240Y-14549020D01*
X10240530Y-14563478D01*
X10238406Y-14577796D01*
X10234889Y-14591837D01*
X10230012Y-14605466D01*
X10223823Y-14618551D01*
X10216382Y-14630967D01*
X10207759Y-14642593D01*
X10198038Y-14653318D01*
X10187313Y-14663039D01*
X10175687Y-14671662D01*
X10163271Y-14679103D01*
X10150186Y-14685292D01*
X10136557Y-14690169D01*
X10122516Y-14693686D01*
X10108198Y-14695810D01*
X10093740Y-14696520D01*
X9748740Y-14696520D01*
X9734282Y-14695810D01*
X9719964Y-14693686D01*
X9705923Y-14690169D01*
X9692294Y-14685292D01*
X9679209Y-14679103D01*
X9666793Y-14671662D01*
X9655167Y-14663039D01*
X9644442Y-14653318D01*
X9634721Y-14642593D01*
X9626098Y-14630967D01*
X9618657Y-14618551D01*
X9612468Y-14605466D01*
X9607591Y-14591837D01*
X9604074Y-14577796D01*
X9601950Y-14563478D01*
X9601240Y-14549020D01*
X9601240Y-14254020D01*
X9601950Y-14239562D01*
X9604074Y-14225244D01*
X9607591Y-14211203D01*
X9612468Y-14197574D01*
X9618657Y-14184489D01*
X9626098Y-14172073D01*
X9634721Y-14160447D01*
X9644442Y-14149722D01*
X9655167Y-14140001D01*
X9666793Y-14131378D01*
X9679209Y-14123937D01*
X9692294Y-14117748D01*
X9705923Y-14112871D01*
X9719964Y-14109354D01*
X9734282Y-14107230D01*
X9748740Y-14106520D01*
X10093740Y-14106520D01*
X10108198Y-14107230D01*
G37*
G36*
X16000998Y-16241110D02*
G01*
X16015316Y-16243234D01*
X16029357Y-16246751D01*
X16042986Y-16251628D01*
X16056071Y-16257817D01*
X16068487Y-16265258D01*
X16080113Y-16273881D01*
X16090838Y-16283602D01*
X16100559Y-16294327D01*
X16109182Y-16305953D01*
X16116623Y-16318369D01*
X16122812Y-16331454D01*
X16127689Y-16345083D01*
X16131206Y-16359124D01*
X16133330Y-16373442D01*
X16134040Y-16387900D01*
X16134040Y-16682900D01*
X16133330Y-16697358D01*
X16131206Y-16711676D01*
X16127689Y-16725717D01*
X16122812Y-16739346D01*
X16116623Y-16752431D01*
X16109182Y-16764847D01*
X16100559Y-16776473D01*
X16090838Y-16787198D01*
X16080113Y-16796919D01*
X16068487Y-16805542D01*
X16056071Y-16812983D01*
X16042986Y-16819172D01*
X16029357Y-16824049D01*
X16015316Y-16827566D01*
X16000998Y-16829690D01*
X15986540Y-16830400D01*
X15641540Y-16830400D01*
X15627082Y-16829690D01*
X15612764Y-16827566D01*
X15598723Y-16824049D01*
X15585094Y-16819172D01*
X15572009Y-16812983D01*
X15559593Y-16805542D01*
X15547967Y-16796919D01*
X15537242Y-16787198D01*
X15527521Y-16776473D01*
X15518898Y-16764847D01*
X15511457Y-16752431D01*
X15505268Y-16739346D01*
X15500391Y-16725717D01*
X15496874Y-16711676D01*
X15494750Y-16697358D01*
X15494040Y-16682900D01*
X15494040Y-16387900D01*
X15494750Y-16373442D01*
X15496874Y-16359124D01*
X15500391Y-16345083D01*
X15505268Y-16331454D01*
X15511457Y-16318369D01*
X15518898Y-16305953D01*
X15527521Y-16294327D01*
X15537242Y-16283602D01*
X15547967Y-16273881D01*
X15559593Y-16265258D01*
X15572009Y-16257817D01*
X15585094Y-16251628D01*
X15598723Y-16246751D01*
X15612764Y-16243234D01*
X15627082Y-16241110D01*
X15641540Y-16240400D01*
X15986540Y-16240400D01*
X16000998Y-16241110D01*
G37*
G36*
X16000998Y-17211110D02*
G01*
X16015316Y-17213234D01*
X16029357Y-17216751D01*
X16042986Y-17221628D01*
X16056071Y-17227817D01*
X16068487Y-17235258D01*
X16080113Y-17243881D01*
X16090838Y-17253602D01*
X16100559Y-17264327D01*
X16109182Y-17275953D01*
X16116623Y-17288369D01*
X16122812Y-17301454D01*
X16127689Y-17315083D01*
X16131206Y-17329124D01*
X16133330Y-17343442D01*
X16134040Y-17357900D01*
X16134040Y-17652900D01*
X16133330Y-17667358D01*
X16131206Y-17681676D01*
X16127689Y-17695717D01*
X16122812Y-17709346D01*
X16116623Y-17722431D01*
X16109182Y-17734847D01*
X16100559Y-17746473D01*
X16090838Y-17757198D01*
X16080113Y-17766919D01*
X16068487Y-17775542D01*
X16056071Y-17782983D01*
X16042986Y-17789172D01*
X16029357Y-17794049D01*
X16015316Y-17797566D01*
X16000998Y-17799690D01*
X15986540Y-17800400D01*
X15641540Y-17800400D01*
X15627082Y-17799690D01*
X15612764Y-17797566D01*
X15598723Y-17794049D01*
X15585094Y-17789172D01*
X15572009Y-17782983D01*
X15559593Y-17775542D01*
X15547967Y-17766919D01*
X15537242Y-17757198D01*
X15527521Y-17746473D01*
X15518898Y-17734847D01*
X15511457Y-17722431D01*
X15505268Y-17709346D01*
X15500391Y-17695717D01*
X15496874Y-17681676D01*
X15494750Y-17667358D01*
X15494040Y-17652900D01*
X15494040Y-17357900D01*
X15494750Y-17343442D01*
X15496874Y-17329124D01*
X15500391Y-17315083D01*
X15505268Y-17301454D01*
X15511457Y-17288369D01*
X15518898Y-17275953D01*
X15527521Y-17264327D01*
X15537242Y-17253602D01*
X15547967Y-17243881D01*
X15559593Y-17235258D01*
X15572009Y-17227817D01*
X15585094Y-17221628D01*
X15598723Y-17216751D01*
X15612764Y-17213234D01*
X15627082Y-17211110D01*
X15641540Y-17210400D01*
X15986540Y-17210400D01*
X16000998Y-17211110D01*
G37*
G36*
X17037718Y-14869910D02*
G01*
X17052036Y-14872034D01*
X17066077Y-14875551D01*
X17079706Y-14880428D01*
X17092791Y-14886617D01*
X17105207Y-14894058D01*
X17116833Y-14902681D01*
X17127558Y-14912402D01*
X17137279Y-14923127D01*
X17145902Y-14934753D01*
X17153343Y-14947169D01*
X17159532Y-14960254D01*
X17164409Y-14973883D01*
X17167926Y-14987924D01*
X17170050Y-15002242D01*
X17170760Y-15016700D01*
X17170760Y-15361700D01*
X17170050Y-15376158D01*
X17167926Y-15390476D01*
X17164409Y-15404517D01*
X17159532Y-15418146D01*
X17153343Y-15431231D01*
X17145902Y-15443647D01*
X17137279Y-15455273D01*
X17127558Y-15465998D01*
X17116833Y-15475719D01*
X17105207Y-15484342D01*
X17092791Y-15491783D01*
X17079706Y-15497972D01*
X17066077Y-15502849D01*
X17052036Y-15506366D01*
X17037718Y-15508490D01*
X17023260Y-15509200D01*
X16728260Y-15509200D01*
X16713802Y-15508490D01*
X16699484Y-15506366D01*
X16685443Y-15502849D01*
X16671814Y-15497972D01*
X16658729Y-15491783D01*
X16646313Y-15484342D01*
X16634687Y-15475719D01*
X16623962Y-15465998D01*
X16614241Y-15455273D01*
X16605618Y-15443647D01*
X16598177Y-15431231D01*
X16591988Y-15418146D01*
X16587111Y-15404517D01*
X16583594Y-15390476D01*
X16581470Y-15376158D01*
X16580760Y-15361700D01*
X16580760Y-15016700D01*
X16581470Y-15002242D01*
X16583594Y-14987924D01*
X16587111Y-14973883D01*
X16591988Y-14960254D01*
X16598177Y-14947169D01*
X16605618Y-14934753D01*
X16614241Y-14923127D01*
X16623962Y-14912402D01*
X16634687Y-14902681D01*
X16646313Y-14894058D01*
X16658729Y-14886617D01*
X16671814Y-14880428D01*
X16685443Y-14875551D01*
X16699484Y-14872034D01*
X16713802Y-14869910D01*
X16728260Y-14869200D01*
X17023260Y-14869200D01*
X17037718Y-14869910D01*
G37*
G36*
X18007718Y-14869910D02*
G01*
X18022036Y-14872034D01*
X18036077Y-14875551D01*
X18049706Y-14880428D01*
X18062791Y-14886617D01*
X18075207Y-14894058D01*
X18086833Y-14902681D01*
X18097558Y-14912402D01*
X18107279Y-14923127D01*
X18115902Y-14934753D01*
X18123343Y-14947169D01*
X18129532Y-14960254D01*
X18134409Y-14973883D01*
X18137926Y-14987924D01*
X18140050Y-15002242D01*
X18140760Y-15016700D01*
X18140760Y-15361700D01*
X18140050Y-15376158D01*
X18137926Y-15390476D01*
X18134409Y-15404517D01*
X18129532Y-15418146D01*
X18123343Y-15431231D01*
X18115902Y-15443647D01*
X18107279Y-15455273D01*
X18097558Y-15465998D01*
X18086833Y-15475719D01*
X18075207Y-15484342D01*
X18062791Y-15491783D01*
X18049706Y-15497972D01*
X18036077Y-15502849D01*
X18022036Y-15506366D01*
X18007718Y-15508490D01*
X17993260Y-15509200D01*
X17698260Y-15509200D01*
X17683802Y-15508490D01*
X17669484Y-15506366D01*
X17655443Y-15502849D01*
X17641814Y-15497972D01*
X17628729Y-15491783D01*
X17616313Y-15484342D01*
X17604687Y-15475719D01*
X17593962Y-15465998D01*
X17584241Y-15455273D01*
X17575618Y-15443647D01*
X17568177Y-15431231D01*
X17561988Y-15418146D01*
X17557111Y-15404517D01*
X17553594Y-15390476D01*
X17551470Y-15376158D01*
X17550760Y-15361700D01*
X17550760Y-15016700D01*
X17551470Y-15002242D01*
X17553594Y-14987924D01*
X17557111Y-14973883D01*
X17561988Y-14960254D01*
X17568177Y-14947169D01*
X17575618Y-14934753D01*
X17584241Y-14923127D01*
X17593962Y-14912402D01*
X17604687Y-14902681D01*
X17616313Y-14894058D01*
X17628729Y-14886617D01*
X17641814Y-14880428D01*
X17655443Y-14875551D01*
X17669484Y-14872034D01*
X17683802Y-14869910D01*
X17698260Y-14869200D01*
X17993260Y-14869200D01*
X18007718Y-14869910D01*
G37*
D15*
X-8207000Y15247700D03*
X-8207000Y13347700D03*
X-10407000Y13347700D03*
X-10407000Y14297700D03*
X-10407000Y15247700D03*
D14*
G36*
X-12655642Y15597390D02*
G01*
X-12641324Y15595266D01*
X-12627283Y15591749D01*
X-12613654Y15586872D01*
X-12600569Y15580683D01*
X-12588153Y15573242D01*
X-12576527Y15564619D01*
X-12565802Y15554898D01*
X-12556081Y15544173D01*
X-12547458Y15532547D01*
X-12540017Y15520131D01*
X-12533828Y15507046D01*
X-12528951Y15493417D01*
X-12525434Y15479376D01*
X-12523310Y15465058D01*
X-12522600Y15450600D01*
X-12522600Y15105600D01*
X-12523310Y15091142D01*
X-12525434Y15076824D01*
X-12528951Y15062783D01*
X-12533828Y15049154D01*
X-12540017Y15036069D01*
X-12547458Y15023653D01*
X-12556081Y15012027D01*
X-12565802Y15001302D01*
X-12576527Y14991581D01*
X-12588153Y14982958D01*
X-12600569Y14975517D01*
X-12613654Y14969328D01*
X-12627283Y14964451D01*
X-12641324Y14960934D01*
X-12655642Y14958810D01*
X-12670100Y14958100D01*
X-12965100Y14958100D01*
X-12979558Y14958810D01*
X-12993876Y14960934D01*
X-13007917Y14964451D01*
X-13021546Y14969328D01*
X-13034631Y14975517D01*
X-13047047Y14982958D01*
X-13058673Y14991581D01*
X-13069398Y15001302D01*
X-13079119Y15012027D01*
X-13087742Y15023653D01*
X-13095183Y15036069D01*
X-13101372Y15049154D01*
X-13106249Y15062783D01*
X-13109766Y15076824D01*
X-13111890Y15091142D01*
X-13112600Y15105600D01*
X-13112600Y15450600D01*
X-13111890Y15465058D01*
X-13109766Y15479376D01*
X-13106249Y15493417D01*
X-13101372Y15507046D01*
X-13095183Y15520131D01*
X-13087742Y15532547D01*
X-13079119Y15544173D01*
X-13069398Y15554898D01*
X-13058673Y15564619D01*
X-13047047Y15573242D01*
X-13034631Y15580683D01*
X-13021546Y15586872D01*
X-13007917Y15591749D01*
X-12993876Y15595266D01*
X-12979558Y15597390D01*
X-12965100Y15598100D01*
X-12670100Y15598100D01*
X-12655642Y15597390D01*
G37*
G36*
X-13625642Y15597390D02*
G01*
X-13611324Y15595266D01*
X-13597283Y15591749D01*
X-13583654Y15586872D01*
X-13570569Y15580683D01*
X-13558153Y15573242D01*
X-13546527Y15564619D01*
X-13535802Y15554898D01*
X-13526081Y15544173D01*
X-13517458Y15532547D01*
X-13510017Y15520131D01*
X-13503828Y15507046D01*
X-13498951Y15493417D01*
X-13495434Y15479376D01*
X-13493310Y15465058D01*
X-13492600Y15450600D01*
X-13492600Y15105600D01*
X-13493310Y15091142D01*
X-13495434Y15076824D01*
X-13498951Y15062783D01*
X-13503828Y15049154D01*
X-13510017Y15036069D01*
X-13517458Y15023653D01*
X-13526081Y15012027D01*
X-13535802Y15001302D01*
X-13546527Y14991581D01*
X-13558153Y14982958D01*
X-13570569Y14975517D01*
X-13583654Y14969328D01*
X-13597283Y14964451D01*
X-13611324Y14960934D01*
X-13625642Y14958810D01*
X-13640100Y14958100D01*
X-13935100Y14958100D01*
X-13949558Y14958810D01*
X-13963876Y14960934D01*
X-13977917Y14964451D01*
X-13991546Y14969328D01*
X-14004631Y14975517D01*
X-14017047Y14982958D01*
X-14028673Y14991581D01*
X-14039398Y15001302D01*
X-14049119Y15012027D01*
X-14057742Y15023653D01*
X-14065183Y15036069D01*
X-14071372Y15049154D01*
X-14076249Y15062783D01*
X-14079766Y15076824D01*
X-14081890Y15091142D01*
X-14082600Y15105600D01*
X-14082600Y15450600D01*
X-14081890Y15465058D01*
X-14079766Y15479376D01*
X-14076249Y15493417D01*
X-14071372Y15507046D01*
X-14065183Y15520131D01*
X-14057742Y15532547D01*
X-14049119Y15544173D01*
X-14039398Y15554898D01*
X-14028673Y15564619D01*
X-14017047Y15573242D01*
X-14004631Y15580683D01*
X-13991546Y15586872D01*
X-13977917Y15591749D01*
X-13963876Y15595266D01*
X-13949558Y15597390D01*
X-13935100Y15598100D01*
X-13640100Y15598100D01*
X-13625642Y15597390D01*
G37*
G36*
X-11617042Y15567590D02*
G01*
X-11602724Y15565466D01*
X-11588683Y15561949D01*
X-11575054Y15557072D01*
X-11561969Y15550883D01*
X-11549553Y15543442D01*
X-11537927Y15534819D01*
X-11527202Y15525098D01*
X-11517481Y15514373D01*
X-11508858Y15502747D01*
X-11501417Y15490331D01*
X-11495228Y15477246D01*
X-11490351Y15463617D01*
X-11486834Y15449576D01*
X-11484710Y15435258D01*
X-11484000Y15420800D01*
X-11484000Y15125800D01*
X-11484710Y15111342D01*
X-11486834Y15097024D01*
X-11490351Y15082983D01*
X-11495228Y15069354D01*
X-11501417Y15056269D01*
X-11508858Y15043853D01*
X-11517481Y15032227D01*
X-11527202Y15021502D01*
X-11537927Y15011781D01*
X-11549553Y15003158D01*
X-11561969Y14995717D01*
X-11575054Y14989528D01*
X-11588683Y14984651D01*
X-11602724Y14981134D01*
X-11617042Y14979010D01*
X-11631500Y14978300D01*
X-11976500Y14978300D01*
X-11990958Y14979010D01*
X-12005276Y14981134D01*
X-12019317Y14984651D01*
X-12032946Y14989528D01*
X-12046031Y14995717D01*
X-12058447Y15003158D01*
X-12070073Y15011781D01*
X-12080798Y15021502D01*
X-12090519Y15032227D01*
X-12099142Y15043853D01*
X-12106583Y15056269D01*
X-12112772Y15069354D01*
X-12117649Y15082983D01*
X-12121166Y15097024D01*
X-12123290Y15111342D01*
X-12124000Y15125800D01*
X-12124000Y15420800D01*
X-12123290Y15435258D01*
X-12121166Y15449576D01*
X-12117649Y15463617D01*
X-12112772Y15477246D01*
X-12106583Y15490331D01*
X-12099142Y15502747D01*
X-12090519Y15514373D01*
X-12080798Y15525098D01*
X-12070073Y15534819D01*
X-12058447Y15543442D01*
X-12046031Y15550883D01*
X-12032946Y15557072D01*
X-12019317Y15561949D01*
X-12005276Y15565466D01*
X-11990958Y15567590D01*
X-11976500Y15568300D01*
X-11631500Y15568300D01*
X-11617042Y15567590D01*
G37*
G36*
X-11617042Y16537590D02*
G01*
X-11602724Y16535466D01*
X-11588683Y16531949D01*
X-11575054Y16527072D01*
X-11561969Y16520883D01*
X-11549553Y16513442D01*
X-11537927Y16504819D01*
X-11527202Y16495098D01*
X-11517481Y16484373D01*
X-11508858Y16472747D01*
X-11501417Y16460331D01*
X-11495228Y16447246D01*
X-11490351Y16433617D01*
X-11486834Y16419576D01*
X-11484710Y16405258D01*
X-11484000Y16390800D01*
X-11484000Y16095800D01*
X-11484710Y16081342D01*
X-11486834Y16067024D01*
X-11490351Y16052983D01*
X-11495228Y16039354D01*
X-11501417Y16026269D01*
X-11508858Y16013853D01*
X-11517481Y16002227D01*
X-11527202Y15991502D01*
X-11537927Y15981781D01*
X-11549553Y15973158D01*
X-11561969Y15965717D01*
X-11575054Y15959528D01*
X-11588683Y15954651D01*
X-11602724Y15951134D01*
X-11617042Y15949010D01*
X-11631500Y15948300D01*
X-11976500Y15948300D01*
X-11990958Y15949010D01*
X-12005276Y15951134D01*
X-12019317Y15954651D01*
X-12032946Y15959528D01*
X-12046031Y15965717D01*
X-12058447Y15973158D01*
X-12070073Y15981781D01*
X-12080798Y15991502D01*
X-12090519Y16002227D01*
X-12099142Y16013853D01*
X-12106583Y16026269D01*
X-12112772Y16039354D01*
X-12117649Y16052983D01*
X-12121166Y16067024D01*
X-12123290Y16081342D01*
X-12124000Y16095800D01*
X-12124000Y16390800D01*
X-12123290Y16405258D01*
X-12121166Y16419576D01*
X-12117649Y16433617D01*
X-12112772Y16447246D01*
X-12106583Y16460331D01*
X-12099142Y16472747D01*
X-12090519Y16484373D01*
X-12080798Y16495098D01*
X-12070073Y16504819D01*
X-12058447Y16513442D01*
X-12046031Y16520883D01*
X-12032946Y16527072D01*
X-12019317Y16531949D01*
X-12005276Y16535466D01*
X-11990958Y16537590D01*
X-11976500Y16538300D01*
X-11631500Y16538300D01*
X-11617042Y16537590D01*
G37*
G36*
X-6920042Y18391390D02*
G01*
X-6905724Y18389266D01*
X-6891683Y18385749D01*
X-6878054Y18380872D01*
X-6864969Y18374683D01*
X-6852553Y18367242D01*
X-6840927Y18358619D01*
X-6830202Y18348898D01*
X-6820481Y18338173D01*
X-6811858Y18326547D01*
X-6804417Y18314131D01*
X-6798228Y18301046D01*
X-6793351Y18287417D01*
X-6789834Y18273376D01*
X-6787710Y18259058D01*
X-6787000Y18244600D01*
X-6787000Y17899600D01*
X-6787710Y17885142D01*
X-6789834Y17870824D01*
X-6793351Y17856783D01*
X-6798228Y17843154D01*
X-6804417Y17830069D01*
X-6811858Y17817653D01*
X-6820481Y17806027D01*
X-6830202Y17795302D01*
X-6840927Y17785581D01*
X-6852553Y17776958D01*
X-6864969Y17769517D01*
X-6878054Y17763328D01*
X-6891683Y17758451D01*
X-6905724Y17754934D01*
X-6920042Y17752810D01*
X-6934500Y17752100D01*
X-7229500Y17752100D01*
X-7243958Y17752810D01*
X-7258276Y17754934D01*
X-7272317Y17758451D01*
X-7285946Y17763328D01*
X-7299031Y17769517D01*
X-7311447Y17776958D01*
X-7323073Y17785581D01*
X-7333798Y17795302D01*
X-7343519Y17806027D01*
X-7352142Y17817653D01*
X-7359583Y17830069D01*
X-7365772Y17843154D01*
X-7370649Y17856783D01*
X-7374166Y17870824D01*
X-7376290Y17885142D01*
X-7377000Y17899600D01*
X-7377000Y18244600D01*
X-7376290Y18259058D01*
X-7374166Y18273376D01*
X-7370649Y18287417D01*
X-7365772Y18301046D01*
X-7359583Y18314131D01*
X-7352142Y18326547D01*
X-7343519Y18338173D01*
X-7333798Y18348898D01*
X-7323073Y18358619D01*
X-7311447Y18367242D01*
X-7299031Y18374683D01*
X-7285946Y18380872D01*
X-7272317Y18385749D01*
X-7258276Y18389266D01*
X-7243958Y18391390D01*
X-7229500Y18392100D01*
X-6934500Y18392100D01*
X-6920042Y18391390D01*
G37*
G36*
X-5950042Y18391390D02*
G01*
X-5935724Y18389266D01*
X-5921683Y18385749D01*
X-5908054Y18380872D01*
X-5894969Y18374683D01*
X-5882553Y18367242D01*
X-5870927Y18358619D01*
X-5860202Y18348898D01*
X-5850481Y18338173D01*
X-5841858Y18326547D01*
X-5834417Y18314131D01*
X-5828228Y18301046D01*
X-5823351Y18287417D01*
X-5819834Y18273376D01*
X-5817710Y18259058D01*
X-5817000Y18244600D01*
X-5817000Y17899600D01*
X-5817710Y17885142D01*
X-5819834Y17870824D01*
X-5823351Y17856783D01*
X-5828228Y17843154D01*
X-5834417Y17830069D01*
X-5841858Y17817653D01*
X-5850481Y17806027D01*
X-5860202Y17795302D01*
X-5870927Y17785581D01*
X-5882553Y17776958D01*
X-5894969Y17769517D01*
X-5908054Y17763328D01*
X-5921683Y17758451D01*
X-5935724Y17754934D01*
X-5950042Y17752810D01*
X-5964500Y17752100D01*
X-6259500Y17752100D01*
X-6273958Y17752810D01*
X-6288276Y17754934D01*
X-6302317Y17758451D01*
X-6315946Y17763328D01*
X-6329031Y17769517D01*
X-6341447Y17776958D01*
X-6353073Y17785581D01*
X-6363798Y17795302D01*
X-6373519Y17806027D01*
X-6382142Y17817653D01*
X-6389583Y17830069D01*
X-6395772Y17843154D01*
X-6400649Y17856783D01*
X-6404166Y17870824D01*
X-6406290Y17885142D01*
X-6407000Y17899600D01*
X-6407000Y18244600D01*
X-6406290Y18259058D01*
X-6404166Y18273376D01*
X-6400649Y18287417D01*
X-6395772Y18301046D01*
X-6389583Y18314131D01*
X-6382142Y18326547D01*
X-6373519Y18338173D01*
X-6363798Y18348898D01*
X-6353073Y18358619D01*
X-6341447Y18367242D01*
X-6329031Y18374683D01*
X-6315946Y18380872D01*
X-6302317Y18385749D01*
X-6288276Y18389266D01*
X-6273958Y18391390D01*
X-6259500Y18392100D01*
X-5964500Y18392100D01*
X-5950042Y18391390D01*
G37*
G36*
X-3168742Y15559290D02*
G01*
X-3154424Y15557166D01*
X-3140383Y15553649D01*
X-3126754Y15548772D01*
X-3113669Y15542583D01*
X-3101253Y15535142D01*
X-3089627Y15526519D01*
X-3078902Y15516798D01*
X-3069181Y15506073D01*
X-3060558Y15494447D01*
X-3053117Y15482031D01*
X-3046928Y15468946D01*
X-3042051Y15455317D01*
X-3038534Y15441276D01*
X-3036410Y15426958D01*
X-3035700Y15412500D01*
X-3035700Y15067500D01*
X-3036410Y15053042D01*
X-3038534Y15038724D01*
X-3042051Y15024683D01*
X-3046928Y15011054D01*
X-3053117Y14997969D01*
X-3060558Y14985553D01*
X-3069181Y14973927D01*
X-3078902Y14963202D01*
X-3089627Y14953481D01*
X-3101253Y14944858D01*
X-3113669Y14937417D01*
X-3126754Y14931228D01*
X-3140383Y14926351D01*
X-3154424Y14922834D01*
X-3168742Y14920710D01*
X-3183200Y14920000D01*
X-3478200Y14920000D01*
X-3492658Y14920710D01*
X-3506976Y14922834D01*
X-3521017Y14926351D01*
X-3534646Y14931228D01*
X-3547731Y14937417D01*
X-3560147Y14944858D01*
X-3571773Y14953481D01*
X-3582498Y14963202D01*
X-3592219Y14973927D01*
X-3600842Y14985553D01*
X-3608283Y14997969D01*
X-3614472Y15011054D01*
X-3619349Y15024683D01*
X-3622866Y15038724D01*
X-3624990Y15053042D01*
X-3625700Y15067500D01*
X-3625700Y15412500D01*
X-3624990Y15426958D01*
X-3622866Y15441276D01*
X-3619349Y15455317D01*
X-3614472Y15468946D01*
X-3608283Y15482031D01*
X-3600842Y15494447D01*
X-3592219Y15506073D01*
X-3582498Y15516798D01*
X-3571773Y15526519D01*
X-3560147Y15535142D01*
X-3547731Y15542583D01*
X-3534646Y15548772D01*
X-3521017Y15553649D01*
X-3506976Y15557166D01*
X-3492658Y15559290D01*
X-3478200Y15560000D01*
X-3183200Y15560000D01*
X-3168742Y15559290D01*
G37*
G36*
X-4138742Y15559290D02*
G01*
X-4124424Y15557166D01*
X-4110383Y15553649D01*
X-4096754Y15548772D01*
X-4083669Y15542583D01*
X-4071253Y15535142D01*
X-4059627Y15526519D01*
X-4048902Y15516798D01*
X-4039181Y15506073D01*
X-4030558Y15494447D01*
X-4023117Y15482031D01*
X-4016928Y15468946D01*
X-4012051Y15455317D01*
X-4008534Y15441276D01*
X-4006410Y15426958D01*
X-4005700Y15412500D01*
X-4005700Y15067500D01*
X-4006410Y15053042D01*
X-4008534Y15038724D01*
X-4012051Y15024683D01*
X-4016928Y15011054D01*
X-4023117Y14997969D01*
X-4030558Y14985553D01*
X-4039181Y14973927D01*
X-4048902Y14963202D01*
X-4059627Y14953481D01*
X-4071253Y14944858D01*
X-4083669Y14937417D01*
X-4096754Y14931228D01*
X-4110383Y14926351D01*
X-4124424Y14922834D01*
X-4138742Y14920710D01*
X-4153200Y14920000D01*
X-4448200Y14920000D01*
X-4462658Y14920710D01*
X-4476976Y14922834D01*
X-4491017Y14926351D01*
X-4504646Y14931228D01*
X-4517731Y14937417D01*
X-4530147Y14944858D01*
X-4541773Y14953481D01*
X-4552498Y14963202D01*
X-4562219Y14973927D01*
X-4570842Y14985553D01*
X-4578283Y14997969D01*
X-4584472Y15011054D01*
X-4589349Y15024683D01*
X-4592866Y15038724D01*
X-4594990Y15053042D01*
X-4595700Y15067500D01*
X-4595700Y15412500D01*
X-4594990Y15426958D01*
X-4592866Y15441276D01*
X-4589349Y15455317D01*
X-4584472Y15468946D01*
X-4578283Y15482031D01*
X-4570842Y15494447D01*
X-4562219Y15506073D01*
X-4552498Y15516798D01*
X-4541773Y15526519D01*
X-4530147Y15535142D01*
X-4517731Y15542583D01*
X-4504646Y15548772D01*
X-4491017Y15553649D01*
X-4476976Y15557166D01*
X-4462658Y15559290D01*
X-4448200Y15560000D01*
X-4153200Y15560000D01*
X-4138742Y15559290D01*
G37*
G36*
X-13507509Y18610247D02*
G01*
X-13486274Y18607097D01*
X-13465450Y18601881D01*
X-13445238Y18594649D01*
X-13425832Y18585470D01*
X-13407419Y18574434D01*
X-13390176Y18561646D01*
X-13374270Y18547230D01*
X-13359854Y18531324D01*
X-13347066Y18514081D01*
X-13336030Y18495668D01*
X-13326851Y18476262D01*
X-13319619Y18456050D01*
X-13314403Y18435226D01*
X-13311253Y18413991D01*
X-13310200Y18392550D01*
X-13310200Y17955050D01*
X-13311253Y17933609D01*
X-13314403Y17912374D01*
X-13319619Y17891550D01*
X-13326851Y17871338D01*
X-13336030Y17851932D01*
X-13347066Y17833519D01*
X-13359854Y17816276D01*
X-13374270Y17800370D01*
X-13390176Y17785954D01*
X-13407419Y17773166D01*
X-13425832Y17762130D01*
X-13445238Y17752951D01*
X-13465450Y17745719D01*
X-13486274Y17740503D01*
X-13507509Y17737353D01*
X-13528950Y17736300D01*
X-14041450Y17736300D01*
X-14062891Y17737353D01*
X-14084126Y17740503D01*
X-14104950Y17745719D01*
X-14125162Y17752951D01*
X-14144568Y17762130D01*
X-14162981Y17773166D01*
X-14180224Y17785954D01*
X-14196130Y17800370D01*
X-14210546Y17816276D01*
X-14223334Y17833519D01*
X-14234370Y17851932D01*
X-14243549Y17871338D01*
X-14250781Y17891550D01*
X-14255997Y17912374D01*
X-14259147Y17933609D01*
X-14260200Y17955050D01*
X-14260200Y18392550D01*
X-14259147Y18413991D01*
X-14255997Y18435226D01*
X-14250781Y18456050D01*
X-14243549Y18476262D01*
X-14234370Y18495668D01*
X-14223334Y18514081D01*
X-14210546Y18531324D01*
X-14196130Y18547230D01*
X-14180224Y18561646D01*
X-14162981Y18574434D01*
X-14144568Y18585470D01*
X-14125162Y18594649D01*
X-14104950Y18601881D01*
X-14084126Y18607097D01*
X-14062891Y18610247D01*
X-14041450Y18611300D01*
X-13528950Y18611300D01*
X-13507509Y18610247D01*
G37*
G36*
X-13507509Y17035247D02*
G01*
X-13486274Y17032097D01*
X-13465450Y17026881D01*
X-13445238Y17019649D01*
X-13425832Y17010470D01*
X-13407419Y16999434D01*
X-13390176Y16986646D01*
X-13374270Y16972230D01*
X-13359854Y16956324D01*
X-13347066Y16939081D01*
X-13336030Y16920668D01*
X-13326851Y16901262D01*
X-13319619Y16881050D01*
X-13314403Y16860226D01*
X-13311253Y16838991D01*
X-13310200Y16817550D01*
X-13310200Y16380050D01*
X-13311253Y16358609D01*
X-13314403Y16337374D01*
X-13319619Y16316550D01*
X-13326851Y16296338D01*
X-13336030Y16276932D01*
X-13347066Y16258519D01*
X-13359854Y16241276D01*
X-13374270Y16225370D01*
X-13390176Y16210954D01*
X-13407419Y16198166D01*
X-13425832Y16187130D01*
X-13445238Y16177951D01*
X-13465450Y16170719D01*
X-13486274Y16165503D01*
X-13507509Y16162353D01*
X-13528950Y16161300D01*
X-14041450Y16161300D01*
X-14062891Y16162353D01*
X-14084126Y16165503D01*
X-14104950Y16170719D01*
X-14125162Y16177951D01*
X-14144568Y16187130D01*
X-14162981Y16198166D01*
X-14180224Y16210954D01*
X-14196130Y16225370D01*
X-14210546Y16241276D01*
X-14223334Y16258519D01*
X-14234370Y16276932D01*
X-14243549Y16296338D01*
X-14250781Y16316550D01*
X-14255997Y16337374D01*
X-14259147Y16358609D01*
X-14260200Y16380050D01*
X-14260200Y16817550D01*
X-14259147Y16838991D01*
X-14255997Y16860226D01*
X-14250781Y16881050D01*
X-14243549Y16901262D01*
X-14234370Y16920668D01*
X-14223334Y16939081D01*
X-14210546Y16956324D01*
X-14196130Y16972230D01*
X-14180224Y16986646D01*
X-14162981Y16999434D01*
X-14144568Y17010470D01*
X-14125162Y17019649D01*
X-14104950Y17026881D01*
X-14084126Y17032097D01*
X-14062891Y17035247D01*
X-14041450Y17036300D01*
X-13528950Y17036300D01*
X-13507509Y17035247D01*
G37*
G36*
X-10268509Y17441147D02*
G01*
X-10247274Y17437997D01*
X-10226450Y17432781D01*
X-10206238Y17425549D01*
X-10186832Y17416370D01*
X-10168419Y17405334D01*
X-10151176Y17392546D01*
X-10135270Y17378130D01*
X-10120854Y17362224D01*
X-10108066Y17344981D01*
X-10097030Y17326568D01*
X-10087851Y17307162D01*
X-10080619Y17286950D01*
X-10075403Y17266126D01*
X-10072253Y17244891D01*
X-10071200Y17223450D01*
X-10071200Y16710950D01*
X-10072253Y16689509D01*
X-10075403Y16668274D01*
X-10080619Y16647450D01*
X-10087851Y16627238D01*
X-10097030Y16607832D01*
X-10108066Y16589419D01*
X-10120854Y16572176D01*
X-10135270Y16556270D01*
X-10151176Y16541854D01*
X-10168419Y16529066D01*
X-10186832Y16518030D01*
X-10206238Y16508851D01*
X-10226450Y16501619D01*
X-10247274Y16496403D01*
X-10268509Y16493253D01*
X-10289950Y16492200D01*
X-10727450Y16492200D01*
X-10748891Y16493253D01*
X-10770126Y16496403D01*
X-10790950Y16501619D01*
X-10811162Y16508851D01*
X-10830568Y16518030D01*
X-10848981Y16529066D01*
X-10866224Y16541854D01*
X-10882130Y16556270D01*
X-10896546Y16572176D01*
X-10909334Y16589419D01*
X-10920370Y16607832D01*
X-10929549Y16627238D01*
X-10936781Y16647450D01*
X-10941997Y16668274D01*
X-10945147Y16689509D01*
X-10946200Y16710950D01*
X-10946200Y17223450D01*
X-10945147Y17244891D01*
X-10941997Y17266126D01*
X-10936781Y17286950D01*
X-10929549Y17307162D01*
X-10920370Y17326568D01*
X-10909334Y17344981D01*
X-10896546Y17362224D01*
X-10882130Y17378130D01*
X-10866224Y17392546D01*
X-10848981Y17405334D01*
X-10830568Y17416370D01*
X-10811162Y17425549D01*
X-10790950Y17432781D01*
X-10770126Y17437997D01*
X-10748891Y17441147D01*
X-10727450Y17442200D01*
X-10289950Y17442200D01*
X-10268509Y17441147D01*
G37*
G36*
X-8693509Y17441147D02*
G01*
X-8672274Y17437997D01*
X-8651450Y17432781D01*
X-8631238Y17425549D01*
X-8611832Y17416370D01*
X-8593419Y17405334D01*
X-8576176Y17392546D01*
X-8560270Y17378130D01*
X-8545854Y17362224D01*
X-8533066Y17344981D01*
X-8522030Y17326568D01*
X-8512851Y17307162D01*
X-8505619Y17286950D01*
X-8500403Y17266126D01*
X-8497253Y17244891D01*
X-8496200Y17223450D01*
X-8496200Y16710950D01*
X-8497253Y16689509D01*
X-8500403Y16668274D01*
X-8505619Y16647450D01*
X-8512851Y16627238D01*
X-8522030Y16607832D01*
X-8533066Y16589419D01*
X-8545854Y16572176D01*
X-8560270Y16556270D01*
X-8576176Y16541854D01*
X-8593419Y16529066D01*
X-8611832Y16518030D01*
X-8631238Y16508851D01*
X-8651450Y16501619D01*
X-8672274Y16496403D01*
X-8693509Y16493253D01*
X-8714950Y16492200D01*
X-9152450Y16492200D01*
X-9173891Y16493253D01*
X-9195126Y16496403D01*
X-9215950Y16501619D01*
X-9236162Y16508851D01*
X-9255568Y16518030D01*
X-9273981Y16529066D01*
X-9291224Y16541854D01*
X-9307130Y16556270D01*
X-9321546Y16572176D01*
X-9334334Y16589419D01*
X-9345370Y16607832D01*
X-9354549Y16627238D01*
X-9361781Y16647450D01*
X-9366997Y16668274D01*
X-9370147Y16689509D01*
X-9371200Y16710950D01*
X-9371200Y17223450D01*
X-9370147Y17244891D01*
X-9366997Y17266126D01*
X-9361781Y17286950D01*
X-9354549Y17307162D01*
X-9345370Y17326568D01*
X-9334334Y17344981D01*
X-9321546Y17362224D01*
X-9307130Y17378130D01*
X-9291224Y17392546D01*
X-9273981Y17405334D01*
X-9255568Y17416370D01*
X-9236162Y17425549D01*
X-9215950Y17432781D01*
X-9195126Y17437997D01*
X-9173891Y17441147D01*
X-9152450Y17442200D01*
X-8714950Y17442200D01*
X-8693509Y17441147D01*
G37*
G36*
X-11705942Y13436390D02*
G01*
X-11691624Y13434266D01*
X-11677583Y13430749D01*
X-11663954Y13425872D01*
X-11650869Y13419683D01*
X-11638453Y13412242D01*
X-11626827Y13403619D01*
X-11616102Y13393898D01*
X-11606381Y13383173D01*
X-11597758Y13371547D01*
X-11590317Y13359131D01*
X-11584128Y13346046D01*
X-11579251Y13332417D01*
X-11575734Y13318376D01*
X-11573610Y13304058D01*
X-11572900Y13289600D01*
X-11572900Y12994600D01*
X-11573610Y12980142D01*
X-11575734Y12965824D01*
X-11579251Y12951783D01*
X-11584128Y12938154D01*
X-11590317Y12925069D01*
X-11597758Y12912653D01*
X-11606381Y12901027D01*
X-11616102Y12890302D01*
X-11626827Y12880581D01*
X-11638453Y12871958D01*
X-11650869Y12864517D01*
X-11663954Y12858328D01*
X-11677583Y12853451D01*
X-11691624Y12849934D01*
X-11705942Y12847810D01*
X-11720400Y12847100D01*
X-12065400Y12847100D01*
X-12079858Y12847810D01*
X-12094176Y12849934D01*
X-12108217Y12853451D01*
X-12121846Y12858328D01*
X-12134931Y12864517D01*
X-12147347Y12871958D01*
X-12158973Y12880581D01*
X-12169698Y12890302D01*
X-12179419Y12901027D01*
X-12188042Y12912653D01*
X-12195483Y12925069D01*
X-12201672Y12938154D01*
X-12206549Y12951783D01*
X-12210066Y12965824D01*
X-12212190Y12980142D01*
X-12212900Y12994600D01*
X-12212900Y13289600D01*
X-12212190Y13304058D01*
X-12210066Y13318376D01*
X-12206549Y13332417D01*
X-12201672Y13346046D01*
X-12195483Y13359131D01*
X-12188042Y13371547D01*
X-12179419Y13383173D01*
X-12169698Y13393898D01*
X-12158973Y13403619D01*
X-12147347Y13412242D01*
X-12134931Y13419683D01*
X-12121846Y13425872D01*
X-12108217Y13430749D01*
X-12094176Y13434266D01*
X-12079858Y13436390D01*
X-12065400Y13437100D01*
X-11720400Y13437100D01*
X-11705942Y13436390D01*
G37*
G36*
X-11705942Y14406390D02*
G01*
X-11691624Y14404266D01*
X-11677583Y14400749D01*
X-11663954Y14395872D01*
X-11650869Y14389683D01*
X-11638453Y14382242D01*
X-11626827Y14373619D01*
X-11616102Y14363898D01*
X-11606381Y14353173D01*
X-11597758Y14341547D01*
X-11590317Y14329131D01*
X-11584128Y14316046D01*
X-11579251Y14302417D01*
X-11575734Y14288376D01*
X-11573610Y14274058D01*
X-11572900Y14259600D01*
X-11572900Y13964600D01*
X-11573610Y13950142D01*
X-11575734Y13935824D01*
X-11579251Y13921783D01*
X-11584128Y13908154D01*
X-11590317Y13895069D01*
X-11597758Y13882653D01*
X-11606381Y13871027D01*
X-11616102Y13860302D01*
X-11626827Y13850581D01*
X-11638453Y13841958D01*
X-11650869Y13834517D01*
X-11663954Y13828328D01*
X-11677583Y13823451D01*
X-11691624Y13819934D01*
X-11705942Y13817810D01*
X-11720400Y13817100D01*
X-12065400Y13817100D01*
X-12079858Y13817810D01*
X-12094176Y13819934D01*
X-12108217Y13823451D01*
X-12121846Y13828328D01*
X-12134931Y13834517D01*
X-12147347Y13841958D01*
X-12158973Y13850581D01*
X-12169698Y13860302D01*
X-12179419Y13871027D01*
X-12188042Y13882653D01*
X-12195483Y13895069D01*
X-12201672Y13908154D01*
X-12206549Y13921783D01*
X-12210066Y13935824D01*
X-12212190Y13950142D01*
X-12212900Y13964600D01*
X-12212900Y14259600D01*
X-12212190Y14274058D01*
X-12210066Y14288376D01*
X-12206549Y14302417D01*
X-12201672Y14316046D01*
X-12195483Y14329131D01*
X-12188042Y14341547D01*
X-12179419Y14353173D01*
X-12169698Y14363898D01*
X-12158973Y14373619D01*
X-12147347Y14382242D01*
X-12134931Y14389683D01*
X-12121846Y14395872D01*
X-12108217Y14400749D01*
X-12094176Y14404266D01*
X-12079858Y14406390D01*
X-12065400Y14407100D01*
X-11720400Y14407100D01*
X-11705942Y14406390D01*
G37*
G36*
X-9104442Y12206490D02*
G01*
X-9090124Y12204366D01*
X-9076083Y12200849D01*
X-9062454Y12195972D01*
X-9049369Y12189783D01*
X-9036953Y12182342D01*
X-9025327Y12173719D01*
X-9014602Y12163998D01*
X-9004881Y12153273D01*
X-8996258Y12141647D01*
X-8988817Y12129231D01*
X-8982628Y12116146D01*
X-8977751Y12102517D01*
X-8974234Y12088476D01*
X-8972110Y12074158D01*
X-8971400Y12059700D01*
X-8971400Y11714700D01*
X-8972110Y11700242D01*
X-8974234Y11685924D01*
X-8977751Y11671883D01*
X-8982628Y11658254D01*
X-8988817Y11645169D01*
X-8996258Y11632753D01*
X-9004881Y11621127D01*
X-9014602Y11610402D01*
X-9025327Y11600681D01*
X-9036953Y11592058D01*
X-9049369Y11584617D01*
X-9062454Y11578428D01*
X-9076083Y11573551D01*
X-9090124Y11570034D01*
X-9104442Y11567910D01*
X-9118900Y11567200D01*
X-9413900Y11567200D01*
X-9428358Y11567910D01*
X-9442676Y11570034D01*
X-9456717Y11573551D01*
X-9470346Y11578428D01*
X-9483431Y11584617D01*
X-9495847Y11592058D01*
X-9507473Y11600681D01*
X-9518198Y11610402D01*
X-9527919Y11621127D01*
X-9536542Y11632753D01*
X-9543983Y11645169D01*
X-9550172Y11658254D01*
X-9555049Y11671883D01*
X-9558566Y11685924D01*
X-9560690Y11700242D01*
X-9561400Y11714700D01*
X-9561400Y12059700D01*
X-9560690Y12074158D01*
X-9558566Y12088476D01*
X-9555049Y12102517D01*
X-9550172Y12116146D01*
X-9543983Y12129231D01*
X-9536542Y12141647D01*
X-9527919Y12153273D01*
X-9518198Y12163998D01*
X-9507473Y12173719D01*
X-9495847Y12182342D01*
X-9483431Y12189783D01*
X-9470346Y12195972D01*
X-9456717Y12200849D01*
X-9442676Y12204366D01*
X-9428358Y12206490D01*
X-9413900Y12207200D01*
X-9118900Y12207200D01*
X-9104442Y12206490D01*
G37*
G36*
X-8134442Y12206490D02*
G01*
X-8120124Y12204366D01*
X-8106083Y12200849D01*
X-8092454Y12195972D01*
X-8079369Y12189783D01*
X-8066953Y12182342D01*
X-8055327Y12173719D01*
X-8044602Y12163998D01*
X-8034881Y12153273D01*
X-8026258Y12141647D01*
X-8018817Y12129231D01*
X-8012628Y12116146D01*
X-8007751Y12102517D01*
X-8004234Y12088476D01*
X-8002110Y12074158D01*
X-8001400Y12059700D01*
X-8001400Y11714700D01*
X-8002110Y11700242D01*
X-8004234Y11685924D01*
X-8007751Y11671883D01*
X-8012628Y11658254D01*
X-8018817Y11645169D01*
X-8026258Y11632753D01*
X-8034881Y11621127D01*
X-8044602Y11610402D01*
X-8055327Y11600681D01*
X-8066953Y11592058D01*
X-8079369Y11584617D01*
X-8092454Y11578428D01*
X-8106083Y11573551D01*
X-8120124Y11570034D01*
X-8134442Y11567910D01*
X-8148900Y11567200D01*
X-8443900Y11567200D01*
X-8458358Y11567910D01*
X-8472676Y11570034D01*
X-8486717Y11573551D01*
X-8500346Y11578428D01*
X-8513431Y11584617D01*
X-8525847Y11592058D01*
X-8537473Y11600681D01*
X-8548198Y11610402D01*
X-8557919Y11621127D01*
X-8566542Y11632753D01*
X-8573983Y11645169D01*
X-8580172Y11658254D01*
X-8585049Y11671883D01*
X-8588566Y11685924D01*
X-8590690Y11700242D01*
X-8591400Y11714700D01*
X-8591400Y12059700D01*
X-8590690Y12074158D01*
X-8588566Y12088476D01*
X-8585049Y12102517D01*
X-8580172Y12116146D01*
X-8573983Y12129231D01*
X-8566542Y12141647D01*
X-8557919Y12153273D01*
X-8548198Y12163998D01*
X-8537473Y12173719D01*
X-8525847Y12182342D01*
X-8513431Y12189783D01*
X-8500346Y12195972D01*
X-8486717Y12200849D01*
X-8472676Y12204366D01*
X-8458358Y12206490D01*
X-8443900Y12207200D01*
X-8148900Y12207200D01*
X-8134442Y12206490D01*
G37*
M02*
