G04 #@! TF.GenerationSoftware,KiCad,Pcbnew,5.1.5-52549c5~84~ubuntu18.04.1*
G04 #@! TF.CreationDate,2019-12-03T21:09:54-05:00*
G04 #@! TF.ProjectId,SwarmBot,53776172-6d42-46f7-942e-6b696361645f,rev?*
G04 #@! TF.SameCoordinates,Original*
G04 #@! TF.FileFunction,Legend,Top*
G04 #@! TF.FilePolarity,Positive*
%FSLAX46Y46*%
G04 Gerber Fmt 4.6, Leading zero omitted, Abs format (unit mm)*
G04 Created by KiCad (PCBNEW 5.1.5-52549c5~84~ubuntu18.04.1) date 2019-12-03 21:09:54*
%MOMM*%
%LPD*%
G04 APERTURE LIST*
%ADD10C,0.120000*%
%ADD11C,0.150000*%
G04 APERTURE END LIST*
D10*
X14315000Y1060000D02*
X11940000Y1060000D01*
X18315000Y1060000D02*
X15685000Y1060000D01*
X16315000Y-1060000D02*
X13685000Y-1060000D01*
X12315000Y-1060000D02*
X11940000Y-1060000D01*
X20060000Y1060000D02*
X19685000Y1060000D01*
X19685000Y1060000D02*
X19685000Y2290000D01*
X20060000Y-1060000D02*
X17685000Y-1060000D01*
X11940000Y1060000D02*
X11940000Y-1060000D01*
X20060000Y1060000D02*
X20060000Y-1060000D01*
X-17685000Y1060000D02*
X-20060000Y1060000D01*
X-13685000Y1060000D02*
X-16315000Y1060000D01*
X-15685000Y-1060000D02*
X-18315000Y-1060000D01*
X-19685000Y-1060000D02*
X-20060000Y-1060000D01*
X-11940000Y1060000D02*
X-12315000Y1060000D01*
X-12315000Y1060000D02*
X-12315000Y2290000D01*
X-11940000Y-1060000D02*
X-14315000Y-1060000D01*
X-20060000Y1060000D02*
X-20060000Y-1060000D01*
X-11940000Y1060000D02*
X-11940000Y-1060000D01*
D11*
X844160Y-10821120D02*
X844160Y-11321120D01*
X4094160Y-10821120D02*
X4094160Y-11321120D01*
X4094160Y-14071120D02*
X4094160Y-13571120D01*
X844160Y-14071120D02*
X844160Y-13571120D01*
X4094160Y-10821120D02*
X3594160Y-10821120D01*
X4094160Y-14071120D02*
X3594160Y-14071120D01*
X844160Y-10821120D02*
X1344160Y-10821120D01*
X14359880Y-15560360D02*
X14359880Y-15060360D01*
X11109880Y-15560360D02*
X11109880Y-15060360D01*
X11109880Y-12310360D02*
X11109880Y-12810360D01*
X14359880Y-12310360D02*
X14359880Y-12810360D01*
X11109880Y-15560360D02*
X11609880Y-15560360D01*
X11109880Y-12310360D02*
X11609880Y-12310360D01*
X14359880Y-15560360D02*
X13859880Y-15560360D01*
D10*
X-8407000Y15907700D02*
X-10857000Y15907700D01*
X-10207000Y12687700D02*
X-8407000Y12687700D01*
X-7114400Y14472700D02*
X-7114400Y17272700D01*
X-7114400Y17272700D02*
X-5114400Y17272700D01*
X-5114400Y17272700D02*
X-5114400Y14472700D01*
X-5114400Y14472700D02*
X-7114400Y14472700D01*
X-13050200Y15901300D02*
X-13050200Y18186300D01*
X-14520200Y15901300D02*
X-13050200Y15901300D01*
X-14520200Y18186300D02*
X-14520200Y15901300D01*
X-8236200Y17702200D02*
X-10521200Y17702200D01*
X-8236200Y16232200D02*
X-8236200Y17702200D01*
X-10521200Y16232200D02*
X-8236200Y16232200D01*
X8432200Y-18895600D02*
X7322200Y-18895600D01*
X8432200Y-18135600D02*
X8432200Y-18895600D01*
X6758729Y-17375600D02*
X6212200Y-17375600D01*
X8432200Y-17375600D02*
X7885671Y-17375600D01*
X6212200Y-17375600D02*
X6212200Y-8550600D01*
X8432200Y-17375600D02*
X8432200Y-8550600D01*
X7014670Y-8550600D02*
X6212200Y-8550600D01*
X8432200Y-8550600D02*
X7629730Y-8550600D01*
D11*
X20512380Y-333333D02*
X21226666Y-333333D01*
X21369523Y-380952D01*
X21464761Y-476190D01*
X21512380Y-619047D01*
X21512380Y-714285D01*
X21512380Y666666D02*
X21512380Y95238D01*
X21512380Y380952D02*
X20512380Y380952D01*
X20655238Y285714D01*
X20750476Y190476D01*
X20798095Y95238D01*
X-11487619Y-333333D02*
X-10773333Y-333333D01*
X-10630476Y-380952D01*
X-10535238Y-476190D01*
X-10487619Y-619047D01*
X-10487619Y-714285D01*
X-11392380Y95238D02*
X-11440000Y142857D01*
X-11487619Y238095D01*
X-11487619Y476190D01*
X-11440000Y571428D01*
X-11392380Y619047D01*
X-11297142Y666666D01*
X-11201904Y666666D01*
X-11059047Y619047D01*
X-10487619Y47619D01*
X-10487619Y666666D01*
X-928459Y-13208024D02*
X-118935Y-13208024D01*
X-23697Y-13160405D01*
X23921Y-13112786D01*
X71540Y-13017548D01*
X71540Y-12827072D01*
X23921Y-12731834D01*
X-23697Y-12684215D01*
X-118935Y-12636596D01*
X-928459Y-12636596D01*
X-833220Y-12208024D02*
X-880840Y-12160405D01*
X-928459Y-12065167D01*
X-928459Y-11827072D01*
X-880840Y-11731834D01*
X-833220Y-11684215D01*
X-737982Y-11636596D01*
X-642744Y-11636596D01*
X-499887Y-11684215D01*
X71540Y-12255643D01*
X71540Y-11636596D01*
X15037260Y-14697264D02*
X15846784Y-14697264D01*
X15942022Y-14649645D01*
X15989641Y-14602026D01*
X16037260Y-14506788D01*
X16037260Y-14316312D01*
X15989641Y-14221074D01*
X15942022Y-14173455D01*
X15846784Y-14125836D01*
X15037260Y-14125836D01*
X16037260Y-13125836D02*
X16037260Y-13697264D01*
X16037260Y-13411550D02*
X15037260Y-13411550D01*
X15180118Y-13506788D01*
X15275356Y-13602026D01*
X15322975Y-13697264D01*
X3422142Y-11442380D02*
X3088809Y-10966190D01*
X2850714Y-11442380D02*
X2850714Y-10442380D01*
X3231666Y-10442380D01*
X3326904Y-10490000D01*
X3374523Y-10537619D01*
X3422142Y-10632857D01*
X3422142Y-10775714D01*
X3374523Y-10870952D01*
X3326904Y-10918571D01*
X3231666Y-10966190D01*
X2850714Y-10966190D01*
X3803095Y-10537619D02*
X3850714Y-10490000D01*
X3945952Y-10442380D01*
X4184047Y-10442380D01*
X4279285Y-10490000D01*
X4326904Y-10537619D01*
X4374523Y-10632857D01*
X4374523Y-10728095D01*
X4326904Y-10870952D01*
X3755476Y-11442380D01*
X4374523Y-11442380D01*
X4993571Y-10442380D02*
X5088809Y-10442380D01*
X5184047Y-10490000D01*
X5231666Y-10537619D01*
X5279285Y-10632857D01*
X5326904Y-10823333D01*
X5326904Y-11061428D01*
X5279285Y-11251904D01*
X5231666Y-11347142D01*
X5184047Y-11394761D01*
X5088809Y-11442380D01*
X4993571Y-11442380D01*
X4898333Y-11394761D01*
X4850714Y-11347142D01*
X4803095Y-11251904D01*
X4755476Y-11061428D01*
X4755476Y-10823333D01*
X4803095Y-10632857D01*
X4850714Y-10537619D01*
X4898333Y-10490000D01*
X4993571Y-10442380D01*
X3407142Y-16712380D02*
X3073809Y-16236190D01*
X2835714Y-16712380D02*
X2835714Y-15712380D01*
X3216666Y-15712380D01*
X3311904Y-15760000D01*
X3359523Y-15807619D01*
X3407142Y-15902857D01*
X3407142Y-16045714D01*
X3359523Y-16140952D01*
X3311904Y-16188571D01*
X3216666Y-16236190D01*
X2835714Y-16236190D01*
X4359523Y-16712380D02*
X3788095Y-16712380D01*
X4073809Y-16712380D02*
X4073809Y-15712380D01*
X3978571Y-15855238D01*
X3883333Y-15950476D01*
X3788095Y-15998095D01*
X4835714Y-16712380D02*
X5026190Y-16712380D01*
X5121428Y-16664761D01*
X5169047Y-16617142D01*
X5264285Y-16474285D01*
X5311904Y-16283809D01*
X5311904Y-15902857D01*
X5264285Y-15807619D01*
X5216666Y-15760000D01*
X5121428Y-15712380D01*
X4930952Y-15712380D01*
X4835714Y-15760000D01*
X4788095Y-15807619D01*
X4740476Y-15902857D01*
X4740476Y-16140952D01*
X4788095Y-16236190D01*
X4835714Y-16283809D01*
X4930952Y-16331428D01*
X5121428Y-16331428D01*
X5216666Y-16283809D01*
X5264285Y-16236190D01*
X5311904Y-16140952D01*
X-417619Y-9647857D02*
X-893809Y-9981190D01*
X-417619Y-10219285D02*
X-1417619Y-10219285D01*
X-1417619Y-9838333D01*
X-1370000Y-9743095D01*
X-1322380Y-9695476D01*
X-1227142Y-9647857D01*
X-1084285Y-9647857D01*
X-989047Y-9695476D01*
X-941428Y-9743095D01*
X-893809Y-9838333D01*
X-893809Y-10219285D01*
X-417619Y-8695476D02*
X-417619Y-9266904D01*
X-417619Y-8981190D02*
X-1417619Y-8981190D01*
X-1274761Y-9076428D01*
X-1179523Y-9171666D01*
X-1131904Y-9266904D01*
X-1084285Y-7838333D02*
X-417619Y-7838333D01*
X-1465238Y-8076428D02*
X-750952Y-8314523D01*
X-750952Y-7695476D01*
X1471720Y-16405657D02*
X995530Y-16738990D01*
X1471720Y-16977085D02*
X471720Y-16977085D01*
X471720Y-16596133D01*
X519339Y-16500895D01*
X566959Y-16453276D01*
X662197Y-16405657D01*
X805054Y-16405657D01*
X900292Y-16453276D01*
X947911Y-16500895D01*
X995530Y-16596133D01*
X995530Y-16977085D01*
X1471720Y-15453276D02*
X1471720Y-16024704D01*
X1471720Y-15738990D02*
X471720Y-15738990D01*
X614578Y-15834228D01*
X709816Y-15929466D01*
X757435Y-16024704D01*
X471720Y-15119942D02*
X471720Y-14500895D01*
X852673Y-14834228D01*
X852673Y-14691371D01*
X900292Y-14596133D01*
X947911Y-14548514D01*
X1043149Y-14500895D01*
X1281244Y-14500895D01*
X1376482Y-14548514D01*
X1424101Y-14596133D01*
X1471720Y-14691371D01*
X1471720Y-14977085D01*
X1424101Y-15072323D01*
X1376482Y-15119942D01*
X522380Y-9642857D02*
X46190Y-9976190D01*
X522380Y-10214285D02*
X-477619Y-10214285D01*
X-477619Y-9833333D01*
X-430000Y-9738095D01*
X-382380Y-9690476D01*
X-287142Y-9642857D01*
X-144285Y-9642857D01*
X-49047Y-9690476D01*
X-1428Y-9738095D01*
X46190Y-9833333D01*
X46190Y-10214285D01*
X522380Y-8690476D02*
X522380Y-9261904D01*
X522380Y-8976190D02*
X-477619Y-8976190D01*
X-334761Y-9071428D01*
X-239523Y-9166666D01*
X-191904Y-9261904D01*
X-382380Y-8309523D02*
X-429999Y-8261904D01*
X-477619Y-8166666D01*
X-477619Y-7928571D01*
X-429999Y-7833333D01*
X-382380Y-7785714D01*
X-287142Y-7738095D01*
X-191904Y-7738095D01*
X-49047Y-7785714D01*
X522380Y-8357142D01*
X522380Y-7738095D01*
X532380Y-16397857D02*
X56190Y-16731190D01*
X532380Y-16969285D02*
X-467619Y-16969285D01*
X-467619Y-16588333D01*
X-420000Y-16493095D01*
X-372380Y-16445476D01*
X-277142Y-16397857D01*
X-134285Y-16397857D01*
X-39047Y-16445476D01*
X8571Y-16493095D01*
X56190Y-16588333D01*
X56190Y-16969285D01*
X532380Y-15445476D02*
X532380Y-16016904D01*
X532380Y-15731190D02*
X-467619Y-15731190D01*
X-324761Y-15826428D01*
X-229523Y-15921666D01*
X-181904Y-16016904D01*
X532380Y-14493095D02*
X532380Y-15064523D01*
X532380Y-14778809D02*
X-467619Y-14778809D01*
X-324761Y-14874047D01*
X-229523Y-14969285D01*
X-181904Y-15064523D01*
X3822380Y-9637857D02*
X3346190Y-9971190D01*
X3822380Y-10209285D02*
X2822380Y-10209285D01*
X2822380Y-9828333D01*
X2870000Y-9733095D01*
X2917619Y-9685476D01*
X3012857Y-9637857D01*
X3155714Y-9637857D01*
X3250952Y-9685476D01*
X3298571Y-9733095D01*
X3346190Y-9828333D01*
X3346190Y-10209285D01*
X3822380Y-8685476D02*
X3822380Y-9256904D01*
X3822380Y-8971190D02*
X2822380Y-8971190D01*
X2965238Y-9066428D01*
X3060476Y-9161666D01*
X3108095Y-9256904D01*
X2822380Y-8066428D02*
X2822380Y-7971190D01*
X2870000Y-7875952D01*
X2917619Y-7828333D01*
X3012857Y-7780714D01*
X3203333Y-7733095D01*
X3441428Y-7733095D01*
X3631904Y-7780714D01*
X3727142Y-7828333D01*
X3774761Y-7875952D01*
X3822380Y-7971190D01*
X3822380Y-8066428D01*
X3774761Y-8161666D01*
X3727142Y-8209285D01*
X3631904Y-8256904D01*
X3441428Y-8304523D01*
X3203333Y-8304523D01*
X3012857Y-8256904D01*
X2917619Y-8209285D01*
X2870000Y-8161666D01*
X2822380Y-8066428D01*
X1442380Y-11361666D02*
X966190Y-11695000D01*
X1442380Y-11933095D02*
X442380Y-11933095D01*
X442380Y-11552142D01*
X490000Y-11456904D01*
X537619Y-11409285D01*
X632857Y-11361666D01*
X775714Y-11361666D01*
X870952Y-11409285D01*
X918571Y-11456904D01*
X966190Y-11552142D01*
X966190Y-11933095D01*
X1442380Y-10885476D02*
X1442380Y-10695000D01*
X1394761Y-10599761D01*
X1347142Y-10552142D01*
X1204285Y-10456904D01*
X1013809Y-10409285D01*
X632857Y-10409285D01*
X537619Y-10456904D01*
X490000Y-10504523D01*
X442380Y-10599761D01*
X442380Y-10790238D01*
X490000Y-10885476D01*
X537619Y-10933095D01*
X632857Y-10980714D01*
X870952Y-10980714D01*
X966190Y-10933095D01*
X1013809Y-10885476D01*
X1061428Y-10790238D01*
X1061428Y-10599761D01*
X1013809Y-10504523D01*
X966190Y-10456904D01*
X870952Y-10409285D01*
X11001573Y-15838100D02*
X10668240Y-15361910D01*
X10430144Y-15838100D02*
X10430144Y-14838100D01*
X10811097Y-14838100D01*
X10906335Y-14885720D01*
X10953954Y-14933339D01*
X11001573Y-15028577D01*
X11001573Y-15171434D01*
X10953954Y-15266672D01*
X10906335Y-15314291D01*
X10811097Y-15361910D01*
X10430144Y-15361910D01*
X11573001Y-15266672D02*
X11477763Y-15219053D01*
X11430144Y-15171434D01*
X11382525Y-15076196D01*
X11382525Y-15028577D01*
X11430144Y-14933339D01*
X11477763Y-14885720D01*
X11573001Y-14838100D01*
X11763478Y-14838100D01*
X11858716Y-14885720D01*
X11906335Y-14933339D01*
X11953954Y-15028577D01*
X11953954Y-15076196D01*
X11906335Y-15171434D01*
X11858716Y-15219053D01*
X11763478Y-15266672D01*
X11573001Y-15266672D01*
X11477763Y-15314291D01*
X11430144Y-15361910D01*
X11382525Y-15457148D01*
X11382525Y-15647624D01*
X11430144Y-15742862D01*
X11477763Y-15790481D01*
X11573001Y-15838100D01*
X11763478Y-15838100D01*
X11858716Y-15790481D01*
X11906335Y-15742862D01*
X11953954Y-15647624D01*
X11953954Y-15457148D01*
X11906335Y-15361910D01*
X11858716Y-15314291D01*
X11763478Y-15266672D01*
X11133933Y-10590460D02*
X10800600Y-10114270D01*
X10562504Y-10590460D02*
X10562504Y-9590460D01*
X10943457Y-9590460D01*
X11038695Y-9638080D01*
X11086314Y-9685699D01*
X11133933Y-9780937D01*
X11133933Y-9923794D01*
X11086314Y-10019032D01*
X11038695Y-10066651D01*
X10943457Y-10114270D01*
X10562504Y-10114270D01*
X11467266Y-9590460D02*
X12133933Y-9590460D01*
X11705361Y-10590460D01*
X16491540Y-17191426D02*
X16015350Y-17524760D01*
X16491540Y-17762855D02*
X15491540Y-17762855D01*
X15491540Y-17381902D01*
X15539160Y-17286664D01*
X15586779Y-17239045D01*
X15682017Y-17191426D01*
X15824874Y-17191426D01*
X15920112Y-17239045D01*
X15967731Y-17286664D01*
X16015350Y-17381902D01*
X16015350Y-17762855D01*
X15491540Y-16334283D02*
X15491540Y-16524760D01*
X15539160Y-16619998D01*
X15586779Y-16667617D01*
X15729636Y-16762855D01*
X15920112Y-16810474D01*
X16301064Y-16810474D01*
X16396302Y-16762855D01*
X16443921Y-16715236D01*
X16491540Y-16619998D01*
X16491540Y-16429521D01*
X16443921Y-16334283D01*
X16396302Y-16286664D01*
X16301064Y-16239045D01*
X16062969Y-16239045D01*
X15967731Y-16286664D01*
X15920112Y-16334283D01*
X15872493Y-16429521D01*
X15872493Y-16619998D01*
X15920112Y-16715236D01*
X15967731Y-16762855D01*
X16062969Y-16810474D01*
X14561140Y-10511946D02*
X14084950Y-10845280D01*
X14561140Y-11083375D02*
X13561140Y-11083375D01*
X13561140Y-10702422D01*
X13608760Y-10607184D01*
X13656379Y-10559565D01*
X13751617Y-10511946D01*
X13894474Y-10511946D01*
X13989712Y-10559565D01*
X14037331Y-10607184D01*
X14084950Y-10702422D01*
X14084950Y-11083375D01*
X13561140Y-9607184D02*
X13561140Y-10083375D01*
X14037331Y-10130994D01*
X13989712Y-10083375D01*
X13942093Y-9988137D01*
X13942093Y-9750041D01*
X13989712Y-9654803D01*
X14037331Y-9607184D01*
X14132569Y-9559565D01*
X14370664Y-9559565D01*
X14465902Y-9607184D01*
X14513521Y-9654803D01*
X14561140Y-9750041D01*
X14561140Y-9988137D01*
X14513521Y-10083375D01*
X14465902Y-10130994D01*
X15546660Y-17192426D02*
X15070470Y-17525760D01*
X15546660Y-17763855D02*
X14546660Y-17763855D01*
X14546660Y-17382902D01*
X14594280Y-17287664D01*
X14641899Y-17240045D01*
X14737137Y-17192426D01*
X14879994Y-17192426D01*
X14975232Y-17240045D01*
X15022851Y-17287664D01*
X15070470Y-17382902D01*
X15070470Y-17763855D01*
X14879994Y-16335283D02*
X15546660Y-16335283D01*
X14499041Y-16573379D02*
X15213327Y-16811474D01*
X15213327Y-16192426D01*
X15526340Y-10511946D02*
X15050150Y-10845280D01*
X15526340Y-11083375D02*
X14526340Y-11083375D01*
X14526340Y-10702422D01*
X14573960Y-10607184D01*
X14621579Y-10559565D01*
X14716817Y-10511946D01*
X14859674Y-10511946D01*
X14954912Y-10559565D01*
X15002531Y-10607184D01*
X15050150Y-10702422D01*
X15050150Y-11083375D01*
X14526340Y-10178613D02*
X14526340Y-9559565D01*
X14907293Y-9892899D01*
X14907293Y-9750041D01*
X14954912Y-9654803D01*
X15002531Y-9607184D01*
X15097769Y-9559565D01*
X15335864Y-9559565D01*
X15431102Y-9607184D01*
X15478721Y-9654803D01*
X15526340Y-9750041D01*
X15526340Y-10035756D01*
X15478721Y-10130994D01*
X15431102Y-10178613D01*
X17178853Y-15421540D02*
X16845520Y-14945350D01*
X16607424Y-15421540D02*
X16607424Y-14421540D01*
X16988377Y-14421540D01*
X17083615Y-14469160D01*
X17131234Y-14516779D01*
X17178853Y-14612017D01*
X17178853Y-14754874D01*
X17131234Y-14850112D01*
X17083615Y-14897731D01*
X16988377Y-14945350D01*
X16607424Y-14945350D01*
X17559805Y-14516779D02*
X17607424Y-14469160D01*
X17702662Y-14421540D01*
X17940758Y-14421540D01*
X18035996Y-14469160D01*
X18083615Y-14516779D01*
X18131234Y-14612017D01*
X18131234Y-14707255D01*
X18083615Y-14850112D01*
X17512186Y-15421540D01*
X18131234Y-15421540D01*
X17153733Y-15866700D02*
X16820400Y-15390510D01*
X16582304Y-15866700D02*
X16582304Y-14866700D01*
X16963257Y-14866700D01*
X17058495Y-14914320D01*
X17106114Y-14961939D01*
X17153733Y-15057177D01*
X17153733Y-15200034D01*
X17106114Y-15295272D01*
X17058495Y-15342891D01*
X16963257Y-15390510D01*
X16582304Y-15390510D01*
X18106114Y-15866700D02*
X17534685Y-15866700D01*
X17820400Y-15866700D02*
X17820400Y-14866700D01*
X17725161Y-15009558D01*
X17629923Y-15104796D01*
X17534685Y-15152415D01*
X-806666Y-11787142D02*
X-854285Y-11834761D01*
X-997142Y-11882380D01*
X-1092380Y-11882380D01*
X-1235238Y-11834761D01*
X-1330476Y-11739523D01*
X-1378095Y-11644285D01*
X-1425714Y-11453809D01*
X-1425714Y-11310952D01*
X-1378095Y-11120476D01*
X-1330476Y-11025238D01*
X-1235238Y-10930000D01*
X-1092380Y-10882380D01*
X-997142Y-10882380D01*
X-854285Y-10930000D01*
X-806666Y-10977619D01*
X50476Y-10882380D02*
X-140000Y-10882380D01*
X-235238Y-10930000D01*
X-282857Y-10977619D01*
X-378095Y-11120476D01*
X-425714Y-11310952D01*
X-425714Y-11691904D01*
X-378095Y-11787142D01*
X-330476Y-11834761D01*
X-235238Y-11882380D01*
X-44761Y-11882380D01*
X50476Y-11834761D01*
X98095Y-11787142D01*
X145714Y-11691904D01*
X145714Y-11453809D01*
X98095Y-11358571D01*
X50476Y-11310952D01*
X-44761Y-11263333D01*
X-235238Y-11263333D01*
X-330476Y-11310952D01*
X-378095Y-11358571D01*
X-425714Y-11453809D01*
X887142Y-9176666D02*
X934761Y-9224285D01*
X982380Y-9367142D01*
X982380Y-9462380D01*
X934761Y-9605238D01*
X839523Y-9700476D01*
X744285Y-9748095D01*
X553809Y-9795714D01*
X410952Y-9795714D01*
X220476Y-9748095D01*
X125238Y-9700476D01*
X29999Y-9605238D01*
X-17619Y-9462380D01*
X-17619Y-9367142D01*
X30000Y-9224285D01*
X77619Y-9176666D01*
X-17619Y-8271904D02*
X-17619Y-8748095D01*
X458571Y-8795714D01*
X410952Y-8748095D01*
X363333Y-8652857D01*
X363333Y-8414761D01*
X410952Y-8319523D01*
X458571Y-8271904D01*
X553809Y-8224285D01*
X791904Y-8224285D01*
X887142Y-8271904D01*
X934761Y-8319523D01*
X982380Y-8414761D01*
X982380Y-8652857D01*
X934761Y-8748095D01*
X887142Y-8795714D01*
X407142Y-11361666D02*
X454761Y-11409285D01*
X502380Y-11552142D01*
X502380Y-11647380D01*
X454761Y-11790238D01*
X359523Y-11885476D01*
X264285Y-11933095D01*
X73809Y-11980714D01*
X-69047Y-11980714D01*
X-259523Y-11933095D01*
X-354761Y-11885476D01*
X-450000Y-11790238D01*
X-497619Y-11647380D01*
X-497619Y-11552142D01*
X-450000Y-11409285D01*
X-402380Y-11361666D01*
X-164285Y-10504523D02*
X502380Y-10504523D01*
X-545238Y-10742619D02*
X169047Y-10980714D01*
X169047Y-10361666D01*
X9108382Y-14083186D02*
X9156001Y-14130805D01*
X9203620Y-14273662D01*
X9203620Y-14368900D01*
X9156001Y-14511758D01*
X9060763Y-14606996D01*
X8965525Y-14654615D01*
X8775049Y-14702234D01*
X8632192Y-14702234D01*
X8441716Y-14654615D01*
X8346478Y-14606996D01*
X8251240Y-14511758D01*
X8203620Y-14368900D01*
X8203620Y-14273662D01*
X8251240Y-14130805D01*
X8298859Y-14083186D01*
X8203620Y-13749853D02*
X8203620Y-13130805D01*
X8584573Y-13464139D01*
X8584573Y-13321281D01*
X8632192Y-13226043D01*
X8679811Y-13178424D01*
X8775049Y-13130805D01*
X9013144Y-13130805D01*
X9108382Y-13178424D01*
X9156001Y-13226043D01*
X9203620Y-13321281D01*
X9203620Y-13606996D01*
X9156001Y-13702234D01*
X9108382Y-13749853D01*
X15001182Y-17187066D02*
X15048801Y-17234685D01*
X15096420Y-17377542D01*
X15096420Y-17472780D01*
X15048801Y-17615638D01*
X14953563Y-17710876D01*
X14858325Y-17758495D01*
X14667849Y-17806114D01*
X14524992Y-17806114D01*
X14334516Y-17758495D01*
X14239278Y-17710876D01*
X14144040Y-17615638D01*
X14096420Y-17472780D01*
X14096420Y-17377542D01*
X14144040Y-17234685D01*
X14191659Y-17187066D01*
X14191659Y-16806114D02*
X14144040Y-16758495D01*
X14096420Y-16663257D01*
X14096420Y-16425161D01*
X14144040Y-16329923D01*
X14191659Y-16282304D01*
X14286897Y-16234685D01*
X14382135Y-16234685D01*
X14524992Y-16282304D01*
X15096420Y-16853733D01*
X15096420Y-16234685D01*
X17194093Y-16716342D02*
X17146474Y-16763961D01*
X17003617Y-16811580D01*
X16908379Y-16811580D01*
X16765521Y-16763961D01*
X16670283Y-16668723D01*
X16622664Y-16573485D01*
X16575045Y-16383009D01*
X16575045Y-16240152D01*
X16622664Y-16049676D01*
X16670283Y-15954438D01*
X16765521Y-15859200D01*
X16908379Y-15811580D01*
X17003617Y-15811580D01*
X17146474Y-15859200D01*
X17194093Y-15906819D01*
X18146474Y-16811580D02*
X17575045Y-16811580D01*
X17860760Y-16811580D02*
X17860760Y-15811580D01*
X17765521Y-15954438D01*
X17670283Y-16049676D01*
X17575045Y-16097295D01*
X-10068904Y17745319D02*
X-10068904Y16935795D01*
X-10021285Y16840557D01*
X-9973666Y16792938D01*
X-9878428Y16745319D01*
X-9687952Y16745319D01*
X-9592714Y16792938D01*
X-9545095Y16840557D01*
X-9497476Y16935795D01*
X-9497476Y17745319D01*
X-8592714Y17411985D02*
X-8592714Y16745319D01*
X-8830809Y17792938D02*
X-9068904Y17078652D01*
X-8449857Y17078652D01*
X-13945457Y15995719D02*
X-14278790Y16471909D01*
X-14516885Y15995719D02*
X-14516885Y16995719D01*
X-14135933Y16995719D01*
X-14040695Y16948100D01*
X-13993076Y16900480D01*
X-13945457Y16805242D01*
X-13945457Y16662385D01*
X-13993076Y16567147D01*
X-14040695Y16519528D01*
X-14135933Y16471909D01*
X-14516885Y16471909D01*
X-12993076Y15995719D02*
X-13564504Y15995719D01*
X-13278790Y15995719D02*
X-13278790Y16995719D01*
X-13374028Y16852861D01*
X-13469266Y16757623D01*
X-13564504Y16710004D01*
X-12421647Y16567147D02*
X-12516885Y16614766D01*
X-12564504Y16662385D01*
X-12612123Y16757623D01*
X-12612123Y16805242D01*
X-12564504Y16900480D01*
X-12516885Y16948100D01*
X-12421647Y16995719D01*
X-12231171Y16995719D01*
X-12135933Y16948100D01*
X-12088314Y16900480D01*
X-12040695Y16805242D01*
X-12040695Y16757623D01*
X-12088314Y16662385D01*
X-12135933Y16614766D01*
X-12231171Y16567147D01*
X-12421647Y16567147D01*
X-12516885Y16519528D01*
X-12564504Y16471909D01*
X-12612123Y16376671D01*
X-12612123Y16186195D01*
X-12564504Y16090957D01*
X-12516885Y16043338D01*
X-12421647Y15995719D01*
X-12231171Y15995719D01*
X-12135933Y16043338D01*
X-12088314Y16090957D01*
X-12040695Y16186195D01*
X-12040695Y16376671D01*
X-12088314Y16471909D01*
X-12135933Y16519528D01*
X-12231171Y16567147D01*
X-10181619Y15115442D02*
X-10657809Y14782109D01*
X-10181619Y14544014D02*
X-11181619Y14544014D01*
X-11181619Y14924966D01*
X-11134000Y15020204D01*
X-11086380Y15067823D01*
X-10991142Y15115442D01*
X-10848285Y15115442D01*
X-10753047Y15067823D01*
X-10705428Y15020204D01*
X-10657809Y14924966D01*
X-10657809Y14544014D01*
X-10181619Y16067823D02*
X-10181619Y15496395D01*
X-10181619Y15782109D02*
X-11181619Y15782109D01*
X-11038761Y15686871D01*
X-10943523Y15591633D01*
X-10895904Y15496395D01*
X-11181619Y16401157D02*
X-11181619Y17067823D01*
X-10181619Y16639252D01*
X-7239857Y16449719D02*
X-7573190Y16925909D01*
X-7811285Y16449719D02*
X-7811285Y17449719D01*
X-7430333Y17449719D01*
X-7335095Y17402100D01*
X-7287476Y17354480D01*
X-7239857Y17259242D01*
X-7239857Y17116385D01*
X-7287476Y17021147D01*
X-7335095Y16973528D01*
X-7430333Y16925909D01*
X-7811285Y16925909D01*
X-6287476Y16449719D02*
X-6858904Y16449719D01*
X-6573190Y16449719D02*
X-6573190Y17449719D01*
X-6668428Y17306861D01*
X-6763666Y17211623D01*
X-6858904Y17164004D01*
X-5430333Y17449719D02*
X-5620809Y17449719D01*
X-5716047Y17402100D01*
X-5763666Y17354480D01*
X-5858904Y17211623D01*
X-5906523Y17021147D01*
X-5906523Y16640195D01*
X-5858904Y16544957D01*
X-5811285Y16497338D01*
X-5716047Y16449719D01*
X-5525571Y16449719D01*
X-5430333Y16497338D01*
X-5382714Y16544957D01*
X-5335095Y16640195D01*
X-5335095Y16878290D01*
X-5382714Y16973528D01*
X-5430333Y17021147D01*
X-5525571Y17068766D01*
X-5716047Y17068766D01*
X-5811285Y17021147D01*
X-5858904Y16973528D01*
X-5906523Y16878290D01*
X-4458557Y15957619D02*
X-4791890Y16433809D01*
X-5029985Y15957619D02*
X-5029985Y16957619D01*
X-4649033Y16957619D01*
X-4553795Y16910000D01*
X-4506176Y16862380D01*
X-4458557Y16767142D01*
X-4458557Y16624285D01*
X-4506176Y16529047D01*
X-4553795Y16481428D01*
X-4649033Y16433809D01*
X-5029985Y16433809D01*
X-3506176Y15957619D02*
X-4077604Y15957619D01*
X-3791890Y15957619D02*
X-3791890Y16957619D01*
X-3887128Y16814761D01*
X-3982366Y16719523D01*
X-4077604Y16671904D01*
X-2601414Y16957619D02*
X-3077604Y16957619D01*
X-3125223Y16481428D01*
X-3077604Y16529047D01*
X-2982366Y16576666D01*
X-2744271Y16576666D01*
X-2649033Y16529047D01*
X-2601414Y16481428D01*
X-2553795Y16386190D01*
X-2553795Y16148095D01*
X-2601414Y16052857D01*
X-2649033Y16005238D01*
X-2744271Y15957619D01*
X-2982366Y15957619D01*
X-3077604Y16005238D01*
X-3125223Y16052857D01*
X-8462019Y15039366D02*
X-7747733Y15039366D01*
X-7604876Y14991747D01*
X-7509638Y14896509D01*
X-7462019Y14753652D01*
X-7462019Y14658414D01*
X-7462019Y15515557D02*
X-8462019Y15515557D01*
X-8462019Y15896509D01*
X-8414400Y15991747D01*
X-8366780Y16039366D01*
X-8271542Y16086985D01*
X-8128685Y16086985D01*
X-8033447Y16039366D01*
X-7985828Y15991747D01*
X-7938209Y15896509D01*
X-7938209Y15515557D01*
X-7462019Y17039366D02*
X-7462019Y16467938D01*
X-7462019Y16753652D02*
X-8462019Y16753652D01*
X-8319161Y16658414D01*
X-8223923Y16563176D01*
X-8176304Y16467938D01*
X-14762819Y16648204D02*
X-15762819Y16648204D01*
X-15762819Y16886300D01*
X-15715200Y17029157D01*
X-15619961Y17124395D01*
X-15524723Y17172014D01*
X-15334247Y17219633D01*
X-15191390Y17219633D01*
X-15000914Y17172014D01*
X-14905676Y17124395D01*
X-14810438Y17029157D01*
X-14762819Y16886300D01*
X-14762819Y16648204D01*
X-15667580Y17600585D02*
X-15715200Y17648204D01*
X-15762819Y17743442D01*
X-15762819Y17981538D01*
X-15715200Y18076776D01*
X-15667580Y18124395D01*
X-15572342Y18172014D01*
X-15477104Y18172014D01*
X-15334247Y18124395D01*
X-14762819Y17552966D01*
X-14762819Y18172014D01*
X-10459295Y15084819D02*
X-10459295Y16084819D01*
X-10221200Y16084819D01*
X-10078342Y16037200D01*
X-9983104Y15941961D01*
X-9935485Y15846723D01*
X-9887866Y15656247D01*
X-9887866Y15513390D01*
X-9935485Y15322914D01*
X-9983104Y15227676D01*
X-10078342Y15132438D01*
X-10221200Y15084819D01*
X-10459295Y15084819D01*
X-8935485Y15084819D02*
X-9506914Y15084819D01*
X-9221200Y15084819D02*
X-9221200Y16084819D01*
X-9316438Y15941961D01*
X-9411676Y15846723D01*
X-9506914Y15799104D01*
X-10365757Y12984242D02*
X-10318138Y12936623D01*
X-10270519Y12793766D01*
X-10270519Y12698528D01*
X-10318138Y12555671D01*
X-10413376Y12460433D01*
X-10508614Y12412814D01*
X-10699090Y12365195D01*
X-10841947Y12365195D01*
X-11032423Y12412814D01*
X-11127661Y12460433D01*
X-11222900Y12555671D01*
X-11270519Y12698528D01*
X-11270519Y12793766D01*
X-11222900Y12936623D01*
X-11175280Y12984242D01*
X-11175280Y13365195D02*
X-11222900Y13412814D01*
X-11270519Y13508052D01*
X-11270519Y13746147D01*
X-11222900Y13841385D01*
X-11175280Y13889004D01*
X-11080042Y13936623D01*
X-10984804Y13936623D01*
X-10841947Y13889004D01*
X-10270519Y13317576D01*
X-10270519Y13936623D01*
X-10270519Y14889004D02*
X-10270519Y14317576D01*
X-10270519Y14603290D02*
X-11270519Y14603290D01*
X-11127661Y14508052D01*
X-11032423Y14412814D01*
X-10984804Y14317576D01*
X-9424257Y10360057D02*
X-9471876Y10312438D01*
X-9614733Y10264819D01*
X-9709971Y10264819D01*
X-9852828Y10312438D01*
X-9948066Y10407676D01*
X-9995685Y10502914D01*
X-10043304Y10693390D01*
X-10043304Y10836247D01*
X-9995685Y11026723D01*
X-9948066Y11121961D01*
X-9852828Y11217200D01*
X-9709971Y11264819D01*
X-9614733Y11264819D01*
X-9471876Y11217200D01*
X-9424257Y11169580D01*
X-9043304Y11169580D02*
X-8995685Y11217200D01*
X-8900447Y11264819D01*
X-8662352Y11264819D01*
X-8567114Y11217200D01*
X-8519495Y11169580D01*
X-8471876Y11074342D01*
X-8471876Y10979104D01*
X-8519495Y10836247D01*
X-9090923Y10264819D01*
X-8471876Y10264819D01*
X-7852828Y11264819D02*
X-7757590Y11264819D01*
X-7662352Y11217200D01*
X-7614733Y11169580D01*
X-7567114Y11074342D01*
X-7519495Y10883866D01*
X-7519495Y10645771D01*
X-7567114Y10455295D01*
X-7614733Y10360057D01*
X-7662352Y10312438D01*
X-7757590Y10264819D01*
X-7852828Y10264819D01*
X-7948066Y10312438D01*
X-7995685Y10360057D01*
X-8043304Y10455295D01*
X-8090923Y10645771D01*
X-8090923Y10883866D01*
X-8043304Y11074342D01*
X-7995685Y11169580D01*
X-7948066Y11217200D01*
X-7852828Y11264819D01*
X6988866Y-19282980D02*
X6988866Y-19997266D01*
X6941247Y-20140123D01*
X6846009Y-20235361D01*
X6703152Y-20282980D01*
X6607914Y-20282980D01*
X7893628Y-19282980D02*
X7703152Y-19282980D01*
X7607914Y-19330600D01*
X7560295Y-19378219D01*
X7465057Y-19521076D01*
X7417438Y-19711552D01*
X7417438Y-20092504D01*
X7465057Y-20187742D01*
X7512676Y-20235361D01*
X7607914Y-20282980D01*
X7798390Y-20282980D01*
X7893628Y-20235361D01*
X7941247Y-20187742D01*
X7988866Y-20092504D01*
X7988866Y-19854409D01*
X7941247Y-19759171D01*
X7893628Y-19711552D01*
X7798390Y-19663933D01*
X7607914Y-19663933D01*
X7512676Y-19711552D01*
X7465057Y-19759171D01*
X7417438Y-19854409D01*
X-761204Y-16952380D02*
X-761204Y-15952380D01*
X-761204Y-16428571D02*
X-189776Y-16428571D01*
X-189776Y-16952380D02*
X-189776Y-15952380D01*
X429271Y-16380952D02*
X334033Y-16333333D01*
X286414Y-16285714D01*
X238795Y-16190476D01*
X238795Y-16142857D01*
X286414Y-16047619D01*
X334033Y-16000000D01*
X429271Y-15952380D01*
X619747Y-15952380D01*
X714985Y-16000000D01*
X762604Y-16047619D01*
X810223Y-16142857D01*
X810223Y-16190476D01*
X762604Y-16285714D01*
X714985Y-16333333D01*
X619747Y-16380952D01*
X429271Y-16380952D01*
X334033Y-16428571D01*
X286414Y-16476190D01*
X238795Y-16571428D01*
X238795Y-16761904D01*
X286414Y-16857142D01*
X334033Y-16904761D01*
X429271Y-16952380D01*
X619747Y-16952380D01*
X714985Y-16904761D01*
X762604Y-16857142D01*
X810223Y-16761904D01*
X810223Y-16571428D01*
X762604Y-16476190D01*
X714985Y-16428571D01*
X619747Y-16380952D01*
X13338795Y-2952380D02*
X13338795Y-1952380D01*
X13338795Y-2428571D02*
X13910223Y-2428571D01*
X13910223Y-2952380D02*
X13910223Y-1952380D01*
X14291176Y-1952380D02*
X14957842Y-1952380D01*
X14529271Y-2952380D01*
X-761204Y23047619D02*
X-761204Y24047619D01*
X-761204Y23571428D02*
X-189776Y23571428D01*
X-189776Y23047619D02*
X-189776Y24047619D01*
X714985Y24047619D02*
X524509Y24047619D01*
X429271Y24000000D01*
X381652Y23952380D01*
X286414Y23809523D01*
X238795Y23619047D01*
X238795Y23238095D01*
X286414Y23142857D01*
X334033Y23095238D01*
X429271Y23047619D01*
X619747Y23047619D01*
X714985Y23095238D01*
X762604Y23142857D01*
X810223Y23238095D01*
X810223Y23476190D01*
X762604Y23571428D01*
X714985Y23619047D01*
X619747Y23666666D01*
X429271Y23666666D01*
X334033Y23619047D01*
X286414Y23571428D01*
X238795Y23476190D01*
X13338795Y9047619D02*
X13338795Y10047619D01*
X13338795Y9571428D02*
X13910223Y9571428D01*
X13910223Y9047619D02*
X13910223Y10047619D01*
X14862604Y10047619D02*
X14386414Y10047619D01*
X14338795Y9571428D01*
X14386414Y9619047D01*
X14481652Y9666666D01*
X14719747Y9666666D01*
X14814985Y9619047D01*
X14862604Y9571428D01*
X14910223Y9476190D01*
X14910223Y9238095D01*
X14862604Y9142857D01*
X14814985Y9095238D01*
X14719747Y9047619D01*
X14481652Y9047619D01*
X14386414Y9095238D01*
X14338795Y9142857D01*
X-14861204Y-2952380D02*
X-14861204Y-1952380D01*
X-14861204Y-2428571D02*
X-14289776Y-2428571D01*
X-14289776Y-2952380D02*
X-14289776Y-1952380D01*
X-13385014Y-2285714D02*
X-13385014Y-2952380D01*
X-13623109Y-1904761D02*
X-13861204Y-2619047D01*
X-13242157Y-2619047D01*
X-14861204Y9047619D02*
X-14861204Y10047619D01*
X-14861204Y9571428D02*
X-14289776Y9571428D01*
X-14289776Y9047619D02*
X-14289776Y10047619D01*
X-13908823Y10047619D02*
X-13289776Y10047619D01*
X-13623109Y9666666D01*
X-13480252Y9666666D01*
X-13385014Y9619047D01*
X-13337395Y9571428D01*
X-13289776Y9476190D01*
X-13289776Y9238095D01*
X-13337395Y9142857D01*
X-13385014Y9095238D01*
X-13480252Y9047619D01*
X-13765966Y9047619D01*
X-13861204Y9095238D01*
X-13908823Y9142857D01*
M02*
