M48
; DRILL file {KiCad 5.1.5-52549c5~84~ubuntu18.04.1} date Tue 03 Dec 2019 09:09:56 PM EST
; FORMAT={-:-/ absolute / inch / decimal}
; #@! TF.CreationDate,2019-12-03T21:09:56-05:00
; #@! TF.GenerationSoftware,Kicad,Pcbnew,5.1.5-52549c5~84~ubuntu18.04.1
; #@! TF.FileFunction,Plated,1,2,PTH
FMAT,2
INCH
T1C0.0118
T2C0.0256
%
G90
G05
T1
X-0.6693Y-0.0213
X-0.635Y-0.074
X-0.511Y-0.1108
X-0.5106Y0.0016
X-0.5106Y-0.0146
X-0.5106Y-0.0306
X-0.5106Y-0.0468
X-0.5106Y-0.0628
X-0.5106Y-0.0788
X-0.5106Y-0.0948
X-0.4999Y0.7155
X-0.4825Y0.7155
X-0.4652Y0.7155
X-0.4436Y0.7155
X-0.423Y0.7222
X-0.4102Y0.735
X-0.3967Y0.7486
X-0.3831Y0.7622
X-0.3769Y0.5629
X-0.3685Y0.7768
X-0.361Y0.4984
X-0.3588Y0.5629
X-0.3414Y0.5629
X-0.3237Y0.5629
X-0.3169Y0.6677
X-0.3071Y0.561
X-0.3039Y0.6787
X-0.2717Y0.5255
X-0.2469Y0.5268
X-0.1299Y0.5713
X-0.0449Y-0.3752
X-0.0437Y-0.4768
X0.0244Y-0.4063
X0.0484Y-0.5697
X0.0677Y-0.3339
X0.0717Y-0.4646
X0.0748Y-0.5146
X0.0843Y-0.398
X0.0843Y-0.5772
X0.1083Y-0.572
X0.1093Y-0.403
X0.1197Y-0.4646
X0.1217Y-0.5157
X0.1756Y-0.4465
X0.1815Y-0.3504
X0.1831Y-0.5142
X0.2008Y-0.5862
X0.4176Y-0.582
X0.4246Y-0.5162
X0.4342Y-0.6204
X0.4385Y-0.4737
X0.4758Y-0.5232
X0.4772Y-0.5742
X0.4791Y-0.4094
X0.4897Y-0.4623
X0.4902Y-0.6496
X0.5166Y-0.6652
X0.5258Y-0.5746
X0.5266Y-0.5252
X0.544Y-0.7148
X0.5825Y-0.3759
X0.6376Y-0.6286
X0.6852Y-0.6648
X0.7378Y-0.1108
X0.7382Y0.0016
X0.7382Y-0.0146
X0.7382Y-0.0306
X0.7382Y-0.0468
X0.7382Y-0.0628
X0.7382Y-0.0788
X0.7382Y-0.0948
T2
X0.2883Y-0.364
X0.2883Y-0.414
X0.2883Y-0.464
X0.2883Y-0.514
X0.2883Y-0.564
X0.2883Y-0.614
X0.2883Y-0.664
X0.2883Y-0.714
T0
M30
