G04 #@! TF.GenerationSoftware,KiCad,Pcbnew,5.1.5-52549c5~84~ubuntu18.04.1*
G04 #@! TF.CreationDate,2019-12-19T20:38:57-05:00*
G04 #@! TF.ProjectId,SwarmBot,53776172-6d42-46f7-942e-6b696361645f,rev?*
G04 #@! TF.SameCoordinates,Original*
G04 #@! TF.FileFunction,Soldermask,Top*
G04 #@! TF.FilePolarity,Negative*
%FSLAX46Y46*%
G04 Gerber Fmt 4.6, Leading zero omitted, Abs format (unit mm)*
G04 Created by KiCad (PCBNEW 5.1.5-52549c5~84~ubuntu18.04.1) date 2019-12-19 20:38:57*
%MOMM*%
%LPD*%
G04 APERTURE LIST*
%ADD10C,0.100000*%
G04 APERTURE END LIST*
D10*
G36*
X380187Y-18748996D02*
G01*
X616953Y-18847068D01*
X616955Y-18847069D01*
X830039Y-18989447D01*
X1011253Y-19170661D01*
X1120008Y-19333424D01*
X1153632Y-19383747D01*
X1251704Y-19620513D01*
X1301700Y-19871861D01*
X1301700Y-20128139D01*
X1251704Y-20379487D01*
X1170160Y-20576351D01*
X1153631Y-20616255D01*
X1011253Y-20829339D01*
X830039Y-21010553D01*
X616955Y-21152931D01*
X616954Y-21152932D01*
X616953Y-21152932D01*
X380187Y-21251004D01*
X128839Y-21301000D01*
X-127439Y-21301000D01*
X-378787Y-21251004D01*
X-615553Y-21152932D01*
X-615554Y-21152932D01*
X-615555Y-21152931D01*
X-828639Y-21010553D01*
X-1009853Y-20829339D01*
X-1152231Y-20616255D01*
X-1168760Y-20576351D01*
X-1250304Y-20379487D01*
X-1300300Y-20128139D01*
X-1300300Y-19871861D01*
X-1250304Y-19620513D01*
X-1152232Y-19383747D01*
X-1118607Y-19333424D01*
X-1009853Y-19170661D01*
X-828639Y-18989447D01*
X-615555Y-18847069D01*
X-615553Y-18847068D01*
X-378787Y-18748996D01*
X-127439Y-18699000D01*
X128839Y-18699000D01*
X380187Y-18748996D01*
G37*
G36*
X12844778Y-19900236D02*
G01*
X12865397Y-19906491D01*
X12884393Y-19916644D01*
X12901048Y-19930312D01*
X12914714Y-19946965D01*
X12922538Y-19961603D01*
X12936152Y-19981977D01*
X12953479Y-19999304D01*
X12973853Y-20012918D01*
X12996492Y-20022295D01*
X13020526Y-20027075D01*
X13045030Y-20027075D01*
X13069063Y-20022294D01*
X13091702Y-20012917D01*
X13112076Y-19999303D01*
X13129403Y-19981976D01*
X13143014Y-19961606D01*
X13150764Y-19947108D01*
X13164432Y-19930452D01*
X13181087Y-19916784D01*
X13200083Y-19906631D01*
X13220702Y-19900376D01*
X13248280Y-19897660D01*
X13757000Y-19897660D01*
X13784578Y-19900376D01*
X13805197Y-19906631D01*
X13824193Y-19916784D01*
X13840848Y-19930452D01*
X13854516Y-19947107D01*
X13864669Y-19966103D01*
X13870924Y-19986722D01*
X13873640Y-20014300D01*
X13873640Y-20473020D01*
X13870924Y-20500598D01*
X13864669Y-20521217D01*
X13854516Y-20540213D01*
X13840848Y-20556868D01*
X13824193Y-20570536D01*
X13805197Y-20580689D01*
X13784578Y-20586944D01*
X13757000Y-20589660D01*
X13248280Y-20589660D01*
X13220702Y-20586944D01*
X13200083Y-20580689D01*
X13181087Y-20570536D01*
X13164432Y-20556868D01*
X13150766Y-20540215D01*
X13142942Y-20525577D01*
X13129328Y-20505203D01*
X13112001Y-20487876D01*
X13091627Y-20474262D01*
X13068988Y-20464885D01*
X13044954Y-20460105D01*
X13020450Y-20460105D01*
X12996417Y-20464886D01*
X12973778Y-20474263D01*
X12953404Y-20487877D01*
X12936077Y-20505204D01*
X12922466Y-20525574D01*
X12914716Y-20540072D01*
X12901048Y-20556728D01*
X12884393Y-20570396D01*
X12865397Y-20580549D01*
X12844778Y-20586804D01*
X12817200Y-20589520D01*
X12308480Y-20589520D01*
X12280902Y-20586804D01*
X12260283Y-20580549D01*
X12241287Y-20570396D01*
X12224632Y-20556728D01*
X12210964Y-20540073D01*
X12200811Y-20521077D01*
X12194556Y-20500458D01*
X12191840Y-20472880D01*
X12191840Y-20014160D01*
X12194556Y-19986582D01*
X12200811Y-19965963D01*
X12210964Y-19946967D01*
X12224632Y-19930312D01*
X12241287Y-19916644D01*
X12260283Y-19906491D01*
X12280902Y-19900236D01*
X12308480Y-19897520D01*
X12817200Y-19897520D01*
X12844778Y-19900236D01*
G37*
G36*
X12844778Y-18930236D02*
G01*
X12865397Y-18936491D01*
X12884393Y-18946644D01*
X12901048Y-18960312D01*
X12914714Y-18976965D01*
X12922538Y-18991603D01*
X12936152Y-19011977D01*
X12953479Y-19029304D01*
X12973853Y-19042918D01*
X12996492Y-19052295D01*
X13020526Y-19057075D01*
X13045030Y-19057075D01*
X13069063Y-19052294D01*
X13091702Y-19042917D01*
X13112076Y-19029303D01*
X13129403Y-19011976D01*
X13143014Y-18991606D01*
X13150764Y-18977108D01*
X13164432Y-18960452D01*
X13181087Y-18946784D01*
X13200083Y-18936631D01*
X13220702Y-18930376D01*
X13248280Y-18927660D01*
X13757000Y-18927660D01*
X13784578Y-18930376D01*
X13805197Y-18936631D01*
X13824193Y-18946784D01*
X13840848Y-18960452D01*
X13854516Y-18977107D01*
X13864669Y-18996103D01*
X13870924Y-19016722D01*
X13873640Y-19044300D01*
X13873640Y-19503020D01*
X13870924Y-19530598D01*
X13864669Y-19551217D01*
X13854516Y-19570213D01*
X13840848Y-19586868D01*
X13824193Y-19600536D01*
X13805197Y-19610689D01*
X13784578Y-19616944D01*
X13757000Y-19619660D01*
X13248280Y-19619660D01*
X13220702Y-19616944D01*
X13200083Y-19610689D01*
X13181087Y-19600536D01*
X13164432Y-19586868D01*
X13150766Y-19570215D01*
X13142942Y-19555577D01*
X13129328Y-19535203D01*
X13112001Y-19517876D01*
X13091627Y-19504262D01*
X13068988Y-19494885D01*
X13044954Y-19490105D01*
X13020450Y-19490105D01*
X12996417Y-19494886D01*
X12973778Y-19504263D01*
X12953404Y-19517877D01*
X12936077Y-19535204D01*
X12922466Y-19555574D01*
X12914716Y-19570072D01*
X12901048Y-19586728D01*
X12884393Y-19600396D01*
X12865397Y-19610549D01*
X12844778Y-19616804D01*
X12817200Y-19619520D01*
X12308480Y-19619520D01*
X12280902Y-19616804D01*
X12260283Y-19610549D01*
X12241287Y-19600396D01*
X12224632Y-19586728D01*
X12210964Y-19570073D01*
X12200811Y-19551077D01*
X12194556Y-19530458D01*
X12191840Y-19502880D01*
X12191840Y-19044160D01*
X12194556Y-19016582D01*
X12200811Y-18995963D01*
X12210964Y-18976967D01*
X12224632Y-18960312D01*
X12241287Y-18946644D01*
X12260283Y-18936491D01*
X12280902Y-18930236D01*
X12308480Y-18927520D01*
X12817200Y-18927520D01*
X12844778Y-18930236D01*
G37*
G36*
X10749958Y-18623296D02*
G01*
X10770577Y-18629551D01*
X10789573Y-18639704D01*
X10806228Y-18653372D01*
X10819896Y-18670027D01*
X10830049Y-18689023D01*
X10836304Y-18709642D01*
X10839020Y-18737220D01*
X10839020Y-19245940D01*
X10836304Y-19273518D01*
X10830049Y-19294137D01*
X10819896Y-19313133D01*
X10806228Y-19329788D01*
X10789573Y-19343456D01*
X10770577Y-19353609D01*
X10749958Y-19359864D01*
X10722380Y-19362580D01*
X10263660Y-19362580D01*
X10236082Y-19359864D01*
X10215463Y-19353609D01*
X10196467Y-19343456D01*
X10179812Y-19329788D01*
X10166144Y-19313133D01*
X10155991Y-19294137D01*
X10149736Y-19273518D01*
X10147020Y-19245940D01*
X10147020Y-18737220D01*
X10149736Y-18709642D01*
X10155991Y-18689023D01*
X10166144Y-18670027D01*
X10179812Y-18653372D01*
X10196467Y-18639704D01*
X10215463Y-18629551D01*
X10236082Y-18623296D01*
X10263660Y-18620580D01*
X10722380Y-18620580D01*
X10749958Y-18623296D01*
G37*
G36*
X11719958Y-18623296D02*
G01*
X11740577Y-18629551D01*
X11759573Y-18639704D01*
X11776228Y-18653372D01*
X11789896Y-18670027D01*
X11800049Y-18689023D01*
X11806304Y-18709642D01*
X11809020Y-18737220D01*
X11809020Y-19245940D01*
X11806304Y-19273518D01*
X11800049Y-19294137D01*
X11789896Y-19313133D01*
X11776228Y-19329788D01*
X11759573Y-19343456D01*
X11740577Y-19353609D01*
X11719958Y-19359864D01*
X11692380Y-19362580D01*
X11233660Y-19362580D01*
X11206082Y-19359864D01*
X11185463Y-19353609D01*
X11166467Y-19343456D01*
X11149812Y-19329788D01*
X11136144Y-19313133D01*
X11125991Y-19294137D01*
X11119736Y-19273518D01*
X11117020Y-19245940D01*
X11117020Y-18737220D01*
X11119736Y-18709642D01*
X11125991Y-18689023D01*
X11136144Y-18670027D01*
X11149812Y-18653372D01*
X11166467Y-18639704D01*
X11185463Y-18629551D01*
X11206082Y-18623296D01*
X11233660Y-18620580D01*
X11692380Y-18620580D01*
X11719958Y-18623296D01*
G37*
G36*
X14750458Y-18562336D02*
G01*
X14771077Y-18568591D01*
X14790073Y-18578744D01*
X14806728Y-18592412D01*
X14820396Y-18609067D01*
X14830549Y-18628063D01*
X14836804Y-18648682D01*
X14839520Y-18676260D01*
X14839520Y-19184980D01*
X14836804Y-19212558D01*
X14830549Y-19233177D01*
X14820396Y-19252173D01*
X14806728Y-19268828D01*
X14790073Y-19282496D01*
X14771077Y-19292649D01*
X14750458Y-19298904D01*
X14722880Y-19301620D01*
X14264160Y-19301620D01*
X14236582Y-19298904D01*
X14215963Y-19292649D01*
X14196967Y-19282496D01*
X14180312Y-19268828D01*
X14166644Y-19252173D01*
X14156491Y-19233177D01*
X14150236Y-19212558D01*
X14147520Y-19184980D01*
X14147520Y-18676260D01*
X14150236Y-18648682D01*
X14156491Y-18628063D01*
X14166644Y-18609067D01*
X14180312Y-18592412D01*
X14196967Y-18578744D01*
X14215963Y-18568591D01*
X14236582Y-18562336D01*
X14264160Y-18559620D01*
X14722880Y-18559620D01*
X14750458Y-18562336D01*
G37*
G36*
X15720458Y-18562336D02*
G01*
X15741077Y-18568591D01*
X15760073Y-18578744D01*
X15776728Y-18592412D01*
X15790396Y-18609067D01*
X15800549Y-18628063D01*
X15806804Y-18648682D01*
X15809520Y-18676260D01*
X15809520Y-19184980D01*
X15806804Y-19212558D01*
X15800549Y-19233177D01*
X15790396Y-19252173D01*
X15776728Y-19268828D01*
X15760073Y-19282496D01*
X15741077Y-19292649D01*
X15720458Y-19298904D01*
X15692880Y-19301620D01*
X15234160Y-19301620D01*
X15206582Y-19298904D01*
X15185963Y-19292649D01*
X15166967Y-19282496D01*
X15150312Y-19268828D01*
X15136644Y-19252173D01*
X15126491Y-19233177D01*
X15120236Y-19212558D01*
X15117520Y-19184980D01*
X15117520Y-18676260D01*
X15120236Y-18648682D01*
X15126491Y-18628063D01*
X15136644Y-18609067D01*
X15150312Y-18592412D01*
X15166967Y-18578744D01*
X15185963Y-18568591D01*
X15206582Y-18562336D01*
X15234160Y-18559620D01*
X15692880Y-18559620D01*
X15720458Y-18562336D01*
G37*
G36*
X7482921Y-8715774D02*
G01*
X7583195Y-8757309D01*
X7583196Y-8757310D01*
X7673442Y-8817610D01*
X7750190Y-8894358D01*
X7750191Y-8894360D01*
X7810491Y-8984605D01*
X7852026Y-9084879D01*
X7873200Y-9191330D01*
X7873200Y-9299870D01*
X7852026Y-9406321D01*
X7810491Y-9506595D01*
X7796692Y-9527247D01*
X7750190Y-9596842D01*
X7673442Y-9673590D01*
X7628012Y-9703945D01*
X7583195Y-9733891D01*
X7507811Y-9765116D01*
X7486200Y-9776667D01*
X7467259Y-9792212D01*
X7451713Y-9811154D01*
X7440162Y-9832765D01*
X7433049Y-9856214D01*
X7430647Y-9880600D01*
X7433049Y-9904986D01*
X7440162Y-9928435D01*
X7451713Y-9950046D01*
X7467258Y-9968987D01*
X7486200Y-9984533D01*
X7507811Y-9996084D01*
X7583195Y-10027309D01*
X7617534Y-10050254D01*
X7673442Y-10087610D01*
X7750190Y-10164358D01*
X7750191Y-10164360D01*
X7810491Y-10254605D01*
X7852026Y-10354879D01*
X7873200Y-10461330D01*
X7873200Y-10569870D01*
X7852026Y-10676321D01*
X7810491Y-10776595D01*
X7797572Y-10795930D01*
X7750190Y-10866842D01*
X7673442Y-10943590D01*
X7636477Y-10968289D01*
X7583195Y-11003891D01*
X7507811Y-11035116D01*
X7486200Y-11046667D01*
X7467259Y-11062212D01*
X7451713Y-11081154D01*
X7440162Y-11102765D01*
X7433049Y-11126214D01*
X7430647Y-11150600D01*
X7433049Y-11174986D01*
X7440162Y-11198435D01*
X7451713Y-11220046D01*
X7467258Y-11238987D01*
X7486200Y-11254533D01*
X7507811Y-11266084D01*
X7583195Y-11297309D01*
X7583196Y-11297310D01*
X7673442Y-11357610D01*
X7750190Y-11434358D01*
X7760504Y-11449794D01*
X7810491Y-11524605D01*
X7852026Y-11624879D01*
X7873200Y-11731330D01*
X7873200Y-11839870D01*
X7852026Y-11946321D01*
X7810491Y-12046595D01*
X7809656Y-12047844D01*
X7750190Y-12136842D01*
X7673442Y-12213590D01*
X7667560Y-12217520D01*
X7583195Y-12273891D01*
X7507811Y-12305116D01*
X7486200Y-12316667D01*
X7467259Y-12332212D01*
X7451713Y-12351154D01*
X7440162Y-12372765D01*
X7433049Y-12396214D01*
X7430647Y-12420600D01*
X7433049Y-12444986D01*
X7440162Y-12468435D01*
X7451713Y-12490046D01*
X7467258Y-12508987D01*
X7486200Y-12524533D01*
X7507811Y-12536084D01*
X7583195Y-12567309D01*
X7603182Y-12580664D01*
X7673442Y-12627610D01*
X7750190Y-12704358D01*
X7771231Y-12735849D01*
X7810491Y-12794605D01*
X7852026Y-12894879D01*
X7873200Y-13001330D01*
X7873200Y-13109870D01*
X7852026Y-13216321D01*
X7810491Y-13316595D01*
X7794054Y-13341195D01*
X7750190Y-13406842D01*
X7673442Y-13483590D01*
X7671571Y-13484840D01*
X7583195Y-13543891D01*
X7507811Y-13575116D01*
X7486200Y-13586667D01*
X7467259Y-13602212D01*
X7451713Y-13621154D01*
X7440162Y-13642765D01*
X7433049Y-13666214D01*
X7430647Y-13690600D01*
X7433049Y-13714986D01*
X7440162Y-13738435D01*
X7451713Y-13760046D01*
X7467258Y-13778987D01*
X7486200Y-13794533D01*
X7507811Y-13806084D01*
X7583195Y-13837309D01*
X7616656Y-13859667D01*
X7673442Y-13897610D01*
X7750190Y-13974358D01*
X7759864Y-13988836D01*
X7810491Y-14064605D01*
X7852026Y-14164879D01*
X7873200Y-14271330D01*
X7873200Y-14379870D01*
X7852026Y-14486321D01*
X7810491Y-14586595D01*
X7810490Y-14586596D01*
X7750190Y-14676842D01*
X7673442Y-14753590D01*
X7658600Y-14763507D01*
X7583195Y-14813891D01*
X7507811Y-14845116D01*
X7486200Y-14856667D01*
X7467259Y-14872212D01*
X7451713Y-14891154D01*
X7440162Y-14912765D01*
X7433049Y-14936214D01*
X7430647Y-14960600D01*
X7433049Y-14984986D01*
X7440162Y-15008435D01*
X7451713Y-15030046D01*
X7467258Y-15048987D01*
X7486200Y-15064533D01*
X7507811Y-15076084D01*
X7583195Y-15107309D01*
X7583196Y-15107310D01*
X7673442Y-15167610D01*
X7750190Y-15244358D01*
X7773612Y-15279412D01*
X7810491Y-15334605D01*
X7852026Y-15434879D01*
X7873200Y-15541330D01*
X7873200Y-15649870D01*
X7852026Y-15756321D01*
X7810491Y-15856595D01*
X7796703Y-15877230D01*
X7750190Y-15946842D01*
X7673442Y-16023590D01*
X7628012Y-16053945D01*
X7583195Y-16083891D01*
X7507811Y-16115116D01*
X7486200Y-16126667D01*
X7467259Y-16142212D01*
X7451713Y-16161154D01*
X7440162Y-16182765D01*
X7433049Y-16206214D01*
X7430647Y-16230600D01*
X7433049Y-16254986D01*
X7440162Y-16278435D01*
X7451713Y-16300046D01*
X7467258Y-16318987D01*
X7486200Y-16334533D01*
X7507811Y-16346084D01*
X7583195Y-16377309D01*
X7604186Y-16391335D01*
X7673442Y-16437610D01*
X7750190Y-16514358D01*
X7750191Y-16514360D01*
X7810491Y-16604605D01*
X7852026Y-16704879D01*
X7873200Y-16811330D01*
X7873200Y-16919870D01*
X7852026Y-17026321D01*
X7810491Y-17126595D01*
X7796496Y-17147540D01*
X7750190Y-17216842D01*
X7673442Y-17293590D01*
X7652817Y-17307371D01*
X7580536Y-17355668D01*
X7561594Y-17371214D01*
X7546049Y-17390156D01*
X7534498Y-17411767D01*
X7527385Y-17435215D01*
X7524983Y-17459602D01*
X7527385Y-17483988D01*
X7534498Y-17507437D01*
X7546049Y-17529047D01*
X7561595Y-17547989D01*
X7580537Y-17563534D01*
X7602148Y-17575085D01*
X7625596Y-17582198D01*
X7649982Y-17584600D01*
X7873200Y-17584600D01*
X7873200Y-18686600D01*
X6771200Y-18686600D01*
X6771200Y-17584600D01*
X6994418Y-17584600D01*
X7018804Y-17582198D01*
X7042253Y-17575085D01*
X7063864Y-17563534D01*
X7082806Y-17547989D01*
X7098351Y-17529047D01*
X7109902Y-17507436D01*
X7117015Y-17483987D01*
X7119417Y-17459601D01*
X7117015Y-17435215D01*
X7109902Y-17411766D01*
X7098351Y-17390155D01*
X7082806Y-17371213D01*
X7063864Y-17355668D01*
X6991583Y-17307371D01*
X6970958Y-17293590D01*
X6894210Y-17216842D01*
X6847904Y-17147540D01*
X6833909Y-17126595D01*
X6792374Y-17026321D01*
X6771200Y-16919870D01*
X6771200Y-16811330D01*
X6792374Y-16704879D01*
X6833909Y-16604605D01*
X6894209Y-16514360D01*
X6894210Y-16514358D01*
X6970958Y-16437610D01*
X7040214Y-16391335D01*
X7061205Y-16377309D01*
X7136589Y-16346084D01*
X7158200Y-16334533D01*
X7177141Y-16318988D01*
X7192687Y-16300046D01*
X7204238Y-16278435D01*
X7211351Y-16254986D01*
X7213753Y-16230600D01*
X7211351Y-16206214D01*
X7204238Y-16182765D01*
X7192687Y-16161154D01*
X7177142Y-16142213D01*
X7158200Y-16126667D01*
X7136589Y-16115116D01*
X7061205Y-16083891D01*
X7016388Y-16053945D01*
X6970958Y-16023590D01*
X6894210Y-15946842D01*
X6847697Y-15877230D01*
X6833909Y-15856595D01*
X6792374Y-15756321D01*
X6771200Y-15649870D01*
X6771200Y-15541330D01*
X6792374Y-15434879D01*
X6833909Y-15334605D01*
X6870788Y-15279412D01*
X6894210Y-15244358D01*
X6970958Y-15167610D01*
X7061204Y-15107310D01*
X7061205Y-15107309D01*
X7136589Y-15076084D01*
X7158200Y-15064533D01*
X7177141Y-15048988D01*
X7192687Y-15030046D01*
X7204238Y-15008435D01*
X7211351Y-14984986D01*
X7213753Y-14960600D01*
X7211351Y-14936214D01*
X7204238Y-14912765D01*
X7192687Y-14891154D01*
X7177142Y-14872213D01*
X7158200Y-14856667D01*
X7136589Y-14845116D01*
X7061205Y-14813891D01*
X6985800Y-14763507D01*
X6970958Y-14753590D01*
X6894210Y-14676842D01*
X6833910Y-14586596D01*
X6833909Y-14586595D01*
X6792374Y-14486321D01*
X6771200Y-14379870D01*
X6771200Y-14271330D01*
X6792374Y-14164879D01*
X6833909Y-14064605D01*
X6884536Y-13988836D01*
X6894210Y-13974358D01*
X6970958Y-13897610D01*
X7027744Y-13859667D01*
X7061205Y-13837309D01*
X7136589Y-13806084D01*
X7158200Y-13794533D01*
X7177141Y-13778988D01*
X7192687Y-13760046D01*
X7204238Y-13738435D01*
X7211351Y-13714986D01*
X7213753Y-13690600D01*
X7211351Y-13666214D01*
X7204238Y-13642765D01*
X7192687Y-13621154D01*
X7177142Y-13602213D01*
X7158200Y-13586667D01*
X7136589Y-13575116D01*
X7061205Y-13543891D01*
X6972829Y-13484840D01*
X6970958Y-13483590D01*
X6894210Y-13406842D01*
X6850346Y-13341195D01*
X6833909Y-13316595D01*
X6792374Y-13216321D01*
X6771200Y-13109870D01*
X6771200Y-13001330D01*
X6792374Y-12894879D01*
X6833909Y-12794605D01*
X6873169Y-12735849D01*
X6894210Y-12704358D01*
X6970958Y-12627610D01*
X7041218Y-12580664D01*
X7061205Y-12567309D01*
X7136589Y-12536084D01*
X7158200Y-12524533D01*
X7177141Y-12508988D01*
X7192687Y-12490046D01*
X7204238Y-12468435D01*
X7211351Y-12444986D01*
X7213753Y-12420600D01*
X7211351Y-12396214D01*
X7204238Y-12372765D01*
X7192687Y-12351154D01*
X7177142Y-12332213D01*
X7158200Y-12316667D01*
X7136589Y-12305116D01*
X7061205Y-12273891D01*
X6976840Y-12217520D01*
X6970958Y-12213590D01*
X6894210Y-12136842D01*
X6834744Y-12047844D01*
X6833909Y-12046595D01*
X6792374Y-11946321D01*
X6771200Y-11839870D01*
X6771200Y-11731330D01*
X6792374Y-11624879D01*
X6833909Y-11524605D01*
X6883896Y-11449794D01*
X6894210Y-11434358D01*
X6970958Y-11357610D01*
X7061204Y-11297310D01*
X7061205Y-11297309D01*
X7136589Y-11266084D01*
X7158200Y-11254533D01*
X7177141Y-11238988D01*
X7192687Y-11220046D01*
X7204238Y-11198435D01*
X7211351Y-11174986D01*
X7213753Y-11150600D01*
X7211351Y-11126214D01*
X7204238Y-11102765D01*
X7192687Y-11081154D01*
X7177142Y-11062213D01*
X7158200Y-11046667D01*
X7136589Y-11035116D01*
X7061205Y-11003891D01*
X7007923Y-10968289D01*
X6970958Y-10943590D01*
X6894210Y-10866842D01*
X6846828Y-10795930D01*
X6833909Y-10776595D01*
X6792374Y-10676321D01*
X6771200Y-10569870D01*
X6771200Y-10461330D01*
X6792374Y-10354879D01*
X6833909Y-10254605D01*
X6894209Y-10164360D01*
X6894210Y-10164358D01*
X6970958Y-10087610D01*
X7026866Y-10050254D01*
X7061205Y-10027309D01*
X7136589Y-9996084D01*
X7158200Y-9984533D01*
X7177141Y-9968988D01*
X7192687Y-9950046D01*
X7204238Y-9928435D01*
X7211351Y-9904986D01*
X7213753Y-9880600D01*
X7211351Y-9856214D01*
X7204238Y-9832765D01*
X7192687Y-9811154D01*
X7177142Y-9792213D01*
X7158200Y-9776667D01*
X7136589Y-9765116D01*
X7061205Y-9733891D01*
X7016388Y-9703945D01*
X6970958Y-9673590D01*
X6894210Y-9596842D01*
X6847708Y-9527247D01*
X6833909Y-9506595D01*
X6792374Y-9406321D01*
X6771200Y-9299870D01*
X6771200Y-9191330D01*
X6792374Y-9084879D01*
X6833909Y-8984605D01*
X6894209Y-8894360D01*
X6894210Y-8894358D01*
X6970958Y-8817610D01*
X7061204Y-8757310D01*
X7061205Y-8757309D01*
X7161479Y-8715774D01*
X7267930Y-8694600D01*
X7376470Y-8694600D01*
X7482921Y-8715774D01*
G37*
G36*
X11952955Y-14366643D02*
G01*
X11957629Y-14368061D01*
X11961930Y-14370360D01*
X11968302Y-14375589D01*
X11988676Y-14389203D01*
X12011315Y-14398580D01*
X12035349Y-14403360D01*
X12059853Y-14403360D01*
X12083886Y-14398579D01*
X12106525Y-14389202D01*
X12126898Y-14375589D01*
X12133270Y-14370360D01*
X12137571Y-14368061D01*
X12142245Y-14366643D01*
X12153241Y-14365560D01*
X12441959Y-14365560D01*
X12452955Y-14366643D01*
X12457629Y-14368061D01*
X12461930Y-14370360D01*
X12468302Y-14375589D01*
X12488676Y-14389203D01*
X12511315Y-14398580D01*
X12535349Y-14403360D01*
X12559853Y-14403360D01*
X12583886Y-14398579D01*
X12606525Y-14389202D01*
X12626898Y-14375589D01*
X12633270Y-14370360D01*
X12637571Y-14368061D01*
X12642245Y-14366643D01*
X12653241Y-14365560D01*
X12941959Y-14365560D01*
X12952955Y-14366643D01*
X12957629Y-14368061D01*
X12961930Y-14370360D01*
X12968302Y-14375589D01*
X12988676Y-14389203D01*
X13011315Y-14398580D01*
X13035349Y-14403360D01*
X13059853Y-14403360D01*
X13083886Y-14398579D01*
X13106525Y-14389202D01*
X13126898Y-14375589D01*
X13133270Y-14370360D01*
X13137571Y-14368061D01*
X13142245Y-14366643D01*
X13153241Y-14365560D01*
X13441959Y-14365560D01*
X13452955Y-14366643D01*
X13457629Y-14368061D01*
X13461931Y-14370360D01*
X13465704Y-14373456D01*
X13468800Y-14377229D01*
X13471099Y-14381531D01*
X13472517Y-14386205D01*
X13473600Y-14397201D01*
X13473600Y-15210917D01*
X13471634Y-15230875D01*
X13471634Y-15255379D01*
X13476414Y-15279412D01*
X13485791Y-15302051D01*
X13499404Y-15322426D01*
X13516731Y-15339753D01*
X13537105Y-15353367D01*
X13559744Y-15362745D01*
X13583777Y-15367526D01*
X13608285Y-15367526D01*
X13628243Y-15365560D01*
X14441959Y-15365560D01*
X14452955Y-15366643D01*
X14457629Y-15368061D01*
X14461931Y-15370360D01*
X14465704Y-15373456D01*
X14468800Y-15377229D01*
X14471099Y-15381531D01*
X14472517Y-15386205D01*
X14473600Y-15397201D01*
X14473600Y-15685919D01*
X14472517Y-15696915D01*
X14471099Y-15701589D01*
X14468800Y-15705890D01*
X14463571Y-15712262D01*
X14449957Y-15732636D01*
X14440580Y-15755275D01*
X14435800Y-15779309D01*
X14435800Y-15803813D01*
X14440581Y-15827846D01*
X14449958Y-15850485D01*
X14463571Y-15870858D01*
X14468800Y-15877230D01*
X14471099Y-15881531D01*
X14472517Y-15886205D01*
X14473600Y-15897201D01*
X14473600Y-16185919D01*
X14472517Y-16196915D01*
X14471099Y-16201589D01*
X14468800Y-16205890D01*
X14463571Y-16212262D01*
X14449957Y-16232636D01*
X14440580Y-16255275D01*
X14435800Y-16279309D01*
X14435800Y-16303813D01*
X14440581Y-16327846D01*
X14449958Y-16350485D01*
X14463571Y-16370858D01*
X14468800Y-16377230D01*
X14471099Y-16381531D01*
X14472517Y-16386205D01*
X14473600Y-16397201D01*
X14473600Y-16685919D01*
X14472517Y-16696915D01*
X14471099Y-16701589D01*
X14468800Y-16705890D01*
X14463571Y-16712262D01*
X14449957Y-16732636D01*
X14440580Y-16755275D01*
X14435800Y-16779309D01*
X14435800Y-16803813D01*
X14440581Y-16827846D01*
X14449958Y-16850485D01*
X14463571Y-16870858D01*
X14468800Y-16877230D01*
X14471099Y-16881531D01*
X14472517Y-16886205D01*
X14473600Y-16897201D01*
X14473600Y-17185919D01*
X14472517Y-17196915D01*
X14471099Y-17201589D01*
X14468800Y-17205891D01*
X14465704Y-17209664D01*
X14461931Y-17212760D01*
X14457629Y-17215059D01*
X14452955Y-17216477D01*
X14441959Y-17217560D01*
X13628243Y-17217560D01*
X13608285Y-17215594D01*
X13583781Y-17215594D01*
X13559748Y-17220374D01*
X13537109Y-17229751D01*
X13516734Y-17243364D01*
X13499407Y-17260691D01*
X13485793Y-17281065D01*
X13476415Y-17303704D01*
X13471634Y-17327737D01*
X13471634Y-17352245D01*
X13473600Y-17372203D01*
X13473600Y-18185919D01*
X13472517Y-18196915D01*
X13471099Y-18201589D01*
X13468800Y-18205891D01*
X13465704Y-18209664D01*
X13461931Y-18212760D01*
X13457629Y-18215059D01*
X13452955Y-18216477D01*
X13441959Y-18217560D01*
X13153241Y-18217560D01*
X13142245Y-18216477D01*
X13137571Y-18215059D01*
X13133270Y-18212760D01*
X13126898Y-18207531D01*
X13106524Y-18193917D01*
X13083885Y-18184540D01*
X13059851Y-18179760D01*
X13035347Y-18179760D01*
X13011314Y-18184541D01*
X12988675Y-18193918D01*
X12968302Y-18207531D01*
X12961930Y-18212760D01*
X12957629Y-18215059D01*
X12952955Y-18216477D01*
X12941959Y-18217560D01*
X12653241Y-18217560D01*
X12642245Y-18216477D01*
X12637571Y-18215059D01*
X12633270Y-18212760D01*
X12626898Y-18207531D01*
X12606524Y-18193917D01*
X12583885Y-18184540D01*
X12559851Y-18179760D01*
X12535347Y-18179760D01*
X12511314Y-18184541D01*
X12488675Y-18193918D01*
X12468302Y-18207531D01*
X12461930Y-18212760D01*
X12457629Y-18215059D01*
X12452955Y-18216477D01*
X12441959Y-18217560D01*
X12153241Y-18217560D01*
X12142245Y-18216477D01*
X12137571Y-18215059D01*
X12133270Y-18212760D01*
X12126898Y-18207531D01*
X12106524Y-18193917D01*
X12083885Y-18184540D01*
X12059851Y-18179760D01*
X12035347Y-18179760D01*
X12011314Y-18184541D01*
X11988675Y-18193918D01*
X11968302Y-18207531D01*
X11961930Y-18212760D01*
X11957629Y-18215059D01*
X11952955Y-18216477D01*
X11941959Y-18217560D01*
X11653241Y-18217560D01*
X11642245Y-18216477D01*
X11637571Y-18215059D01*
X11633269Y-18212760D01*
X11629496Y-18209664D01*
X11626400Y-18205891D01*
X11624101Y-18201589D01*
X11622683Y-18196915D01*
X11621600Y-18185919D01*
X11621600Y-17372203D01*
X11623566Y-17352245D01*
X11623566Y-17327741D01*
X11618786Y-17303708D01*
X11609409Y-17281069D01*
X11595796Y-17260694D01*
X11578469Y-17243367D01*
X11558095Y-17229753D01*
X11535456Y-17220375D01*
X11511423Y-17215594D01*
X11486915Y-17215594D01*
X11466957Y-17217560D01*
X10653241Y-17217560D01*
X10642245Y-17216477D01*
X10637571Y-17215059D01*
X10633269Y-17212760D01*
X10629496Y-17209664D01*
X10626400Y-17205891D01*
X10624101Y-17201589D01*
X10622683Y-17196915D01*
X10621600Y-17185919D01*
X10621600Y-16897201D01*
X10622683Y-16886205D01*
X10624101Y-16881531D01*
X10626400Y-16877230D01*
X10631629Y-16870858D01*
X10645243Y-16850484D01*
X10654620Y-16827845D01*
X10659400Y-16803811D01*
X10659400Y-16779307D01*
X10654619Y-16755274D01*
X10645242Y-16732635D01*
X10631629Y-16712262D01*
X10626400Y-16705890D01*
X10624101Y-16701589D01*
X10622683Y-16696915D01*
X10621600Y-16685919D01*
X10621600Y-16397201D01*
X10622683Y-16386205D01*
X10624101Y-16381531D01*
X10626400Y-16377230D01*
X10631629Y-16370858D01*
X10645243Y-16350484D01*
X10654620Y-16327845D01*
X10659400Y-16303811D01*
X10659400Y-16279307D01*
X10654619Y-16255274D01*
X10645242Y-16232635D01*
X10631629Y-16212262D01*
X10626400Y-16205890D01*
X10624101Y-16201589D01*
X10622683Y-16196915D01*
X10621600Y-16185919D01*
X10621600Y-15897201D01*
X10622683Y-15886205D01*
X10624101Y-15881531D01*
X10626400Y-15877230D01*
X10631629Y-15870858D01*
X10645243Y-15850484D01*
X10654620Y-15827845D01*
X10659400Y-15803811D01*
X10659400Y-15779307D01*
X10654619Y-15755274D01*
X10645242Y-15732635D01*
X10631629Y-15712262D01*
X10626400Y-15705890D01*
X10624101Y-15701589D01*
X10622683Y-15696915D01*
X10621600Y-15685919D01*
X10621600Y-15397201D01*
X10622683Y-15386205D01*
X10624101Y-15381531D01*
X10626400Y-15377229D01*
X10629496Y-15373456D01*
X10633269Y-15370360D01*
X10637571Y-15368061D01*
X10642245Y-15366643D01*
X10653241Y-15365560D01*
X11466957Y-15365560D01*
X11486915Y-15367526D01*
X11511419Y-15367526D01*
X11535452Y-15362746D01*
X11558091Y-15353369D01*
X11578466Y-15339756D01*
X11595793Y-15322429D01*
X11609407Y-15302055D01*
X11618785Y-15279416D01*
X11623566Y-15255383D01*
X11623566Y-15230875D01*
X11621600Y-15210917D01*
X11621600Y-14397201D01*
X11622683Y-14386205D01*
X11624101Y-14381531D01*
X11626400Y-14377229D01*
X11629496Y-14373456D01*
X11633269Y-14370360D01*
X11637571Y-14368061D01*
X11642245Y-14366643D01*
X11653241Y-14365560D01*
X11941959Y-14365560D01*
X11952955Y-14366643D01*
G37*
G36*
X15506698Y-16654256D02*
G01*
X15527317Y-16660511D01*
X15546313Y-16670664D01*
X15562968Y-16684332D01*
X15576636Y-16700987D01*
X15586789Y-16719983D01*
X15593044Y-16740602D01*
X15595760Y-16768180D01*
X15595760Y-17226900D01*
X15593044Y-17254478D01*
X15586789Y-17275097D01*
X15576636Y-17294093D01*
X15562968Y-17310748D01*
X15546313Y-17324416D01*
X15527317Y-17334569D01*
X15506698Y-17340824D01*
X15479120Y-17343540D01*
X14970400Y-17343540D01*
X14942822Y-17340824D01*
X14922203Y-17334569D01*
X14903207Y-17324416D01*
X14886552Y-17310748D01*
X14872884Y-17294093D01*
X14862731Y-17275097D01*
X14856476Y-17254478D01*
X14853760Y-17226900D01*
X14853760Y-16768180D01*
X14856476Y-16740602D01*
X14862731Y-16719983D01*
X14872884Y-16700987D01*
X14886552Y-16684332D01*
X14903207Y-16670664D01*
X14922203Y-16660511D01*
X14942822Y-16654256D01*
X14970400Y-16651540D01*
X15479120Y-16651540D01*
X15506698Y-16654256D01*
G37*
G36*
X2402838Y-16616296D02*
G01*
X2423457Y-16622551D01*
X2442453Y-16632704D01*
X2459108Y-16646372D01*
X2472776Y-16663027D01*
X2482929Y-16682023D01*
X2489184Y-16702642D01*
X2491900Y-16730220D01*
X2491900Y-17188940D01*
X2489184Y-17216518D01*
X2482929Y-17237137D01*
X2472776Y-17256133D01*
X2459108Y-17272788D01*
X2442453Y-17286456D01*
X2423457Y-17296609D01*
X2402838Y-17302864D01*
X2375260Y-17305580D01*
X1866540Y-17305580D01*
X1838962Y-17302864D01*
X1818343Y-17296609D01*
X1799347Y-17286456D01*
X1782692Y-17272788D01*
X1769026Y-17256135D01*
X1753426Y-17226950D01*
X1739812Y-17206575D01*
X1722484Y-17189248D01*
X1702110Y-17175635D01*
X1679471Y-17166258D01*
X1655437Y-17161478D01*
X1630933Y-17161478D01*
X1606900Y-17166259D01*
X1584262Y-17175636D01*
X1563887Y-17189250D01*
X1546560Y-17206578D01*
X1532947Y-17226952D01*
X1523571Y-17249589D01*
X1522811Y-17252094D01*
X1512656Y-17271093D01*
X1498988Y-17287748D01*
X1482333Y-17301416D01*
X1463337Y-17311569D01*
X1442718Y-17317824D01*
X1415140Y-17320540D01*
X906420Y-17320540D01*
X878842Y-17317824D01*
X858223Y-17311569D01*
X839227Y-17301416D01*
X822572Y-17287748D01*
X808904Y-17271093D01*
X798751Y-17252097D01*
X792496Y-17231478D01*
X789780Y-17203900D01*
X789780Y-16745180D01*
X792496Y-16717602D01*
X798751Y-16696983D01*
X808904Y-16677987D01*
X822572Y-16661332D01*
X839227Y-16647664D01*
X858223Y-16637511D01*
X878842Y-16631256D01*
X906420Y-16628540D01*
X1415140Y-16628540D01*
X1442718Y-16631256D01*
X1463337Y-16637511D01*
X1482333Y-16647664D01*
X1498988Y-16661332D01*
X1512654Y-16677985D01*
X1528254Y-16707170D01*
X1541868Y-16727545D01*
X1559196Y-16744872D01*
X1579570Y-16758485D01*
X1602209Y-16767862D01*
X1626243Y-16772642D01*
X1650747Y-16772642D01*
X1674780Y-16767861D01*
X1697418Y-16758484D01*
X1717793Y-16744870D01*
X1735120Y-16727542D01*
X1748733Y-16707168D01*
X1758109Y-16684531D01*
X1758869Y-16682026D01*
X1769024Y-16663027D01*
X1782692Y-16646372D01*
X1799347Y-16632704D01*
X1818343Y-16622551D01*
X1838962Y-16616296D01*
X1866540Y-16613580D01*
X2375260Y-16613580D01*
X2402838Y-16616296D01*
G37*
G36*
X15506698Y-15684256D02*
G01*
X15527317Y-15690511D01*
X15546313Y-15700664D01*
X15562968Y-15714332D01*
X15576636Y-15730987D01*
X15586789Y-15749983D01*
X15593044Y-15770602D01*
X15595760Y-15798180D01*
X15595760Y-16256900D01*
X15593044Y-16284478D01*
X15586789Y-16305097D01*
X15576636Y-16324093D01*
X15562968Y-16340748D01*
X15546313Y-16354416D01*
X15527317Y-16364569D01*
X15506698Y-16370824D01*
X15479120Y-16373540D01*
X14970400Y-16373540D01*
X14942822Y-16370824D01*
X14922203Y-16364569D01*
X14903207Y-16354416D01*
X14886552Y-16340748D01*
X14872884Y-16324093D01*
X14862731Y-16305097D01*
X14856476Y-16284478D01*
X14853760Y-16256900D01*
X14853760Y-15798180D01*
X14856476Y-15770602D01*
X14862731Y-15749983D01*
X14872884Y-15730987D01*
X14886552Y-15714332D01*
X14903207Y-15700664D01*
X14922203Y-15690511D01*
X14942822Y-15684256D01*
X14970400Y-15681540D01*
X15479120Y-15681540D01*
X15506698Y-15684256D01*
G37*
G36*
X2402838Y-15646296D02*
G01*
X2423457Y-15652551D01*
X2442453Y-15662704D01*
X2459108Y-15676372D01*
X2472776Y-15693027D01*
X2482929Y-15712023D01*
X2489184Y-15732642D01*
X2491900Y-15760220D01*
X2491900Y-16218940D01*
X2489184Y-16246518D01*
X2482929Y-16267137D01*
X2472776Y-16286133D01*
X2459108Y-16302788D01*
X2442453Y-16316456D01*
X2423457Y-16326609D01*
X2402838Y-16332864D01*
X2375260Y-16335580D01*
X1866540Y-16335580D01*
X1838962Y-16332864D01*
X1818343Y-16326609D01*
X1799347Y-16316456D01*
X1782692Y-16302788D01*
X1769026Y-16286135D01*
X1753426Y-16256950D01*
X1739812Y-16236575D01*
X1722484Y-16219248D01*
X1702110Y-16205635D01*
X1679471Y-16196258D01*
X1655437Y-16191478D01*
X1630933Y-16191478D01*
X1606900Y-16196259D01*
X1584262Y-16205636D01*
X1563887Y-16219250D01*
X1546560Y-16236578D01*
X1532947Y-16256952D01*
X1523571Y-16279589D01*
X1522811Y-16282094D01*
X1512656Y-16301093D01*
X1498988Y-16317748D01*
X1482333Y-16331416D01*
X1463337Y-16341569D01*
X1442718Y-16347824D01*
X1415140Y-16350540D01*
X906420Y-16350540D01*
X878842Y-16347824D01*
X858223Y-16341569D01*
X839227Y-16331416D01*
X822572Y-16317748D01*
X808904Y-16301093D01*
X798751Y-16282097D01*
X792496Y-16261478D01*
X789780Y-16233900D01*
X789780Y-15775180D01*
X792496Y-15747602D01*
X798751Y-15726983D01*
X808904Y-15707987D01*
X822572Y-15691332D01*
X839227Y-15677664D01*
X858223Y-15667511D01*
X878842Y-15661256D01*
X906420Y-15658540D01*
X1415140Y-15658540D01*
X1442718Y-15661256D01*
X1463337Y-15667511D01*
X1482333Y-15677664D01*
X1498988Y-15691332D01*
X1512654Y-15707985D01*
X1528254Y-15737170D01*
X1541868Y-15757545D01*
X1559196Y-15774872D01*
X1579570Y-15788485D01*
X1602209Y-15797862D01*
X1626243Y-15802642D01*
X1650747Y-15802642D01*
X1674780Y-15797861D01*
X1697418Y-15788484D01*
X1717793Y-15774870D01*
X1735120Y-15757542D01*
X1748733Y-15737168D01*
X1758109Y-15714531D01*
X1758869Y-15712026D01*
X1769024Y-15693027D01*
X1782692Y-15676372D01*
X1799347Y-15662704D01*
X1818343Y-15652551D01*
X1838962Y-15646296D01*
X1866540Y-15643580D01*
X2375260Y-15643580D01*
X2402838Y-15646296D01*
G37*
G36*
X3800378Y-14716776D02*
G01*
X3820997Y-14723031D01*
X3839993Y-14733184D01*
X3856648Y-14746852D01*
X3870316Y-14763507D01*
X3880469Y-14782503D01*
X3886724Y-14803122D01*
X3889440Y-14830700D01*
X3889440Y-15339420D01*
X3886724Y-15366998D01*
X3880469Y-15387617D01*
X3870316Y-15406613D01*
X3856648Y-15423268D01*
X3839993Y-15436936D01*
X3820997Y-15447089D01*
X3800378Y-15453344D01*
X3772800Y-15456060D01*
X3314080Y-15456060D01*
X3286502Y-15453344D01*
X3265883Y-15447089D01*
X3246887Y-15436936D01*
X3230232Y-15423268D01*
X3216564Y-15406613D01*
X3206411Y-15387617D01*
X3200156Y-15366998D01*
X3197440Y-15339420D01*
X3197440Y-14830700D01*
X3200156Y-14803122D01*
X3206411Y-14782503D01*
X3216564Y-14763507D01*
X3230232Y-14746852D01*
X3246887Y-14733184D01*
X3265883Y-14723031D01*
X3286502Y-14716776D01*
X3314080Y-14714060D01*
X3772800Y-14714060D01*
X3800378Y-14716776D01*
G37*
G36*
X4770378Y-14716776D02*
G01*
X4790997Y-14723031D01*
X4809993Y-14733184D01*
X4826648Y-14746852D01*
X4840316Y-14763507D01*
X4850469Y-14782503D01*
X4856724Y-14803122D01*
X4859440Y-14830700D01*
X4859440Y-15339420D01*
X4856724Y-15366998D01*
X4850469Y-15387617D01*
X4840316Y-15406613D01*
X4826648Y-15423268D01*
X4809993Y-15436936D01*
X4790997Y-15447089D01*
X4770378Y-15453344D01*
X4742800Y-15456060D01*
X4284080Y-15456060D01*
X4256502Y-15453344D01*
X4235883Y-15447089D01*
X4216887Y-15436936D01*
X4200232Y-15423268D01*
X4186564Y-15406613D01*
X4176411Y-15387617D01*
X4170156Y-15366998D01*
X4167440Y-15339420D01*
X4167440Y-14830700D01*
X4170156Y-14803122D01*
X4176411Y-14782503D01*
X4186564Y-14763507D01*
X4200232Y-14746852D01*
X4216887Y-14733184D01*
X4235883Y-14723031D01*
X4256502Y-14716776D01*
X4284080Y-14714060D01*
X4742800Y-14714060D01*
X4770378Y-14716776D01*
G37*
G36*
X15408038Y-12047236D02*
G01*
X15428657Y-12053491D01*
X15447653Y-12063644D01*
X15464308Y-12077312D01*
X15477976Y-12093967D01*
X15488129Y-12112963D01*
X15494384Y-12133582D01*
X15497100Y-12161160D01*
X15497100Y-12669880D01*
X15494384Y-12697458D01*
X15488129Y-12718077D01*
X15477976Y-12737073D01*
X15464308Y-12753728D01*
X15447653Y-12767396D01*
X15418050Y-12783219D01*
X15417235Y-12783558D01*
X15396878Y-12797198D01*
X15379574Y-12814548D01*
X15365986Y-12834940D01*
X15356639Y-12857591D01*
X15351889Y-12881630D01*
X15351921Y-12906134D01*
X15356733Y-12930161D01*
X15366139Y-12952788D01*
X15379779Y-12973145D01*
X15397129Y-12990449D01*
X15417376Y-13003960D01*
X15440177Y-13016148D01*
X15456828Y-13029812D01*
X15470496Y-13046467D01*
X15480649Y-13065463D01*
X15486904Y-13086082D01*
X15489620Y-13113660D01*
X15489620Y-13622380D01*
X15486904Y-13649958D01*
X15480649Y-13670577D01*
X15470496Y-13689573D01*
X15456828Y-13706228D01*
X15440173Y-13719896D01*
X15414294Y-13733729D01*
X15405990Y-13737169D01*
X15385617Y-13750785D01*
X15368292Y-13768114D01*
X15354680Y-13788489D01*
X15345305Y-13811129D01*
X15340527Y-13835163D01*
X15340529Y-13859667D01*
X15345312Y-13883700D01*
X15354691Y-13906338D01*
X15368307Y-13926711D01*
X15385636Y-13944036D01*
X15406011Y-13957648D01*
X15428643Y-13967021D01*
X15434019Y-13968652D01*
X15453013Y-13978804D01*
X15469668Y-13992472D01*
X15483336Y-14009127D01*
X15493489Y-14028123D01*
X15499744Y-14048742D01*
X15502460Y-14076320D01*
X15502460Y-14585040D01*
X15499744Y-14612618D01*
X15493489Y-14633237D01*
X15483336Y-14652233D01*
X15469668Y-14668888D01*
X15453013Y-14682556D01*
X15434017Y-14692709D01*
X15413398Y-14698964D01*
X15385820Y-14701680D01*
X14927100Y-14701680D01*
X14899522Y-14698964D01*
X14878903Y-14692709D01*
X14859907Y-14682556D01*
X14843252Y-14668888D01*
X14829584Y-14652233D01*
X14819431Y-14633237D01*
X14813176Y-14612618D01*
X14810460Y-14585040D01*
X14810460Y-14076320D01*
X14813176Y-14048742D01*
X14819431Y-14028123D01*
X14829584Y-14009127D01*
X14843252Y-13992472D01*
X14859907Y-13978804D01*
X14885786Y-13964971D01*
X14894090Y-13961531D01*
X14914463Y-13947915D01*
X14931788Y-13930586D01*
X14945400Y-13910211D01*
X14954775Y-13887571D01*
X14959553Y-13863537D01*
X14959551Y-13839033D01*
X14954768Y-13815000D01*
X14945389Y-13792362D01*
X14931773Y-13771989D01*
X14914444Y-13754664D01*
X14894069Y-13741052D01*
X14871437Y-13731679D01*
X14866061Y-13730048D01*
X14847067Y-13719896D01*
X14830412Y-13706228D01*
X14816744Y-13689573D01*
X14806591Y-13670577D01*
X14800336Y-13649958D01*
X14797620Y-13622380D01*
X14797620Y-13113660D01*
X14800336Y-13086082D01*
X14806591Y-13065463D01*
X14816744Y-13046467D01*
X14830412Y-13029812D01*
X14847067Y-13016144D01*
X14876670Y-13000321D01*
X14877485Y-12999982D01*
X14897842Y-12986342D01*
X14915146Y-12968992D01*
X14928734Y-12948600D01*
X14938081Y-12925949D01*
X14942831Y-12901910D01*
X14942799Y-12877406D01*
X14937987Y-12853379D01*
X14928581Y-12830752D01*
X14914941Y-12810395D01*
X14897591Y-12793091D01*
X14877344Y-12779580D01*
X14854543Y-12767392D01*
X14837892Y-12753728D01*
X14824224Y-12737073D01*
X14814071Y-12718077D01*
X14807816Y-12697458D01*
X14805100Y-12669880D01*
X14805100Y-12161160D01*
X14807816Y-12133582D01*
X14814071Y-12112963D01*
X14824224Y-12093967D01*
X14837892Y-12077312D01*
X14854547Y-12063644D01*
X14873543Y-12053491D01*
X14894162Y-12047236D01*
X14921740Y-12044520D01*
X15380460Y-12044520D01*
X15408038Y-12047236D01*
G37*
G36*
X16378038Y-12047236D02*
G01*
X16398657Y-12053491D01*
X16417653Y-12063644D01*
X16434308Y-12077312D01*
X16447976Y-12093967D01*
X16458129Y-12112963D01*
X16464384Y-12133582D01*
X16467100Y-12161160D01*
X16467100Y-12669880D01*
X16464384Y-12697458D01*
X16458129Y-12718077D01*
X16447976Y-12737073D01*
X16434308Y-12753728D01*
X16417653Y-12767396D01*
X16388050Y-12783219D01*
X16387235Y-12783558D01*
X16366878Y-12797198D01*
X16349574Y-12814548D01*
X16335986Y-12834940D01*
X16326639Y-12857591D01*
X16321889Y-12881630D01*
X16321921Y-12906134D01*
X16326733Y-12930161D01*
X16336139Y-12952788D01*
X16349779Y-12973145D01*
X16367129Y-12990449D01*
X16387376Y-13003960D01*
X16410177Y-13016148D01*
X16426828Y-13029812D01*
X16440496Y-13046467D01*
X16450649Y-13065463D01*
X16456904Y-13086082D01*
X16459620Y-13113660D01*
X16459620Y-13622380D01*
X16456904Y-13649958D01*
X16450649Y-13670577D01*
X16440496Y-13689573D01*
X16426828Y-13706228D01*
X16410173Y-13719896D01*
X16384294Y-13733729D01*
X16375990Y-13737169D01*
X16355617Y-13750785D01*
X16338292Y-13768114D01*
X16324680Y-13788489D01*
X16315305Y-13811129D01*
X16310527Y-13835163D01*
X16310529Y-13859667D01*
X16315312Y-13883700D01*
X16324691Y-13906338D01*
X16338307Y-13926711D01*
X16355636Y-13944036D01*
X16376011Y-13957648D01*
X16398643Y-13967021D01*
X16404019Y-13968652D01*
X16423013Y-13978804D01*
X16439668Y-13992472D01*
X16453336Y-14009127D01*
X16463489Y-14028123D01*
X16469744Y-14048742D01*
X16472460Y-14076320D01*
X16472460Y-14585040D01*
X16469744Y-14612618D01*
X16463489Y-14633237D01*
X16453336Y-14652233D01*
X16439668Y-14668888D01*
X16423013Y-14682556D01*
X16404017Y-14692709D01*
X16383398Y-14698964D01*
X16355820Y-14701680D01*
X15897100Y-14701680D01*
X15869522Y-14698964D01*
X15848903Y-14692709D01*
X15829907Y-14682556D01*
X15813252Y-14668888D01*
X15799584Y-14652233D01*
X15789431Y-14633237D01*
X15783176Y-14612618D01*
X15780460Y-14585040D01*
X15780460Y-14076320D01*
X15783176Y-14048742D01*
X15789431Y-14028123D01*
X15799584Y-14009127D01*
X15813252Y-13992472D01*
X15829907Y-13978804D01*
X15855786Y-13964971D01*
X15864090Y-13961531D01*
X15884463Y-13947915D01*
X15901788Y-13930586D01*
X15915400Y-13910211D01*
X15924775Y-13887571D01*
X15929553Y-13863537D01*
X15929551Y-13839033D01*
X15924768Y-13815000D01*
X15915389Y-13792362D01*
X15901773Y-13771989D01*
X15884444Y-13754664D01*
X15864069Y-13741052D01*
X15841437Y-13731679D01*
X15836061Y-13730048D01*
X15817067Y-13719896D01*
X15800412Y-13706228D01*
X15786744Y-13689573D01*
X15776591Y-13670577D01*
X15770336Y-13649958D01*
X15767620Y-13622380D01*
X15767620Y-13113660D01*
X15770336Y-13086082D01*
X15776591Y-13065463D01*
X15786744Y-13046467D01*
X15800412Y-13029812D01*
X15817067Y-13016144D01*
X15846670Y-13000321D01*
X15847485Y-12999982D01*
X15867842Y-12986342D01*
X15885146Y-12968992D01*
X15898734Y-12948600D01*
X15908081Y-12925949D01*
X15912831Y-12901910D01*
X15912799Y-12877406D01*
X15907987Y-12853379D01*
X15898581Y-12830752D01*
X15884941Y-12810395D01*
X15867591Y-12793091D01*
X15847344Y-12779580D01*
X15824543Y-12767392D01*
X15807892Y-12753728D01*
X15794224Y-12737073D01*
X15784071Y-12718077D01*
X15777816Y-12697458D01*
X15775100Y-12669880D01*
X15775100Y-12161160D01*
X15777816Y-12133582D01*
X15784071Y-12112963D01*
X15794224Y-12093967D01*
X15807892Y-12077312D01*
X15824547Y-12063644D01*
X15843543Y-12053491D01*
X15864162Y-12047236D01*
X15891740Y-12044520D01*
X16350460Y-12044520D01*
X16378038Y-12047236D01*
G37*
G36*
X1833595Y-10510923D02*
G01*
X1838269Y-10512341D01*
X1842570Y-10514640D01*
X1848942Y-10519869D01*
X1869316Y-10533483D01*
X1891955Y-10542860D01*
X1915989Y-10547640D01*
X1940493Y-10547640D01*
X1964526Y-10542859D01*
X1987165Y-10533482D01*
X2007538Y-10519869D01*
X2013910Y-10514640D01*
X2018211Y-10512341D01*
X2022885Y-10510923D01*
X2033881Y-10509840D01*
X2322599Y-10509840D01*
X2333595Y-10510923D01*
X2338269Y-10512341D01*
X2342570Y-10514640D01*
X2348942Y-10519869D01*
X2369316Y-10533483D01*
X2391955Y-10542860D01*
X2415989Y-10547640D01*
X2440493Y-10547640D01*
X2464526Y-10542859D01*
X2487165Y-10533482D01*
X2507538Y-10519869D01*
X2513910Y-10514640D01*
X2518211Y-10512341D01*
X2522885Y-10510923D01*
X2533881Y-10509840D01*
X2822599Y-10509840D01*
X2833595Y-10510923D01*
X2838269Y-10512341D01*
X2842570Y-10514640D01*
X2848942Y-10519869D01*
X2869316Y-10533483D01*
X2891955Y-10542860D01*
X2915989Y-10547640D01*
X2940493Y-10547640D01*
X2964526Y-10542859D01*
X2987165Y-10533482D01*
X3007538Y-10519869D01*
X3013910Y-10514640D01*
X3018211Y-10512341D01*
X3022885Y-10510923D01*
X3033881Y-10509840D01*
X3322599Y-10509840D01*
X3333595Y-10510923D01*
X3338269Y-10512341D01*
X3342571Y-10514640D01*
X3346344Y-10517736D01*
X3349440Y-10521509D01*
X3351739Y-10525811D01*
X3353157Y-10530485D01*
X3354240Y-10541481D01*
X3354240Y-11355197D01*
X3352274Y-11375155D01*
X3352274Y-11399659D01*
X3357054Y-11423692D01*
X3366431Y-11446331D01*
X3380044Y-11466706D01*
X3397371Y-11484033D01*
X3417745Y-11497647D01*
X3440384Y-11507025D01*
X3464417Y-11511806D01*
X3488925Y-11511806D01*
X3508883Y-11509840D01*
X4322599Y-11509840D01*
X4333595Y-11510923D01*
X4338269Y-11512341D01*
X4342571Y-11514640D01*
X4346344Y-11517736D01*
X4349440Y-11521509D01*
X4351739Y-11525811D01*
X4353157Y-11530485D01*
X4354240Y-11541481D01*
X4354240Y-11830199D01*
X4353157Y-11841195D01*
X4351739Y-11845869D01*
X4349440Y-11850170D01*
X4344211Y-11856542D01*
X4330597Y-11876916D01*
X4321220Y-11899555D01*
X4316440Y-11923589D01*
X4316440Y-11948093D01*
X4321221Y-11972126D01*
X4330598Y-11994765D01*
X4344211Y-12015138D01*
X4349440Y-12021510D01*
X4351739Y-12025811D01*
X4353157Y-12030485D01*
X4354240Y-12041481D01*
X4354240Y-12330199D01*
X4353157Y-12341195D01*
X4351739Y-12345869D01*
X4349440Y-12350170D01*
X4344211Y-12356542D01*
X4330597Y-12376916D01*
X4321220Y-12399555D01*
X4316440Y-12423589D01*
X4316440Y-12448093D01*
X4321221Y-12472126D01*
X4330598Y-12494765D01*
X4344211Y-12515138D01*
X4349440Y-12521510D01*
X4351739Y-12525811D01*
X4353157Y-12530485D01*
X4354240Y-12541481D01*
X4354240Y-12830199D01*
X4353157Y-12841195D01*
X4351739Y-12845869D01*
X4349440Y-12850170D01*
X4344211Y-12856542D01*
X4330597Y-12876916D01*
X4321220Y-12899555D01*
X4316440Y-12923589D01*
X4316440Y-12948093D01*
X4321221Y-12972126D01*
X4330598Y-12994765D01*
X4344211Y-13015138D01*
X4349440Y-13021510D01*
X4351739Y-13025811D01*
X4353157Y-13030485D01*
X4354240Y-13041481D01*
X4354240Y-13330199D01*
X4353157Y-13341195D01*
X4351739Y-13345869D01*
X4349440Y-13350171D01*
X4346344Y-13353944D01*
X4342571Y-13357040D01*
X4338269Y-13359339D01*
X4333595Y-13360757D01*
X4322599Y-13361840D01*
X3508883Y-13361840D01*
X3488925Y-13359874D01*
X3464421Y-13359874D01*
X3440388Y-13364654D01*
X3417749Y-13374031D01*
X3397374Y-13387644D01*
X3380047Y-13404971D01*
X3366433Y-13425345D01*
X3357055Y-13447984D01*
X3352274Y-13472017D01*
X3352274Y-13496525D01*
X3354240Y-13516483D01*
X3354240Y-14330199D01*
X3353157Y-14341195D01*
X3351739Y-14345869D01*
X3349440Y-14350171D01*
X3346344Y-14353944D01*
X3342571Y-14357040D01*
X3338269Y-14359339D01*
X3333595Y-14360757D01*
X3322599Y-14361840D01*
X3033881Y-14361840D01*
X3022885Y-14360757D01*
X3018211Y-14359339D01*
X3013910Y-14357040D01*
X3007538Y-14351811D01*
X2987164Y-14338197D01*
X2964525Y-14328820D01*
X2940491Y-14324040D01*
X2915987Y-14324040D01*
X2891954Y-14328821D01*
X2869315Y-14338198D01*
X2848942Y-14351811D01*
X2842570Y-14357040D01*
X2838269Y-14359339D01*
X2833595Y-14360757D01*
X2822599Y-14361840D01*
X2533881Y-14361840D01*
X2522885Y-14360757D01*
X2518211Y-14359339D01*
X2513910Y-14357040D01*
X2507538Y-14351811D01*
X2487164Y-14338197D01*
X2464525Y-14328820D01*
X2440491Y-14324040D01*
X2415987Y-14324040D01*
X2391954Y-14328821D01*
X2369315Y-14338198D01*
X2348942Y-14351811D01*
X2342570Y-14357040D01*
X2338269Y-14359339D01*
X2333595Y-14360757D01*
X2322599Y-14361840D01*
X2033881Y-14361840D01*
X2022885Y-14360757D01*
X2018211Y-14359339D01*
X2013910Y-14357040D01*
X2007538Y-14351811D01*
X1987164Y-14338197D01*
X1964525Y-14328820D01*
X1940491Y-14324040D01*
X1915987Y-14324040D01*
X1891954Y-14328821D01*
X1869315Y-14338198D01*
X1848942Y-14351811D01*
X1842570Y-14357040D01*
X1838269Y-14359339D01*
X1833595Y-14360757D01*
X1822599Y-14361840D01*
X1533881Y-14361840D01*
X1522885Y-14360757D01*
X1518211Y-14359339D01*
X1513909Y-14357040D01*
X1510136Y-14353944D01*
X1507040Y-14350171D01*
X1504741Y-14345869D01*
X1503323Y-14341195D01*
X1502240Y-14330199D01*
X1502240Y-13516483D01*
X1504206Y-13496525D01*
X1504206Y-13472021D01*
X1499426Y-13447988D01*
X1490049Y-13425349D01*
X1476436Y-13404974D01*
X1459109Y-13387647D01*
X1438735Y-13374033D01*
X1416096Y-13364655D01*
X1392063Y-13359874D01*
X1367555Y-13359874D01*
X1347597Y-13361840D01*
X533881Y-13361840D01*
X522885Y-13360757D01*
X518211Y-13359339D01*
X513909Y-13357040D01*
X510136Y-13353944D01*
X507040Y-13350171D01*
X504741Y-13345869D01*
X503323Y-13341195D01*
X502240Y-13330199D01*
X502240Y-13041481D01*
X503323Y-13030485D01*
X504741Y-13025811D01*
X507040Y-13021510D01*
X512269Y-13015138D01*
X525883Y-12994764D01*
X535260Y-12972125D01*
X540040Y-12948091D01*
X540040Y-12923587D01*
X535259Y-12899554D01*
X525882Y-12876915D01*
X512269Y-12856542D01*
X507040Y-12850170D01*
X504741Y-12845869D01*
X503323Y-12841195D01*
X502240Y-12830199D01*
X502240Y-12541481D01*
X503323Y-12530485D01*
X504741Y-12525811D01*
X507040Y-12521510D01*
X512269Y-12515138D01*
X525883Y-12494764D01*
X535260Y-12472125D01*
X540040Y-12448091D01*
X540040Y-12423587D01*
X535259Y-12399554D01*
X525882Y-12376915D01*
X512269Y-12356542D01*
X507040Y-12350170D01*
X504741Y-12345869D01*
X503323Y-12341195D01*
X502240Y-12330199D01*
X502240Y-12041481D01*
X503323Y-12030485D01*
X504741Y-12025811D01*
X507040Y-12021510D01*
X512269Y-12015138D01*
X525883Y-11994764D01*
X535260Y-11972125D01*
X540040Y-11948091D01*
X540040Y-11923587D01*
X535259Y-11899554D01*
X525882Y-11876915D01*
X512269Y-11856542D01*
X507040Y-11850170D01*
X504741Y-11845869D01*
X503323Y-11841195D01*
X502240Y-11830199D01*
X502240Y-11541481D01*
X503323Y-11530485D01*
X504741Y-11525811D01*
X507040Y-11521509D01*
X510136Y-11517736D01*
X513909Y-11514640D01*
X518211Y-11512341D01*
X522885Y-11510923D01*
X533881Y-11509840D01*
X1347597Y-11509840D01*
X1367555Y-11511806D01*
X1392059Y-11511806D01*
X1416092Y-11507026D01*
X1438731Y-11497649D01*
X1459106Y-11484036D01*
X1476433Y-11466709D01*
X1490047Y-11446335D01*
X1499425Y-11423696D01*
X1504206Y-11399663D01*
X1504206Y-11375155D01*
X1502240Y-11355197D01*
X1502240Y-10541481D01*
X1503323Y-10530485D01*
X1504741Y-10525811D01*
X1507040Y-10521509D01*
X1510136Y-10517736D01*
X1513909Y-10514640D01*
X1518211Y-10512341D01*
X1522885Y-10510923D01*
X1533881Y-10509840D01*
X1822599Y-10509840D01*
X1833595Y-10510923D01*
G37*
G36*
X11882378Y-13276596D02*
G01*
X11902997Y-13282851D01*
X11921993Y-13293004D01*
X11938648Y-13306672D01*
X11952316Y-13323327D01*
X11962469Y-13342323D01*
X11968724Y-13362942D01*
X11971440Y-13390520D01*
X11971440Y-13899240D01*
X11968724Y-13926818D01*
X11962469Y-13947437D01*
X11952316Y-13966433D01*
X11938648Y-13983088D01*
X11921993Y-13996756D01*
X11902997Y-14006909D01*
X11882378Y-14013164D01*
X11854800Y-14015880D01*
X11396080Y-14015880D01*
X11368502Y-14013164D01*
X11347883Y-14006909D01*
X11328887Y-13996756D01*
X11312232Y-13983088D01*
X11298564Y-13966433D01*
X11288411Y-13947437D01*
X11282156Y-13926818D01*
X11279440Y-13899240D01*
X11279440Y-13390520D01*
X11282156Y-13362942D01*
X11288411Y-13342323D01*
X11298564Y-13323327D01*
X11312232Y-13306672D01*
X11328887Y-13293004D01*
X11347883Y-13282851D01*
X11368502Y-13276596D01*
X11396080Y-13273880D01*
X11854800Y-13273880D01*
X11882378Y-13276596D01*
G37*
G36*
X10912378Y-13276596D02*
G01*
X10932997Y-13282851D01*
X10951993Y-13293004D01*
X10968648Y-13306672D01*
X10982316Y-13323327D01*
X10992469Y-13342323D01*
X10998724Y-13362942D01*
X11001440Y-13390520D01*
X11001440Y-13899240D01*
X10998724Y-13926818D01*
X10992469Y-13947437D01*
X10982316Y-13966433D01*
X10968648Y-13983088D01*
X10951993Y-13996756D01*
X10932997Y-14006909D01*
X10912378Y-14013164D01*
X10884800Y-14015880D01*
X10426080Y-14015880D01*
X10398502Y-14013164D01*
X10377883Y-14006909D01*
X10358887Y-13996756D01*
X10342232Y-13983088D01*
X10328564Y-13966433D01*
X10318411Y-13947437D01*
X10312156Y-13926818D01*
X10309440Y-13899240D01*
X10309440Y-13390520D01*
X10312156Y-13362942D01*
X10318411Y-13342323D01*
X10328564Y-13323327D01*
X10342232Y-13306672D01*
X10358887Y-13293004D01*
X10377883Y-13282851D01*
X10398502Y-13276596D01*
X10426080Y-13273880D01*
X10884800Y-13273880D01*
X10912378Y-13276596D01*
G37*
G36*
X40638Y-12811236D02*
G01*
X61257Y-12817491D01*
X80253Y-12827644D01*
X96908Y-12841312D01*
X110576Y-12857967D01*
X120729Y-12876963D01*
X126984Y-12897582D01*
X129700Y-12925160D01*
X129700Y-13383880D01*
X126984Y-13411458D01*
X120729Y-13432077D01*
X110576Y-13451073D01*
X96908Y-13467728D01*
X80253Y-13481396D01*
X61257Y-13491549D01*
X40638Y-13497804D01*
X13060Y-13500520D01*
X-495660Y-13500520D01*
X-523238Y-13497804D01*
X-543857Y-13491549D01*
X-562853Y-13481396D01*
X-579508Y-13467728D01*
X-593176Y-13451073D01*
X-603329Y-13432077D01*
X-609584Y-13411458D01*
X-612300Y-13383880D01*
X-612300Y-12925160D01*
X-609584Y-12897582D01*
X-603329Y-12876963D01*
X-593176Y-12857967D01*
X-579508Y-12841312D01*
X-562853Y-12827644D01*
X-543857Y-12817491D01*
X-523238Y-12811236D01*
X-495660Y-12808520D01*
X13060Y-12808520D01*
X40638Y-12811236D01*
G37*
G36*
X12187318Y-11948176D02*
G01*
X12207937Y-11954431D01*
X12226933Y-11964584D01*
X12243588Y-11978252D01*
X12257256Y-11994907D01*
X12267409Y-12013903D01*
X12273664Y-12034522D01*
X12276380Y-12062100D01*
X12276380Y-12570820D01*
X12273664Y-12598398D01*
X12267409Y-12619017D01*
X12257256Y-12638013D01*
X12243588Y-12654668D01*
X12226933Y-12668336D01*
X12207937Y-12678489D01*
X12187318Y-12684744D01*
X12159740Y-12687460D01*
X11701020Y-12687460D01*
X11673442Y-12684744D01*
X11652823Y-12678489D01*
X11633827Y-12668336D01*
X11617172Y-12654668D01*
X11603504Y-12638013D01*
X11593351Y-12619017D01*
X11587096Y-12598398D01*
X11584380Y-12570820D01*
X11584380Y-12062100D01*
X11587096Y-12034522D01*
X11593351Y-12013903D01*
X11603504Y-11994907D01*
X11617172Y-11978252D01*
X11633827Y-11964584D01*
X11652823Y-11954431D01*
X11673442Y-11948176D01*
X11701020Y-11945460D01*
X12159740Y-11945460D01*
X12187318Y-11948176D01*
G37*
G36*
X13157318Y-11948176D02*
G01*
X13177937Y-11954431D01*
X13196933Y-11964584D01*
X13213588Y-11978252D01*
X13227256Y-11994907D01*
X13237409Y-12013903D01*
X13243664Y-12034522D01*
X13246380Y-12062100D01*
X13246380Y-12570820D01*
X13243664Y-12598398D01*
X13237409Y-12619017D01*
X13227256Y-12638013D01*
X13213588Y-12654668D01*
X13196933Y-12668336D01*
X13177937Y-12678489D01*
X13157318Y-12684744D01*
X13129740Y-12687460D01*
X12671020Y-12687460D01*
X12643442Y-12684744D01*
X12622823Y-12678489D01*
X12603827Y-12668336D01*
X12587172Y-12654668D01*
X12573504Y-12638013D01*
X12563351Y-12619017D01*
X12557096Y-12598398D01*
X12554380Y-12570820D01*
X12554380Y-12062100D01*
X12557096Y-12034522D01*
X12563351Y-12013903D01*
X12573504Y-11994907D01*
X12587172Y-11978252D01*
X12603827Y-11964584D01*
X12622823Y-11954431D01*
X12643442Y-11948176D01*
X12671020Y-11945460D01*
X13129740Y-11945460D01*
X13157318Y-11948176D01*
G37*
G36*
X40638Y-11841236D02*
G01*
X61257Y-11847491D01*
X80253Y-11857644D01*
X96908Y-11871312D01*
X110576Y-11887967D01*
X120729Y-11906963D01*
X126984Y-11927582D01*
X129700Y-11955160D01*
X129700Y-12413880D01*
X126984Y-12441458D01*
X120729Y-12462077D01*
X110576Y-12481073D01*
X96908Y-12497728D01*
X80253Y-12511396D01*
X61257Y-12521549D01*
X40638Y-12527804D01*
X13060Y-12530520D01*
X-495660Y-12530520D01*
X-523238Y-12527804D01*
X-543857Y-12521549D01*
X-562853Y-12511396D01*
X-579508Y-12497728D01*
X-593176Y-12481073D01*
X-603329Y-12462077D01*
X-609584Y-12441458D01*
X-612300Y-12413880D01*
X-612300Y-11955160D01*
X-609584Y-11927582D01*
X-603329Y-11906963D01*
X-593176Y-11887967D01*
X-579508Y-11871312D01*
X-562853Y-11857644D01*
X-543857Y-11847491D01*
X-523238Y-11841236D01*
X-495660Y-11838520D01*
X13060Y-11838520D01*
X40638Y-11841236D01*
G37*
G36*
X15057518Y-10937256D02*
G01*
X15078137Y-10943511D01*
X15097133Y-10953664D01*
X15113788Y-10967332D01*
X15127456Y-10983987D01*
X15137609Y-11002983D01*
X15143864Y-11023602D01*
X15146580Y-11051180D01*
X15146580Y-11559900D01*
X15143864Y-11587478D01*
X15137609Y-11608097D01*
X15127456Y-11627093D01*
X15113788Y-11643748D01*
X15097133Y-11657416D01*
X15078137Y-11667569D01*
X15057518Y-11673824D01*
X15029940Y-11676540D01*
X14571220Y-11676540D01*
X14543642Y-11673824D01*
X14523023Y-11667569D01*
X14504027Y-11657416D01*
X14487372Y-11643748D01*
X14473704Y-11627093D01*
X14463551Y-11608097D01*
X14457296Y-11587478D01*
X14454580Y-11559900D01*
X14454580Y-11051180D01*
X14457296Y-11023602D01*
X14463551Y-11002983D01*
X14473704Y-10983987D01*
X14487372Y-10967332D01*
X14504027Y-10953664D01*
X14523023Y-10943511D01*
X14543642Y-10937256D01*
X14571220Y-10934540D01*
X15029940Y-10934540D01*
X15057518Y-10937256D01*
G37*
G36*
X14087518Y-10937256D02*
G01*
X14108137Y-10943511D01*
X14127133Y-10953664D01*
X14143788Y-10967332D01*
X14157456Y-10983987D01*
X14167609Y-11002983D01*
X14173864Y-11023602D01*
X14176580Y-11051180D01*
X14176580Y-11559900D01*
X14173864Y-11587478D01*
X14167609Y-11608097D01*
X14157456Y-11627093D01*
X14143788Y-11643748D01*
X14127133Y-11657416D01*
X14108137Y-11667569D01*
X14087518Y-11673824D01*
X14059940Y-11676540D01*
X13601220Y-11676540D01*
X13573642Y-11673824D01*
X13553023Y-11667569D01*
X13534027Y-11657416D01*
X13517372Y-11643748D01*
X13503704Y-11627093D01*
X13493551Y-11608097D01*
X13487296Y-11587478D01*
X13484580Y-11559900D01*
X13484580Y-11051180D01*
X13487296Y-11023602D01*
X13493551Y-11002983D01*
X13503704Y-10983987D01*
X13517372Y-10967332D01*
X13534027Y-10953664D01*
X13553023Y-10943511D01*
X13573642Y-10937256D01*
X13601220Y-10934540D01*
X14059940Y-10934540D01*
X14087518Y-10937256D01*
G37*
G36*
X-1424402Y-9850136D02*
G01*
X-1403783Y-9856391D01*
X-1384787Y-9866544D01*
X-1368132Y-9880212D01*
X-1354464Y-9896867D01*
X-1344311Y-9915863D01*
X-1338056Y-9936482D01*
X-1335340Y-9964060D01*
X-1335340Y-10472780D01*
X-1338056Y-10500358D01*
X-1344311Y-10520977D01*
X-1354464Y-10539973D01*
X-1368132Y-10556628D01*
X-1384785Y-10570294D01*
X-1394437Y-10575453D01*
X-1414811Y-10589067D01*
X-1432138Y-10606394D01*
X-1445752Y-10626769D01*
X-1455129Y-10649408D01*
X-1459909Y-10673441D01*
X-1459909Y-10697945D01*
X-1455128Y-10721978D01*
X-1445751Y-10744617D01*
X-1432137Y-10764991D01*
X-1414810Y-10782318D01*
X-1394439Y-10795930D01*
X-1379706Y-10803806D01*
X-1363052Y-10817472D01*
X-1349384Y-10834127D01*
X-1339231Y-10853123D01*
X-1332976Y-10873742D01*
X-1330260Y-10901320D01*
X-1330260Y-11410040D01*
X-1332976Y-11437618D01*
X-1339231Y-11458237D01*
X-1349384Y-11477233D01*
X-1363052Y-11493888D01*
X-1379707Y-11507556D01*
X-1398703Y-11517709D01*
X-1419322Y-11523964D01*
X-1446900Y-11526680D01*
X-1905620Y-11526680D01*
X-1933198Y-11523964D01*
X-1953817Y-11517709D01*
X-1972813Y-11507556D01*
X-1989468Y-11493888D01*
X-2003136Y-11477233D01*
X-2013289Y-11458237D01*
X-2019544Y-11437618D01*
X-2019737Y-11435657D01*
X-2024517Y-11411624D01*
X-2033894Y-11388985D01*
X-2047507Y-11368610D01*
X-2064834Y-11351283D01*
X-2085208Y-11337669D01*
X-2107847Y-11328291D01*
X-2131880Y-11323510D01*
X-2156384Y-11323510D01*
X-2180417Y-11328290D01*
X-2203056Y-11337667D01*
X-2223431Y-11351280D01*
X-2240758Y-11368607D01*
X-2254372Y-11388981D01*
X-2263750Y-11411620D01*
X-2267363Y-11429779D01*
X-2274491Y-11453277D01*
X-2284644Y-11472273D01*
X-2298312Y-11488928D01*
X-2314967Y-11502596D01*
X-2333963Y-11512749D01*
X-2354582Y-11519004D01*
X-2382160Y-11521720D01*
X-2890880Y-11521720D01*
X-2918458Y-11519004D01*
X-2939077Y-11512749D01*
X-2958073Y-11502596D01*
X-2974728Y-11488928D01*
X-2988396Y-11472273D01*
X-2998549Y-11453277D01*
X-3004804Y-11432658D01*
X-3007520Y-11405080D01*
X-3007520Y-10946360D01*
X-3004804Y-10918782D01*
X-2998549Y-10898163D01*
X-2988396Y-10879167D01*
X-2974728Y-10862512D01*
X-2958073Y-10848844D01*
X-2939077Y-10838691D01*
X-2918458Y-10832436D01*
X-2890880Y-10829720D01*
X-2382160Y-10829720D01*
X-2354582Y-10832436D01*
X-2333963Y-10838691D01*
X-2314967Y-10848844D01*
X-2298312Y-10862512D01*
X-2284644Y-10879167D01*
X-2274489Y-10898166D01*
X-2266265Y-10925276D01*
X-2256888Y-10947915D01*
X-2243274Y-10968289D01*
X-2225947Y-10985616D01*
X-2205572Y-10999230D01*
X-2182934Y-11008607D01*
X-2158900Y-11013387D01*
X-2134396Y-11013387D01*
X-2110363Y-11008606D01*
X-2087724Y-10999229D01*
X-2067350Y-10985615D01*
X-2050023Y-10968288D01*
X-2036409Y-10947913D01*
X-2027032Y-10925275D01*
X-2022252Y-10901241D01*
X-2019544Y-10873742D01*
X-2013289Y-10853123D01*
X-2003136Y-10834127D01*
X-1989468Y-10817472D01*
X-1972815Y-10803806D01*
X-1963163Y-10798647D01*
X-1942789Y-10785033D01*
X-1925462Y-10767706D01*
X-1911848Y-10747331D01*
X-1902471Y-10724692D01*
X-1897691Y-10700659D01*
X-1897691Y-10676155D01*
X-1902472Y-10652122D01*
X-1911849Y-10629483D01*
X-1925463Y-10609109D01*
X-1942790Y-10591782D01*
X-1963161Y-10578170D01*
X-1977894Y-10570294D01*
X-1994548Y-10556628D01*
X-2008216Y-10539973D01*
X-2018369Y-10520977D01*
X-2024624Y-10500358D01*
X-2025542Y-10491038D01*
X-2030323Y-10467005D01*
X-2039701Y-10444367D01*
X-2053315Y-10423993D01*
X-2070642Y-10406666D01*
X-2091017Y-10393053D01*
X-2113656Y-10383676D01*
X-2137689Y-10378896D01*
X-2162194Y-10378896D01*
X-2186227Y-10383677D01*
X-2208865Y-10393055D01*
X-2229239Y-10406669D01*
X-2246566Y-10423996D01*
X-2260179Y-10444371D01*
X-2269556Y-10467010D01*
X-2274490Y-10483275D01*
X-2284644Y-10502273D01*
X-2298312Y-10518928D01*
X-2314967Y-10532596D01*
X-2333963Y-10542749D01*
X-2354582Y-10549004D01*
X-2382160Y-10551720D01*
X-2890880Y-10551720D01*
X-2918458Y-10549004D01*
X-2939077Y-10542749D01*
X-2958073Y-10532596D01*
X-2974728Y-10518928D01*
X-2988396Y-10502273D01*
X-2998549Y-10483277D01*
X-3004804Y-10462658D01*
X-3007520Y-10435080D01*
X-3007520Y-9976360D01*
X-3004804Y-9948782D01*
X-2998549Y-9928163D01*
X-2988396Y-9909167D01*
X-2974728Y-9892512D01*
X-2958073Y-9878844D01*
X-2939077Y-9868691D01*
X-2918458Y-9862436D01*
X-2890880Y-9859720D01*
X-2382160Y-9859720D01*
X-2354582Y-9862436D01*
X-2333963Y-9868691D01*
X-2314967Y-9878844D01*
X-2298312Y-9892512D01*
X-2284644Y-9909167D01*
X-2274491Y-9928163D01*
X-2267667Y-9950658D01*
X-2258290Y-9973297D01*
X-2244676Y-9993671D01*
X-2227349Y-10010998D01*
X-2206975Y-10024612D01*
X-2184336Y-10033989D01*
X-2160303Y-10038770D01*
X-2135799Y-10038770D01*
X-2111765Y-10033990D01*
X-2089126Y-10024613D01*
X-2068752Y-10010999D01*
X-2051425Y-9993672D01*
X-2037811Y-9973298D01*
X-2028434Y-9950659D01*
X-2027500Y-9945962D01*
X-2018369Y-9915863D01*
X-2008216Y-9896867D01*
X-1994548Y-9880212D01*
X-1977893Y-9866544D01*
X-1958897Y-9856391D01*
X-1938278Y-9850136D01*
X-1910700Y-9847420D01*
X-1451980Y-9847420D01*
X-1424402Y-9850136D01*
G37*
G36*
X-454402Y-9850136D02*
G01*
X-433783Y-9856391D01*
X-414787Y-9866544D01*
X-398132Y-9880212D01*
X-384464Y-9896867D01*
X-374311Y-9915863D01*
X-368056Y-9936482D01*
X-365340Y-9964060D01*
X-365340Y-10472780D01*
X-368056Y-10500358D01*
X-374311Y-10520977D01*
X-384464Y-10539973D01*
X-398132Y-10556628D01*
X-414785Y-10570294D01*
X-424437Y-10575453D01*
X-444811Y-10589067D01*
X-462138Y-10606394D01*
X-475752Y-10626769D01*
X-485129Y-10649408D01*
X-489909Y-10673441D01*
X-489909Y-10697945D01*
X-485128Y-10721978D01*
X-475751Y-10744617D01*
X-462137Y-10764991D01*
X-444810Y-10782318D01*
X-424439Y-10795930D01*
X-409706Y-10803806D01*
X-393052Y-10817472D01*
X-379384Y-10834127D01*
X-369231Y-10853123D01*
X-362976Y-10873742D01*
X-360260Y-10901320D01*
X-360260Y-11410040D01*
X-362976Y-11437618D01*
X-369231Y-11458237D01*
X-379384Y-11477233D01*
X-393052Y-11493888D01*
X-409707Y-11507556D01*
X-428703Y-11517709D01*
X-449322Y-11523964D01*
X-476900Y-11526680D01*
X-935620Y-11526680D01*
X-963198Y-11523964D01*
X-983817Y-11517709D01*
X-1002813Y-11507556D01*
X-1019468Y-11493888D01*
X-1033136Y-11477233D01*
X-1043289Y-11458237D01*
X-1049544Y-11437618D01*
X-1052260Y-11410040D01*
X-1052260Y-10901320D01*
X-1049544Y-10873742D01*
X-1043289Y-10853123D01*
X-1033136Y-10834127D01*
X-1019468Y-10817472D01*
X-1002815Y-10803806D01*
X-993163Y-10798647D01*
X-972789Y-10785033D01*
X-955462Y-10767706D01*
X-941848Y-10747331D01*
X-932471Y-10724692D01*
X-927691Y-10700659D01*
X-927691Y-10676155D01*
X-932472Y-10652122D01*
X-941849Y-10629483D01*
X-955463Y-10609109D01*
X-972790Y-10591782D01*
X-993161Y-10578170D01*
X-1007894Y-10570294D01*
X-1024548Y-10556628D01*
X-1038216Y-10539973D01*
X-1048369Y-10520977D01*
X-1054624Y-10500358D01*
X-1057340Y-10472780D01*
X-1057340Y-9964060D01*
X-1054624Y-9936482D01*
X-1048369Y-9915863D01*
X-1038216Y-9896867D01*
X-1024548Y-9880212D01*
X-1007893Y-9866544D01*
X-988897Y-9856391D01*
X-968278Y-9850136D01*
X-940700Y-9847420D01*
X-481980Y-9847420D01*
X-454402Y-9850136D01*
G37*
G36*
X4757538Y-9387856D02*
G01*
X4778157Y-9394111D01*
X4797153Y-9404264D01*
X4813808Y-9417932D01*
X4827476Y-9434587D01*
X4837629Y-9453583D01*
X4843884Y-9474202D01*
X4846600Y-9501780D01*
X4846600Y-10010500D01*
X4843884Y-10038078D01*
X4837629Y-10058697D01*
X4827476Y-10077693D01*
X4813808Y-10094348D01*
X4797153Y-10108016D01*
X4778157Y-10118169D01*
X4757538Y-10124424D01*
X4729960Y-10127140D01*
X4271240Y-10127140D01*
X4243662Y-10124424D01*
X4223043Y-10118169D01*
X4204047Y-10108016D01*
X4187392Y-10094348D01*
X4173724Y-10077693D01*
X4163571Y-10058697D01*
X4157316Y-10038078D01*
X4154600Y-10010500D01*
X4154600Y-9501780D01*
X4157316Y-9474202D01*
X4163571Y-9453583D01*
X4173724Y-9434587D01*
X4187392Y-9417932D01*
X4204047Y-9404264D01*
X4223043Y-9394111D01*
X4243662Y-9387856D01*
X4271240Y-9385140D01*
X4729960Y-9385140D01*
X4757538Y-9387856D01*
G37*
G36*
X3787538Y-9387856D02*
G01*
X3808157Y-9394111D01*
X3827153Y-9404264D01*
X3843808Y-9417932D01*
X3857476Y-9434587D01*
X3867629Y-9453583D01*
X3873884Y-9474202D01*
X3876600Y-9501780D01*
X3876600Y-10010500D01*
X3873884Y-10038078D01*
X3867629Y-10058697D01*
X3857476Y-10077693D01*
X3843808Y-10094348D01*
X3827153Y-10108016D01*
X3808157Y-10118169D01*
X3787538Y-10124424D01*
X3759960Y-10127140D01*
X3301240Y-10127140D01*
X3273662Y-10124424D01*
X3253043Y-10118169D01*
X3234047Y-10108016D01*
X3217392Y-10094348D01*
X3203724Y-10077693D01*
X3193571Y-10058697D01*
X3187316Y-10038078D01*
X3184600Y-10010500D01*
X3184600Y-9501780D01*
X3187316Y-9474202D01*
X3193571Y-9453583D01*
X3203724Y-9434587D01*
X3217392Y-9417932D01*
X3234047Y-9404264D01*
X3253043Y-9394111D01*
X3273662Y-9387856D01*
X3301240Y-9385140D01*
X3759960Y-9385140D01*
X3787538Y-9387856D01*
G37*
G36*
X1526538Y-8963276D02*
G01*
X1547157Y-8969531D01*
X1566153Y-8979684D01*
X1582808Y-8993352D01*
X1596474Y-9010005D01*
X1605131Y-9026201D01*
X1618745Y-9046576D01*
X1636073Y-9063902D01*
X1656447Y-9077516D01*
X1679086Y-9086893D01*
X1703119Y-9091673D01*
X1727623Y-9091673D01*
X1751657Y-9086892D01*
X1774295Y-9077515D01*
X1794670Y-9063901D01*
X1811996Y-9046573D01*
X1825608Y-9026202D01*
X1831164Y-9015807D01*
X1844832Y-8999152D01*
X1861487Y-8985484D01*
X1880483Y-8975331D01*
X1901102Y-8969076D01*
X1928680Y-8966360D01*
X2437400Y-8966360D01*
X2464978Y-8969076D01*
X2485597Y-8975331D01*
X2504593Y-8985484D01*
X2521248Y-8999152D01*
X2534916Y-9015807D01*
X2545069Y-9034803D01*
X2551324Y-9055422D01*
X2554040Y-9083000D01*
X2554040Y-9541720D01*
X2551324Y-9569298D01*
X2545069Y-9589917D01*
X2534916Y-9608913D01*
X2521248Y-9625568D01*
X2504593Y-9639236D01*
X2485597Y-9649389D01*
X2464978Y-9655644D01*
X2437400Y-9658360D01*
X1928680Y-9658360D01*
X1901102Y-9655644D01*
X1880483Y-9649389D01*
X1861487Y-9639236D01*
X1844832Y-9625568D01*
X1831166Y-9608915D01*
X1822509Y-9592719D01*
X1808895Y-9572344D01*
X1791567Y-9555018D01*
X1771193Y-9541404D01*
X1748554Y-9532027D01*
X1724521Y-9527247D01*
X1700017Y-9527247D01*
X1675983Y-9532028D01*
X1653345Y-9541405D01*
X1632970Y-9555019D01*
X1615644Y-9572347D01*
X1602032Y-9592718D01*
X1596476Y-9603113D01*
X1582808Y-9619768D01*
X1566153Y-9633436D01*
X1547157Y-9643589D01*
X1526538Y-9649844D01*
X1498960Y-9652560D01*
X990240Y-9652560D01*
X962662Y-9649844D01*
X942043Y-9643589D01*
X923047Y-9633436D01*
X906392Y-9619768D01*
X892726Y-9603115D01*
X883116Y-9585136D01*
X869502Y-9564762D01*
X852175Y-9547435D01*
X831800Y-9533821D01*
X809161Y-9524444D01*
X785128Y-9519664D01*
X760624Y-9519664D01*
X736591Y-9524445D01*
X713952Y-9533822D01*
X693578Y-9547436D01*
X676251Y-9564763D01*
X662637Y-9585138D01*
X662205Y-9586181D01*
X646516Y-9615533D01*
X632848Y-9632188D01*
X616193Y-9645856D01*
X597197Y-9656009D01*
X576578Y-9662264D01*
X549000Y-9664980D01*
X40280Y-9664980D01*
X12702Y-9662264D01*
X-7917Y-9656009D01*
X-26913Y-9645856D01*
X-43568Y-9632188D01*
X-57236Y-9615533D01*
X-67389Y-9596537D01*
X-73644Y-9575918D01*
X-76360Y-9548340D01*
X-76360Y-9089620D01*
X-73644Y-9062042D01*
X-67389Y-9041423D01*
X-57236Y-9022427D01*
X-43568Y-9005772D01*
X-26913Y-8992104D01*
X-7917Y-8981951D01*
X12702Y-8975696D01*
X40280Y-8972980D01*
X549000Y-8972980D01*
X576578Y-8975696D01*
X597197Y-8981951D01*
X616193Y-8992104D01*
X632848Y-9005772D01*
X646514Y-9022425D01*
X656124Y-9040404D01*
X669738Y-9060778D01*
X687065Y-9078105D01*
X707440Y-9091719D01*
X730079Y-9101096D01*
X754112Y-9105876D01*
X778616Y-9105876D01*
X802649Y-9101095D01*
X825288Y-9091718D01*
X845662Y-9078104D01*
X862989Y-9060777D01*
X876603Y-9040402D01*
X877035Y-9039359D01*
X892724Y-9010007D01*
X906392Y-8993352D01*
X923047Y-8979684D01*
X942043Y-8969531D01*
X962662Y-8963276D01*
X990240Y-8960560D01*
X1498960Y-8960560D01*
X1526538Y-8963276D01*
G37*
G36*
X1526538Y-7993276D02*
G01*
X1547157Y-7999531D01*
X1566153Y-8009684D01*
X1582808Y-8023352D01*
X1596474Y-8040005D01*
X1605131Y-8056201D01*
X1618745Y-8076576D01*
X1636073Y-8093902D01*
X1656447Y-8107516D01*
X1679086Y-8116893D01*
X1703119Y-8121673D01*
X1727623Y-8121673D01*
X1751657Y-8116892D01*
X1774295Y-8107515D01*
X1794670Y-8093901D01*
X1811996Y-8076573D01*
X1825608Y-8056202D01*
X1831164Y-8045807D01*
X1844832Y-8029152D01*
X1861487Y-8015484D01*
X1880483Y-8005331D01*
X1901102Y-7999076D01*
X1928680Y-7996360D01*
X2437400Y-7996360D01*
X2464978Y-7999076D01*
X2485597Y-8005331D01*
X2504593Y-8015484D01*
X2521248Y-8029152D01*
X2534916Y-8045807D01*
X2545069Y-8064803D01*
X2551324Y-8085422D01*
X2554040Y-8113000D01*
X2554040Y-8571720D01*
X2551324Y-8599298D01*
X2545069Y-8619917D01*
X2534916Y-8638913D01*
X2521248Y-8655568D01*
X2504593Y-8669236D01*
X2485597Y-8679389D01*
X2464978Y-8685644D01*
X2437400Y-8688360D01*
X1928680Y-8688360D01*
X1901102Y-8685644D01*
X1880483Y-8679389D01*
X1861487Y-8669236D01*
X1844832Y-8655568D01*
X1831166Y-8638915D01*
X1822509Y-8622719D01*
X1808895Y-8602344D01*
X1791567Y-8585018D01*
X1771193Y-8571404D01*
X1748554Y-8562027D01*
X1724521Y-8557247D01*
X1700017Y-8557247D01*
X1675983Y-8562028D01*
X1653345Y-8571405D01*
X1632970Y-8585019D01*
X1615644Y-8602347D01*
X1602032Y-8622718D01*
X1596476Y-8633113D01*
X1582808Y-8649768D01*
X1566153Y-8663436D01*
X1547157Y-8673589D01*
X1526538Y-8679844D01*
X1498960Y-8682560D01*
X990240Y-8682560D01*
X962662Y-8679844D01*
X942043Y-8673589D01*
X923047Y-8663436D01*
X906392Y-8649768D01*
X892726Y-8633115D01*
X883116Y-8615136D01*
X869502Y-8594762D01*
X852175Y-8577435D01*
X831800Y-8563821D01*
X809161Y-8554444D01*
X785128Y-8549664D01*
X760624Y-8549664D01*
X736591Y-8554445D01*
X713952Y-8563822D01*
X693578Y-8577436D01*
X676251Y-8594763D01*
X662637Y-8615138D01*
X662205Y-8616181D01*
X646516Y-8645533D01*
X632848Y-8662188D01*
X616193Y-8675856D01*
X597197Y-8686009D01*
X576578Y-8692264D01*
X549000Y-8694980D01*
X40280Y-8694980D01*
X12702Y-8692264D01*
X-7917Y-8686009D01*
X-26913Y-8675856D01*
X-43568Y-8662188D01*
X-57236Y-8645533D01*
X-67389Y-8626537D01*
X-73644Y-8605918D01*
X-76360Y-8578340D01*
X-76360Y-8119620D01*
X-73644Y-8092042D01*
X-67389Y-8071423D01*
X-57236Y-8052427D01*
X-43568Y-8035772D01*
X-26913Y-8022104D01*
X-7917Y-8011951D01*
X12702Y-8005696D01*
X40280Y-8002980D01*
X549000Y-8002980D01*
X576578Y-8005696D01*
X597197Y-8011951D01*
X616193Y-8022104D01*
X632848Y-8035772D01*
X646514Y-8052425D01*
X656124Y-8070404D01*
X669738Y-8090778D01*
X687065Y-8108105D01*
X707440Y-8121719D01*
X730079Y-8131096D01*
X754112Y-8135876D01*
X778616Y-8135876D01*
X802649Y-8131095D01*
X825288Y-8121718D01*
X845662Y-8108104D01*
X862989Y-8090777D01*
X876603Y-8070402D01*
X877035Y-8069359D01*
X892724Y-8040007D01*
X906392Y-8023352D01*
X923047Y-8009684D01*
X942043Y-7999531D01*
X962662Y-7993276D01*
X990240Y-7990560D01*
X1498960Y-7990560D01*
X1526538Y-7993276D01*
G37*
G36*
X-13719813Y-4748996D02*
G01*
X-13483047Y-4847068D01*
X-13483045Y-4847069D01*
X-13269961Y-4989447D01*
X-13088747Y-5170661D01*
X-12946368Y-5383747D01*
X-12848296Y-5620513D01*
X-12798300Y-5871861D01*
X-12798300Y-6128139D01*
X-12848296Y-6379487D01*
X-12946368Y-6616253D01*
X-12946369Y-6616255D01*
X-13088747Y-6829339D01*
X-13269961Y-7010553D01*
X-13483045Y-7152931D01*
X-13483046Y-7152932D01*
X-13483047Y-7152932D01*
X-13719813Y-7251004D01*
X-13971161Y-7301000D01*
X-14227439Y-7301000D01*
X-14478787Y-7251004D01*
X-14715553Y-7152932D01*
X-14715554Y-7152932D01*
X-14715555Y-7152931D01*
X-14928639Y-7010553D01*
X-15109853Y-6829339D01*
X-15252231Y-6616255D01*
X-15252232Y-6616253D01*
X-15350304Y-6379487D01*
X-15400300Y-6128139D01*
X-15400300Y-5871861D01*
X-15350304Y-5620513D01*
X-15252232Y-5383747D01*
X-15109853Y-5170661D01*
X-14928639Y-4989447D01*
X-14715555Y-4847069D01*
X-14715553Y-4847068D01*
X-14478787Y-4748996D01*
X-14227439Y-4699000D01*
X-13971161Y-4699000D01*
X-13719813Y-4748996D01*
G37*
G36*
X14480187Y-4748996D02*
G01*
X14716953Y-4847068D01*
X14716955Y-4847069D01*
X14930039Y-4989447D01*
X15111253Y-5170661D01*
X15253632Y-5383747D01*
X15351704Y-5620513D01*
X15401700Y-5871861D01*
X15401700Y-6128139D01*
X15351704Y-6379487D01*
X15253632Y-6616253D01*
X15253631Y-6616255D01*
X15111253Y-6829339D01*
X14930039Y-7010553D01*
X14716955Y-7152931D01*
X14716954Y-7152932D01*
X14716953Y-7152932D01*
X14480187Y-7251004D01*
X14228839Y-7301000D01*
X13972561Y-7301000D01*
X13721213Y-7251004D01*
X13484447Y-7152932D01*
X13484446Y-7152932D01*
X13484445Y-7152931D01*
X13271361Y-7010553D01*
X13090147Y-6829339D01*
X12947769Y-6616255D01*
X12947768Y-6616253D01*
X12849696Y-6379487D01*
X12799700Y-6128139D01*
X12799700Y-5871861D01*
X12849696Y-5620513D01*
X12947768Y-5383747D01*
X13090147Y-5170661D01*
X13271361Y-4989447D01*
X13484445Y-4847069D01*
X13484447Y-4847068D01*
X13721213Y-4748996D01*
X13972561Y-4699000D01*
X14228839Y-4699000D01*
X14480187Y-4748996D01*
G37*
G36*
X-18259000Y-2651000D02*
G01*
X-19361000Y-2651000D01*
X-19361000Y-649000D01*
X-18259000Y-649000D01*
X-18259000Y-2651000D01*
G37*
G36*
X16821000Y-2651000D02*
G01*
X15719000Y-2651000D01*
X15719000Y-649000D01*
X16821000Y-649000D01*
X16821000Y-2651000D01*
G37*
G36*
X11741000Y-2651000D02*
G01*
X10639000Y-2651000D01*
X10639000Y-649000D01*
X11741000Y-649000D01*
X11741000Y-2651000D01*
G37*
G36*
X-13179000Y-2651000D02*
G01*
X-14281000Y-2651000D01*
X-14281000Y-649000D01*
X-13179000Y-649000D01*
X-13179000Y-2651000D01*
G37*
G36*
X14281000Y649000D02*
G01*
X13179000Y649000D01*
X13179000Y2651000D01*
X14281000Y2651000D01*
X14281000Y649000D01*
G37*
G36*
X19361000Y649000D02*
G01*
X18259000Y649000D01*
X18259000Y2651000D01*
X19361000Y2651000D01*
X19361000Y649000D01*
G37*
G36*
X-10639000Y649000D02*
G01*
X-11741000Y649000D01*
X-11741000Y2651000D01*
X-10639000Y2651000D01*
X-10639000Y649000D01*
G37*
G36*
X-15719000Y649000D02*
G01*
X-16821000Y649000D01*
X-16821000Y2651000D01*
X-15719000Y2651000D01*
X-15719000Y649000D01*
G37*
G36*
X14480187Y7251004D02*
G01*
X14716953Y7152932D01*
X14716955Y7152931D01*
X14930039Y7010553D01*
X15111253Y6829339D01*
X15253632Y6616253D01*
X15351704Y6379487D01*
X15401700Y6128139D01*
X15401700Y5871861D01*
X15351704Y5620513D01*
X15253632Y5383747D01*
X15253631Y5383745D01*
X15111253Y5170661D01*
X14930039Y4989447D01*
X14716955Y4847069D01*
X14716954Y4847068D01*
X14716953Y4847068D01*
X14480187Y4748996D01*
X14228839Y4699000D01*
X13972561Y4699000D01*
X13721213Y4748996D01*
X13484447Y4847068D01*
X13484446Y4847068D01*
X13484445Y4847069D01*
X13271361Y4989447D01*
X13090147Y5170661D01*
X12947769Y5383745D01*
X12947768Y5383747D01*
X12849696Y5620513D01*
X12799700Y5871861D01*
X12799700Y6128139D01*
X12849696Y6379487D01*
X12947768Y6616253D01*
X13090147Y6829339D01*
X13271361Y7010553D01*
X13484445Y7152931D01*
X13484447Y7152932D01*
X13721213Y7251004D01*
X13972561Y7301000D01*
X14228839Y7301000D01*
X14480187Y7251004D01*
G37*
G36*
X-13719813Y7251004D02*
G01*
X-13483047Y7152932D01*
X-13483045Y7152931D01*
X-13269961Y7010553D01*
X-13088747Y6829339D01*
X-12946368Y6616253D01*
X-12848296Y6379487D01*
X-12798300Y6128139D01*
X-12798300Y5871861D01*
X-12848296Y5620513D01*
X-12946368Y5383747D01*
X-12946369Y5383745D01*
X-13088747Y5170661D01*
X-13269961Y4989447D01*
X-13483045Y4847069D01*
X-13483046Y4847068D01*
X-13483047Y4847068D01*
X-13719813Y4748996D01*
X-13971161Y4699000D01*
X-14227439Y4699000D01*
X-14478787Y4748996D01*
X-14715553Y4847068D01*
X-14715554Y4847068D01*
X-14715555Y4847069D01*
X-14928639Y4989447D01*
X-15109853Y5170661D01*
X-15252231Y5383745D01*
X-15252232Y5383747D01*
X-15350304Y5620513D01*
X-15400300Y5871861D01*
X-15400300Y6128139D01*
X-15350304Y6379487D01*
X-15252232Y6616253D01*
X-15109853Y6829339D01*
X-14928639Y7010553D01*
X-14715555Y7152931D01*
X-14715553Y7152932D01*
X-14478787Y7251004D01*
X-14227439Y7301000D01*
X-13971161Y7301000D01*
X-13719813Y7251004D01*
G37*
G36*
X7581000Y5939000D02*
G01*
X6479000Y5939000D01*
X6479000Y8551000D01*
X7581000Y8551000D01*
X7581000Y5939000D01*
G37*
G36*
X-5968960Y8001700D02*
G01*
X-6720960Y8001700D01*
X-6720960Y9803700D01*
X-5968960Y9803700D01*
X-5968960Y8001700D01*
G37*
G36*
X-4068960Y8001700D02*
G01*
X-4820960Y8001700D01*
X-4820960Y8503700D01*
X-4068960Y8503700D01*
X-4068960Y8001700D01*
G37*
G36*
X-2959102Y8801624D02*
G01*
X-2938483Y8795369D01*
X-2919487Y8785216D01*
X-2902832Y8771548D01*
X-2889164Y8754893D01*
X-2879011Y8735897D01*
X-2872756Y8715278D01*
X-2870040Y8687700D01*
X-2870040Y8228980D01*
X-2872756Y8201402D01*
X-2879011Y8180783D01*
X-2889164Y8161787D01*
X-2902832Y8145132D01*
X-2919487Y8131464D01*
X-2938483Y8121311D01*
X-2959102Y8115056D01*
X-2986680Y8112340D01*
X-3495400Y8112340D01*
X-3522978Y8115056D01*
X-3543597Y8121311D01*
X-3562593Y8131464D01*
X-3579248Y8145132D01*
X-3592916Y8161787D01*
X-3603069Y8180783D01*
X-3609324Y8201402D01*
X-3612040Y8228980D01*
X-3612040Y8687700D01*
X-3609324Y8715278D01*
X-3603069Y8735897D01*
X-3592916Y8754893D01*
X-3579248Y8771548D01*
X-3562593Y8785216D01*
X-3543597Y8795369D01*
X-3522978Y8801624D01*
X-3495400Y8804340D01*
X-2986680Y8804340D01*
X-2959102Y8801624D01*
G37*
G36*
X-7249162Y8982104D02*
G01*
X-7228543Y8975849D01*
X-7209547Y8965696D01*
X-7192892Y8952028D01*
X-7179224Y8935373D01*
X-7169071Y8916377D01*
X-7162816Y8895758D01*
X-7160100Y8868180D01*
X-7160100Y8409460D01*
X-7162816Y8381882D01*
X-7169071Y8361263D01*
X-7179224Y8342267D01*
X-7192892Y8325612D01*
X-7209547Y8311944D01*
X-7228543Y8301791D01*
X-7249162Y8295536D01*
X-7276740Y8292820D01*
X-7785460Y8292820D01*
X-7813038Y8295536D01*
X-7833657Y8301791D01*
X-7852653Y8311944D01*
X-7869308Y8325612D01*
X-7882976Y8342267D01*
X-7893129Y8361263D01*
X-7899384Y8381882D01*
X-7902100Y8409460D01*
X-7902100Y8868180D01*
X-7899384Y8895758D01*
X-7893129Y8916377D01*
X-7882976Y8935373D01*
X-7869308Y8952028D01*
X-7852653Y8965696D01*
X-7833657Y8975849D01*
X-7813038Y8982104D01*
X-7785460Y8984820D01*
X-7276740Y8984820D01*
X-7249162Y8982104D01*
G37*
G36*
X-2959102Y9771624D02*
G01*
X-2938483Y9765369D01*
X-2919487Y9755216D01*
X-2902832Y9741548D01*
X-2889164Y9724893D01*
X-2879011Y9705897D01*
X-2872756Y9685278D01*
X-2870040Y9657700D01*
X-2870040Y9198980D01*
X-2872756Y9171402D01*
X-2879011Y9150783D01*
X-2889164Y9131787D01*
X-2902832Y9115132D01*
X-2919487Y9101464D01*
X-2938483Y9091311D01*
X-2959102Y9085056D01*
X-2986680Y9082340D01*
X-3495400Y9082340D01*
X-3522978Y9085056D01*
X-3543597Y9091311D01*
X-3562593Y9101464D01*
X-3579248Y9115132D01*
X-3592916Y9131787D01*
X-3603069Y9150783D01*
X-3609324Y9171402D01*
X-3612040Y9198980D01*
X-3612040Y9657700D01*
X-3609324Y9685278D01*
X-3603069Y9705897D01*
X-3592916Y9724893D01*
X-3579248Y9741548D01*
X-3562593Y9755216D01*
X-3543597Y9765369D01*
X-3522978Y9771624D01*
X-3495400Y9774340D01*
X-2986680Y9774340D01*
X-2959102Y9771624D01*
G37*
G36*
X10121000Y9249000D02*
G01*
X9019000Y9249000D01*
X9019000Y11861000D01*
X10121000Y11861000D01*
X10121000Y9249000D01*
G37*
G36*
X-7249162Y9952104D02*
G01*
X-7228543Y9945849D01*
X-7209547Y9935696D01*
X-7192892Y9922028D01*
X-7179224Y9905373D01*
X-7169071Y9886377D01*
X-7162816Y9865758D01*
X-7160100Y9838180D01*
X-7160100Y9379460D01*
X-7162816Y9351882D01*
X-7169071Y9331263D01*
X-7179224Y9312267D01*
X-7192892Y9295612D01*
X-7209547Y9281944D01*
X-7228543Y9271791D01*
X-7249162Y9265536D01*
X-7276740Y9262820D01*
X-7785460Y9262820D01*
X-7813038Y9265536D01*
X-7833657Y9271791D01*
X-7852653Y9281944D01*
X-7869308Y9295612D01*
X-7882976Y9312267D01*
X-7893129Y9331263D01*
X-7899384Y9351882D01*
X-7902100Y9379460D01*
X-7902100Y9838180D01*
X-7899384Y9865758D01*
X-7893129Y9886377D01*
X-7882976Y9905373D01*
X-7869308Y9922028D01*
X-7852653Y9935696D01*
X-7833657Y9945849D01*
X-7813038Y9952104D01*
X-7785460Y9954820D01*
X-7276740Y9954820D01*
X-7249162Y9952104D01*
G37*
G36*
X-4068960Y9301700D02*
G01*
X-4820960Y9301700D01*
X-4820960Y9803700D01*
X-4068960Y9803700D01*
X-4068960Y9301700D01*
G37*
G36*
X-9009462Y12255484D02*
G01*
X-8988843Y12249229D01*
X-8969847Y12239076D01*
X-8953192Y12225408D01*
X-8939524Y12208753D01*
X-8929371Y12189757D01*
X-8923116Y12169138D01*
X-8920400Y12141560D01*
X-8920400Y11632840D01*
X-8923116Y11605262D01*
X-8929371Y11584643D01*
X-8939524Y11565647D01*
X-8953192Y11548992D01*
X-8969847Y11535324D01*
X-8988843Y11525171D01*
X-9009462Y11518916D01*
X-9037040Y11516200D01*
X-9495760Y11516200D01*
X-9523338Y11518916D01*
X-9543957Y11525171D01*
X-9562953Y11535324D01*
X-9579608Y11548992D01*
X-9593276Y11565647D01*
X-9603429Y11584643D01*
X-9609684Y11605262D01*
X-9612400Y11632840D01*
X-9612400Y12141560D01*
X-9609684Y12169138D01*
X-9603429Y12189757D01*
X-9593276Y12208753D01*
X-9579608Y12225408D01*
X-9562953Y12239076D01*
X-9543957Y12249229D01*
X-9523338Y12255484D01*
X-9495760Y12258200D01*
X-9037040Y12258200D01*
X-9009462Y12255484D01*
G37*
G36*
X-8039462Y12255484D02*
G01*
X-8018843Y12249229D01*
X-7999847Y12239076D01*
X-7983192Y12225408D01*
X-7969524Y12208753D01*
X-7959371Y12189757D01*
X-7953116Y12169138D01*
X-7950400Y12141560D01*
X-7950400Y11632840D01*
X-7953116Y11605262D01*
X-7959371Y11584643D01*
X-7969524Y11565647D01*
X-7983192Y11548992D01*
X-7999847Y11535324D01*
X-8018843Y11525171D01*
X-8039462Y11518916D01*
X-8067040Y11516200D01*
X-8525760Y11516200D01*
X-8553338Y11518916D01*
X-8573957Y11525171D01*
X-8592953Y11535324D01*
X-8609608Y11548992D01*
X-8623276Y11565647D01*
X-8633429Y11584643D01*
X-8639684Y11605262D01*
X-8642400Y11632840D01*
X-8642400Y12141560D01*
X-8639684Y12169138D01*
X-8633429Y12189757D01*
X-8623276Y12208753D01*
X-8609608Y12225408D01*
X-8592953Y12239076D01*
X-8573957Y12249229D01*
X-8553338Y12255484D01*
X-8525760Y12258200D01*
X-8067040Y12258200D01*
X-8039462Y12255484D01*
G37*
G36*
X-11610962Y13485384D02*
G01*
X-11590343Y13479129D01*
X-11571347Y13468976D01*
X-11554692Y13455308D01*
X-11541024Y13438653D01*
X-11530871Y13419657D01*
X-11524616Y13399038D01*
X-11521900Y13371460D01*
X-11521900Y12912740D01*
X-11524616Y12885162D01*
X-11530871Y12864543D01*
X-11541024Y12845547D01*
X-11554692Y12828892D01*
X-11571347Y12815224D01*
X-11590343Y12805071D01*
X-11610962Y12798816D01*
X-11638540Y12796100D01*
X-12147260Y12796100D01*
X-12174838Y12798816D01*
X-12195457Y12805071D01*
X-12214453Y12815224D01*
X-12231108Y12828892D01*
X-12244776Y12845547D01*
X-12254929Y12864543D01*
X-12261184Y12885162D01*
X-12263900Y12912740D01*
X-12263900Y13371460D01*
X-12261184Y13399038D01*
X-12254929Y13419657D01*
X-12244776Y13438653D01*
X-12231108Y13455308D01*
X-12214453Y13468976D01*
X-12195457Y13479129D01*
X-12174838Y13485384D01*
X-12147260Y13488100D01*
X-11638540Y13488100D01*
X-11610962Y13485384D01*
G37*
G36*
X-7626000Y12971700D02*
G01*
X-8788000Y12971700D01*
X-8788000Y13723700D01*
X-7626000Y13723700D01*
X-7626000Y12971700D01*
G37*
G36*
X-9826000Y12971700D02*
G01*
X-10988000Y12971700D01*
X-10988000Y15623700D01*
X-9826000Y15623700D01*
X-9826000Y12971700D01*
G37*
G36*
X-11610962Y14455384D02*
G01*
X-11590343Y14449129D01*
X-11571347Y14438976D01*
X-11554692Y14425308D01*
X-11541024Y14408653D01*
X-11530871Y14389657D01*
X-11524616Y14369038D01*
X-11521900Y14341460D01*
X-11521900Y13882740D01*
X-11524616Y13855162D01*
X-11530871Y13834543D01*
X-11541024Y13815547D01*
X-11554692Y13798892D01*
X-11571347Y13785224D01*
X-11590343Y13775071D01*
X-11610962Y13768816D01*
X-11638540Y13766100D01*
X-12147260Y13766100D01*
X-12174838Y13768816D01*
X-12195457Y13775071D01*
X-12214453Y13785224D01*
X-12231108Y13798892D01*
X-12244776Y13815547D01*
X-12254929Y13834543D01*
X-12261184Y13855162D01*
X-12263900Y13882740D01*
X-12263900Y14341460D01*
X-12261184Y14369038D01*
X-12254929Y14389657D01*
X-12244776Y14408653D01*
X-12231108Y14425308D01*
X-12214453Y14438976D01*
X-12195457Y14449129D01*
X-12174838Y14455384D01*
X-12147260Y14458100D01*
X-11638540Y14458100D01*
X-11610962Y14455384D01*
G37*
G36*
X-7626000Y14871700D02*
G01*
X-8788000Y14871700D01*
X-8788000Y15623700D01*
X-7626000Y15623700D01*
X-7626000Y14871700D01*
G37*
G36*
X-5593762Y15628284D02*
G01*
X-5573143Y15622029D01*
X-5554147Y15611876D01*
X-5537492Y15598208D01*
X-5523824Y15581553D01*
X-5513671Y15562557D01*
X-5507416Y15541938D01*
X-5504700Y15514360D01*
X-5504700Y15005640D01*
X-5507416Y14978062D01*
X-5513671Y14957443D01*
X-5523824Y14938447D01*
X-5537492Y14921792D01*
X-5554147Y14908124D01*
X-5573143Y14897971D01*
X-5593762Y14891716D01*
X-5621340Y14889000D01*
X-6080060Y14889000D01*
X-6107638Y14891716D01*
X-6128257Y14897971D01*
X-6147253Y14908124D01*
X-6163908Y14921792D01*
X-6177576Y14938447D01*
X-6187729Y14957443D01*
X-6193984Y14978062D01*
X-6196700Y15005640D01*
X-6196700Y15514360D01*
X-6193984Y15541938D01*
X-6187729Y15562557D01*
X-6177576Y15581553D01*
X-6163908Y15598208D01*
X-6147253Y15611876D01*
X-6128257Y15622029D01*
X-6107638Y15628284D01*
X-6080060Y15631000D01*
X-5621340Y15631000D01*
X-5593762Y15628284D01*
G37*
G36*
X-6563762Y15628284D02*
G01*
X-6543143Y15622029D01*
X-6524147Y15611876D01*
X-6507492Y15598208D01*
X-6493824Y15581553D01*
X-6483671Y15562557D01*
X-6477416Y15541938D01*
X-6474700Y15514360D01*
X-6474700Y15005640D01*
X-6477416Y14978062D01*
X-6483671Y14957443D01*
X-6493824Y14938447D01*
X-6507492Y14921792D01*
X-6524147Y14908124D01*
X-6543143Y14897971D01*
X-6563762Y14891716D01*
X-6591340Y14889000D01*
X-7050060Y14889000D01*
X-7077638Y14891716D01*
X-7098257Y14897971D01*
X-7117253Y14908124D01*
X-7133908Y14921792D01*
X-7147576Y14938447D01*
X-7157729Y14957443D01*
X-7163984Y14978062D01*
X-7166700Y15005640D01*
X-7166700Y15514360D01*
X-7163984Y15541938D01*
X-7157729Y15562557D01*
X-7147576Y15581553D01*
X-7133908Y15598208D01*
X-7117253Y15611876D01*
X-7098257Y15622029D01*
X-7077638Y15628284D01*
X-7050060Y15631000D01*
X-6591340Y15631000D01*
X-6563762Y15628284D01*
G37*
G36*
X-12560662Y15646384D02*
G01*
X-12540043Y15640129D01*
X-12521047Y15629976D01*
X-12504392Y15616308D01*
X-12490724Y15599653D01*
X-12480571Y15580657D01*
X-12474316Y15560038D01*
X-12471600Y15532460D01*
X-12471600Y15023740D01*
X-12474316Y14996162D01*
X-12480571Y14975543D01*
X-12490724Y14956547D01*
X-12504392Y14939892D01*
X-12521047Y14926224D01*
X-12540043Y14916071D01*
X-12560662Y14909816D01*
X-12588240Y14907100D01*
X-13046960Y14907100D01*
X-13074538Y14909816D01*
X-13095157Y14916071D01*
X-13114153Y14926224D01*
X-13130808Y14939892D01*
X-13144476Y14956547D01*
X-13154629Y14975543D01*
X-13160884Y14996162D01*
X-13163600Y15023740D01*
X-13163600Y15532460D01*
X-13160884Y15560038D01*
X-13154629Y15580657D01*
X-13144476Y15599653D01*
X-13130808Y15616308D01*
X-13114153Y15629976D01*
X-13095157Y15640129D01*
X-13074538Y15646384D01*
X-13046960Y15649100D01*
X-12588240Y15649100D01*
X-12560662Y15646384D01*
G37*
G36*
X-13530662Y15646384D02*
G01*
X-13510043Y15640129D01*
X-13491047Y15629976D01*
X-13474392Y15616308D01*
X-13460724Y15599653D01*
X-13450571Y15580657D01*
X-13444316Y15560038D01*
X-13441600Y15532460D01*
X-13441600Y15023740D01*
X-13444316Y14996162D01*
X-13450571Y14975543D01*
X-13460724Y14956547D01*
X-13474392Y14939892D01*
X-13491047Y14926224D01*
X-13510043Y14916071D01*
X-13530662Y14909816D01*
X-13558240Y14907100D01*
X-14016960Y14907100D01*
X-14044538Y14909816D01*
X-14065157Y14916071D01*
X-14084153Y14926224D01*
X-14100808Y14939892D01*
X-14114476Y14956547D01*
X-14124629Y14975543D01*
X-14130884Y14996162D01*
X-14133600Y15023740D01*
X-14133600Y15532460D01*
X-14130884Y15560038D01*
X-14124629Y15580657D01*
X-14114476Y15599653D01*
X-14100808Y15616308D01*
X-14084153Y15629976D01*
X-14065157Y15640129D01*
X-14044538Y15646384D01*
X-14016960Y15649100D01*
X-13558240Y15649100D01*
X-13530662Y15646384D01*
G37*
G36*
X-13405609Y17083215D02*
G01*
X-13371631Y17072907D01*
X-13340310Y17056166D01*
X-13312861Y17033639D01*
X-13290334Y17006190D01*
X-13273593Y16974869D01*
X-13263285Y16940891D01*
X-13259200Y16899410D01*
X-13259200Y16298190D01*
X-13263285Y16256709D01*
X-13273593Y16222731D01*
X-13290334Y16191410D01*
X-13312861Y16163961D01*
X-13340310Y16141434D01*
X-13371631Y16124693D01*
X-13405609Y16114385D01*
X-13447090Y16110300D01*
X-14123310Y16110300D01*
X-14164791Y16114385D01*
X-14198769Y16124693D01*
X-14230090Y16141434D01*
X-14257539Y16163961D01*
X-14280066Y16191410D01*
X-14296807Y16222731D01*
X-14307115Y16256709D01*
X-14311200Y16298190D01*
X-14311200Y16899410D01*
X-14307115Y16940891D01*
X-14296807Y16974869D01*
X-14280066Y17006190D01*
X-14257539Y17033639D01*
X-14230090Y17056166D01*
X-14198769Y17072907D01*
X-14164791Y17083215D01*
X-14123310Y17087300D01*
X-13447090Y17087300D01*
X-13405609Y17083215D01*
G37*
G36*
X-13405609Y18658215D02*
G01*
X-13371631Y18647907D01*
X-13340310Y18631166D01*
X-13312861Y18608639D01*
X-13290334Y18581190D01*
X-13273593Y18549869D01*
X-13263285Y18515891D01*
X-13259200Y18474410D01*
X-13259200Y17873190D01*
X-13263285Y17831709D01*
X-13273593Y17797731D01*
X-13290334Y17766410D01*
X-13312861Y17738961D01*
X-13340310Y17716434D01*
X-13371631Y17699693D01*
X-13405609Y17689385D01*
X-13447090Y17685300D01*
X-14123310Y17685300D01*
X-14164791Y17689385D01*
X-14198769Y17699693D01*
X-14230090Y17716434D01*
X-14257539Y17738961D01*
X-14280066Y17766410D01*
X-14296807Y17797731D01*
X-14307115Y17831709D01*
X-14311200Y17873190D01*
X-14311200Y18474410D01*
X-14307115Y18515891D01*
X-14296807Y18549869D01*
X-14280066Y18581190D01*
X-14257539Y18608639D01*
X-14230090Y18631166D01*
X-14198769Y18647907D01*
X-14164791Y18658215D01*
X-14123310Y18662300D01*
X-13447090Y18662300D01*
X-13405609Y18658215D01*
G37*
G36*
X379487Y21251004D02*
G01*
X616253Y21152932D01*
X616255Y21152931D01*
X829339Y21010553D01*
X1010553Y20829339D01*
X1152932Y20616253D01*
X1251004Y20379487D01*
X1301000Y20128139D01*
X1301000Y19871861D01*
X1251004Y19620513D01*
X1152932Y19383747D01*
X1152931Y19383745D01*
X1010553Y19170661D01*
X829339Y18989447D01*
X616255Y18847069D01*
X616254Y18847068D01*
X616253Y18847068D01*
X379487Y18748996D01*
X128139Y18699000D01*
X-128139Y18699000D01*
X-379487Y18748996D01*
X-616253Y18847068D01*
X-616254Y18847068D01*
X-616255Y18847069D01*
X-829339Y18989447D01*
X-1010553Y19170661D01*
X-1152931Y19383745D01*
X-1152932Y19383747D01*
X-1251004Y19620513D01*
X-1301000Y19871861D01*
X-1301000Y20128139D01*
X-1251004Y20379487D01*
X-1152932Y20616253D01*
X-1010553Y20829339D01*
X-829339Y21010553D01*
X-616255Y21152931D01*
X-616253Y21152932D01*
X-379487Y21251004D01*
X-128139Y21301000D01*
X128139Y21301000D01*
X379487Y21251004D01*
G37*
M02*
