G04 #@! TF.GenerationSoftware,KiCad,Pcbnew,5.1.5-52549c5~84~ubuntu18.04.1*
G04 #@! TF.CreationDate,2019-12-03T21:09:54-05:00*
G04 #@! TF.ProjectId,SwarmBot,53776172-6d42-46f7-942e-6b696361645f,rev?*
G04 #@! TF.SameCoordinates,Original*
G04 #@! TF.FileFunction,Copper,L2,Bot*
G04 #@! TF.FilePolarity,Positive*
%FSLAX46Y46*%
G04 Gerber Fmt 4.6, Leading zero omitted, Abs format (unit mm)*
G04 Created by KiCad (PCBNEW 5.1.5-52549c5~84~ubuntu18.04.1) date 2019-12-03 21:09:54*
%MOMM*%
%LPD*%
G04 APERTURE LIST*
%ADD10O,1.000000X1.000000*%
%ADD11R,1.000000X1.000000*%
%ADD12C,0.400000*%
%ADD13C,0.450000*%
%ADD14C,0.250000*%
%ADD15C,0.200000*%
%ADD16C,0.254000*%
G04 APERTURE END LIST*
D10*
X7322200Y-9245600D03*
X7322200Y-10515600D03*
X7322200Y-11785600D03*
X7322200Y-13055600D03*
X7322200Y-14325600D03*
X7322200Y-15595600D03*
X7322200Y-16865600D03*
D11*
X7322200Y-18135600D03*
D12*
X1820000Y-11800000D03*
X13375640Y-13340080D03*
X12085320Y-13289280D03*
X16195040Y-15966440D03*
X13817600Y-18155920D03*
X11028680Y-15758160D03*
X11138738Y-12032750D03*
X13355320Y-14594840D03*
X12120880Y-14584680D03*
X18740120Y-2814320D03*
X18750000Y-2408200D03*
X18750000Y-2001800D03*
X18750000Y-1595400D03*
X18750000Y-1189000D03*
X18750000Y-777520D03*
X18750000Y-371120D03*
X18750000Y40360D03*
X-12969520Y-2001800D03*
X-12979400Y-2814320D03*
X-12969520Y-1189000D03*
X-12969520Y40360D03*
X-12969520Y-1595400D03*
X-12969520Y-777520D03*
X-12969520Y-2408200D03*
X-12969520Y-371120D03*
X4610000Y-8900000D03*
X5100000Y-14890000D03*
X-1110000Y-12110000D03*
X-1140000Y-9530000D03*
X1720000Y-8480000D03*
X1900000Y-13070000D03*
X3090000Y-13100000D03*
X3040000Y-11800000D03*
X-3300000Y14510000D03*
X-7720000Y17240000D03*
X-8050000Y16960000D03*
X-7800000Y14250000D03*
X-8222300Y14297700D03*
X-8672300Y14297700D03*
X-9112300Y14297700D03*
X-9572300Y14297700D03*
X-9170000Y12660000D03*
X12437821Y-11741408D03*
X12451080Y-16499840D03*
X10607040Y-14782798D03*
X10784840Y-13111480D03*
X2750000Y-14530000D03*
X2776433Y-10236551D03*
X4460000Y-11340000D03*
X4650000Y-13060000D03*
X-9360000Y19730000D03*
X-9730000Y19360000D03*
X-10075000Y19015000D03*
X-10420000Y18670000D03*
X-10745000Y18345000D03*
X-11266200Y18173800D03*
X-11816200Y18173800D03*
X-12256200Y18173800D03*
X-12696200Y18173800D03*
X-6270000Y13380000D03*
X-6902300Y13347700D03*
X13121640Y-16896080D03*
X17403920Y-16885760D03*
X620000Y-10320000D03*
X2140000Y-10110000D03*
X12169140Y-10398760D03*
X14795500Y-9547860D03*
X1230000Y-14470000D03*
X-16130000Y-1880000D03*
X2140000Y-14660000D03*
X-17000000Y-540000D03*
D13*
X-7770000Y17240000D02*
X-8050000Y16960000D01*
X-7720000Y17240000D02*
X-7770000Y17240000D01*
D14*
X7322200Y-14325600D02*
X9090040Y-12557760D01*
X12237822Y-11941407D02*
X12437821Y-11741408D01*
X11621469Y-12557760D02*
X12237822Y-11941407D01*
X9090040Y-12557760D02*
X11621469Y-12557760D01*
X7322200Y-18135600D02*
X10830560Y-18135600D01*
X10830560Y-18135600D02*
X12451080Y-16515080D01*
X12451080Y-16515080D02*
X12451080Y-16499840D01*
X8524238Y-16865600D02*
X10607040Y-14782798D01*
X7322200Y-16865600D02*
X8524238Y-16865600D01*
X8029306Y-15595600D02*
X9819640Y-13805266D01*
X7322200Y-15595600D02*
X8029306Y-15595600D01*
X9819640Y-13805266D02*
X10091054Y-13805266D01*
X10091054Y-13805266D02*
X10784840Y-13111480D01*
X2750000Y-14530000D02*
X3240000Y-14040000D01*
X3240000Y-14040000D02*
X5270000Y-14040000D01*
X6254400Y-13055600D02*
X7322200Y-13055600D01*
X5270000Y-14040000D02*
X6254400Y-13055600D01*
X6531248Y-10036552D02*
X2976432Y-10036552D01*
X7322200Y-9245600D02*
X6531248Y-10036552D01*
X2976432Y-10036552D02*
X2776433Y-10236551D01*
X5284400Y-10515600D02*
X7322200Y-10515600D01*
X4460000Y-11340000D02*
X5284400Y-10515600D01*
X5924400Y-11785600D02*
X7322200Y-11785600D01*
X4650000Y-13060000D02*
X5924400Y-11785600D01*
D13*
X-6587158Y13380000D02*
X-6480000Y13380000D01*
X-6619458Y13347700D02*
X-6587158Y13380000D01*
X-6902300Y13347700D02*
X-6619458Y13347700D01*
X-6270000Y13380000D02*
X-6480000Y13380000D01*
X-6270000Y13380000D02*
X-3970000Y15680000D01*
X-3970000Y16950000D02*
X-3960000Y16960000D01*
X-3970000Y15680000D02*
X-3970000Y16950000D01*
D14*
X13121640Y-16896080D02*
X17393600Y-16896080D01*
X17393600Y-16896080D02*
X17403920Y-16885760D01*
D15*
X1930000Y-10320000D02*
X2140000Y-10110000D01*
X620000Y-10320000D02*
X1930000Y-10320000D01*
X12169140Y-10398760D02*
X13020040Y-9547860D01*
X13020040Y-9547860D02*
X14795500Y-9547860D01*
X-16329999Y-2079999D02*
X-16329999Y-8670001D01*
X-16130000Y-1880000D02*
X-16329999Y-2079999D01*
X-16329999Y-8670001D02*
X-10020000Y-14980000D01*
X720000Y-14980000D02*
X1230000Y-14470000D01*
X-10020000Y-14980000D02*
X720000Y-14980000D01*
X2140000Y-14942842D02*
X2050000Y-15032842D01*
X2140000Y-14660000D02*
X2140000Y-14942842D01*
X2050000Y-15032842D02*
X2050000Y-15090000D01*
X2050000Y-15090000D02*
X1440000Y-15700000D01*
X1440000Y-15700000D02*
X-9980000Y-15700000D01*
X-9980000Y-15700000D02*
X-17000000Y-8680000D01*
X-17000000Y-8680000D02*
X-17000000Y-540000D01*
D16*
G36*
X1466155Y24550674D02*
G01*
X3387850Y24359960D01*
X5288667Y24019059D01*
X7156884Y23530070D01*
X8980962Y22896015D01*
X10749677Y22120797D01*
X12452128Y21209189D01*
X14077790Y20166830D01*
X15616660Y19000134D01*
X17059252Y17716294D01*
X18396667Y16323230D01*
X19623290Y14826318D01*
X20093997Y14178444D01*
X20093282Y-14174868D01*
X18999340Y-15617628D01*
X17973349Y-16770369D01*
X17962592Y-16716289D01*
X17918795Y-16610553D01*
X17855212Y-16515394D01*
X17774286Y-16434468D01*
X17679127Y-16370885D01*
X17573391Y-16327088D01*
X17461143Y-16304760D01*
X17346697Y-16304760D01*
X17234449Y-16327088D01*
X17128713Y-16370885D01*
X17099986Y-16390080D01*
X13410129Y-16390080D01*
X13396847Y-16381205D01*
X13291111Y-16337408D01*
X13178863Y-16315080D01*
X13064417Y-16315080D01*
X13008062Y-16326290D01*
X12965955Y-16224633D01*
X12902372Y-16129474D01*
X12821446Y-16048548D01*
X12726287Y-15984965D01*
X12620551Y-15941168D01*
X12508303Y-15918840D01*
X12393857Y-15918840D01*
X12281609Y-15941168D01*
X12175873Y-15984965D01*
X12080714Y-16048548D01*
X11999788Y-16129474D01*
X11936205Y-16224633D01*
X11892408Y-16330369D01*
X11885507Y-16365061D01*
X10620969Y-17629600D01*
X8204452Y-17629600D01*
X8197687Y-17560911D01*
X8175901Y-17489092D01*
X8140522Y-17422904D01*
X8098418Y-17371600D01*
X8499392Y-17371600D01*
X8524238Y-17374047D01*
X8549084Y-17371600D01*
X8549092Y-17371600D01*
X8623431Y-17364278D01*
X8718813Y-17335345D01*
X8806717Y-17288359D01*
X8883765Y-17225127D01*
X8899614Y-17205815D01*
X10760843Y-15344587D01*
X10776511Y-15341470D01*
X10882247Y-15297673D01*
X10977406Y-15234090D01*
X11058332Y-15153164D01*
X11121915Y-15058005D01*
X11165712Y-14952269D01*
X11188040Y-14840021D01*
X11188040Y-14725575D01*
X11165712Y-14613327D01*
X11121915Y-14507591D01*
X11058332Y-14412432D01*
X10977406Y-14331506D01*
X10882247Y-14267923D01*
X10776511Y-14224126D01*
X10664263Y-14201798D01*
X10549817Y-14201798D01*
X10437569Y-14224126D01*
X10331833Y-14267923D01*
X10236674Y-14331506D01*
X10155748Y-14412432D01*
X10092165Y-14507591D01*
X10048368Y-14613327D01*
X10045251Y-14628995D01*
X8314647Y-16359600D01*
X8043672Y-16359600D01*
X8006518Y-16303995D01*
X7933123Y-16230600D01*
X8006518Y-16157205D01*
X8042933Y-16102705D01*
X8054152Y-16101600D01*
X8054160Y-16101600D01*
X8128499Y-16094278D01*
X8223881Y-16065345D01*
X8311785Y-16018359D01*
X8388833Y-15955127D01*
X8404682Y-15935815D01*
X10029232Y-14311266D01*
X10066208Y-14311266D01*
X10091054Y-14313713D01*
X10115900Y-14311266D01*
X10115908Y-14311266D01*
X10190247Y-14303944D01*
X10285629Y-14275011D01*
X10373533Y-14228025D01*
X10450581Y-14164793D01*
X10466430Y-14145481D01*
X10938643Y-13673269D01*
X10954311Y-13670152D01*
X11060047Y-13626355D01*
X11155206Y-13562772D01*
X11236132Y-13481846D01*
X11299715Y-13386687D01*
X11343512Y-13280951D01*
X11365840Y-13168703D01*
X11365840Y-13063760D01*
X11596623Y-13063760D01*
X11621469Y-13066207D01*
X11646315Y-13063760D01*
X11646323Y-13063760D01*
X11720662Y-13056438D01*
X11816044Y-13027505D01*
X11903948Y-12980519D01*
X11980996Y-12917287D01*
X11996845Y-12897975D01*
X12591624Y-12303197D01*
X12607292Y-12300080D01*
X12713028Y-12256283D01*
X12808187Y-12192700D01*
X12889113Y-12111774D01*
X12952696Y-12016615D01*
X12996493Y-11910879D01*
X13018821Y-11798631D01*
X13018821Y-11684185D01*
X12996493Y-11571937D01*
X12952696Y-11466201D01*
X12889113Y-11371042D01*
X12808187Y-11290116D01*
X12713028Y-11226533D01*
X12607292Y-11182736D01*
X12495044Y-11160408D01*
X12380598Y-11160408D01*
X12268350Y-11182736D01*
X12162614Y-11226533D01*
X12067455Y-11290116D01*
X11986529Y-11371042D01*
X11922946Y-11466201D01*
X11879149Y-11571937D01*
X11876032Y-11587605D01*
X11411878Y-12051760D01*
X9114885Y-12051760D01*
X9090039Y-12049313D01*
X9065193Y-12051760D01*
X9065186Y-12051760D01*
X9000734Y-12058108D01*
X8990846Y-12059082D01*
X8968647Y-12065816D01*
X8895465Y-12088015D01*
X8807561Y-12135001D01*
X8730513Y-12198233D01*
X8714669Y-12217539D01*
X8158871Y-12773338D01*
X8102932Y-12638290D01*
X8006518Y-12493995D01*
X7933123Y-12420600D01*
X8006518Y-12347205D01*
X8102932Y-12202910D01*
X8169344Y-12042578D01*
X8203200Y-11872371D01*
X8203200Y-11698829D01*
X8169344Y-11528622D01*
X8102932Y-11368290D01*
X8006518Y-11223995D01*
X7933123Y-11150600D01*
X8006518Y-11077205D01*
X8102932Y-10932910D01*
X8169344Y-10772578D01*
X8203200Y-10602371D01*
X8203200Y-10428829D01*
X8185837Y-10341537D01*
X11588140Y-10341537D01*
X11588140Y-10455983D01*
X11610468Y-10568231D01*
X11654265Y-10673967D01*
X11717848Y-10769126D01*
X11798774Y-10850052D01*
X11893933Y-10913635D01*
X11999669Y-10957432D01*
X12111917Y-10979760D01*
X12226363Y-10979760D01*
X12338611Y-10957432D01*
X12444347Y-10913635D01*
X12539506Y-10850052D01*
X12620432Y-10769126D01*
X12684015Y-10673967D01*
X12727812Y-10568231D01*
X12739708Y-10508429D01*
X13219277Y-10028860D01*
X14469595Y-10028860D01*
X14520293Y-10062735D01*
X14626029Y-10106532D01*
X14738277Y-10128860D01*
X14852723Y-10128860D01*
X14964971Y-10106532D01*
X15070707Y-10062735D01*
X15165866Y-9999152D01*
X15246792Y-9918226D01*
X15310375Y-9823067D01*
X15354172Y-9717331D01*
X15376500Y-9605083D01*
X15376500Y-9490637D01*
X15354172Y-9378389D01*
X15310375Y-9272653D01*
X15246792Y-9177494D01*
X15165866Y-9096568D01*
X15070707Y-9032985D01*
X14964971Y-8989188D01*
X14852723Y-8966860D01*
X14738277Y-8966860D01*
X14626029Y-8989188D01*
X14520293Y-9032985D01*
X14469595Y-9066860D01*
X13043663Y-9066860D01*
X13020039Y-9064533D01*
X12996415Y-9066860D01*
X12996414Y-9066860D01*
X12925748Y-9073820D01*
X12835079Y-9101324D01*
X12751518Y-9145988D01*
X12678276Y-9206096D01*
X12663215Y-9224449D01*
X12059471Y-9828192D01*
X11999669Y-9840088D01*
X11893933Y-9883885D01*
X11798774Y-9947468D01*
X11717848Y-10028394D01*
X11654265Y-10123553D01*
X11610468Y-10229289D01*
X11588140Y-10341537D01*
X8185837Y-10341537D01*
X8169344Y-10258622D01*
X8102932Y-10098290D01*
X8006518Y-9953995D01*
X7933123Y-9880600D01*
X8006518Y-9807205D01*
X8102932Y-9662910D01*
X8169344Y-9502578D01*
X8203200Y-9332371D01*
X8203200Y-9158829D01*
X8169344Y-8988622D01*
X8102932Y-8828290D01*
X8006518Y-8683995D01*
X7883805Y-8561282D01*
X7739510Y-8464868D01*
X7579178Y-8398456D01*
X7408971Y-8364600D01*
X7235429Y-8364600D01*
X7065222Y-8398456D01*
X6904890Y-8464868D01*
X6760595Y-8561282D01*
X6637882Y-8683995D01*
X6541468Y-8828290D01*
X6475056Y-8988622D01*
X6441200Y-9158829D01*
X6441200Y-9332371D01*
X6454247Y-9397962D01*
X6321657Y-9530552D01*
X3001277Y-9530552D01*
X2976431Y-9528105D01*
X2951585Y-9530552D01*
X2951578Y-9530552D01*
X2887126Y-9536900D01*
X2877238Y-9537874D01*
X2855039Y-9544608D01*
X2781857Y-9566807D01*
X2693953Y-9613793D01*
X2618712Y-9675542D01*
X2606962Y-9677879D01*
X2552214Y-9700556D01*
X2510366Y-9658708D01*
X2415207Y-9595125D01*
X2309471Y-9551328D01*
X2197223Y-9529000D01*
X2082777Y-9529000D01*
X1970529Y-9551328D01*
X1864793Y-9595125D01*
X1769634Y-9658708D01*
X1688708Y-9739634D01*
X1625125Y-9834793D01*
X1623382Y-9839000D01*
X945905Y-9839000D01*
X895207Y-9805125D01*
X789471Y-9761328D01*
X677223Y-9739000D01*
X562777Y-9739000D01*
X450529Y-9761328D01*
X344793Y-9805125D01*
X249634Y-9868708D01*
X168708Y-9949634D01*
X105125Y-10044793D01*
X61328Y-10150529D01*
X39000Y-10262777D01*
X39000Y-10377223D01*
X61328Y-10489471D01*
X105125Y-10595207D01*
X168708Y-10690366D01*
X249634Y-10771292D01*
X344793Y-10834875D01*
X450529Y-10878672D01*
X562777Y-10901000D01*
X677223Y-10901000D01*
X789471Y-10878672D01*
X895207Y-10834875D01*
X945905Y-10801000D01*
X1906374Y-10801000D01*
X1930000Y-10803327D01*
X1953626Y-10801000D01*
X1983284Y-10798079D01*
X2024292Y-10794040D01*
X2114961Y-10766536D01*
X2198522Y-10721872D01*
X2248590Y-10680782D01*
X2309471Y-10668672D01*
X2364219Y-10645995D01*
X2406067Y-10687843D01*
X2501226Y-10751426D01*
X2606962Y-10795223D01*
X2719210Y-10817551D01*
X2833656Y-10817551D01*
X2945904Y-10795223D01*
X3051640Y-10751426D01*
X3146799Y-10687843D01*
X3227725Y-10606917D01*
X3270732Y-10542552D01*
X4541856Y-10542552D01*
X4306197Y-10778211D01*
X4290529Y-10781328D01*
X4184793Y-10825125D01*
X4089634Y-10888708D01*
X4008708Y-10969634D01*
X3945125Y-11064793D01*
X3901328Y-11170529D01*
X3879000Y-11282777D01*
X3879000Y-11397223D01*
X3901328Y-11509471D01*
X3945125Y-11615207D01*
X4008708Y-11710366D01*
X4089634Y-11791292D01*
X4184793Y-11854875D01*
X4290529Y-11898672D01*
X4402777Y-11921000D01*
X4517223Y-11921000D01*
X4629471Y-11898672D01*
X4735207Y-11854875D01*
X4830366Y-11791292D01*
X4911292Y-11710366D01*
X4974875Y-11615207D01*
X5018672Y-11509471D01*
X5021789Y-11493803D01*
X5493992Y-11021600D01*
X6600728Y-11021600D01*
X6637882Y-11077205D01*
X6711277Y-11150600D01*
X6637882Y-11223995D01*
X6600728Y-11279600D01*
X5949254Y-11279600D01*
X5924400Y-11277152D01*
X5899546Y-11279600D01*
X5825207Y-11286922D01*
X5729825Y-11315855D01*
X5641921Y-11362841D01*
X5564873Y-11426073D01*
X5549028Y-11445380D01*
X4496198Y-12498211D01*
X4480529Y-12501328D01*
X4374793Y-12545125D01*
X4279634Y-12608708D01*
X4198708Y-12689634D01*
X4135125Y-12784793D01*
X4091328Y-12890529D01*
X4069000Y-13002777D01*
X4069000Y-13117223D01*
X4091328Y-13229471D01*
X4135125Y-13335207D01*
X4198708Y-13430366D01*
X4279634Y-13511292D01*
X4313619Y-13534000D01*
X3264854Y-13534000D01*
X3240000Y-13531552D01*
X3215146Y-13534000D01*
X3140807Y-13541322D01*
X3045425Y-13570255D01*
X2957521Y-13617241D01*
X2880473Y-13680473D01*
X2864629Y-13699779D01*
X2596197Y-13968211D01*
X2580529Y-13971328D01*
X2474793Y-14015125D01*
X2379634Y-14078708D01*
X2343089Y-14115253D01*
X2309471Y-14101328D01*
X2197223Y-14079000D01*
X2082777Y-14079000D01*
X1970529Y-14101328D01*
X1864793Y-14145125D01*
X1769634Y-14208708D01*
X1756202Y-14222140D01*
X1744875Y-14194793D01*
X1681292Y-14099634D01*
X1600366Y-14018708D01*
X1505207Y-13955125D01*
X1399471Y-13911328D01*
X1287223Y-13889000D01*
X1172777Y-13889000D01*
X1060529Y-13911328D01*
X954793Y-13955125D01*
X859634Y-14018708D01*
X778708Y-14099634D01*
X715125Y-14194793D01*
X671328Y-14300529D01*
X659432Y-14360331D01*
X520764Y-14499000D01*
X-9820763Y-14499000D01*
X-15848999Y-8470765D01*
X-15848999Y-5839360D01*
X-15730300Y-5839360D01*
X-15730300Y-6160640D01*
X-15667622Y-6475745D01*
X-15544674Y-6772568D01*
X-15366181Y-7039702D01*
X-15139002Y-7266881D01*
X-14871868Y-7445374D01*
X-14575045Y-7568322D01*
X-14259940Y-7631000D01*
X-13938660Y-7631000D01*
X-13623555Y-7568322D01*
X-13326732Y-7445374D01*
X-13059598Y-7266881D01*
X-12832419Y-7039702D01*
X-12653926Y-6772568D01*
X-12530978Y-6475745D01*
X-12468300Y-6160640D01*
X-12468300Y-5839360D01*
X-12530978Y-5524255D01*
X-12653926Y-5227432D01*
X-12832419Y-4960298D01*
X-13059598Y-4733119D01*
X-13326732Y-4554626D01*
X-13623555Y-4431678D01*
X-13938660Y-4369000D01*
X-14259940Y-4369000D01*
X-14575045Y-4431678D01*
X-14871868Y-4554626D01*
X-15139002Y-4733119D01*
X-15366181Y-4960298D01*
X-15544674Y-5227432D01*
X-15667622Y-5524255D01*
X-15730300Y-5839360D01*
X-15848999Y-5839360D01*
X-15848999Y-2391004D01*
X-15759634Y-2331292D01*
X-15678708Y-2250366D01*
X-15615125Y-2155207D01*
X-15571328Y-2049471D01*
X-15549000Y-1937223D01*
X-15549000Y-1822777D01*
X-15571328Y-1710529D01*
X-15615125Y-1604793D01*
X-15678708Y-1509634D01*
X-15759634Y-1428708D01*
X-15854793Y-1365125D01*
X-15960529Y-1321328D01*
X-16072777Y-1299000D01*
X-16187223Y-1299000D01*
X-16299471Y-1321328D01*
X-16405207Y-1365125D01*
X-16500366Y-1428708D01*
X-16519000Y-1447342D01*
X-16519000Y-865905D01*
X-16485125Y-815207D01*
X-16441328Y-709471D01*
X-16419000Y-597223D01*
X-16419000Y-482777D01*
X-16441328Y-370529D01*
X-16485125Y-264793D01*
X-16548708Y-169634D01*
X-16629634Y-88708D01*
X-16724793Y-25125D01*
X-16785450Y0D01*
X-7926000Y0D01*
X-7841536Y-1154035D01*
X-7589942Y-2283473D01*
X-7176583Y-3364244D01*
X-6610267Y-4373311D01*
X-5903064Y-5289169D01*
X-5070048Y-6092297D01*
X-4128973Y-6765579D01*
X-3099896Y-7294664D01*
X-2004750Y-7668276D01*
X-866876Y-7878452D01*
X289474Y-7920712D01*
X1439654Y-7794156D01*
X2559150Y-7501482D01*
X3624103Y-7048926D01*
X4611814Y-6446134D01*
X5340929Y-5839360D01*
X12469700Y-5839360D01*
X12469700Y-6160640D01*
X12532378Y-6475745D01*
X12655326Y-6772568D01*
X12833819Y-7039702D01*
X13060998Y-7266881D01*
X13328132Y-7445374D01*
X13624955Y-7568322D01*
X13940060Y-7631000D01*
X14261340Y-7631000D01*
X14576445Y-7568322D01*
X14873268Y-7445374D01*
X15140402Y-7266881D01*
X15367581Y-7039702D01*
X15546074Y-6772568D01*
X15669022Y-6475745D01*
X15731700Y-6160640D01*
X15731700Y-5839360D01*
X15669022Y-5524255D01*
X15546074Y-5227432D01*
X15367581Y-4960298D01*
X15140402Y-4733119D01*
X14873268Y-4554626D01*
X14576445Y-4431678D01*
X14261340Y-4369000D01*
X13940060Y-4369000D01*
X13624955Y-4431678D01*
X13328132Y-4554626D01*
X13060998Y-4733119D01*
X12833819Y-4960298D01*
X12655326Y-5227432D01*
X12532378Y-5524255D01*
X12469700Y-5839360D01*
X5340929Y-5839360D01*
X5501232Y-5705955D01*
X6273401Y-4844163D01*
X6911864Y-3879126D01*
X7403012Y-2831412D01*
X7736377Y-1723352D01*
X7904856Y-578561D01*
X7904856Y578561D01*
X7736377Y1723352D01*
X7403012Y2831412D01*
X6911864Y3879126D01*
X6273401Y4844163D01*
X5501232Y5705955D01*
X4954871Y6160640D01*
X12469700Y6160640D01*
X12469700Y5839360D01*
X12532378Y5524255D01*
X12655326Y5227432D01*
X12833819Y4960298D01*
X13060998Y4733119D01*
X13328132Y4554626D01*
X13624955Y4431678D01*
X13940060Y4369000D01*
X14261340Y4369000D01*
X14576445Y4431678D01*
X14873268Y4554626D01*
X15140402Y4733119D01*
X15367581Y4960298D01*
X15546074Y5227432D01*
X15669022Y5524255D01*
X15731700Y5839360D01*
X15731700Y6160640D01*
X15669022Y6475745D01*
X15546074Y6772568D01*
X15367581Y7039702D01*
X15140402Y7266881D01*
X14873268Y7445374D01*
X14576445Y7568322D01*
X14261340Y7631000D01*
X13940060Y7631000D01*
X13624955Y7568322D01*
X13328132Y7445374D01*
X13060998Y7266881D01*
X12833819Y7039702D01*
X12655326Y6772568D01*
X12532378Y6475745D01*
X12469700Y6160640D01*
X4954871Y6160640D01*
X4611814Y6446134D01*
X3624103Y7048926D01*
X2559150Y7501482D01*
X1439654Y7794156D01*
X289474Y7920712D01*
X-866876Y7878452D01*
X-2004750Y7668276D01*
X-3099896Y7294664D01*
X-4128973Y6765579D01*
X-5070048Y6092297D01*
X-5903064Y5289169D01*
X-6610267Y4373311D01*
X-7176583Y3364244D01*
X-7589942Y2283473D01*
X-7841536Y1154035D01*
X-7926000Y0D01*
X-16785450Y0D01*
X-16830529Y18672D01*
X-16942777Y41000D01*
X-17057223Y41000D01*
X-17169471Y18672D01*
X-17275207Y-25125D01*
X-17370366Y-88708D01*
X-17451292Y-169634D01*
X-17514875Y-264793D01*
X-17558672Y-370529D01*
X-17581000Y-482777D01*
X-17581000Y-597223D01*
X-17558672Y-709471D01*
X-17514875Y-815207D01*
X-17480999Y-865906D01*
X-17481000Y-8656374D01*
X-17483327Y-8680000D01*
X-17481000Y-8703625D01*
X-17474040Y-8774291D01*
X-17446536Y-8864960D01*
X-17401872Y-8948522D01*
X-17341764Y-9021764D01*
X-17323406Y-9036830D01*
X-10336825Y-16023412D01*
X-10321764Y-16041764D01*
X-10248522Y-16101872D01*
X-10164961Y-16146536D01*
X-10074292Y-16174040D01*
X-10003626Y-16181000D01*
X-10003625Y-16181000D01*
X-9980001Y-16183327D01*
X-9956377Y-16181000D01*
X1416374Y-16181000D01*
X1440000Y-16183327D01*
X1463626Y-16181000D01*
X1534292Y-16174040D01*
X1624961Y-16146536D01*
X1708522Y-16101872D01*
X1781764Y-16041764D01*
X1796830Y-16023406D01*
X2373411Y-15446826D01*
X2391764Y-15431764D01*
X2451872Y-15358522D01*
X2496536Y-15274960D01*
X2500556Y-15261708D01*
X2541872Y-15211364D01*
X2586536Y-15127803D01*
X2597389Y-15092026D01*
X2692777Y-15111000D01*
X2807223Y-15111000D01*
X2919471Y-15088672D01*
X3025207Y-15044875D01*
X3120366Y-14981292D01*
X3201292Y-14900366D01*
X3264875Y-14805207D01*
X3308672Y-14699471D01*
X3311789Y-14683803D01*
X3449592Y-14546000D01*
X5245154Y-14546000D01*
X5270000Y-14548447D01*
X5294846Y-14546000D01*
X5294854Y-14546000D01*
X5369193Y-14538678D01*
X5464575Y-14509745D01*
X5552479Y-14462759D01*
X5629527Y-14399527D01*
X5645376Y-14380215D01*
X6463992Y-13561600D01*
X6600728Y-13561600D01*
X6637882Y-13617205D01*
X6711277Y-13690600D01*
X6637882Y-13763995D01*
X6541468Y-13908290D01*
X6475056Y-14068622D01*
X6441200Y-14238829D01*
X6441200Y-14412371D01*
X6475056Y-14582578D01*
X6541468Y-14742910D01*
X6637882Y-14887205D01*
X6711277Y-14960600D01*
X6637882Y-15033995D01*
X6541468Y-15178290D01*
X6475056Y-15338622D01*
X6441200Y-15508829D01*
X6441200Y-15682371D01*
X6475056Y-15852578D01*
X6541468Y-16012910D01*
X6637882Y-16157205D01*
X6711277Y-16230600D01*
X6637882Y-16303995D01*
X6541468Y-16448290D01*
X6475056Y-16608622D01*
X6441200Y-16778829D01*
X6441200Y-16952371D01*
X6475056Y-17122578D01*
X6541468Y-17282910D01*
X6580394Y-17341168D01*
X6551489Y-17364889D01*
X6503878Y-17422904D01*
X6468499Y-17489092D01*
X6446713Y-17560911D01*
X6439357Y-17635600D01*
X6439357Y-18635600D01*
X6446713Y-18710289D01*
X6468499Y-18782108D01*
X6503878Y-18848296D01*
X6551489Y-18906311D01*
X6609504Y-18953922D01*
X6675692Y-18989301D01*
X6747511Y-19011087D01*
X6822200Y-19018443D01*
X7822200Y-19018443D01*
X7896889Y-19011087D01*
X7968708Y-18989301D01*
X8034896Y-18953922D01*
X8092911Y-18906311D01*
X8140522Y-18848296D01*
X8175901Y-18782108D01*
X8197687Y-18710289D01*
X8204452Y-18641600D01*
X10805714Y-18641600D01*
X10830560Y-18644047D01*
X10855406Y-18641600D01*
X10855414Y-18641600D01*
X10929753Y-18634278D01*
X11025135Y-18605345D01*
X11113039Y-18558359D01*
X11190087Y-18495127D01*
X11205936Y-18475815D01*
X12578559Y-17103192D01*
X12606765Y-17171287D01*
X12670348Y-17266446D01*
X12751274Y-17347372D01*
X12846433Y-17410955D01*
X12952169Y-17454752D01*
X13064417Y-17477080D01*
X13178863Y-17477080D01*
X13291111Y-17454752D01*
X13396847Y-17410955D01*
X13410129Y-17402080D01*
X17132202Y-17402080D01*
X17234449Y-17444432D01*
X17301271Y-17457724D01*
X16322305Y-18397487D01*
X14828530Y-19621415D01*
X13243349Y-20724355D01*
X11576509Y-21699530D01*
X9838301Y-22540919D01*
X8039415Y-23243343D01*
X6190995Y-23802453D01*
X4304381Y-24214820D01*
X2391249Y-24477890D01*
X463351Y-24590048D01*
X-1467381Y-24550601D01*
X-3389077Y-24359789D01*
X-5289865Y-24018795D01*
X-7158067Y-23529710D01*
X-8982122Y-22895559D01*
X-10750786Y-22120257D01*
X-12453186Y-21208567D01*
X-14078791Y-20166131D01*
X-14509757Y-19839360D01*
X-1630300Y-19839360D01*
X-1630300Y-20160640D01*
X-1567622Y-20475745D01*
X-1444674Y-20772568D01*
X-1266181Y-21039702D01*
X-1039002Y-21266881D01*
X-771868Y-21445374D01*
X-475045Y-21568322D01*
X-159940Y-21631000D01*
X161340Y-21631000D01*
X476445Y-21568322D01*
X773268Y-21445374D01*
X1040402Y-21266881D01*
X1267581Y-21039702D01*
X1446074Y-20772568D01*
X1569022Y-20475745D01*
X1631700Y-20160640D01*
X1631700Y-19839360D01*
X1569022Y-19524255D01*
X1446074Y-19227432D01*
X1267581Y-18960298D01*
X1040402Y-18733119D01*
X773268Y-18554626D01*
X476445Y-18431678D01*
X161340Y-18369000D01*
X-159940Y-18369000D01*
X-475045Y-18431678D01*
X-771868Y-18554626D01*
X-1039002Y-18733119D01*
X-1266181Y-18960298D01*
X-1444674Y-19227432D01*
X-1567622Y-19524255D01*
X-1630300Y-19839360D01*
X-14509757Y-19839360D01*
X-15617628Y-18999340D01*
X-17060142Y-17715438D01*
X-18397487Y-16322305D01*
X-19624042Y-14825322D01*
X-20094001Y-14178445D01*
X-20093999Y6160640D01*
X-15730300Y6160640D01*
X-15730300Y5839360D01*
X-15667622Y5524255D01*
X-15544674Y5227432D01*
X-15366181Y4960298D01*
X-15139002Y4733119D01*
X-14871868Y4554626D01*
X-14575045Y4431678D01*
X-14259940Y4369000D01*
X-13938660Y4369000D01*
X-13623555Y4431678D01*
X-13326732Y4554626D01*
X-13059598Y4733119D01*
X-12832419Y4960298D01*
X-12653926Y5227432D01*
X-12530978Y5524255D01*
X-12468300Y5839360D01*
X-12468300Y6160640D01*
X-12530978Y6475745D01*
X-12653926Y6772568D01*
X-12832419Y7039702D01*
X-13059598Y7266881D01*
X-13326732Y7445374D01*
X-13623555Y7568322D01*
X-13938660Y7631000D01*
X-14259940Y7631000D01*
X-14575045Y7568322D01*
X-14871868Y7445374D01*
X-15139002Y7266881D01*
X-15366181Y7039702D01*
X-15544674Y6772568D01*
X-15667622Y6475745D01*
X-15730300Y6160640D01*
X-20093999Y6160640D01*
X-20093998Y14173855D01*
X-19000134Y15616660D01*
X-17716294Y17059252D01*
X-16323230Y18396667D01*
X-15855300Y18780105D01*
X-15855300Y16510000D01*
X-15847979Y16435671D01*
X-15826298Y16364198D01*
X-15791090Y16298328D01*
X-15743708Y16240592D01*
X-15685972Y16193210D01*
X-15620102Y16158002D01*
X-15548629Y16136321D01*
X-15474300Y16129000D01*
X-4576000Y16129000D01*
X-4576000Y15931014D01*
X-6521013Y13986000D01*
X-6557394Y13986000D01*
X-6587159Y13988932D01*
X-6616924Y13986000D01*
X-6616928Y13986000D01*
X-6705955Y13977232D01*
X-6783529Y13953700D01*
X-6932070Y13953700D01*
X-7021097Y13944932D01*
X-7135328Y13910280D01*
X-7240604Y13854008D01*
X-7332880Y13778280D01*
X-7408608Y13686004D01*
X-7464880Y13580728D01*
X-7499532Y13466497D01*
X-7511232Y13347700D01*
X-7499532Y13228903D01*
X-7464880Y13114672D01*
X-7408608Y13009396D01*
X-7332880Y12917120D01*
X-7240604Y12841392D01*
X-7135328Y12785120D01*
X-7021097Y12750468D01*
X-6932070Y12741700D01*
X-6649223Y12741700D01*
X-6619458Y12738768D01*
X-6589693Y12741700D01*
X-6589688Y12741700D01*
X-6500661Y12750468D01*
X-6423087Y12774000D01*
X-6299765Y12774000D01*
X-6270000Y12771068D01*
X-6240235Y12774000D01*
X-6240230Y12774000D01*
X-6151203Y12782768D01*
X-6036972Y12817420D01*
X-5931696Y12873692D01*
X-5839420Y12949420D01*
X-5820442Y12972545D01*
X-3562538Y15230448D01*
X-3539420Y15249420D01*
X-3520447Y15272539D01*
X-3520443Y15272543D01*
X-3463692Y15341695D01*
X-3413146Y15436260D01*
X-3407420Y15446972D01*
X-3372768Y15561203D01*
X-3364000Y15650230D01*
X-3364000Y15650242D01*
X-3361069Y15679999D01*
X-3364000Y15709757D01*
X-3364000Y16129000D01*
X-2774300Y16129000D01*
X-2699971Y16136321D01*
X-2628498Y16158002D01*
X-2562628Y16193210D01*
X-2504892Y16240592D01*
X-2457510Y16298328D01*
X-2422302Y16364198D01*
X-2400621Y16435671D01*
X-2393300Y16510000D01*
X-2393300Y20160640D01*
X-1630300Y20160640D01*
X-1630300Y19839360D01*
X-1567622Y19524255D01*
X-1444674Y19227432D01*
X-1266181Y18960298D01*
X-1039002Y18733119D01*
X-771868Y18554626D01*
X-475045Y18431678D01*
X-159940Y18369000D01*
X161340Y18369000D01*
X476445Y18431678D01*
X773268Y18554626D01*
X1040402Y18733119D01*
X1267581Y18960298D01*
X1446074Y19227432D01*
X1569022Y19524255D01*
X1631700Y19839360D01*
X1631700Y20160640D01*
X1569022Y20475745D01*
X1446074Y20772568D01*
X1267581Y21039702D01*
X1040402Y21266881D01*
X773268Y21445374D01*
X476445Y21568322D01*
X161340Y21631000D01*
X-159940Y21631000D01*
X-475045Y21568322D01*
X-771868Y21445374D01*
X-1039002Y21266881D01*
X-1266181Y21039702D01*
X-1444674Y20772568D01*
X-1567622Y20475745D01*
X-1630300Y20160640D01*
X-2393300Y20160640D01*
X-2393300Y24477658D01*
X-2392474Y24477771D01*
X-464593Y24590025D01*
X1466155Y24550674D01*
G37*
X1466155Y24550674D02*
X3387850Y24359960D01*
X5288667Y24019059D01*
X7156884Y23530070D01*
X8980962Y22896015D01*
X10749677Y22120797D01*
X12452128Y21209189D01*
X14077790Y20166830D01*
X15616660Y19000134D01*
X17059252Y17716294D01*
X18396667Y16323230D01*
X19623290Y14826318D01*
X20093997Y14178444D01*
X20093282Y-14174868D01*
X18999340Y-15617628D01*
X17973349Y-16770369D01*
X17962592Y-16716289D01*
X17918795Y-16610553D01*
X17855212Y-16515394D01*
X17774286Y-16434468D01*
X17679127Y-16370885D01*
X17573391Y-16327088D01*
X17461143Y-16304760D01*
X17346697Y-16304760D01*
X17234449Y-16327088D01*
X17128713Y-16370885D01*
X17099986Y-16390080D01*
X13410129Y-16390080D01*
X13396847Y-16381205D01*
X13291111Y-16337408D01*
X13178863Y-16315080D01*
X13064417Y-16315080D01*
X13008062Y-16326290D01*
X12965955Y-16224633D01*
X12902372Y-16129474D01*
X12821446Y-16048548D01*
X12726287Y-15984965D01*
X12620551Y-15941168D01*
X12508303Y-15918840D01*
X12393857Y-15918840D01*
X12281609Y-15941168D01*
X12175873Y-15984965D01*
X12080714Y-16048548D01*
X11999788Y-16129474D01*
X11936205Y-16224633D01*
X11892408Y-16330369D01*
X11885507Y-16365061D01*
X10620969Y-17629600D01*
X8204452Y-17629600D01*
X8197687Y-17560911D01*
X8175901Y-17489092D01*
X8140522Y-17422904D01*
X8098418Y-17371600D01*
X8499392Y-17371600D01*
X8524238Y-17374047D01*
X8549084Y-17371600D01*
X8549092Y-17371600D01*
X8623431Y-17364278D01*
X8718813Y-17335345D01*
X8806717Y-17288359D01*
X8883765Y-17225127D01*
X8899614Y-17205815D01*
X10760843Y-15344587D01*
X10776511Y-15341470D01*
X10882247Y-15297673D01*
X10977406Y-15234090D01*
X11058332Y-15153164D01*
X11121915Y-15058005D01*
X11165712Y-14952269D01*
X11188040Y-14840021D01*
X11188040Y-14725575D01*
X11165712Y-14613327D01*
X11121915Y-14507591D01*
X11058332Y-14412432D01*
X10977406Y-14331506D01*
X10882247Y-14267923D01*
X10776511Y-14224126D01*
X10664263Y-14201798D01*
X10549817Y-14201798D01*
X10437569Y-14224126D01*
X10331833Y-14267923D01*
X10236674Y-14331506D01*
X10155748Y-14412432D01*
X10092165Y-14507591D01*
X10048368Y-14613327D01*
X10045251Y-14628995D01*
X8314647Y-16359600D01*
X8043672Y-16359600D01*
X8006518Y-16303995D01*
X7933123Y-16230600D01*
X8006518Y-16157205D01*
X8042933Y-16102705D01*
X8054152Y-16101600D01*
X8054160Y-16101600D01*
X8128499Y-16094278D01*
X8223881Y-16065345D01*
X8311785Y-16018359D01*
X8388833Y-15955127D01*
X8404682Y-15935815D01*
X10029232Y-14311266D01*
X10066208Y-14311266D01*
X10091054Y-14313713D01*
X10115900Y-14311266D01*
X10115908Y-14311266D01*
X10190247Y-14303944D01*
X10285629Y-14275011D01*
X10373533Y-14228025D01*
X10450581Y-14164793D01*
X10466430Y-14145481D01*
X10938643Y-13673269D01*
X10954311Y-13670152D01*
X11060047Y-13626355D01*
X11155206Y-13562772D01*
X11236132Y-13481846D01*
X11299715Y-13386687D01*
X11343512Y-13280951D01*
X11365840Y-13168703D01*
X11365840Y-13063760D01*
X11596623Y-13063760D01*
X11621469Y-13066207D01*
X11646315Y-13063760D01*
X11646323Y-13063760D01*
X11720662Y-13056438D01*
X11816044Y-13027505D01*
X11903948Y-12980519D01*
X11980996Y-12917287D01*
X11996845Y-12897975D01*
X12591624Y-12303197D01*
X12607292Y-12300080D01*
X12713028Y-12256283D01*
X12808187Y-12192700D01*
X12889113Y-12111774D01*
X12952696Y-12016615D01*
X12996493Y-11910879D01*
X13018821Y-11798631D01*
X13018821Y-11684185D01*
X12996493Y-11571937D01*
X12952696Y-11466201D01*
X12889113Y-11371042D01*
X12808187Y-11290116D01*
X12713028Y-11226533D01*
X12607292Y-11182736D01*
X12495044Y-11160408D01*
X12380598Y-11160408D01*
X12268350Y-11182736D01*
X12162614Y-11226533D01*
X12067455Y-11290116D01*
X11986529Y-11371042D01*
X11922946Y-11466201D01*
X11879149Y-11571937D01*
X11876032Y-11587605D01*
X11411878Y-12051760D01*
X9114885Y-12051760D01*
X9090039Y-12049313D01*
X9065193Y-12051760D01*
X9065186Y-12051760D01*
X9000734Y-12058108D01*
X8990846Y-12059082D01*
X8968647Y-12065816D01*
X8895465Y-12088015D01*
X8807561Y-12135001D01*
X8730513Y-12198233D01*
X8714669Y-12217539D01*
X8158871Y-12773338D01*
X8102932Y-12638290D01*
X8006518Y-12493995D01*
X7933123Y-12420600D01*
X8006518Y-12347205D01*
X8102932Y-12202910D01*
X8169344Y-12042578D01*
X8203200Y-11872371D01*
X8203200Y-11698829D01*
X8169344Y-11528622D01*
X8102932Y-11368290D01*
X8006518Y-11223995D01*
X7933123Y-11150600D01*
X8006518Y-11077205D01*
X8102932Y-10932910D01*
X8169344Y-10772578D01*
X8203200Y-10602371D01*
X8203200Y-10428829D01*
X8185837Y-10341537D01*
X11588140Y-10341537D01*
X11588140Y-10455983D01*
X11610468Y-10568231D01*
X11654265Y-10673967D01*
X11717848Y-10769126D01*
X11798774Y-10850052D01*
X11893933Y-10913635D01*
X11999669Y-10957432D01*
X12111917Y-10979760D01*
X12226363Y-10979760D01*
X12338611Y-10957432D01*
X12444347Y-10913635D01*
X12539506Y-10850052D01*
X12620432Y-10769126D01*
X12684015Y-10673967D01*
X12727812Y-10568231D01*
X12739708Y-10508429D01*
X13219277Y-10028860D01*
X14469595Y-10028860D01*
X14520293Y-10062735D01*
X14626029Y-10106532D01*
X14738277Y-10128860D01*
X14852723Y-10128860D01*
X14964971Y-10106532D01*
X15070707Y-10062735D01*
X15165866Y-9999152D01*
X15246792Y-9918226D01*
X15310375Y-9823067D01*
X15354172Y-9717331D01*
X15376500Y-9605083D01*
X15376500Y-9490637D01*
X15354172Y-9378389D01*
X15310375Y-9272653D01*
X15246792Y-9177494D01*
X15165866Y-9096568D01*
X15070707Y-9032985D01*
X14964971Y-8989188D01*
X14852723Y-8966860D01*
X14738277Y-8966860D01*
X14626029Y-8989188D01*
X14520293Y-9032985D01*
X14469595Y-9066860D01*
X13043663Y-9066860D01*
X13020039Y-9064533D01*
X12996415Y-9066860D01*
X12996414Y-9066860D01*
X12925748Y-9073820D01*
X12835079Y-9101324D01*
X12751518Y-9145988D01*
X12678276Y-9206096D01*
X12663215Y-9224449D01*
X12059471Y-9828192D01*
X11999669Y-9840088D01*
X11893933Y-9883885D01*
X11798774Y-9947468D01*
X11717848Y-10028394D01*
X11654265Y-10123553D01*
X11610468Y-10229289D01*
X11588140Y-10341537D01*
X8185837Y-10341537D01*
X8169344Y-10258622D01*
X8102932Y-10098290D01*
X8006518Y-9953995D01*
X7933123Y-9880600D01*
X8006518Y-9807205D01*
X8102932Y-9662910D01*
X8169344Y-9502578D01*
X8203200Y-9332371D01*
X8203200Y-9158829D01*
X8169344Y-8988622D01*
X8102932Y-8828290D01*
X8006518Y-8683995D01*
X7883805Y-8561282D01*
X7739510Y-8464868D01*
X7579178Y-8398456D01*
X7408971Y-8364600D01*
X7235429Y-8364600D01*
X7065222Y-8398456D01*
X6904890Y-8464868D01*
X6760595Y-8561282D01*
X6637882Y-8683995D01*
X6541468Y-8828290D01*
X6475056Y-8988622D01*
X6441200Y-9158829D01*
X6441200Y-9332371D01*
X6454247Y-9397962D01*
X6321657Y-9530552D01*
X3001277Y-9530552D01*
X2976431Y-9528105D01*
X2951585Y-9530552D01*
X2951578Y-9530552D01*
X2887126Y-9536900D01*
X2877238Y-9537874D01*
X2855039Y-9544608D01*
X2781857Y-9566807D01*
X2693953Y-9613793D01*
X2618712Y-9675542D01*
X2606962Y-9677879D01*
X2552214Y-9700556D01*
X2510366Y-9658708D01*
X2415207Y-9595125D01*
X2309471Y-9551328D01*
X2197223Y-9529000D01*
X2082777Y-9529000D01*
X1970529Y-9551328D01*
X1864793Y-9595125D01*
X1769634Y-9658708D01*
X1688708Y-9739634D01*
X1625125Y-9834793D01*
X1623382Y-9839000D01*
X945905Y-9839000D01*
X895207Y-9805125D01*
X789471Y-9761328D01*
X677223Y-9739000D01*
X562777Y-9739000D01*
X450529Y-9761328D01*
X344793Y-9805125D01*
X249634Y-9868708D01*
X168708Y-9949634D01*
X105125Y-10044793D01*
X61328Y-10150529D01*
X39000Y-10262777D01*
X39000Y-10377223D01*
X61328Y-10489471D01*
X105125Y-10595207D01*
X168708Y-10690366D01*
X249634Y-10771292D01*
X344793Y-10834875D01*
X450529Y-10878672D01*
X562777Y-10901000D01*
X677223Y-10901000D01*
X789471Y-10878672D01*
X895207Y-10834875D01*
X945905Y-10801000D01*
X1906374Y-10801000D01*
X1930000Y-10803327D01*
X1953626Y-10801000D01*
X1983284Y-10798079D01*
X2024292Y-10794040D01*
X2114961Y-10766536D01*
X2198522Y-10721872D01*
X2248590Y-10680782D01*
X2309471Y-10668672D01*
X2364219Y-10645995D01*
X2406067Y-10687843D01*
X2501226Y-10751426D01*
X2606962Y-10795223D01*
X2719210Y-10817551D01*
X2833656Y-10817551D01*
X2945904Y-10795223D01*
X3051640Y-10751426D01*
X3146799Y-10687843D01*
X3227725Y-10606917D01*
X3270732Y-10542552D01*
X4541856Y-10542552D01*
X4306197Y-10778211D01*
X4290529Y-10781328D01*
X4184793Y-10825125D01*
X4089634Y-10888708D01*
X4008708Y-10969634D01*
X3945125Y-11064793D01*
X3901328Y-11170529D01*
X3879000Y-11282777D01*
X3879000Y-11397223D01*
X3901328Y-11509471D01*
X3945125Y-11615207D01*
X4008708Y-11710366D01*
X4089634Y-11791292D01*
X4184793Y-11854875D01*
X4290529Y-11898672D01*
X4402777Y-11921000D01*
X4517223Y-11921000D01*
X4629471Y-11898672D01*
X4735207Y-11854875D01*
X4830366Y-11791292D01*
X4911292Y-11710366D01*
X4974875Y-11615207D01*
X5018672Y-11509471D01*
X5021789Y-11493803D01*
X5493992Y-11021600D01*
X6600728Y-11021600D01*
X6637882Y-11077205D01*
X6711277Y-11150600D01*
X6637882Y-11223995D01*
X6600728Y-11279600D01*
X5949254Y-11279600D01*
X5924400Y-11277152D01*
X5899546Y-11279600D01*
X5825207Y-11286922D01*
X5729825Y-11315855D01*
X5641921Y-11362841D01*
X5564873Y-11426073D01*
X5549028Y-11445380D01*
X4496198Y-12498211D01*
X4480529Y-12501328D01*
X4374793Y-12545125D01*
X4279634Y-12608708D01*
X4198708Y-12689634D01*
X4135125Y-12784793D01*
X4091328Y-12890529D01*
X4069000Y-13002777D01*
X4069000Y-13117223D01*
X4091328Y-13229471D01*
X4135125Y-13335207D01*
X4198708Y-13430366D01*
X4279634Y-13511292D01*
X4313619Y-13534000D01*
X3264854Y-13534000D01*
X3240000Y-13531552D01*
X3215146Y-13534000D01*
X3140807Y-13541322D01*
X3045425Y-13570255D01*
X2957521Y-13617241D01*
X2880473Y-13680473D01*
X2864629Y-13699779D01*
X2596197Y-13968211D01*
X2580529Y-13971328D01*
X2474793Y-14015125D01*
X2379634Y-14078708D01*
X2343089Y-14115253D01*
X2309471Y-14101328D01*
X2197223Y-14079000D01*
X2082777Y-14079000D01*
X1970529Y-14101328D01*
X1864793Y-14145125D01*
X1769634Y-14208708D01*
X1756202Y-14222140D01*
X1744875Y-14194793D01*
X1681292Y-14099634D01*
X1600366Y-14018708D01*
X1505207Y-13955125D01*
X1399471Y-13911328D01*
X1287223Y-13889000D01*
X1172777Y-13889000D01*
X1060529Y-13911328D01*
X954793Y-13955125D01*
X859634Y-14018708D01*
X778708Y-14099634D01*
X715125Y-14194793D01*
X671328Y-14300529D01*
X659432Y-14360331D01*
X520764Y-14499000D01*
X-9820763Y-14499000D01*
X-15848999Y-8470765D01*
X-15848999Y-5839360D01*
X-15730300Y-5839360D01*
X-15730300Y-6160640D01*
X-15667622Y-6475745D01*
X-15544674Y-6772568D01*
X-15366181Y-7039702D01*
X-15139002Y-7266881D01*
X-14871868Y-7445374D01*
X-14575045Y-7568322D01*
X-14259940Y-7631000D01*
X-13938660Y-7631000D01*
X-13623555Y-7568322D01*
X-13326732Y-7445374D01*
X-13059598Y-7266881D01*
X-12832419Y-7039702D01*
X-12653926Y-6772568D01*
X-12530978Y-6475745D01*
X-12468300Y-6160640D01*
X-12468300Y-5839360D01*
X-12530978Y-5524255D01*
X-12653926Y-5227432D01*
X-12832419Y-4960298D01*
X-13059598Y-4733119D01*
X-13326732Y-4554626D01*
X-13623555Y-4431678D01*
X-13938660Y-4369000D01*
X-14259940Y-4369000D01*
X-14575045Y-4431678D01*
X-14871868Y-4554626D01*
X-15139002Y-4733119D01*
X-15366181Y-4960298D01*
X-15544674Y-5227432D01*
X-15667622Y-5524255D01*
X-15730300Y-5839360D01*
X-15848999Y-5839360D01*
X-15848999Y-2391004D01*
X-15759634Y-2331292D01*
X-15678708Y-2250366D01*
X-15615125Y-2155207D01*
X-15571328Y-2049471D01*
X-15549000Y-1937223D01*
X-15549000Y-1822777D01*
X-15571328Y-1710529D01*
X-15615125Y-1604793D01*
X-15678708Y-1509634D01*
X-15759634Y-1428708D01*
X-15854793Y-1365125D01*
X-15960529Y-1321328D01*
X-16072777Y-1299000D01*
X-16187223Y-1299000D01*
X-16299471Y-1321328D01*
X-16405207Y-1365125D01*
X-16500366Y-1428708D01*
X-16519000Y-1447342D01*
X-16519000Y-865905D01*
X-16485125Y-815207D01*
X-16441328Y-709471D01*
X-16419000Y-597223D01*
X-16419000Y-482777D01*
X-16441328Y-370529D01*
X-16485125Y-264793D01*
X-16548708Y-169634D01*
X-16629634Y-88708D01*
X-16724793Y-25125D01*
X-16785450Y0D01*
X-7926000Y0D01*
X-7841536Y-1154035D01*
X-7589942Y-2283473D01*
X-7176583Y-3364244D01*
X-6610267Y-4373311D01*
X-5903064Y-5289169D01*
X-5070048Y-6092297D01*
X-4128973Y-6765579D01*
X-3099896Y-7294664D01*
X-2004750Y-7668276D01*
X-866876Y-7878452D01*
X289474Y-7920712D01*
X1439654Y-7794156D01*
X2559150Y-7501482D01*
X3624103Y-7048926D01*
X4611814Y-6446134D01*
X5340929Y-5839360D01*
X12469700Y-5839360D01*
X12469700Y-6160640D01*
X12532378Y-6475745D01*
X12655326Y-6772568D01*
X12833819Y-7039702D01*
X13060998Y-7266881D01*
X13328132Y-7445374D01*
X13624955Y-7568322D01*
X13940060Y-7631000D01*
X14261340Y-7631000D01*
X14576445Y-7568322D01*
X14873268Y-7445374D01*
X15140402Y-7266881D01*
X15367581Y-7039702D01*
X15546074Y-6772568D01*
X15669022Y-6475745D01*
X15731700Y-6160640D01*
X15731700Y-5839360D01*
X15669022Y-5524255D01*
X15546074Y-5227432D01*
X15367581Y-4960298D01*
X15140402Y-4733119D01*
X14873268Y-4554626D01*
X14576445Y-4431678D01*
X14261340Y-4369000D01*
X13940060Y-4369000D01*
X13624955Y-4431678D01*
X13328132Y-4554626D01*
X13060998Y-4733119D01*
X12833819Y-4960298D01*
X12655326Y-5227432D01*
X12532378Y-5524255D01*
X12469700Y-5839360D01*
X5340929Y-5839360D01*
X5501232Y-5705955D01*
X6273401Y-4844163D01*
X6911864Y-3879126D01*
X7403012Y-2831412D01*
X7736377Y-1723352D01*
X7904856Y-578561D01*
X7904856Y578561D01*
X7736377Y1723352D01*
X7403012Y2831412D01*
X6911864Y3879126D01*
X6273401Y4844163D01*
X5501232Y5705955D01*
X4954871Y6160640D01*
X12469700Y6160640D01*
X12469700Y5839360D01*
X12532378Y5524255D01*
X12655326Y5227432D01*
X12833819Y4960298D01*
X13060998Y4733119D01*
X13328132Y4554626D01*
X13624955Y4431678D01*
X13940060Y4369000D01*
X14261340Y4369000D01*
X14576445Y4431678D01*
X14873268Y4554626D01*
X15140402Y4733119D01*
X15367581Y4960298D01*
X15546074Y5227432D01*
X15669022Y5524255D01*
X15731700Y5839360D01*
X15731700Y6160640D01*
X15669022Y6475745D01*
X15546074Y6772568D01*
X15367581Y7039702D01*
X15140402Y7266881D01*
X14873268Y7445374D01*
X14576445Y7568322D01*
X14261340Y7631000D01*
X13940060Y7631000D01*
X13624955Y7568322D01*
X13328132Y7445374D01*
X13060998Y7266881D01*
X12833819Y7039702D01*
X12655326Y6772568D01*
X12532378Y6475745D01*
X12469700Y6160640D01*
X4954871Y6160640D01*
X4611814Y6446134D01*
X3624103Y7048926D01*
X2559150Y7501482D01*
X1439654Y7794156D01*
X289474Y7920712D01*
X-866876Y7878452D01*
X-2004750Y7668276D01*
X-3099896Y7294664D01*
X-4128973Y6765579D01*
X-5070048Y6092297D01*
X-5903064Y5289169D01*
X-6610267Y4373311D01*
X-7176583Y3364244D01*
X-7589942Y2283473D01*
X-7841536Y1154035D01*
X-7926000Y0D01*
X-16785450Y0D01*
X-16830529Y18672D01*
X-16942777Y41000D01*
X-17057223Y41000D01*
X-17169471Y18672D01*
X-17275207Y-25125D01*
X-17370366Y-88708D01*
X-17451292Y-169634D01*
X-17514875Y-264793D01*
X-17558672Y-370529D01*
X-17581000Y-482777D01*
X-17581000Y-597223D01*
X-17558672Y-709471D01*
X-17514875Y-815207D01*
X-17480999Y-865906D01*
X-17481000Y-8656374D01*
X-17483327Y-8680000D01*
X-17481000Y-8703625D01*
X-17474040Y-8774291D01*
X-17446536Y-8864960D01*
X-17401872Y-8948522D01*
X-17341764Y-9021764D01*
X-17323406Y-9036830D01*
X-10336825Y-16023412D01*
X-10321764Y-16041764D01*
X-10248522Y-16101872D01*
X-10164961Y-16146536D01*
X-10074292Y-16174040D01*
X-10003626Y-16181000D01*
X-10003625Y-16181000D01*
X-9980001Y-16183327D01*
X-9956377Y-16181000D01*
X1416374Y-16181000D01*
X1440000Y-16183327D01*
X1463626Y-16181000D01*
X1534292Y-16174040D01*
X1624961Y-16146536D01*
X1708522Y-16101872D01*
X1781764Y-16041764D01*
X1796830Y-16023406D01*
X2373411Y-15446826D01*
X2391764Y-15431764D01*
X2451872Y-15358522D01*
X2496536Y-15274960D01*
X2500556Y-15261708D01*
X2541872Y-15211364D01*
X2586536Y-15127803D01*
X2597389Y-15092026D01*
X2692777Y-15111000D01*
X2807223Y-15111000D01*
X2919471Y-15088672D01*
X3025207Y-15044875D01*
X3120366Y-14981292D01*
X3201292Y-14900366D01*
X3264875Y-14805207D01*
X3308672Y-14699471D01*
X3311789Y-14683803D01*
X3449592Y-14546000D01*
X5245154Y-14546000D01*
X5270000Y-14548447D01*
X5294846Y-14546000D01*
X5294854Y-14546000D01*
X5369193Y-14538678D01*
X5464575Y-14509745D01*
X5552479Y-14462759D01*
X5629527Y-14399527D01*
X5645376Y-14380215D01*
X6463992Y-13561600D01*
X6600728Y-13561600D01*
X6637882Y-13617205D01*
X6711277Y-13690600D01*
X6637882Y-13763995D01*
X6541468Y-13908290D01*
X6475056Y-14068622D01*
X6441200Y-14238829D01*
X6441200Y-14412371D01*
X6475056Y-14582578D01*
X6541468Y-14742910D01*
X6637882Y-14887205D01*
X6711277Y-14960600D01*
X6637882Y-15033995D01*
X6541468Y-15178290D01*
X6475056Y-15338622D01*
X6441200Y-15508829D01*
X6441200Y-15682371D01*
X6475056Y-15852578D01*
X6541468Y-16012910D01*
X6637882Y-16157205D01*
X6711277Y-16230600D01*
X6637882Y-16303995D01*
X6541468Y-16448290D01*
X6475056Y-16608622D01*
X6441200Y-16778829D01*
X6441200Y-16952371D01*
X6475056Y-17122578D01*
X6541468Y-17282910D01*
X6580394Y-17341168D01*
X6551489Y-17364889D01*
X6503878Y-17422904D01*
X6468499Y-17489092D01*
X6446713Y-17560911D01*
X6439357Y-17635600D01*
X6439357Y-18635600D01*
X6446713Y-18710289D01*
X6468499Y-18782108D01*
X6503878Y-18848296D01*
X6551489Y-18906311D01*
X6609504Y-18953922D01*
X6675692Y-18989301D01*
X6747511Y-19011087D01*
X6822200Y-19018443D01*
X7822200Y-19018443D01*
X7896889Y-19011087D01*
X7968708Y-18989301D01*
X8034896Y-18953922D01*
X8092911Y-18906311D01*
X8140522Y-18848296D01*
X8175901Y-18782108D01*
X8197687Y-18710289D01*
X8204452Y-18641600D01*
X10805714Y-18641600D01*
X10830560Y-18644047D01*
X10855406Y-18641600D01*
X10855414Y-18641600D01*
X10929753Y-18634278D01*
X11025135Y-18605345D01*
X11113039Y-18558359D01*
X11190087Y-18495127D01*
X11205936Y-18475815D01*
X12578559Y-17103192D01*
X12606765Y-17171287D01*
X12670348Y-17266446D01*
X12751274Y-17347372D01*
X12846433Y-17410955D01*
X12952169Y-17454752D01*
X13064417Y-17477080D01*
X13178863Y-17477080D01*
X13291111Y-17454752D01*
X13396847Y-17410955D01*
X13410129Y-17402080D01*
X17132202Y-17402080D01*
X17234449Y-17444432D01*
X17301271Y-17457724D01*
X16322305Y-18397487D01*
X14828530Y-19621415D01*
X13243349Y-20724355D01*
X11576509Y-21699530D01*
X9838301Y-22540919D01*
X8039415Y-23243343D01*
X6190995Y-23802453D01*
X4304381Y-24214820D01*
X2391249Y-24477890D01*
X463351Y-24590048D01*
X-1467381Y-24550601D01*
X-3389077Y-24359789D01*
X-5289865Y-24018795D01*
X-7158067Y-23529710D01*
X-8982122Y-22895559D01*
X-10750786Y-22120257D01*
X-12453186Y-21208567D01*
X-14078791Y-20166131D01*
X-14509757Y-19839360D01*
X-1630300Y-19839360D01*
X-1630300Y-20160640D01*
X-1567622Y-20475745D01*
X-1444674Y-20772568D01*
X-1266181Y-21039702D01*
X-1039002Y-21266881D01*
X-771868Y-21445374D01*
X-475045Y-21568322D01*
X-159940Y-21631000D01*
X161340Y-21631000D01*
X476445Y-21568322D01*
X773268Y-21445374D01*
X1040402Y-21266881D01*
X1267581Y-21039702D01*
X1446074Y-20772568D01*
X1569022Y-20475745D01*
X1631700Y-20160640D01*
X1631700Y-19839360D01*
X1569022Y-19524255D01*
X1446074Y-19227432D01*
X1267581Y-18960298D01*
X1040402Y-18733119D01*
X773268Y-18554626D01*
X476445Y-18431678D01*
X161340Y-18369000D01*
X-159940Y-18369000D01*
X-475045Y-18431678D01*
X-771868Y-18554626D01*
X-1039002Y-18733119D01*
X-1266181Y-18960298D01*
X-1444674Y-19227432D01*
X-1567622Y-19524255D01*
X-1630300Y-19839360D01*
X-14509757Y-19839360D01*
X-15617628Y-18999340D01*
X-17060142Y-17715438D01*
X-18397487Y-16322305D01*
X-19624042Y-14825322D01*
X-20094001Y-14178445D01*
X-20093999Y6160640D01*
X-15730300Y6160640D01*
X-15730300Y5839360D01*
X-15667622Y5524255D01*
X-15544674Y5227432D01*
X-15366181Y4960298D01*
X-15139002Y4733119D01*
X-14871868Y4554626D01*
X-14575045Y4431678D01*
X-14259940Y4369000D01*
X-13938660Y4369000D01*
X-13623555Y4431678D01*
X-13326732Y4554626D01*
X-13059598Y4733119D01*
X-12832419Y4960298D01*
X-12653926Y5227432D01*
X-12530978Y5524255D01*
X-12468300Y5839360D01*
X-12468300Y6160640D01*
X-12530978Y6475745D01*
X-12653926Y6772568D01*
X-12832419Y7039702D01*
X-13059598Y7266881D01*
X-13326732Y7445374D01*
X-13623555Y7568322D01*
X-13938660Y7631000D01*
X-14259940Y7631000D01*
X-14575045Y7568322D01*
X-14871868Y7445374D01*
X-15139002Y7266881D01*
X-15366181Y7039702D01*
X-15544674Y6772568D01*
X-15667622Y6475745D01*
X-15730300Y6160640D01*
X-20093999Y6160640D01*
X-20093998Y14173855D01*
X-19000134Y15616660D01*
X-17716294Y17059252D01*
X-16323230Y18396667D01*
X-15855300Y18780105D01*
X-15855300Y16510000D01*
X-15847979Y16435671D01*
X-15826298Y16364198D01*
X-15791090Y16298328D01*
X-15743708Y16240592D01*
X-15685972Y16193210D01*
X-15620102Y16158002D01*
X-15548629Y16136321D01*
X-15474300Y16129000D01*
X-4576000Y16129000D01*
X-4576000Y15931014D01*
X-6521013Y13986000D01*
X-6557394Y13986000D01*
X-6587159Y13988932D01*
X-6616924Y13986000D01*
X-6616928Y13986000D01*
X-6705955Y13977232D01*
X-6783529Y13953700D01*
X-6932070Y13953700D01*
X-7021097Y13944932D01*
X-7135328Y13910280D01*
X-7240604Y13854008D01*
X-7332880Y13778280D01*
X-7408608Y13686004D01*
X-7464880Y13580728D01*
X-7499532Y13466497D01*
X-7511232Y13347700D01*
X-7499532Y13228903D01*
X-7464880Y13114672D01*
X-7408608Y13009396D01*
X-7332880Y12917120D01*
X-7240604Y12841392D01*
X-7135328Y12785120D01*
X-7021097Y12750468D01*
X-6932070Y12741700D01*
X-6649223Y12741700D01*
X-6619458Y12738768D01*
X-6589693Y12741700D01*
X-6589688Y12741700D01*
X-6500661Y12750468D01*
X-6423087Y12774000D01*
X-6299765Y12774000D01*
X-6270000Y12771068D01*
X-6240235Y12774000D01*
X-6240230Y12774000D01*
X-6151203Y12782768D01*
X-6036972Y12817420D01*
X-5931696Y12873692D01*
X-5839420Y12949420D01*
X-5820442Y12972545D01*
X-3562538Y15230448D01*
X-3539420Y15249420D01*
X-3520447Y15272539D01*
X-3520443Y15272543D01*
X-3463692Y15341695D01*
X-3413146Y15436260D01*
X-3407420Y15446972D01*
X-3372768Y15561203D01*
X-3364000Y15650230D01*
X-3364000Y15650242D01*
X-3361069Y15679999D01*
X-3364000Y15709757D01*
X-3364000Y16129000D01*
X-2774300Y16129000D01*
X-2699971Y16136321D01*
X-2628498Y16158002D01*
X-2562628Y16193210D01*
X-2504892Y16240592D01*
X-2457510Y16298328D01*
X-2422302Y16364198D01*
X-2400621Y16435671D01*
X-2393300Y16510000D01*
X-2393300Y20160640D01*
X-1630300Y20160640D01*
X-1630300Y19839360D01*
X-1567622Y19524255D01*
X-1444674Y19227432D01*
X-1266181Y18960298D01*
X-1039002Y18733119D01*
X-771868Y18554626D01*
X-475045Y18431678D01*
X-159940Y18369000D01*
X161340Y18369000D01*
X476445Y18431678D01*
X773268Y18554626D01*
X1040402Y18733119D01*
X1267581Y18960298D01*
X1446074Y19227432D01*
X1569022Y19524255D01*
X1631700Y19839360D01*
X1631700Y20160640D01*
X1569022Y20475745D01*
X1446074Y20772568D01*
X1267581Y21039702D01*
X1040402Y21266881D01*
X773268Y21445374D01*
X476445Y21568322D01*
X161340Y21631000D01*
X-159940Y21631000D01*
X-475045Y21568322D01*
X-771868Y21445374D01*
X-1039002Y21266881D01*
X-1266181Y21039702D01*
X-1444674Y20772568D01*
X-1567622Y20475745D01*
X-1630300Y20160640D01*
X-2393300Y20160640D01*
X-2393300Y24477658D01*
X-2392474Y24477771D01*
X-464593Y24590025D01*
X1466155Y24550674D01*
G36*
X-2901300Y16637000D02*
G01*
X-7592356Y16637000D01*
X-7494990Y16734365D01*
X-7411842Y16778809D01*
X-7327789Y16847789D01*
X-7258809Y16931842D01*
X-7207552Y17027737D01*
X-7175988Y17131789D01*
X-7165330Y17240000D01*
X-7175988Y17348211D01*
X-7207552Y17452263D01*
X-7258809Y17548158D01*
X-7327789Y17632211D01*
X-7411842Y17701191D01*
X-7507737Y17752448D01*
X-7611789Y17784012D01*
X-7692891Y17792000D01*
X-7742892Y17792000D01*
X-7770000Y17794670D01*
X-7797109Y17792000D01*
X-7878211Y17784012D01*
X-7982263Y17752448D01*
X-8078158Y17701191D01*
X-8162211Y17632211D01*
X-8179497Y17611148D01*
X-8459491Y17331153D01*
X-8511191Y17268157D01*
X-8562448Y17172262D01*
X-8594011Y17068210D01*
X-8604670Y16960000D01*
X-8594011Y16851790D01*
X-8562448Y16747738D01*
X-8511191Y16651843D01*
X-8499010Y16637000D01*
X-15347300Y16637000D01*
X-15347300Y19360572D01*
X-14906167Y19722052D01*
X-13312830Y20830787D01*
X-11637426Y21811085D01*
X-9890268Y22656914D01*
X-8082146Y23363050D01*
X-6224180Y23925149D01*
X-4327854Y24339738D01*
X-2901300Y24535973D01*
X-2901300Y16637000D01*
G37*
X-2901300Y16637000D02*
X-7592356Y16637000D01*
X-7494990Y16734365D01*
X-7411842Y16778809D01*
X-7327789Y16847789D01*
X-7258809Y16931842D01*
X-7207552Y17027737D01*
X-7175988Y17131789D01*
X-7165330Y17240000D01*
X-7175988Y17348211D01*
X-7207552Y17452263D01*
X-7258809Y17548158D01*
X-7327789Y17632211D01*
X-7411842Y17701191D01*
X-7507737Y17752448D01*
X-7611789Y17784012D01*
X-7692891Y17792000D01*
X-7742892Y17792000D01*
X-7770000Y17794670D01*
X-7797109Y17792000D01*
X-7878211Y17784012D01*
X-7982263Y17752448D01*
X-8078158Y17701191D01*
X-8162211Y17632211D01*
X-8179497Y17611148D01*
X-8459491Y17331153D01*
X-8511191Y17268157D01*
X-8562448Y17172262D01*
X-8594011Y17068210D01*
X-8604670Y16960000D01*
X-8594011Y16851790D01*
X-8562448Y16747738D01*
X-8511191Y16651843D01*
X-8499010Y16637000D01*
X-15347300Y16637000D01*
X-15347300Y19360572D01*
X-14906167Y19722052D01*
X-13312830Y20830787D01*
X-11637426Y21811085D01*
X-9890268Y22656914D01*
X-8082146Y23363050D01*
X-6224180Y23925149D01*
X-4327854Y24339738D01*
X-2901300Y24535973D01*
X-2901300Y16637000D01*
G36*
X3405364Y24485846D02*
G01*
X5315990Y24143186D01*
X7193865Y23651668D01*
X9027381Y23014333D01*
X10805229Y22235112D01*
X12516469Y21318798D01*
X14150544Y20271044D01*
X15259700Y19430137D01*
X15259700Y12827000D01*
X2813700Y12827000D01*
X2813700Y24544564D01*
X3405364Y24485846D01*
G37*
X3405364Y24485846D02*
X5315990Y24143186D01*
X7193865Y23651668D01*
X9027381Y23014333D01*
X10805229Y22235112D01*
X12516469Y21318798D01*
X14150544Y20271044D01*
X15259700Y19430137D01*
X15259700Y12827000D01*
X2813700Y12827000D01*
X2813700Y24544564D01*
X3405364Y24485846D01*
M02*
