M48
; DRILL file {KiCad 5.1.5-52549c5~84~ubuntu18.04.1} date Thu 19 Dec 2019 08:38:59 PM EST
; FORMAT={-:-/ absolute / inch / decimal}
; #@! TF.CreationDate,2019-12-19T20:38:59-05:00
; #@! TF.GenerationSoftware,Kicad,Pcbnew,5.1.5-52549c5~84~ubuntu18.04.1
; #@! TF.FileFunction,Plated,1,2,PTH
FMAT,2
INCH
T1C0.0118
T2C0.0256
%
G90
G05
T1
X-0.6256Y-0.0224
X-0.5283Y0.7472
X-0.4406Y0.0228
X-0.4406Y0.0071
X-0.4406Y-0.0087
X-0.4406Y-0.0248
X-0.4406Y-0.0406
X-0.4402Y-0.0563
X-0.4378Y-0.178
X-0.3832Y0.5629
X-0.3662Y0.5629
X-0.3497Y0.5629
X-0.3332Y0.5629
X-0.3165Y0.563
X-0.2878Y0.524
X-0.276Y0.5358
X-0.2728Y0.5701
X-0.2728Y0.5524
X-0.2727Y0.3505
X-0.2577Y-0.5077
X-0.2342Y0.6266
X-0.2201Y0.3512
X-0.0836Y-0.3789
X-0.0378Y-0.6268
X-0.0181Y-0.6075
X0.0067Y0.3819
X0.0075Y0.4469
X0.0512Y0.5594
X0.0752Y-0.5082
X0.0762Y-0.4725
X0.0839Y-0.6075
X0.1068Y-0.5872
X0.1089Y-0.395
X0.1146Y-0.4692
X0.1155Y-0.5079
X0.1175Y-0.3279
X0.1509Y-0.5599
X0.1598Y-0.4244
X0.1826Y-0.4591
X0.1873Y-0.5176
X0.273Y0.3599
X0.3268Y0.4161
X0.3919Y-0.7485
X0.3996Y-0.6697
X0.4009Y-0.6125
X0.4379Y-0.5902
X0.4641Y-0.7937
X0.4703Y-0.6178
X0.4733Y-0.668
X0.4832Y-0.5548
X0.4832Y-0.7298
X0.5192Y-0.6158
X0.5192Y-0.668
X0.5254Y-0.7242
X0.5672Y-0.5721
X0.6125Y-0.4637
X0.6576Y-0.5664
X0.7413Y0.0201
X0.7413Y0.0043
X0.7413Y-0.0114
X0.7413Y-0.0276
X0.7413Y-0.0433
X0.7417Y-0.0591
T2
X0.2883Y-0.364
X0.2883Y-0.414
X0.2883Y-0.464
X0.2883Y-0.514
X0.2883Y-0.564
X0.2883Y-0.614
X0.2883Y-0.664
X0.2883Y-0.714
T0
M30
