G04 #@! TF.GenerationSoftware,KiCad,Pcbnew,5.1.5-52549c5~84~ubuntu18.04.1*
G04 #@! TF.CreationDate,2019-12-19T20:38:57-05:00*
G04 #@! TF.ProjectId,SwarmBot,53776172-6d42-46f7-942e-6b696361645f,rev?*
G04 #@! TF.SameCoordinates,Original*
G04 #@! TF.FileFunction,Soldermask,Bot*
G04 #@! TF.FilePolarity,Negative*
%FSLAX46Y46*%
G04 Gerber Fmt 4.6, Leading zero omitted, Abs format (unit mm)*
G04 Created by KiCad (PCBNEW 5.1.5-52549c5~84~ubuntu18.04.1) date 2019-12-19 20:38:57*
%MOMM*%
%LPD*%
G04 APERTURE LIST*
%ADD10C,0.100000*%
G04 APERTURE END LIST*
D10*
G36*
X380187Y-18748996D02*
G01*
X616953Y-18847068D01*
X616955Y-18847069D01*
X830039Y-18989447D01*
X1011253Y-19170661D01*
X1153632Y-19383747D01*
X1251704Y-19620513D01*
X1301700Y-19871861D01*
X1301700Y-20128139D01*
X1251704Y-20379487D01*
X1153632Y-20616253D01*
X1153631Y-20616255D01*
X1011253Y-20829339D01*
X830039Y-21010553D01*
X616955Y-21152931D01*
X616954Y-21152932D01*
X616953Y-21152932D01*
X380187Y-21251004D01*
X128839Y-21301000D01*
X-127439Y-21301000D01*
X-378787Y-21251004D01*
X-615553Y-21152932D01*
X-615554Y-21152932D01*
X-615555Y-21152931D01*
X-828639Y-21010553D01*
X-1009853Y-20829339D01*
X-1152231Y-20616255D01*
X-1152232Y-20616253D01*
X-1250304Y-20379487D01*
X-1300300Y-20128139D01*
X-1300300Y-19871861D01*
X-1250304Y-19620513D01*
X-1152232Y-19383747D01*
X-1009853Y-19170661D01*
X-828639Y-18989447D01*
X-615555Y-18847069D01*
X-615553Y-18847068D01*
X-378787Y-18748996D01*
X-127439Y-18699000D01*
X128839Y-18699000D01*
X380187Y-18748996D01*
G37*
G36*
X7482921Y-8715774D02*
G01*
X7583195Y-8757309D01*
X7583196Y-8757310D01*
X7673442Y-8817610D01*
X7750190Y-8894358D01*
X7750191Y-8894360D01*
X7810491Y-8984605D01*
X7852026Y-9084879D01*
X7873200Y-9191330D01*
X7873200Y-9299870D01*
X7852026Y-9406321D01*
X7810491Y-9506595D01*
X7810490Y-9506596D01*
X7750190Y-9596842D01*
X7673442Y-9673590D01*
X7628012Y-9703945D01*
X7583195Y-9733891D01*
X7507811Y-9765116D01*
X7486200Y-9776667D01*
X7467259Y-9792212D01*
X7451713Y-9811154D01*
X7440162Y-9832765D01*
X7433049Y-9856214D01*
X7430647Y-9880600D01*
X7433049Y-9904986D01*
X7440162Y-9928435D01*
X7451713Y-9950046D01*
X7467258Y-9968987D01*
X7486200Y-9984533D01*
X7507811Y-9996084D01*
X7583195Y-10027309D01*
X7583196Y-10027310D01*
X7673442Y-10087610D01*
X7750190Y-10164358D01*
X7750191Y-10164360D01*
X7810491Y-10254605D01*
X7852026Y-10354879D01*
X7873200Y-10461330D01*
X7873200Y-10569870D01*
X7852026Y-10676321D01*
X7810491Y-10776595D01*
X7810490Y-10776596D01*
X7750190Y-10866842D01*
X7673442Y-10943590D01*
X7628012Y-10973945D01*
X7583195Y-11003891D01*
X7507811Y-11035116D01*
X7486200Y-11046667D01*
X7467259Y-11062212D01*
X7451713Y-11081154D01*
X7440162Y-11102765D01*
X7433049Y-11126214D01*
X7430647Y-11150600D01*
X7433049Y-11174986D01*
X7440162Y-11198435D01*
X7451713Y-11220046D01*
X7467258Y-11238987D01*
X7486200Y-11254533D01*
X7507811Y-11266084D01*
X7583195Y-11297309D01*
X7583196Y-11297310D01*
X7673442Y-11357610D01*
X7750190Y-11434358D01*
X7750191Y-11434360D01*
X7810491Y-11524605D01*
X7852026Y-11624879D01*
X7873200Y-11731330D01*
X7873200Y-11839870D01*
X7852026Y-11946321D01*
X7810491Y-12046595D01*
X7810490Y-12046596D01*
X7750190Y-12136842D01*
X7673442Y-12213590D01*
X7628012Y-12243945D01*
X7583195Y-12273891D01*
X7507811Y-12305116D01*
X7486200Y-12316667D01*
X7467259Y-12332212D01*
X7451713Y-12351154D01*
X7440162Y-12372765D01*
X7433049Y-12396214D01*
X7430647Y-12420600D01*
X7433049Y-12444986D01*
X7440162Y-12468435D01*
X7451713Y-12490046D01*
X7467258Y-12508987D01*
X7486200Y-12524533D01*
X7507811Y-12536084D01*
X7583195Y-12567309D01*
X7583196Y-12567310D01*
X7673442Y-12627610D01*
X7750190Y-12704358D01*
X7750191Y-12704360D01*
X7810491Y-12794605D01*
X7852026Y-12894879D01*
X7873200Y-13001330D01*
X7873200Y-13109870D01*
X7852026Y-13216321D01*
X7810491Y-13316595D01*
X7810490Y-13316596D01*
X7750190Y-13406842D01*
X7673442Y-13483590D01*
X7628012Y-13513945D01*
X7583195Y-13543891D01*
X7507811Y-13575116D01*
X7486200Y-13586667D01*
X7467259Y-13602212D01*
X7451713Y-13621154D01*
X7440162Y-13642765D01*
X7433049Y-13666214D01*
X7430647Y-13690600D01*
X7433049Y-13714986D01*
X7440162Y-13738435D01*
X7451713Y-13760046D01*
X7467258Y-13778987D01*
X7486200Y-13794533D01*
X7507811Y-13806084D01*
X7583195Y-13837309D01*
X7583196Y-13837310D01*
X7673442Y-13897610D01*
X7750190Y-13974358D01*
X7750191Y-13974360D01*
X7810491Y-14064605D01*
X7852026Y-14164879D01*
X7873200Y-14271330D01*
X7873200Y-14379870D01*
X7852026Y-14486321D01*
X7810491Y-14586595D01*
X7810490Y-14586596D01*
X7750190Y-14676842D01*
X7673442Y-14753590D01*
X7628012Y-14783945D01*
X7583195Y-14813891D01*
X7507811Y-14845116D01*
X7486200Y-14856667D01*
X7467259Y-14872212D01*
X7451713Y-14891154D01*
X7440162Y-14912765D01*
X7433049Y-14936214D01*
X7430647Y-14960600D01*
X7433049Y-14984986D01*
X7440162Y-15008435D01*
X7451713Y-15030046D01*
X7467258Y-15048987D01*
X7486200Y-15064533D01*
X7507811Y-15076084D01*
X7583195Y-15107309D01*
X7583196Y-15107310D01*
X7673442Y-15167610D01*
X7750190Y-15244358D01*
X7750191Y-15244360D01*
X7810491Y-15334605D01*
X7852026Y-15434879D01*
X7873200Y-15541330D01*
X7873200Y-15649870D01*
X7852026Y-15756321D01*
X7810491Y-15856595D01*
X7810490Y-15856596D01*
X7750190Y-15946842D01*
X7673442Y-16023590D01*
X7628012Y-16053945D01*
X7583195Y-16083891D01*
X7507811Y-16115116D01*
X7486200Y-16126667D01*
X7467259Y-16142212D01*
X7451713Y-16161154D01*
X7440162Y-16182765D01*
X7433049Y-16206214D01*
X7430647Y-16230600D01*
X7433049Y-16254986D01*
X7440162Y-16278435D01*
X7451713Y-16300046D01*
X7467258Y-16318987D01*
X7486200Y-16334533D01*
X7507811Y-16346084D01*
X7583195Y-16377309D01*
X7583196Y-16377310D01*
X7673442Y-16437610D01*
X7750190Y-16514358D01*
X7750191Y-16514360D01*
X7810491Y-16604605D01*
X7852026Y-16704879D01*
X7873200Y-16811330D01*
X7873200Y-16919870D01*
X7852026Y-17026321D01*
X7810491Y-17126595D01*
X7810490Y-17126596D01*
X7750190Y-17216842D01*
X7673442Y-17293590D01*
X7642016Y-17314588D01*
X7580536Y-17355668D01*
X7561594Y-17371214D01*
X7546049Y-17390156D01*
X7534498Y-17411767D01*
X7527385Y-17435215D01*
X7524983Y-17459602D01*
X7527385Y-17483988D01*
X7534498Y-17507437D01*
X7546049Y-17529047D01*
X7561595Y-17547989D01*
X7580537Y-17563534D01*
X7602148Y-17575085D01*
X7625596Y-17582198D01*
X7649982Y-17584600D01*
X7873200Y-17584600D01*
X7873200Y-18686600D01*
X6771200Y-18686600D01*
X6771200Y-17584600D01*
X6994418Y-17584600D01*
X7018804Y-17582198D01*
X7042253Y-17575085D01*
X7063864Y-17563534D01*
X7082806Y-17547989D01*
X7098351Y-17529047D01*
X7109902Y-17507436D01*
X7117015Y-17483987D01*
X7119417Y-17459601D01*
X7117015Y-17435215D01*
X7109902Y-17411766D01*
X7098351Y-17390155D01*
X7082806Y-17371213D01*
X7063864Y-17355668D01*
X7002384Y-17314588D01*
X6970958Y-17293590D01*
X6894210Y-17216842D01*
X6833910Y-17126596D01*
X6833909Y-17126595D01*
X6792374Y-17026321D01*
X6771200Y-16919870D01*
X6771200Y-16811330D01*
X6792374Y-16704879D01*
X6833909Y-16604605D01*
X6894209Y-16514360D01*
X6894210Y-16514358D01*
X6970958Y-16437610D01*
X7061204Y-16377310D01*
X7061205Y-16377309D01*
X7136589Y-16346084D01*
X7158200Y-16334533D01*
X7177141Y-16318988D01*
X7192687Y-16300046D01*
X7204238Y-16278435D01*
X7211351Y-16254986D01*
X7213753Y-16230600D01*
X7211351Y-16206214D01*
X7204238Y-16182765D01*
X7192687Y-16161154D01*
X7177142Y-16142213D01*
X7158200Y-16126667D01*
X7136589Y-16115116D01*
X7061205Y-16083891D01*
X7016388Y-16053945D01*
X6970958Y-16023590D01*
X6894210Y-15946842D01*
X6833910Y-15856596D01*
X6833909Y-15856595D01*
X6792374Y-15756321D01*
X6771200Y-15649870D01*
X6771200Y-15541330D01*
X6792374Y-15434879D01*
X6833909Y-15334605D01*
X6894209Y-15244360D01*
X6894210Y-15244358D01*
X6970958Y-15167610D01*
X7061204Y-15107310D01*
X7061205Y-15107309D01*
X7136589Y-15076084D01*
X7158200Y-15064533D01*
X7177141Y-15048988D01*
X7192687Y-15030046D01*
X7204238Y-15008435D01*
X7211351Y-14984986D01*
X7213753Y-14960600D01*
X7211351Y-14936214D01*
X7204238Y-14912765D01*
X7192687Y-14891154D01*
X7177142Y-14872213D01*
X7158200Y-14856667D01*
X7136589Y-14845116D01*
X7061205Y-14813891D01*
X7016388Y-14783945D01*
X6970958Y-14753590D01*
X6894210Y-14676842D01*
X6833910Y-14586596D01*
X6833909Y-14586595D01*
X6792374Y-14486321D01*
X6771200Y-14379870D01*
X6771200Y-14271330D01*
X6792374Y-14164879D01*
X6833909Y-14064605D01*
X6894209Y-13974360D01*
X6894210Y-13974358D01*
X6970958Y-13897610D01*
X7061204Y-13837310D01*
X7061205Y-13837309D01*
X7136589Y-13806084D01*
X7158200Y-13794533D01*
X7177141Y-13778988D01*
X7192687Y-13760046D01*
X7204238Y-13738435D01*
X7211351Y-13714986D01*
X7213753Y-13690600D01*
X7211351Y-13666214D01*
X7204238Y-13642765D01*
X7192687Y-13621154D01*
X7177142Y-13602213D01*
X7158200Y-13586667D01*
X7136589Y-13575116D01*
X7061205Y-13543891D01*
X7016388Y-13513945D01*
X6970958Y-13483590D01*
X6894210Y-13406842D01*
X6833910Y-13316596D01*
X6833909Y-13316595D01*
X6792374Y-13216321D01*
X6771200Y-13109870D01*
X6771200Y-13001330D01*
X6792374Y-12894879D01*
X6833909Y-12794605D01*
X6894209Y-12704360D01*
X6894210Y-12704358D01*
X6970958Y-12627610D01*
X7061204Y-12567310D01*
X7061205Y-12567309D01*
X7136589Y-12536084D01*
X7158200Y-12524533D01*
X7177141Y-12508988D01*
X7192687Y-12490046D01*
X7204238Y-12468435D01*
X7211351Y-12444986D01*
X7213753Y-12420600D01*
X7211351Y-12396214D01*
X7204238Y-12372765D01*
X7192687Y-12351154D01*
X7177142Y-12332213D01*
X7158200Y-12316667D01*
X7136589Y-12305116D01*
X7061205Y-12273891D01*
X7016388Y-12243945D01*
X6970958Y-12213590D01*
X6894210Y-12136842D01*
X6833910Y-12046596D01*
X6833909Y-12046595D01*
X6792374Y-11946321D01*
X6771200Y-11839870D01*
X6771200Y-11731330D01*
X6792374Y-11624879D01*
X6833909Y-11524605D01*
X6894209Y-11434360D01*
X6894210Y-11434358D01*
X6970958Y-11357610D01*
X7061204Y-11297310D01*
X7061205Y-11297309D01*
X7136589Y-11266084D01*
X7158200Y-11254533D01*
X7177141Y-11238988D01*
X7192687Y-11220046D01*
X7204238Y-11198435D01*
X7211351Y-11174986D01*
X7213753Y-11150600D01*
X7211351Y-11126214D01*
X7204238Y-11102765D01*
X7192687Y-11081154D01*
X7177142Y-11062213D01*
X7158200Y-11046667D01*
X7136589Y-11035116D01*
X7061205Y-11003891D01*
X7016388Y-10973945D01*
X6970958Y-10943590D01*
X6894210Y-10866842D01*
X6833910Y-10776596D01*
X6833909Y-10776595D01*
X6792374Y-10676321D01*
X6771200Y-10569870D01*
X6771200Y-10461330D01*
X6792374Y-10354879D01*
X6833909Y-10254605D01*
X6894209Y-10164360D01*
X6894210Y-10164358D01*
X6970958Y-10087610D01*
X7061204Y-10027310D01*
X7061205Y-10027309D01*
X7136589Y-9996084D01*
X7158200Y-9984533D01*
X7177141Y-9968988D01*
X7192687Y-9950046D01*
X7204238Y-9928435D01*
X7211351Y-9904986D01*
X7213753Y-9880600D01*
X7211351Y-9856214D01*
X7204238Y-9832765D01*
X7192687Y-9811154D01*
X7177142Y-9792213D01*
X7158200Y-9776667D01*
X7136589Y-9765116D01*
X7061205Y-9733891D01*
X7016388Y-9703945D01*
X6970958Y-9673590D01*
X6894210Y-9596842D01*
X6833910Y-9506596D01*
X6833909Y-9506595D01*
X6792374Y-9406321D01*
X6771200Y-9299870D01*
X6771200Y-9191330D01*
X6792374Y-9084879D01*
X6833909Y-8984605D01*
X6894209Y-8894360D01*
X6894210Y-8894358D01*
X6970958Y-8817610D01*
X7061204Y-8757310D01*
X7061205Y-8757309D01*
X7161479Y-8715774D01*
X7267930Y-8694600D01*
X7376470Y-8694600D01*
X7482921Y-8715774D01*
G37*
G36*
X-13719813Y-4748996D02*
G01*
X-13483047Y-4847068D01*
X-13483045Y-4847069D01*
X-13269961Y-4989447D01*
X-13088747Y-5170661D01*
X-12946368Y-5383747D01*
X-12848296Y-5620513D01*
X-12798300Y-5871861D01*
X-12798300Y-6128139D01*
X-12848296Y-6379487D01*
X-12946368Y-6616253D01*
X-12946369Y-6616255D01*
X-13088747Y-6829339D01*
X-13269961Y-7010553D01*
X-13483045Y-7152931D01*
X-13483046Y-7152932D01*
X-13483047Y-7152932D01*
X-13719813Y-7251004D01*
X-13971161Y-7301000D01*
X-14227439Y-7301000D01*
X-14478787Y-7251004D01*
X-14715553Y-7152932D01*
X-14715554Y-7152932D01*
X-14715555Y-7152931D01*
X-14928639Y-7010553D01*
X-15109853Y-6829339D01*
X-15252231Y-6616255D01*
X-15252232Y-6616253D01*
X-15350304Y-6379487D01*
X-15400300Y-6128139D01*
X-15400300Y-5871861D01*
X-15350304Y-5620513D01*
X-15252232Y-5383747D01*
X-15109853Y-5170661D01*
X-14928639Y-4989447D01*
X-14715555Y-4847069D01*
X-14715553Y-4847068D01*
X-14478787Y-4748996D01*
X-14227439Y-4699000D01*
X-13971161Y-4699000D01*
X-13719813Y-4748996D01*
G37*
G36*
X14480187Y-4748996D02*
G01*
X14716953Y-4847068D01*
X14716955Y-4847069D01*
X14930039Y-4989447D01*
X15111253Y-5170661D01*
X15253632Y-5383747D01*
X15351704Y-5620513D01*
X15401700Y-5871861D01*
X15401700Y-6128139D01*
X15351704Y-6379487D01*
X15253632Y-6616253D01*
X15253631Y-6616255D01*
X15111253Y-6829339D01*
X14930039Y-7010553D01*
X14716955Y-7152931D01*
X14716954Y-7152932D01*
X14716953Y-7152932D01*
X14480187Y-7251004D01*
X14228839Y-7301000D01*
X13972561Y-7301000D01*
X13721213Y-7251004D01*
X13484447Y-7152932D01*
X13484446Y-7152932D01*
X13484445Y-7152931D01*
X13271361Y-7010553D01*
X13090147Y-6829339D01*
X12947769Y-6616255D01*
X12947768Y-6616253D01*
X12849696Y-6379487D01*
X12799700Y-6128139D01*
X12799700Y-5871861D01*
X12849696Y-5620513D01*
X12947768Y-5383747D01*
X13090147Y-5170661D01*
X13271361Y-4989447D01*
X13484445Y-4847069D01*
X13484447Y-4847068D01*
X13721213Y-4748996D01*
X13972561Y-4699000D01*
X14228839Y-4699000D01*
X14480187Y-4748996D01*
G37*
G36*
X-13719813Y7251004D02*
G01*
X-13483047Y7152932D01*
X-13483045Y7152931D01*
X-13269961Y7010553D01*
X-13088747Y6829339D01*
X-12946368Y6616253D01*
X-12848296Y6379487D01*
X-12798300Y6128139D01*
X-12798300Y5871861D01*
X-12848296Y5620513D01*
X-12946368Y5383747D01*
X-12946369Y5383745D01*
X-13088747Y5170661D01*
X-13269961Y4989447D01*
X-13483045Y4847069D01*
X-13483046Y4847068D01*
X-13483047Y4847068D01*
X-13719813Y4748996D01*
X-13971161Y4699000D01*
X-14227439Y4699000D01*
X-14478787Y4748996D01*
X-14715553Y4847068D01*
X-14715554Y4847068D01*
X-14715555Y4847069D01*
X-14928639Y4989447D01*
X-15109853Y5170661D01*
X-15252231Y5383745D01*
X-15252232Y5383747D01*
X-15350304Y5620513D01*
X-15400300Y5871861D01*
X-15400300Y6128139D01*
X-15350304Y6379487D01*
X-15252232Y6616253D01*
X-15109853Y6829339D01*
X-14928639Y7010553D01*
X-14715555Y7152931D01*
X-14715553Y7152932D01*
X-14478787Y7251004D01*
X-14227439Y7301000D01*
X-13971161Y7301000D01*
X-13719813Y7251004D01*
G37*
G36*
X14480187Y7251004D02*
G01*
X14716953Y7152932D01*
X14716955Y7152931D01*
X14930039Y7010553D01*
X15111253Y6829339D01*
X15253632Y6616253D01*
X15351704Y6379487D01*
X15401700Y6128139D01*
X15401700Y5871861D01*
X15351704Y5620513D01*
X15253632Y5383747D01*
X15253631Y5383745D01*
X15111253Y5170661D01*
X14930039Y4989447D01*
X14716955Y4847069D01*
X14716954Y4847068D01*
X14716953Y4847068D01*
X14480187Y4748996D01*
X14228839Y4699000D01*
X13972561Y4699000D01*
X13721213Y4748996D01*
X13484447Y4847068D01*
X13484446Y4847068D01*
X13484445Y4847069D01*
X13271361Y4989447D01*
X13090147Y5170661D01*
X12947769Y5383745D01*
X12947768Y5383747D01*
X12849696Y5620513D01*
X12799700Y5871861D01*
X12799700Y6128139D01*
X12849696Y6379487D01*
X12947768Y6616253D01*
X13090147Y6829339D01*
X13271361Y7010553D01*
X13484445Y7152931D01*
X13484447Y7152932D01*
X13721213Y7251004D01*
X13972561Y7301000D01*
X14228839Y7301000D01*
X14480187Y7251004D01*
G37*
G36*
X-248662Y10695924D02*
G01*
X-228043Y10689669D01*
X-209047Y10679516D01*
X-192392Y10665848D01*
X-178724Y10649193D01*
X-168571Y10630197D01*
X-162316Y10609578D01*
X-159600Y10582000D01*
X-159600Y10073280D01*
X-162316Y10045702D01*
X-168571Y10025083D01*
X-178724Y10006087D01*
X-192392Y9989432D01*
X-209047Y9975764D01*
X-228043Y9965611D01*
X-248662Y9959356D01*
X-276240Y9956640D01*
X-734960Y9956640D01*
X-762538Y9959356D01*
X-783157Y9965611D01*
X-802153Y9975764D01*
X-818808Y9989432D01*
X-832476Y10006087D01*
X-842629Y10025083D01*
X-848884Y10045702D01*
X-851600Y10073280D01*
X-851600Y10582000D01*
X-848884Y10609578D01*
X-842629Y10630197D01*
X-832476Y10649193D01*
X-818808Y10665848D01*
X-802153Y10679516D01*
X-783157Y10689669D01*
X-762538Y10695924D01*
X-734960Y10698640D01*
X-276240Y10698640D01*
X-248662Y10695924D01*
G37*
G36*
X721338Y10695924D02*
G01*
X741957Y10689669D01*
X760953Y10679516D01*
X777608Y10665848D01*
X791276Y10649193D01*
X801429Y10630197D01*
X807684Y10609578D01*
X810400Y10582000D01*
X810400Y10073280D01*
X807684Y10045702D01*
X801429Y10025083D01*
X791276Y10006087D01*
X777608Y9989432D01*
X760953Y9975764D01*
X741957Y9965611D01*
X721338Y9959356D01*
X693760Y9956640D01*
X235040Y9956640D01*
X207462Y9959356D01*
X186843Y9965611D01*
X167847Y9975764D01*
X151192Y9989432D01*
X137524Y10006087D01*
X127371Y10025083D01*
X121116Y10045702D01*
X118400Y10073280D01*
X118400Y10582000D01*
X121116Y10609578D01*
X127371Y10630197D01*
X137524Y10649193D01*
X151192Y10665848D01*
X167847Y10679516D01*
X186843Y10689669D01*
X207462Y10695924D01*
X235040Y10698640D01*
X693760Y10698640D01*
X721338Y10695924D01*
G37*
G36*
X1451000Y11081900D02*
G01*
X449000Y11081900D01*
X449000Y11656901D01*
X446598Y11681287D01*
X439485Y11704736D01*
X427934Y11726347D01*
X412389Y11745289D01*
X393447Y11760834D01*
X371836Y11772385D01*
X349000Y11779312D01*
X349000Y12233900D01*
X1451000Y12233900D01*
X1451000Y11081900D01*
G37*
G36*
X-449000Y11081900D02*
G01*
X-1451000Y11081900D01*
X-1451000Y12233900D01*
X-449000Y12233900D01*
X-449000Y11081900D01*
G37*
G36*
X-420429Y13770555D02*
G01*
X-386451Y13760247D01*
X-355130Y13743506D01*
X-327681Y13720979D01*
X-305154Y13693530D01*
X-288413Y13662209D01*
X-278105Y13628231D01*
X-274020Y13586750D01*
X-274020Y12910530D01*
X-278105Y12869049D01*
X-288413Y12835071D01*
X-305154Y12803750D01*
X-327681Y12776301D01*
X-355130Y12753774D01*
X-386451Y12737033D01*
X-420429Y12726725D01*
X-461910Y12722640D01*
X-1063130Y12722640D01*
X-1104611Y12726725D01*
X-1138589Y12737033D01*
X-1169910Y12753774D01*
X-1197359Y12776301D01*
X-1219886Y12803750D01*
X-1236627Y12835071D01*
X-1246935Y12869049D01*
X-1251020Y12910530D01*
X-1251020Y13586750D01*
X-1246935Y13628231D01*
X-1236627Y13662209D01*
X-1219886Y13693530D01*
X-1197359Y13720979D01*
X-1169910Y13743506D01*
X-1138589Y13760247D01*
X-1104611Y13770555D01*
X-1063130Y13774640D01*
X-461910Y13774640D01*
X-420429Y13770555D01*
G37*
G36*
X1154571Y13770555D02*
G01*
X1188549Y13760247D01*
X1219870Y13743506D01*
X1247319Y13720979D01*
X1269846Y13693530D01*
X1286587Y13662209D01*
X1296895Y13628231D01*
X1300980Y13586750D01*
X1300980Y12910530D01*
X1296895Y12869049D01*
X1286587Y12835071D01*
X1269846Y12803750D01*
X1247319Y12776301D01*
X1219870Y12753774D01*
X1188549Y12737033D01*
X1154571Y12726725D01*
X1113090Y12722640D01*
X511870Y12722640D01*
X470389Y12726725D01*
X436411Y12737033D01*
X405090Y12753774D01*
X377641Y12776301D01*
X355114Y12803750D01*
X338373Y12835071D01*
X328065Y12869049D01*
X323980Y12910530D01*
X323980Y13586750D01*
X328065Y13628231D01*
X338373Y13662209D01*
X355114Y13693530D01*
X377641Y13720979D01*
X405090Y13743506D01*
X436411Y13760247D01*
X470389Y13770555D01*
X511870Y13774640D01*
X1113090Y13774640D01*
X1154571Y13770555D01*
G37*
G36*
X2323678Y13589524D02*
G01*
X2344297Y13583269D01*
X2363293Y13573116D01*
X2379948Y13559448D01*
X2393616Y13542793D01*
X2403769Y13523797D01*
X2410024Y13503178D01*
X2412740Y13475600D01*
X2412740Y13016880D01*
X2410024Y12989302D01*
X2403769Y12968683D01*
X2393616Y12949687D01*
X2379948Y12933032D01*
X2363293Y12919364D01*
X2344297Y12909211D01*
X2323678Y12902956D01*
X2296100Y12900240D01*
X1787380Y12900240D01*
X1759802Y12902956D01*
X1739183Y12909211D01*
X1720187Y12919364D01*
X1703532Y12933032D01*
X1689864Y12949687D01*
X1679711Y12968683D01*
X1673456Y12989302D01*
X1670740Y13016880D01*
X1670740Y13475600D01*
X1673456Y13503178D01*
X1679711Y13523797D01*
X1689864Y13542793D01*
X1703532Y13559448D01*
X1720187Y13573116D01*
X1739183Y13583269D01*
X1759802Y13589524D01*
X1787380Y13592240D01*
X2296100Y13592240D01*
X2323678Y13589524D01*
G37*
G36*
X2323678Y14559524D02*
G01*
X2344297Y14553269D01*
X2363293Y14543116D01*
X2379948Y14529448D01*
X2393616Y14512793D01*
X2403769Y14493797D01*
X2410024Y14473178D01*
X2412740Y14445600D01*
X2412740Y13986880D01*
X2410024Y13959302D01*
X2403769Y13938683D01*
X2393616Y13919687D01*
X2379948Y13903032D01*
X2363293Y13889364D01*
X2344297Y13879211D01*
X2323678Y13872956D01*
X2296100Y13870240D01*
X1787380Y13870240D01*
X1759802Y13872956D01*
X1739183Y13879211D01*
X1720187Y13889364D01*
X1703532Y13903032D01*
X1689864Y13919687D01*
X1679711Y13938683D01*
X1673456Y13959302D01*
X1670740Y13986880D01*
X1670740Y14445600D01*
X1673456Y14473178D01*
X1679711Y14493797D01*
X1689864Y14512793D01*
X1703532Y14529448D01*
X1720187Y14543116D01*
X1739183Y14553269D01*
X1759802Y14559524D01*
X1787380Y14562240D01*
X2296100Y14562240D01*
X2323678Y14559524D01*
G37*
G36*
X15386700Y17780000D02*
G01*
X2686700Y17780000D01*
X2686700Y26035000D01*
X15386700Y26035000D01*
X15386700Y17780000D01*
G37*
G36*
X-2774300Y17780000D02*
G01*
X-15474300Y17780000D01*
X-15474300Y26035000D01*
X-2774300Y26035000D01*
X-2774300Y17780000D01*
G37*
G36*
X379487Y21251004D02*
G01*
X616253Y21152932D01*
X616255Y21152931D01*
X829339Y21010553D01*
X1010553Y20829339D01*
X1152932Y20616253D01*
X1251004Y20379487D01*
X1301000Y20128139D01*
X1301000Y19871861D01*
X1251004Y19620513D01*
X1152932Y19383747D01*
X1152931Y19383745D01*
X1010553Y19170661D01*
X829339Y18989447D01*
X616255Y18847069D01*
X616254Y18847068D01*
X616253Y18847068D01*
X379487Y18748996D01*
X128139Y18699000D01*
X-128139Y18699000D01*
X-379487Y18748996D01*
X-616253Y18847068D01*
X-616254Y18847068D01*
X-616255Y18847069D01*
X-829339Y18989447D01*
X-1010553Y19170661D01*
X-1152931Y19383745D01*
X-1152932Y19383747D01*
X-1251004Y19620513D01*
X-1301000Y19871861D01*
X-1301000Y20128139D01*
X-1251004Y20379487D01*
X-1152932Y20616253D01*
X-1010553Y20829339D01*
X-829339Y21010553D01*
X-616255Y21152931D01*
X-616253Y21152932D01*
X-379487Y21251004D01*
X-128139Y21301000D01*
X128139Y21301000D01*
X379487Y21251004D01*
G37*
M02*
