G04 #@! TF.GenerationSoftware,KiCad,Pcbnew,5.1.5-52549c5~84~ubuntu18.04.1*
G04 #@! TF.CreationDate,2019-12-19T20:38:57-05:00*
G04 #@! TF.ProjectId,SwarmBot,53776172-6d42-46f7-942e-6b696361645f,rev?*
G04 #@! TF.SameCoordinates,Original*
G04 #@! TF.FileFunction,Legend,Bot*
G04 #@! TF.FilePolarity,Positive*
%FSLAX46Y46*%
G04 Gerber Fmt 4.6, Leading zero omitted, Abs format (unit mm)*
G04 Created by KiCad (PCBNEW 5.1.5-52549c5~84~ubuntu18.04.1) date 2019-12-19 20:38:57*
%MOMM*%
%LPD*%
G04 APERTURE LIST*
%ADD10C,0.200000*%
%ADD11C,0.300000*%
%ADD12C,0.120000*%
%ADD13C,0.254000*%
G04 APERTURE END LIST*
D10*
X5426190Y-15952380D02*
X5426190Y-14952380D01*
X4854761Y-15952380D02*
X5283333Y-15380952D01*
X4854761Y-14952380D02*
X5426190Y-15523809D01*
X4045238Y-15904761D02*
X4140476Y-15952380D01*
X4330952Y-15952380D01*
X4426190Y-15904761D01*
X4473809Y-15809523D01*
X4473809Y-15428571D01*
X4426190Y-15333333D01*
X4330952Y-15285714D01*
X4140476Y-15285714D01*
X4045238Y-15333333D01*
X3997619Y-15428571D01*
X3997619Y-15523809D01*
X4473809Y-15619047D01*
X3569047Y-15952380D02*
X3569047Y-15285714D01*
X3569047Y-14952380D02*
X3616666Y-15000000D01*
X3569047Y-15047619D01*
X3521428Y-15000000D01*
X3569047Y-14952380D01*
X3569047Y-15047619D01*
X2950000Y-15952380D02*
X3045238Y-15904761D01*
X3092857Y-15857142D01*
X3140476Y-15761904D01*
X3140476Y-15476190D01*
X3092857Y-15380952D01*
X3045238Y-15333333D01*
X2950000Y-15285714D01*
X2807142Y-15285714D01*
X2711904Y-15333333D01*
X2664285Y-15380952D01*
X2616666Y-15476190D01*
X2616666Y-15761904D01*
X2664285Y-15857142D01*
X2711904Y-15904761D01*
X2807142Y-15952380D01*
X2950000Y-15952380D01*
X2188095Y-15285714D02*
X2188095Y-15952380D01*
X2188095Y-15380952D02*
X2140476Y-15333333D01*
X2045238Y-15285714D01*
X1902380Y-15285714D01*
X1807142Y-15333333D01*
X1759523Y-15428571D01*
X1759523Y-15952380D01*
X188095Y-15428571D02*
X45238Y-15476190D01*
X-2380Y-15523809D01*
X-49999Y-15619047D01*
X-49999Y-15761904D01*
X-2380Y-15857142D01*
X45238Y-15904761D01*
X140476Y-15952380D01*
X521428Y-15952380D01*
X521428Y-14952380D01*
X188095Y-14952380D01*
X92857Y-15000000D01*
X45238Y-15047619D01*
X-2380Y-15142857D01*
X-2380Y-15238095D01*
X45238Y-15333333D01*
X92857Y-15380952D01*
X188095Y-15428571D01*
X521428Y-15428571D01*
X-478571Y-15952380D02*
X-478571Y-15285714D01*
X-478571Y-14952380D02*
X-430952Y-15000000D01*
X-478571Y-15047619D01*
X-526190Y-15000000D01*
X-478571Y-14952380D01*
X-478571Y-15047619D01*
X-907142Y-15904761D02*
X-1002380Y-15952380D01*
X-1192857Y-15952380D01*
X-1288095Y-15904761D01*
X-1335714Y-15809523D01*
X-1335714Y-15761904D01*
X-1288095Y-15666666D01*
X-1192857Y-15619047D01*
X-1049999Y-15619047D01*
X-954761Y-15571428D01*
X-907142Y-15476190D01*
X-907142Y-15428571D01*
X-954761Y-15333333D01*
X-1049999Y-15285714D01*
X-1192857Y-15285714D01*
X-1288095Y-15333333D01*
X-1907142Y-15952380D02*
X-1811904Y-15904761D01*
X-1764285Y-15809523D01*
X-1764285Y-14952380D01*
X-2716666Y-15952380D02*
X-2716666Y-15428571D01*
X-2669047Y-15333333D01*
X-2573809Y-15285714D01*
X-2383333Y-15285714D01*
X-2288095Y-15333333D01*
X-2716666Y-15904761D02*
X-2621428Y-15952380D01*
X-2383333Y-15952380D01*
X-2288095Y-15904761D01*
X-2240476Y-15809523D01*
X-2240476Y-15714285D01*
X-2288095Y-15619047D01*
X-2383333Y-15571428D01*
X-2621428Y-15571428D01*
X-2716666Y-15523809D01*
X-3192857Y-15285714D02*
X-3192857Y-15952380D01*
X-3192857Y-15380952D02*
X-3240476Y-15333333D01*
X-3335714Y-15285714D01*
X-3478571Y-15285714D01*
X-3573809Y-15333333D01*
X-3621428Y-15428571D01*
X-3621428Y-15952380D01*
X-4526190Y-15952380D02*
X-4526190Y-14952380D01*
X-4526190Y-15904761D02*
X-4430952Y-15952380D01*
X-4240476Y-15952380D01*
X-4145238Y-15904761D01*
X-4097619Y-15857142D01*
X-4049999Y-15761904D01*
X-4049999Y-15476190D01*
X-4097619Y-15380952D01*
X-4145238Y-15333333D01*
X-4240476Y-15285714D01*
X-4430952Y-15285714D01*
X-4526190Y-15333333D01*
X2164285Y-16747619D02*
X2116666Y-16700000D01*
X2021428Y-16652380D01*
X1783333Y-16652380D01*
X1688095Y-16700000D01*
X1640476Y-16747619D01*
X1592857Y-16842857D01*
X1592857Y-16938095D01*
X1640476Y-17080952D01*
X2211904Y-17652380D01*
X1592857Y-17652380D01*
X973809Y-16652380D02*
X878571Y-16652380D01*
X783333Y-16700000D01*
X735714Y-16747619D01*
X688095Y-16842857D01*
X640476Y-17033333D01*
X640476Y-17271428D01*
X688095Y-17461904D01*
X735714Y-17557142D01*
X783333Y-17604761D01*
X878571Y-17652380D01*
X973809Y-17652380D01*
X1069047Y-17604761D01*
X1116666Y-17557142D01*
X1164285Y-17461904D01*
X1211904Y-17271428D01*
X1211904Y-17033333D01*
X1164285Y-16842857D01*
X1116666Y-16747619D01*
X1069047Y-16700000D01*
X973809Y-16652380D01*
X-311904Y-17652380D02*
X259523Y-17652380D01*
X-26190Y-17652380D02*
X-26190Y-16652380D01*
X69047Y-16795238D01*
X164285Y-16890476D01*
X259523Y-16938095D01*
X-788095Y-17652380D02*
X-978571Y-17652380D01*
X-1073809Y-17604761D01*
X-1121428Y-17557142D01*
X-1216666Y-17414285D01*
X-1264285Y-17223809D01*
X-1264285Y-16842857D01*
X-1216666Y-16747619D01*
X-1169047Y-16700000D01*
X-1073809Y-16652380D01*
X-883333Y-16652380D01*
X-788095Y-16700000D01*
X-740476Y-16747619D01*
X-692857Y-16842857D01*
X-692857Y-17080952D01*
X-740476Y-17176190D01*
X-788095Y-17223809D01*
X-883333Y-17271428D01*
X-1073809Y-17271428D01*
X-1169047Y-17223809D01*
X-1216666Y-17176190D01*
X-1264285Y-17080952D01*
D11*
X6075714Y-9137142D02*
X5861428Y-9208571D01*
X5504285Y-9208571D01*
X5361428Y-9137142D01*
X5290000Y-9065714D01*
X5218571Y-8922857D01*
X5218571Y-8780000D01*
X5290000Y-8637142D01*
X5361428Y-8565714D01*
X5504285Y-8494285D01*
X5790000Y-8422857D01*
X5932857Y-8351428D01*
X6004285Y-8280000D01*
X6075714Y-8137142D01*
X6075714Y-7994285D01*
X6004285Y-7851428D01*
X5932857Y-7780000D01*
X5790000Y-7708571D01*
X5432857Y-7708571D01*
X5218571Y-7780000D01*
X4718571Y-8208571D02*
X4432857Y-9208571D01*
X4147142Y-8494285D01*
X3861428Y-9208571D01*
X3575714Y-8208571D01*
X2361428Y-9208571D02*
X2361428Y-8422857D01*
X2432857Y-8280000D01*
X2575714Y-8208571D01*
X2861428Y-8208571D01*
X3004285Y-8280000D01*
X2361428Y-9137142D02*
X2504285Y-9208571D01*
X2861428Y-9208571D01*
X3004285Y-9137142D01*
X3075714Y-8994285D01*
X3075714Y-8851428D01*
X3004285Y-8708571D01*
X2861428Y-8637142D01*
X2504285Y-8637142D01*
X2361428Y-8565714D01*
X1647142Y-9208571D02*
X1647142Y-8208571D01*
X1647142Y-8494285D02*
X1575714Y-8351428D01*
X1504285Y-8280000D01*
X1361428Y-8208571D01*
X1218571Y-8208571D01*
X718571Y-9208571D02*
X718571Y-8208571D01*
X718571Y-8351428D02*
X647142Y-8280000D01*
X504285Y-8208571D01*
X290000Y-8208571D01*
X147142Y-8280000D01*
X75714Y-8422857D01*
X75714Y-9208571D01*
X75714Y-8422857D02*
X4285Y-8280000D01*
X-138571Y-8208571D01*
X-352857Y-8208571D01*
X-495714Y-8280000D01*
X-567142Y-8422857D01*
X-567142Y-9208571D01*
X-1781428Y-8422857D02*
X-1995714Y-8494285D01*
X-2067142Y-8565714D01*
X-2138571Y-8708571D01*
X-2138571Y-8922857D01*
X-2067142Y-9065714D01*
X-1995714Y-9137142D01*
X-1852857Y-9208571D01*
X-1281428Y-9208571D01*
X-1281428Y-7708571D01*
X-1781428Y-7708571D01*
X-1924285Y-7780000D01*
X-1995714Y-7851428D01*
X-2067142Y-7994285D01*
X-2067142Y-8137142D01*
X-1995714Y-8280000D01*
X-1924285Y-8351428D01*
X-1781428Y-8422857D01*
X-1281428Y-8422857D01*
X-2995714Y-9208571D02*
X-2852857Y-9137142D01*
X-2781428Y-9065714D01*
X-2710000Y-8922857D01*
X-2710000Y-8494285D01*
X-2781428Y-8351428D01*
X-2852857Y-8280000D01*
X-2995714Y-8208571D01*
X-3210000Y-8208571D01*
X-3352857Y-8280000D01*
X-3424285Y-8351428D01*
X-3495714Y-8494285D01*
X-3495714Y-8922857D01*
X-3424285Y-9065714D01*
X-3352857Y-9137142D01*
X-3210000Y-9208571D01*
X-2995714Y-9208571D01*
X-3924285Y-8208571D02*
X-4495714Y-8208571D01*
X-4138571Y-7708571D02*
X-4138571Y-8994285D01*
X-4210000Y-9137142D01*
X-4352857Y-9208571D01*
X-4495714Y-9208571D01*
X1504285Y-10258571D02*
X1004285Y-11758571D01*
X504285Y-10258571D01*
X-781428Y-11758571D02*
X75714Y-11758571D01*
X-352857Y-11758571D02*
X-352857Y-10258571D01*
X-210000Y-10472857D01*
X-67142Y-10615714D01*
X75714Y-10687142D01*
X7218571Y-13522857D02*
X7004285Y-13594285D01*
X6932857Y-13665714D01*
X6861428Y-13808571D01*
X6861428Y-14022857D01*
X6932857Y-14165714D01*
X7004285Y-14237142D01*
X7147142Y-14308571D01*
X7718571Y-14308571D01*
X7718571Y-12808571D01*
X7218571Y-12808571D01*
X7075714Y-12880000D01*
X7004285Y-12951428D01*
X6932857Y-13094285D01*
X6932857Y-13237142D01*
X7004285Y-13380000D01*
X7075714Y-13451428D01*
X7218571Y-13522857D01*
X7718571Y-13522857D01*
X6004285Y-14308571D02*
X6147142Y-14237142D01*
X6218571Y-14165714D01*
X6290000Y-14022857D01*
X6290000Y-13594285D01*
X6218571Y-13451428D01*
X6147142Y-13380000D01*
X6004285Y-13308571D01*
X5790000Y-13308571D01*
X5647142Y-13380000D01*
X5575714Y-13451428D01*
X5504285Y-13594285D01*
X5504285Y-14022857D01*
X5575714Y-14165714D01*
X5647142Y-14237142D01*
X5790000Y-14308571D01*
X6004285Y-14308571D01*
X5075714Y-13308571D02*
X4504285Y-13308571D01*
X4861428Y-12808571D02*
X4861428Y-14094285D01*
X4790000Y-14237142D01*
X4647142Y-14308571D01*
X4504285Y-14308571D01*
X4218571Y-13308571D02*
X3647142Y-13308571D01*
X4004285Y-12808571D02*
X4004285Y-14094285D01*
X3932857Y-14237142D01*
X3790000Y-14308571D01*
X3647142Y-14308571D01*
X2932857Y-14308571D02*
X3075714Y-14237142D01*
X3147142Y-14165714D01*
X3218571Y-14022857D01*
X3218571Y-13594285D01*
X3147142Y-13451428D01*
X3075714Y-13380000D01*
X2932857Y-13308571D01*
X2718571Y-13308571D01*
X2575714Y-13380000D01*
X2504285Y-13451428D01*
X2432857Y-13594285D01*
X2432857Y-14022857D01*
X2504285Y-14165714D01*
X2575714Y-14237142D01*
X2718571Y-14308571D01*
X2932857Y-14308571D01*
X1790000Y-14308571D02*
X1790000Y-13308571D01*
X1790000Y-13451428D02*
X1718571Y-13380000D01*
X1575714Y-13308571D01*
X1361428Y-13308571D01*
X1218571Y-13380000D01*
X1147142Y-13522857D01*
X1147142Y-14308571D01*
X1147142Y-13522857D02*
X1075714Y-13380000D01*
X932857Y-13308571D01*
X718571Y-13308571D01*
X575714Y-13380000D01*
X504285Y-13522857D01*
X504285Y-14308571D01*
X-1852857Y-13522857D02*
X-2067142Y-13594285D01*
X-2138571Y-13665714D01*
X-2209999Y-13808571D01*
X-2209999Y-14022857D01*
X-2138571Y-14165714D01*
X-2067142Y-14237142D01*
X-1924285Y-14308571D01*
X-1352857Y-14308571D01*
X-1352857Y-12808571D01*
X-1852857Y-12808571D01*
X-1995714Y-12880000D01*
X-2067142Y-12951428D01*
X-2138571Y-13094285D01*
X-2138571Y-13237142D01*
X-2067142Y-13380000D01*
X-1995714Y-13451428D01*
X-1852857Y-13522857D01*
X-1352857Y-13522857D01*
X-3067142Y-14308571D02*
X-2924285Y-14237142D01*
X-2852857Y-14165714D01*
X-2781428Y-14022857D01*
X-2781428Y-13594285D01*
X-2852857Y-13451428D01*
X-2924285Y-13380000D01*
X-3067142Y-13308571D01*
X-3281428Y-13308571D01*
X-3424285Y-13380000D01*
X-3495714Y-13451428D01*
X-3567142Y-13594285D01*
X-3567142Y-14022857D01*
X-3495714Y-14165714D01*
X-3424285Y-14237142D01*
X-3281428Y-14308571D01*
X-3067142Y-14308571D01*
X-4852857Y-14308571D02*
X-4852857Y-13522857D01*
X-4781428Y-13380000D01*
X-4638571Y-13308571D01*
X-4352857Y-13308571D01*
X-4209999Y-13380000D01*
X-4852857Y-14237142D02*
X-4709999Y-14308571D01*
X-4352857Y-14308571D01*
X-4209999Y-14237142D01*
X-4138571Y-14094285D01*
X-4138571Y-13951428D01*
X-4209999Y-13808571D01*
X-4352857Y-13737142D01*
X-4709999Y-13737142D01*
X-4852857Y-13665714D01*
X-5567142Y-14308571D02*
X-5567142Y-13308571D01*
X-5567142Y-13594285D02*
X-5638571Y-13451428D01*
X-5709999Y-13380000D01*
X-5852857Y-13308571D01*
X-5995714Y-13308571D01*
X-7138571Y-14308571D02*
X-7138571Y-12808571D01*
X-7138571Y-14237142D02*
X-6995714Y-14308571D01*
X-6709999Y-14308571D01*
X-6567142Y-14237142D01*
X-6495714Y-14165714D01*
X-6424285Y-14022857D01*
X-6424285Y-13594285D01*
X-6495714Y-13451428D01*
X-6567142Y-13380000D01*
X-6709999Y-13308571D01*
X-6995714Y-13308571D01*
X-7138571Y-13380000D01*
D12*
X-1460020Y13983640D02*
X824980Y13983640D01*
X-1460020Y12513640D02*
X-1460020Y13983640D01*
X824980Y12513640D02*
X-1460020Y12513640D01*
D13*
X-1552140Y11044900D02*
G75*
G03X-1552140Y11044900I-43860J0D01*
G01*
X-330000Y12282900D02*
X281000Y12282900D01*
X-286000Y11032900D02*
X339000Y11032900D01*
M02*
